<svg width="200" height="58" viewBox="0 0 200 58" fill="none" xmlns="http://www.w3.org/2000/svg">
<path d="M10.3902 3.92438C9.53347 3.92438 8.9651 4.81429 9.32855 5.58897L13.4828 14.4845C13.8681 15.3085 14.6952 15.8344 15.6062 15.8358L25.9064 15.8462C28.1826 15.9693 29.9909 17.788 29.9909 20.0203C29.9909 22.2542 28.1826 24.0729 25.9064 24.1961L12.2135 24.1985C11.6503 24.1985 11.1079 24.4006 10.6822 24.7673L0.812577 33.2702C0.297144 33.7159 0 34.3625 0 35.0427V52.4992C0 53.4695 0.78775 54.2559 1.75859 54.2559H12.4408C13.4127 54.2559 14.1994 53.4695 14.1994 52.4992V36.1178H18.8361L26.6773 52.9034C27.0628 53.7271 27.891 54.2559 28.8034 54.2559H40.4562C41.314 54.2559 41.8811 53.3654 41.519 52.5896L33.0447 34.4467C38.5262 31.814 42.2963 26.3455 42.2963 20.0203C42.2963 11.1305 34.8497 3.92438 25.6639 3.92438H10.3902Z" fill="white"/>
<path d="M54.5636 35.505C52.4428 35.505 50.2925 35.2698 48.1128 34.7993C46.5077 34.4529 45.0464 33.9868 43.7288 33.4012C42.9461 33.0533 42.6457 32.1253 43.0036 31.3482L45.153 26.6813C45.5558 25.8067 46.6226 25.4748 47.5026 25.8683C48.3324 26.2393 49.1839 26.5405 50.0569 26.7717C51.5297 27.1245 52.9141 27.301 54.2101 27.301C55.3884 27.301 56.3457 27.1098 57.0821 26.7276C57.8479 26.3159 58.2308 25.7131 58.2308 24.9191C58.2308 24.2428 57.951 23.7282 57.3914 23.3754C56.8317 22.9931 55.8891 22.802 54.5636 22.802H52.0917C51.1875 22.802 50.4545 22.0703 50.4545 21.1676V17.0755C50.4545 16.6467 50.6233 16.235 50.9246 15.9293L56.9978 9.76598C57.6402 9.11409 58.7491 9.40701 58.9844 10.2907C59.184 11.0402 58.618 11.775 57.8412 11.775H45.1262C44.428 11.775 43.8066 11.333 43.5787 10.6742L41.9934 6.0917C41.6261 5.03025 42.4159 3.92383 43.5408 3.92383H65.3862C66.2904 3.92383 67.0234 4.65555 67.0234 5.55818V9.65035C67.0234 10.0792 66.8546 10.4908 66.5534 10.7965L59.7029 17.7485C59.3037 18.1536 58.6817 18.2406 58.1864 17.9605L56.417 16.9601C55.7716 16.5952 56.0311 15.6124 56.7728 15.6124C60.6609 15.6124 63.6213 16.4799 65.6537 18.2148C67.6862 19.9497 68.7024 22.1845 68.7024 24.9191C68.7024 26.6835 68.2016 28.3743 67.2001 29.9915C66.2281 31.6088 64.6964 32.9321 62.605 33.9613C60.5431 34.9904 57.8626 35.505 54.5636 35.505Z" fill="white"/>
<path fill-rule="evenodd" clip-rule="evenodd" d="M79.6405 57.6406L79.6405 0.744141L80.0781 0.744141L80.0781 57.6406L79.6405 57.6406Z" fill="white"/>
<path d="M94.499 42.7959C95.1116 42.7959 95.6425 42.9594 96.0918 43.2861C96.4084 43.5092 96.6735 43.8011 96.8887 44.1611V42.9795H98.9102V49.8115C98.9102 50.6693 98.7466 51.4048 98.4199 52.0176C98.0932 52.6404 97.6287 53.1102 97.0264 53.4268C96.4342 53.7433 95.7245 53.9014 94.8975 53.9014C94.3155 53.9014 93.7998 53.861 93.3506 53.7793C92.9013 53.6976 92.5231 53.5898 92.2168 53.457C91.9107 53.3243 91.6607 53.1913 91.4668 53.0586L92.2627 51.4355C92.4056 51.5172 92.5952 51.6088 92.8301 51.7109C93.0648 51.8232 93.3454 51.9149 93.6719 51.9863C93.9986 52.068 94.3768 52.1094 94.8057 52.1094C95.214 52.1094 95.5717 52.0276 95.8779 51.8643C96.1943 51.7111 96.4388 51.4657 96.6123 51.1289C96.7961 50.8022 96.8886 50.3835 96.8887 49.873V49.1475C96.6734 49.4856 96.4088 49.7643 96.0918 49.9805C95.6426 50.2765 95.1115 50.4238 94.499 50.4238C93.7946 50.4238 93.1818 50.2712 92.6611 49.9648C92.1507 49.6585 91.7527 49.2292 91.4668 48.6777C91.181 48.1263 91.0381 47.4724 91.0381 46.7168C91.0381 45.9205 91.181 45.2314 91.4668 44.6494C91.7526 44.0572 92.1507 43.6027 92.6611 43.2861C93.1818 42.9594 93.7946 42.7959 94.499 42.7959ZM108.971 42.7959C109.757 42.7959 110.451 42.9693 111.054 43.3164C111.656 43.6534 112.126 44.1232 112.463 44.7256C112.8 45.3281 112.969 46.0232 112.969 46.8096C112.969 47.5957 112.8 48.2902 112.463 48.8926C112.126 49.495 111.656 49.9702 111.054 50.3174C110.462 50.6542 109.778 50.8222 109.002 50.8223C108.226 50.8223 107.531 50.6543 106.919 50.3174C106.317 49.9702 105.841 49.4951 105.494 48.8926C105.157 48.2902 104.989 47.5957 104.989 46.8096C104.989 46.0232 105.157 45.3281 105.494 44.7256C105.831 44.1231 106.301 43.6534 106.903 43.3164C107.506 42.9692 108.195 42.796 108.971 42.7959ZM128.299 42.9795H130.213V44.6953H128.299V47.958C128.299 48.2848 128.371 48.5354 128.514 48.709C128.657 48.8721 128.866 48.9541 129.142 48.9541C129.244 48.9541 129.356 48.9334 129.479 48.8926C129.601 48.8415 129.729 48.7696 129.861 48.6777L130.565 50.1943C130.32 50.3781 130.045 50.5263 129.738 50.6387C129.442 50.7611 129.147 50.8222 128.851 50.8223C128.003 50.8223 127.36 50.6129 126.921 50.1943C126.492 49.7757 126.277 49.1784 126.277 48.4023V44.6953H125.037V43.4414L122.591 50.6387H120.601L118.964 45.3945L117.308 50.6387H115.316L112.713 42.9795H114.765L116.36 47.9971L117.966 42.9795H119.957L121.516 47.8809L123.143 42.9795H126.277V40.5898H128.299V42.9795ZM104.857 44.9092C104.388 44.9092 103.943 44.9658 103.524 45.0781C103.116 45.1905 102.785 45.3746 102.529 45.6299C102.306 45.8532 102.18 46.1311 102.152 46.4639L102.146 46.6104V50.6387H100.125V42.9795H102.146V44.3672C102.452 43.9208 102.825 43.581 103.265 43.3477C103.775 43.0822 104.306 42.9492 104.857 42.9492V44.9092ZM133.359 43.9756C133.556 43.6811 133.789 43.4407 134.059 43.2549C134.497 42.9487 135.003 42.796 135.574 42.7959C136.513 42.7959 137.229 43.0815 137.719 43.6533C138.209 44.215 138.454 45.0834 138.454 46.2578V50.6387H136.433V46.7168C136.433 46.1962 136.371 45.7927 136.248 45.5068C136.126 45.2212 135.957 45.017 135.743 44.8945C135.529 44.7618 135.278 44.6953 134.992 44.6953C134.472 44.6852 134.068 44.8432 133.782 45.1699C133.507 45.4967 133.369 45.9819 133.369 46.625H133.363L133.369 50.6387H131.348L131.332 39.8242H133.354L133.359 43.9756ZM108.971 44.665C108.603 44.6651 108.272 44.7567 107.976 44.9404C107.69 45.1242 107.465 45.3794 107.302 45.7061C107.138 46.0226 107.057 46.3909 107.057 46.8096C107.057 47.2281 107.138 47.6011 107.302 47.9277C107.465 48.2442 107.695 48.494 107.991 48.6777C108.287 48.8615 108.624 48.9541 109.002 48.9541C109.38 48.9541 109.711 48.8615 109.997 48.6777C110.283 48.494 110.502 48.2441 110.655 47.9277C110.819 47.6011 110.9 47.2281 110.9 46.8096C110.9 46.3909 110.819 46.0226 110.655 45.7061C110.492 45.3795 110.263 45.1242 109.967 44.9404C109.681 44.7566 109.348 44.665 108.971 44.665ZM95.0654 44.6035C94.7083 44.6036 94.3917 44.6898 94.1162 44.8633C93.8405 45.0369 93.6258 45.2776 93.4727 45.584C93.3196 45.8903 93.2377 46.2479 93.2275 46.6562C93.2378 47.0544 93.3195 47.412 93.4727 47.7285C93.6258 48.0348 93.8406 48.2801 94.1162 48.4639C94.402 48.6374 94.7238 48.7236 95.0811 48.7236C95.428 48.7236 95.7292 48.6373 95.9844 48.4639C96.2498 48.2801 96.4547 48.0348 96.5977 47.7285C96.7406 47.412 96.8115 47.0544 96.8115 46.6562C96.8115 46.2479 96.7351 45.8903 96.582 45.584C96.4391 45.2776 96.2352 45.0369 95.9697 44.8633C95.7145 44.6897 95.4126 44.6035 95.0654 44.6035ZM94.0547 25.0352H95.9697V26.751H94.0547V30.0137C94.0547 30.3405 94.1266 30.591 94.2695 30.7646C94.4125 30.9279 94.6219 31.0098 94.8975 31.0098C94.9995 31.0098 95.1119 30.9891 95.2344 30.9482C95.3569 30.8972 95.4845 30.8253 95.6172 30.7334L96.3213 32.25C96.0764 32.4337 95.8012 32.582 95.4951 32.6943C95.199 32.8169 94.9025 32.8779 94.6064 32.8779C93.759 32.8779 93.1158 32.6687 92.6768 32.25C92.248 31.8313 92.0332 31.2341 92.0332 30.458V26.751H90.793V25.0352H92.0332V22.6455H94.0547V25.0352ZM105.476 24.8516C106.241 24.8516 106.879 24.9891 107.39 25.2646C107.91 25.5403 108.298 25.9491 108.554 26.4902C108.809 27.0212 108.932 27.6751 108.922 28.4512L108.875 32.6943H106.961L106.918 31.8281C106.882 31.8887 106.847 31.9486 106.808 32.0049C106.409 32.5869 105.756 32.8779 104.848 32.8779C103.929 32.8779 103.214 32.6741 102.703 32.2656C102.203 31.8571 101.953 31.2796 101.953 30.5342C101.953 29.7174 102.224 29.1047 102.765 28.6963C103.316 28.2776 104.087 28.0684 105.077 28.0684H106.826C106.802 27.9193 106.772 27.7806 106.731 27.6543C106.629 27.3279 106.471 27.0833 106.257 26.9199C106.053 26.7463 105.777 26.6592 105.43 26.6592C105.123 26.6592 104.848 26.7256 104.603 26.8584C104.358 26.9912 104.148 27.2058 103.975 27.502L102.137 26.873C102.28 26.5464 102.489 26.2301 102.765 25.9238C103.04 25.6073 103.398 25.3522 103.837 25.1582C104.286 24.954 104.832 24.8516 105.476 24.8516ZM121.112 24.8516C121.592 24.8516 122.036 24.9235 122.444 25.0664C122.863 25.2093 123.221 25.4079 123.517 25.6631C123.813 25.9184 124.018 26.2148 124.13 26.5518L122.46 27.3174C122.388 27.1133 122.215 26.9496 121.939 26.8271C121.664 26.6944 121.388 26.6279 121.112 26.6279C120.837 26.6279 120.622 26.69 120.469 26.8125C120.326 26.9248 120.255 27.083 120.255 27.2871C120.255 27.4198 120.326 27.5322 120.469 27.624C120.612 27.7057 120.817 27.7776 121.082 27.8389L122.077 28.084C122.577 28.2065 122.975 28.4051 123.271 28.6807C123.578 28.9462 123.798 29.248 123.931 29.585C124.074 29.9117 124.145 30.2333 124.145 30.5498C124.145 31.0093 124.007 31.418 123.731 31.7754C123.466 32.1225 123.098 32.3929 122.629 32.5869C122.169 32.7809 121.643 32.8779 121.051 32.8779C120.561 32.8779 120.102 32.807 119.673 32.6641C119.244 32.5109 118.866 32.2962 118.539 32.0205C118.212 31.7346 117.957 31.3869 117.773 30.9785L119.504 30.1826C119.657 30.4275 119.867 30.6415 120.132 30.8252C120.397 30.9988 120.704 31.0859 121.051 31.0859C121.388 31.0859 121.648 31.0401 121.832 30.9482C122.016 30.8462 122.107 30.7032 122.107 30.5195C122.107 30.3357 122.031 30.2028 121.878 30.1211C121.735 30.0293 121.536 29.9528 121.281 29.8916L120.576 29.707C119.841 29.513 119.259 29.2067 118.83 28.7881C118.412 28.3592 118.202 27.8687 118.202 27.3174C118.202 26.5312 118.453 25.924 118.953 25.4951C119.464 25.0662 120.183 24.8516 121.112 24.8516ZM133.673 24.8516C134.459 24.8516 135.153 25.0249 135.756 25.3721C136.358 25.7091 136.828 26.1788 137.165 26.7812C137.502 27.3838 137.67 28.0789 137.67 28.8652C137.67 29.6514 137.502 30.3458 137.165 30.9482C136.828 31.5507 136.358 32.0258 135.756 32.373C135.164 32.71 134.479 32.8779 133.703 32.8779C132.927 32.8779 132.233 32.71 131.62 32.373C131.018 32.0259 130.543 31.5507 130.196 30.9482C129.859 30.3458 129.69 29.6514 129.69 28.8652C129.69 28.0789 129.859 27.3838 130.196 26.7812C130.533 26.1789 131.003 25.709 131.605 25.3721C132.208 25.025 132.897 24.8516 133.673 24.8516ZM160.13 24.8516C160.895 24.8516 161.534 24.9891 162.044 25.2646C162.565 25.5403 162.953 25.9492 163.208 26.4902C163.463 27.0212 163.586 27.6751 163.576 28.4512L163.53 32.6943H161.615L161.572 31.8301C161.537 31.89 161.502 31.9492 161.463 32.0049C161.065 32.587 160.411 32.8779 159.502 32.8779C158.583 32.8779 157.868 32.6741 157.357 32.2656C156.857 31.8571 156.607 31.2796 156.607 30.5342C156.608 29.7174 156.878 29.1047 157.419 28.6963C157.97 28.2776 158.741 28.0684 159.731 28.0684H161.481C161.457 27.9192 161.426 27.7807 161.386 27.6543C161.284 27.3278 161.125 27.0832 160.911 26.9199C160.707 26.7463 160.431 26.6592 160.084 26.6592C159.778 26.6592 159.502 26.7256 159.257 26.8584C159.012 26.9912 158.802 27.2059 158.629 27.502L156.791 26.873C156.934 26.5464 157.143 26.2301 157.419 25.9238C157.695 25.6073 158.052 25.3522 158.491 25.1582C158.94 24.954 159.487 24.8516 160.13 24.8516ZM167.266 25.0352H169.18V26.751H167.266V30.0137C167.266 30.3405 167.338 30.591 167.48 30.7646C167.623 30.9278 167.833 31.0098 168.108 31.0098C168.21 31.0097 168.323 30.989 168.445 30.9482C168.568 30.8972 168.695 30.8253 168.828 30.7334L169.532 32.25C169.287 32.4338 169.011 32.582 168.705 32.6943C168.409 32.8168 168.113 32.8779 167.817 32.8779C166.97 32.8779 166.327 32.6686 165.888 32.25C165.459 31.8313 165.244 31.2341 165.244 30.458V26.751H164.004V25.0352H165.244V22.6455H167.266V25.0352ZM177.351 24.8516C178.137 24.8516 178.831 25.0249 179.434 25.3721C180.036 25.709 180.506 26.1788 180.843 26.7812C181.18 27.3838 181.348 28.0789 181.348 28.8652C181.348 29.6514 181.18 30.3458 180.843 30.9482C180.506 31.5507 180.036 32.0258 179.434 32.373C178.842 32.7099 178.158 32.8779 177.382 32.8779C176.606 32.8779 175.911 32.7099 175.299 32.373C174.696 32.0258 174.221 31.5508 173.874 30.9482C173.537 30.3458 173.369 29.6514 173.369 28.8652C173.369 28.0789 173.537 27.3838 173.874 26.7812C174.211 26.1788 174.681 25.709 175.283 25.3721C175.886 25.0249 176.575 24.8516 177.351 24.8516ZM193.445 24.8516C194.211 24.8516 194.849 24.989 195.359 25.2646C195.88 25.5403 196.268 25.9491 196.523 26.4902C196.779 27.0212 196.901 27.6751 196.891 28.4512L196.845 32.6943H194.931L194.887 31.8291C194.851 31.8893 194.817 31.9489 194.777 32.0049C194.379 32.5869 193.726 32.8778 192.817 32.8779C191.899 32.8779 191.183 32.6741 190.673 32.2656C190.173 31.8571 189.922 31.2797 189.922 30.5342C189.922 29.7174 190.193 29.1047 190.734 28.6963C191.286 28.2777 192.057 28.0684 193.047 28.0684H194.796C194.771 27.9192 194.742 27.7806 194.701 27.6543C194.599 27.3276 194.44 27.0833 194.226 26.9199C194.021 26.7464 193.746 26.6593 193.399 26.6592C193.093 26.6592 192.817 26.7257 192.572 26.8584C192.327 26.9912 192.118 27.2058 191.944 27.502L190.106 26.873C190.249 26.5464 190.459 26.23 190.734 25.9238C191.01 25.6073 191.368 25.3522 191.807 25.1582C192.256 24.954 192.802 24.8516 193.445 24.8516ZM101.821 26.9658C101.352 26.9658 100.907 27.0215 100.488 27.1338C100.08 27.2461 99.7484 27.4303 99.4932 27.6855C99.2699 27.9089 99.1442 28.1868 99.1162 28.5195L99.1104 28.666V32.6943H97.0889V25.0352H99.1104V26.4229C99.416 25.9765 99.7888 25.6367 100.229 25.4033C100.739 25.1379 101.27 25.0049 101.821 25.0049V26.9658ZM114.234 24.8516C115.163 24.8516 115.873 25.1373 116.363 25.709C116.864 26.2707 117.109 27.1391 117.099 28.3135V32.6943H115.077V28.7734C115.077 28.2526 115.016 27.8484 114.894 27.5625C114.781 27.2767 114.618 27.0727 114.403 26.9502C114.189 26.8174 113.938 26.751 113.652 26.751C113.132 26.7408 112.728 26.8989 112.442 27.2256C112.201 27.5115 112.065 27.9189 112.035 28.4473L112.029 28.6807V32.6943H110.008V25.0352H111.906L111.996 26.0693C112.198 25.7579 112.438 25.5042 112.719 25.3105C113.147 25.0044 113.653 24.8516 114.234 24.8516ZM128.104 21.6807C128.401 21.6807 128.712 21.7319 129.039 21.834C129.376 21.9361 129.682 22.0583 129.958 22.2012L129.207 23.6562C129.044 23.5746 128.895 23.5135 128.763 23.4727C128.63 23.4319 128.508 23.4111 128.396 23.4111C128.12 23.4111 127.916 23.5085 127.783 23.7021C127.65 23.886 127.584 24.1877 127.584 24.6064V25.0352H129.468V26.6592H127.584V32.6943H125.562V26.6592H124.291V25.0352H125.562V24.2695C125.562 23.4526 125.772 22.8195 126.19 22.3701C126.609 21.9107 127.247 21.6807 128.104 21.6807ZM143.211 26.9658C142.741 26.9658 142.297 27.0215 141.878 27.1338C141.47 27.2461 141.138 27.4303 140.883 27.6855C140.66 27.9089 140.534 28.1868 140.506 28.5195L140.5 28.666V32.6943H138.479V25.0352H140.5V26.4229C140.806 25.9764 141.178 25.6367 141.618 25.4033C142.129 25.1378 142.66 25.0049 143.211 25.0049V26.9658ZM153.068 24.8516C153.997 24.8516 154.707 25.1372 155.197 25.709C155.687 26.2707 155.932 27.1391 155.932 28.3135V32.6943H153.91V28.7734C153.91 28.2526 153.849 27.8484 153.727 27.5625C153.604 27.2767 153.435 27.0727 153.221 26.9502C153.017 26.8175 152.767 26.751 152.471 26.751C151.95 26.7408 151.547 26.8989 151.261 27.2256C151.02 27.5115 150.884 27.9189 150.854 28.4473L150.848 28.6807V32.6943H148.825V28.7734C148.825 28.2526 148.764 27.8484 148.642 27.5625C148.529 27.2767 148.366 27.0727 148.151 26.9502C147.937 26.8175 147.687 26.751 147.401 26.751C146.881 26.7408 146.477 26.8989 146.191 27.2256C145.95 27.5115 145.814 27.9189 145.784 28.4473L145.777 28.6807V32.6943H143.756V25.0352H145.655L145.744 26.0693C145.946 25.7577 146.186 25.5042 146.467 25.3105C146.896 25.0042 147.401 24.8516 147.983 24.8516C148.912 24.8516 149.622 25.1372 150.112 25.709C150.306 25.9265 150.46 26.1907 150.577 26.5C150.817 25.9839 151.136 25.5868 151.536 25.3105C151.975 25.0042 152.486 24.8516 153.068 24.8516ZM172.443 32.6943H170.422V25.0352H172.443V32.6943ZM186.384 24.8516C187.313 24.8516 188.023 25.1372 188.513 25.709C189.013 26.2707 189.257 27.1391 189.247 28.3135V32.6943H187.226V28.7734C187.226 28.2526 187.165 27.8484 187.042 27.5625C186.93 27.2767 186.766 27.0727 186.552 26.9502C186.337 26.8175 186.087 26.751 185.802 26.751C185.281 26.7408 184.878 26.899 184.592 27.2256C184.351 27.5115 184.215 27.9189 184.185 28.4473L184.178 28.6807V32.6943H182.156V25.0352H184.056L184.145 26.0693C184.346 25.7578 184.587 25.5042 184.867 25.3105C185.296 25.0043 185.802 24.8516 186.384 24.8516ZM199.999 32.6943H197.977V21.9717H199.999V32.6943ZM105.781 29.5693C105.118 29.5694 104.659 29.6511 104.403 29.8145C104.148 29.9676 104.021 30.1877 104.021 30.4736C104.021 30.6981 104.123 30.8771 104.327 31.0098C104.531 31.1321 104.817 31.1934 105.185 31.1934C105.511 31.1933 105.802 31.117 106.058 30.9639C106.313 30.8005 106.511 30.5956 106.654 30.3506C106.769 30.1591 106.841 29.9648 106.87 29.7676L106.885 29.5693H105.781ZM160.437 29.5693C159.773 29.5693 159.313 29.6511 159.058 29.8145C158.802 29.9676 158.675 30.1877 158.675 30.4736C158.675 30.6981 158.777 30.8771 158.981 31.0098C159.186 31.1322 159.472 31.1933 159.839 31.1934C160.166 31.1934 160.457 31.117 160.712 30.9639C160.967 30.8005 161.167 30.5957 161.31 30.3506C161.424 30.1592 161.496 29.9647 161.524 29.7676L161.539 29.5693H160.437ZM193.751 29.5693C193.088 29.5694 192.628 29.6512 192.373 29.8145C192.118 29.9676 191.99 30.1877 191.99 30.4736C191.99 30.6981 192.092 30.8771 192.296 31.0098C192.5 31.1323 192.787 31.1934 193.154 31.1934C193.481 31.1933 193.772 31.117 194.027 30.9639C194.283 30.8005 194.481 30.5956 194.624 30.3506C194.739 30.1591 194.811 29.9648 194.84 29.7676L194.854 29.5693H193.751ZM133.673 26.7207C133.305 26.7207 132.973 26.8123 132.677 26.9961C132.391 27.1799 132.166 27.4351 132.003 27.7617C131.84 28.0783 131.758 28.4465 131.758 28.8652C131.758 29.2838 131.84 29.6567 132.003 29.9834C132.166 30.2999 132.396 30.5496 132.692 30.7334C132.988 30.9172 133.325 31.0097 133.703 31.0098C134.081 31.0098 134.413 30.9172 134.699 30.7334C134.985 30.5496 135.204 30.2997 135.357 29.9834C135.521 29.6567 135.602 29.2838 135.603 28.8652C135.603 28.4465 135.521 28.0783 135.357 27.7617C135.194 27.435 134.964 27.1799 134.668 26.9961C134.382 26.8124 134.051 26.7207 133.673 26.7207ZM177.351 26.7207C176.983 26.7207 176.651 26.8124 176.355 26.9961C176.07 27.1799 175.845 27.4351 175.682 27.7617C175.518 28.0783 175.437 28.4465 175.437 28.8652C175.437 29.2838 175.518 29.6567 175.682 29.9834C175.845 30.2998 176.075 30.5496 176.371 30.7334C176.667 30.9171 177.004 31.0098 177.382 31.0098C177.759 31.0097 178.091 30.9172 178.377 30.7334C178.663 30.5497 178.882 30.2997 179.035 29.9834C179.198 29.6567 179.28 29.2838 179.28 28.8652C179.28 28.4465 179.199 28.0783 179.035 27.7617C178.872 27.4352 178.643 27.1798 178.347 26.9961C178.061 26.8123 177.728 26.7207 177.351 26.7207ZM171.433 21.4658C171.749 21.4659 172.02 21.5836 172.244 21.8184C172.479 22.0429 172.597 22.3135 172.597 22.6299C172.597 22.9463 172.479 23.2222 172.244 23.457C172.02 23.6817 171.749 23.7949 171.433 23.7949C171.126 23.7949 170.856 23.6817 170.621 23.457C170.386 23.2222 170.269 22.9464 170.269 22.6299C170.269 22.3135 170.386 22.0429 170.621 21.8184C170.856 21.5836 171.126 21.4658 171.433 21.4658ZM154.613 12.3945L156.69 7.09082H158.911L155.435 15.4092C155.22 15.9196 154.996 16.3689 154.761 16.7568C154.526 17.155 154.235 17.4613 153.888 17.6758C153.551 17.8902 153.106 17.998 152.555 17.998C152.279 17.998 151.973 17.9414 151.636 17.8291C151.309 17.727 151.018 17.6048 150.763 17.4619L151.514 15.8223C151.687 15.9142 151.845 15.9861 151.988 16.0371C152.141 16.0984 152.274 16.1289 152.387 16.1289C152.601 16.1289 152.79 16.0677 152.953 15.9453C153.116 15.833 153.249 15.6641 153.352 15.4395L153.68 14.665L150.212 7.09082H152.433L154.613 12.3945ZM111.648 6.90723C112.312 6.90726 112.925 7.08596 113.486 7.44336C114.058 7.79052 114.517 8.30623 114.864 8.99023C115.211 9.66424 115.385 10.4869 115.385 11.457H109.771C109.814 11.7122 109.893 11.937 110.01 12.1309C110.194 12.4371 110.439 12.6716 110.745 12.835C111.051 12.9881 111.388 13.0654 111.756 13.0654C112.154 13.0654 112.476 12.9782 112.721 12.8047C112.976 12.6311 113.17 12.4065 113.303 12.1309L115.201 12.8662C114.987 13.295 114.706 13.6679 114.359 13.9844C114.023 14.2907 113.619 14.5251 113.149 14.6885C112.68 14.8519 112.143 14.9336 111.541 14.9336C110.786 14.9336 110.117 14.7655 109.535 14.4287C108.953 14.0815 108.493 13.6064 108.156 13.0039C107.83 12.4015 107.666 11.7071 107.666 10.9209C107.666 10.1346 107.835 9.43943 108.172 8.83691C108.519 8.23458 108.989 7.76466 109.581 7.42773C110.183 7.08068 110.873 6.90723 111.648 6.90723ZM122.819 6.90723C123.585 6.90723 124.285 7.09582 124.918 7.47363C125.551 7.85148 126.01 8.39843 126.296 9.11328L124.397 9.78711C124.255 9.49099 124.03 9.25563 123.724 9.08203C123.428 8.89821 123.095 8.80664 122.728 8.80664C122.35 8.80668 122.018 8.89837 121.732 9.08203C121.447 9.25558 121.222 9.50096 121.059 9.81738C120.895 10.134 120.813 10.5022 120.813 10.9209C120.814 11.3395 120.895 11.7069 121.059 12.0234C121.222 12.3298 121.452 12.575 121.748 12.7588C122.044 12.9425 122.381 13.0342 122.759 13.0342C123.126 13.0341 123.458 12.9371 123.754 12.7432C124.06 12.5491 124.285 12.2941 124.428 11.9775L126.342 12.6514C126.046 13.3764 125.581 13.9386 124.948 14.3369C124.326 14.735 123.626 14.9335 122.851 14.9336C122.054 14.9336 121.344 14.7656 120.722 14.4287C120.099 14.0815 119.614 13.6064 119.267 13.0039C118.919 12.3913 118.746 11.6969 118.746 10.9209C118.746 10.1346 118.919 9.43943 119.267 8.83691C119.614 8.23456 120.094 7.76467 120.706 7.42773C121.319 7.08059 122.023 6.90727 122.819 6.90723ZM130.104 6.90723C130.869 6.90723 131.508 7.04459 132.019 7.32031C132.539 7.59601 132.927 8.00474 133.183 8.5459C133.438 9.07689 133.56 9.73078 133.55 10.5068L133.504 14.75H131.59L131.546 13.8848C131.51 13.945 131.476 14.0046 131.437 14.0605C131.038 14.6426 130.384 14.9336 129.476 14.9336C128.557 14.9335 127.842 14.7296 127.332 14.3213C126.832 13.9128 126.581 13.3353 126.581 12.5898C126.581 11.7732 126.852 11.1604 127.393 10.752C127.944 10.3333 128.716 10.124 129.706 10.124H131.455C131.431 9.97505 131.4 9.83718 131.359 9.71094C131.257 9.38418 131.099 9.13898 130.885 8.97559C130.681 8.80198 130.405 8.71484 130.058 8.71484C129.751 8.71489 129.475 8.78135 129.23 8.91406C128.986 9.04684 128.776 9.26162 128.603 9.55762L126.765 8.92969C126.908 8.60298 127.117 8.28578 127.393 7.97949C127.668 7.663 128.026 7.40788 128.465 7.21387C128.914 7.00966 129.46 6.90727 130.104 6.90723ZM137.239 7.09082H139.154V8.80664H137.239V12.0693C137.239 12.3961 137.311 12.6467 137.454 12.8203C137.597 12.9836 137.806 13.0654 138.082 13.0654C138.184 13.0654 138.296 13.0447 138.419 13.0039C138.541 12.9528 138.669 12.881 138.802 12.7891L139.506 14.3057C139.261 14.4893 138.986 14.6377 138.68 14.75C138.384 14.8725 138.087 14.9336 137.791 14.9336C136.944 14.9336 136.3 14.7244 135.861 14.3057C135.433 13.887 135.218 13.2898 135.218 12.5137V8.80664H133.978V7.09082H135.218V4.70117H137.239V7.09082ZM143.247 6.90723C144.013 6.90723 144.652 7.04458 145.162 7.32031C145.683 7.59602 146.071 8.00474 146.326 8.5459C146.581 9.07689 146.704 9.73078 146.693 10.5068L146.647 14.75H144.733L144.689 13.8848C144.654 13.945 144.619 14.0046 144.58 14.0605C144.182 14.6426 143.528 14.9336 142.619 14.9336C141.7 14.9335 140.986 14.7296 140.476 14.3213C139.975 13.9128 139.725 13.3353 139.725 12.5898C139.725 11.7732 139.995 11.1604 140.536 10.752C141.087 10.3333 141.859 10.124 142.85 10.124H144.599C144.574 9.97505 144.544 9.83718 144.503 9.71094C144.401 9.3842 144.243 9.13898 144.028 8.97559C143.824 8.80198 143.548 8.71484 143.201 8.71484C142.895 8.71488 142.619 8.78134 142.374 8.91406C142.129 9.04684 141.92 9.26161 141.746 9.55762L139.908 8.92969C140.051 8.60297 140.261 8.28579 140.536 7.97949C140.812 7.66299 141.169 7.40788 141.608 7.21387C142.058 7.00966 142.604 6.90726 143.247 6.90723ZM162.248 6.90723C162.728 6.90724 163.172 6.97914 163.58 7.12207C163.999 7.26501 164.356 7.46353 164.652 7.71875C164.948 7.974 165.152 8.27051 165.265 8.60742L163.596 9.37305C163.524 9.16898 163.351 9.00529 163.075 8.88281C162.8 8.75008 162.524 8.6846 162.248 8.68457C161.972 8.68457 161.758 8.74562 161.604 8.86816C161.462 8.98048 161.391 9.13864 161.391 9.34277C161.391 9.47548 161.462 9.5878 161.604 9.67969C161.747 9.76135 161.952 9.83328 162.217 9.89453L163.213 10.1396C163.713 10.2622 164.111 10.4608 164.407 10.7363C164.714 11.0018 164.934 11.3036 165.066 11.6406C165.209 11.9673 165.28 12.289 165.28 12.6055C165.28 13.0649 165.143 13.4737 164.867 13.8311C164.602 14.1783 164.233 14.4485 163.764 14.6426C163.304 14.8365 162.779 14.9336 162.187 14.9336C161.697 14.9336 161.237 14.8626 160.809 14.7197C160.38 14.5665 160.002 14.3519 159.675 14.0762C159.348 13.7902 159.093 13.4426 158.909 13.0342L160.64 12.2383C160.793 12.4832 161.002 12.6971 161.268 12.8809C161.533 13.0544 161.839 13.1416 162.187 13.1416C162.523 13.1416 162.784 13.0958 162.968 13.0039C163.151 12.9018 163.243 12.7589 163.243 12.5752C163.243 12.3914 163.167 12.2585 163.014 12.1768C162.871 12.0848 162.671 12.0085 162.416 11.9473L161.712 11.7627C160.977 11.5687 160.395 11.2624 159.966 10.8438C159.547 10.4149 159.338 9.92444 159.338 9.37305C159.338 8.5869 159.589 7.97962 160.089 7.55078C160.599 7.12196 161.319 6.90723 162.248 6.90723ZM168.535 7.09082H170.45V8.80664H168.535V12.0693C168.535 12.3961 168.607 12.6467 168.75 12.8203C168.893 12.9836 169.102 13.0654 169.378 13.0654C169.48 13.0654 169.592 13.0447 169.715 13.0039C169.837 12.9528 169.965 12.8809 170.098 12.7891L170.802 14.3057C170.557 14.4895 170.281 14.6377 169.975 14.75C169.679 14.8724 169.383 14.9336 169.087 14.9336C168.239 14.9336 167.596 14.7244 167.157 14.3057C166.728 13.887 166.514 13.2898 166.514 12.5137V8.80664H165.273V7.09082H166.514V4.70117H168.535V7.09082ZM183.569 6.90723C184.355 6.90723 185.05 7.08057 185.652 7.42773C186.255 7.76469 186.725 8.23451 187.062 8.83691C187.398 9.43943 187.566 10.1346 187.566 10.9209C187.566 11.7071 187.398 12.4015 187.062 13.0039C186.725 13.6064 186.255 14.0815 185.652 14.4287C185.06 14.7657 184.376 14.9336 183.6 14.9336C182.824 14.9335 182.13 14.7655 181.518 14.4287C180.915 14.0815 180.44 13.6064 180.093 13.0039C179.756 12.4015 179.588 11.7071 179.588 10.9209C179.588 10.1346 179.756 9.43943 180.093 8.83691C180.43 8.23453 180.9 7.76469 181.502 7.42773C182.104 7.08061 182.793 6.90724 183.569 6.90723ZM99.3086 5.94238H96.1074V14.75H94.0088V5.94238H90.793V4.02734H99.3086V5.94238ZM101.897 8.08789C102.094 7.7932 102.327 7.55316 102.597 7.36719C103.036 7.06089 103.541 6.90729 104.112 6.90723C105.052 6.90723 105.767 7.19291 106.257 7.76465C106.747 8.32632 106.992 9.19474 106.992 10.3691V14.75H104.971V10.8291C104.971 10.3083 104.909 9.90411 104.786 9.61816C104.664 9.33252 104.495 9.12835 104.281 9.00586C104.067 8.8731 103.816 8.80664 103.53 8.80664C103.01 8.79652 102.606 8.95454 102.32 9.28125C102.045 9.60796 101.907 10.0932 101.907 10.7363H101.901L101.907 14.75H99.8857L99.8701 3.93555H101.892L101.897 8.08789ZM149.801 14.75H147.779V4.02734H149.801V14.75ZM178.001 3.73633C178.297 3.73633 178.609 3.78753 178.936 3.88965C179.272 3.99176 179.579 4.11389 179.854 4.25684L179.104 5.71191C178.94 5.6304 178.793 5.56913 178.66 5.52832C178.527 5.48747 178.404 5.46777 178.292 5.46777C178.016 5.46781 177.812 5.56479 177.68 5.75879C177.547 5.94263 177.48 6.24358 177.48 6.66211V7.09082H179.364V8.71484H177.48V14.75H175.459V8.71484H174.188V7.09082H175.459V6.3252C175.459 5.50822 175.668 4.87512 176.087 4.42578C176.506 3.96628 177.143 3.73636 178.001 3.73633ZM193.107 9.02148C192.638 9.02148 192.194 9.0772 191.775 9.18945C191.367 9.30179 191.035 9.48591 190.779 9.74121C190.556 9.96452 190.43 10.2425 190.402 10.5752L190.396 10.7217V14.75H188.375V7.09082H190.396V8.47852C190.702 8.03208 191.075 7.69239 191.515 7.45898C192.025 7.19347 192.556 7.06055 193.107 7.06055V9.02148ZM130.41 11.625C129.747 11.625 129.288 11.7069 129.032 11.8701C128.777 12.0233 128.648 12.2434 128.648 12.5293C128.649 12.7538 128.751 12.9327 128.955 13.0654C129.159 13.1879 129.445 13.249 129.812 13.249C130.139 13.249 130.43 13.1726 130.686 13.0195C130.941 12.8561 131.14 12.6513 131.283 12.4062C131.398 12.2148 131.47 12.0205 131.499 11.8232L131.513 11.625H130.41ZM143.554 11.625C142.89 11.625 142.431 11.7069 142.176 11.8701C141.921 12.0233 141.792 12.2434 141.792 12.5293C141.792 12.7538 141.895 12.9327 142.099 13.0654C142.303 13.1879 142.589 13.249 142.956 13.249C143.283 13.249 143.574 13.1726 143.829 13.0195C144.084 12.8561 144.284 12.6513 144.427 12.4062C144.542 12.2148 144.613 12.0204 144.642 11.8232L144.656 11.625H143.554ZM183.569 8.77637C183.202 8.77639 182.87 8.86804 182.574 9.05176C182.288 9.23551 182.064 9.49077 181.9 9.81738C181.737 10.134 181.655 10.5022 181.655 10.9209C181.655 11.3395 181.737 11.7124 181.9 12.0391C182.064 12.3553 182.293 12.6053 182.589 12.7891C182.885 12.9728 183.222 13.0654 183.6 13.0654C183.977 13.0654 184.31 12.9729 184.596 12.7891C184.881 12.6053 185.101 12.3554 185.254 12.0391C185.417 11.7124 185.499 11.3395 185.499 10.9209C185.499 10.5022 185.417 10.134 185.254 9.81738C185.091 9.49088 184.861 9.2355 184.565 9.05176C184.28 8.86794 183.947 8.77637 183.569 8.77637ZM111.571 8.69922C111.173 8.69927 110.836 8.781 110.561 8.94434C110.285 9.10773 110.076 9.35837 109.933 9.69531C109.909 9.75314 109.889 9.81469 109.87 9.87891H113.129C113.125 9.8688 113.122 9.85857 113.118 9.84863C112.975 9.44022 112.771 9.1492 112.506 8.97559C112.24 8.79177 111.929 8.69922 111.571 8.69922Z" fill="white"/>
</svg>
