<svg width="55" height="40" viewBox="0 0 55 40" fill="none" xmlns="http://www.w3.org/2000/svg">
<g clip-path="url(#clip0_4447_145)">
<path d="M33.836 12.7921C33.836 5.72648 27.8786 0 20.5295 0H8.31193C7.62645 0 7.17211 0.706719 7.46225 1.32332L10.7861 8.3921C11.0937 9.04664 11.7553 9.46561 12.4854 9.46561L20.7256 9.47352C22.5462 9.57154 23.9937 11.0166 23.9937 12.7905C23.9937 14.5644 22.5478 16.0111 20.7256 16.1091H9.77059C9.31944 16.1107 8.88583 16.2719 8.54627 16.5628L0.650416 23.3217C0.237529 23.6759 0 24.1897 0 24.7304V38.604C0 39.3755 0.629692 40 1.40605 40H9.95073C10.7287 40 11.3568 39.3755 11.3568 38.604V25.5858H15.0664L21.3394 38.9265C21.6471 39.581 22.3102 40.0016 23.0403 40.0016H32.3614C33.0469 40.0016 33.5012 39.2933 33.2111 38.6767L26.4327 24.2577C30.8182 22.166 33.8344 17.8198 33.8344 12.7921H33.836Z" fill="white"/>
<path d="M52.5612 11.3581C51.643 10.5787 50.4872 10.0206 49.0955 9.68221L53.2802 5.46245C53.5209 5.21897 53.6564 4.8917 53.6564 4.55178V1.2996C53.6564 0.581818 53.0698 0 52.346 0H34.8709C33.9702 0 33.3389 0.879051 33.6322 1.72332L34.9012 5.36443C35.0829 5.88775 35.5803 6.23873 36.1398 6.23873H44.0532L40.7788 9.53992C40.5381 9.7834 40.4026 10.1107 40.4026 10.4506V13.7028C40.4026 14.4206 40.9893 15.0024 41.713 15.0024H43.6898C44.7499 15.0024 45.5039 15.1541 45.9519 15.4577C46.3998 15.7375 46.623 16.147 46.623 16.6846C46.623 17.3154 46.3169 17.7945 45.7048 18.1217C45.1149 18.4253 44.3497 18.5771 43.4076 18.5771C42.3714 18.5771 41.2635 18.4364 40.0854 18.1565C39.3871 17.9731 38.7064 17.7328 38.0417 17.4387C37.337 17.1257 36.4842 17.3897 36.1622 18.0854L34.4421 21.7945C34.1551 22.4126 34.3958 23.1494 35.0223 23.4261C36.0761 23.8909 37.2446 24.2624 38.5295 24.5375C40.2735 24.9107 41.9936 25.0988 43.6898 25.0988C46.3281 25.0988 48.4738 24.6893 50.1222 23.8719C51.796 23.0545 53.0204 22.0016 53.7983 20.7178C54.6002 19.4324 55.0003 18.0885 55.0003 16.6862C55.0003 14.5123 54.1873 12.7368 52.5612 11.3581Z" fill="white"/>
</g>
<defs>
<clipPath id="clip0_4447_145">
<rect width="55" height="40" fill="white"/>
</clipPath>
</defs>
</svg>
