<svg width="640" height="176" viewBox="0 0 640 176" fill="none" xmlns="http://www.w3.org/2000/svg">
<path d="M0 172.293L47.348 103.861L5.34183 42.9519H50.5046L69.9294 77.4104L90.0827 42.9519H134.274L92.2679 104.104L139.616 172.293H92.2679L69.4438 132.496L46.134 172.293H0Z" fill="black"/>
<path d="M144.637 172.293V0H253.659V36.3999H186.401V72.5571H245.404V108.714H186.401V172.293H144.637Z" fill="black"/>
<path d="M263.335 172.293V0.00112291H302.914V172.293H263.335Z" fill="black"/>
<path d="M379.556 175.933C369.844 175.933 360.779 174.234 352.362 170.837C344.106 167.439 336.822 162.667 330.509 156.52C324.357 150.372 319.582 143.173 316.183 134.922C312.783 126.672 311.084 117.693 311.084 107.986C311.084 98.2797 312.783 89.301 316.183 81.0504C319.744 72.638 324.6 65.358 330.751 59.2105C337.064 52.9012 344.43 48.0479 352.847 44.6505C361.426 41.0914 370.653 39.3119 380.527 39.3119C390.24 39.3119 399.224 41.0105 407.479 44.4079C415.897 47.8052 423.181 52.6585 429.332 58.9678C435.645 65.1153 440.502 72.3144 443.901 80.5651C447.3 88.8157 449 97.7944 449 107.501C449 117.208 447.219 126.267 443.658 134.68C440.259 142.93 435.403 150.129 429.09 156.277C422.938 162.424 415.573 167.278 406.994 170.837C398.576 174.234 389.431 175.933 379.556 175.933ZM380.042 140.261C385.384 140.261 390.24 138.886 394.611 136.136C398.981 133.224 402.38 129.341 404.809 124.488C407.398 119.473 408.694 113.891 408.694 107.744C408.694 101.434 407.398 95.853 404.809 90.9997C402.38 85.9846 398.981 82.102 394.611 79.3517C390.24 76.4398 385.384 74.9837 380.042 74.9837C374.7 74.9837 369.844 76.4398 365.473 79.3517C361.103 82.102 357.622 85.9846 355.032 90.9997C352.604 95.853 351.39 101.434 351.39 107.744C351.39 113.891 352.604 119.473 355.032 124.488C357.622 129.341 361.103 133.224 365.473 136.136C369.844 138.886 374.7 140.261 380.042 140.261Z" fill="black"/>
<path d="M425 0.613413C425 0.920034 425.307 1.22665 425.675 1.22665C425.981 1.22665 426.104 0.920034 425.92 0.613413C425.736 0.245469 425.429 0.000172481 425.245 0.000172481C425.123 0.000172481 425 0.245469 425 0.613413Z" fill="black"/>
<path d="M636.016 2.02382C635.587 3.31163 635.403 4.53811 635.587 4.72208C635.771 4.96738 636.139 4.23149 636.323 3.18898C636.568 2.14647 636.875 1.28793 637.12 1.34926C638.224 1.47191 639.021 1.16529 639.021 0.552045C639.021 0.0614521 638.776 0.0614521 638.163 0.552045C637.488 1.10396 637.243 1.10396 637.059 0.490721C636.875 0.0614521 636.446 0.736017 636.016 2.02382Z" fill="black"/>
<path d="M427.514 2.14661C427.576 3.31176 428.618 5.27413 428.618 4.29295C428.618 3.80236 428.373 2.94382 428.066 2.45323C427.76 1.96263 427.514 1.77866 427.514 2.14661Z" fill="black"/>
<path d="M429.293 3.9248C429.293 4.23142 430.029 6.68438 430.887 9.44396C431.746 12.2035 432.604 14.7792 432.727 15.2698C432.911 15.7603 433.156 15.9443 433.34 15.7603C433.708 15.3924 430.826 5.7032 429.906 4.29274C429.599 3.80215 429.293 3.61818 429.293 3.9248Z" fill="black"/>
<path d="M633.563 5.3352C632.704 7.05227 630.435 14.5951 630.435 15.515C630.435 16.6188 631.539 15.2084 631.907 13.6753C632.153 12.6941 632.766 10.4864 633.318 8.6467C634.115 6.07108 634.422 5.58049 634.789 6.50035C635.219 7.60419 635.28 7.60419 635.28 6.43903C635.341 4.10871 634.36 3.49547 633.563 5.3352Z" fill="black"/>
<path d="M426.104 5.82583C425.736 7.66556 426.594 17.9067 427.698 25.1429C428.863 32.3178 428.863 27.6572 427.759 19.3171C426.717 11.529 426.594 6.13245 427.453 6.13245C427.759 6.13245 427.882 5.70319 427.698 5.21259C427.146 3.80214 426.41 4.10876 426.104 5.82583Z" fill="black"/>
<path d="M636.2 4.96747C636.016 5.33541 636.139 5.88733 636.568 6.13262C637.488 6.74586 637.059 14.902 635.587 24.9591C635.096 28.4546 634.728 31.8887 634.851 32.686C635.158 35.0163 637.304 19.072 637.611 11.4678C637.856 6.56189 637.733 4.2929 637.304 4.2929C636.936 4.2929 636.446 4.59952 636.2 4.96747Z" fill="black"/>
<path d="M428.68 7.66576C428.68 7.97238 428.986 8.70827 429.293 9.19887C429.599 9.68946 429.906 9.81211 429.906 9.50549C429.906 9.13754 429.599 8.46298 429.293 7.97238C428.986 7.48179 428.68 7.29782 428.68 7.66576Z" fill="black"/>
<path d="M629.332 9.62802C628.964 10.2413 627.983 13.1848 627.063 16.251C626.143 19.2559 625.223 22.1381 625.039 22.6287C624.794 23.242 624.978 23.3646 625.469 22.9967C628.473 21.1569 627.799 32.0113 623.322 57.3382C622.096 64.0838 620.869 71.688 620.501 74.2023C619.275 83.8302 613.02 114.186 609.524 127.554C604.802 145.461 602.963 151.225 600.142 156.683C595.972 164.778 591.372 168.396 587.264 166.802C586.344 166.495 585.731 166.434 585.976 166.74C586.16 167.047 587.264 167.66 588.429 168.028C591.434 169.009 594.316 167.905 597.076 164.778C599.528 161.896 605.293 150.673 605.293 148.711C605.293 148.036 606.151 144.848 607.194 141.659C611.303 128.781 618.846 95.5431 620.011 85.2406C620.317 82.7263 621.605 74.6929 622.954 67.4566C629.025 34.9549 630.62 19.5012 627.676 20.605C627.002 20.9117 627.063 20.1144 628.105 16.435C628.78 13.982 629.639 11.2838 629.945 10.4866C630.62 8.70816 630.129 8.0336 629.332 9.62802Z" fill="black"/>
<path d="M435.119 13.6141C437.326 20.6664 437.51 21.8316 436.468 20.9117C433.586 18.5814 434.383 30.233 438.982 56.725C440.025 62.4281 441.435 70.7069 442.11 75.1222C446.157 99.6518 453.148 131.295 456.643 141.168C457.134 142.64 457.809 145.154 458.176 146.81C458.912 150.796 463.757 160.853 466.517 164.226C470.257 168.764 474.611 169.623 478.659 166.495C479.64 165.759 479.333 165.759 476.942 166.618C474.182 167.66 473.937 167.66 471.852 166.495C463.45 161.957 456.889 142.64 446.709 92.3543C444.869 83.2783 443.397 74.9995 443.397 73.957C443.397 72.9145 442.294 65.8623 440.944 58.2581C438.062 42.1298 436.222 26.7988 436.897 24.3459C437.204 23.058 437.572 22.6901 438.307 22.9354C438.982 23.242 439.166 23.058 438.798 22.2608C438.553 21.6476 437.817 19.256 437.204 16.9256C436.1 13.0622 434.444 9.19881 433.953 9.19881C433.831 9.19881 434.321 11.2225 435.119 13.6141Z" fill="black"/>
<path d="M428.863 12.0198C427.759 14.902 433.34 52.6163 440.269 88.9202C441.005 92.477 441.987 97.9961 442.477 101.185C445.911 122.097 451.185 143.192 456.03 155.212C457.195 158.155 458.115 160.915 458.115 161.344C458.115 163.122 462.53 169.009 464.86 170.359C467.804 172.014 471.361 172.076 473.446 170.481L474.979 169.316L472.219 170.297C469.521 171.278 469.276 171.278 466.639 169.929C461.917 167.538 459.525 163 454.067 145.645C450.204 133.38 444.317 108.483 443.397 100.572C443.09 98.0575 441.496 88.3683 439.718 79.1083C433.34 44.8282 430.335 24.1619 430.642 16.6191C430.764 12.8783 430.642 11.4065 430.09 11.2226C429.66 11.0386 429.108 11.4065 428.863 12.0198Z" fill="black"/>
<path d="M633.134 11.8357C632.95 12.3263 633.134 13.4301 633.441 14.35C634.79 17.7841 631.969 37.0399 622.157 91.6796C618.294 113.511 617.374 117.865 614.737 128.474C611.671 141.107 608.788 150.673 606.765 155.027C605.967 156.806 605.293 158.707 605.293 159.259C605.293 160.301 602.288 165.698 600.571 167.783C598.67 169.991 594.99 171.34 592.599 170.604C590.575 169.991 589.655 170.604 591.556 171.34C593.519 172.076 596.83 171.646 599.16 170.358C601.307 169.071 605.293 164.042 605.293 162.57C605.293 162.202 606.213 159.627 607.378 156.867C610.996 148.036 617.251 125.224 619.336 113.143C620.931 103.822 622.77 93.826 624.671 83.4009C632.827 39.8608 636.568 11.0385 634.115 11.0385C633.747 11.0385 633.318 11.4064 633.134 11.8357Z" fill="black"/>
<path d="M622.954 18.5199C621.421 21.0342 620.501 23.5485 619.949 26.9827C619.643 28.8224 618.845 31.0914 618.171 32.0726C617.006 33.6057 617.006 33.851 617.864 34.7095C619.091 35.9973 619.091 43.1722 617.803 51.9416C616.331 62.1827 611.67 86.7123 608.543 100.572C607.01 107.501 605.477 114.799 605.17 116.822C604.925 118.846 604.128 122.28 603.514 124.488C602.84 126.696 601.552 130.927 600.694 133.932C596.769 147.239 591.556 157.787 587.509 160.792C585.792 162.018 583.278 162.325 580.457 161.65L578.617 161.221L580.15 162.141C582.603 163.613 585.914 163.919 587.938 162.938C590.391 161.65 594.745 155.702 597.014 150.551C599.099 145.829 603.882 131.356 604.68 127.248C605.048 125.224 606.213 120.134 607.133 115.903C611.241 98.1799 616.209 73.9569 618.784 58.9938C620.072 51.5736 621.176 35.1388 620.562 32.8698C619.888 30.4781 620.869 25.6335 623.077 20.4823C624.426 17.3548 624.365 16.3123 622.954 18.5199Z" fill="black"/>
<path d="M440.331 17.9067C440.331 18.152 441.006 20.421 441.864 22.9353C442.723 25.4495 443.397 28.3931 443.397 29.5583C443.336 45.2572 443.52 49.182 444.931 57.2767C448.181 76.4712 453.455 102.411 456.582 114.799C457.441 118.049 458.115 121.422 458.115 122.342C458.115 127.493 466.639 151.225 470.38 156.622C471.729 158.523 472.833 160.301 472.833 160.608C472.833 161.405 477.494 163.735 479.027 163.735C480.744 163.735 486.079 161.405 485.527 160.914C485.343 160.73 484.669 160.853 483.994 161.221C483.258 161.589 481.602 161.896 480.253 161.896C478.23 161.896 477.248 161.466 475.286 159.688C473.937 158.461 472.833 157.112 472.833 156.683C472.833 156.192 472.465 155.457 471.975 155.027C468.786 151.838 459.71 124.488 458.115 113.45C457.809 111.242 457.011 106.949 456.276 103.944C451.063 81.1931 445.912 52.4321 445.421 42.9269C445.115 36.7332 445.176 35.6907 446.096 34.7708C447.077 33.8509 447.077 33.667 445.85 32.0726C445.176 31.0914 444.256 28.5771 443.765 26.3694C443.091 22.9966 440.454 16.4962 440.331 17.9067Z" fill="black"/>
<path d="M615.473 28.3932C614.369 29.9876 611.425 37.2851 611.425 38.205C611.425 39.5541 613.817 36.5493 614.246 34.7709C614.43 33.7283 615.166 31.6433 615.841 30.1102C617.128 27.1053 616.944 26.1242 615.473 28.3932Z" fill="black"/>
<path d="M447.69 27.9026C447.812 29.4357 450.756 37.0399 451.615 37.8984C452.964 39.2476 452.841 38.2664 451.124 33.8511C449.714 30.2329 447.69 26.6761 447.69 27.9026Z" fill="black"/>
<path d="M428.986 36.7947C429.783 47.4651 443.213 122.403 443.336 116.884C443.397 115.964 442.478 110.445 441.312 104.619C439.35 94.8073 435.732 74.4477 430.826 45.3801C429.661 38.4504 428.864 34.587 428.986 36.7947Z" fill="black"/>
<path d="M634.115 38.1437C634.115 39.4928 629.945 64.8197 626.449 84.934C625.591 89.9626 623.751 99.5904 622.402 106.336C620.01 118.601 619.152 125.592 621.298 115.903C623.628 105.048 626.879 87.5096 631.355 60.8336C634.238 43.7855 635.157 36.7946 634.483 36.7946C634.299 36.7946 634.115 37.4078 634.115 38.1437Z" fill="black"/>
<path d="M606.397 38.4503C605.906 39.0636 605.293 40.1061 605.109 40.7806C604.986 41.4552 604.373 43.0496 603.821 44.2761C603.269 45.5639 603.085 46.6064 603.392 46.6064C603.76 46.6064 604.189 46.2998 604.373 45.9932C605.17 44.7054 606.458 45.4413 607.194 47.6489C609.218 53.8427 604.557 84.1368 596.83 114.676C588.613 147.117 583.707 156.561 575.244 156.561H572.484L574.324 157.358C579.659 159.688 584.995 156.315 588.674 148.159C594.132 136.262 602.656 104.312 605.906 83.7075C606.274 81.3159 607.439 74.6929 608.482 68.9897C610.689 56.6023 611.18 44.2761 609.524 42.6204C608.666 41.7618 608.42 41.7618 606.949 42.927C604.986 44.4601 604.864 43.9695 606.519 40.2287C607.807 37.1625 607.807 36.8559 606.397 38.4503Z" fill="black"/>
<path d="M457.195 38.9409C457.44 39.6155 457.87 41.0873 458.115 42.1911C458.606 44.0921 458.544 44.2148 457.563 43.2949C456.091 41.9458 454.619 42.0685 453.822 43.4789C452.412 46.1772 453.332 57.6448 456.275 73.2824C456.95 76.9619 457.808 82.1131 458.115 84.6274C459.341 95.1751 470.318 138.102 472.281 140.064C472.587 140.432 472.833 141.291 472.833 142.027C472.833 142.763 473.937 145.583 475.286 148.282C477.861 153.372 481.479 157.296 484.3 157.971C486.201 158.462 489.513 157.787 490.985 156.622C492.088 155.763 492.089 155.702 490.617 156.193C486.631 157.358 482.522 155.395 479.64 150.919C477.493 147.607 472.833 136.814 472.833 135.158C472.833 134.606 472.036 131.479 471.054 128.229C466.394 113.02 459.157 80.8866 458.115 70.8294C457.808 67.7632 457.256 62.3667 456.827 58.7486C456.153 52.2482 456.398 47.7716 457.502 45.9932C457.992 45.196 458.299 45.196 459.403 45.8705C460.077 46.2998 460.752 46.6064 460.875 46.4838C461.181 46.2385 457.87 38.757 457.195 38.205C456.95 37.8984 456.888 38.2664 457.195 38.9409Z" fill="black"/>
<path d="M506.929 39.0635C506.622 39.4315 505.702 39.6155 503.188 39.7994C502.882 39.8608 501.594 40.8419 500.367 42.0071C499.141 43.1723 497.914 43.9081 497.669 43.6629C497.424 43.4176 497.362 43.6629 497.485 44.1534C497.608 44.644 497.301 45.012 496.872 44.8893C496.504 44.828 496.197 45.1346 496.259 45.5026C496.381 45.9318 496.136 46.2385 495.768 46.1771C495.4 46.1158 494.296 46.913 493.315 48.0169C492.334 49.0594 492.027 49.55 492.64 49.1207C493.928 48.1395 494.051 49.182 492.763 50.2859C492.272 50.7151 491.843 50.8378 491.843 50.5925C491.843 49.9179 489.39 52.1869 488.654 53.5974C488.164 54.4559 488.225 54.6399 488.777 54.2719C489.268 53.9653 489.452 54.0879 489.268 54.6399C489.084 55.1305 488.654 55.4371 488.286 55.3758C487.918 55.2531 487.734 55.621 487.918 56.1116C488.164 56.6022 487.98 57.0315 487.551 57.0315C487.183 57.0315 487.06 57.3381 487.244 57.7061C487.489 58.0127 488.654 56.7862 489.82 54.9465C490.985 53.0454 492.211 51.5123 492.456 51.5123C492.763 51.5123 491.905 53.2907 490.494 55.4984C488.348 58.8712 487.796 59.3618 486.999 58.6873C486.263 58.1353 486.201 58.1353 486.569 58.6873C486.876 59.2392 486.569 59.4845 485.711 59.4845C483.564 59.4845 481.05 62.5507 480.253 66.1075C478.781 72.9758 480.069 87.3256 483.503 102.411C484.3 105.968 485.588 111.61 486.324 114.983C490.801 136.017 498.037 149.079 504.967 148.956C506.377 148.956 508.033 148.711 508.707 148.404C509.689 147.975 509.443 147.852 507.603 147.852C506.316 147.791 504.66 147.485 503.924 147.055C496.381 143.069 487.857 116.271 484.423 85.8538C483.626 78.9855 483.994 68.5604 485.159 65.9235C486.508 62.8573 488.164 60.7109 489.268 60.7109C489.881 60.7109 491.353 59.1165 492.64 57.0928C493.928 55.0691 495.584 52.8001 496.32 52.0029C497.117 51.2057 499.325 48.7528 501.287 46.4838C503.74 43.6015 505.948 41.8231 508.401 40.5353L512.019 38.7569H509.627C508.339 38.7569 507.113 38.8796 506.929 39.0635ZM506.438 40.9646C503.249 42.8043 496.197 50.4085 492.272 56.2343C490.065 59.6684 488.777 60.8949 488.777 59.7298C488.777 59.4845 489.881 57.7061 491.23 55.6824C492.518 53.72 493.499 51.6963 493.315 51.267C493.131 50.8378 493.438 50.1019 493.99 49.6726C495.093 48.7528 495.216 47.5876 494.174 48.2008C493.622 48.5075 493.622 48.3848 494.235 47.6489C494.664 47.097 495.277 46.7291 495.523 46.913C495.768 47.0357 496.626 46.4838 497.424 45.6252C499.386 43.5402 503.924 39.9221 503.249 41.0259C502.882 41.5778 502.943 41.7618 503.556 41.5778C504.047 41.3939 504.353 40.9033 504.231 40.5353C504.169 40.1061 504.353 39.9221 504.721 40.1674C505.028 40.3514 505.825 40.2287 506.377 39.9221C506.99 39.5541 507.91 39.3088 508.401 39.2475C508.891 39.2475 508.033 40.0447 506.438 40.9646ZM490.862 52.4322C490.31 53.2907 489.697 53.8426 489.513 53.6587C489.206 53.4134 491.107 50.8991 491.659 50.8991C491.782 50.8991 491.414 51.5737 490.862 52.4322Z" fill="black"/>
<path d="M497.976 46.3611C495.584 48.9367 493.744 51.1444 493.928 51.3283C494.112 51.5736 494.909 50.8991 495.645 49.9179C496.381 48.9367 498.344 46.7904 499.938 45.1346C501.532 43.4789 502.882 42.0071 502.882 41.8844C502.882 41.3325 502.084 42.0684 497.976 46.3611Z" fill="black"/>
<path d="M510.486 40.4739C508.339 41.5165 505.703 43.4788 504.353 44.9506C498.037 52.0642 492.089 59.9137 492.641 60.4656C492.763 60.6496 494.296 58.8712 496.013 56.4795C497.73 54.1492 499.693 51.5736 500.429 50.7764C501.103 50.0405 502.943 47.8942 504.537 46.1158C506.377 44.0307 508.707 42.2523 511.222 41.0259C513.368 39.922 515.146 39.0022 515.146 38.8795C515.146 38.3889 514.043 38.7569 510.486 40.4739Z" fill="black"/>
<path d="M548.875 38.8795C548.875 39.0021 550.653 39.922 552.799 41.0258C557.276 43.2335 561.262 47.2809 568.069 56.6022C569.725 58.8712 571.258 60.6495 571.381 60.4656C571.81 60.0976 566.965 53.4746 561.875 47.5262C558.625 43.6628 556.847 42.191 553.781 40.6579C550.04 38.7569 548.875 38.3276 548.875 38.8795Z" fill="black"/>
<path d="M555.681 40.5967C558.318 41.9458 560.403 43.6629 563.102 46.7904C565.187 49.2434 567.394 51.7577 568.008 52.4323C568.621 53.1068 570.154 55.2532 571.442 57.1542C572.791 59.2392 574.14 60.711 574.753 60.711C576.164 60.711 578.739 64.6358 579.475 68.0699C582.603 81.6225 573.588 128.351 565.432 141.046C562.488 145.645 559.729 147.791 556.663 147.853L554.087 147.914L556.663 148.527C559.913 149.324 561.814 148.834 564.512 146.503C569.602 142.027 573.649 132.092 577.942 113.45C583.952 87.6936 585.546 74.5089 583.768 66.1075C582.971 62.6121 580.456 59.4845 578.371 59.4845C577.697 59.4845 576.838 58.9939 576.532 58.3807C576.102 57.6448 575.918 57.5835 575.857 58.1967C575.857 58.6873 574.815 57.4608 573.527 55.4371C572.239 53.4748 570.706 51.4511 570.154 50.9605C569.602 50.5312 569.111 49.8566 569.111 49.4887C569.111 48.4462 571.564 50.9605 573.772 54.272C574.937 55.9277 575.857 57.0929 575.857 56.8476C575.857 56.541 575.183 55.3758 574.324 54.1493C573.527 52.9229 572.975 51.6964 573.159 51.3898C573.343 51.0831 573.281 50.9605 572.975 51.0218C572.73 51.0831 569.97 48.6302 566.904 45.5026C562.611 41.1486 561.078 39.9221 560.219 40.2288C559.361 40.5967 559.238 40.4741 559.606 39.8608C559.913 39.3089 559.851 39.1863 559.361 39.4929C558.993 39.7382 558.318 39.6769 557.889 39.3089C557.46 39.0023 555.988 38.6957 554.578 38.757H552.002L555.681 40.5967ZM558.564 40.4741C560.894 41.8845 561.385 42.0072 560.771 40.9033C560.219 39.9835 562.488 41.8232 566.229 45.3187C567.824 46.8518 569.111 48.3849 569.111 48.6915C569.111 49.0594 567.517 47.7716 565.555 45.8093C563.592 43.9082 561.814 42.3138 561.569 42.3138C561.323 42.3138 562.427 43.6016 564.083 45.2573C568.621 49.8566 570.645 52.187 573.036 55.9277C575.367 59.6072 575.55 60.0978 574.692 60.0978C574.447 60.0978 572.975 58.258 571.442 55.9277C567.885 50.7152 560.955 42.9883 558.257 41.3326C555.865 39.7995 555.191 39.2476 555.988 39.2476C556.295 39.2476 557.46 39.7995 558.564 40.4741Z" fill="black"/>
<path d="M513.675 40.7807C512.019 41.5779 509.443 43.4176 507.971 44.8894C504.844 47.8943 495.277 60.0365 495.645 60.4657C495.952 60.711 502.268 53.1682 502.268 52.5549C502.268 52.371 504.231 50.102 506.622 47.5877C509.566 44.4601 512.203 42.3751 514.717 41.0873C516.741 40.1061 518.029 39.2476 517.538 39.2476C517.047 39.2476 515.33 39.9222 513.675 40.7807Z" fill="black"/>
<path d="M549.488 41.1487C553.719 43.479 556.295 45.932 562.55 53.7815C565.31 57.2769 567.763 60.0978 568.069 60.0978C568.376 60.0978 567.149 58.2581 565.31 55.9278C563.531 53.6588 561.814 51.4512 561.446 50.9606C558.625 47.1585 553.106 42.0686 550.346 40.7808C545.87 38.6957 545.379 38.8797 549.488 41.1487Z" fill="black"/>
<path d="M517.661 40.5354C515.514 41.3939 497.976 59.4845 499.263 59.4845C499.57 59.4845 502.084 57.0929 504.844 54.088C513.491 44.8894 517.354 41.3326 519.5 40.658C520.788 40.2288 521.095 39.9835 520.359 39.9835C519.684 39.9221 518.458 40.2288 517.661 40.5354Z" fill="black"/>
<path d="M520.911 41.3938C519.562 42.191 517.109 44.5826 515.392 46.729C513.736 48.8753 509.75 53.2293 506.5 56.4182C497.178 65.6168 496.259 67.7018 495.707 81.2544C495.277 91.5569 496.381 101.001 499.631 115.289C500.797 120.502 502.023 125.96 502.33 127.431C503.127 131.418 506.193 138.347 508.523 141.352C511.16 144.786 513.123 145.951 517.109 146.319L520.359 146.626L518.151 145.767C511.896 143.376 509.014 138.776 505.151 125.101C500.674 109.341 498.834 83.7074 501.287 71.4426C502.759 64.145 503.863 62.244 513.123 51.8189C514.349 50.4698 515.944 48.4461 516.68 47.2196C518.335 44.644 520.972 42.191 523.425 40.9032C524.468 40.3513 524.836 39.922 524.345 39.8607C523.854 39.8607 522.321 40.5353 520.911 41.3938Z" fill="black"/>
<path d="M526.737 40.8421C522.812 42.8658 517.783 52.9842 515.208 64.0839C510.731 83.033 511.59 107.747 517.661 134.3C518.826 139.635 522.505 144.909 526.307 146.933C528.883 148.282 529.067 147.975 526.921 145.952C523.916 143.253 521.524 137.427 519.807 128.781C517.415 116.577 516.802 107.563 517.17 87.9389C517.415 71.8107 517.599 69.5417 519.071 62.6734C520.972 53.8428 524.345 44.8894 526.859 42.2525C529.006 39.9835 528.944 39.6769 526.737 40.8421Z" fill="black"/>
<path d="M535.383 40.0448C535.383 40.2288 536.181 41.21 537.162 42.2525C540.228 45.564 544.091 56.6637 545.747 67.1501C546.728 73.4051 547.096 94.7459 546.483 107.931C545.502 128.106 542.252 141.23 537.1 145.952C534.954 147.975 535.138 148.282 537.714 146.933C541.393 144.97 545.441 139.267 546.176 134.913C546.36 133.748 547.158 129.701 547.955 126.021C551.512 109.464 552.615 86.0992 550.53 72.6693C548.077 57.2769 542.558 44.0309 537.284 40.9034C536.242 40.2901 535.383 39.9222 535.383 40.0448Z" fill="black"/>
<path d="M540.289 40.8419C543.049 42.007 544.214 43.1109 547.219 47.2196C548.568 49.0593 549.979 50.8377 550.347 51.2057C551.45 52.2482 558.687 60.7722 559.668 62.244C561.262 64.6356 562.979 71.8105 563.715 79.0468C564.39 86.0991 563.777 98.9158 562.305 106.397C561.937 108.053 561.446 111.671 561.14 114.369C560.526 119.766 557.521 130.927 555.253 136.017C552.8 141.536 549.304 144.97 545.011 145.951C543.049 146.442 543.049 146.442 544.766 146.503C548.752 146.626 551.88 145.277 554.639 142.211C557.092 139.512 561.14 131.418 561.14 129.271C561.14 128.842 562.121 124.611 563.286 119.889C568.008 101.307 569.725 82.6649 567.64 72.4238C566.291 65.9848 564.819 63.6544 557.521 56.4182C554.271 53.168 550.101 48.6914 548.262 46.3611C545.011 42.3137 541.516 39.8607 539.247 39.8607C538.634 39.922 539.063 40.29 540.289 40.8419Z" fill="black"/>
<path d="M545.072 40.842C547.157 41.7619 550.346 44.7054 559.177 54.088C561.936 57.0929 564.512 59.4845 564.819 59.4845C565.187 59.4845 564.451 58.442 563.163 57.1542C561.875 55.8664 558.502 52.2483 555.62 49.0594C550.53 43.4789 545.87 39.7995 544.03 39.9221C543.478 39.9221 543.968 40.3514 545.072 40.842Z" fill="black"/>
<path d="M531.459 41.4552C529.435 47.8329 529.558 141.046 531.581 146.565L532.133 148.036L532.562 146.381C533.973 140.739 534.586 81.0706 533.544 56.2343C532.93 42.8657 532.379 38.6343 531.459 41.4552Z" fill="black"/>
<path d="M595.174 50.8991C593.886 52.2482 592.231 53.536 591.617 53.72C590.514 54.0879 590.514 54.1493 591.863 54.8238C592.783 55.2531 593.58 56.5409 594.132 58.258C595.235 61.8761 594.745 72.7305 593.028 82.1744C592.353 86.0378 591.372 91.9862 590.82 95.359C590.33 98.7319 588.796 105.907 587.447 111.242C582.48 131.111 576.9 145.338 572.484 149.631C570.583 151.471 569.847 151.777 567.272 151.777C564.022 151.777 563.286 152.329 565.616 152.942C569.786 154.046 574.692 152.513 576.225 149.57C576.532 149.018 577.942 146.319 579.414 143.682C582.357 138.409 587.325 124.243 589.287 115.596C595.971 86.0378 598.118 73.2211 598.179 63.0413C598.24 55.0078 598.179 54.6399 596.769 53.1068C595.91 52.2482 595.542 51.5123 595.91 51.5123C596.217 51.5123 596.83 50.8378 597.198 49.9792C597.566 49.1207 597.811 48.4461 597.75 48.4461C597.627 48.4461 596.523 49.55 595.174 50.8991Z" fill="black"/>
<path d="M466.7 49.55C466.7 49.8566 467.129 50.4698 467.62 50.8991C468.479 51.635 468.417 51.8803 467.191 53.1681C465.842 54.6399 465.78 55.0691 465.842 63.6545C465.964 71.2587 466.271 74.4475 468.172 84.0141C469.337 90.2692 470.87 97.6894 471.545 100.572C472.219 103.454 472.833 106.52 472.833 107.501C472.833 109.402 475.654 119.889 478.781 129.701C480.621 135.404 483.074 141.045 487.305 149.018C488.532 151.348 491.966 153.372 494.725 153.433C496.688 153.433 500.428 152.452 500.428 151.961C500.428 151.839 498.895 151.777 496.994 151.777C493.621 151.777 493.499 151.716 490.555 148.527C488.899 146.749 487.55 144.848 487.55 144.418C487.55 143.928 486.753 141.965 485.772 140.003C482.46 133.441 476.083 111.487 473.814 99.0385C469.521 75.2448 468.54 66.3528 469.644 60.2204C470.073 57.5834 470.748 55.805 471.483 55.1918C472.587 54.2719 472.465 54.1493 469.644 51.5737C468.049 50.1632 466.7 49.2433 466.7 49.55Z" fill="black"/>
<path d="M443.459 121.115C443.397 123.446 448.855 145.338 451.369 152.881C452.473 156.009 454.681 161.344 456.337 164.839C458.728 169.807 459.894 171.462 461.917 172.934C464.738 175.019 468.111 175.387 470.135 173.854C471.545 172.811 471.055 172.689 468.786 173.547C466.333 174.529 463.941 173.731 461.243 171.217C456.398 166.618 450.02 148.098 443.827 120.502C443.643 119.705 443.52 119.889 443.459 121.115Z" fill="black"/>
<path d="M617.803 130.62C610.26 162.877 603.085 176.552 595.236 173.547C592.967 172.689 592.599 172.75 594.009 173.854C596.708 175.878 601.552 174.529 604.312 170.91C606.581 167.967 610.383 159.565 612.836 152.084C615.595 143.744 620.133 125.469 619.888 123.691C619.765 122.955 618.846 126.083 617.803 130.62Z" fill="black"/>
<path d="M456.275 168.887C456.275 169.009 456.766 169.5 457.379 169.929C458.299 170.727 458.36 170.665 457.563 169.684C456.766 168.703 456.275 168.396 456.275 168.887Z" fill="black"/>
<path d="M606.213 169.868C605.6 170.542 605.232 171.217 605.354 171.34C605.477 171.462 606.09 170.91 606.703 170.113C608.052 168.335 607.746 168.151 606.213 169.868Z" fill="black"/>
<path d="M458.115 171.891C458.115 172.014 459.035 172.873 460.139 173.915L462.101 175.694L460.323 173.67C458.606 171.83 458.115 171.401 458.115 171.891Z" fill="black"/>
<path d="M604.005 173.363C603.514 173.915 602.349 174.712 601.307 175.142C600.203 175.632 599.896 175.939 600.51 176C601.491 176 606.151 172.382 605.232 172.321C604.986 172.321 604.434 172.75 604.005 173.363Z" fill="black"/>
</svg>
