<svg width="640" height="640" viewBox="0 0 640 640" fill="none" xmlns="http://www.w3.org/2000/svg">
<path d="M241.6 188.134C242.4 188.667 242.267 189.334 241.2 189.734C240 190.134 239.867 190.534 240.933 190.534C241.733 190.667 239.2 193.734 235.2 197.6C228.133 204.267 221.733 212.8 222.933 214.134C223.333 214.4 225.2 212.267 227.333 209.334C231.733 202.934 243.2 192 245.6 192C246.8 192 246.8 191.6 245.333 190.534C243.733 189.467 244 189.334 246.667 189.867C248.533 190.267 250.8 190.667 251.867 190.667C252.933 190.667 250.933 192.534 247.467 194.8C241.067 199.067 235.067 205.734 228.533 216C226.4 219.334 224.267 222.134 223.733 222.4C223.067 222.667 222.667 223.734 222.667 224.667C222.667 225.6 216.933 238.134 209.867 252.534C202.8 266.934 197.333 279.067 197.733 279.467C198.533 280.4 222.667 232.934 222.667 230.534C222.667 229.6 226.133 223.867 230.4 217.6C238.8 205.2 250.267 193.867 255.733 192.4C258.933 191.6 259.067 191.467 256.667 190.534C254.267 189.6 254.4 189.467 257.333 189.334L260.667 189.067L257.333 188.134C255.467 187.467 253.467 187.6 252.8 188.267C252 188.8 250.533 189.334 249.467 189.2C248 189.2 248.133 188.8 250 188C251.867 187.334 250.8 187.067 246.4 187.2C243.067 187.2 240.8 187.734 241.6 188.134Z" fill="black"/>
<path d="M381.333 188L378 189.067L381.333 189.334C384.267 189.467 384.4 189.6 382 190.534C379.733 191.467 379.867 191.6 383.2 192.534C388.533 193.867 400 205.2 408 216.8C411.6 222.267 414.667 227.334 414.667 228C414.667 230.4 440.133 280.267 440.933 279.467C442.4 278 409.733 214.134 403.6 206.534C400.4 202.534 394.8 197.2 391.333 194.934C386.933 192 385.733 190.667 387.467 190.667C389.6 190.667 389.733 190.4 388 189.2C386.4 188.134 386.933 187.867 390 188.4C392.267 188.8 395.2 189.6 396.667 190C398.667 190.667 398.8 190.534 397.467 189.6C396.267 188.8 396.133 188.134 397.2 187.867C400.133 186.8 384.533 187.067 381.333 188Z" fill="black"/>
<path d="M234.933 188.933C234.133 189.2 233.6 190 234 190.533C234.267 191.066 231.867 194.133 228.667 197.333C221.467 204.4 220.533 202.933 227.6 195.733C230.267 192.933 231.867 190.666 231.2 190.666C229.067 190.666 223.733 197.066 216.667 208C213.067 213.466 209.067 219.6 207.867 221.6C206.533 223.466 202.667 231.333 199.333 238.933C196 246.4 192.533 254 191.733 255.6C190.933 257.333 190.533 258.933 190.933 259.333C191.333 259.733 194.8 252.8 198.667 243.866C207.467 224.133 221.2 201.6 222.8 204.266C223.333 205.066 224.667 204.133 226.133 202C227.467 200 230.933 196.533 233.867 194.533C236.667 192.4 238.267 190.666 237.2 190.666C235.733 190.666 235.733 190.4 237.333 189.333C239.467 188 237.867 187.733 234.933 188.933Z" fill="black"/>
<path d="M401.333 189.333C402.933 190.399 402.933 190.666 401.467 190.666C400.533 190.666 402.133 192.666 405.333 194.933C411.467 199.733 423.6 218.133 431.467 234.666C438 248.133 444.8 262.933 445.733 265.333C446.4 267.066 446.533 267.066 446.533 265.333C446.8 261.866 429.733 226.666 421.867 214.266C413.733 201.466 412.8 196.533 420.8 208.533C423.467 212.666 426 215.999 426.267 215.999C427.067 215.999 426 214.266 419.467 204.666C412.933 194.933 409.333 190.666 407.467 190.666C406.8 190.666 408.133 192.799 410.667 195.333C413.067 197.866 414.8 200.266 414.4 200.666C414 201.066 410.933 198.399 407.6 194.666C404.267 191.066 401.067 187.999 400.4 187.999C399.867 187.999 400.267 188.666 401.333 189.333Z" fill="black"/>
<path d="M373.067 190.266C374 190.666 375.2 190.533 375.6 190.133C376.133 189.733 375.333 189.333 373.867 189.466C372.4 189.466 372 189.866 373.067 190.266Z" fill="black"/>
<path d="M266 191.865C256.533 194.132 250.533 199.465 239.733 214.532C231.067 226.665 222.667 241.199 222.667 243.865C222.667 244.799 218.8 252.799 214 261.599C209.2 270.399 205.467 277.999 205.867 278.399C206.267 278.665 208.133 276.399 210 273.199C219.067 257.999 222.667 251.599 222.667 250.399C222.667 247.732 234.8 225.599 241.2 216.799C251.467 202.665 258.133 196.265 264.4 194.532C267.467 193.732 271.467 192.532 273.333 191.999L276.667 190.932H273.333C271.467 190.932 268.267 191.332 266 191.865Z" fill="black"/>
<path d="M364.667 191.865C366.133 192.532 369.6 193.599 372.533 193.999C382.4 195.599 400.267 216.932 410.667 239.332C415.6 249.866 415.6 249.866 424 265.199C427.333 271.466 430.8 276.666 431.6 276.932C432.533 277.332 428.933 269.732 423.867 260.266C418.8 250.666 414.667 242.132 414.667 241.332C414.667 236.266 393.2 204.799 385.733 198.932C378.533 193.465 376.267 192.399 368.667 191.465C364 190.932 362.8 191.065 364.667 191.865Z" fill="black"/>
<path d="M395.333 193.066C400.8 196.399 411.467 208.533 415.067 215.333C417.6 220.266 438 261.333 444.533 274.666C446.667 279.199 446.667 279.199 445.867 275.333C445.467 273.199 441.6 263.999 437.2 254.933C432.933 245.866 429.333 237.999 429.333 237.466C429.333 236.933 426.4 231.599 422.8 225.599C419.2 219.599 415.2 212.666 414 210.133C411.2 204.399 397.067 190.666 393.733 190.666C392 190.666 392.4 191.333 395.333 193.066Z" fill="black"/>
<path d="M273.867 194.666C266.933 196.266 257.867 203.866 252.667 212.133C250 216.4 247.067 220.666 246.133 221.6C244.533 223.2 231.867 245.333 222.667 262.4C220.8 265.866 216.8 272 213.733 276C207.067 284.8 205.333 290.8 205.333 304.266C205.333 333.066 219.333 400.666 228.533 416.266C235.2 427.6 241.2 431.466 250.667 430.666C256.4 430.266 258.667 428.133 253.333 428C249.6 428 247.6 426.8 241.867 420.666C231.733 410 226.4 394.133 220 356.666C213.733 319.066 213.067 294.266 218.267 282.533C220 278.666 225.333 272.133 232.267 265.2C244.4 253.333 250.4 245.2 254.667 235.466C258.267 226.933 271.2 208.933 277.6 203.466C280.533 200.933 285.067 198.266 287.733 197.6C292.267 196.4 292.4 196.266 288.933 196.133C283.867 196 276.267 200.133 270.533 206.266C264.533 212.533 254.667 226.133 254.667 227.866C254.667 230.133 242 250.933 237.067 256.666C231.733 262.933 226 268.533 221.067 272.133L217.333 274.8L220.4 270.133C222 267.466 225.733 261.6 228.8 256.933C231.733 252.4 237.067 243.466 240.533 236.933C244 230.533 247.733 224.533 248.667 223.466C249.6 222.533 251.6 219.733 252.933 217.2C259.467 204.933 267.067 198.4 278.267 195.333C285.067 193.466 281.2 192.8 273.867 194.666Z" fill="black"/>
<path d="M359.733 195.199C367.733 197.333 376.267 202.666 380.133 208.133C381.467 210.133 382.667 212.133 382.667 212.533C382.667 213.066 384.933 216.533 387.867 220.399C390.667 224.266 395.2 231.466 398 236.666C400.8 241.733 405.733 249.999 408.933 254.933C412.133 259.866 414.667 264.266 414.667 264.666C414.667 265.199 416 267.466 417.6 269.599C420.133 273.333 420.133 273.466 417.867 272.266C414.533 270.399 405.6 261.866 400.933 255.999C396.933 251.066 382.667 227.599 382.667 225.999C382.667 224.266 371.067 208.799 366.4 204.399C361.467 199.599 353.733 195.999 349.067 196.133C346.133 196.266 346.133 196.266 349.333 197.199C355.733 199.199 360.933 202.533 365.467 207.733C372.8 216.133 380.133 226.799 382.8 232.933C387.2 243.333 394.933 253.866 406.4 265.333C422.533 281.466 423.333 283.599 423.2 309.999C423.067 326.933 422.267 335.466 419.333 351.333C417.333 362.266 415.2 374.266 414.667 377.999C413.2 387.866 405.733 409.333 401.733 415.066C396.133 423.066 389.867 427.999 384.933 427.999C381.733 427.999 381.2 428.399 382.667 429.333C383.733 429.999 387.467 430.666 390.933 430.666C396.133 430.666 398.133 429.866 401.867 426.666C407.467 421.733 413.467 411.866 414.8 405.333C415.333 402.799 417.6 394.399 419.867 386.933C424.8 369.999 428.667 351.066 431.333 330.266C434.933 302.133 433.467 286.133 426.8 278.266C421.467 271.999 414.667 261.733 414.667 259.866C414.667 258.933 413.867 257.199 412.8 256.133C411.733 254.933 407.6 247.999 403.6 240.666C395.467 225.466 383.6 207.866 377.867 202.266C372.267 196.799 368 194.933 359.867 194.133L352.667 193.466L359.733 195.199Z" fill="black"/>
<path d="M292.4 199.599C288 201.999 282.133 208.799 277.067 217.199C275.467 219.866 273.733 222.266 273.333 222.666C271.6 224.132 247.867 266.932 245.467 272.932C240.8 284.932 239.6 296.399 240.4 318.532C241.467 347.466 247.6 380.132 256.8 406.266C259.333 413.066 267.467 420.666 274.267 422.532C277.067 423.199 283.867 425.066 289.333 426.532C294.8 427.999 299.467 428.932 299.733 428.666C300 428.532 295.333 426.532 289.333 424.399C276.533 419.999 270.4 415.332 266.133 406.799C261.333 397.332 256 378.532 254.667 366.266C254 360.266 252.8 350.532 251.867 344.666C250.933 338.799 250.267 324.399 250.133 312.666C250.133 282.532 252.933 269.866 264.933 246.932C269.867 237.599 276.667 225.332 280.267 219.732C283.733 213.999 286.667 208.799 286.667 208.132C286.667 206.266 295.2 199.999 299.6 198.666C303.333 197.599 303.333 197.599 300 197.466C298.133 197.332 294.667 198.399 292.4 199.599Z" fill="black"/>
<path d="M309.333 198.399C302.8 200.532 289.2 222.666 287.2 234.532C286.8 237.199 285.067 245.332 283.333 252.666C278.267 273.466 276.933 286.666 277.067 313.999C277.067 340.799 279.6 367.066 284.133 386.399C285.467 392.399 286.667 398.799 286.667 400.399C286.667 407.999 297.867 423.732 307.333 429.599C313.333 433.199 314 432.532 308.933 427.999C299.867 420.132 294.4 405.466 289.733 377.466C286.933 360.132 285.733 289.599 288 270.399C291.6 238.132 301.467 206.399 309.6 200.799C312.667 198.532 312.533 197.332 309.333 198.399Z" fill="black"/>
<path d="M326.667 198.4C326.667 198.933 327.867 200.133 329.333 201.066C334.667 204.266 341.6 222.133 346.667 245.333C350.533 262.666 352.4 298.133 351.333 334.666C349.733 388.8 343.2 416.8 329.467 428.133C324.667 432 325.067 433.2 330.133 430.266C338.667 425.333 348.533 413.333 350 406.4C350.4 404 352.267 396 354 388.666C358.8 368.266 361.6 342.133 361.6 314.666C361.733 286.266 360.133 270.8 354.533 249.733C352.4 241.466 350.667 233.733 350.667 232.533C350.667 228.533 339.067 206.133 335.2 202.533C331.2 198.933 326.667 196.666 326.667 198.4Z" fill="black"/>
<path d="M342.8 200.4C346 202.133 349.333 204.667 350 206.133C350.8 207.467 354 212.8 357.467 218C360.8 223.067 367.733 235.467 372.8 245.333C385.733 270.267 388.667 282.933 388.4 313.333C388.4 326.4 387.333 341.067 386.133 349.333C384.933 357.067 383.333 367.467 382.667 372.667C379.6 397.867 368.4 418.933 356.4 422C350.933 423.333 338.4 428.267 339.067 428.8C339.333 429.067 343.067 428.133 347.467 426.8C351.733 425.333 357.733 423.867 360.8 423.333C363.733 422.933 368.133 421.333 370.4 420C374.933 417.2 382.667 407.333 382.667 404.4C382.667 403.333 384.4 396.667 386.667 389.6C393.2 368.133 397.467 342 398.267 317.333C399.2 288 396.8 277.067 385.067 256.667C383.333 253.733 378.4 245.067 374.133 237.333C369.733 229.6 365.867 223.067 365.333 222.667C364.933 222.267 362.667 218.933 360.267 215.333C352.667 203.333 345.6 197.333 339.067 197.333C337.867 197.333 339.6 198.667 342.8 200.4Z" fill="black"/>
<path d="M318.133 200.8C313.733 214.667 314 417.333 318.4 429.333L319.6 432.533L320.533 428.933C323.6 416.667 324.933 286.933 322.667 232.933C321.333 203.867 320.133 194.667 318.133 200.8Z" fill="black"/>
<path d="M215.2 216.933C211.6 222.666 204.667 235.866 199.867 246.4C194.933 256.933 190.667 264.8 190.4 263.733C190 262.8 188.4 266.133 186.533 271.2C184.267 277.6 182.4 280.666 180.4 281.466C175.867 283.2 174.667 286.933 174.667 299.2C174.667 317.066 179.6 349.466 187.333 382C189.067 389.333 191.067 398.666 191.867 402.666C192.667 406.666 196.267 416 199.867 423.333C209.733 444 217.467 449.066 229.333 442.666L234 440.266L228.533 440.933C223.6 441.6 222.4 441.066 217.733 436.933C207.6 427.733 193.6 390.266 190.533 364.133C189.867 358 188.667 350.4 188 347.333C185.867 337.733 182.667 309.066 182.667 299.2C182.667 291.2 183.333 288.533 186.667 282.266C188.933 278.133 190.667 274 190.533 273.066C190.533 272.133 189.467 273.466 188.4 276C187.2 278.533 186.133 280 185.733 279.2C185.467 278.4 186.4 275.2 187.867 272.133C189.2 268.933 190.533 267.066 190.8 267.866C191.067 268.666 193.467 264.666 196 258.933C204.533 239.733 212.133 224.666 217.467 216.133C220.4 211.466 222.533 207.333 222.133 207.066C221.867 206.8 218.667 211.2 215.2 216.933Z" fill="black"/>
<path d="M220 218.667C219.067 220.534 217.733 222.267 217.2 222.667C214.8 224.267 190.133 278.534 191.333 279.734C191.6 280.134 193.2 277.467 194.8 273.867C200.667 260.134 218.933 223.2 220.933 221.067C222 219.867 222.667 218 222.4 217.067C222 216 221.2 216.534 220 218.667Z" fill="black"/>
<path d="M432.4 227.599C435.467 233.599 438.133 238.266 438.4 237.999C439.067 237.466 431.333 222.532 428.8 219.332C427.6 217.866 429.2 221.599 432.4 227.599Z" fill="black"/>
<path d="M440 243.332C440 243.999 440.667 245.599 441.333 246.665C442 247.732 442.667 247.999 442.667 247.332C442.667 246.532 442 245.065 441.333 243.999C440.667 242.932 440 242.532 440 243.332Z" fill="black"/>
<path d="M89.2 265.865C88.2666 269.999 89.3333 285.999 92.2666 310.399C94.8 331.999 95.2 321.199 92.8 296.799C91.6 284.932 90.5333 272.265 90.2666 268.665C90 263.065 89.8666 262.665 89.2 265.865Z" fill="black"/>
<path d="M548 271.6C548 276.667 546.8 290.533 545.333 302.667C542.133 330 542.133 341.6 545.467 318C548 299.333 550.267 262.667 548.933 262.667C548.4 262.667 548 266.667 548 271.6Z" fill="black"/>
<path d="M541.467 267.2C540.4 268.934 540 271.067 540.533 271.734C541.6 273.467 538.133 309.067 534.667 332.134C528.667 372.4 522.4 406.267 516 432C513.733 441.2 511.333 451.867 510.533 455.6C507.067 474.4 494.667 497.2 485.867 500.8C481.867 502.534 480.8 502.4 476.933 500.667L472.667 498.534L476.667 501.867C485.467 509.467 494 504 503.333 484.8C506.667 478.134 509.733 470.534 510.133 468C510.533 465.467 512.4 457.867 514.267 451.334C526.933 405.467 541.867 314.267 542.933 276.934C543.2 269.867 543.333 264 543.2 264C543.2 264 542.4 265.467 541.467 267.2Z" fill="black"/>
<path d="M94.7999 271.865C93.9999 294.265 108.667 387.865 120.667 436.665C123.867 449.865 126.933 462.799 127.333 465.332C127.867 467.865 131.067 475.999 134.667 483.465C141.6 497.732 148.267 505.332 154 505.332C157.467 505.332 166.667 500.399 166.667 498.532C166.667 497.999 164.667 498.665 162.133 500.132C158 502.532 157.2 502.665 152.933 500.932C144.933 497.599 136.4 483.199 130.267 462.665C117.6 420.665 98.6666 310.799 98.6666 278.532C98.6666 271.599 98.1332 267.865 96.9332 266.799C95.4666 265.599 95.0666 266.532 94.7999 271.865Z" fill="black"/>
<path d="M533.333 267.999C532.267 268.666 531.867 269.599 532.4 270.133C532.933 270.666 534.133 270.399 534.933 269.599C536.933 267.599 535.867 266.399 533.333 267.999Z" fill="black"/>
<path d="M104 269.333C104 269.999 104.667 270.666 105.333 270.666C106.133 270.666 106.667 269.999 106.667 269.333C106.667 268.533 106.133 267.999 105.333 267.999C104.667 267.999 104 268.533 104 269.333Z" fill="black"/>
<path d="M446.8 269.333C446.667 270.399 448.8 275.733 451.467 281.199L456.4 290.933L455.6 307.199C455.2 315.999 453.2 332.266 451.333 343.333C449.333 354.266 447.2 367.199 446.667 371.999C444.933 384.399 436.8 410.399 430.667 422.533C424.267 435.466 417.6 441.866 411.2 441.066C405.6 440.399 405.6 440.666 410.667 443.333C421.067 448.666 429.067 443.333 438.267 424.666C441.6 418.133 445.067 408.399 446.133 403.333C447.2 398.133 449.2 389.733 450.667 384.666C457.2 360.799 464 316.266 464 297.999C464 285.733 462.667 282.933 456 280.666C452.667 279.466 451.067 277.866 449.2 273.199C447.867 269.999 446.8 268.266 446.8 269.333Z" fill="black"/>
<path d="M108.4 287.6C109.467 304.667 114 337.867 119.2 366.667C121.067 376.533 123.467 390.4 124.667 397.333C128.133 418.4 132.133 434.533 137.733 451.333C144.133 470.933 147.467 477.467 154.667 485.6C159.333 491.067 160.933 492 165.067 492C169.6 492 178.667 487.333 178.667 484.933C178.667 484.267 177.333 484.8 175.733 485.867C171.733 488.667 163.733 488.533 160.933 485.6C157.2 481.867 152.533 475.6 150.8 472.133C144 459.333 129.333 409.467 127.333 391.867C126.8 387.867 124.4 372.667 122 358C116 322 113.2 299.067 112.933 284.4C112.667 273.2 112.4 272 110.133 272C107.733 272 107.6 272.8 108.4 287.6Z" fill="black"/>
<path d="M118 273.333C118.4 273.999 119.467 274.666 120.133 274.666C120.933 274.666 121.067 273.999 120.667 273.333C120.267 272.533 119.2 271.999 118.533 271.999C117.733 271.999 117.6 272.533 118 273.333Z" fill="black"/>
<path d="M518 273.333C517.6 273.999 518.133 274.666 519.2 274.666C520.4 274.666 521.333 273.999 521.333 273.333C521.333 272.533 520.8 271.999 520.133 271.999C519.333 271.999 518.4 272.533 518 273.333Z" fill="black"/>
<path d="M525.867 285.734C525.6 300.8 522 328.667 515.867 363.334C513.6 375.734 511.2 390.134 510.533 395.334C508 414.4 495.6 457.2 488.533 470.8C485.333 477.334 476.4 487.6 473.467 488.4C472.133 488.667 468.8 488.267 466.133 487.334C460.133 485.2 460 485.867 465.733 489.334C473.067 493.867 477.6 492.934 484 485.6C496.4 471.6 504.133 448.134 514.667 392.667C523.333 347.067 529.067 308.134 530.267 286.267C531.067 272.8 530.933 272 528.533 272C526.267 272 526 273.2 525.867 285.734Z" fill="black"/>
<path d="M126.267 278.932C124.667 285.199 127.867 323.865 132 347.199C139.333 389.865 149.467 431.599 156 446.399C157.467 449.732 158.667 453.199 158.667 454.265C158.667 456.932 163.333 465.732 167.467 470.532C174.8 479.332 183.067 480.532 190.267 473.865C192.133 472.132 193.067 470.665 192.267 470.665C191.467 470.665 190.4 471.199 190 471.999C189.6 472.665 187.2 473.332 184.933 473.332C180.4 473.332 175.733 470.665 171.6 465.999C168.4 462.132 158.667 442.399 158.667 439.465C158.667 438.132 156.933 431.199 154.667 424.132C143.867 389.065 132.133 323.865 131.2 293.332C130.8 280.665 130.267 276.532 128.8 276.265C127.867 275.999 126.667 277.332 126.267 278.932Z" fill="black"/>
<path d="M507.2 293.199C507.067 330.399 487.067 426.666 473.867 453.999C466.667 469.199 459.867 474.666 450.267 472.799C446.267 472.133 446.133 472.133 448.667 473.999C453.6 477.866 460.133 478.799 464.4 476.266C473.6 470.933 477.6 462.933 488 429.466C498.533 395.866 509.333 338.133 511.6 303.066C513.067 281.199 512.667 276.133 509.467 276.399C507.6 276.533 507.333 278.666 507.2 293.199Z" fill="black"/>
<path d="M148.533 283.467C147.2 288.667 148.933 312.933 151.867 331.333C153.333 340.133 155.467 353.6 156.667 361.333C161.333 390.267 169.333 420.667 177.467 439.733C180.267 446.133 181.2 447.467 188.933 455.733C194.133 461.2 195.067 461.6 199.467 460.933C202 460.533 206.133 458.933 208.4 457.467L212.667 454.8L205.867 455.6C200 456.267 198.4 455.867 194.8 453.2C192.533 451.6 190.667 449.733 190.667 449.2C190.667 448.533 189.2 446 187.467 443.467C179.867 432.267 167.2 388.8 161.467 354.667C156.133 322 153.867 290.133 156.4 282.933C157.467 280.267 157.067 280 153.467 280C150.133 280 149.2 280.667 148.533 283.467Z" fill="black"/>
<path d="M482.267 282.932C482.8 284.665 483.2 291.865 483.2 299.065C482.933 310.665 481.867 321.732 477.2 354.665C473.333 382.532 458.4 433.332 451.2 443.065C449.467 445.465 447.6 448.399 447.2 449.599C445.867 453.332 436.267 457.332 432.267 455.865C430.533 455.199 428.667 454.932 428.4 455.199C427.333 456.265 438.267 461.332 441.467 461.332C444 461.332 451.867 454.265 456.667 447.865C461.6 441.332 472.933 407.865 476.533 389.999C487.067 335.732 492.533 293.065 490.133 283.465C489.467 280.665 488.533 279.999 485.2 279.999C481.6 279.999 481.2 280.265 482.267 282.932Z" fill="black"/>
<path d="M94.7999 334.133C94.5333 346.4 106.4 414.933 114.8 448.666C118.4 462.666 124.133 482.133 128.267 493.6C133.067 506.8 142.933 514.933 151.067 512.266C155.333 510.933 155.2 510.933 148.933 510.8C143.733 510.666 141.867 510 139.067 506.933C135.067 502.533 128.533 490.133 126.8 483.066C126 480.266 123.333 470.533 120.667 461.333C112.133 431.733 104.667 393.733 96.1333 336.666C95.0666 329.466 94.9333 329.2 94.7999 334.133Z" fill="black"/>
<path d="M541.6 342.666C541.067 348.799 532.267 400.399 528.133 419.999C523.733 441.866 517.333 466.266 513.2 477.599C511.6 481.733 510.667 485.999 510.933 486.933C511.733 489.199 517.867 471.599 522.133 455.333C530.533 422.133 543.333 351.866 542.267 343.733C541.867 340.399 541.733 340.133 541.6 342.666Z" fill="black"/>
<path d="M506.8 495.733C505.067 499.466 502 504.266 499.867 506.533C496.8 510 495.067 510.666 489.733 510.8C483.733 510.933 483.6 510.933 487.067 512.266C494.4 514.933 501.333 510.8 507.2 500.133C509.2 496.4 510.667 492.266 510.4 491.066C510.133 489.733 508.667 491.6 506.8 495.733Z" fill="black"/>
<path d="M124 491.332C124 491.999 124.667 493.599 125.333 494.665C126 495.732 126.667 495.999 126.667 495.332C126.667 494.532 126 493.065 125.333 491.999C124.667 490.932 124 490.532 124 491.332Z" fill="black"/>
<path d="M512.8 492.666C511.6 496.133 511.867 496.933 513.467 494.266C514.267 492.933 514.667 491.466 514.267 491.2C514 490.8 513.333 491.466 512.8 492.666Z" fill="black"/>
<path d="M126.667 500.399C126.667 502.533 130.533 508.799 134.267 512.266C138.8 516.666 144.133 518.799 147.867 517.733C152.4 516.533 151.067 515.199 146 515.733C140.267 516.399 133.333 511.599 129.333 504.266C128 501.599 126.8 499.866 126.667 500.399Z" fill="black"/>
<path d="M509.333 503.999C509.333 506.265 498.533 515.999 495.867 515.999C494.533 515.999 493.333 516.532 493.333 517.199C493.333 517.999 494.933 517.999 497.333 517.199C502.8 515.199 513.867 502.665 510 502.665C509.6 502.665 509.333 503.199 509.333 503.999Z" fill="black"/>
<path d="M157.333 508.666C156.4 509.866 156.267 510.666 157.067 510.666C157.733 510.666 158.667 509.733 159.2 508.666C159.6 507.599 159.733 506.666 159.467 506.666C159.2 506.666 158.267 507.599 157.333 508.666Z" fill="black"/>
<path d="M479.333 509.333C479.733 509.999 480.8 510.666 481.467 510.666C482.267 510.666 482.4 509.999 482 509.333C481.6 508.533 480.533 507.999 479.867 507.999C479.067 507.999 478.933 508.533 479.333 509.333Z" fill="black"/>
</svg>
