<svg width="640" height="640" viewBox="0 0 640 640" fill="none" xmlns="http://www.w3.org/2000/svg">
<path d="M177.467 152.134C173.6 154.8 172 156.8 172.533 158.267C172.933 159.334 172 162 170.4 164.267C168.933 166.534 165.6 172.934 163.2 178.534C160.667 184.134 158.667 187.867 158.667 186.8C158.667 185.734 158.267 185.2 157.867 185.734C157.467 186.134 157.733 187.6 158.4 188.934C159.6 190.934 160 190.534 161.867 186C164.4 179.6 171.867 165.6 174.667 161.867C175.733 160.267 179.2 157.467 182.267 155.334C187.067 152.267 188.8 151.734 193.6 152.534C197.6 153.067 198.8 152.934 197.333 152C192.667 148.934 181.733 151.467 177.467 156.534C176.4 157.734 174.933 158.667 174.133 158.667C172.667 158.534 178.933 152.534 183.467 149.734C184.8 148.934 185.333 148.134 184.533 148.134C183.733 148 180.533 149.867 177.467 152.134Z" fill="black"/>
<path d="M454.267 149.467C455.2 150.4 456.267 150.8 456.667 150.4C457.067 150 456.4 149.2 455.067 148.8C453.2 148 453.067 148.134 454.267 149.467Z" fill="black"/>
<path d="M441.333 151.999C439.866 152.933 440.933 153.066 444.933 152.533C455.733 150.933 466.266 161.066 474.933 181.333C476.933 186.133 478.666 188.933 478.666 187.599C478.666 184.666 471.733 169.199 468 163.999C466.4 161.866 465.466 159.466 465.866 158.933C466.266 158.266 464.666 155.999 462.266 153.866L458 149.999L461.866 154.266C464.133 156.666 465.2 158.666 464.4 158.666C463.6 158.666 462.266 157.733 461.2 156.533C456.933 151.466 446 148.933 441.333 151.999Z" fill="black"/>
<path d="M187.6 157.601C176.4 163.467 165.467 184.801 156.133 218.667C144.667 259.734 126.667 336.401 126.667 343.601C126.667 345.467 120.4 377.067 112.8 413.867C105.067 450.534 97.8665 487.601 96.6665 495.867C93.4665 517.734 95.1998 528.667 101.467 525.201C102.8 524.534 104 524.134 104 524.534C104 526.534 100.267 533.067 97.0665 536.401C93.7332 540.267 93.5998 540.267 92.1332 537.601C90.1332 533.867 90.2665 524.267 92.6665 510.001C95.0665 495.334 95.0665 488.001 92.5332 500.001C89.8665 513.467 88.1332 531.334 88.9332 536.667C89.4665 540.134 90.6665 541.867 92.7998 542.801C96.7998 544.267 96.7998 544.934 92.9332 548.001C90.7998 549.734 89.4665 550.001 88.3998 549.067C87.1998 548.134 86.6665 548.134 86.6665 549.067C86.6665 549.734 87.4665 550.934 88.3998 551.734C89.7332 552.801 91.0665 552.401 93.7332 549.867C97.5998 546.267 97.9998 545.201 96.1332 543.201C95.3332 542.534 95.5998 540.934 96.9332 539.334C98.9332 536.801 98.9332 536.801 97.9998 540.001C97.3332 542.267 97.4665 542.934 98.3998 542.001C99.1998 541.201 101.333 536.134 103.2 530.534C105.067 524.934 107.067 519.201 107.467 517.867C108.4 515.467 108.4 515.467 105.733 517.601C99.5998 523.067 97.9998 518.934 99.0665 500.134C99.5998 491.467 103.867 467.867 112.667 426.001C119.733 392.267 126 360.801 126.667 356.001C129.2 337.201 142.667 277.867 152.8 240.001C164.667 195.867 172.533 176.534 183.733 164.001C188.933 158.134 189.2 158.001 197.2 158.001C206 158.134 206.533 156.534 198 155.467C194.267 155.067 191.2 155.734 187.6 157.601Z" fill="black"/>
<path d="M436.4 156.133C434 156.8 432 157.6 432 157.866C432 158 436 158.133 440.8 158.133L449.6 158L454.933 164C462.933 172.933 478.667 205.866 478.667 213.466C478.667 214.933 480.667 222.8 483.2 231.066C488.667 249.066 494 270.4 503.333 312C507.2 329.2 510.533 341.2 510.533 338.666C510.533 336.133 509.733 330.133 508.667 325.333C507.6 320.533 505.467 310.933 504 304C500.133 286 485.867 229.733 483.333 222.8C482.267 219.466 480.133 212.133 478.667 206.4C475.733 194.8 466.533 174.266 460.267 165.866C456.4 160.666 446.667 154.533 442.533 154.8C441.467 154.8 438.667 155.466 436.4 156.133Z" fill="black"/>
<path d="M164.133 169.201C161.2 174.934 158.667 180.267 158.667 180.934C158.667 181.467 161.467 176.934 164.667 170.667C167.867 164.534 170.4 159.201 170.133 159.067C169.867 158.801 167.2 163.334 164.133 169.201Z" fill="black"/>
<path d="M199.467 161.867C188.933 164.8 176.8 185.467 165.467 219.6C161.733 230.8 158.667 241.067 158.667 242.4C158.667 243.734 156.267 254.4 153.2 266C146.133 294 134.133 346.8 129.867 368.667C126.667 385.334 122 407.6 113.2 449.334C108.533 471.734 106.8 494.8 109.6 499.867C112 504.534 113.733 504.534 117.867 500.4L121.467 496.8L120.533 500.667C120 502.934 117.6 509.734 115.2 515.867C112.667 522.134 110.933 527.467 111.333 527.734C112.667 529.067 125.333 496.4 125.333 491.6C125.333 490.934 123.733 491.867 121.867 493.734C117.467 498.134 115.067 497.2 113.2 490.267C111.067 482.4 112.8 467.467 118.933 438C122 424 124.933 409.067 125.6 404.667C127.2 394.934 140.8 332 147.2 305.334C149.733 294.667 153.333 279.067 155.333 270.667C164.133 233.067 172.933 205.2 180.933 190C186.4 179.6 193.6 169.2 197.6 166.267C201.6 163.2 211.2 162.8 215.867 165.2C217.467 166.134 218.667 166.4 218.667 166.134C218.667 165.067 213.067 162.267 208.667 161.334C206.533 160.8 202.4 161.067 199.467 161.867Z" fill="black"/>
<path d="M427.467 162C420.133 164.533 418.533 166.8 425.467 164.8C437.333 161.333 444 165.733 454.667 184.267C461.867 196.8 475.733 234.533 478 247.467C478.533 250.4 481.867 264.667 485.333 279.333C499.2 336.267 509.467 382 510.667 392.667C511.2 397.067 513.2 407.2 515.067 415.333C525.2 458.933 528.133 480.4 525.467 490.4C524.133 495.067 523.333 496 520.667 496C518.8 496 516.8 494.8 516 493.2C511.333 484.533 514.933 500.933 520.533 513.867C522.267 517.6 524 521.867 524.533 523.2C524.933 524.533 525.733 525.467 526.133 525.067C526.4 524.667 525.067 519.867 522.933 514.533C520.8 509.067 518.667 502.8 518.133 500.667L517.067 496.667L521.2 500.667C525.2 504.4 525.467 504.4 527.733 502.267C529.6 500.267 530 497.6 529.733 484.933C529.6 472.933 528.4 464.667 523.6 442C520.267 426.533 516 405.867 514 396C502.4 336.933 490.267 283.6 480.667 249.333C479.6 245.333 478.667 240.667 478.667 238.933C478.667 234.267 466.267 199.2 460.933 188.667C454.267 175.333 444.8 163.2 440.267 162.133C438.267 161.6 435.733 160.933 434.667 160.667C433.6 160.4 430.4 160.933 427.467 162Z" fill="black"/>
<path d="M207.333 171.733C197.733 177.6 191.733 187.733 181.333 215.6C172.8 238.133 158.666 287.333 158.666 294.133C158.666 295.867 156.533 305.867 154.133 316.267C128.266 422.933 124.133 445.467 126.266 466.267C127.066 474.933 129.066 478.267 132.8 476.8C134.4 476.133 134.8 476.533 134.133 478.133C131.466 485.067 126.666 500.267 126.666 501.733C126.8 504.667 129.066 499.467 134.133 485.2C136.8 477.6 139.6 470.667 140.133 469.867C141.066 468.8 140.4 468.533 138 469.067C135.2 469.6 134.4 468.933 132.533 464.533C127.866 453.333 131.333 428.933 147.333 362C150 350.933 153.6 335.067 155.466 326.667C164.8 283.333 173.733 249.6 182.666 224.667C185.6 216.533 188.666 207.867 189.466 205.333C192.933 194.933 193.733 193.333 195.866 190.8C197.066 189.333 199.466 186 201.333 183.467C205.333 178 214 172 218.133 172C219.866 172 222.8 172.667 224.933 173.333L228.666 174.667L225.333 172C221.066 168.667 212.666 168.533 207.333 171.733Z" fill="black"/>
<path d="M413.333 172.134C410.533 174.401 410.4 174.667 412.933 173.467C420.133 169.867 430.666 174.267 437.333 183.467C439.2 186.134 441.466 189.067 442.4 190.134C444.133 192.001 446.266 197.201 456.4 226.001C465.2 250.401 475.333 287.867 479.866 312.001C480.666 316.001 483.066 326.801 485.2 336.001C504.133 414.667 506.666 427.067 507.6 445.467C508.266 458.401 508 461.467 506.133 465.201C504.266 468.801 503.2 469.467 500.533 468.934C498.266 468.534 497.6 468.801 498.4 469.867C499.066 470.667 502 477.867 504.8 485.734C510.266 500.934 512.666 503.334 508.133 489.067C506.8 484.401 505.2 479.734 504.666 478.534C504.133 476.934 504.666 476.534 506.933 476.534C509.6 476.667 510.133 475.734 511.6 468.667C512.8 462.401 512.8 456.801 511.333 442.001C509.466 423.601 507.066 412.001 492.666 350.667C485.866 322.001 482.133 305.201 476.4 279.334C473.6 266.667 463.6 232.134 459.333 220.667C448.133 190.134 439.866 176.134 430.533 171.334C425.2 168.534 417.333 168.801 413.333 172.134Z" fill="black"/>
<path d="M216.533 185.599C205.6 195.599 197.466 212.799 187.866 246.666C175.066 291.999 161.466 345.732 156.533 370.666C155.333 376.932 153.2 387.332 151.866 393.999C148.4 410.532 147.2 432.799 149.333 440.666C151.466 448.266 155.466 449.866 161.466 445.466C166.266 441.999 166.4 443.332 162 451.466C160.133 454.932 158.8 457.999 159.066 458.266C159.733 458.932 165.6 449.999 169.2 442.932C172.133 437.199 171.733 435.999 168.133 439.199C166.933 440.132 164.666 441.466 163.066 441.866C156.133 443.999 153.2 424.132 156.533 399.332C159.866 375.332 160.933 369.866 168.8 337.999C185.733 269.332 195.066 236.132 202.933 217.332C209.866 200.932 213.333 195.066 220.133 188.266C226.4 181.999 229.733 180.666 237.066 181.866C241.866 182.666 242 182.666 238.666 180.799C236.8 179.599 232.8 178.799 229.733 178.666C224.933 178.666 223.333 179.466 216.533 185.599Z" fill="black"/>
<path d="M399.066 180.667C393.2 183.2 393.466 184.133 399.466 182.4C412.533 178.8 422.933 188 433.6 212.4C440.267 227.6 445.2 241.467 446.667 249.333C447.333 252.667 450.8 265.867 454.4 278.667C464.4 313.867 478.133 372 480.933 390C484 410.8 484.133 431.067 480.933 436.933C477.733 442.8 476.267 443.333 471.866 440.133C469.866 438.667 467.733 437.333 467.2 437.333C466.133 437.333 474.4 452 476.933 454.667C478.667 456.4 478.667 456.133 477.2 452.667C476.267 450.4 474.533 447.333 473.6 445.6C471.2 441.867 472.4 441.867 477.2 445.467C482.267 449.2 485.467 448.4 488.4 442.667C490.533 438.667 490.8 435.867 490.133 422.667C489.733 414.133 488 400.533 486.133 392C484.4 383.6 481.867 371.6 480.667 365.333C474.133 332.533 457.467 268.267 444.533 226C443.333 222.267 439.6 213.333 436.133 206C431.067 195.2 428.266 191.333 422.133 185.6C415.333 179.467 413.733 178.667 408.933 178.667C405.866 178.8 401.333 179.6 399.066 180.667Z" fill="black"/>
<path d="M237.867 189.999C232.8 192.266 224.267 201.866 223.067 206.666C222.667 208.532 220.267 214.132 217.867 219.332C210.533 235.199 190.667 298.666 190.667 306.399C190.667 307.866 188 320.132 184.667 333.599C176.4 367.866 174.267 381.866 174.933 398.132C175.6 412.666 178 419.199 183.733 422.132L186.533 423.466L183.867 427.866C179.867 434.399 181.733 434.399 186.133 427.866C188.267 424.799 191.2 420.932 192.8 419.332L195.6 416.266L192 415.466C182.4 413.599 180.4 385.866 187.067 349.999C194.8 308.266 206.533 265.732 221.333 224.666C225.733 212.666 232.133 201.332 237.733 195.732C242.133 191.199 243.333 190.666 249.733 190.666C254.667 190.666 256.133 190.266 254.667 189.332C251.867 187.466 242.8 187.866 237.867 189.999Z" fill="black"/>
<path d="M383.333 189.333C381.466 190.133 382.8 190.533 388.4 190.533C395.466 190.666 396.4 191.066 401.2 196C415.866 211.066 435.866 271.733 450.8 346C454.266 363.2 455.2 370.666 455.2 384.666C455.333 406 453.066 413.866 446.266 415.866C443.866 416.533 442.666 417.2 443.6 417.2C444.533 417.333 447.333 420.666 450.133 424.666C455.066 432.266 457.733 433.866 454.266 427.2C452.4 423.733 452.533 423.333 455.066 422C463.866 417.733 466.266 397.866 461.466 369.333C460 360.133 456 342 452.666 328.8C449.333 315.733 446.666 303.733 446.666 302.133C446.666 293.6 427.066 232 419.2 216C416.666 210.8 414.666 205.866 414.666 204.933C414.666 201.866 405.2 192 400.4 190C395.2 187.866 387.466 187.466 383.333 189.333Z" fill="black"/>
<path d="M478.667 191.466C478.667 192 481.333 200.8 484.533 211.2C491.6 233.2 495.333 247.866 504.133 286C507.6 301.333 510.533 312.933 510.533 311.733C510.667 307.866 505.067 282.266 496.533 247.333C489.867 220.4 478.667 185.466 478.667 191.466Z" fill="black"/>
<path d="M152.4 210.8C141.067 247.066 123.333 323.333 127.067 320C127.333 319.6 128.667 314.266 130 308C135.733 279.066 145.333 240.266 152.8 215.6C156.133 204.666 158.667 195.2 158.4 194.4C158.133 193.6 155.333 201.066 152.4 210.8Z" fill="black"/>
<path d="M258 196.133C254 198.266 246.8 207.866 240.933 219.333C235.733 229.333 222.667 266.133 222.667 270.533C222.667 271.866 219.733 284.8 216 299.466C205.467 341.866 203.067 365.066 207.333 383.733C211.067 400.133 216.667 405.466 226.267 402.133L231.333 400.266L227.467 399.333C220.267 397.333 214.667 379.733 214.667 358.666C214.667 346.8 216.667 329.466 219.333 317.066C220.4 312.266 221.867 304 222.667 298.8C225.6 278.133 239.333 235.333 249.067 216.933C257.2 201.466 261.733 197.333 271.067 197.333C276 197.333 277.467 196.933 276 196C273.467 194.266 261.467 194.4 258 196.133Z" fill="black"/>
<path d="M363.333 196.001C362.8 196.801 364.933 197.334 368.8 197.334C374.4 197.334 375.6 197.868 380 202.401C389.6 212.534 399.733 236.401 410 272.934C412.533 282.001 414.666 290.668 414.666 292.401C414.666 294.134 415.866 301.068 417.466 308.001C426 346.534 426.133 375.068 417.866 391.468C415.333 396.401 413.333 398.668 410.8 399.334L407.333 400.268L410.666 401.601C412.4 402.268 416 402.668 418.533 402.401C424.8 401.868 428.533 396.268 431.466 383.068C435.466 364.801 432.8 340.001 422.4 299.334C419.466 287.601 416.4 274.934 415.733 271.334C413.333 259.601 403.866 231.734 398.133 220.001C394.8 213.201 390 206.001 385.866 201.734C379.333 194.801 379.066 194.668 371.733 194.668C367.6 194.668 363.733 195.201 363.333 196.001Z" fill="black"/>
<path d="M283.6 200.667C269.067 205.733 260.667 223.333 249.467 271.333C242.667 300 240 319.867 240 339.733C240.133 358.667 242.667 373.867 247.2 383.2C251.867 392.4 253.733 394.4 264.933 401.733C270.267 405.333 278.933 412.533 284.267 417.733C294.267 427.733 299.867 432 302.933 432C303.867 432 302.667 430.8 300.267 429.333C294.133 425.6 262.533 393.733 258.4 387.333C253.333 379.067 250 358.133 250.133 334C250.267 314.933 254 280.667 257.467 265.6C260.933 250.667 269.733 224.8 273.467 218.267C278.667 209.333 286.4 201.333 290 201.2C291.467 201.2 293.867 200.667 295.333 200C300 198 289.333 198.533 283.6 200.667Z" fill="black"/>
<path d="M304.533 201.201C302.133 202.667 298.8 205.734 297.067 208.267C293.067 213.601 286.667 229.467 286.667 233.867C286.667 235.734 285.733 241.067 284.667 246.001C276 283.067 274.267 339.068 280.667 371.201C283.467 385.201 288.533 402.668 291.333 408.001C295.733 416.534 303.733 427.601 307.2 429.734C312.267 433.201 314 432.401 309.733 428.801C304.933 424.668 297.067 408.001 293.333 394.001C288.267 374.934 286.667 357.468 286.667 321.201C286.667 283.334 288 266.001 292.667 241.467C296.8 220.134 301.467 208.001 307.467 202.667C312.667 198.134 310.933 197.334 304.533 201.201Z" fill="black"/>
<path d="M318.133 200.8C313.733 214.667 314 417.333 318.4 429.333L319.6 432.533L320.533 428.933C323.6 416.667 324.933 286.933 322.666 232.933C321.333 203.867 320.133 194.667 318.133 200.8Z" fill="black"/>
<path d="M331.2 202.666C342.533 212.666 350 248.133 351.333 298.666C352.4 338.533 350.4 374.133 346.133 391.333C342.267 406.666 333.6 425.199 328.4 429.199C324.4 432.533 326.667 432.933 331.333 429.866C335.067 427.466 346.533 410.799 348.933 404.666C351.6 397.333 357.2 376.799 358.533 368.666C364.533 335.066 362.267 280.399 353.333 243.066C351.867 236.799 350.667 230.666 350.667 229.199C350.667 225.466 343.067 209.333 339.6 205.599C336.533 202.266 330.533 198.666 328 198.666C327.2 198.666 328.667 200.533 331.2 202.666Z" fill="black"/>
<path d="M347.333 200.8C358.933 205.067 366.8 217.333 375.333 244.667C378.533 255.067 381.867 268.4 382.533 274.133C383.333 280 384.8 290.267 385.867 297.067C388.933 316.4 389.733 337.867 388.133 352.533C386.4 367.067 383.333 381.333 380.4 387.067C378 391.733 344.267 425.733 338.4 429.333C336 430.8 334.8 432 335.733 432C338.8 432 344.533 427.733 354.4 417.733C359.867 412.4 368.4 405.333 373.333 402C378.4 398.667 384.133 394 386.133 391.6C401.867 372.933 402.933 325.2 388.667 270C386 259.733 383.333 248.667 382.667 245.333C380.133 231.333 370.133 211.2 362.667 204.8C358.4 201.2 350.933 198.667 345.333 198.8C342.533 198.8 342.933 199.2 347.333 200.8Z" fill="black"/>
<path d="M510.8 320.667C510.8 322.134 511.866 328.401 513.2 334.667C514.666 340.934 515.733 344.801 515.866 343.334C515.866 341.867 514.8 335.601 513.466 329.334C512 323.067 510.933 319.201 510.8 320.667Z" fill="black"/>
<path d="M122.266 342.134C103.333 437.601 94.6664 482.267 95.0664 484.001C95.5998 486.934 126.933 329.6 126.4 326.267C126.133 324.8 124.4 331.867 122.266 342.134Z" fill="black"/>
<path d="M510.8 348.267C510.667 350.267 514.267 369.2 518.8 390.267C535.6 470.133 538.533 485.2 539.867 497.2C540.533 503.867 540.933 510.133 540.667 511.067C540.4 512 539.867 514.4 539.333 516.4C538.667 519.733 538.133 520.133 535.333 519.467C530.933 518.4 531.2 520.133 535.867 523.6C538.667 525.733 540 526.133 541.2 524.933C543.067 523.067 543.067 502.4 541.2 490.667C539.733 481.467 512.267 348.267 511.467 346C511.067 345.2 510.8 346.267 510.8 348.267Z" fill="black"/>
<path d="M516.933 351.334C517.333 354.267 517.867 356.934 518.133 357.2C519.2 358.4 518.4 351.2 517.333 348.667C516.4 346.8 516.267 347.6 516.933 351.334Z" fill="black"/>
<path d="M518.933 361.333C518.933 363.199 519.2 363.866 519.6 362.933C519.866 362.133 519.866 360.533 519.6 359.599C519.2 358.799 518.933 359.466 518.933 361.333Z" fill="black"/>
<path d="M520.267 368C520.267 369.867 520.8 373.067 521.333 375.333C522.267 378.933 522.4 378.933 522.4 376C522.4 374.133 521.867 370.8 521.333 368.667C520.4 365.067 520.267 365.067 520.267 368Z" fill="black"/>
<path d="M522.933 381.332C522.8 382.399 524 388.399 525.333 394.666C526.8 400.932 527.6 403.332 527.2 399.999C526.4 393.066 523.066 378.399 522.933 381.332Z" fill="black"/>
<path d="M242.533 402.266C244.133 404.666 246 406.933 246.666 407.333C247.466 407.866 248 408.933 248 409.733C247.866 410.666 245.466 408.666 242.533 405.333C239.6 401.999 237.6 400.533 238.133 401.999L239.066 404.666L236 401.999C234.133 400.533 235.466 402.666 238.666 406.666C242 410.666 245.2 414.399 245.866 414.933C247.866 416.266 249.333 414.799 248.4 412.266C247.6 410.266 247.733 410.266 249.733 411.866C251.066 412.933 251.733 413.999 251.333 414.399C250.4 415.333 253.466 418.799 254.666 417.999C255.2 417.733 256.8 418.666 258.133 420.266C260.666 423.066 260.666 423.066 257.466 421.333C255.466 420.399 254.666 420.266 255.2 421.199C255.733 421.999 257.333 423.333 258.933 424.133C260.933 425.199 261.466 425.199 260.8 424.133C259.2 421.733 261.2 422.399 266.4 426.266C272.4 430.666 270.8 428.799 262.266 421.466C258.666 418.399 255.333 416.266 254.666 416.666C254 417.066 253.2 416.799 252.8 416.133C252.4 415.466 252.933 414.666 254 414.133C255.2 413.733 258.666 415.733 262.666 419.333C266.4 422.666 271.333 426.266 273.733 427.333C278 429.333 278 429.333 274.666 427.066C267.2 421.599 255.866 410.933 251.333 404.933C248.666 401.466 246 398.666 245.2 398.666C244.4 398.666 246.266 401.599 249.2 405.066C257.2 414.533 255.733 415.199 247.2 405.999C243.066 401.599 241.066 399.866 242.533 402.266ZM245.6 411.199L248.533 415.333L244.8 411.999C242.8 410.133 240.4 407.466 239.6 405.999C238.4 403.599 238.4 403.466 240.533 405.199C241.733 406.266 244.133 408.933 245.6 411.199Z" fill="black"/>
<path d="M254.533 405.2C257.466 408.667 260.8 412.4 262 413.334C265.6 416.4 264.133 413.467 259.2 408C251.333 399.334 254.933 400.4 265.466 410C270.933 414.934 277.866 420.8 280.933 423.067C286.266 427.067 288 429.334 285.6 429.334C284.4 429.334 279.066 425.6 270.4 418.8L264.666 414.134L269.333 419.2C271.866 422 276.933 425.867 280.4 428C284.266 430.134 286.133 432 285.066 432.267C284.133 432.667 284.933 432.934 287.066 432.934C290.4 432.934 290.533 432.8 288.4 431.067C286.133 429.2 286.133 429.2 288.666 430C294.8 432.134 296.4 432 292.533 429.734C290.133 428.4 282.8 422.534 276 416.667C261.066 403.6 256 399.867 254.533 400.667C254 401.067 253.2 400.8 252.666 400C252.266 399.334 251.2 398.667 250.4 398.667C249.733 398.667 251.466 401.6 254.533 405.2Z" fill="black"/>
<path d="M385.333 400.667C384.133 402.133 383.333 402.267 382.666 401.333C382.133 400.4 378.533 402.8 373.2 407.6C368.533 411.867 361.6 417.733 358 420.667C354.266 423.6 351.066 426.4 350.666 426.8C350.266 427.2 348.266 428.533 346 429.733C343.466 431.067 342.8 431.867 344.266 432C346.666 432 363.333 419.333 374.4 408.8C382.266 401.467 385.333 401.333 378.8 408.667C374.933 413.2 374 414.667 375.2 414.667C375.466 414.667 378.8 411.067 382.666 406.667C386.533 402.267 389.066 398.667 388.266 398.667C387.6 398.667 386.266 399.6 385.333 400.667Z" fill="black"/>
<path d="M386.933 405.333C380.4 413.599 370.8 422.266 362 427.999C355.866 431.999 356 432.266 362.266 429.733C363.733 429.199 364.133 429.333 363.333 430.533C362.533 431.866 362.933 431.999 365.066 430.799C368.666 428.933 369.733 428.933 368.533 430.933C368 431.999 368.133 432.266 368.8 431.599C369.466 430.933 370 429.733 370 428.933C370 428.266 370.8 427.333 371.866 426.933C373.066 426.533 373.333 426.933 372.666 427.999C372 429.199 372.533 429.199 374.8 427.866C376.533 426.933 378.533 426.266 379.066 426.399C379.733 426.533 379.733 425.999 379.2 425.199C378.533 423.999 378.933 423.866 380.533 424.399C381.733 424.933 382.4 424.799 382 424.133C381.6 423.466 382.533 422.533 383.866 421.999C386.933 421.066 405.733 401.333 404.666 400.266C404.266 399.866 403.066 400.666 401.866 402.133C399.866 404.666 399.733 404.666 400.666 401.999C401.066 400.399 399.2 401.866 396.133 405.333C393.2 408.666 390.8 410.666 390.666 409.733C390.666 408.933 391.2 407.866 392 407.333C392.666 406.933 394.533 404.666 396.133 402.266C397.733 399.866 395.333 401.866 390.933 406.666C381.466 416.799 379.733 415.866 388.8 405.599C392.133 401.866 394.266 398.666 393.6 398.666C392.8 398.666 389.866 401.733 386.933 405.333ZM398.8 406.399C396.8 409.999 384.4 421.333 382.266 421.333C381.2 421.333 379.333 422.533 378 423.999C376.666 425.599 374.666 426.399 373.733 425.999C372.666 425.733 370.4 426.399 368.533 427.466C366.8 428.666 364.933 429.333 364.533 428.933C364.133 428.533 365.066 427.466 366.8 426.666C368.4 425.733 372.133 422.799 375.2 420.133C380.666 415.199 388.8 412.533 385.2 416.799C384.133 418.133 383.2 418.266 382.666 417.466C382.266 416.533 379.866 418.133 377.2 420.933L372.666 425.866L377.733 422.133C380.4 420.133 382.666 418.933 382.666 419.466C382.666 419.999 383.866 419.333 385.333 417.999C386.8 416.666 387.6 415.199 387.333 414.666C386.933 414.133 387.6 412.933 388.666 411.999C390.266 410.666 390.666 410.666 390.666 412.133C390.666 413.066 392.533 411.733 394.8 408.933C399.2 403.599 400.933 402.533 398.8 406.399Z" fill="black"/>
<path d="M528.267 409.333C528.267 411.199 528.533 411.866 528.933 410.933C529.2 410.133 529.2 408.533 528.933 407.599C528.533 406.799 528.267 407.466 528.267 409.333Z" fill="black"/>
<path d="M529.467 415.466C529.467 416.933 529.867 417.333 530.267 416.266C530.667 415.333 530.533 414.133 530.133 413.733C529.733 413.2 529.333 414 529.467 415.466Z" fill="black"/>
<path d="M368 418.934C365.466 421.067 359.733 425.334 355.333 428.134C350.133 431.467 348.4 433.201 350.266 432.934C351.866 432.934 352.933 432.534 352.666 432.134C352.266 431.867 354.8 429.867 358.4 427.867C361.866 425.867 366.8 422.134 369.2 419.467C374.8 413.601 374.266 413.334 368 418.934Z" fill="black"/>
<path d="M530.933 421.333C530.933 423.199 531.2 423.866 531.6 422.933C531.866 422.133 531.866 420.533 531.6 419.599C531.2 418.799 530.933 419.466 530.933 421.333Z" fill="black"/>
<path d="M532.267 428.666C532.267 430.799 532.533 431.599 532.933 430.266C533.2 429.066 533.2 427.199 532.933 426.266C532.533 425.466 532.267 426.399 532.267 428.666Z" fill="black"/>
<path d="M279.066 431.334C279.066 432.267 279.866 432.801 280.933 432.401C281.866 432.001 282.666 431.601 282.666 431.334C282.666 431.067 281.866 430.667 280.933 430.267C279.866 429.867 279.066 430.401 279.066 431.334Z" fill="black"/>
<path d="M533.6 436.001C533.6 437.867 533.866 438.534 534.266 437.601C534.533 436.801 534.533 435.201 534.266 434.267C533.866 433.467 533.6 434.134 533.6 436.001Z" fill="black"/>
<path d="M534.8 442.133C534.8 443.599 535.2 443.999 535.6 442.933C536 441.999 535.866 440.799 535.466 440.399C535.066 439.866 534.666 440.666 534.8 442.133Z" fill="black"/>
<path d="M536.133 448.8C536.133 450.267 536.533 450.667 536.933 449.6C537.333 448.667 537.2 447.467 536.8 447.067C536.4 446.534 536 447.334 536.133 448.8Z" fill="black"/>
<path d="M152.133 455.199C151.333 456.133 149.2 461.199 147.467 466.399C145.733 471.466 143.2 477.199 142 479.199C140.667 481.066 140.267 482.666 140.8 482.666C142.8 482.533 146.133 477.066 149.6 467.999C155.2 453.866 155.733 450.799 152.133 455.199Z" fill="black"/>
<path d="M484.666 456C487.333 464.933 492.533 476.933 494.8 479.333C496.266 480.8 497.333 481.2 497.333 480.4C497.333 479.466 496.8 478.533 496.133 478C495.466 477.6 493.333 472.533 491.333 466.8C489.466 460.933 486.933 455.466 485.733 454.4C483.866 452.933 483.733 453.066 484.666 456Z" fill="black"/>
<path d="M542.8 488.8C542.8 490.267 543.2 490.667 543.6 489.6C544 488.667 543.866 487.467 543.466 487.067C543.066 486.534 542.666 487.334 542.8 488.8Z" fill="black"/>
<path d="M510.667 502.933C510.667 504.133 511.333 505.599 512 505.999C513.733 507.066 513.733 505.333 512 502.666C510.933 500.933 510.667 500.933 510.667 502.933Z" fill="black"/>
<path d="M545.6 504.001C545.6 505.867 545.866 506.534 546.266 505.601C546.533 504.801 546.533 503.201 546.266 502.267C545.866 501.467 545.6 502.134 545.6 504.001Z" fill="black"/>
<path d="M112.8 509.199C111.2 511.599 101.2 541.599 101.733 542.133C102.133 542.666 106.666 531.199 112.8 514.133C114.533 509.066 114.533 506.266 112.8 509.199Z" fill="black"/>
<path d="M524.667 509.999C525.2 511.466 527.333 517.466 529.333 523.466C531.333 529.333 534 535.999 535.2 538.133C536.533 540.266 537.067 540.799 536.533 539.333C536.133 537.866 533.6 530.666 531.067 523.333C528.667 515.999 525.867 509.466 525.067 508.666C524 507.733 523.867 508.133 524.667 509.999Z" fill="black"/>
<path d="M546.933 512.666C546.933 514.799 547.2 515.599 547.6 514.266C547.866 513.066 547.866 511.199 547.6 510.266C547.2 509.466 546.933 510.399 546.933 512.666Z" fill="black"/>
<path d="M548.267 526.933C548 535.733 547.6 537.599 545.333 538.933C541.867 541.066 541.867 542.666 545.333 542.666C549.067 542.666 549.467 540.799 548.933 527.866L548.533 516.666L548.267 526.933Z" fill="black"/>
<path d="M534.133 526.667C534.533 528.533 535.6 530.933 536.266 532C537.066 533.333 537.2 532.933 536.533 530.667C536.133 528.8 535.066 526.4 534.4 525.333C533.6 524 533.466 524.4 534.133 526.667Z" fill="black"/>
<path d="M544.667 548C547.2 552.667 548.267 553.467 550.133 551.867C551.2 551.067 552 549.733 552 548.933C552 548 551.467 548 550.4 549.067C549.2 550.267 548.267 550.133 546.133 548.267C544.267 546.667 543.867 546.533 544.667 548Z" fill="black"/>
</svg>
