<svg width="640" height="640" viewBox="0 0 640 640" fill="none" xmlns="http://www.w3.org/2000/svg">
<path d="M169.022 130.134C164.088 132.667 160.355 136.001 160.355 137.734C160.355 138.534 161.955 137.601 164.088 135.734C166.088 133.867 169.555 131.334 171.688 130.267C173.955 129.067 175.155 128.134 174.355 128.001C173.688 128.001 171.288 128.934 169.022 130.134Z" fill="black"/>
<path d="M469.021 129.335C469.421 130.135 470.488 130.668 471.421 130.668C472.221 130.668 474.621 132.268 476.621 134.268C478.621 136.268 480.355 137.202 480.355 136.402C480.355 135.468 478.755 133.735 476.755 132.268C472.221 129.202 467.955 127.468 469.021 129.335Z" fill="black"/>
<path d="M172.888 132.667C170.755 133.6 167.288 136.267 165.155 138.534C162.888 140.8 160.888 142.134 160.355 141.334C159.555 140 151.822 152.134 150.488 157.334C149.955 159.2 151.288 157.334 153.422 153.2C159.288 141.867 159.288 141.867 160.355 144.534C161.022 146.534 161.688 146.267 164.888 142.134C170.888 134.267 179.288 131.334 186.088 134.8C188.355 136 188.622 136 187.555 134.667C184.888 132 177.022 130.934 172.888 132.667Z" fill="black"/>
<path d="M454.355 134.268L451.688 136.401L454.355 135.334C467.555 130.268 474.755 135.068 484.355 155.201C493.688 174.935 499.688 194.001 510.755 240.668C511.822 245.068 512.088 245.335 512.222 242.401C512.622 231.468 488.088 150.668 484.355 150.668C483.822 150.668 482.355 148.401 481.288 145.601C480.088 142.801 477.022 138.534 474.355 136.268C470.488 132.801 468.488 132.001 463.288 132.001C459.555 132.134 455.955 132.934 454.355 134.268Z" fill="black"/>
<path d="M178.355 138.535C174.488 140.269 164.755 151.069 162.488 156.269C148.355 188.135 135.955 234.935 125.821 294.669C124.355 303.069 121.288 319.869 119.021 332.002C112.221 367.735 102.088 429.602 99.0215 453.735C95.9548 477.602 95.9548 486.002 98.7548 486.002C100.088 486.002 100.621 481.602 100.888 468.669C101.421 451.069 104.621 428.135 114.888 370.002C117.688 353.869 121.955 329.869 124.221 316.669C135.688 250.535 145.821 207.735 156.488 180.269C158.621 174.669 160.355 169.335 160.355 168.269C160.355 162.402 172.621 145.335 179.155 141.869C183.421 139.735 190.488 139.335 191.688 141.335C192.088 142.002 193.155 142.669 194.088 142.669C195.021 142.669 194.755 141.869 193.555 140.535C191.021 138.135 182.088 136.935 178.355 138.535Z" fill="black"/>
<path d="M451.555 138.536C449.955 139.202 448.221 140.536 447.688 141.336C446.888 142.536 447.421 142.536 449.421 141.469C455.688 138.136 463.688 140.802 471.155 148.936C475.555 153.602 478.088 158.536 481.688 169.336C483.288 174.136 485.421 179.736 486.355 182.002C489.155 187.869 498.088 219.336 502.888 240.002C505.155 249.869 508.221 262.802 509.688 268.669C512.221 279.069 512.355 279.202 511.821 272.002C510.621 255.869 494.488 194.402 485.821 173.069C483.021 166.269 480.355 159.069 479.955 157.069C479.421 154.936 475.821 150.002 471.955 145.869C466.221 139.736 464.088 138.402 459.688 137.869C456.755 137.602 453.021 137.869 451.555 138.536Z" fill="black"/>
<path d="M481.688 141.335C482.488 142.802 483.421 144.002 483.821 144.002C484.088 144.002 483.821 142.802 483.021 141.335C482.221 139.869 481.288 138.669 480.888 138.669C480.621 138.669 480.888 139.869 481.688 141.335Z" fill="black"/>
<path d="M184.622 149.336C177.288 153.336 174.355 158.002 162.222 184.936C161.155 187.202 160.355 190.136 160.355 191.602C160.355 192.936 158.755 199.069 156.888 205.336C147.688 235.602 131.022 309.069 128.488 330.669C127.822 336.136 124.222 357.736 120.488 378.669C111.955 427.202 109.422 446.402 109.955 458.002C110.355 465.869 110.755 467.336 112.755 467.202C113.955 467.069 115.022 467.069 115.022 467.202C115.022 467.336 113.288 473.202 111.022 480.002C106.488 494.536 106.622 493.736 108.355 492.669C109.422 492.002 119.022 463.869 119.022 461.202C119.022 460.536 118.088 460.402 117.022 460.802C111.822 462.802 113.155 442.936 121.955 392.002C124.888 374.802 127.822 356.136 128.355 350.669C130.622 332.002 145.288 262.136 153.822 230.669C156.088 222.269 158.755 212.002 159.688 207.869C164.088 188.269 175.955 162.136 183.688 154.669C188.088 150.402 189.155 150.002 196.355 150.002C203.288 150.002 203.955 149.869 201.288 148.402C197.022 146.002 189.688 146.402 184.622 149.336Z" fill="black"/>
<path d="M440.755 148.401C438.088 149.868 438.755 150.001 445.688 150.001C452.888 150.001 453.955 150.401 458.355 154.668C463.822 160.001 476.755 185.335 479.155 195.468C480.622 202.001 481.288 204.535 488.622 231.335C497.688 265.201 507.288 311.335 514.222 354.668C515.288 361.601 518.355 379.868 521.022 395.335C528.888 441.868 530.222 462.801 525.022 460.801C523.955 460.401 523.022 460.401 523.022 460.935C523.022 463.735 531.555 489.068 533.022 490.535C534.088 491.601 533.155 487.201 530.888 479.868C526.488 465.868 526.222 464.401 528.888 466.535C536.088 472.535 532.488 438.268 517.555 357.335C515.288 345.201 512.888 330.801 512.355 325.335C510.622 310.935 500.888 264.535 492.488 232.001C478.488 177.735 469.155 155.601 457.288 149.335C451.688 146.268 445.155 146.001 440.755 148.401Z" fill="black"/>
<path d="M157.155 151.068C150.755 160.801 128.355 236.134 128.355 247.868C128.355 253.601 129.422 250.268 132.888 234.268C139.422 204.401 148.088 176.134 156.222 158.001C160.488 148.668 160.888 145.201 157.155 151.068Z" fill="black"/>
<path d="M202.088 156.001C199.688 156.534 196.888 157.734 195.688 158.668C192.888 161.068 185.288 172.801 180.622 182.001C175.688 191.868 165.288 222.534 162.488 236.001C161.288 241.468 157.955 256.534 155.022 269.334C147.822 301.334 134.355 369.068 131.155 389.334C128.888 403.601 127.822 423.201 128.222 446.668C128.355 452.001 124.888 465.334 121.955 471.334C119.955 475.334 120.088 475.334 122.622 472.934C125.288 470.534 126.488 467.334 130.222 451.468C131.422 446.268 133.288 441.068 134.488 439.868C136.222 437.868 136.222 437.601 134.222 436.801C132.222 436.001 132.088 434.134 132.755 419.601C133.688 398.934 144.355 337.601 155.022 291.334C156.622 284.668 158.355 275.468 159.155 270.668C161.288 257.334 171.822 218.268 177.555 202.668C180.355 194.934 185.555 183.334 189.022 176.934C197.688 160.801 205.155 156.001 215.555 160.001C219.688 161.601 220.088 160.668 216.222 158.534C211.288 156.001 206.488 155.068 202.088 156.001Z" fill="black"/>
<path d="M427.688 158.002C424.088 159.868 422.221 161.068 423.688 160.535C431.955 158.002 436.355 158.268 441.821 161.868C444.755 163.868 447.555 166.535 448.088 167.735C448.621 169.068 451.555 174.535 454.488 180.002C463.688 196.535 477.288 239.068 481.421 264.002C482.221 268.802 485.555 284.935 488.888 300.002C506.488 379.735 513.955 434.402 507.688 436.935C505.821 437.602 505.821 437.868 507.688 440.002C508.755 441.202 510.621 446.268 511.555 451.068C514.088 462.935 516.355 469.468 518.755 472.002C520.621 473.735 520.755 473.735 519.821 471.335C519.288 469.868 517.288 463.602 515.421 457.335C512.488 447.335 512.221 445.335 513.555 439.868C514.488 436.535 514.888 432.268 514.621 430.535C514.221 428.802 513.555 420.668 513.021 412.668C511.688 390.135 498.088 316.535 485.288 262.268C482.755 251.868 480.088 239.602 479.155 234.935C476.221 219.335 464.755 187.068 457.955 175.468C450.621 162.802 445.821 157.468 440.488 156.002C434.355 154.268 435.421 154.135 427.688 158.002Z" fill="black"/>
<path d="M213.422 169.734C205.422 174.534 192.355 194.267 192.355 201.601C192.355 202.801 191.288 206.401 189.822 209.601C182.088 227.734 163.688 302.134 159.155 334.001C158.355 339.067 156.222 352.001 154.355 362.667C150.355 385.067 148.755 409.601 150.888 414.934C152.622 419.467 156.755 419.867 159.555 415.734C161.555 413.067 161.555 413.067 160.755 418.134C160.355 420.934 159.155 425.067 158.088 427.201C157.022 429.201 156.755 430.534 157.555 430.134C159.022 429.201 164.488 418.001 166.222 412.267C167.155 409.334 165.288 408.134 163.688 410.667C161.822 413.601 159.022 411.734 157.555 406.534C155.822 401.067 155.955 399.067 160.355 356.667C162.222 338.001 177.822 267.734 186.355 239.334C188.088 233.467 190.888 223.867 192.355 218.001C196.355 202.801 205.422 184.534 212.355 177.601C218.888 171.201 222.088 170.001 229.422 171.201L234.355 171.867L229.022 169.334C222.088 166.001 219.422 166.001 213.422 169.734Z" fill="black"/>
<path d="M412.088 169.469C406.222 172.402 405.422 173.869 410.488 172.002C417.555 169.335 421.422 170.402 428.622 176.935C433.688 181.602 437.022 186.535 441.155 195.335C444.222 201.869 447.288 209.069 447.822 211.335C448.222 213.469 450.755 222.135 453.155 230.535C469.822 286.269 485.022 365.202 485.022 396.269C485.022 410.669 483.688 413.869 478.888 410.935C477.288 409.869 475.822 409.469 475.555 409.735C474.488 410.802 480.755 426.002 483.288 428.669C485.688 431.202 485.688 430.935 483.155 425.335C481.688 422.002 480.355 418.135 480.355 416.802C480.355 414.402 480.488 414.402 482.755 416.402C486.355 419.735 489.555 419.202 491.155 414.935C493.288 409.735 491.688 385.602 487.822 364.002C486.088 354.135 483.688 340.269 482.488 333.335C477.555 305.069 475.955 297.069 470.888 276.002C464.222 247.735 452.622 208.269 445.955 191.602C442.888 184.002 434.222 173.069 428.622 169.735C422.622 166.002 418.622 166.002 412.088 169.469Z" fill="black"/>
<path d="M230.221 181.068C220.621 186.135 202.088 230.668 194.621 266.668C178.488 343.068 175.688 360.935 176.488 379.735C176.888 388.268 177.688 391.335 180.088 394.535C182.888 398.401 183.021 398.935 181.021 402.668C179.821 405.068 179.555 406.668 180.355 406.668C181.155 406.668 182.888 404.801 184.088 402.401C185.288 400.135 187.688 396.935 189.288 395.335C192.088 392.668 192.088 392.401 189.688 391.068C183.288 386.935 183.021 365.868 188.888 329.201C190.621 317.868 192.488 306.001 193.021 302.801C194.488 292.135 204.088 254.401 210.088 235.335C217.955 210.935 225.288 194.268 231.155 187.601C235.688 182.401 236.088 182.268 244.221 182.135C251.955 182.001 252.355 181.868 248.755 180.401C243.555 178.135 235.155 178.401 230.221 181.068Z" fill="black"/>
<path d="M393.288 180.402C389.688 181.868 390.088 182.002 397.822 182.135C405.955 182.268 406.488 182.402 410.755 187.468C416.488 194.135 425.688 214.802 432.355 236.002C439.155 257.868 446.888 288.935 448.355 300.668C449.022 305.735 451.155 318.402 453.022 328.668C459.422 363.602 458.755 387.735 451.155 391.468C448.355 392.935 448.222 393.068 450.488 393.868C451.955 394.268 454.755 397.335 456.755 400.668C461.022 407.335 464.222 408.935 461.022 402.668C459.022 398.935 459.155 398.402 461.955 394.668C469.155 384.935 465.955 352.802 451.022 285.335C449.688 279.068 447.955 270.268 447.022 265.602C443.422 245.602 429.555 206.402 421.422 193.335C419.288 190.002 417.288 186.402 416.888 185.335C415.955 182.535 406.755 178.668 401.288 178.668C399.022 178.802 395.288 179.468 393.288 180.402Z" fill="black"/>
<path d="M254.355 189.201C241.422 197.067 230.622 221.067 220.888 263.334C205.022 332.801 202.888 365.867 213.688 377.334C215.688 379.467 218.755 381.334 220.355 381.334C222.622 381.334 223.155 381.867 222.488 383.601C221.955 385.201 222.488 384.934 223.822 382.934C225.022 381.334 226.488 380.001 227.155 380.001C227.688 380.001 231.688 384.934 235.822 390.934C240.088 397.067 246.622 405.201 250.222 409.067C253.822 412.934 256.488 416.401 256.088 416.667C255.688 417.067 253.022 414.934 250.222 412.001C247.422 409.067 244.222 406.934 243.288 407.334C242.355 407.734 241.955 407.467 242.355 406.667C242.755 406.001 241.022 402.667 238.355 399.334C235.822 395.867 232.088 390.401 230.222 387.201C228.222 383.867 226.355 381.601 225.955 382.001C225.555 382.401 228.755 387.867 233.155 394.267C237.422 400.667 240.888 406.534 240.755 407.334C240.488 408.134 242.888 411.201 246.088 414.001C251.155 418.934 251.288 418.934 247.288 414.667C241.288 407.867 241.955 406.401 248.355 412.667C251.155 415.467 253.288 418.267 252.888 418.801C252.622 419.334 253.022 420.267 253.955 420.801C256.355 422.267 260.355 422.401 259.555 421.067C259.022 420.401 257.955 420.134 256.888 420.534C255.955 420.934 254.755 420.667 254.355 420.001C252.622 417.334 257.555 418.001 263.822 421.601C267.555 423.601 271.155 425.334 271.822 425.334C272.488 425.334 270.222 423.601 266.755 421.601C259.155 417.201 243.822 400.401 235.955 387.867C232.888 382.801 229.555 378.801 228.622 378.667C227.555 378.667 225.155 376.934 223.022 374.934C215.155 367.067 214.355 340.801 221.022 300.001C229.422 247.467 240.755 212.267 254.755 196.001C258.222 191.867 260.355 190.667 265.422 189.867C270.888 188.934 271.288 188.667 268.355 187.867C262.622 186.267 258.488 186.534 254.355 189.201Z" fill="black"/>
<path d="M373.422 187.601C367.555 188.534 369.155 190.001 375.822 190.001C381.422 190.134 382.622 190.667 386.888 195.601C393.955 203.601 400.622 217.201 406.622 236.001C419.555 276.001 428.622 339.201 424.488 360.401C422.622 370.801 420.488 374.667 415.688 377.201C413.288 378.267 409.288 382.934 405.955 388.134C398.088 400.534 382.755 417.201 375.288 421.601C371.822 423.601 369.688 425.334 370.355 425.334C371.155 425.334 374.355 423.867 377.555 422.001C384.222 418.134 385.288 417.867 383.022 420.667C381.822 422.134 381.822 422.667 382.888 422.667C383.822 422.667 384.088 423.334 383.555 424.267C383.022 425.201 384.222 424.534 386.088 422.801C388.088 421.067 389.288 419.201 389.022 418.667C388.755 418.134 390.888 415.467 393.688 412.667C400.088 406.401 400.755 407.867 394.755 414.534C392.355 417.201 391.555 418.267 393.155 416.934C394.622 415.734 396.355 415.067 397.022 415.601C397.555 416.267 397.688 416.001 397.288 415.201C396.755 414.267 397.288 412.934 398.355 412.001C399.422 411.067 400.355 410.801 400.355 411.334C400.355 412.001 401.555 411.334 403.022 410.001C404.355 408.801 405.422 407.067 405.288 406.267C405.155 405.467 405.688 404.801 406.622 404.667C407.422 404.667 408.622 404.134 409.288 403.467C409.955 402.801 409.555 402.667 408.488 403.334C407.288 404.001 406.888 403.734 407.288 402.534C407.688 401.467 408.622 400.667 409.422 400.667C410.222 400.667 411.688 399.734 412.622 398.667C414.088 397.067 414.088 397.067 412.088 398.534C410.622 399.601 409.688 399.734 409.688 398.934C409.688 397.467 412.222 395.334 413.955 395.334C414.355 395.334 415.288 394.801 415.955 394.134C416.622 393.467 416.355 393.334 415.422 393.867C412.622 395.467 413.555 392.267 416.755 389.334C418.755 387.334 419.022 386.801 417.422 387.334C415.422 388.134 403.688 404.667 403.688 406.801C403.688 408.801 401.955 409.334 401.422 407.734C400.355 405.067 415.288 384.401 417.955 384.801C419.288 384.934 419.955 384.401 419.555 383.334C419.155 382.401 420.355 381.334 422.755 380.934C439.288 377.601 439.022 340.667 421.555 266.667C411.955 225.467 405.022 206.801 394.888 195.334C387.955 187.467 383.822 186.001 373.422 187.601ZM417.688 381.334C417.688 382.001 417.155 382.534 416.488 382.267C415.155 382.001 400.088 403.867 399.955 406.267C399.955 407.201 399.288 407.601 398.622 407.067C397.955 406.667 394.755 408.934 391.555 412.134C388.222 415.467 386.355 418.267 387.155 418.667C387.955 419.201 387.822 420.134 386.488 421.201C384.888 422.667 384.488 422.401 384.622 419.734C384.755 418.001 388.355 412.934 392.888 407.867C397.422 403.067 403.688 394.934 407.022 389.601C410.622 384.001 413.955 380.134 415.422 380.134C416.622 380.001 417.688 380.534 417.688 381.334Z" fill="black"/>
<path d="M306.222 193.201C297.288 198.668 290.755 210.934 287.688 228.001C286.488 234.268 284.755 243.868 283.688 249.334C276.222 290.268 277.022 347.468 285.555 374.668C287.155 379.468 288.355 384.401 288.355 385.868C288.355 392.401 302.622 417.734 308.622 421.868C313.288 425.201 314.488 424.401 310.755 420.268C301.688 410.668 293.155 384.401 289.688 356.001C287.688 338.801 287.955 278.268 290.355 258.668C294.355 223.868 300.088 204.001 308.355 195.601C313.822 190.268 312.755 189.201 306.222 193.201Z" fill="black"/>
<path d="M319.822 192.802C315.422 206.668 315.688 409.335 320.088 421.335L321.288 424.535L322.222 420.935C325.288 408.668 326.622 278.935 324.355 224.935C323.022 195.868 321.822 186.668 319.822 192.802Z" fill="black"/>
<path d="M333.688 195.601C344.355 206.401 350.355 233.734 352.488 280.401C354.088 316.668 352.355 363.068 349.021 377.334C344.088 397.734 337.555 413.601 331.288 420.268C327.555 424.401 328.755 425.201 333.421 421.868C339.155 417.868 352.355 395.334 352.355 389.601C352.355 388.401 353.555 384.134 354.888 380.134C366.488 346.801 366.488 288.534 354.888 231.334C350.488 209.201 344.488 197.601 334.755 192.534C328.755 189.468 328.355 190.401 333.688 195.601Z" fill="black"/>
<path d="M285.021 193.202C279.021 194.669 275.821 196.669 271.155 202.002C263.155 211.202 259.821 219.735 252.355 250.669C244.355 284.002 242.621 297.202 242.488 325.335C242.355 349.069 242.621 352.135 245.421 361.202C248.355 370.402 249.421 372.002 260.088 382.535C266.488 388.935 276.755 399.869 283.021 407.202C294.088 420.002 299.155 424.002 303.955 424.002C305.288 423.869 304.355 423.069 301.688 421.869C296.888 419.869 288.355 412.402 288.355 410.402C288.355 409.335 281.955 401.202 264.088 379.602C260.621 375.335 257.421 370.535 257.021 368.935C256.755 367.335 255.421 361.202 254.088 355.335C249.955 336.135 251.421 296.535 257.821 259.335C260.088 245.869 266.888 223.869 271.688 214.002C277.155 202.535 282.088 197.735 291.288 194.535C297.955 192.269 298.088 192.135 293.688 192.135C291.155 192.269 287.288 192.669 285.021 193.202Z" fill="black"/>
<path d="M350.755 194.402C354.621 195.869 359.688 198.669 361.821 200.802C370.355 208.935 381.688 240.002 384.355 262.402C385.021 268.002 386.488 278.402 387.555 285.335C390.621 305.602 391.555 327.202 389.821 341.335C387.821 357.202 383.955 372.135 380.755 376.135C379.421 377.735 376.488 381.202 374.221 383.869C365.955 393.602 354.355 408.402 352.221 411.869C351.155 413.735 347.288 417.335 343.821 419.602C340.221 422.002 338.088 424.002 338.755 424.002C342.888 424.002 347.955 419.735 359.288 406.935C366.088 399.202 376.621 387.869 382.621 381.735C390.755 373.469 394.088 368.935 395.555 364.269C403.555 339.735 401.288 296.935 389.555 251.335C387.288 242.535 384.888 232.669 384.221 229.335C381.555 216.135 371.288 199.602 363.155 195.469C361.288 194.402 356.088 193.202 351.688 192.802L343.688 191.869L350.755 194.402Z" fill="black"/>
<path d="M512.488 251.334C512.355 252.801 514.755 265.867 517.688 280.401C523.288 308.001 525.555 320.801 537.022 388.667C540.888 411.334 544.088 428.801 544.222 427.334C544.488 420.401 524.088 302.401 515.688 263.334C514.088 255.201 512.622 249.867 512.488 251.334Z" fill="black"/>
<path d="M125.155 266.667C112.755 330.534 96.2214 428.134 96.488 436.267C96.7547 441.734 96.7547 441.334 105.021 390.667C112.355 344.801 116.088 324.134 123.155 287.601C126.088 272.267 128.355 258.534 128.088 256.934C127.821 255.334 126.621 259.734 125.155 266.667Z" fill="black"/>
<path d="M512.488 284.934C512.355 288.001 513.288 294.934 514.488 300.268C519.555 324.268 533.422 403.868 538.488 437.734C541.422 458.268 542.755 476.668 541.555 483.201C541.288 484.534 541.822 486.001 542.755 486.268C548.755 488.401 539.555 420.134 519.555 314.001C512.755 277.734 512.622 277.334 512.488 284.934Z" fill="black"/>
<path d="M235.421 380.268C236.755 383.868 253.688 406.668 255.155 406.668C255.821 406.668 251.821 400.535 246.221 392.935C234.888 377.868 234.221 376.935 235.421 380.268Z" fill="black"/>
<path d="M395.155 384.667C392.222 387.867 387.688 393.734 385.155 397.601C379.155 406.801 366.888 418.134 358.488 422.267C353.688 424.534 352.888 425.334 355.688 424.667C357.955 424.267 362.355 422.134 365.688 420.001C371.688 416.134 384.355 403.867 384.355 402.001C384.355 401.467 387.688 396.667 391.955 391.467C401.955 378.801 402.088 378.667 401.288 378.667C401.022 378.667 398.222 381.334 395.155 384.667Z" fill="black"/>
<path d="M397.021 391.6C385.021 408.4 374.888 418.534 365.688 423.067C361.155 425.2 359.821 426.267 362.221 425.734C365.155 425.2 365.821 425.334 365.021 426.667C364.355 427.867 364.488 428.134 365.555 427.467C366.355 426.934 366.755 426 366.355 425.334C366.088 424.8 367.555 423.6 369.688 422.667C375.421 420.267 385.955 409.6 396.488 395.334C406.088 382.4 408.621 378.667 407.421 378.667C406.755 378.667 402.088 384.534 397.021 391.6Z" fill="black"/>
<path d="M241.688 380.135C241.688 380.535 245.022 384.935 249.022 390.001C253.022 395.068 256.355 399.868 256.355 400.668C256.355 401.335 260.622 406.001 265.822 410.935C274.222 418.935 286.622 426.668 291.288 426.668C292.222 426.668 289.422 424.935 284.888 422.801C274.888 418.135 263.288 407.468 255.688 396.001C250.622 388.401 241.688 378.268 241.688 380.135Z" fill="black"/>
<path d="M251.288 384.401C253.155 386.001 257.688 390.935 261.155 395.335C273.822 411.335 290.488 425.468 296.222 425.201C297.422 425.201 296.222 424.268 293.688 423.068C288.222 420.668 275.022 408.401 263.822 395.335C255.422 385.335 251.155 381.468 249.022 381.335C248.355 381.335 249.288 382.668 251.288 384.401Z" fill="black"/>
<path d="M388.755 383.735C387.155 384.935 382.355 390.135 378.088 395.335C367.688 407.869 355.288 419.469 348.888 422.669C346.088 424.002 344.622 425.202 345.822 425.335C351.822 425.469 373.688 406.269 383.022 392.669C385.155 389.469 388.622 385.735 390.622 384.135C392.755 382.669 393.822 381.469 393.022 381.469C392.355 381.335 390.355 382.402 388.755 383.735Z" fill="black"/>
<path d="M223.955 386.134C223.555 386.534 224.488 388.134 225.955 389.601C227.555 391.201 228.221 393.067 227.688 394.401C227.288 395.601 227.288 396.134 227.821 395.601C228.888 394.534 232.355 397.067 232.355 398.934C232.355 399.734 231.421 399.467 230.088 398.534C228.088 396.801 228.088 396.934 229.821 399.601C230.888 401.467 231.955 402.001 232.488 401.201C233.155 400.134 233.688 400.134 234.221 401.201C234.755 402.001 234.755 403.334 234.355 404.001C233.821 404.801 234.221 405.201 235.155 405.067C236.088 404.801 236.888 405.334 237.021 406.267C237.021 407.067 237.421 408.267 237.955 408.801C238.488 409.201 238.755 408.534 238.488 407.201C237.821 403.867 225.021 385.201 223.955 386.134Z" fill="black"/>
<path d="M256.622 409.336C257.555 412.269 268.488 420.936 274.088 423.336C280.355 425.869 280.622 424.802 274.355 421.869C271.688 420.669 266.488 416.936 262.755 413.469C259.022 410.136 256.222 408.269 256.622 409.336Z" fill="black"/>
<path d="M376.888 424.801C374.488 426.668 374.488 426.801 377.422 425.334C379.022 424.534 380.355 423.601 380.355 423.334C380.355 422.268 379.688 422.534 376.888 424.801Z" fill="black"/>
<path d="M146.621 427.602C145.555 428.935 144.088 431.735 143.555 434.002C143.021 436.135 141.155 441.602 139.555 446.002C136.755 453.202 136.621 453.735 139.021 450.935C141.555 447.868 150.221 426.802 149.288 425.868C149.021 425.602 147.821 426.402 146.621 427.602Z" fill="black"/>
<path d="M493.022 428.001C495.155 435.335 501.955 450.535 503.688 452.001C504.888 453.068 504.488 450.668 502.355 445.468C500.622 441.068 498.888 435.601 498.355 433.468C497.955 431.335 496.355 428.535 494.755 427.201C492.088 424.668 491.955 424.668 493.022 428.001Z" fill="black"/>
<path d="M544.355 440.801C544.355 442.135 545.555 452.268 547.022 463.201C549.955 484.935 550.488 498.001 548.355 499.335C546.755 500.268 547.822 502.668 549.822 502.668C551.822 502.668 551.155 484.801 548.222 461.468C545.688 441.335 544.355 434.001 544.355 440.801Z" fill="black"/>
<path d="M93.9549 458.668C91.0216 481.468 89.8216 496.535 90.6216 499.735C91.4216 502.935 93.8216 503.068 94.7549 500.002C95.1549 499.068 94.7549 498.668 93.8216 499.202C91.6882 500.535 91.9549 488.935 94.4882 469.468C95.5549 460.668 96.3549 451.468 96.0882 449.068C95.8216 446.535 94.8882 450.802 93.9549 458.668Z" fill="black"/>
<path d="M105.288 478.268C100.222 496.001 97.4216 503.868 96.0882 503.601C95.1549 503.468 94.2216 504.535 93.9549 506.001C93.6882 507.468 92.7549 509.201 92.0882 510.001C91.0216 510.935 90.8882 510.535 91.5549 508.801C92.3549 506.668 92.0882 506.535 90.3549 508.001C88.6216 509.468 88.6216 510.001 89.9549 510.801C92.6216 512.535 93.4216 512.268 94.3549 509.335C94.8882 507.868 96.4882 505.201 98.2216 503.601C101.022 500.801 108.088 478.001 106.622 476.535C106.222 476.135 105.688 476.935 105.288 478.268Z" fill="black"/>
<path d="M535.155 478.001C535.288 483.867 542.355 503.067 544.488 503.334C546.088 503.601 546.488 502.801 545.955 500.267C545.422 497.201 545.155 497.067 544.355 499.201C543.822 500.934 542.488 498.267 540.355 490.534C536.888 478.134 535.022 473.601 535.155 478.001Z" fill="black"/>
<path d="M97.1547 491.335C96.7547 492.535 96.3547 494.802 96.4881 496.402C96.6214 498.535 97.0214 498.002 97.8214 494.802C99.1547 490.268 98.6214 487.468 97.1547 491.335Z" fill="black"/>
</svg>
