<svg width="640" height="640" viewBox="0 0 640 640" fill="none" xmlns="http://www.w3.org/2000/svg">
<path d="M154.533 137.601C149.467 144.001 140 161.867 140 164.801C140 165.467 142.533 161.201 145.467 155.334C152.667 141.201 158.4 133.601 163.333 132.134L167.333 130.934L163.733 130.801C160.8 130.667 158.933 132.134 154.533 137.601Z" fill="black"/>
<path d="M474.266 131.602C475.866 131.868 480 135.335 483.466 139.068C486.933 142.935 489.066 144.668 488.133 143.068C485.466 138.002 477.066 130.668 474.133 130.802C471.466 131.068 471.466 131.068 474.266 131.602Z" fill="black"/>
<path d="M163.334 135.468C155.734 139.201 145.734 157.201 138.267 180.668C132.267 199.334 126.667 221.068 126.8 225.334C126.8 227.201 129.2 220.001 132 209.334C138.8 183.334 145.334 164.801 151.467 154.134C154.4 149.201 157.2 144.134 157.867 142.668C160.8 137.068 171.467 134.134 177.467 137.334C178.8 138.134 180 138.401 180 138.001C180 136.934 171.334 133.334 169.067 133.334C168.134 133.334 165.6 134.268 163.334 135.468Z" fill="black"/>
<path d="M462.8 135.334C460.267 136.401 458.667 137.734 459.2 138.267C459.6 138.801 460.8 138.401 461.6 137.601C462.533 136.667 465.6 136.001 468.4 136.001C472.8 136.001 474.4 136.801 478.267 140.934C488.4 152.134 497.067 172.401 506.133 206.667C508.533 215.867 510.533 221.867 510.533 220.267C510.8 210.934 495.867 164.534 488.667 152.134C478.933 135.467 472.133 131.201 462.8 135.334Z" fill="black"/>
<path d="M170 141.867C161.867 145.467 155.867 155.2 146.933 179.334C138.267 202.267 130.933 232 124 271.334C122.533 280.134 120 293.6 118.533 301.334C109.6 349.467 98.3999 422.134 95.7332 449.467C94.1332 467.2 94.6666 472.134 97.8666 469.467C99.4666 468.134 99.4666 468.934 97.7332 474.267C94.3999 484.934 94.1332 486.134 95.7332 484.667C97.1999 483.2 100.4 474 102 466.667C102.933 462.4 102.8 462.134 100.667 464C98.3999 465.867 98.2666 465.2 99.0666 450C99.7332 434.267 102.533 412.534 108.133 378C112.133 353.067 122.533 294.267 124.8 283.6C125.867 278.534 126.667 272.667 126.667 270.4C126.667 265.334 134.667 230 140.667 208.534C149.2 178.534 158.4 156.8 165.867 149.067C171.6 143.2 176.667 141.867 183.2 144.534C185.867 145.6 187.733 145.867 187.2 145.2C186.267 143.467 178.267 140 175.733 140C174.8 140.134 172.267 140.934 170 141.867Z" fill="black"/>
<path d="M456.533 141.868C454.133 142.935 451.867 144.402 451.467 145.202C450.933 146.002 452.667 145.735 455.2 144.668C468.667 138.935 478 149.735 490.933 186.002C496.4 201.335 506.667 240.002 509.067 254.668C511.333 268.135 514.4 285.335 518.8 308.668C527.333 354.668 537.333 419.868 540 446.802C541.467 462.135 540.933 466.402 537.867 463.868C536.667 462.935 536 462.802 536 463.735C536 466.402 541.733 483.335 542.267 482.002C542.533 481.202 541.867 477.735 540.8 474.268C539.733 470.802 539.467 468.002 540 468.002C540.667 468.002 541.467 468.802 541.867 469.602C542.267 470.535 542.4 462.935 542.133 452.668C541.2 425.202 530 352.268 515.2 277.335C512.667 264.535 510.667 252.402 510.667 250.535C510.667 245.202 498 196.802 492.933 182.668C483.467 156.535 476.667 145.335 468.4 141.868C463.2 139.602 461.867 139.602 456.533 141.868Z" fill="black"/>
<path d="M181.6 150.267C176.666 151.2 166.4 162.533 162.4 171.333C159.2 178.667 149.733 207.733 144.933 225.333C139.066 246.4 128.4 296.667 126.8 310.667C126.133 316.133 122.8 336.8 119.466 356.667C108.933 419.2 106 445.2 109.2 451.067C110.4 453.467 110.133 456 107.466 464.667C105.6 470.4 104.4 475.467 104.666 475.733C106.933 478.133 115.333 448.4 113.066 445.733C110.533 442.533 114 411.333 122.133 363.333C124 352.267 126.133 338.533 126.666 332.667C129.866 302.133 150.933 212.667 162.133 182.533C170.133 160.933 183.2 149.2 193.466 154.667C194.933 155.467 196 155.6 196 154.8C196 153.867 185.866 148.933 184.933 149.467C184.8 149.6 183.2 150 181.6 150.267Z" fill="black"/>
<path d="M450 150.267C448.4 150.533 445.467 152.267 443.333 154.133L439.333 157.467L443.6 155.333C449.467 152.533 453.067 152.8 459.067 156.4C464.933 160 470.667 168.133 475.2 179.333C485.333 204.8 500.8 266.133 507.867 308C524.267 406.8 529.067 444.267 525.6 446.533C523.067 448 531.2 476 534.134 476C534.667 476 534.534 474.933 534 473.6C533.467 472.4 531.867 467.2 530.534 462C528.8 455.2 528.534 452.267 529.6 451.067C532.8 447.2 528.534 411.067 517.2 346C514.267 329.067 511.333 310.8 510.667 305.333C508 281.467 489.467 205.6 482 187.867C480.133 183.6 478.667 179.2 478.667 178C478.667 174.4 472 162.533 467.2 157.733C463.467 154 454.533 148.8 453.067 149.467C452.8 149.6 451.467 150 450 150.267Z" fill="black"/>
<path d="M193.333 160.934C188.933 162.534 180.4 173.467 175.067 184.134C169.333 195.6 158.667 226.4 158.667 231.467C158.667 233.067 157.2 240.267 155.333 247.467C146.667 282.4 138.933 320.534 131.467 365.334C127.733 387.334 126.533 399.067 126.133 415.334C125.6 434.534 125.2 437.867 121.733 448.267C119.6 454.667 118.533 459.334 119.467 458.534C121.6 456.8 126.267 444.534 127.2 438.134C127.6 435.334 129.2 431.6 130.667 430C132.8 427.734 133.067 426.667 131.867 426C129.6 424.534 131.067 398.8 134.667 376C140.8 337.467 146.267 309.467 160.933 241.334C164 226.8 174.933 195.334 180 186C190.4 166.8 195.867 162.4 205.867 165.067C213.2 166.934 213.333 166.267 206.267 162.8C200.533 160 197.2 159.6 193.333 160.934Z" fill="black"/>
<path d="M432.266 162.801C425.333 166.268 425.466 166.934 432.8 165.068C442.666 162.401 449.333 167.868 459.466 187.201C464.666 197.201 475.333 229.068 477.466 240.668C478.266 245.068 479.733 252.001 480.8 256.001C484.133 269.734 494.533 320.668 498.666 343.334C507.2 391.068 510.266 422.534 506.666 426.134C505.733 427.068 506.133 428.268 508 430.001C511.6 433.201 512.266 432.268 512.4 423.734C512.8 393.468 499.733 313.201 483.866 250.401C481.066 238.934 478.666 228.268 478.666 226.934C478.666 221.868 468.133 193.334 461.866 181.201C457.066 172.134 453.733 167.601 449.6 164.401C442.8 159.201 440 158.934 432.266 162.801Z" fill="black"/>
<path d="M205.733 176.267C200.133 180.267 191.867 191.201 190.533 196.534C190 198.801 187.333 206.401 184.8 213.334C177.333 233.201 163.2 287.334 159.867 309.334C159.067 314.801 156.933 328.001 155.2 338.667C150 370.001 148 385.334 148 396.401C148 410.801 150.533 414.934 156.267 409.734C159.467 406.801 159.333 409.334 155.867 416.401C153.333 421.201 153.333 421.734 155.333 420.001C157.867 417.867 162.533 408.534 162.667 405.467C162.667 404.001 162.267 404.001 160.667 405.334C155.6 409.601 153.6 397.867 156 377.334C156.8 369.601 158 357.601 158.8 350.667C160.933 328.534 174.133 267.334 183.333 236.667C186 227.867 189.2 217.067 190.533 212.667C194 200.934 199.2 191.467 206.667 183.734C213.067 177.067 213.2 176.934 220 177.601C226.267 178.267 226.533 178.134 223.867 176.267C218.8 172.801 210.533 172.801 205.733 176.267Z" fill="black"/>
<path d="M415.6 175.867L411.867 178.267L418.667 177.601L425.6 176.934L432.4 184.267C436.267 188.267 440.933 195.067 442.8 199.467C446.4 207.467 454.933 233.734 460 252.134C466.267 275.334 477.2 328.001 478.667 342.001C479.333 347.867 480.8 361.067 482 371.334C483.2 381.601 484 393.201 483.733 397.067C483.067 404.934 481.067 408.267 478.4 405.601C475.333 402.534 474.933 404.001 477.067 409.601C479.2 415.334 482.667 420.534 483.6 419.467C484 419.201 483.2 417.067 482.133 414.801C479.2 409.334 479.333 407.067 482.4 409.734C485.733 412.801 487.6 412.534 489.467 409.067C492 404.267 489.867 376.801 484.667 347.334C482 332.667 479.333 316.401 478.667 311.334C476.133 289.467 462 234.667 452.667 210.134C449.333 201.467 446.667 193.467 446.667 192.534C446.667 191.601 446.267 190.667 445.733 190.401C445.067 190.134 442.933 187.467 440.8 184.267C433.733 174.001 423.6 170.534 415.6 175.867Z" fill="black"/>
<path d="M226.8 187.601C220 191.067 215.333 197.734 208.533 213.467C202 228.667 190.666 265.867 190.666 272.401C190.666 274.801 189.733 280.001 188.666 284.001C185.733 295.201 179.066 330.667 176.666 348.667C173.866 368.934 174.4 386.667 177.733 390.401C180.133 392.934 180.133 393.334 177.866 396.534C174.266 402.267 176.666 402.001 181.333 396.267C183.6 393.334 186.933 390.534 188.4 390.001L191.333 389.201L188.4 388.001C184.8 386.534 182.666 379.467 182.666 368.401C182.666 358.934 185.733 333.201 188.666 318.801C189.733 313.467 190.666 306.934 190.666 304.401C190.666 298.267 197.333 269.601 204.266 246.001C210.4 224.801 221.333 200.001 226.933 194.001C230.266 190.534 231.466 190.001 238.666 190.001C245.6 190.001 246.266 189.867 243.6 188.534C237.866 185.467 231.6 185.067 226.8 187.601Z" fill="black"/>
<path d="M398.267 187.334C391.067 189.868 391.2 190.001 400 190.001C410.267 190.001 411.867 191.601 421.333 211.334C431.733 232.668 443.6 273.334 446.667 298.001C447.333 303.068 448.8 312.134 449.867 318.001C453.2 335.201 456 358.401 456 368.934C456 378.801 453.467 388.001 450.667 388.001C450 388.001 452.133 390.934 455.6 394.668C462.133 401.601 464.667 402.534 460.8 396.534C458.533 393.334 458.533 392.934 460.8 390.534C467.333 383.334 463.6 346.134 450 283.334C448.267 275.201 446.267 265.601 445.6 262.001C443.733 251.868 436.667 229.068 432 217.601C424 198.268 417.867 189.601 409.867 186.668C405.6 184.934 404.4 185.068 398.267 187.334Z" fill="black"/>
<path d="M245.2 200.934C238.933 206.534 228 227.867 224.8 240.667C208.667 305.467 202.533 347.734 206.667 367.334C208 373.867 209.333 376.267 213.467 380.134C216.267 382.667 219.867 387.867 221.467 391.467C223.067 395.067 226.667 401.467 229.467 405.734C232.267 409.867 234.267 414.134 233.867 415.067C233.6 416 236.8 420 240.933 424L248.667 431.334L241.467 423.734C237.467 419.467 234.533 415.734 234.933 415.334C235.6 414.534 254.133 432.134 253.733 433.334C253.6 433.734 255.067 434.134 256.933 434.267L260.267 434.4L256.533 432C245.867 425.334 229.2 404.534 222.267 389.6C220.8 386.134 219.2 382.934 218.933 382.267C218.667 381.734 219.067 381.334 219.867 381.334C220.667 381.334 222.133 383.334 223.2 385.6C229.067 399.334 252.4 428.134 261.2 432.534C268.267 436.134 271.067 436 264.533 432.4C255.2 427.334 241.733 412.4 231.467 395.867C226.667 388.267 222.933 381.867 223.2 381.734C224.8 380.134 228.933 384.534 235.733 395.067C248.533 415.067 265.867 433.334 272 433.334C272.933 433.334 270 430.934 265.467 427.867C261.067 424.934 257.333 422 257.333 421.467C257.333 420.934 255.2 418.134 252.667 415.2C250 412.4 243.867 403.867 238.933 396.4C233.6 388.267 228.533 382 226.533 381.067C221.467 378.8 217.6 372.267 215.867 363.2C213.733 352.4 215.2 326.4 219.2 302.667C220.933 292 222.8 280.267 223.333 276.667C224.933 264.8 235.733 229.867 240.667 220C243.333 214.8 247.867 207.867 250.933 204.534C255.6 199.467 257.067 198.667 261.867 198.667C265.867 198.667 266.8 198.267 265.333 197.334C264.267 196.667 260.533 196 257.067 196C251.6 196 249.867 196.667 245.2 200.934Z" fill="black"/>
<path d="M372.666 197.333C370.666 198.267 371.466 198.533 376.133 198.533C381.733 198.667 382.933 199.333 387.733 204.533C390.8 207.867 395.333 214.667 397.866 219.733C403.333 230.533 412.933 261.6 414.666 274.4C415.333 279.333 417.466 291.733 419.333 302C421.066 312.267 422.933 328.4 423.466 338C424.666 363.6 421.733 375.733 413.333 379.333C411.733 380 405.733 387.6 400 396C385.466 417.6 377.333 426.4 367.466 431.333C360.666 434.667 360.8 435.867 367.6 433.2C372.533 431.333 382.533 423.733 382.666 421.733C382.666 420.933 384.533 418.667 386.8 416.8C389.066 414.933 395.333 406.533 400.8 398.4C410.266 384.133 414.666 379.2 414.666 382.8C414.666 383.867 415.2 383.867 416.666 382.667C420 379.867 420.266 382 417.2 387.2C415.6 389.867 414.666 392.4 415.066 392.8C415.466 393.2 417.066 391.2 418.533 388.267C420 385.467 422.8 382 424.666 380.8C431.2 376.533 432.666 370.667 432.533 349.333C432.4 334.667 431.6 324.933 428.8 309.333C425.2 288.133 416.8 252 411.866 235.333C407.866 222.133 399.333 206.267 393.2 200.667C388.666 196.667 387.066 196 381.6 196.133C378.133 196.133 374.133 196.667 372.666 197.333Z" fill="black"/>
<path d="M306 200.802C303.867 201.868 300.667 204.135 298.934 205.735C295.067 209.335 286.667 226.002 286.667 230.002C286.667 231.735 285.467 238.935 284 246.002C277.867 275.602 275.2 315.202 277.467 343.602C278.534 357.202 279.734 364.268 286 391.335C288.534 402.135 299.2 423.068 304.8 428.002C310.534 433.068 313.734 433.335 308.934 428.268C300.8 419.735 292.267 394.002 288.667 366.935C286 346.535 286 289.335 288.667 266.135C292.667 231.602 298.134 212.802 306.534 203.868C312.134 198.135 312 197.602 306 200.802Z" fill="black"/>
<path d="M318.133 200.802C313.733 214.668 314 417.335 318.4 429.335L319.6 432.535L320.533 428.935C323.6 416.668 324.933 286.935 322.666 232.935C321.333 203.868 320.133 194.668 318.133 200.802Z" fill="black"/>
<path d="M332.133 203.868C343.467 215.868 349.867 246.401 351.333 296.668C352.533 338.534 350.533 371.468 345.467 391.201C341.067 408.668 335.067 422.668 329.733 428.268C325.6 432.668 327.467 433.201 332.533 429.201C339.333 423.868 347.6 408.668 351.467 394.001C352.667 389.601 354.533 382.934 355.6 379.334C359.733 364.001 361.6 345.868 361.6 319.334C361.6 289.734 359.6 269.868 353.467 240.401C349.067 218.534 344.8 209.601 336.267 203.068C328.267 197.068 326 197.601 332.133 203.868Z" fill="black"/>
<path d="M280.133 202.668C277.733 203.201 274.133 204.934 272.133 206.268C267.733 209.601 257.866 225.734 256.133 232.668C244.133 280.934 241.333 297.334 240.4 325.334C239.333 360.001 242.4 370.401 258.933 388.668C264.266 394.534 271.066 402.668 274 406.668C276.933 410.668 279.866 414.534 280.8 415.334C281.6 416.001 284.133 419.201 286.4 422.268C290.533 427.468 301.866 434.534 303.6 432.801C304 432.401 302.666 431.468 300.533 430.668C296 428.934 286.666 420.268 286.666 417.734C286.666 416.934 285.866 415.601 284.933 415.068C284 414.534 281.733 411.868 280 409.334C278.266 406.801 272.133 398.268 266.266 390.268C256 376.401 255.6 375.468 252.933 362.934C249.733 347.868 249.2 314.534 251.866 296.668C252.666 290.801 254 280.534 254.666 274.001C256.133 260.001 263.866 231.601 268.933 222.001C275.333 209.601 279.466 205.734 289.333 203.201L295.333 201.468L290 201.601C287.066 201.601 282.666 202.134 280.133 202.668Z" fill="black"/>
<path d="M350.933 203.467C358.533 205.734 364.667 211.734 369.6 221.6C373.867 230 382.667 259.734 382.667 265.734C382.667 268.134 383.6 274.934 384.533 280.934C388.4 302.267 389.867 329.6 388.267 345.067C386.533 359.867 382.667 376 379.733 380C378.8 381.334 373.333 388.8 367.6 396.8C349.2 422.4 344.533 427.867 338.933 430.267C336.4 431.334 334.667 432.534 335.067 432.934C336.667 434.4 348 427.6 351.467 422.934C353.6 420.267 356.133 417.2 357.333 416C358.4 414.934 362.4 409.734 366.267 404.667C370 399.467 375.333 393.2 377.867 390.8C380.533 388.267 382.667 385.734 382.667 385.2C382.667 384.8 384.667 382.267 387.067 379.6C390 376.667 392.8 371.467 394.8 365.067C397.733 356.134 398 353.2 398 330.667C397.867 310 397.333 302.667 394.267 285.2C392.267 273.734 389.067 259.2 387.2 252.8C385.467 246.534 383.333 238.267 382.667 234.534C381.333 227.6 372.933 211.734 368.267 207.467C364.533 204.134 356.4 201.467 350 201.467H344.667L350.933 203.467Z" fill="black"/>
<path d="M510.667 227.734C510.667 229.334 512.4 238.934 514.667 248.934C521.467 280.534 531.2 336.134 539.867 392.001C541.2 401.201 542.4 407.068 542.533 405.068C542.933 393.601 514.133 228.401 511.2 225.468C510.933 225.201 510.667 226.134 510.667 227.734Z" fill="black"/>
<path d="M122.933 244.668C110.933 302.801 94.4001 402.401 94.8001 414.268C94.9334 417.335 95.7334 414.668 96.8001 407.335C108 333.868 115.067 293.068 122.8 255.735C125.067 244.935 126.667 234.801 126.4 233.068C126.133 231.335 124.667 236.535 122.933 244.668Z" fill="black"/>
<path d="M242.533 393.334C247.467 400.001 252.4 407.068 253.467 409.068C258.667 419.068 281.333 436.268 287.067 434.268C287.867 434.001 286.267 432.934 283.333 432.001C274 429.068 260 416.801 254.4 406.934C250.133 399.201 238.667 384.001 236 382.668C234.667 381.868 237.6 386.801 242.533 393.334Z" fill="black"/>
<path d="M402.4 382.667C400 384.133 382.666 407.2 382.666 409.067C382.666 410.533 370.133 423.2 364.666 427.333C362.533 428.933 358.266 431.067 355.333 432C352.4 432.933 350.8 434 351.6 434.267C354.933 435.467 368 428 375.2 420.933C379.333 416.933 382.666 413.2 382.666 412.8C382.666 411.733 399.466 388.267 403.066 384.267C406 381.067 405.866 380.667 402.4 382.667Z" fill="black"/>
<path d="M210.667 383.867C210.667 384.667 211.2 385.6 212 386C212.8 386.4 212.933 385.867 212.533 384.8C211.6 382.4 210.667 382 210.667 383.867Z" fill="black"/>
<path d="M215.333 386.668C217.867 391.601 217.867 393.468 215.333 390.135C212.4 386.268 212.933 388.401 216.133 393.868C219.067 398.935 221.067 400.535 218.667 395.868C217.733 394.401 217.467 392.801 217.733 392.401C218.133 392.001 219.333 393.468 220.533 395.601C221.6 397.601 222.533 398.801 222.667 398.135C222.667 396.801 214.667 382.668 213.867 382.668C213.6 382.668 214.133 384.401 215.333 386.668Z" fill="black"/>
<path d="M246.4 387.467C249.467 390.134 253.067 394.134 254.133 396.401C261.733 410.934 285.333 433.467 292.8 433.201C294.533 433.201 294.133 432.667 291.467 431.734C284.533 429.201 272 417.067 261.733 402.934C254.267 392.667 244.667 382.667 242.267 382.667C241.467 382.667 243.2 384.934 246.4 387.467Z" fill="black"/>
<path d="M388.8 388.134C385.466 391.067 382.666 394.134 382.666 394.801C382.666 396.801 369.6 412.934 361.6 420.801C357.6 424.667 351.866 429.067 348.933 430.534C345.866 432.134 344.4 433.334 345.733 433.334C349.333 433.334 361.333 425.067 368 417.867C376 409.334 382.666 400.667 382.666 398.801C382.666 398.001 386 394.134 390 390.001C398.666 381.467 397.866 380.134 388.8 388.134Z" fill="black"/>
<path d="M419.467 390.935C416.8 395.602 414.667 398.268 414.667 396.802C414.667 395.335 412 398.402 408.133 404.135C402 413.335 390.933 425.202 382.133 431.735C380 433.335 378.933 434.668 379.733 434.668C380.533 434.668 381.6 434.002 382 433.335C382.4 432.535 383.467 432.002 384.267 432.002C385.067 432.002 384.933 432.802 383.867 434.135C380 438.802 391.6 430.535 397.867 424.135C401.467 420.402 404.933 417.735 405.467 418.135C406.533 418.802 408.4 416.402 408.8 413.868C409.2 411.468 413.467 405.335 414.8 405.335C415.333 405.335 416.533 404.002 417.467 402.535C418.533 400.535 418.533 400.002 417.467 400.535C415.333 401.868 415.733 399.602 418.133 396.535C419.867 394.402 420.133 394.402 419.467 396.268C418.533 399.602 419.6 399.202 421.467 395.868C422.533 393.868 422.533 393.335 421.467 393.868C419.333 395.202 419.6 394.002 422.667 388.002C426.933 379.602 424.667 381.735 419.467 390.935ZM416 402.935C416 403.602 415.467 403.868 414.8 403.602C413.2 403.202 406.4 413.202 407.333 414.668C407.733 415.335 407.333 416.268 406.533 416.802C405.467 417.335 405.333 417.202 405.867 416.268C408 412.935 405.2 415.068 396.933 423.335C392.133 428.135 387.733 432.002 386.933 432.002C386.267 432.002 390.4 427.202 396.133 421.335C401.867 415.602 408.133 408.002 410.133 404.668C412.667 400.135 414 398.935 414.8 400.268C415.467 401.202 416 402.402 416 402.935Z" fill="black"/>
<path d="M425.467 386.267C424.133 389.734 424.133 389.867 426 387.467C427.067 386 428 384.4 428 383.734C428 381.734 427.067 382.667 425.467 386.267Z" fill="black"/>
<path d="M406.667 396.8C397.867 411.334 383.067 427.334 374 432.4C367.6 436 370.533 436.134 377.333 432.534C386.533 427.867 416 391.2 414.4 386.534C414.133 385.734 410.667 390.4 406.667 396.8Z" fill="black"/>
<path d="M220.933 402.134C221.333 403.201 222 403.734 222.4 403.334C223.067 402.668 229.333 411.068 229.333 412.801C229.333 413.201 228.267 412.801 227.067 411.868C225.2 410.401 225.2 410.668 227.2 413.068C231.867 418.534 232.267 413.868 227.6 407.201C223.333 400.934 219.2 397.868 220.933 402.134Z" fill="black"/>
<path d="M542.8 418.667C542.8 421.2 543.6 429.6 544.8 437.333C545.866 445.067 547.066 458.133 547.333 466.533C548 484.267 549.333 488.133 549.333 471.867C549.2 460.667 543.066 409.867 542.8 418.667Z" fill="black"/>
<path d="M142.533 419.467C140.133 422.401 133.467 441.334 134.8 441.334C136.267 441.334 139.733 434.534 142.8 425.601C145.6 417.601 145.467 416.001 142.533 419.467Z" fill="black"/>
<path d="M493.333 417.734C493.333 421.467 502.133 441.334 503.733 441.334C505.6 441.334 498.133 420.267 495.733 418.801C494.4 418.001 493.333 417.467 493.333 417.734Z" fill="black"/>
<path d="M399.867 424.933L395.333 430L400.4 425.467C403.067 422.933 405.333 420.667 405.333 420.4C405.333 419.333 404.267 420.4 399.867 424.933Z" fill="black"/>
<path d="M92.2666 438.001C88.1333 471.868 87.7333 483.868 91.0666 481.734C92.2666 480.934 91.9999 483.468 89.8666 490.268C89.4666 491.601 89.9999 491.201 91.0666 489.334C92.1333 487.468 93.3333 483.868 93.8666 481.334C94.2666 478.801 94.2666 477.468 93.8666 478.401C92.3999 481.468 90.6666 478.534 90.6666 473.068C90.6666 470.001 91.5999 459.334 92.7999 449.201C93.8666 439.201 94.6666 429.201 94.3999 427.068C94.1333 425.068 93.1999 429.868 92.2666 438.001Z" fill="black"/>
<path d="M262.267 436.135C263.2 437.068 264.267 437.468 264.667 437.068C265.067 436.668 264.4 435.868 263.067 435.468C261.2 434.668 261.067 434.802 262.267 436.135Z" fill="black"/>
<path d="M279.734 435.6C280.667 436 281.867 435.867 282.267 435.467C282.8 435.067 282 434.667 280.534 434.8C279.067 434.8 278.667 435.2 279.734 435.6Z" fill="black"/>
<path d="M374.667 436.001C373.467 436.801 373.333 437.334 374.267 437.334C375.067 437.334 376.267 436.667 376.667 436.001C377.733 434.401 377.2 434.401 374.667 436.001Z" fill="black"/>
<path d="M511.2 439.2C512.267 444.8 518.4 459.467 519.333 458.534C520.267 457.467 514 437.467 512.133 435.734C510.667 434.267 510.533 434.934 511.2 439.2Z" fill="black"/>
<path d="M543.333 478C543.867 479.467 544.933 482.4 545.6 484.667C546.4 486.8 547.6 489.2 548.133 490C548.8 490.667 548.4 488.267 547.2 484.667C546 480.933 544.4 477.333 543.6 476.667C542.667 475.733 542.533 476.267 543.333 478Z" fill="black"/>
</svg>
