<svg width="640" height="640" viewBox="0 0 640 640" fill="none" xmlns="http://www.w3.org/2000/svg">
<path d="M157.066 126.267C157.866 126.533 159.466 126.533 160.4 126.267C161.2 125.867 160.533 125.6 158.666 125.6C156.8 125.6 156.133 125.867 157.066 126.267Z" fill="black"/>
<path d="M478.4 126.267C479.2 126.533 480.8 126.533 481.733 126.267C482.533 125.867 481.866 125.6 480 125.6C478.133 125.6 477.466 125.867 478.4 126.267Z" fill="black"/>
<path d="M146 132.934C141.6 139.067 129.867 164.934 131.067 166.134C131.333 166.534 132.667 163.867 134 160.401C138.267 148.934 145.467 135.467 149.733 130.934C152 128.667 153.2 126.667 152.267 126.667C151.467 126.667 148.667 129.467 146 132.934Z" fill="black"/>
<path d="M489.466 131.601C491.866 134.401 494.533 137.201 495.2 138.001C497.2 140.268 494.4 135.601 490.933 130.935C489.2 128.668 487.066 126.668 486.266 126.668C485.466 126.668 486.933 128.935 489.466 131.601Z" fill="black"/>
<path d="M155.2 130.534C150.266 133.601 144.266 142.801 138.533 156.001C133.733 167.334 126.666 190.935 126.8 195.201C126.8 196.668 127.733 194.935 128.8 191.335C137.2 163.201 144.4 145.734 151.466 137.468C156.133 131.868 163.066 128.668 166.666 130.668C170.4 132.668 171.733 132.268 168.8 130.001C165.2 127.334 160.133 127.468 155.2 130.534Z" fill="black"/>
<path d="M468.4 130.667C462.267 134.267 462.933 135.067 469.467 132.134C476.4 128.934 480.8 130.267 486.8 137.067C492.667 143.734 501.6 163.2 506.267 179.334C508.267 186.534 510.133 191.467 510.4 190.134C511.067 187.067 504.933 167.467 499.733 155.334C489.333 131.334 479.6 123.734 468.4 130.667Z" fill="black"/>
<path d="M163.2 136.401C155.2 140.934 146 157.467 138.133 181.334C130.8 204.001 129.2 211.201 115.2 285.334C106.667 331.334 94.6665 416.001 94.6665 431.467C94.6665 434.401 95.1998 437.334 95.9998 438.134C96.7998 438.934 96.7998 441.067 95.9998 444.001C94.1332 450.667 94.3998 451.867 96.9332 447.334C98.6665 444.134 99.0665 440.267 98.9332 429.334C98.3998 406.267 109.333 328.934 122.667 262.267C124.933 251.334 126.667 240.801 126.667 238.934C126.667 233.467 136.933 194.134 142.933 177.334C148.4 161.601 157.867 144.267 163.067 140.667C166.8 138.134 174.533 138.134 178.4 140.801C180 141.867 181.333 142.267 181.333 141.467C181.333 140.001 170.667 134.667 167.867 134.667C166.8 134.801 164.667 135.467 163.2 136.401Z" fill="black"/>
<path d="M464.666 136.533C459.866 138.667 454.8 142.533 456.666 142.533C457.466 142.533 459.2 141.733 460.533 140.667C463.6 138.4 471.066 138 474.666 140C478.133 141.867 488.533 157.867 492 166.533C500.266 187.467 507.466 214.533 512.666 243.333C513.866 249.867 516.266 263.067 518.133 272.667C532 344.933 542.933 426.133 540 433.467C538.933 436 538.933 438.533 540 442.533C540.8 445.467 541.6 448 541.866 448C543.066 448 542.533 414.667 541.333 404.267C534.933 350.8 521.2 269.867 508.533 210C500.8 173.733 485.066 140.267 473.866 136C469.733 134.4 469.6 134.4 464.666 136.533Z" fill="black"/>
<path d="M172.4 147.467C168.266 149.467 158.666 159.867 158.666 162.267C158.666 162.801 156 169.867 152.933 178.001C143.6 201.467 129.466 257.334 126.666 281.334C126 287.601 124.133 299.201 122.666 307.334C114.666 350.934 107.866 401.601 108 417.334C108.133 424.134 107.333 431.334 106.133 435.334C104 442.267 104 443.867 106.4 441.067C109.2 437.601 112.133 422.934 112.666 409.334C113.466 390.534 119.6 346.267 129.466 287.334C135.2 252.934 146.8 206.267 154.666 185.734C156.933 180.001 158.666 174.667 158.666 173.601C158.666 167.467 172 151.334 178.4 149.734C180.133 149.334 183.6 149.601 186.133 150.401C192 152.134 190.8 149.734 184.533 147.201C178.933 144.801 177.733 144.934 172.4 147.467Z" fill="black"/>
<path d="M452.4 148C449.2 149.334 446.667 151.067 446.667 151.867C446.667 152.534 448.267 152.267 450.4 151.2C457.6 147.467 463.467 149.467 471.733 158.534C474 161.067 476.4 164.667 477.067 166.534C477.867 168.4 480.267 175.067 482.667 181.334C493.067 208.934 507.733 269.467 510.667 296C511.2 301.467 513.6 316.8 515.867 330C522.133 367.334 525.467 392.8 526 407.867C526.533 422.534 528.4 432.8 531.6 439.067C534.4 444.534 534.933 442.934 532.667 435.6C531.6 432.134 530.533 421.6 530.133 412.267C529.467 394.8 524.533 356.934 517.333 316C515.067 303.2 512.667 288.4 511.867 283.334C505.6 242 491.2 187.334 481.333 168C479.867 165.2 478.667 162.134 478.667 161.2C478.667 158.4 470.667 149.6 466.133 147.467C460.4 144.8 459.333 144.8 452.4 148Z" fill="black"/>
<path d="M180.667 163.467C172.533 171.6 162.133 195.067 157.467 216C156.8 219.333 154.267 229.2 152 238C144.4 267.867 135.333 314.4 129.467 354C126.667 371.867 125.2 406.933 127.067 408.8C129.467 411.333 131.333 406.267 130.933 397.6C129.867 376.667 139.333 317.6 154.8 247.333C164.267 203.867 174.667 177.333 186 166.933C192.533 160.8 196.267 160 202.667 163.333C208 166.133 207.733 164.667 202.4 161.333C199.6 159.733 195.6 158.667 191.733 158.667C186.267 158.667 184.8 159.333 180.667 163.467Z" fill="black"/>
<path d="M436.4 161.334C430.933 164.667 430.667 166.134 436 163.334C442.4 160.001 446.133 160.801 452.667 166.801C463.467 176.801 473.6 201.734 482 239.334C490.533 277.334 492.267 285.601 495.467 302.667C504 348.534 508.4 381.334 507.867 396.001C507.467 405.601 508.267 409.334 510.533 409.334C516.267 409.334 508.933 343.067 496.667 282.667C492.4 262.267 485.6 233.334 480.933 216.001C479.867 212.001 478.267 205.601 477.467 202.001C475.2 192.267 463.333 168.801 457.867 163.334C453.867 159.334 452.4 158.667 446.933 158.667C443.067 158.667 439.067 159.734 436.4 161.334Z" fill="black"/>
<path d="M196.667 178C193.333 181.2 190.667 184.8 190.667 185.733C190.667 186.8 189.2 190.267 187.467 193.467C178 210.533 163.733 264.4 157.333 306.667C156.4 312.133 154.267 325.6 152.533 336.667C148.133 363.333 146.933 387.733 149.733 391.333C151.467 393.467 152.133 393.733 153.467 392.267C156.533 389.333 157.2 390.533 155.2 395.333C154.133 397.867 153.867 400 154.533 400C156.133 400 157.6 397.867 159.467 392.267C160.8 388.533 160.8 388 158.933 388.267C154.4 389.067 154 378.4 157.467 344.667C162.933 290.667 184.267 206.267 197.2 187.6C203.6 178.267 208.133 175.6 216.4 176.4L223.2 176.933L218.533 174.533C216 173.2 211.467 172.133 208.267 172C203.333 172 201.867 172.667 196.667 178Z" fill="black"/>
<path d="M420.667 174.133C418.533 175.2 416.533 176.267 416.4 176.533C416.133 176.667 419.2 176.667 423.2 176.267C430.267 175.733 430.533 175.867 436.267 181.467C443.067 188.4 444.8 191.733 451.867 211.333C460.667 235.467 473.733 288.667 477.2 315.333C481.6 347.733 482.667 356.4 483.467 366.933C484.667 381.733 483.467 388.533 479.867 387.6C477.733 387.067 477.467 387.467 478.133 390.4C479.2 394.933 482.267 400 484 400C484.8 400 484.533 398 483.467 395.333C481.333 390.267 481.467 390 485.333 392C494.267 396.8 491.6 363.467 476.533 280C468.267 234.133 450.4 183.733 439.333 175.333C434.4 171.467 426.667 170.933 420.667 174.133Z" fill="black"/>
<path d="M219.733 189.734C212.8 195.067 207.333 204.8 200.267 224.667C195.067 239.334 194 243.2 186.667 278.134C176 329.334 172 367.2 176.533 376.134C178.533 380 178.533 380.667 176.667 381.6C175.6 382.267 174.667 383.467 174.667 384.267C174.667 385.067 176.667 384.134 179.2 382.134C181.733 380.267 184.8 378.667 185.867 378.667C188.533 378.667 188.533 377.467 185.867 374.534C180.4 368.4 182 344.267 192.267 282.667C196.133 258.8 207.867 220.667 216 205.6C223.333 191.867 225.2 190.134 233.867 190.134C238 190 241.333 189.867 241.333 189.6C241.333 188.534 231.733 185.334 228.8 185.334C227.067 185.334 222.933 187.334 219.733 189.734Z" fill="black"/>
<path d="M400.8 187.733L395.733 190H403.866C411.333 190 412.4 190.4 415.333 194C418.133 197.333 425.866 212.267 430.666 223.333C440.933 247.067 455.2 322.933 455.2 354.4C455.333 371.2 455.2 372.4 452.4 374.667C449.333 377.067 449.6 378.667 453.066 378.667C454 378.667 456.4 379.867 458.266 381.333C460.133 382.8 462.4 384 463.2 384C464 384 463.6 383.067 462.4 382.133C460.133 380.533 460.133 380.133 462.133 376C466.666 366.933 463.066 331.867 452 278.667C445.066 245.067 440.133 227.333 433.466 212.133C426.933 196.667 423.6 192 417.2 188.267C411.066 184.8 407.733 184.667 400.8 187.733Z" fill="black"/>
<path d="M510.8 196.668C510.8 198.135 511.866 204.401 513.333 210.668C522.266 248.401 532.4 304.535 541.066 364.001C541.866 369.601 542.4 371.068 542.533 368.135C542.8 360.135 528.666 273.868 521.2 238.001C516.266 214.401 510.933 193.201 510.8 196.668Z" fill="black"/>
<path d="M247.333 197.868C237.066 202.402 227.2 221.202 221.333 247.335C220.533 250.935 217.866 262.668 215.333 273.335C208.933 301.468 206.133 321.068 206.133 340.668C206 360.268 206.533 363.468 211.466 369.202C213.333 371.468 214.533 373.335 214.133 373.335C213.6 373.335 214.8 375.868 216.8 378.802C218.666 381.868 221.333 386.935 222.8 390.268C230.8 408.802 251.733 432.535 263.733 436.535C267.466 437.868 271.733 438.535 272.933 438.268C274.666 437.868 274.266 437.602 272 437.468C264.933 437.068 255.333 431.068 246.133 421.202C237.2 411.468 222.666 388.935 222.666 384.802C222.666 383.602 222.133 382.668 221.6 382.668C220.666 382.668 216 374.402 216 372.802C216 372.535 217.2 372.535 218.666 372.935C220.133 373.335 221.866 375.602 222.666 378.002C223.466 380.535 224.533 382.668 225.066 382.935C225.6 383.202 229.466 389.068 233.733 396.135C248.533 420.802 263.066 434.535 276.8 436.535C280.533 437.202 279.733 436.668 273.333 434.535C266.266 432.268 263.333 430.268 256.8 423.602C252.533 419.068 245.066 409.335 240.266 402.002C235.466 394.668 229.6 385.602 227.2 382.002C222 374.402 221.733 373.068 225.066 374.402C228.8 375.735 234.4 382.802 245.866 400.268C251.6 408.935 258.666 418.535 261.466 421.868C266.4 427.468 276.4 433.468 284 435.202C285.866 435.735 283.6 434.268 278.933 432.135C273.333 429.468 267.866 425.335 262.533 419.735C258.266 415.202 254.666 410.935 254.666 410.402C254.666 408.802 236.933 383.068 232.4 377.868C230.4 375.602 227.466 373.335 226 372.802C221.866 371.602 217.466 364.002 215.866 355.202C214.133 346.002 215.066 321.202 217.866 303.335C218.933 296.668 220.533 286.802 221.333 281.335C228.933 232.135 245.466 197.335 260.4 199.602C263.2 200.002 264.266 199.735 263.333 198.935C260.933 196.535 251.6 196.002 247.333 197.868Z" fill="black"/>
<path d="M379.333 196.935C374.666 198.135 374.533 199.468 379.2 199.468C388.8 199.468 398.8 212.668 406.4 235.868C415.2 262.001 424 314.268 424 339.601C424 356.001 422 363.735 416.133 369.068C404.533 379.735 401.733 382.935 391.066 399.068C377.6 419.335 370.4 427.068 360.933 431.335C357.2 433.201 354.933 434.668 356 434.668C359.733 434.535 369.066 429.601 374.533 424.668C377.6 421.868 385.6 411.201 392.533 400.801C405.2 381.868 412 373.335 414.533 373.335C415.333 373.335 415.6 374.401 415.2 375.601C414.533 377.735 414.666 377.735 416.266 375.868C418 373.735 422.666 371.468 422.666 372.801C422.666 374.135 418.266 381.868 416.533 383.735C415.466 384.668 414.666 386.535 414.666 387.735C414.666 388.935 417.066 386.401 419.866 382.001C422.666 377.601 424.8 373.601 424.533 373.201C424.266 372.668 424.933 371.468 426.133 370.535C438 360.801 434.4 312.935 416.8 246.668C415.733 242.668 414.533 237.201 414.133 234.535C413.066 228.268 404 209.868 399.333 204.268C393.333 197.201 387.466 194.935 379.333 196.935Z" fill="black"/>
<path d="M124.267 206C117.333 237.867 111.6 266.667 108.133 286.667C101.067 328.534 94.6666 371.734 94.7999 377.6C94.9332 380.8 96.3999 373.734 98.1332 362C106.133 307.2 114.933 257.067 122.133 224.934C124.667 213.467 126.667 202.667 126.4 200.934C126.133 199.2 125.333 201.334 124.267 206Z" fill="black"/>
<path d="M303.2 202.934C298.4 206.268 295.466 209.734 291.733 216.668C288.933 221.734 286.666 227.468 286.666 229.334C286.666 231.201 285.466 238.134 284.133 244.668C278 272.801 275.333 309.201 277.333 338.001C280.133 379.868 292.4 418.401 306.133 429.201C311.2 433.201 313.066 432.668 308.933 428.268C300.4 419.334 291.066 389.734 288 361.601C286.933 351.868 286.533 333.601 287.066 307.201C287.6 272.134 288 265.068 291.066 248.001C296 220.134 300.933 207.468 309.066 201.468C314.933 197.068 310.133 198.268 303.2 202.934Z" fill="black"/>
<path d="M318.133 200.8C313.733 214.667 314 417.333 318.4 429.333L319.6 432.533L320.533 428.933C323.6 416.667 324.933 286.933 322.666 232.933C321.333 203.867 320.133 194.667 318.133 200.8Z" fill="black"/>
<path d="M331.866 203.867C339.6 211.6 344.133 225.2 348.8 254.667C350.533 265.733 350.933 278.667 350.933 316.667C350.933 360.533 350.8 365.867 348.133 379.067C343.066 404.267 336.933 420.533 329.6 428.267C327.466 430.667 326.8 432 328 432C333.066 432 345.2 414.267 349.066 401.333C357.466 372.8 359.733 361.467 361.333 337.333C364.133 297.2 356.533 236.667 346.266 216C342.933 209.467 340.4 206.267 335.466 202.933C326.933 197.2 325.466 197.467 331.866 203.867Z" fill="black"/>
<path d="M284.666 202.667C274.933 204.134 271.6 205.867 266.533 211.867C260.8 218.534 256.266 227.201 254.8 234.801C254.133 238.001 252.133 246.667 250.266 254.001C241.733 286.534 237.733 329.734 241.2 350.001C243.6 363.601 249.333 375.467 258.533 385.201C260.266 387.201 265.733 394.801 270.8 402.267C275.866 409.734 280.533 416.134 281.333 416.667C282.133 417.201 284.266 419.867 286 422.534C288.933 427.334 300.533 434.534 302.266 432.801C302.666 432.401 301.466 431.467 299.6 430.801C295.733 429.334 286.666 421.601 286.666 419.734C286.666 419.067 285.466 416.801 283.866 414.934C278 407.334 255.866 372.534 255.333 370.001C255.066 368.534 253.733 362.534 252.4 356.667C249.6 344.134 249.333 310.001 251.866 292.667C252.8 286.801 254 276.801 254.666 270.534C255.866 257.467 262.533 233.201 267.6 223.067C273.333 211.467 277.066 208.001 287.333 204.667C296.933 201.467 296.266 200.934 284.666 202.667Z" fill="black"/>
<path d="M346 202.534C347.466 203.201 351.733 204.801 355.333 206.134C360.666 208.267 362.933 210.134 366.933 216.001C374.533 227.067 380.933 248.401 384 272.667C384.933 279.201 386.266 288.801 386.933 294.001C387.733 299.067 388.266 313.467 388.266 326.001C388.266 345.867 387.866 350.267 385.066 361.467C381.6 374.534 380 378.401 376.933 381.601C376 382.534 370.8 390.134 365.6 398.401C360.266 406.801 354.8 414.801 353.333 416.401C351.866 417.867 350.666 419.867 350.666 420.667C350.666 422.801 345.6 427.201 340.266 430.001C337.733 431.201 336 432.534 336.4 432.934C336.8 433.201 339.866 432.134 343.066 430.401C349.2 427.201 356.533 419.067 366.666 404.001C369.866 399.201 376.133 390.534 380.666 384.667C385.2 378.801 390.133 371.601 391.6 368.667C402.8 346.534 400.533 298.667 385.333 241.334C383.2 232.934 380 223.601 378.533 220.667C374.266 212.801 366.666 205.467 361.333 204.134C354.4 202.267 342.8 201.201 346 202.534Z" fill="black"/>
<path d="M204 373.733C204 374.4 206.533 379.333 209.467 384.8C212.533 390.266 214.667 395.066 214.267 395.466C213.867 396 212 393.2 210.133 389.466C208.133 385.733 206.267 382.666 205.867 382.666C205.2 382.666 215.733 402.933 219.733 408.933C220.8 410.666 222.133 411.6 222.8 411.2C224 410.533 224.533 412.266 224.133 415.466C224 416.266 225.333 418 226.933 419.466C230 422 230 422 227.733 419.2C226.4 417.733 225.333 415.866 225.333 415.333C225.333 414.666 229.067 418 233.733 422.933C238.267 427.733 239.867 429.066 237.333 426.133C227.2 414.133 224 410 224 408.666C224 407.866 223.467 408.133 222.933 409.066C222.133 410.266 220.667 408.666 218.133 404C216 400.266 214.667 396.8 215.067 396.4C215.467 396 217.067 398.266 218.667 401.333C220.267 404.4 221.867 406.666 222.133 406.266C222.533 406 219.067 398.8 214.533 390.533C206.667 375.866 204 371.733 204 373.733Z" fill="black"/>
<path d="M212.8 382.267C220.4 396 222.667 399.467 222.667 397.6C222.667 395.333 210.267 373.467 208.933 373.333C208.267 373.333 210 377.333 212.8 382.267Z" fill="black"/>
<path d="M421.733 385.868C417.867 392.801 414.667 399.201 414.667 400.268C414.667 401.201 416.267 399.335 418.133 396.001C428 378.668 430.8 373.335 429.733 373.335C429.2 373.335 425.467 379.068 421.733 385.868Z" fill="black"/>
<path d="M432.933 374.266C426.933 384.666 414.666 408.4 414.933 408.8C415.333 409.066 419.866 401.466 425.2 391.866C430.533 382.266 434.666 374.133 434.266 373.866C433.866 373.466 433.333 373.6 432.933 374.266Z" fill="black"/>
<path d="M201.333 375.468C201.333 376.134 202.266 378.001 203.333 379.468C204.4 380.801 205.333 381.334 205.333 380.534C205.333 379.868 204.4 378.001 203.333 376.534C202.266 375.201 201.333 374.668 201.333 375.468Z" fill="black"/>
<path d="M434.8 378.267C433.466 381.734 433.466 381.867 435.333 379.467C436.4 378 437.333 376.4 437.333 375.734C437.333 373.734 436.4 374.667 434.8 378.267Z" fill="black"/>
<path d="M238 378.933C243.867 383.2 251.067 390.933 253.333 395.467C261.733 412.267 282.8 433.467 290.933 433.333C291.867 433.333 290.533 432.267 288 430.933C279.2 426.667 261.067 406 254.133 392.267C252 388.133 238 376 235.333 376C234.667 376 235.867 377.333 238 378.933Z" fill="black"/>
<path d="M394 382.4C389.6 385.867 385.066 390.533 384 392.667C376.933 406.4 359.2 426.933 350.666 431.067C348.133 432.267 346.8 433.333 347.733 433.333C354.933 433.467 373.466 415.867 382.4 400.4C388.266 390.533 393.733 384 400.666 378.933C402.933 377.333 404 376 403.333 376C402.533 376 398.266 378.8 394 382.4Z" fill="black"/>
<path d="M408.533 386.402C405.733 390.935 400.533 398.935 397.067 404.268C393.6 409.602 387.067 418.002 382.4 422.935C375.2 430.402 372.533 432.135 365.2 434.535C358.933 436.668 358.133 437.202 361.867 436.535C371.6 435.068 377.733 431.068 387.733 419.602C393.067 413.602 400.133 404.135 403.467 398.668C406.8 393.202 410.8 386.935 412.133 384.935C413.6 382.935 414.667 380.535 414.4 379.735C414.133 378.935 411.467 381.868 408.533 386.402Z" fill="black"/>
<path d="M542.8 383.334C542.8 385.468 543.866 397.201 545.333 409.334C548.4 434.534 548.8 447.334 546.533 445.868C545.066 445.068 545.866 449.201 547.866 452.934C550 456.934 549.2 427.334 546.666 405.601C543.733 381.334 542.933 376.401 542.8 383.334Z" fill="black"/>
<path d="M428.666 389.333C426.8 392.933 425.6 396 426 396C426.266 396 428.133 392.933 430 389.333C431.866 385.6 433.066 382.667 432.666 382.667C432.4 382.667 430.533 385.6 428.666 389.333Z" fill="black"/>
<path d="M91.5998 408.667C89.4664 427.734 88.9331 439.067 89.3331 451.334L89.4664 455.334L91.3331 452.001C93.5998 447.867 93.8664 444.801 91.7331 446.134C89.9998 447.201 90.9331 427.867 93.4664 408.534C94.2664 402.667 94.6664 395.467 94.3998 392.534C94.1331 389.734 92.9331 396.934 91.5998 408.667Z" fill="black"/>
<path d="M407.6 401.201C399.866 414.268 384.133 430.934 376 434.668C371.466 436.801 370.933 437.334 374 436.668C379.733 435.468 387.2 429.868 395.6 420.668C403.466 411.868 415.2 394.134 414.4 392.001C414.133 391.201 411.066 395.468 407.6 401.201Z" fill="black"/>
<path d="M422 401.334C420.8 403.467 420.266 405.334 420.533 405.334C420.933 405.334 422.133 403.467 423.333 401.334C424.533 399.067 425.066 397.334 424.8 397.334C424.4 397.334 423.2 399.067 422 401.334Z" fill="black"/>
<path d="M139.733 400.934C138.666 402.268 136.8 406.134 135.6 409.601C132.533 418.801 136.4 416.668 140 407.068C142.933 399.068 142.933 397.334 139.733 400.934Z" fill="black"/>
<path d="M496.667 401.601C498.267 407.335 501.733 414.668 502.933 414.668C504.267 414.668 504.267 414.401 502.533 407.468C501.733 404.401 500 401.068 498.4 400.135C496 398.668 495.867 398.801 496.667 401.601Z" fill="black"/>
<path d="M222.667 400.801C222.667 405.467 242.133 428.267 252 435.201C254.533 436.934 254.667 437.334 252.667 436.667C251.2 436.267 250.533 436.401 251.2 436.934C252.4 438.134 258.667 438.534 258.667 437.334C258.667 436.934 256.667 435.601 254.267 434.267C246.667 430.134 235.867 419.067 227.6 406.667C224.933 402.667 222.667 400.001 222.667 400.801Z" fill="black"/>
<path d="M410 408.135C403.067 418.802 391.6 430.402 384.4 434.268C382 435.602 380 437.068 380 437.602C380 440.002 393.733 429.868 400.667 422.402C408.8 413.602 415.467 404.402 414.4 403.335C414 402.935 412 405.068 410 408.135Z" fill="black"/>
<path d="M417.333 409.335C416.533 410.802 415.466 411.735 414.8 411.468C413.733 410.802 413.333 411.202 404.666 421.868C401.733 425.468 395.733 430.802 391.466 433.602C383.333 438.802 382.533 440.802 390.4 436.002C395.466 432.935 396.533 432.668 395.2 434.935C394.666 436.002 394.8 436.268 395.466 435.602C396.133 434.935 396.666 434.002 396.666 433.468C396.666 432.935 400.4 428.402 405.066 423.335C414.933 412.268 416.266 413.468 406.533 424.802L399.733 432.668L406.8 425.202C413.2 418.668 421.333 406.668 419.466 406.668C419.066 406.668 418.133 407.868 417.333 409.335Z" fill="black"/>
<path d="M123.067 413.601C122.4 414.535 121.067 418.001 120.133 421.201C119.2 424.268 118.133 427.868 117.733 429.201C117.067 431.068 117.2 431.201 119.2 429.335C120.8 427.735 126.667 414.535 126.667 412.401C126.667 411.335 124.133 412.268 123.067 413.601Z" fill="black"/>
<path d="M512 412.401C512 414.535 517.867 427.735 519.467 429.335C521.467 431.201 521.6 431.068 520.933 429.201C520.533 427.868 519.467 424.268 518.533 421.201C516.8 414.935 515.067 412.001 513.2 412.001C512.533 412.001 512 412.135 512 412.401Z" fill="black"/>
<path d="M229.333 423.201C229.333 423.468 230.4 424.535 231.733 425.468C233.733 427.201 233.866 427.068 232.133 424.935C230.4 422.801 229.333 422.135 229.333 423.201Z" fill="black"/>
<path d="M245.6 434.134C246.933 435.467 248.267 436.267 248.533 435.867C248.933 435.467 247.867 434.401 246.267 433.467C243.467 431.734 243.467 431.867 245.6 434.134Z" fill="black"/>
</svg>
