<svg width="640" height="640" viewBox="0 0 640 640" fill="none" xmlns="http://www.w3.org/2000/svg">
<path d="M147.334 119.999C142.267 121.999 135.2 131.466 130.934 141.599C128.534 147.199 126.667 152.666 126.667 153.599C126.8 154.533 128.667 150.533 131.067 144.666C133.467 138.799 136.267 132.666 137.334 131.199C140.667 126.533 147.2 121.599 152 120.266C155.867 119.199 156.134 118.933 153.334 118.933C151.467 118.799 148.8 119.333 147.334 119.999Z" fill="black"/>
<path d="M482 119.999C481.334 121.199 481.734 121.332 483.6 120.799C487.467 119.599 491.867 121.599 497.867 127.465C500.667 130.132 502.4 131.332 501.6 129.865C497.467 122.265 484.667 115.732 482 119.999Z" fill="black"/>
<path d="M148.933 125.199C136.933 130.799 130.266 147.866 116 209.999C108.133 244.266 94.5331 325.999 94.7998 338.266C94.7998 342.666 95.7331 339.066 97.4664 327.333C106.533 265.866 116.933 209.733 123.866 185.333C125.333 180.533 126.8 174.133 127.2 170.933C128.4 162.933 137.866 140.533 143.333 133.199C148 126.666 153.866 124.266 160.4 125.999C163.066 126.666 162.933 126.533 160 124.799C155.733 122.266 155.066 122.266 148.933 125.199Z" fill="black"/>
<path d="M478.533 124.399C476.8 125.733 477.6 125.999 483.067 126.133C489.067 126.133 490.267 126.666 493.6 130.799C497.2 135.066 501.333 142.933 507.867 157.999C510.533 163.999 510.8 164.133 510 159.999C509.6 157.466 506.267 149.199 502.667 141.733C496.533 129.066 495.467 127.866 490 125.333C483.333 122.266 481.467 122.133 478.533 124.399Z" fill="black"/>
<path d="M154.8 132.665C149.333 136.665 144.933 142.799 140 154.132C135.2 164.799 126.666 191.332 126.666 195.599C126.666 197.332 125.2 204.665 123.466 211.732C111.2 261.599 94.2665 373.465 94.9332 401.065C95.3332 417.199 97.7332 408.532 98.7998 387.332C100.4 355.332 109.6 293.732 120.933 238.665C123.6 225.865 126.133 211.999 126.8 207.999C128.666 194.799 138.666 164.132 144.933 151.999C153.2 136.265 161.466 130.399 169.466 134.665C173.066 136.665 172.666 135.199 168.8 132.665C163.466 129.065 159.466 129.065 154.8 132.665Z" fill="black"/>
<path d="M471.333 131.865C468.4 133.199 465.067 135.332 464 136.665C462.267 138.799 462.667 138.799 466.8 136.265C473.733 131.999 477.733 132.532 484 138.265C494.4 147.465 506.534 178.532 511.867 208.665C512.667 213.065 515.334 226.799 518 239.332C528.4 288.932 539.734 365.465 540.534 392.399C540.8 400.265 541.334 407.199 542 407.732C544 409.599 541.467 365.332 538.134 341.332C528.933 276.132 516.267 210.265 506.534 175.999C499.467 151.732 488.267 132.799 479.333 130.132C477.867 129.732 474.267 130.532 471.333 131.865Z" fill="black"/>
<path d="M164.267 144C161.867 145.466 159.467 147.733 158.934 149.066C158.4 150.4 156.134 154.666 153.734 158.666C145.867 172.4 130.4 223.466 127.334 246.133C126.934 249.733 123.867 268.266 120.667 287.333C112.134 337.333 109.067 361.333 108.8 378.266C108.8 386.533 108.267 393.333 107.867 393.333C107.334 393.333 106.134 396 104.934 399.333C102.534 406.933 105.067 406.8 108 399.2C109.067 396.4 110.534 393.2 111.067 392.266C111.734 391.333 112.4 384.8 112.667 377.6C114 347.2 128.534 255.466 138.267 217.333C147.334 181.6 157.2 157.2 166 149.6C171.334 144.8 175.467 144.266 181.734 147.6C185.867 149.6 185.867 149.6 184 147.333C181.734 144.666 174.667 141.333 171.067 141.333C169.734 141.333 166.667 142.533 164.267 144Z" fill="black"/>
<path d="M459.066 144.133C455.866 145.733 453.333 147.466 453.333 148.133C453.333 148.8 455.066 148.533 457.333 147.333C469.333 141.066 478.933 151.2 490.133 182.4C498.133 204.4 508.4 247.333 511.866 273.333C512.533 278.8 514.666 292.266 516.533 303.333C521.866 334.133 525.466 362 526 377.066C526.266 384.666 527.066 391.6 527.733 392.4C528.4 393.333 529.733 396.266 530.533 398.933C532 403.466 534.666 407.066 534.666 404.4C534.666 401.866 531.733 393.333 530.933 393.333C530.4 393.333 529.866 386.533 529.733 378.266C529.466 361.6 522.666 311.733 515.333 272.8C512.8 259.333 510.666 246.533 510.666 244.4C510.666 238.4 499.6 195.466 494 179.866C491.2 172.266 487.2 162.8 484.8 158.933C482.533 154.933 479.866 150.266 478.933 148.533C477.066 145.066 470.933 141.333 467.066 141.333C465.733 141.333 462.133 142.533 459.066 144.133Z" fill="black"/>
<path d="M177.867 158.533C169.2 163.867 163.6 175.2 154.934 205.333C140.8 254.8 129.067 316.8 126.667 355.067C125.2 377.6 125.734 383.333 128.934 382.133C130 381.733 131.067 381.333 131.2 381.333C131.334 381.333 131.2 377.333 130.934 372.4C129.6 353.067 141.467 278.533 152.934 234C154.8 226.667 156.934 218 157.6 214.667C160 202.933 163.067 193.867 168.134 182.933C177.067 163.6 184.934 156.4 193.734 159.733C199.6 162 199.867 160.533 194 158.133C187.467 155.333 182.934 155.467 177.867 158.533Z" fill="black"/>
<path d="M443.6 158.266C438.8 160.799 439.6 161.733 444.933 159.733C450.667 157.599 456.4 160.266 462 167.599C467.6 174.933 476.933 196.133 478.667 205.466C479.467 209.466 481.2 216.533 482.533 221.333C494.267 261.066 508.8 347.733 507.733 370.799C507.333 380.666 508 382.666 511.333 382.666C514.133 382.666 510.933 335.466 506.133 307.333C497.2 254.933 485.467 205.466 475.733 180.399C467.867 159.866 456 151.733 443.6 158.266Z" fill="black"/>
<path d="M510.8 167.732C510.667 169.465 512.134 176.132 514 182.665C521.067 207.998 530.934 258.398 539.2 311.998C540.934 323.332 542.4 330.798 542.534 328.532C542.8 319.732 530.134 243.998 522.667 210.665C517.734 188.132 510.934 163.598 510.8 167.732Z" fill="black"/>
<path d="M197.333 171.733C190.4 175.199 181.467 191.466 174.133 213.999C167.733 233.466 158.667 269.999 158.667 276.266C158.667 278.266 157.2 288.533 155.333 298.933C146.667 347.999 145.733 375.199 152.667 372.533C154.133 371.866 154.4 372.266 153.867 373.999C152.667 377.066 155.867 376.133 157.867 372.933C158.933 371.199 158.933 370.266 157.733 369.599C154.667 367.733 154.267 356.666 156.533 335.866C157.733 324.533 159.067 311.733 159.467 307.333C161.067 290.533 172.533 239.466 179.6 217.999C184.533 202.933 191.333 187.333 195.333 182.133C199.733 176.399 205.2 174.133 212.4 175.066L218 175.866L211.333 172.666C203.333 168.666 203.2 168.666 197.333 171.733Z" fill="black"/>
<path d="M430 170.932C427.866 171.732 424.8 173.199 423.333 174.266C420.933 175.866 421.333 175.999 426.8 175.199C431.066 174.666 434.133 174.932 437.066 176.532C441.466 178.799 446.666 185.199 446.666 188.399C446.666 189.599 447.2 190.666 447.733 190.932C449.2 191.466 456.266 208.799 460.4 222.132C467.333 243.999 478.666 295.866 478.666 305.332C478.666 307.999 479.466 315.866 480.533 322.799C484.8 351.199 484.8 369.332 480.666 369.332C478.133 369.332 478.133 371.332 480.8 373.866C483.466 376.666 485.866 376.532 484.8 373.866C484.266 372.266 484.533 371.866 486 372.532C492.8 375.066 492 349.199 483.866 303.332C482.533 295.199 480.666 283.866 479.866 277.999C475.6 247.199 462.133 201.466 452.266 184.799C444 171.066 438.8 167.732 430 170.932Z" fill="black"/>
<path d="M216.533 188.667C212.133 191.2 209.866 194.267 205.6 202.267C199.466 214.4 192.133 234.933 190.666 244.533C190.133 248.267 188 258.533 186.133 267.333C176.933 308.133 172.4 348.533 175.866 359.067C177.466 363.6 177.866 364 182.8 364H188L185.733 360.4C182.266 355.2 182.8 329.067 186.666 305.333C188.266 295.467 190 282.933 190.666 277.6C192.266 264.933 200.266 234.8 206 219.867C211.6 205.2 216.266 197.067 221.733 192.533C225.2 189.6 226.8 189.2 231.6 189.733C234.8 190 237.333 190.133 237.333 189.867C237.333 188.8 227.6 185.333 224.8 185.333C223.333 185.333 219.466 186.8 216.533 188.667Z" fill="black"/>
<path d="M405.733 187.333C403.333 188.399 401.333 189.333 401.333 189.599C401.333 189.866 404.266 189.999 407.866 189.999C413.333 189.999 415.2 190.666 418.533 193.866C429.066 203.866 442.4 242.799 448 279.999C448.933 285.466 450.8 297.199 452.133 305.999C453.6 314.799 455.066 329.199 455.466 337.999C456.133 352.266 456 354.533 453.6 359.066L450.933 364.133L455.733 363.733C463.333 363.066 464.266 359.999 463.466 339.333C462.8 322.399 457.733 289.599 452 264.666C450.533 257.999 448.666 249.333 447.866 245.333C445.466 232.933 438.666 213.199 433.066 202.266C428.8 193.999 426.533 191.199 422 188.666C415.733 184.933 411.866 184.666 405.733 187.333Z" fill="black"/>
<path d="M242 199.733C239.867 201.066 236.4 204.533 234.4 207.466C229.733 214.133 222.667 229.866 222.667 233.333C222.667 234.799 220.933 242.533 218.8 250.399C210.267 281.066 204.533 320.799 205.6 339.599C206.267 349.866 207.867 354.666 213.467 363.999C215.067 366.533 218.4 372.799 221.067 377.999C238.8 413.199 254.4 432.399 268.667 436.666C272.8 437.866 276.533 438.533 276.933 438.266C277.2 437.866 274.267 436.666 270.133 435.466C258.8 432.133 246.667 419.066 233.333 395.733C225.733 382.399 216 364.133 216 363.066C216 362.933 217.467 363.466 219.333 364.266C221.2 365.066 222.667 366.399 222.667 367.066C222.667 367.733 225.867 372.933 229.733 378.533C233.6 384.133 239.733 393.599 243.333 399.733C246.933 405.866 250.933 411.999 252.267 413.333C253.6 414.799 254.667 416.399 254.667 416.933C254.667 417.599 257.467 420.933 261.067 424.266C268 431.199 277.2 435.999 283.333 435.866C286.667 435.733 286.267 435.466 280.933 433.999C267.733 430.399 260.933 423.599 246.533 399.999C242 392.266 234.933 381.599 231.067 376.266C227.2 371.066 224.533 366.666 225.067 366.666C227.067 366.666 236.4 373.999 240.667 378.799C246.267 384.933 252.267 393.999 255.867 401.466C260.667 411.599 274.8 427.199 282.8 431.199C289.867 434.666 294.133 435.733 292.8 433.466C292.4 432.933 290.267 431.999 288 431.466C280.267 429.999 263.2 410.666 255.067 394.399C250.667 385.733 237.467 371.599 229.2 367.066C217.067 360.133 213.867 350.266 215.067 323.999C215.6 314.799 217.467 298.399 219.333 287.466C221.2 276.533 222.667 266.133 222.667 264.533C222.667 262.933 224.8 254.133 227.333 245.066C232.133 228.533 239.2 212.666 244.533 206.933C248.267 202.666 254.4 199.599 257.467 200.399C258.933 200.799 260 200.666 260 199.999C260 198.933 253.467 197.333 248.8 197.333C247.333 197.333 244.267 198.399 242 199.733Z" fill="black"/>
<path d="M380.4 198.666C378.667 199.333 377.334 200.266 377.334 200.533C377.334 200.933 378.267 200.933 379.334 200.533C382.4 199.333 389.867 202.399 393.6 206.399C403.2 216.533 411.867 241.999 418 277.999C426 325.466 426 350.266 417.867 359.866C416.134 361.999 412.134 365.333 408.934 367.066C400.267 372.266 387.467 386.266 382 396.666C373.067 413.333 362 426.133 352.4 430.666C349.067 432.266 346.667 433.866 347.2 434.266C347.6 434.666 351.2 433.333 355.334 431.333C363.867 427.199 377.734 412.133 382.667 401.599C389.867 386.399 402.4 372.399 413.734 366.799C418.267 364.533 422.134 362.933 422.267 363.199C422.8 363.733 415.067 378.533 405.067 396.133C393.467 416.799 379.467 432.266 370.267 434.933C362.667 437.066 360.934 438.799 368 437.199C378.134 434.933 379.734 433.733 393.734 417.599C399.2 411.199 405.734 400.666 414.667 383.466C419.067 374.933 423.867 366.133 425.334 363.733C431.067 354.399 432.4 349.733 433.067 338.666C434 319.333 427.334 275.599 418.667 245.866C416.534 238.266 414.667 231.066 414.667 229.866C414.667 226.799 407.067 210.666 403.2 205.599C397.467 198.133 388.4 195.466 380.4 198.666Z" fill="black"/>
<path d="M304.266 202.4C293.066 209.867 288.266 220 283.6 246C278.933 271.2 278.8 272.267 277.333 296C275.066 331.733 279.066 367.333 288.933 399.333C293.866 415.2 304.8 432 310.266 432C311.866 432 311.6 431.2 308.933 428.667C302 421.6 294.666 401.2 290 376C286.933 359.733 285.6 290.8 288 270.267C292.4 230.267 298.933 208.933 309.066 201.467C314.533 197.333 310.533 198.133 304.266 202.4Z" fill="black"/>
<path d="M318.134 200.8C313.734 214.667 314 417.333 318.4 429.333L319.6 432.533L320.534 428.933C323.6 416.667 324.934 286.933 322.667 232.933C321.334 203.867 320.134 194.667 318.134 200.8Z" fill="black"/>
<path d="M331.867 203.867C339.867 211.867 345.2 228.667 349.2 257.333C351.334 273.467 352.134 321.2 350.8 348.667C349.734 370.4 348.934 376.533 344.934 392C340.267 410.4 334.267 424.4 329.067 429.333C327.467 430.8 326.667 432 327.467 432C329.734 431.867 334.4 428.667 337.067 425.333C340.534 420.933 347.334 407.333 349.067 401.333C359.067 367.333 361.6 350.4 361.6 317.333C361.6 286.667 359.334 264.8 353.467 238.4C348.934 218 344.4 209.333 335.334 203.067C326.934 197.2 325.467 197.467 331.867 203.867Z" fill="black"/>
<path d="M283.334 203.866C277.467 205.066 270.801 207.333 268.667 208.933C263.734 212.399 256.001 225.066 254.667 231.733C254.134 234.399 252.134 242.533 250.267 249.599C243.334 275.866 240.801 294.666 240.801 321.999C240.667 344.933 240.934 348.133 243.734 355.999C245.334 360.799 248.534 367.333 250.667 370.666C252.801 373.999 254.667 377.333 254.667 378.133C254.667 378.933 255.867 380.666 257.467 381.999C258.934 383.466 263.734 390.399 268.001 397.599C272.401 404.799 278.267 413.733 281.334 417.466C284.267 421.199 286.667 424.666 286.667 425.199C286.667 426.799 299.867 433.599 301.601 433.066C302.534 432.666 300.401 431.199 297.067 429.599C292.001 427.066 289.601 424.399 283.067 414.266C278.667 407.599 272.801 398.133 270.134 393.333C267.334 388.533 263.467 381.866 261.467 378.533C257.201 371.599 255.734 367.733 252.401 353.333C245.734 324.799 254.001 248.666 266.401 224.133C272.134 212.666 276.667 208.666 287.734 205.333C292.934 203.733 297.334 202.133 297.334 201.866C297.334 201.066 295.067 201.333 283.334 203.866Z" fill="black"/>
<path d="M341.333 201.866C341.333 202.133 342.266 202.8 343.466 203.2C344.533 203.6 345.066 203.466 344.666 202.666C343.866 201.333 341.333 200.8 341.333 201.866Z" fill="black"/>
<path d="M348.667 203.866C350.133 204.666 354.133 206.399 357.6 207.866C367.867 212.132 375.333 225.866 380.4 249.332C385.333 271.732 388.4 299.199 388.533 321.332C388.667 340.399 388.267 345.066 385.467 355.999C382.667 367.332 377.2 380.932 374.8 382.666C374.267 383.066 370.667 389.066 366.667 395.999C358.8 409.999 349.733 423.732 346.667 426.399C345.6 427.332 342.533 429.066 340 430.266C337.467 431.466 336 432.666 336.933 432.932C339.733 433.866 348.8 428.266 352.667 423.199C354.8 420.399 357.6 417.066 358.8 415.866C360 414.666 364.667 407.466 369.333 399.866C374 392.266 378.8 384.799 380.133 383.199C381.6 381.732 382.667 379.999 382.667 379.466C382.667 378.932 384.533 375.866 386.667 372.532C388.933 369.332 392.4 362.666 394.4 357.732C397.867 348.932 397.867 347.866 397.867 322.666C397.867 292.932 395.067 272.532 387.2 245.199C384.667 236.399 382.667 228.399 382.667 227.466C382.667 224.132 372.133 209.466 368.4 207.599C365.067 205.866 362 205.199 350 203.332C346.8 202.799 346.533 202.932 348.667 203.866Z" fill="black"/>
<path d="M542.8 342.667C542.8 344.533 543.866 356.8 545.466 370C546.933 383.2 548 397.733 547.6 402.133C547.333 406.667 547.466 411.067 548 412C549.866 415.067 549.466 390.133 547.333 372C544.533 348.267 543.066 338.533 542.8 342.667Z" fill="black"/>
<path d="M92.2667 362.665C88.4 394.798 87.7334 414.398 90.8 412.532C91.4667 412.132 91.6 408.665 91.2 404.932C90.8 401.065 91.3334 388.398 92.6667 376.532C93.8667 364.798 94.6667 353.732 94.4 351.865C94.1334 350.132 93.2 354.932 92.2667 362.665Z" fill="black"/>
<path d="M192.8 365.333C195.2 375.199 219.333 419.333 222.4 419.333C222.933 419.333 226.666 422.799 230.666 427.199C234.666 431.466 239.2 435.466 240.666 436.266C242.133 436.933 240.666 435.199 237.333 432.266C233.866 429.333 229.466 424.399 227.333 421.333C225.2 418.266 223.2 416.399 222.933 417.199C222.666 418.133 220.933 416.799 219.066 414.399C215.066 409.066 202.266 383.999 203.066 383.066C203.466 382.799 207.2 389.066 211.466 397.199C215.6 405.333 220 412.799 221.2 413.733C222.4 414.666 221.733 412.799 219.733 409.333C214 399.333 197.333 365.733 197.333 364.133C197.333 363.333 196.8 362.666 196 362.666C195.333 362.666 196.266 366.133 198.133 370.266C203.733 382.666 203.2 384.266 197.333 372.666C194.4 366.799 192.266 363.466 192.8 365.333Z" fill="black"/>
<path d="M200 363.865C200 365.198 218.133 400.798 220.8 404.665C224.8 410.398 222.267 403.865 215.867 391.998C212.133 385.065 207.467 375.598 205.333 370.932C201.867 363.332 200 360.932 200 363.865Z" fill="black"/>
<path d="M212.667 376.933C220.4 391.599 222.667 395.066 222.667 392.399C222.667 389.733 207.867 362.666 206.4 362.666C205.733 362.666 208.533 369.066 212.667 376.933Z" fill="black"/>
<path d="M422.8 377.999C415.2 392.265 412.133 400.265 416.533 393.865C420.933 387.599 433.466 362.665 432.266 362.665C431.466 362.665 427.2 369.599 422.8 377.999Z" fill="black"/>
<path d="M434.133 369.466C432.4 373.466 427.333 383.466 422.8 391.733C415.067 406 411.467 415.2 417.467 405.466C423.733 395.2 439.067 364 438.267 363.2C437.733 362.666 435.867 365.466 434.133 369.466Z" fill="black"/>
<path d="M432 384.132C426.133 395.865 419.733 407.999 417.733 411.065C414.933 415.465 414.8 416.132 416.933 414.265C418.4 412.932 423.066 405.332 427.333 397.199C431.466 389.065 435.2 382.799 435.6 383.199C436.533 384.132 423.066 409.865 418.533 415.465C416.4 418.132 414.666 419.599 414.666 418.665C414.666 417.865 412.266 420.132 409.2 423.999C406.266 427.732 400.133 433.332 395.6 436.265C391.066 439.332 388.533 441.199 390 440.665C391.466 440.132 394 439.599 395.6 439.465C397.2 439.332 398.933 438.799 399.466 438.265C400.133 437.732 399.466 437.599 398 438.132C396.133 438.665 396.533 437.865 399.333 435.465C404.266 431.332 406.666 430.932 403.2 434.932L400.666 437.865L404.933 434.799C407.333 433.199 410.533 429.999 412.133 427.599L415.066 423.332L410.266 427.865C404 433.732 403.866 431.999 410 425.199C412.533 422.265 414.666 420.665 414.666 421.599C414.666 422.399 416.933 419.865 419.866 415.865C425.6 407.865 444.666 370.932 443.733 369.865C443.333 369.599 441.733 372.265 440.133 375.999C438.533 379.599 436.933 382.665 436.533 382.665C435.333 382.665 436.533 379.199 440.533 370.265C447.066 355.732 442.8 362.799 432 384.132Z" fill="black"/>
<path d="M444.8 364.666C443.6 368.133 443.867 368.933 445.467 366.266C446.267 364.933 446.667 363.466 446.267 363.2C446 362.8 445.334 363.466 444.8 364.666Z" fill="black"/>
<path d="M407.066 376.933C403.466 381.867 396.933 391.733 392.8 398.667C377.733 423.467 371.066 430.267 357.733 434.133L351.333 436L357.066 435.333C370.266 433.733 379.866 424.933 394.266 401.333C397.6 395.867 403.733 386.4 407.733 380.4C411.866 374.267 414.8 369.067 414.4 368.667C414 368.267 410.666 372 407.066 376.933Z" fill="black"/>
<path d="M134.667 381.599C133.334 383.999 132.4 386.266 132.8 386.666C133.734 387.466 140 380.399 140 378.532C140 375.866 137.2 377.466 134.667 381.599Z" fill="black"/>
<path d="M498.667 379.065C498.667 381.331 503.734 386.131 504.8 384.931C505.867 383.865 501.734 377.331 500 377.331C499.2 377.331 498.667 378.131 498.667 379.065Z" fill="black"/>
<path d="M121.866 385.067C121.066 385.6 119.733 388 118.933 390.533C116.933 396 116.933 396 118.8 396C120.266 396 124.4 387.2 123.733 385.2C123.466 384.667 122.666 384.533 121.866 385.067Z" fill="black"/>
<path d="M514.667 385.467C514.667 388.267 518.667 396 520.134 396C520.934 396 521.2 395.067 520.8 393.867C520.4 392.667 519.6 390.4 519.2 388.667C518.4 385.6 514.667 382.933 514.667 385.467Z" fill="black"/>
<path d="M222.667 396.133C222.667 397.866 231.334 413.333 233.2 414.666C233.6 415.066 236.667 418.533 239.867 422.399C246.134 430.133 257.734 438.666 261.734 438.666C263.2 438.666 263.734 439.199 263.2 440.266C262.667 441.199 262.8 441.333 263.734 440.799C266.134 439.333 265.6 437.333 262.934 437.333C259.6 437.333 248.934 430.133 244.4 424.799C242.4 422.399 239.2 418.666 237.334 416.533C235.6 414.399 231.734 408.799 228.934 403.999C222.667 393.733 222.667 393.733 222.667 396.133Z" fill="black"/>
<path d="M409.734 404.265C407.334 408.265 404.8 412.398 403.734 413.465C402.8 414.532 399.734 418.132 396.934 421.598C391.467 428.398 382 435.598 376.267 437.332L372.667 438.398L376 438.532C380.667 438.665 391.867 430.798 398.8 422.398C402 418.532 405.067 415.065 405.467 414.665C407.6 412.932 414.8 399.865 414.4 398.398C414.134 397.598 412 400.132 409.734 404.265Z" fill="black"/>
<path d="M222.667 409.199C222.667 412.266 238.934 430.933 245.2 434.799C248.534 436.933 251.734 438.666 252.534 438.666C253.2 438.666 251.2 436.933 247.867 434.933C241.6 430.933 232 420.666 224.934 410.666C223.734 408.933 222.667 408.133 222.667 409.199Z" fill="black"/>
<path d="M409.866 415.732C401.333 426.666 394 433.466 387.066 436.799C381.066 439.732 380.133 440.666 382 441.732C383.2 442.399 384.533 442.532 384.933 442.132C385.466 441.732 384.933 441.332 383.866 441.332C382.8 441.332 385.333 439.466 389.333 437.199C393.333 435.066 398 431.866 399.733 430.266C404.133 426.266 415.066 411.999 414.4 411.199C414 410.932 412 412.932 409.866 415.732Z" fill="black"/>
<path d="M224.667 425.333C226 426.8 227.333 428 227.733 428C228.133 428 227.333 426.8 226 425.333C224.667 423.867 223.333 422.667 222.933 422.667C222.533 422.667 223.333 423.867 224.667 425.333Z" fill="black"/>
<path d="M244 437.865C244 438.265 245.2 439.198 246.667 439.998C248.133 440.798 249.333 441.065 249.333 440.798C249.333 440.398 248.133 439.465 246.667 438.665C245.2 437.865 244 437.598 244 437.865Z" fill="black"/>
<path d="M255.334 439.999C255.734 440.665 257.2 441.332 258.4 441.332C260.4 441.332 260.4 441.065 258.667 439.999C256 438.265 254.267 438.265 255.334 439.999Z" fill="black"/>
<path d="M267.734 439.598C268.667 439.998 269.867 439.865 270.267 439.465C270.8 439.065 270 438.665 268.534 438.798C267.067 438.798 266.667 439.198 267.734 439.598Z" fill="black"/>
<path d="M369.067 439.598C370 439.998 371.2 439.865 371.6 439.465C372.133 439.065 371.333 438.665 369.867 438.798C368.4 438.798 368 439.198 369.067 439.598Z" fill="black"/>
</svg>
