<svg width="640" height="640" viewBox="0 0 640 640" fill="none" xmlns="http://www.w3.org/2000/svg">
<path d="M137.333 115.601C133.333 118.801 126.666 128.135 126.666 130.135C126.666 130.668 129.066 127.735 131.999 123.735C137.466 116.001 142.533 113.068 148.266 114.135C151.066 114.668 151.066 114.668 148.666 113.468C144.266 111.335 141.733 111.868 137.333 115.601Z" fill="black"/>
<path d="M488.533 114.001C486.133 115.867 486.266 115.867 489.733 114.667C495.066 112.801 501.733 115.867 506.133 122.534C510.266 128.934 511.6 129.734 508.8 124.134C506 118.801 497.866 112.001 494.266 112.001C492.533 112.001 490 112.934 488.533 114.001Z" fill="black"/>
<path d="M137.333 122.801C131.333 128.935 126.666 137.335 126.8 142.001C126.8 143.468 128.533 141.201 130.8 136.668C135.733 126.935 139.333 122.935 145.066 120.535C148.8 118.935 150 118.935 154.4 120.668C158.933 122.668 159.2 122.668 157.2 120.535C155.866 119.335 152.266 118.001 148.933 117.735C143.333 117.068 142.666 117.335 137.333 122.801Z" fill="black"/>
<path d="M481.733 120.667L478 124.134L483.6 121.334C488.667 118.8 489.467 118.667 493.6 120.4C499.2 122.8 506.133 130.8 508.533 138C520.8 173.6 529.2 209.467 537.333 260C541.867 288.134 542.4 290.667 542.533 285.867C542.8 277.334 531.2 211.734 524.533 184.667C520.8 169.2 511.2 138.667 508.4 132.4C507.2 130.134 504 125.734 501.2 122.8C496.8 118.267 495.067 117.334 490.667 117.334C486.933 117.334 484.4 118.267 481.733 120.667Z" fill="black"/>
<path d="M149.6 126.8C146.533 127.734 144 130.134 140.667 135.067C135.6 142.667 126.667 163.734 126.667 168C126.667 169.467 124.8 177.2 122.667 185.2C111.733 224.534 96.7999 315.467 95.3332 351.334C94.7999 363.734 94.9332 365.467 96.5332 363.334C97.5999 361.6 98.5332 354.667 99.0666 344.667C100.667 313.334 112.133 243.2 124.133 192C130.933 162.4 131.467 161.067 140.4 142.934C143.867 135.867 152.267 128 156.4 128C158 128 160.8 128.934 162.4 130.134C164.133 131.334 165.867 132 166.267 131.6C167.2 130.534 161.333 127.067 157.333 126.267C155.467 126 152 126.134 149.6 126.8Z" fill="black"/>
<path d="M477.866 127.201C475.466 128.267 473.199 129.734 472.799 130.534C471.466 132.534 473.466 132.267 476.533 130.001C483.599 124.667 492.933 131.601 501.066 148.401C506.933 160.534 508.266 165.067 515.199 194.001C526.799 243.067 539.066 319.067 540.533 350.401C540.799 356.534 541.466 361.867 541.999 362.401C542.533 362.934 542.666 354.934 542.266 344.667C540.533 299.067 519.199 184.934 506.399 152.001C500.399 136.801 494.533 128.401 488.399 126.801C482.266 125.067 482.933 125.067 477.866 127.201Z" fill="black"/>
<path d="M122.267 143.334C117.467 157.601 117.867 159.467 122.667 146.001C124.8 140.134 126.4 134.667 126.133 134.001C126 133.201 124.133 137.467 122.267 143.334Z" fill="black"/>
<path d="M157.467 140.801C147.467 149.201 134.933 179.601 128.933 210.001C117.467 267.334 108 329.867 108 348.134C108 356.001 108.4 357.334 110.4 357.334C112.4 357.334 112.667 355.734 112.933 344.934C113.2 331.334 116.933 301.601 122.133 272.001C124 261.334 126 248.401 126.533 243.334C128 230.401 136.533 196.001 142.133 179.601C146.933 166.001 152.267 155.067 158.4 147.067C162.667 141.201 168.933 140.001 175.333 143.867C181.733 147.601 181.2 146.267 174.4 141.334C167.733 136.401 162.8 136.267 157.467 140.801Z" fill="black"/>
<path d="M467.333 139.201C465.2 140.134 462.133 142.267 460.667 144.001L458 146.934L463.067 144.001C472.533 138.401 478.267 141.867 487.867 158.934C496 173.334 508.133 215.601 511.733 242.667C512.533 248.134 514.4 259.201 515.867 267.334C520.933 294.001 525.6 331.067 525.867 344.267C526 356.134 526.267 357.334 528.533 357.334C530.933 357.334 531.067 356.534 530.267 342.934C528.933 321.067 521.467 270.667 514.667 238.001C513.067 230.667 511.333 220.801 510.667 216.001C509.333 206.267 503.333 184.267 498 169.601C491.467 151.467 480.8 137.201 473.867 137.334C472.533 137.467 469.6 138.267 467.333 139.201Z" fill="black"/>
<path d="M122.266 155.333C112.666 184.267 96.7993 264.8 95.1993 292L94.666 302L96.7993 289.333C107.866 219.867 116.399 178.667 124.133 157.067C125.733 152.933 126.666 148.4 126.399 147.067C126.133 145.733 124.266 149.333 122.266 155.333Z" fill="black"/>
<path d="M454.133 154C451.2 155.067 448 156.8 446.8 158C444.8 160 444.933 160 448.666 158.667C454.666 156.4 462 158.267 466.266 163.2C473.6 171.6 481.333 192.533 489.866 227.333C499.733 267.2 508.4 322.267 507.866 342C507.6 350.667 508 352.8 509.6 353.067C512.933 353.733 513.2 348 511.333 322.8C507.333 270.667 490.4 195.867 475.866 165.867C471.066 156.133 462.133 151.333 454.133 154Z" fill="black"/>
<path d="M170.533 156.668C165.866 160.135 158.666 171.068 158.666 174.801C158.666 175.868 157.066 180.668 155.199 185.468C143.866 214.001 128.933 288.001 126.666 327.335C125.199 349.868 125.599 353.735 128.933 353.068C130.666 352.801 131.066 350.801 130.799 342.668C130.266 323.201 140.399 260.535 149.999 223.735C158.666 190.401 159.999 186.001 164.799 175.735C171.333 161.868 175.333 158.268 183.999 158.135C190.666 158.001 190.799 158.001 187.866 155.601C183.733 152.268 175.999 152.668 170.533 156.668Z" fill="black"/>
<path d="M189.999 172.135C176.799 183.868 164.266 220.268 155.999 272.001C154.399 281.868 152.266 295.335 151.199 302.001C148.799 316.935 147.333 342.401 148.533 347.201C149.199 350.001 150.133 350.668 153.466 350.668C156.933 350.668 157.466 350.268 156.666 348.268C154.533 343.068 154.533 333.868 156.533 313.868C159.733 283.335 160.933 275.201 166.266 251.335C174.399 213.868 186.399 183.335 195.599 176.001C199.333 173.068 205.333 172.535 209.599 174.801C211.733 175.868 212.133 175.868 211.333 174.668C210.133 172.668 200.133 168.135 197.066 168.001C195.733 168.001 192.666 169.868 189.999 172.135Z" fill="black"/>
<path d="M433.067 170.668C430.4 172.135 427.733 174.001 427.2 174.801C426.533 175.868 427.067 175.868 429.067 174.801C432.933 172.668 438.933 172.935 442.4 175.468C447.733 179.068 457.2 197.335 462.667 214.268C469.2 234.801 476.933 268.801 478.667 285.735C479.333 292.935 480.667 303.068 481.467 308.401C483.333 320.001 483.733 345.068 482.133 348.268C481.2 350.268 481.6 350.668 484.267 350.668C486 350.668 488.133 350.001 489.067 349.068C493.467 344.668 488.267 299.068 476.533 239.735C470.667 209.868 458.8 181.068 448.667 172.135C443.2 167.335 440 167.068 433.067 170.668Z" fill="black"/>
<path d="M211.599 188.933C208.933 190.8 205.199 194.933 203.466 197.866C198.799 206 190.666 227.466 190.666 231.6C190.666 233.733 189.199 240.666 187.466 247.333C180.799 272.266 174.666 312.266 174.666 330.933C174.666 342.933 176.133 347.6 180.399 349.2C182.666 350.133 184.533 352.8 186.666 358.533C188.266 362.933 190.133 366.266 190.666 366C191.333 365.6 192.266 366.666 192.799 368.266C196.666 381.2 222.666 428.666 222.666 423.066C222.666 422.4 220.799 419.2 218.666 416.133C213.999 409.866 201.999 386 195.333 370.133C192.933 364.266 190.799 360.533 190.533 361.733C190.133 363.066 188.799 360.933 187.066 356.666C184.133 349.066 185.466 347.733 188.799 355.2C189.999 358.133 190.533 358.533 190.666 356.8C190.666 355.333 189.066 351.866 187.199 349.066C181.199 340.4 181.333 323.2 187.999 280.666C193.599 245.6 200.533 220.8 209.466 203.866C215.333 193.066 218.933 190 226.133 190C229.333 190 231.999 189.866 231.999 189.6C231.999 188.666 222.533 185.333 219.733 185.333C217.999 185.333 214.399 186.933 211.599 188.933Z" fill="black"/>
<path d="M410.399 187.468C408.266 188.535 406.666 189.602 406.666 189.868C406.666 190.002 409.333 190.268 412.666 190.268C419.999 190.268 423.333 193.068 429.199 203.868C438.133 220.802 443.599 240.135 449.866 277.335C456.799 317.868 457.599 340.668 452.399 347.735C449.199 352.135 445.999 359.868 447.066 360.802C447.466 361.202 448.399 359.468 449.333 356.802C450.133 354.268 451.599 351.468 452.666 350.668C453.733 349.735 453.199 352.535 451.066 358.002C449.066 362.802 447.066 366.135 446.666 365.335C446.133 364.535 444.666 366.802 443.333 370.268C439.066 381.335 424.266 410.268 419.199 417.335C416.533 421.068 414.666 424.402 414.933 424.668C417.066 426.802 445.333 375.068 445.333 368.935C445.333 367.735 445.599 367.735 446.533 369.068C447.199 370.268 448.799 367.468 451.199 360.802C453.999 353.202 455.866 350.268 458.399 349.068C460.533 348.002 462.266 345.602 463.066 342.668C466.266 330.802 460.666 285.868 451.333 247.868C448.799 237.602 446.666 228.135 446.666 226.802C446.666 223.868 438.399 203.335 434.666 197.068C431.199 190.935 422.933 185.335 417.866 185.335C415.733 185.468 412.399 186.402 410.399 187.468Z" fill="black"/>
<path d="M236.4 203.201C231.333 207.734 223.467 221.601 222.267 228.001C221.867 229.867 219.467 239.467 216.933 249.334C207.067 287.334 202.8 326.801 207.2 341.734C208.4 346.001 210.533 350.134 212 351.067C213.467 351.867 214.667 353.201 214.667 353.867C214.667 354.534 215.6 356.134 216.533 357.201C217.6 358.401 221.067 364.134 224.133 370.001C227.067 375.867 230.4 381.601 231.2 382.667C232.133 383.734 236 390.534 240 397.601C243.867 404.667 248.133 411.734 249.467 413.201C250.8 414.667 253.067 417.867 254.4 420.267C258 426.667 268.8 434.267 276.533 436.001C285.6 438.001 285.733 436.667 276.667 434.134C264.533 430.534 256.533 421.601 241.467 394.667C238.4 389.201 232.933 380.001 229.333 374.267C225.6 368.534 222.667 363.467 222.667 363.067C222.667 362.667 221.333 360.534 219.733 358.401C217.2 354.667 217.2 354.534 219.467 355.734C223.867 358.001 235.467 369.867 239.467 376.134C241.6 379.334 243.6 382.267 244.133 382.667C245.467 383.867 254.667 400.134 254.667 401.467C254.667 404.667 264.533 417.867 273.333 426.401C277.467 430.534 286.267 434.667 290.667 434.534C293.067 434.534 292.133 433.867 287.733 432.401C281.6 430.401 274.8 424.934 268.133 416.801C263.333 410.801 254.667 396.934 254.667 394.934C254.667 391.067 241.6 373.601 230.4 362.267C223.333 355.201 218.133 348.667 217.067 345.601C213.867 336.534 214.933 305.334 219.2 278.667C225.467 240.001 231.733 220.267 241.067 209.067C245.067 204.267 251.467 200.934 254.8 201.734C256.267 202.134 257.333 202.001 257.333 201.334C257.333 199.867 252.4 198.667 246.4 198.667C242.533 198.667 240.133 199.734 236.4 203.201Z" fill="black"/>
<path d="M306.667 200.934C300 205.334 294.4 211.468 291.067 218.001C286.933 225.868 280.8 255.068 278.533 277.201C276.533 297.334 276.533 336.134 278.533 351.334C283.6 388.268 295.733 423.201 305.867 429.868C311.333 433.334 312.533 432.268 308.133 428.001C300.667 420.534 292.533 394.001 288.667 364.934C286.267 346.534 285.867 287.734 288 268.668C292.133 231.601 297.733 213.068 307.6 203.201C312.4 198.401 312 197.334 306.667 200.934Z" fill="black"/>
<path d="M318.133 200.8C313.733 214.667 313.999 417.333 318.399 429.333L319.599 432.533L320.533 428.933C323.599 416.667 324.933 286.933 322.666 232.933C321.333 203.867 320.133 194.667 318.133 200.8Z" fill="black"/>
<path d="M329.466 201.735C337.333 208.401 342.666 220.668 346.666 240.668C350.666 260.401 352.533 308.401 350.933 344.935C349.599 371.201 349.066 375.735 344.933 392.001C339.599 412.401 334.933 424.001 329.733 428.801C325.866 432.401 327.733 433.068 332.799 429.868C345.066 421.735 358.399 377.335 361.333 334.668C363.999 295.735 356.666 235.468 346.933 216.535C344.266 211.335 338.266 204.935 331.999 200.935C327.199 197.601 325.466 198.135 329.466 201.735Z" fill="black"/>
<path d="M383.733 199.601C382.4 199.868 381.333 200.668 381.333 201.334C381.333 201.868 382.4 202.134 383.867 201.734C386.933 200.934 393.067 204.001 396.8 208.268C404.667 216.801 411.6 234.668 415.333 256.001C416.4 262.268 418.667 274.534 420.267 283.334C423.733 302.534 424.4 337.468 421.6 345.601C420.533 348.534 416.133 354.268 410.533 359.601C405.333 364.534 398.933 371.601 396.267 375.334C393.6 378.934 391.067 382.268 390.533 382.668C390 383.068 386.533 389.334 382.8 396.668C373.2 415.601 362.533 427.734 351.6 432.401C346 434.668 346 434.668 350.667 433.868C356.8 432.801 361.333 430.401 366.133 425.734C374 418.134 382.667 406.668 382.667 404.001C382.667 402.534 393.067 384.001 394.667 382.668C395.2 382.268 397.467 379.068 400 375.468C404.667 368.534 414.933 358.134 419.2 355.734C421.067 354.668 420.933 355.468 418.133 358.934C416.267 361.468 414.667 364.134 414.667 364.801C414.533 365.468 411.867 370.134 408.667 375.334C405.467 380.401 399.2 391.068 394.8 398.801C390.4 406.534 385.867 413.601 384.8 414.534C383.6 415.601 382.667 417.068 382.667 418.001C382.667 421.201 369.733 431.734 363.867 433.468C356.533 435.601 353.867 437.734 360 436.534C368.533 434.801 382.667 426.001 382.667 422.268C382.667 421.334 384.533 418.534 386.8 416.001C389.067 413.468 393.333 407.068 396.267 402.001C399.2 396.801 404.533 387.734 408.133 381.868C411.733 375.868 414.667 370.268 414.667 369.334C414.667 368.401 416.8 364.668 419.333 361.201C421.867 357.601 424 354.401 424 354.001C424 353.734 425.467 352.001 427.2 350.268C435.467 342.001 435.2 313.601 426.667 270.668C420.267 238.801 412 213.734 405.067 205.334C400.267 199.468 392.267 197.334 383.733 199.601Z" fill="black"/>
<path d="M292.133 202.802C290.399 203.468 284.799 204.935 279.599 206.002C274.533 207.068 268.933 208.802 267.199 210.002C262.799 212.802 255.733 223.602 254.533 229.202C253.999 231.868 251.999 239.735 249.999 246.668C244.533 266.535 241.333 288.135 240.399 310.668C239.466 336.935 240.933 346.002 248.666 362.268C251.999 369.068 254.666 374.935 254.666 375.468C254.666 376.002 255.999 378.268 257.733 380.535C259.466 382.802 264.266 390.935 268.533 398.402C281.066 421.202 292.666 433.602 301.066 433.202C302.266 433.202 301.199 432.268 298.666 431.068C293.466 428.935 286.666 422.935 286.666 420.668C286.666 419.868 285.466 417.868 283.866 416.135C279.599 411.602 256.666 368.268 255.466 362.402C255.066 360.802 253.733 355.068 252.533 350.002C247.599 329.868 250.533 276.535 258.266 246.002C264.799 220.002 270.933 211.735 287.999 206.002C297.999 202.668 300.799 201.202 297.066 201.468C296.133 201.468 293.866 202.135 292.133 202.802Z" fill="black"/>
<path d="M340 201.867C340 202.134 344 203.734 349.066 205.467C362.666 209.867 365.066 211.467 370.533 220.001C380.666 235.601 388.533 279.334 388.533 318.667C388.4 349.467 385.733 360.001 369.733 390.267C363.2 402.667 356.8 413.867 355.6 415.334C354.4 416.801 352 420.134 350.4 422.667C348.666 425.201 344.666 428.667 341.333 430.267C338 431.867 336.266 433.201 337.333 433.201C348.933 433.334 364.8 412.401 387.866 366.001C397.866 346.134 399.333 338.134 398.266 310.001C397.333 287.067 393.733 264.401 387.866 244.134C385.466 236.267 383.333 228.534 382.933 226.667C382 221.734 374.933 212.134 370.4 209.334C368.133 208.001 363.2 206.401 359.466 205.867C355.733 205.467 350.4 204.134 347.466 203.201C342.133 201.334 340 200.934 340 201.867Z" fill="black"/>
<path d="M542.8 301.068C542.8 303.601 543.6 312.801 544.8 321.601C545.866 330.401 547.333 344.668 548 353.201L549.2 368.668L548.666 350.668C548 329.601 543.2 288.935 542.8 301.068Z" fill="black"/>
<path d="M92.2663 319.333C89.4663 343.2 88.2663 361.6 89.4663 365.333C90.1329 367.866 90.3996 366.8 90.5329 361.066C90.6663 356.8 91.5996 344.4 92.7996 333.333C93.8663 322.4 94.6663 311.333 94.3996 309.066C94.133 306.666 93.1996 311.2 92.2663 319.333Z" fill="black"/>
<path d="M133.866 352.668C132.533 353.735 131.999 354.535 132.666 354.668C134.666 354.668 137.999 352.268 137.199 351.468C136.799 351.068 135.333 351.601 133.866 352.668Z" fill="black"/>
<path d="M190.666 351.068C190.666 353.868 212.133 398.268 222.399 416.534C229.333 429.201 245.466 442.668 253.333 442.534C254.399 442.534 251.733 440.934 247.333 438.801C238.133 434.534 230.399 426.534 222.666 413.334C215.866 401.734 204.399 378.134 197.999 362.934C195.066 356.268 192.266 350.668 191.733 350.668C191.199 350.668 190.666 350.801 190.666 351.068Z" fill="black"/>
<path d="M197.333 351.468C197.333 351.868 203.066 364.135 210.133 378.535C217.2 392.935 223.866 406.401 224.933 408.668C227.466 414.135 239.733 428.935 245.333 433.468C250.8 437.868 260 442.001 260 440.001C260 439.335 258.933 438.668 257.733 438.668C253.866 438.535 243.2 430.001 236 421.068C232.266 416.401 226.533 406.935 223.2 400.001C219.866 393.068 213.066 379.068 208.133 369.068C200.533 353.335 197.333 348.001 197.333 351.468Z" fill="black"/>
<path d="M205.333 351.068C205.333 351.601 209.2 359.201 214 368.268C218.8 377.201 222.666 385.068 222.666 385.868C222.666 388.134 236.266 412.134 240 416.534C254.666 434.001 261.466 438.668 271.333 438.534L276.666 438.401L270.533 437.334C259.866 435.468 255.6 432.268 243.733 417.334C237.866 409.868 229.733 395.334 218.266 371.868C210.8 356.534 205.333 347.868 205.333 351.068Z" fill="black"/>
<path d="M428.533 356.268C426.533 359.334 421.467 369.201 417.2 378.001C406.933 399.734 400.8 409.868 391.067 421.734C382 432.668 377.6 435.734 368.133 437.334L362 438.401L367.333 438.534C377.2 438.668 384.133 433.868 398.667 416.534C402.533 411.868 414.667 390.668 414.667 388.401C414.667 387.601 418.933 378.934 424.133 369.334C433.333 352.001 435.733 344.801 428.533 356.268Z" fill="black"/>
<path d="M431.333 366.933C427.066 376 420.799 389.066 417.599 396C407.999 416.533 393.866 433.733 383.066 437.6C380.666 438.533 378.666 439.733 378.666 440.266C378.666 442 388.266 437.6 393.333 433.466C398.399 429.466 411.199 414.266 413.066 410C413.733 408.533 420.399 394.933 427.866 379.866C435.199 364.666 441.333 352 441.333 351.466C441.333 351.066 440.799 350.666 440.266 350.666C439.599 350.666 435.599 358 431.333 366.933Z" fill="black"/>
<path d="M440.8 363.066C437.867 369.866 430.8 384.666 425.067 396C419.467 407.333 416 415.2 417.467 413.333C423.067 406.666 447.2 356 446.4 352.533C446.133 351.6 443.6 356.4 440.8 363.066Z" fill="black"/>
<path d="M501.333 351.868C501.333 352.535 502.266 353.335 503.333 353.868C504.4 354.268 505.333 354.001 505.333 353.468C505.333 352.801 504.4 352.001 503.333 351.468C502.266 351.068 501.333 351.335 501.333 351.868Z" fill="black"/>
<path d="M117.999 356.135C116.399 358.668 118.666 359.201 120.933 356.935C123.066 354.801 123.066 354.668 121.066 354.668C119.866 354.668 118.399 355.335 117.999 356.135Z" fill="black"/>
<path d="M517.733 356.935C518.933 358.135 520.267 358.801 520.8 358.401C522.133 357.068 520 354.668 517.6 354.668C515.6 354.668 515.6 354.801 517.733 356.935Z" fill="black"/>
<path d="M104.266 360.267C102.133 362.4 102.266 364.134 104.533 363.2C106.666 362.4 108.533 358.667 106.933 358.667C106.266 358.667 105.2 359.334 104.266 360.267Z" fill="black"/>
<path d="M531.466 360.668C532 361.735 533.2 362.668 534.266 362.668C536 362.668 536 362.268 534.666 360.668C533.733 359.601 532.533 358.668 531.866 358.668C531.2 358.668 531.066 359.601 531.466 360.668Z" fill="black"/>
<path d="M190.666 371.734C190.666 374.801 210.533 414.001 214.133 418.001C217.999 422.401 217.333 420.801 211.733 412.534C209.733 409.601 204.399 399.067 199.866 389.201C190.933 370.001 190.666 369.467 190.666 371.734Z" fill="black"/>
<path d="M445.467 374.268C445.333 375.068 441.467 383.735 436.667 393.601C428.533 410.401 414.667 432.135 414.667 428.001C414.667 426.935 411.733 428.935 408.267 432.401C404.533 436.135 398.533 440.135 393.867 442.135C389.6 444.001 387.867 445.068 390 444.535C392.267 444.001 395.867 443.468 398 443.335C400.267 443.201 403.067 442.535 404.133 441.868C407.867 439.735 415.067 433.201 414.4 432.668C414 432.268 412.4 433.468 410.667 435.335C408.933 437.201 406.933 438.668 406.133 438.668C405.467 438.668 406.8 436.535 409.333 434.001C411.733 431.468 414.267 429.735 414.8 430.001C418.133 432.135 448.133 378.935 446.267 374.268C445.733 373.201 445.467 373.201 445.467 374.268ZM403.467 440.668C402 441.735 400.133 442.668 399.467 442.668C398.667 442.668 399.2 441.735 400.533 440.668C402 439.601 403.867 438.668 404.533 438.668C405.333 438.668 404.8 439.601 403.467 440.668Z" fill="black"/>
<path d="M410 422.668C404.8 430.134 398.133 435.868 390.133 439.468C386.4 441.201 384.267 442.534 385.333 442.534C388.667 442.668 397.867 437.868 402.933 433.601C408 429.068 415.467 418.934 414.4 418.001C414 417.601 412 419.734 410 422.668Z" fill="black"/>
<path d="M219.333 425.867C220.667 427.734 221.867 429.334 222.267 429.334C223.2 429.334 220 424.134 218.533 423.201C217.733 422.801 218.133 423.867 219.333 425.867Z" fill="black"/>
<path d="M223.733 427.467C226.533 432.934 241.6 444.134 243.6 442.267C243.867 441.867 242.8 441.201 241.2 440.667C239.467 440.134 234.533 436.267 230.133 432.134C225.867 428.001 222.933 426.001 223.733 427.467Z" fill="black"/>
<path d="M226.666 435.333C229.2 437.867 231.466 440 231.866 440C232.266 440 230.533 437.867 228 435.333C225.466 432.8 223.2 430.667 222.8 430.667C222.4 430.667 224.133 432.8 226.666 435.333Z" fill="black"/>
<path d="M374.4 440.934C375.333 441.334 376.533 441.201 376.933 440.801C377.466 440.401 376.666 440.001 375.2 440.134C373.733 440.134 373.333 440.534 374.4 440.934Z" fill="black"/>
<path d="M246.666 444.001C247.733 444.667 249.333 445.334 249.999 445.334C250.799 445.334 250.399 444.667 249.333 444.001C248.266 443.334 246.799 442.667 245.999 442.667C245.333 442.667 245.599 443.334 246.666 444.001Z" fill="black"/>
</svg>
