<svg width="640" height="640" viewBox="0 0 640 640" fill="none" xmlns="http://www.w3.org/2000/svg">
<path d="M121.067 94.2668C121.867 94.5335 123.467 94.5335 124.401 94.2668C125.201 93.8668 124.534 93.6001 122.667 93.6001C120.801 93.6001 120.134 93.8668 121.067 94.2668Z" fill="black"/>
<path d="M514.4 94.2663C515.334 94.6663 516.534 94.533 516.934 94.133C517.467 93.733 516.667 93.333 515.2 93.4663C513.734 93.4663 513.334 93.8663 514.4 94.2663Z" fill="black"/>
<path d="M112.001 100.799C108.267 106.799 99.8673 127.865 100.001 131.065C100.134 131.999 101.867 127.865 104.001 122.132C108.801 109.332 112.667 101.732 116.401 97.5988C117.867 95.9988 118.401 94.6655 117.601 94.6655C116.667 94.6655 114.134 97.4655 112.001 100.799Z" fill="black"/>
<path d="M126.667 95.2002C126.667 95.4669 127.6 96.1335 128.8 96.5335C129.867 96.9335 130.4 96.8002 130 96.0002C129.2 94.6669 126.667 94.1335 126.667 95.2002Z" fill="black"/>
<path d="M507.2 97.5993L504.667 100.666L507.734 98.1327C510.534 95.7327 511.334 94.666 510.267 94.666C510 94.666 508.667 95.9993 507.2 97.5993Z" fill="black"/>
<path d="M522.267 97.5997C523.867 99.3331 526.267 102.8 527.867 105.333C529.334 107.866 530.667 109.333 530.667 108.533C530.667 106.266 522.534 94.6664 520.934 94.6664C520.134 94.6664 520.801 95.9997 522.267 97.5997Z" fill="black"/>
<path d="M118 103.199C115.6 105.733 111.467 113.066 108.8 119.599C103.067 133.199 94.6671 165.999 94.8004 173.866C94.9337 177.999 95.6004 175.866 98.0004 165.333C104.8 134.266 112.8 112.666 120.667 104.933C124.934 100.799 126.534 100.533 132.4 103.333L136.667 105.466L132.667 102.133C127.2 97.4659 123.2 97.7325 118 103.199Z" fill="black"/>
<path d="M506 101.599C503.867 103.199 500.533 106.266 498.667 108.533C495.6 112.399 495.733 112.399 500.933 107.866C507.867 101.599 510.933 100.666 515.867 103.333C522.267 106.533 531.067 126.133 537.333 150.933C540.267 162.133 542.533 169.466 542.667 167.066C542.667 160.399 534.933 131.466 529.733 119.066C524.4 106.399 518 98.666 513.2 98.7993C511.467 98.7993 508.267 100.133 506 101.599Z" fill="black"/>
<path d="M130.534 110.533C124.134 112.933 115.067 129.733 109.334 149.333C100 182.266 92.4002 232.399 95.4669 240.533C97.3336 245.199 98.6669 242.133 98.6669 233.333C98.6669 202.666 113.467 140.266 124.667 123.333C131.2 113.466 135.867 112.133 143.6 118.133C149.2 122.399 149.334 121.333 143.734 116.133C138.8 111.466 133.734 109.333 130.534 110.533Z" fill="black"/>
<path d="M496.267 114.799C493.2 117.065 490.667 119.465 490.667 120.132C490.667 120.932 492.667 119.999 495.067 118.132C500 114.399 504.934 113.732 508.267 116.265C512 119.465 518.534 129.999 521.2 137.332C530.8 163.865 539.867 209.332 540.4 234.399C540.8 248.399 542.667 244.399 542.667 229.865C542.667 202.532 530.934 146.932 521.067 127.332C512.267 109.999 506.667 107.065 496.267 114.799Z" fill="black"/>
<path d="M483.6 128.799C480.133 134.533 480.133 134.666 482.933 132.799C490.4 127.466 498.8 132.399 505.333 145.733C513.467 162.666 525.333 217.999 525.733 241.599C525.867 250.399 526.533 254.666 527.467 254.666C537.2 254.799 522.267 167.333 507.467 137.599C502.933 128.399 500 126.266 492.267 126.799C486.933 127.199 485.867 126.933 486.933 125.599C487.733 124.666 488.133 123.733 487.867 123.333C487.467 123.066 485.6 125.466 483.6 128.799Z" fill="black"/>
<path d="M152.4 126.266C152.933 127.066 150.533 127.333 146.133 126.933C139.333 126.399 138.933 126.533 134.933 131.466C130.667 136.666 129.867 138.399 123.467 157.999C113.467 188.666 105.067 242.933 108.8 252.533C109.2 253.733 110.267 254.666 111.2 254.666C112.133 254.666 112.8 250.266 112.933 241.733C113.333 227.333 118.133 198.266 123.333 178.266C125.2 171.199 126.667 164.133 126.667 162.666C126.667 161.199 127.2 158.933 127.867 157.599C128.667 156.399 131.067 151.333 133.333 146.399C139.733 132.399 148.133 127.333 155.867 132.799C158.8 134.933 158.8 134.933 157.067 132.133C156.133 130.666 154.933 129.333 154.267 129.333C153.733 129.333 153.467 128.799 154 128.133C154.4 127.466 154 126.399 153.2 125.866C152.267 125.333 152 125.466 152.4 126.266Z" fill="black"/>
<path d="M161.334 138.665C162.134 140.132 163.067 141.332 163.467 141.332C163.734 141.332 163.467 140.132 162.667 138.665C161.867 137.199 160.934 135.999 160.534 135.999C160.267 135.999 160.534 137.199 161.334 138.665Z" fill="black"/>
<path d="M476 138.932C474.4 141.866 474.4 141.866 476.8 139.732C478.133 138.399 478.8 137.066 478.4 136.532C477.867 136.132 476.8 137.199 476 138.932Z" fill="black"/>
<path d="M155.067 148.532C148.133 154.265 144.133 161.732 138.667 178.532C131.867 199.732 128 219.199 126.667 239.999C125.333 259.199 126 266.932 129.2 268.932C131.067 270.132 131.333 268.665 131.467 254.132C131.733 222.399 143.867 174.132 155.733 158.399C161.067 151.332 165.2 149.732 170.8 152.532C176.8 155.599 175.333 152.532 168.933 148.665C161.733 144.532 159.867 144.532 155.067 148.532Z" fill="black"/>
<path d="M469.2 148.666C462.8 152.8 460.933 157.066 467.067 153.333C469.467 151.866 472.4 150.666 473.6 150.666C476.8 150.666 484.8 159.6 488.4 167.333C498.8 189.2 508.933 238.133 507.733 260.666C507.467 268 507.733 270.133 508.933 269.733C509.867 269.333 510.667 268.666 510.667 268.133C510.8 267.733 511.333 264.8 511.867 261.6C513.333 254 510.267 218.933 506.8 203.2C502.8 185.6 495.067 162.8 491.067 156.933C486.267 150.133 480.4 145.333 476.933 145.466C475.333 145.466 471.867 146.933 469.2 148.666Z" fill="black"/>
<path d="M178.667 166.266C172.534 168.533 161.201 187.199 159.201 198.399C158.801 201.199 156.934 209.466 155.201 216.933C148.001 247.599 146.001 274.266 150.134 281.999C151.334 284.133 153.734 289.866 155.467 294.666C157.067 299.466 158.534 301.999 158.534 300.533C158.667 298.933 157.734 295.466 156.667 292.933C154.401 287.466 154.267 286.266 155.734 287.199C156.267 287.466 156.134 284.399 155.467 280.133C154.534 274.399 154.801 266.933 156.534 251.199C160.534 214.933 168.934 187.733 179.601 176.266C183.601 172.133 184.534 171.733 189.467 172.399C194.801 173.066 194.801 173.066 192.401 170.799C187.201 165.866 183.201 164.666 178.667 166.266Z" fill="black"/>
<path d="M451.334 166.533C449.867 167.2 447.6 168.933 446.267 170.4C443.867 173.067 443.867 173.067 449.2 172.4C454.134 171.733 455.067 172.133 459.067 176.267C469.467 187.333 476.534 209.333 481.334 245.333C484.534 269.6 484.4 286 480.8 296C479.6 299.333 478.8 303.2 478.8 304.667C478.8 306.133 480.534 302.533 482.667 296.667C484.667 290.8 487.334 284.133 488.534 282C492.8 274 490.4 245.6 482.534 213.867C480.4 204.933 478.667 196.8 478.667 195.733C478.667 192.4 468.534 172.8 465.067 169.733C461.467 166.267 455.2 164.933 451.334 166.533Z" fill="black"/>
<path d="M542.667 178.4C542.667 180.8 543.6 187.867 544.667 194.267C545.734 200.8 547.2 212.267 547.867 220L548.934 234L549.2 223.467C549.334 214.267 544.667 176.267 543.2 174.8C542.934 174.533 542.667 176.133 542.667 178.4Z" fill="black"/>
<path d="M92.4003 191.332C89.3336 210.932 88.0003 227.732 89.2003 230.932C90.267 233.466 90.5336 232.666 90.5336 227.066C90.667 223.332 91.6003 212.932 92.8003 204.132C95.2003 185.466 94.8003 175.332 92.4003 191.332Z" fill="black"/>
<path d="M200 189.333C194.667 192.133 192.533 195.866 186.8 213.333C180.533 232.4 176.133 254.8 175.2 272.933C174 294.8 174.933 297.733 187.867 312.8C194.533 320.666 200.667 329.733 205.333 338.8C213.333 354 222.533 374.4 222.667 376.933C222.667 377.866 226.267 386 230.533 395.2C237.6 410 242.667 417.866 253.6 430.933C257.6 435.6 265.067 438.666 272.267 438.533L278 438.4L270.667 436.8C260.533 434.533 258.133 432.8 249.867 421.333C242.667 411.6 227.333 381.733 224 371.2C219.333 356.133 204.267 328.666 195.067 318.4C184.933 306.933 183.333 302 183.333 282.666C183.467 265.6 188.133 234.266 192.933 219.333C198.267 202.8 206.933 190.666 213.733 190.666C216.533 190.533 216.533 190.533 213.333 188.666C208.933 186.133 205.6 186.266 200 189.333Z" fill="black"/>
<path d="M425.334 188.266L422 189.599L425.867 190.799C434.667 193.332 443.2 207.599 447.334 226.666C455.067 262.666 457.2 280.932 455.467 295.066C454.4 302.799 450.267 310.132 438.667 324.666C432.8 331.866 414.667 366.799 414.667 370.799C414.667 375.199 396.267 411.332 388.934 421.066C380.267 432.799 377.6 434.799 368 436.799L360.667 438.399L366.4 438.532C374.4 438.666 380.134 435.999 386.8 428.666C398.534 415.999 404 405.866 420 367.066C429.867 343.066 440.667 324.132 451.334 312.132C459.2 303.332 461.467 299.866 462.8 294.399C466.4 279.066 460.934 239.732 451.2 211.732C444.934 193.599 444.267 192.399 439.067 189.332C434 186.399 430.4 186.132 425.334 188.266Z" fill="black"/>
<path d="M305.067 202.267C299.734 206.533 291.201 217.333 288.667 223.333C283.867 234.267 279.201 261.867 277.334 289.333C274.934 325.867 278.134 357.067 288.934 399.333C293.067 415.6 303.734 432 310.401 432C312.134 432 312.001 431.6 309.601 429.867C302.667 425.067 295.067 403.333 289.867 373.333C286.934 356.667 285.734 288.8 287.867 267.6C291.201 235.333 297.467 215.067 307.334 204.133C313.067 197.867 311.867 196.933 305.067 202.267Z" fill="black"/>
<path d="M318.134 200.8C313.734 214.667 314 417.333 318.4 429.333L319.6 432.533L320.534 428.933C323.6 416.667 324.934 286.933 322.667 232.933C321.334 203.867 320.134 194.667 318.134 200.8Z" fill="black"/>
<path d="M331.333 204.133C343.067 217.2 348.667 238.933 350.8 279.333C352.267 307.867 351.467 352.933 349.2 369.333C345.333 397.2 336.133 424.933 329.067 429.867C326.667 431.6 326.533 432 328.267 432C334.533 432 346 415.067 349.2 401.2C350 398 351.867 390.267 353.333 384C360.667 352.4 363.2 322.933 361.333 292C360 269.2 358.267 255.6 355.333 243.333C349.467 219.733 347.333 215.333 336.267 204.933C327.867 197.2 324.533 196.667 331.333 204.133Z" fill="black"/>
<path d="M298.134 200.932C297.6 201.466 295.6 201.999 293.6 202.132C291.6 202.266 286.667 203.999 282.667 205.866C278 207.999 276.8 208.932 279.334 208.399C281.6 207.999 285.6 206.532 288.267 205.199C295.467 201.599 296.267 202.132 289.467 205.999C286.267 207.866 279.2 210.532 273.734 211.866C260.534 215.332 256.267 219.332 251.6 233.066C242.934 257.732 240.667 272.532 240.667 302.666C240.667 329.999 241.867 336.799 250.134 356.932C252.667 362.932 254.667 368.799 254.667 369.999C254.667 374.399 272.534 410.932 278.534 418.932C285.734 428.532 289.6 431.599 296 432.799C301.467 433.866 300.4 431.999 294.267 429.999C288.667 428.266 279.334 414.666 272 397.599C268.934 390.532 265.334 382.266 264.134 379.332C257.067 363.466 251.467 338.932 249.867 316.666C248.534 297.199 252.934 256.532 258.267 238.666C261.334 228.799 262.667 226.532 268.534 220.666C272.267 216.932 277.6 213.199 280.267 212.266C286.934 209.866 303.867 199.999 301.2 199.999C300 199.999 298.667 200.399 298.134 200.932Z" fill="black"/>
<path d="M344 205.065C348.8 207.865 355.6 211.332 358.933 212.532C367.733 215.865 375.2 224.265 379.333 235.065C381.2 239.999 382.667 245.732 382.667 247.732C382.667 249.732 383.6 255.599 384.667 260.665C388.267 277.732 389.867 307.065 388.267 323.065C386 344.665 380.667 365.599 373.333 381.999C372 384.932 369.067 392.132 366.667 397.865C364.267 403.599 359.333 412.799 355.6 418.265C349.467 427.465 347.733 429.065 340.8 431.199C336 432.799 339.733 433.465 345.067 431.999C353.467 429.732 361.333 419.865 372 397.865C377.067 387.599 381.6 377.332 382 375.199C382.933 370.932 387.067 359.599 390.8 351.199C402.933 323.599 400.133 262.799 385.067 227.732C381.2 218.665 375.6 214.265 364.533 211.465C352.267 208.399 345.867 205.332 348.267 203.732C349.467 202.932 348.933 202.799 346.8 203.332C345.067 203.865 344 203.732 344.4 203.065C344.8 202.399 344.133 201.865 342.933 201.865C341.733 201.732 339.467 201.332 338 200.799C336.533 200.265 339.2 202.132 344 205.065Z" fill="black"/>
<path d="M231.334 204.533C226.134 206.8 225.2 208.133 220 219.867C208.934 245.333 202.4 290.267 206.8 310.933C207.734 314.8 210.667 322.133 213.467 327.333C221.334 341.467 254.667 409.733 254.667 411.6C254.667 412.533 261.334 421.467 265.2 425.733C270.934 432.133 282.934 436.933 286.8 434.533C288.134 433.733 287.467 433.333 284.934 433.333C279.6 433.333 274.667 430.4 268.267 423.467C261.734 416.4 254.667 405.733 254.667 402.933C254.667 400.667 236.534 362 228.934 348.133C220.267 332.133 216 318.533 215.067 304C214.267 290.133 216.134 270.133 220 251.333C221.334 244.667 222.8 237.2 223.2 234.4C224.267 228.133 229.867 217.733 235.067 212.267C238.4 208.8 240.267 208 244.534 208C250.8 208 249.6 206.4 241.867 204.267C235.334 202.4 236.267 202.4 231.334 204.533Z" fill="black"/>
<path d="M396 204.134C389.067 206.134 388 208.001 393.867 207.734C397.733 207.601 399.733 208.401 403.2 211.867C407.867 216.401 414.667 228.534 414.667 232.267C414.667 233.467 416.133 240.667 417.867 248.267C424.933 278.134 425.733 308.934 420 324.667C418.4 329.067 410.533 345.867 402.667 362.001C394.8 378.134 386.933 394.667 385.333 398.667C380.4 411.067 378.533 414.267 371.733 422.001C364.4 430.134 361.6 432.001 354.667 433.467L350 434.401L355.067 434.534C361.733 434.667 369.333 430.667 375.333 423.734C378 420.534 384.933 408.401 390.667 396.667C416 344.801 420.267 336.134 425.2 327.067C432.133 314.801 434 304.134 432.8 284.934C431.333 260.267 425.333 233.734 417.333 216.934C411.467 204.667 405.867 201.334 396 204.134Z" fill="black"/>
<path d="M351.334 205.333C351.734 205.999 352.8 206.666 353.467 206.666C354.267 206.666 354.4 205.999 354 205.333C353.6 204.533 352.534 203.999 351.867 203.999C351.067 203.999 350.934 204.533 351.334 205.333Z" fill="black"/>
<path d="M488.534 285.6C488 286.534 485.6 293.2 483.2 300.667C480.8 308 478.8 312.534 478.667 310.667C478.667 308.8 473.6 322 467.467 340C461.334 358 454.134 378.267 451.467 385.2C448.8 392 446.8 398.267 447.067 399.067C447.334 399.867 448.934 396.667 450.667 391.867C452.4 387.2 454.134 382.667 454.667 382C455.2 381.2 460.667 365.734 466.8 347.6C474.4 325.067 478.267 315.334 478.8 316.934C479.734 319.2 479.867 319.067 480 316.667C480 315.2 482.4 307.2 485.067 298.934C487.867 290.8 490 284 489.734 284C489.6 284 489.067 284.667 488.534 285.6Z" fill="black"/>
<path d="M149.334 285.467C149.467 288.267 158.4 313.467 158.8 312.134C159.067 311.334 164.4 325.334 170.534 343.601C176.667 361.734 182.4 378.401 183.467 380.667C184.4 382.801 186.4 387.601 187.867 391.334C189.334 394.934 190.534 396.934 190.534 395.601C190.667 394.267 189.734 391.067 188.534 388.267C186.534 383.601 166.4 326.267 161.334 310.667C159.6 305.467 158.8 304.267 158.8 306.667C158.667 308.667 156.934 305.067 154.667 298.267C151.467 288.401 149.2 282.934 149.334 285.467Z" fill="black"/>
<path d="M479.067 288.666C477.867 291.866 479.2 292.266 481.067 289.332C482.134 287.599 482.134 286.666 481.334 286.666C480.534 286.666 479.6 287.599 479.067 288.666Z" fill="black"/>
<path d="M158.667 290.799C158.667 292.799 165.6 312.933 168 317.999C169.467 321.066 183.334 360.666 190.134 381.066C195.067 396.133 202.4 412.133 210 424.533C216.4 435.199 226.4 446.666 229.067 446.666C230.8 446.666 230.667 446.266 228.4 444.666C224 441.599 214.267 427.999 207.6 415.733C200.934 403.466 193.334 384.666 186.934 365.333C180.934 346.533 160.534 290.799 159.2 289.466C158.934 289.199 158.667 289.733 158.667 290.799Z" fill="black"/>
<path d="M473.466 304.666C466.533 322.933 456.533 351.066 451.2 366.666C437.6 406.133 427.733 425.866 413.733 440.933C410.8 444.133 409.2 446.666 410.133 446.666C413.066 446.666 425.733 430.266 432.8 417.066C439.866 404.266 443.733 395.199 450 376.666C457.066 356.133 470.533 317.866 474.666 307.333C476.8 301.466 478.533 295.733 478.266 294.666C478.133 293.599 475.866 297.999 473.466 304.666Z" fill="black"/>
<path d="M166.667 296.533C166.667 296.933 173.334 312.133 176 317.999C179.334 324.933 189.734 353.199 190.8 357.999C191.867 363.333 195.867 374.266 199.334 381.999C200.4 384.133 203.6 391.599 206.534 398.399C209.467 405.333 214.267 414.666 217.334 419.466C220.267 424.133 222.667 428.399 222.667 428.799C222.667 431.466 230.4 439.199 236.4 442.666C241.734 445.733 244.934 446.666 250 446.533L256.667 446.399L249.467 445.199C245.467 444.533 240.134 442.666 237.734 441.199C233.334 438.533 222.667 426.266 222.667 423.999C222.667 423.466 220.267 418.933 217.334 413.866C211.6 403.733 198.134 372.666 193.334 357.999C191.734 352.799 188.134 342.933 185.6 335.999C178.4 316.533 166.667 292.133 166.667 296.533Z" fill="black"/>
<path d="M469.733 297.6C466.533 301.867 446.667 350.133 446.667 353.733C446.667 358.933 426.933 404.8 419.467 417.067C416.8 421.467 414.667 425.6 414.667 426.133C414.667 426.8 412.267 430.133 409.333 433.467C403.467 440.4 397.467 443.733 388.133 445.333L382 446.4L388.4 446.533C395.6 446.667 403.333 443.333 409.067 437.6C413.867 432.8 426.667 411.2 432 398.667C434.4 393.2 437.6 385.6 439.333 382C442.533 374.8 444.267 369.867 447.2 359.333C449.067 352.667 459.733 324.267 463.2 316.667C471.2 299.333 473.467 292.667 469.733 297.6Z" fill="black"/>
<path d="M177.734 304.932C178 305.599 180.4 309.732 183.067 314.132C185.867 318.666 189.467 326.799 191.2 332.266C193.067 337.732 196.134 345.732 198 349.999C200 354.132 203.6 363.066 206.134 369.599C208.667 376.266 211.334 382.532 212 383.732C214.667 388.266 222.667 407.066 222.667 408.532C222.667 409.332 226 414.932 230.134 420.932C240.934 436.932 249.467 442.799 261.067 442.532L267.334 442.266L261.334 441.466C251.6 440.132 243.467 434.399 235.867 423.599C232.134 418.266 227.734 410.932 226 407.332C221.467 397.466 211.334 373.732 208 365.332C206.4 361.332 201.867 350.666 197.867 341.732C193.867 332.666 190.667 324.666 190.667 323.866C190.667 322.132 179.067 303.999 177.867 303.999C177.467 303.999 177.467 304.399 177.734 304.932Z" fill="black"/>
<path d="M453.466 314C449.733 319.733 446.666 325.2 446.666 326.4C446.666 327.466 443.733 335.066 440.133 343.2C436.533 351.333 431.733 362.533 429.6 368C427.333 373.466 423.2 383.2 420.267 389.466C417.333 395.733 414.533 402.666 414.133 404.8C413.6 406.933 409.467 414 404.8 420.666C395.6 434 386.133 441.2 377.333 441.466C372.933 441.733 372.8 441.733 376.667 442.266C382.133 443.2 390.4 440.4 396.133 435.866C400.667 432.266 414.667 413.333 414.667 410.8C414.667 410.266 417.067 404.4 420.133 397.866C423.067 391.333 426.267 384.133 427.333 382C428.267 379.733 431.067 373.2 433.333 367.333C435.6 361.466 438.933 353.6 440.533 350C442.267 346.266 444.4 340.933 445.333 338C448.666 327.6 452.266 319.733 456.8 312.4C459.466 308.4 461.2 304.8 460.8 304.4C460.4 304 457.066 308.4 453.466 314Z" fill="black"/>
<path d="M158.801 317.866C158.534 321.466 178.001 379.732 185.867 398.666C192.934 415.866 191.601 409.866 183.334 388.132C179.334 377.332 172.801 358.132 168.667 345.332C160.934 321.466 158.934 315.732 158.801 317.866Z" fill="black"/>
<path d="M477.334 321.733C477.334 324.533 460.801 373.733 454.001 391.333C447.201 408.933 445.067 416 449.467 406.666C453.601 397.733 457.867 386.266 468.001 356.266C477.067 329.733 479.734 320 478.134 320C477.734 320 477.334 320.8 477.334 321.733Z" fill="black"/>
<path d="M190.801 400.666C190.801 404.666 202.401 426.799 209.601 436.532C216.801 446.266 226.267 452.132 234.934 452.266C237.734 452.266 240.401 451.999 240.934 451.599C241.334 451.199 239.201 450.799 236.267 450.932C221.601 451.066 208.534 437.066 194.401 405.999C192.401 401.599 190.801 399.199 190.801 400.666Z" fill="black"/>
<path d="M440.934 412.932C430.134 435.066 419.334 447.332 408.001 450.399C404.134 451.466 403.867 451.732 406.667 451.866C408.534 451.866 412.001 450.799 414.534 449.199C416.934 447.732 419.601 446.799 420.534 447.066C421.334 447.332 420.401 448.399 418.401 449.332C416.267 450.266 414.667 451.599 414.667 452.266C414.667 453.599 422.134 449.999 423.334 447.999C423.734 447.332 423.467 446.666 422.667 446.666C421.867 446.666 424.401 442.532 428.267 437.466C435.467 427.999 447.201 406.266 446.401 403.866C446.134 403.199 443.734 407.199 440.934 412.932Z" fill="black"/>
<path d="M190.667 412.4C190.667 413.866 200.134 430.933 204 436.666C206 439.6 209.067 443.2 210.8 444.666C212.534 446.133 211.734 444.666 209.067 441.333C206.4 438 201.467 430.266 198.134 424C191.734 412.666 190.667 410.8 190.667 412.4Z" fill="black"/>
<path d="M440.134 424.667C437.067 430.267 432.4 437.734 429.734 441.067C426.8 444.667 426.134 446.134 427.867 444.667C433.467 439.867 447.867 416.801 446.267 415.201C445.867 414.801 443.2 419.067 440.134 424.667Z" fill="black"/>
<path d="M215.2 447.866C215.733 448.666 218.133 450.266 220.4 451.466C224.4 453.333 224.533 453.333 222 451.333C218 447.999 214.133 446.133 215.2 447.866Z" fill="black"/>
<path d="M234 447.867C236.534 449.067 249.067 449.867 247.867 448.8C247.6 448.533 243.734 448 239.334 447.467C234 446.933 232.267 447.067 234 447.867Z" fill="black"/>
<path d="M395.333 448L390 448.933L396 449.066C399.333 449.066 403.2 448.666 404.667 448C407.067 446.933 407.067 446.8 404 446.933C402.133 447.066 398.267 447.466 395.333 448Z" fill="black"/>
<path d="M226.4 454.266C227.334 454.666 228.534 454.533 228.934 454.133C229.467 453.733 228.667 453.333 227.2 453.466C225.734 453.466 225.334 453.866 226.4 454.266Z" fill="black"/>
<path d="M409.067 454.267C409.867 454.533 411.467 454.533 412.401 454.267C413.201 453.867 412.534 453.6 410.667 453.6C408.801 453.6 408.134 453.867 409.067 454.267Z" fill="black"/>
</svg>
