<svg width="640" height="640" viewBox="0 0 640 640" fill="none" xmlns="http://www.w3.org/2000/svg">
<path d="M123.2 102.933C118 108.533 116 112 111.733 122.666C107.333 133.6 104.933 141.333 105.733 142.133C106 142.4 107.067 139.866 108 136.4C110.4 128 116.667 113.866 120.8 107.866C124.8 102 129.733 99.4664 133.467 101.333C134.8 102.133 136 102.266 136 101.6C136 100.4 131.733 98.6664 128.533 98.6664C127.867 98.6664 125.333 100.666 123.2 102.933Z" fill="black"/>
<path d="M504.668 99.9998C503.068 100.533 501.068 102 500.001 103.333C498.668 105.066 499.334 104.8 502.934 102.666C507.468 99.9998 508.134 99.9998 511.734 101.866C514.001 103.066 517.068 106 518.668 108.666C522.134 114.266 523.468 114.8 520.801 109.466C518.534 105.2 511.334 98.6664 508.934 98.7998C508.001 98.7998 506.134 99.3331 504.668 99.9998Z" fill="black"/>
<path d="M129.867 105.333C122.801 108.133 114.401 124.667 107.334 149.333C101.334 170.933 94.6675 204.133 94.8008 211.867L94.9341 218L96.1341 211.333C102.534 175.733 111.201 140.667 116.401 129.333C125.467 109.467 131.334 104.4 139.601 109.333C142.001 110.667 144.001 111.467 144.001 110.933C144.001 109.867 134.267 103.867 133.201 104.133C132.934 104.133 131.334 104.667 129.867 105.333Z" fill="black"/>
<path d="M499.734 106.667C497.067 108.134 494.4 109.867 494 110.667C492.8 112.667 494 112.267 499.334 109.2C505.467 105.6 508.8 106.8 514.4 114.934C523.334 127.867 529.334 146.267 537.334 184C540.134 197.6 542.534 206.8 542.534 204.4C542.667 198.4 535.6 164.134 530.667 147.067C524 123.734 512.667 103.867 506.267 104C505.334 104.134 502.4 105.334 499.734 106.667Z" fill="black"/>
<path d="M138.001 115.734C125.467 118.268 112.934 152.801 102.001 215.601C96.9339 245.068 93.8673 272.668 95.2006 277.734C96.9339 284.801 98.6673 281.201 98.6673 270.668C98.6673 242.668 111.467 177.468 123.601 143.068C127.867 131.334 129.867 127.334 133.334 124.401C140.934 117.868 143.334 117.734 151.334 123.068L155.334 125.734L151.467 121.601C147.334 117.068 142.134 114.801 138.001 115.734Z" fill="black"/>
<path d="M491.734 117.734C488.934 119.334 485.734 122.134 484.534 123.734C482.8 126.267 483.334 126.134 488.267 122.667C492.534 119.601 495.067 118.667 497.467 119.334C502.534 120.667 509.067 127.467 511.467 133.601C519.467 155.601 523.2 167.467 526.667 182.401C534 214.667 539.734 251.601 540.267 270.267C540.534 276.401 541.067 281.334 541.734 281.334C543.467 281.334 542.8 256.667 540.534 241.067C532.267 180.267 518.134 130.001 506.267 118.934C501.6 114.534 497.334 114.267 491.734 117.734Z" fill="black"/>
<path d="M522.667 115.334C522.667 116 523.334 117.6 524 118.667C524.667 119.734 525.334 120 525.334 119.334C525.334 118.534 524.667 117.067 524 116C523.334 114.934 522.667 114.534 522.667 115.334Z" fill="black"/>
<path d="M143.867 132.934C138.533 137.467 128.4 158.401 126.667 168.267C126 172.134 124.267 179.467 122.8 184.667C116.267 208.267 108 259.334 108 276.801C108 284.801 108.4 286.401 110.4 286.934C112.4 287.467 112.667 286.267 112.933 275.201C113.333 256.267 121.333 207.601 129.467 175.334C132.8 162.267 141.333 144.267 146.8 138.801C151.733 133.867 157.067 133.467 163.067 137.467C166.667 139.867 166.4 139.334 161.733 134.801C154.933 128.134 150.133 127.601 143.867 132.934Z" fill="black"/>
<path d="M476.267 135.468C470.933 140.668 470.667 141.068 474.667 138.268C481.333 133.735 483.067 133.335 487.733 135.601C496 139.601 507.6 163.068 510.667 181.735C511.333 185.601 513.467 195.601 515.333 204.001C520.933 229.468 525.467 259.868 525.733 274.135C526 286.135 526.267 287.468 528.4 286.935C530.267 286.401 530.667 284.801 530.667 277.868C530.667 250.268 515.733 174.801 505.6 150.668C499.733 136.935 493.067 129.335 486.8 129.335C483.467 129.335 481.067 130.801 476.267 135.468Z" fill="black"/>
<path d="M469.067 148C464.667 149.334 456.934 154.667 458 155.734C458.4 156.134 459.467 155.734 460.267 154.934C462.8 152.4 469.467 153.067 474 156.267C487.467 165.334 507.2 239.334 507.334 280.8C507.334 293.2 507.734 296.8 509.067 296.4C510 296 511.067 294.134 511.467 292.134C511.867 290.267 512.4 288 512.534 287.334C512.8 286.534 512.134 276.134 511.2 264C507.734 218.4 493.867 168.134 480.8 153.2C476.534 148.267 473.334 146.934 469.067 148Z" fill="black"/>
<path d="M158.667 152.268C144.533 167.734 129.733 220.934 126.667 268.001C125.467 287.068 126.267 295.068 129.333 295.734C130.933 296.001 131.2 294.268 130.933 286.001C129.733 259.334 143.733 195.068 157.067 165.601C161.467 156.001 173.467 150.001 178.4 154.934C179.2 155.734 180.267 156.134 180.8 155.734C181.2 155.201 179.2 153.334 176.4 151.468C169.333 146.668 163.6 146.801 158.667 152.268Z" fill="black"/>
<path d="M443.467 169.467C437.467 173.2 434.934 176 439.867 173.333C447.067 169.6 453.467 173.333 460.401 185.2C467.867 197.733 476.667 226.667 478.667 245.067C479.334 250.667 480.801 262.8 482.001 272C484.134 288.133 484.134 300.667 482.001 305.867C480.934 308.133 481.201 308.133 485.067 306.133C488.134 304.533 489.467 302.8 490.134 299.067C492.134 288.667 488.134 255.6 481.201 224.667C479.734 218 477.867 209.6 477.201 206C475.467 198 464.001 173.6 460.267 170.267C458.934 168.933 455.867 167.333 453.601 166.8C450.134 165.733 448.534 166.133 443.467 169.467Z" fill="black"/>
<path d="M178.8 170.533C173.467 175.467 163.6 196 160.933 207.6C153.333 240.667 148 274.267 148 289.333C148 301.067 148.933 303.733 153.733 306.133C157.467 308.133 157.733 308.133 156.8 305.867C154.8 300.533 154.4 291.733 155.867 278.533C156.667 270.933 158 259.2 158.667 252.667C160.8 231.6 170.533 198.267 178.267 185.2C184.267 174.8 188.533 171.6 195.067 172.4C197.733 172.8 200 172.933 200 172.667C200 172.4 198 170.933 195.467 169.467C189.2 165.467 183.867 165.867 178.8 170.533Z" fill="black"/>
<path d="M208 186.401C202.134 189.067 198.134 193.201 194.534 200.134C192.4 204.401 190.667 209.067 190.667 210.401C190.667 211.734 189.2 217.067 187.467 222.134C180.934 240.667 174.667 278.134 174.667 297.734C174.667 307.334 175.334 309.734 182.534 327.734C186.8 338.534 192.267 352.667 194.667 359.334C197.067 365.867 200.534 374.667 202.267 378.667C206.534 388.001 219.6 414.667 221.2 417.334C221.867 418.401 223.067 420.934 224 422.934C226.4 427.867 238.134 439.467 243.2 441.867C249.067 444.534 258.667 446.001 258.667 444.134C258.667 443.334 256.4 442.667 253.6 442.667C246.8 442.667 237.734 436.801 230.534 427.734C227.467 423.867 221.2 412.801 216.667 403.334C206 381.067 205.067 378.801 200 366.001C197.6 360.134 194.667 352.801 193.2 349.734C191.867 346.667 190.667 343.334 190.667 342.401C190.667 341.467 188.534 335.867 186 330.134C183.467 324.267 181.6 319.334 181.867 318.934C183.067 317.734 188 322.267 189.6 326.001C190.4 328.134 194.267 336.667 198.134 344.801C202 353.067 206.8 363.467 208.8 368.134C210.667 372.801 213.867 379.601 215.734 383.334C217.467 386.934 220.4 393.867 222.134 398.667C225.734 408.401 235.467 423.334 243.334 431.067C250.667 438.267 257.2 441.334 264.934 441.201L271.334 441.067L264.534 440.001C257.467 438.934 249.334 434.534 244.534 429.201C237.2 420.934 222.667 396.934 222.667 393.067C222.667 388.534 192.267 326.001 186.4 318.401C181.334 312.001 181.867 284.801 187.467 258.001C188.534 252.801 190 244.401 190.667 239.201C192.267 226.534 201.334 203.334 207.467 196.267C211.6 191.467 212.934 190.667 217.734 190.534L223.334 190.401L218 187.867C212.267 185.201 211.067 185.067 208 186.401Z" fill="black"/>
<path d="M420 187.601L415.333 190.001L420.933 190.401C425.6 190.801 427.333 191.734 431.333 196.267C436.133 201.867 446.667 226.801 446.667 232.401C446.667 234.001 448.133 242.534 450 251.334C455.6 278.667 457.467 303.467 454.667 313.201C454 315.734 451.867 319.467 449.867 321.467C448 323.467 446.667 325.867 447.067 326.934C447.467 328.001 448.267 327.467 449.333 325.201C451.067 321.601 458.4 316.801 456.933 320.267C456.533 321.201 454 326.934 451.467 333.067C448.8 339.201 446.667 345.201 446.667 346.534C446.667 347.734 446.133 349.334 445.467 350.001C444.8 350.801 442.4 356.267 440.133 362.267C437.867 368.401 434.4 376.801 432.533 380.934C422.133 403.867 417.6 413.067 416.133 413.867C415.333 414.401 414.667 415.867 414.667 417.067C414.667 420.801 403.067 434.534 396.267 438.801C392.267 441.334 388.4 442.667 385.067 442.667C382.267 442.667 380 443.334 380 444.134C380 446.001 389.733 444.534 395.6 441.734C401.333 439.067 411.6 428.667 415.2 421.867C426.533 400.267 438.533 374.534 443.2 361.334C445.2 355.867 450.533 342.001 455.067 330.667C461.6 314.267 463.333 308.134 463.733 301.067C465.067 277.601 454.8 225.734 443.6 199.601C438.8 188.401 428.667 183.201 420 187.601Z" fill="black"/>
<path d="M304.267 202.801C298.667 206.934 288.4 220.801 287.333 225.868C287.067 227.334 285.2 235.601 283.467 244.001C274.4 286.268 274.533 337.468 284.133 379.334C290.267 406.801 296.667 422.268 304.267 428.801C309.467 433.068 312.933 433.068 308.533 428.668C302 422.134 295.733 404.534 290.8 378.668C287.867 363.068 286.667 344.134 286.667 311.468C286.667 252.668 293.6 217.334 308 202.934C313.467 197.601 311.6 197.468 304.267 202.801Z" fill="black"/>
<path d="M318.134 200.8C313.734 214.667 314 417.333 318.4 429.333L319.6 432.533L320.534 428.933C323.6 416.667 324.934 286.933 322.667 232.933C321.334 203.867 320.134 194.667 318.134 200.8Z" fill="black"/>
<path d="M330.534 202.933C339.067 211.2 344.134 224.4 348.134 249.067C350.667 264 351.067 271.6 351.067 312C351.067 361.6 350.4 369.067 344 395.333C339.734 412.667 335.067 423.6 330 428.8C328.267 430.533 327.467 432 328.4 432C334 432 343.467 418.933 347.734 405.333C357.334 374.533 361.6 345.6 361.6 312C361.6 282 359.2 260.133 353.467 236.8C348.934 218.933 343.734 209.6 334.267 202.667C327.067 197.467 325.067 197.6 330.534 202.933Z" fill="black"/>
<path d="M296.133 202C293.733 203.067 291.067 203.6 290.267 203.067C289.467 202.667 289.333 202.933 289.867 203.733C290.8 205.333 289.2 205.867 285.733 205.467C284.8 205.333 284 205.733 284 206.4C284 207.067 280.4 208.4 276.133 209.333C262.267 212.267 256.933 217.733 251.6 234.667C243.6 260.267 240 283.333 240 307.733C240.133 328 242.4 340.533 249.2 356.667C252.133 363.867 254.667 370.267 254.667 370.933C254.667 373.333 273.2 410.4 276.933 415.6C284.133 425.733 288 429.467 292.533 431.333C299.2 434.133 303.2 433.733 297.333 430.933C290.8 427.733 286.667 424.933 286.667 423.467C286.667 422.8 285.067 420.267 283.2 417.733C281.333 415.2 276.8 406.8 273.2 398.933C269.6 391.067 266 383.6 265.2 382.267C261.333 375.2 255.6 357.733 253.067 345.333C246.533 312.267 251.733 250.267 262.933 227.867C267.733 218.4 272 214.667 285.333 208.933C296.8 203.867 304 200.133 302 200.133C301.333 200.133 298.667 200.933 296.133 202Z" fill="black"/>
<path d="M346.668 205.466C352.934 208.4 360.134 211.866 362.668 213.066C372.001 217.6 380.001 232.666 382.668 250.4C383.468 255.333 385.068 265.6 386.268 273.333C389.201 292.266 389.068 330.666 386.001 342.666C384.934 347.466 383.334 353.733 382.801 356.666C380.934 365.333 379.334 369.333 365.334 399.466C357.334 416.533 349.201 427.6 342.001 430.8C335.868 433.466 339.201 434.266 345.734 431.6C349.468 430 354.268 425.466 361.734 416.133C364.534 412.666 382.668 376.133 382.668 374C382.668 373.066 385.068 366.933 388.001 360.266C395.734 342.266 397.468 334.8 398.268 314C399.468 280.666 391.068 236.266 380.268 219.066C377.601 214.8 371.201 211.2 362.668 209.333C351.601 206.933 350.534 206.533 351.334 205.2C351.734 204.533 351.068 204.4 349.868 204.933C348.134 205.6 347.868 205.333 348.668 204C349.334 202.8 349.201 202.533 348.268 203.2C347.468 203.733 344.934 203.2 342.801 202C340.534 200.933 338.001 200 337.068 200.133C336.134 200.133 340.401 202.533 346.668 205.466Z" fill="black"/>
<path d="M232 204.267C225.067 209.067 219.733 221.067 213.6 246C207.867 269.334 206 282.534 206 302C206 322.267 207.6 327.6 216.8 339.467C220 343.734 222.667 347.867 222.667 348.934C222.667 349.867 223.067 350.667 223.733 350.667C225.333 350.667 231.2 360.8 244.533 387.334C251.6 401.2 258.4 414.134 259.733 416C268 427.867 277.6 434.8 285.6 434.534H290L284.667 432.8C281.733 431.867 277.733 430.134 275.867 428.934C269.333 424.667 254.667 403.467 254.667 398.534C254.667 395.734 233.333 357.067 227.867 349.867C225.067 346.134 222.667 342.534 222.667 341.734C222.667 341.067 221.6 338.134 220.133 335.2C212.933 320 212.8 298.134 220.133 257.334C223.733 236.8 227.467 224.667 232.667 216.534C238 208.134 241.867 205.334 248 205.2L252.667 205.067L248.667 203.334C242.8 200.534 236.933 200.934 232 204.267Z" fill="black"/>
<path d="M390 203.2L386 205.067L390.667 205.2C396.8 205.333 400.667 208.133 406 216.533C410.934 224.4 413.2 231.467 418 254.667C423.867 283.733 425.6 307.6 422.8 322.133C421.2 330 413.734 346 406.934 355.733C402.267 362.267 385.334 394.667 380.8 405.6C378.267 411.867 367.334 425.867 362.8 428.933C360.934 430.133 356.934 431.867 354 432.8C348.934 434.4 348.934 434.533 352.667 434.533C361.067 434.667 370.934 427.733 378.934 416C380.134 414.133 386.667 401.867 393.334 388.667C407.334 361.2 412.934 351.6 420.667 341.333C427.734 332.133 429.334 329.067 431.467 320.667C436 303.733 430.4 257.733 420.534 230C418.667 224.933 416.4 218.667 415.6 216.133C414.667 213.733 412.134 209.6 410 207.067C406.8 203.333 404.8 202.267 400 201.867C396.4 201.6 392.4 202.133 390 203.2Z" fill="black"/>
<path d="M542.801 216.001C542.667 217.868 543.601 226.268 544.801 234.535C545.867 242.935 547.334 255.735 547.867 263.201L548.934 276.668L549.201 266.668C549.334 253.335 543.334 204.668 542.801 216.001Z" fill="black"/>
<path d="M93.4671 222.267C93.4671 223.067 92.8004 228.267 92.0004 233.6C89.2004 254.267 88.0004 272.267 89.3338 274.534C90.2671 276 90.5338 274.667 90.6671 269.334C90.6671 265.334 91.6004 254.4 92.8004 245.067C93.8671 235.6 94.5338 226.267 94.2671 224.267C94.0004 222.267 93.6004 221.334 93.4671 222.267Z" fill="black"/>
<path d="M468 326.267C464.8 334.934 460.934 345.6 459.2 350C454 363.734 446.667 384.267 446.667 385.2C446.8 385.6 447.6 384.4 448.667 382.534C451.6 377.2 475.067 311.867 474.267 311.2C474 310.8 471.067 317.6 468 326.267Z" fill="black"/>
<path d="M476.8 312.666C475.6 316.133 475.867 316.933 477.467 314.266C478.267 312.933 478.667 311.466 478.267 311.2C478 310.8 477.334 311.466 476.8 312.666Z" fill="black"/>
<path d="M164.667 314.266C165.067 315.599 170.667 330.799 176.934 347.999C183.201 365.199 188.801 380.266 189.467 381.333C192.001 385.733 190.401 379.733 185.201 365.866C182.267 357.866 177.467 344.666 174.667 336.666C168.801 319.733 165.601 311.999 164.534 311.999C164.134 311.999 164.134 313.066 164.667 314.266Z" fill="black"/>
<path d="M161.467 314.667C161.467 316.534 165.2 324.267 165.333 322.534C165.333 322 164.4 319.6 163.333 317.2C162.267 314.667 161.467 313.6 161.467 314.667Z" fill="black"/>
<path d="M171.334 318.667C172.534 320.801 175.2 327.601 177.467 333.601C179.734 339.734 183.6 349.867 186.134 356.134C188.667 362.534 190.667 368.801 190.667 370.134C190.667 374.401 207.2 409.734 214.134 420.667C217.734 426.401 221.6 432.534 222.8 434.534C223.867 436.401 227.734 440.001 231.2 442.267C236.4 445.867 237.067 446.667 234.534 446.667C232.934 446.667 231.867 446.934 232.267 447.334C232.667 447.734 235.467 447.734 238.667 447.201L244.267 446.267L239.467 444.667C236.8 443.734 232.667 441.467 230.267 439.601C225.2 435.734 210.934 412.401 203.6 396.001C200.8 389.734 197.334 382.134 196 379.067C194.534 376.001 192.267 369.334 190.8 364.401C188.267 355.467 176.134 323.467 173.067 317.601C172.267 316.001 171.067 314.667 170.4 314.667C169.734 314.667 170.134 316.401 171.334 318.667Z" fill="black"/>
<path d="M465.601 317.601C461.867 324.668 446.667 366.134 446.934 368.001C447.201 369.068 451.467 359.201 456.534 346.001C461.467 332.801 466.401 320.401 467.467 318.268C468.534 316.268 468.934 314.668 468.267 314.668C467.601 314.668 466.401 316.001 465.601 317.601Z" fill="black"/>
<path d="M470.267 330.934C462 354.8 454.667 374.934 450.667 384.934C448.4 390.134 446.667 395.334 446.667 396.267C446.8 399.6 454.667 379.334 465.467 348.8C471.334 332 475.867 318.134 475.467 317.734C475.2 317.467 472.8 323.334 470.267 330.934Z" fill="black"/>
<path d="M165.334 324.933C165.334 326.933 184.001 380.4 185.334 382C185.867 382.667 187.067 385.733 188.001 388.667C188.934 391.6 190.001 393.333 190.267 392.533C190.534 391.733 189.467 388.133 187.867 384.533C184.534 376.667 174.267 348.533 169.867 334.8C166.801 325.333 165.334 322 165.334 324.933Z" fill="black"/>
<path d="M436.4 332.4C428.4 340.8 414.667 362.667 414.667 367.2C414.667 369.467 393.334 411.734 390.267 415.334C389.2 416.8 385.734 421.067 382.934 424.8C376.934 432.4 370.667 436 363.067 436C359.6 436 358.534 436.4 359.867 437.2C362.4 438.8 370.267 437.467 376 434.534C378.534 433.2 383.334 428.8 386.667 424.667C390 420.534 393.334 416.4 394.134 415.6C396.267 413.2 414.667 376.934 414.667 374.934C414.667 370.4 431.867 340 438.4 333.067C440.267 331.067 441.467 329.067 441.2 328.667C440.8 328.4 438.667 330 436.4 332.4Z" fill="black"/>
<path d="M199.467 330.667C200.134 331.734 203.467 336.8 206.8 342C213.467 352.134 222.667 369.6 222.667 372.267C222.667 374.267 242.267 413.067 244.4 415.467C245.334 416.267 248.667 420.4 251.867 424.534C255.067 428.534 259.067 432.8 260.8 433.867C265.2 436.8 275.334 438.8 278.934 437.467C281.334 436.667 280.4 436.267 274.4 435.734C265.467 435.067 259.6 431.067 253.067 421.6C250.8 418.134 248.4 415.067 247.867 414.667C246.134 413.467 225.067 371.467 222.8 364.667C220.267 357.2 207.334 337.067 201.867 332C199.867 330.134 198.8 329.6 199.467 330.667Z" fill="black"/>
<path d="M438.401 343.334C434.267 351.334 429.334 361.867 427.334 366.667C425.334 371.467 421.734 379.334 419.201 384.401C416.667 389.334 414.667 394.267 414.667 395.334C414.667 402.134 394.934 430.134 386.401 435.467C383.334 437.467 377.734 439.467 374.134 440.001L367.334 441.067L374.001 441.201C384.401 441.334 392.801 435.867 402.801 422.267C407.334 416.267 411.734 409.467 412.667 407.334C413.601 405.067 416.001 399.734 417.734 395.334C422.134 385.067 434.667 357.334 441.467 342.801C449.467 326.134 446.801 326.534 438.401 343.334Z" fill="black"/>
<path d="M445.467 371.601C445.467 372.534 443.867 376.401 442.134 380.267C440.4 384.134 436.8 392.401 434 398.667C431.334 404.934 426 414.801 422.134 420.667C418.267 426.534 414.8 432.267 414.4 433.467C413.2 436.667 404.934 442.667 399.067 444.801C395.067 446.134 394.667 446.534 397.2 446.667C409.067 446.801 424.534 426.267 441.2 387.734C444.4 380.667 446.667 373.734 446.267 372.401C445.867 371.067 445.6 370.667 445.467 371.601Z" fill="black"/>
<path d="M190.667 385.467C190.667 388.534 197.867 405.467 202.934 414.534C209.334 425.867 216.534 436.134 222 441.601C224.8 444.401 226.134 446.667 225.2 446.667C223.734 446.667 223.734 446.934 225.334 448.001C226.4 448.667 228 449.334 228.667 449.334C229.467 449.334 229.067 448.667 228 448.001C226.667 447.201 226.534 446.667 227.6 446.667C228.534 446.667 226.8 444.134 223.734 440.934C215.467 432.401 204.267 414.401 197.067 398.001C193.6 389.867 190.667 384.267 190.667 385.467Z" fill="black"/>
<path d="M441.467 398.534C435.867 412 423.334 432 415.201 440.534C410.001 445.867 409.467 446.8 412.134 446.134C414.001 445.734 413.334 446.267 410.801 447.467C408.401 448.534 406.667 449.734 407.067 450.134C408.401 451.467 418.001 445.467 422.801 440.4C430.667 432.134 444.001 410.267 445.867 402.667C446.267 400.8 444.667 403.067 442.401 407.6C432.667 426 428.534 432.534 422.401 439.067C418.934 442.8 415.601 445.467 415.201 444.934C414.667 444.4 416.667 441.467 419.601 438.267C429.067 428 447.867 393.467 446.401 389.067C446.134 388.4 443.867 392.534 441.467 398.534Z" fill="black"/>
<path d="M190.667 397.467C190.667 400.401 201.2 420.667 207.6 430.134C210.667 434.401 215.334 440.134 218.134 442.667L223.334 447.334L217.734 441.334C211.2 434.134 200.267 416.667 194.8 404.267C192.534 399.334 190.667 396.267 190.667 397.467Z" fill="black"/>
<path d="M398.667 448C396.001 448.8 395.867 449.066 398.001 449.066C399.467 449.066 402.134 448.533 404.001 448C406.667 447.2 406.801 446.933 404.667 446.933C403.201 446.933 400.534 447.466 398.667 448Z" fill="black"/>
<path d="M239.733 448.933C240.533 449.199 242.133 449.199 243.067 448.933C243.867 448.533 243.2 448.266 241.333 448.266C239.467 448.266 238.8 448.533 239.733 448.933Z" fill="black"/>
</svg>
