<svg width="640" height="640" viewBox="0 0 640 640" fill="none" xmlns="http://www.w3.org/2000/svg">
<path d="M131.067 107.999C128.667 109.466 126.667 111.333 126.667 112.266C126.667 113.066 128 112.666 129.734 111.066C133.867 107.333 136.8 106.533 141.067 107.999C144.4 109.199 144.534 109.199 142.134 107.333C138.667 104.666 136.134 104.799 131.067 107.999Z" fill="black"/>
<path d="M496 107.467L492.667 109.467L496 108.4C501.067 106.933 505.2 107.467 508.134 110.133C509.467 111.333 510.667 111.733 510.667 110.933C510.667 109.2 503.867 105.333 501.067 105.333C500.134 105.467 497.867 106.267 496 107.467Z" fill="black"/>
<path d="M134 113.2C131.333 114.8 128.267 118.934 125.067 125.467C119.6 136.667 119.733 136.267 114.533 153.334C107.2 176.8 94.5334 240.8 94.8 252.667C94.9334 256.8 95.3334 255.467 96.8 247.334C109.6 172.4 120 134.534 131.467 119.067C135.867 113.2 142.267 112 148.933 116C152.4 118 153.333 118.267 152 116.667C149.733 113.867 143.467 110.667 140.4 110.667C139.067 110.667 136.133 111.734 134 113.2Z" fill="black"/>
<path d="M491.333 113.066C489.2 114.533 486.4 116.666 485.333 117.999C484 119.733 485.066 119.333 488.666 116.933C498.8 109.999 505.066 113.066 512.4 128.266C521.733 147.733 530.4 180.399 538.8 228.533C540.8 240.399 542.533 247.599 542.533 244.666C542.666 237.733 535.733 199.199 530 175.333C525.066 154.666 517.066 130.533 513.333 125.333C512.133 123.466 510.533 120.666 510 118.933C508.933 115.466 502 110.666 498 110.666C496.533 110.666 493.6 111.733 491.333 113.066Z" fill="black"/>
<path d="M511.867 115.333C514.133 119.733 516 122.133 516 120.667C516 119.867 514.667 117.867 513.2 116C511.467 113.733 510.933 113.6 511.867 115.333Z" fill="black"/>
<path d="M121.6 122.265C117.6 130.132 111.866 145.865 112.133 148.532C112.133 149.332 113.866 145.198 115.866 139.332C118 133.465 121.2 125.732 123.2 122.132C125.066 118.532 126.4 115.332 126.133 114.932C125.733 114.665 123.733 117.865 121.6 122.265Z" fill="black"/>
<path d="M140.266 123.599C131.333 129.465 124 147.465 114.8 186.665C103.6 233.999 92.3998 309.599 95.3331 318.532C97.1998 324.399 98.6665 320.932 98.6665 310.799C98.6665 285.332 110.933 213.065 122 172.799C124.533 163.465 126.666 155.065 126.666 154.132C126.666 153.199 128.933 147.732 131.866 141.865C139.333 126.265 146.533 121.465 155.733 125.865C160.266 127.999 160.4 127.999 158.533 125.865C156.8 123.732 149.466 119.999 146.933 119.999C146.4 119.999 143.333 121.599 140.266 123.599Z" fill="black"/>
<path d="M484 122.932C479.067 125.865 479.334 127.465 484.4 125.199C491.867 121.865 499.467 127.065 506 140.132C508.534 145.199 510.667 150.532 510.667 151.999C510.667 153.599 511.334 155.999 512 157.332C514 161.199 522.134 192.265 525.867 210.799C533.734 249.732 539.734 290.799 540.267 310.265C540.534 316.399 541.067 321.332 541.734 321.332C543.334 321.332 542.8 296.799 540.667 281.065C533.467 228.265 524.667 184.799 515.2 155.332C508.8 135.599 504.934 127.999 499.334 124.132C493.2 119.999 489.2 119.732 484 122.932Z" fill="black"/>
<path d="M150.267 137.199C147.733 139.599 143.467 145.599 140.8 150.666C135.867 160.399 128.8 180.933 127.333 189.999C126.933 192.933 124.8 203.466 122.667 213.333C114.933 248.666 108 295.866 108 311.866C108 319.066 108.533 321.199 110.133 321.866C111.333 322.266 112.267 322.666 112.4 322.666C112.533 322.666 112.8 317.066 112.933 310.266C113.2 295.466 115.867 274.666 122 239.999C124.533 225.733 127.333 210.133 128.133 205.333C130.533 191.733 140.8 161.466 146 152.666C150.933 144.266 157.867 137.333 161.333 137.333C162.4 137.333 164.933 138.266 167.067 139.199C169.067 140.266 170.667 140.799 170.667 140.266C170.533 138.399 163.867 134.533 159.467 133.733C155.867 133.199 154.267 133.866 150.267 137.199Z" fill="black"/>
<path d="M476 134.399C472.667 135.999 466.533 140.266 467.067 140.799C467.333 141.066 469.467 140.399 471.867 139.199C475.467 137.466 476.8 137.333 480.133 138.666C487.733 141.866 495.6 154.933 502 174.666C504 180.933 506.4 188.399 507.333 191.333C508.267 194.266 509.467 199.599 510 203.333C510.533 206.933 512.667 218.666 514.667 229.333C520.8 260.533 525.467 294.266 525.733 308.933C525.867 316.533 526.267 322.666 526.667 322.666C527.067 322.666 528.133 322.133 529.2 321.466C533.6 318.666 527.333 268.533 515.2 209.999C508.933 179.733 504.8 165.466 498.533 152.399C491.067 137.066 483.467 131.066 476 134.399Z" fill="black"/>
<path d="M171.067 150.4C164.667 151.467 159.2 158.8 152.8 174.8C140.134 206.8 129.2 257.733 126.667 297.2C125.334 318.4 125.867 324 129.2 324C131.067 324 131.334 321.867 131.467 308.267C131.6 280.533 144.134 215.2 154.667 186.933C156.667 181.333 158.8 175.067 159.2 173.2C160.4 167.733 167.334 159.333 172.667 156.8C177.334 154.533 178 154.533 183.2 156.533C188.534 158.667 188.667 158.667 186 156.133C182.534 152.667 174.8 149.733 171.067 150.4Z" fill="black"/>
<path d="M459.333 151.865C456.4 153.198 453.067 155.332 452 156.665C450.133 158.932 450.133 158.932 454.4 156.798C457.333 155.198 460.267 154.798 462.933 155.332C468 156.532 476.933 165.332 478.133 170.265C478.533 172.398 480.933 179.065 483.333 185.332C494.533 214.398 508.8 289.332 507.733 313.865C507.467 322.132 507.733 323.998 509.2 323.732C511.867 323.198 513.467 316.532 512.667 309.998C512.267 307.065 511.467 296.532 510.667 286.665C508 248.132 493.733 189.332 481.467 164.932C474.4 151.332 468.4 147.732 459.333 151.865Z" fill="black"/>
<path d="M187.333 169.065C185.2 170.399 182.666 172.399 181.733 173.465C177.733 178.399 170.666 192.665 167.6 202.132C160.8 223.465 159.866 226.932 158.666 236.799C158 242.399 156.8 249.065 156 251.732C151.066 270.265 146.133 320.932 148.933 324.932C149.466 325.732 151.6 326.799 153.6 327.332C157.2 328.265 157.333 328.265 155.733 323.999C154.266 319.732 154.8 310.132 158.666 272.665C161.466 244.799 173.733 201.465 183.066 186.132C190.4 173.999 194.4 171.065 200.666 172.932C206.266 174.665 206.533 174.399 201.6 170.799C195.866 166.799 191.866 166.265 187.333 169.065Z" fill="black"/>
<path d="M440.666 168.533C438.533 169.6 435.466 171.333 434 172.667L431.333 174.933L434 173.867C443.733 170.4 447.866 172.8 456.133 186.8C466.133 204.133 475.733 240.4 480.666 279.333C483.866 305.6 484.533 319.067 482.933 323.867C481.6 327.6 481.733 328 484 328C485.466 328 487.6 326.533 488.8 324.533C492.933 318.4 490.8 296.533 480.666 240.667C473.866 203.2 461.866 174.4 450.666 168.667C446 166.267 445.733 166.267 440.666 168.533Z" fill="black"/>
<path d="M212 186.266C201.334 190.399 195.2 202.266 187.334 234.133C178.8 267.866 175.467 289.333 175.467 310.266C175.334 326.399 175.6 327.999 178.134 330.933C179.734 332.533 182.934 338.666 185.334 344.399C187.734 350.133 190 354.533 190.267 354.133C190.667 353.733 189.334 349.466 187.467 344.533C185.467 339.733 184.134 335.333 184.534 334.933C185.734 333.866 189.2 337.333 190 340.399C191.467 345.466 202.667 370.533 212.8 391.733C218.267 403.066 222.667 412.533 222.667 412.933C222.667 413.199 226 417.866 230 423.199C240.267 436.799 249.467 442.799 259.734 442.533C264.534 442.399 264.534 442.266 258.534 441.333C250.134 439.866 245.734 437.333 238.534 429.733C231.6 422.399 222.667 410.399 222.667 408.266C222.667 407.466 218.534 398.133 213.334 387.466C208.267 376.799 204 367.733 204 367.333C204 366.933 201.067 360.266 197.334 352.533C193.734 344.799 190.667 338.133 190.667 337.599C190.667 337.199 189.067 335.066 187.067 332.933C183.334 329.199 183.334 328.933 183.467 311.599C183.734 272.266 196.4 216.933 209.467 197.866C213.334 192.133 215.2 191.066 223.334 190.399L227.334 189.999L223.067 187.599C218.8 185.333 215.6 184.933 212 186.266Z" fill="black"/>
<path d="M414.267 187.866L410.4 190.399H415.867C418.8 190.399 422.4 191.066 423.734 191.866C431.2 195.866 444 225.866 446.667 245.333C447.2 249.333 449.334 261.599 451.334 272.666C454.134 287.733 455.067 297.199 455.2 310.933L455.334 329.199L451.067 333.599C448.667 336.133 446.667 338.799 446.667 339.733C446.667 340.533 444 346.933 440.667 353.866C437.334 360.933 434.667 366.933 434.667 367.333C434.667 367.866 430.134 377.466 424.667 388.933C419.2 400.266 414.667 409.999 414.667 410.533C414.667 411.599 406.934 422.399 402.534 427.466C396.134 434.799 392.134 437.733 385.067 440.133C381.2 441.466 379.334 442.533 380.934 442.666C388.8 442.799 399.334 435.733 407.467 424.799C416 413.599 437.2 369.999 448 341.733C449.734 337.066 452.934 333.733 454.267 335.066C454.667 335.599 453.2 340.266 450.934 345.466C448.534 350.666 446.667 355.999 446.667 357.199C446.8 358.399 449.334 353.466 452.534 346.399C455.6 339.199 459.334 332.133 460.8 330.533C463.067 327.999 463.334 325.733 463.2 309.466C463.067 289.199 459.2 263.999 452 237.333C449.734 228.933 447.334 219.466 446.667 216.266C444.4 205.733 437.734 193.866 431.734 189.466C425.2 184.666 419.734 184.133 414.267 187.866Z" fill="black"/>
<path d="M304.401 202.533C294.667 209.6 288.801 219.333 285.734 233.333C274.401 285.466 273.734 338.933 284.001 378.666C284.801 382 285.867 386.4 286.267 388.666C288.534 402.266 298.667 424.4 304.934 429.333C309.867 433.2 312.534 432.666 308.534 428.666C300.934 421.066 292.267 393.066 288.534 363.733C285.734 341.733 286.534 273.2 289.734 253.733C294.534 225.2 299.467 211.466 307.867 202.933C313.201 197.6 311.467 197.333 304.401 202.533Z" fill="black"/>
<path d="M318.134 200.8C313.734 214.667 314 417.333 318.4 429.333L319.6 432.533L320.534 428.933C323.6 416.667 324.934 286.933 322.667 232.933C321.334 203.867 320.134 194.667 318.134 200.8Z" fill="black"/>
<path d="M330.533 202.533C339.066 210.533 345.466 228.8 349.466 257.333C351.6 272.933 351.6 355.733 349.466 370C345.466 395.6 337.333 420.933 330.666 428C325.866 433.066 329.2 433.333 334.533 428.266C341.466 421.866 347.6 408.533 351.333 392.133C352.266 388 354 381.066 355.066 376.666C364.933 337.733 364 278 352.666 233.733C348.266 216.533 344.266 209.733 334.266 202.533C327.333 197.6 325.2 197.6 330.533 202.533Z" fill="black"/>
<path d="M235.067 202.532C229.6 205.865 224.933 213.998 220.8 227.332C210.667 260.265 206.4 284.399 206.133 309.999C206 333.199 207.333 337.599 218.667 348.665C230.667 360.132 242.8 379.465 256.933 408.799C258 411.065 262.4 416.799 266.667 421.599C274.533 430.265 282 434.799 288.4 434.532C290.267 434.532 288.667 433.465 284.4 431.865C274.533 428.132 264.267 416.399 256.4 399.999C247.067 380.532 230.267 354.532 224.933 351.065C219.467 347.465 214.667 330.532 214.667 314.665C214.667 296.532 220 259.198 225.467 238.665C228.4 227.865 234.533 214.532 239.2 209.465C242.667 205.598 249.733 202.398 252.533 203.465C253.733 203.865 254.667 203.732 254.667 202.932C254.667 201.598 248.4 199.998 242.8 199.998C240.933 199.998 237.467 201.198 235.067 202.532Z" fill="black"/>
<path d="M294 202.799C290.4 204.266 283.333 206.266 278.267 207.333C273.333 208.399 267.733 210.266 265.867 211.466C261.867 214.133 255.333 223.333 254.267 227.999C253.867 229.866 251.733 237.733 249.467 245.466C240.8 275.733 237.6 317.733 242.133 339.599C243.2 345.199 246.533 354.533 249.467 360.266C252.267 365.866 254.667 371.199 254.667 371.999C254.667 373.599 275.733 413.599 277.067 414.666C277.6 415.066 280.4 418.399 283.2 422.266C288.267 429.066 295.6 433.466 301.067 433.199C302.267 433.199 301.6 432.533 299.333 431.733C294.267 429.999 286.667 424.399 286.667 422.399C286.667 421.599 285.2 418.933 283.333 416.533C278.4 409.999 256.133 364.399 255.2 358.799C254.8 356.133 253.467 350.133 252.4 345.333C249.733 334.799 249.467 298.133 251.867 281.866C252.667 275.999 254 266.399 254.667 260.533C255.333 254.666 257.6 244.266 259.867 237.199C263.333 226.666 264.933 223.466 270.267 217.866C275.6 212.133 278.667 210.266 289.733 205.999C296.8 203.333 302.667 200.799 302.667 200.533C302.667 199.599 300.8 199.999 294 202.799Z" fill="black"/>
<path d="M342 203.334C345.733 205.067 351.733 207.467 355.6 208.534C365.333 211.6 373.333 220.667 377.866 234.4C383.6 251.067 388.4 287.334 388.4 314C388.533 333.334 388.133 338.267 385.6 347.6C384 353.6 382.666 359.6 382.666 360.8C382.666 364.267 360.666 408.534 354 418.667C348.533 426.934 345.466 429.467 337.333 432.4C335.733 432.934 335.866 433.2 337.6 433.2C350 433.734 364.266 414.4 385.333 368.667C386.8 365.734 389.333 360.267 391.066 356.4C396.933 344.134 398 336.934 398 312C398 280.667 393.866 255.867 384.4 229.467C379.466 215.867 373.866 210.134 363.333 208C358.933 207.2 351.466 205.067 346.666 203.2C335.733 199.2 333.2 199.2 342 203.334Z" fill="black"/>
<path d="M387.067 200.933C385.334 201.199 384 202.133 384 202.933C384 203.599 384.934 203.866 386.134 203.466C388.934 202.399 396 205.599 399.467 209.466C406.134 216.933 412.4 232.799 416 251.333C423.867 292.399 425.867 318.933 422.134 333.199C419.867 341.999 417.467 346.133 408.934 355.999C403.334 362.399 391.867 380.533 386.534 391.333C384.667 394.933 381.467 401.466 379.334 405.733C377.2 409.866 372.134 417.066 368 421.466C362.267 427.866 359.067 430.133 353.334 432.133C347.867 433.999 346.934 434.533 349.6 434.666C356.667 434.666 363.867 430.533 371.867 421.733C376.267 416.933 380.4 411.466 381.334 409.466C393.334 383.599 409.067 358.933 420.134 348.266C431.334 337.733 432.667 333.199 432.534 309.999C432.4 297.599 431.334 285.866 429.467 274.799C426.267 256.666 419.6 230.933 416.534 224.799C415.467 222.666 414.667 219.999 414.667 218.933C414.667 215.599 408.267 205.733 404.134 202.799C400.4 200.133 394.534 199.466 387.067 200.933Z" fill="black"/>
<path d="M542.667 258.266C542.667 260.533 543.6 269.2 544.667 277.6C545.867 285.866 547.2 298.933 547.867 306.666C548.934 320.133 548.934 320.266 549.2 310.933C549.334 302 544.4 256 543.2 254.8C542.934 254.533 542.667 256.133 542.667 258.266Z" fill="black"/>
<path d="M91.6001 283.332C88.2667 314.266 88.0001 316.666 89.4667 318.799C90.2667 319.999 90.6667 318.666 90.6667 314.132C90.6667 310.532 91.6001 299.332 92.8001 289.332C93.8667 279.199 94.6667 268.932 94.4001 266.532C94.1334 263.999 92.9334 271.599 91.6001 283.332Z" fill="black"/>
<path d="M172 332.666C172 333.066 174.933 341.066 178.533 350.399C182 359.733 186 370.266 187.333 373.733C188.667 377.199 190.133 379.466 190.667 378.666C191.2 377.866 195.067 385.066 199.333 394.799C203.6 404.399 207.733 412.933 208.533 413.866C211.067 416.399 222.667 434.133 222.667 435.333C222.667 441.066 204.4 412.799 197.2 395.999C194.133 388.666 191.333 382.933 190.933 383.199C190.133 384.133 201.467 409.066 206.133 416.666C211.333 425.199 220.533 436.666 222.133 436.666C222.8 436.666 226 438.533 229.333 440.799C232.667 443.066 236.8 445.333 238.667 445.866C240.667 446.399 239.867 445.599 236.667 443.866C233.733 442.266 229.867 439.733 228.267 438.133C223.467 433.999 208.667 411.066 204.533 401.999C202.667 397.599 199.067 389.599 196.533 384.266C194 378.933 192 373.866 191.867 372.933C191.867 372.133 191.333 372.533 190.8 373.866C190 375.866 188.8 373.466 185.333 364.133C182.933 357.466 181.333 351.599 181.733 351.066C182.267 350.666 182.933 351.066 183.333 352.133C187.733 364.266 190.533 370.933 190.667 369.066C190.667 366.933 187.467 357.599 183.467 348.666C182.533 346.399 180.533 341.733 179.2 338.133C177.867 334.533 176.667 332.133 176.4 332.933C176.133 333.733 177.067 337.466 178.667 341.199C180.133 344.933 181.333 348.799 181.333 349.599C181.333 352.666 179.067 348.666 176 340.266C173.333 332.933 172 330.399 172 332.666Z" fill="black"/>
<path d="M460.001 336.933C459.067 339.733 456.934 344.933 455.334 348.666C450.801 358.666 446.134 371.999 446.934 372.666C447.334 373.066 449.334 368.666 451.334 363.066C453.334 357.333 455.467 351.999 456.001 351.333C457.867 348.666 463.067 333.199 462.267 332.533C461.867 332.133 460.801 334.133 460.001 336.933Z" fill="black"/>
<path d="M462.267 340.932C460.4 345.865 456.133 357.065 452.8 365.732C446.667 381.465 445.467 385.465 448.133 381.065C450.267 377.332 466.8 332.932 466.133 332.399C465.867 332.132 464.133 335.999 462.267 340.932Z" fill="black"/>
<path d="M200.267 345.599C203.867 351.865 206.933 358.132 219.6 385.332C227.2 401.865 232.4 412.265 233.867 413.732C234.667 414.665 237.6 418.399 240.267 421.999C245.6 429.332 253.867 436.532 259.333 438.665C261.333 439.465 265.333 439.865 268.4 439.865C271.6 439.732 272.533 439.465 270.667 439.199C262.267 437.865 256.267 435.465 252.133 431.599C244.667 424.532 232.933 407.865 227.733 396.532C211.067 361.065 207.333 353.199 203.067 346.399C197.067 336.799 194.533 336.132 200.267 345.599Z" fill="black"/>
<path d="M435.6 346.267C431.334 353.333 422.534 371.2 410.534 397.333C405.6 408.267 393.734 424.933 386.4 431.6C382 435.467 376.667 437.6 368 439.2C366.134 439.6 368 439.733 372.134 439.467C381.467 439.067 389.6 433.733 397.734 422.933C400.8 418.8 404 414.667 404.8 413.733C406.534 412 414.534 395.467 429.467 363.333C432.134 357.467 436.134 349.467 438.534 345.6C444.134 336.133 441.6 336.8 435.6 346.267Z" fill="black"/>
<path d="M206.667 343.465C206.667 344.265 208.267 346.265 210.134 348.132C213.867 351.599 222.667 366.532 222.667 369.332C222.667 372.132 243.734 409.732 250 418.132C260.8 432.665 265.2 435.732 276.4 436.799L283.334 437.332L276.4 435.465C267.6 433.332 259.067 427.732 256.267 422.399C254.934 420.132 252.667 416.665 251.067 414.665C247.734 410.532 227.067 372.532 221.067 359.465C219.067 355.065 206.8 341.332 206.667 343.465Z" fill="black"/>
<path d="M425.2 349.065C422 352.665 418.266 357.865 416.8 360.799C408.533 378.265 390.8 410.932 388 413.999C386.8 415.465 384.133 419.199 382.266 422.132C378.266 428.665 371.466 433.199 362.133 435.599L355.333 437.332L362.266 436.799C373.866 435.732 378.8 432.132 389.733 416.532C397.2 405.999 414.533 374.932 414.666 372.132C414.666 368.932 424 352.932 428.4 348.399C430.666 345.999 432.133 343.732 431.733 343.332C431.333 342.932 428.4 345.465 425.2 349.065Z" fill="black"/>
<path d="M190.8 358.132C190.667 361.599 195.867 374.266 206.667 396.266C216.267 415.866 223.6 427.999 229.6 434.399C234.667 439.599 245.734 445.332 250.667 445.199C252.8 445.199 251.467 444.399 246.934 443.066C238.267 440.532 228 431.599 222.534 421.866C214.934 408.532 201.067 380.266 196 367.999C193.067 361.066 190.8 356.666 190.8 358.132Z" fill="black"/>
<path d="M443.467 366.132C438.134 380.399 422.934 411.465 418.134 417.732C416.4 420.132 414.534 423.332 414.134 424.932C412.534 430.265 399.467 440.799 391.734 443.065C387.334 444.399 385.867 445.199 388 445.199C393.2 445.332 402.8 440.399 409.067 434.265C412.134 431.332 414.667 428.265 414.667 427.732C414.667 426.532 421.467 415.732 422.934 414.665C424.134 413.732 439.734 380.799 443.867 370.399C445.6 366.265 446.667 361.999 446.4 361.199C446.134 360.265 444.8 362.532 443.467 366.132Z" fill="black"/>
<path d="M443.067 382.266C441.467 385.866 437.734 393.733 434.934 399.999C430.134 410.666 417.734 430.266 411.6 436.933C410.134 438.666 405.867 441.599 402.134 443.466C397.067 445.999 396.4 446.666 399.334 446.133C401.6 445.599 405.867 443.466 409.067 441.333C412.134 439.199 414.667 437.999 414.667 438.666C414.667 439.333 412.4 441.466 409.734 443.333C406.934 445.199 405.334 446.666 406 446.666C408 446.666 413.467 442.666 417.067 438.666C426.4 428.266 447.734 390.399 446.4 386.399C446.134 385.733 443.6 390.666 440.667 397.466C435.334 409.999 422.667 430.666 417.467 435.199C416 436.666 414.667 437.466 414.667 436.933C414.667 436.133 426.934 417.733 429.467 414.799C431.734 412.266 446.8 378.533 446.4 377.066C446.134 376.533 444.667 378.799 443.067 382.266Z" fill="black"/>
<path d="M223.867 440.533C225.6 442.667 230.667 446 230.667 444.933C230.667 444.667 228.667 443.067 226.4 441.333C223.6 439.333 222.667 439.067 223.867 440.533Z" fill="black"/>
<path d="M374.4 442.266C375.334 442.666 376.534 442.533 376.934 442.133C377.467 441.733 376.667 441.333 375.2 441.466C373.734 441.466 373.334 441.866 374.4 442.266Z" fill="black"/>
</svg>
