<svg width="640" height="640" viewBox="0 0 640 640" fill="none" xmlns="http://www.w3.org/2000/svg">
<path d="M112.667 87.9995C106.934 90.2661 102.667 97.0661 97.8674 111.066C93.0674 125.333 94.1341 125.066 99.3341 110.799C106.401 91.5995 114.667 84.9328 122.801 91.9995L126.001 94.7995L122.001 94.5328C113.601 93.9995 112.267 94.5328 108.267 101.066C103.067 109.066 94.6674 133.999 94.8007 140.799C94.8007 145.199 95.3341 144.266 98.0007 134.666C102.667 117.599 107.867 105.733 112.801 100.399C116.667 96.2661 117.867 95.7328 121.734 96.3995C127.067 97.1995 127.734 94.7995 123.467 90.7995C119.867 87.5995 116.001 86.5328 112.667 87.9995Z" fill="black"/>
<path d="M519.333 87.999C516.267 89.199 510.933 94.6657 512.8 94.6657C513.467 94.6657 513.333 95.199 512.667 95.7324C510.133 97.4657 501.6 108.666 501.067 110.666C500.8 111.732 499.867 113.466 499.067 114.399C495.733 117.866 497.333 118.532 501.067 115.199C506.933 109.732 508.533 109.199 513.333 111.732C516.533 113.332 519.333 116.666 522.8 123.199C530.933 138.399 540 177.066 540.4 198.799C540.667 213.732 542.667 210.266 542.667 194.932C542.667 164.132 529.733 118.132 518.267 108.532C513.6 104.666 510.8 104.532 506.133 108.132C500.8 112.399 502 109.332 508.667 102.266C520.4 89.8657 528 95.8657 537.867 125.332C540.933 134.266 542.667 137.866 542.667 135.332C542.533 127.866 533.733 104.799 528.133 97.4657C526.133 94.799 524.533 94.2657 519.2 94.399H512.667L515.867 91.8657C520 88.5324 525.067 88.6657 528.933 92.2657C530.667 93.8657 532 94.5324 532 93.7324C532 89.999 523.733 86.1324 519.333 87.999Z" fill="black"/>
<path d="M533.467 95.3336C533.467 96.0002 534.267 98.1336 535.333 100C536.4 101.867 537.2 102.667 537.2 102C537.2 101.2 536.4 99.2002 535.333 97.3336C534.267 95.4669 533.467 94.5336 533.467 95.3336Z" fill="black"/>
<path d="M128 100.665C128.933 101.865 130 102.399 130.267 102.132C131.2 101.199 129.333 98.6653 127.733 98.6653C126.933 98.6653 126.933 99.4653 128 100.665Z" fill="black"/>
<path d="M120.133 108.799C109.733 117.599 98.1334 155.865 95.2001 191.065C94.5334 199.999 94.8001 202.932 96.4001 206.132C98.5334 209.999 98.5334 209.865 98.6668 199.332C98.8001 172.799 109.067 132.265 119.467 117.199C125.2 108.799 130.267 108.265 137.733 115.065C139.733 116.932 141.333 117.999 141.333 117.332C141.333 115.332 129.067 105.332 126.533 105.332C125.333 105.332 122.4 106.932 120.133 108.799Z" fill="black"/>
<path d="M490.667 124.132C486.533 131.865 486.533 132.265 489.467 130.265C494.667 126.532 499.733 127.465 504.8 132.665C507.2 135.332 509.733 139.332 510.533 141.732C511.2 144.132 513.333 150.265 515.2 155.599C520.667 170.799 525.6 197.465 525.867 212.932C526 226.132 526.133 226.532 528.267 223.599C533.6 216.799 528.933 178.932 519.6 151.332C514 134.932 509.733 127.332 504.933 124.665C500.8 122.399 500.133 122.399 496.133 124.399C491.333 126.799 491.2 126.665 494.133 121.199C495.2 118.932 496 116.799 495.6 116.532C495.333 116.265 493.067 119.599 490.667 124.132Z" fill="black"/>
<path d="M133.067 125.2C130.667 126.533 127.601 129.733 126.401 132.266C113.467 159.2 103.201 216.666 110.401 223.066C112.534 225.066 112.667 224.4 112.934 212.933C113.201 192.133 121.601 155.333 129.601 138.933C134.667 128.8 142.267 125.333 149.201 130.133C152.134 132.266 152.267 132.266 150.934 129.866C150.134 128.4 146.934 126.266 143.601 125.066C137.867 123.066 137.334 123.066 133.067 125.2Z" fill="black"/>
<path d="M93.4666 130.133C93.4666 131.599 93.8666 131.999 94.2666 130.933C94.6666 129.999 94.5333 128.799 94.1333 128.399C93.7332 127.866 93.3333 128.666 93.4666 130.133Z" fill="black"/>
<path d="M481.467 134.534C477.6 142 478 143.2 482 136.134C483.867 132.934 485.067 130 484.8 129.734C484.4 129.334 482.934 131.467 481.467 134.534Z" fill="black"/>
<path d="M156.134 134.665C158 138.799 158.667 139.465 158.667 137.865C158.667 137.065 157.734 135.332 156.534 133.865C154.667 131.465 154.667 131.465 156.134 134.665Z" fill="black"/>
<path d="M542.801 145.332C542.801 147.866 543.601 153.866 544.667 158.666C545.734 163.466 547.067 173.599 547.601 181.332C548.134 189.866 548.801 193.732 549.334 191.332C549.734 189.066 549.601 182.266 549.067 175.999C547.867 162.532 542.934 138.266 542.801 145.332Z" fill="black"/>
<path d="M481.334 143.866C476.401 145.999 469.201 151.199 467.868 153.733C466.401 156.266 466.534 156.266 470.668 153.333C477.068 148.799 480.934 149.466 487.334 156.133C493.334 162.533 499.068 177.599 504.134 199.866C507.601 215.066 509.068 242.266 506.668 246.666C504.934 249.999 504.934 249.999 507.734 247.599C515.468 240.666 513.201 201.466 503.201 169.999C497.868 153.466 487.601 141.199 481.334 143.866Z" fill="black"/>
<path d="M147.734 147.599C135.6 160.666 126.667 192.533 126.267 224.266C126 241.199 126.267 242.799 128.8 245.333L131.467 248.133L130.934 236.399C130.267 221.333 134.134 197.999 140.8 177.333C145.2 163.733 146.534 161.199 152.134 155.599C159.067 148.533 160.934 148.266 168.4 153.599C171.734 155.866 172 155.999 170.534 153.733C168.267 150.133 158.134 143.999 154.4 143.999C152.534 143.999 149.734 145.599 147.734 147.599Z" fill="black"/>
<path d="M92.267 155.066C89.7337 168.533 88.0004 189.199 89.2004 192.399C89.867 194.133 90.5337 190.933 91.067 182.666C91.6004 175.866 92.667 166.533 93.467 161.999C94.267 157.466 94.667 151.999 94.4004 149.866C94.1337 147.066 93.467 148.533 92.267 155.066Z" fill="black"/>
<path d="M170.133 168.133C164.533 172.533 160.4 180.933 156.133 197.333C150.667 218.266 148 234.266 148 247.2C148 257.333 148.4 258.933 153.333 268.666C156.267 274.4 158.667 280.133 158.667 281.333C158.667 282.4 159.467 284.533 160.4 286C163.733 290.8 190.667 365.2 190.667 369.333C190.667 372.8 204.667 407.066 209.733 416C222 437.866 229.867 446.8 236.8 446.666C238.667 446.533 238.267 446 235.333 444.4C230.667 442 222.667 434.666 222.667 432.933C222.667 432.266 219.733 426.8 216.133 420.8C207.333 406.133 194.133 374.4 189.6 356.666C186.667 344.933 168 295.733 162.533 285.466C160.933 282.266 159.067 277.6 158.533 274.933C158 272.133 156.8 267.333 156 264C154.4 257.733 154.8 246.266 157.6 225.333C160.667 201.466 167.733 182.533 176.133 175.333C179.733 172.4 181.467 171.866 185.6 172.4C190.667 173.066 190.667 173.066 187.733 170.8C179.733 164.666 175.467 164 170.133 168.133Z" fill="black"/>
<path d="M453.6 168.533C447.2 173.066 447.2 173.199 453.333 172.399C458.133 171.733 459.333 172.133 462.8 175.466C467.067 179.466 472.267 188.666 475.467 197.866C477.333 203.066 478 206.266 482 233.333C484.533 249.466 484.4 260.533 481.867 267.333C480.8 270.266 479.6 274.266 479.333 276.266C479.067 278.133 476.8 284.133 474.267 289.599C471.733 294.933 468.267 303.199 466.533 307.999C464.933 312.799 463.067 317.199 462.667 317.999C462.133 318.666 459.733 325.333 457.333 332.666C454.933 339.999 451.867 348.533 450.4 351.733C449.067 354.799 447.333 360.399 446.667 363.999C444.8 373.466 430.267 408.133 423.067 419.999C419.733 425.466 416.133 431.466 415.2 433.466C412.933 437.599 408.667 441.599 403.333 444.399C400.533 445.866 400 446.533 401.733 446.666C406.8 446.666 412.133 442.266 418.4 432.933C431.733 413.066 438.267 398.399 452.667 354.666C456.133 343.999 462.933 325.066 467.6 312.666C472.4 300.133 477.067 287.599 478.267 284.666C479.333 281.733 482.4 275.066 485.067 269.999C490 260.799 490 260.533 490 244.666C489.867 215.866 479.333 177.199 469.067 168.533C464.133 164.533 459.333 164.533 453.6 168.533Z" fill="black"/>
<path d="M195.067 190.665C192.667 192.132 190.667 194.132 190.667 195.065C190.667 195.999 189.467 199.199 188.133 202.132C178.267 222.665 171.867 264.399 175.867 281.732C176.533 284.665 179.333 290.399 181.867 294.665C188.533 305.465 200.667 329.065 206.267 341.999C213.333 358.265 221.467 378.799 222.933 383.999C224.533 389.332 235.6 413.599 237.067 414.665C237.6 415.065 240.267 418.799 243.2 423.065C246 427.199 250.667 432.399 253.6 434.532C259.467 438.799 268.533 440.799 273.467 438.799C276.267 437.732 275.733 437.465 270.267 437.465C263.333 437.332 256.8 434.665 253.067 430.132C247.2 423.199 238.4 409.199 234.267 399.999C224.133 377.999 222.667 374.532 222.667 372.665C222.667 370.532 218.8 360.265 214 350.132C212.4 346.399 208.4 337.999 205.467 331.332C202.4 324.799 199.067 318.532 198.133 317.332C193.867 312.265 185.733 294.132 183.733 284.932C180.4 269.199 187.6 221.865 195.867 205.465C200.667 195.999 206.4 191.599 212.667 192.665C216.267 193.199 216.133 193.065 211.333 190.799C204.4 187.465 200.267 187.465 195.067 190.665Z" fill="black"/>
<path d="M427.334 190.8C422.4 193.066 422.4 193.2 426 192.666C434 191.2 443.867 202.133 446.8 215.733C447.334 218.4 448.8 224.266 449.867 228.666C455.334 249.6 457.467 276.666 454.534 287.333C452.667 293.866 443.334 313.866 439.867 318.533C436.534 323.2 420.934 357.733 417.334 368.933C413.867 379.333 413.067 381.333 405.067 398.666C396.4 417.2 386.134 431.466 378.4 435.466C376.4 436.533 372.267 437.333 369.067 437.333C364.534 437.466 363.867 437.733 365.734 438.8C369.467 440.933 379.334 438.8 385.067 434.533C388 432.4 392.667 427.2 395.467 423.066C398.4 418.8 401.067 415.066 401.6 414.666C402.934 413.6 414.667 388.133 414.667 386.266C414.667 383.066 436 332.8 442.134 321.6C444.667 317.066 446.667 312.666 446.667 312C446.667 311.333 449.467 306.4 452.934 301.066C456.4 295.733 460.267 288.266 461.6 284.666C467.6 267.333 461.467 225.333 449.2 199.2C443.734 187.733 438.134 185.6 427.334 190.8Z" fill="black"/>
<path d="M299.333 200.8C297.2 201.867 293.467 204 291.2 205.467C287.467 207.733 286.933 207.733 286.133 206C285.733 204.8 285.867 204.267 286.667 204.667C288 205.467 296.667 201.6 295.6 200.533C294.533 199.467 284.667 203.467 284.933 204.933C285.067 205.733 284.4 206.8 283.2 207.2C282.133 207.6 281.6 207.467 282 206.667C283.467 204.267 279.2 205.2 275.6 208C273.733 209.467 271.6 210.667 270.933 210.667C270.133 210.667 269.2 211.2 268.8 211.733C268.4 212.4 269.867 212.533 272.133 212.267C274.267 212 276 211.2 276 210.533C276 209.867 276.933 209.733 278 210.133C279.467 210.8 279.867 210.267 279.2 208.533C278.667 206.667 278.8 206.4 279.733 207.867C280.533 208.933 282.133 209.333 284.133 208.8C286.667 208.133 286.533 208.4 283.333 210.133C281.2 211.467 276 213.333 272 214.267C256.8 218.267 252.267 224.267 246 249.333C236.667 286 238 321.867 250 355.067C252.533 362.267 254.667 369.067 254.667 370.133C254.667 373.867 270.667 410.133 274.933 416.133C282 426.133 287.067 430.667 292.4 432.133C297.867 433.6 302.533 432.933 298 431.333C296.533 430.8 293.733 429.867 291.867 429.067C280.8 425.067 260 376.933 253.067 339.2C249.2 317.867 249.2 288.267 253.2 261.733C257.6 231.867 262.267 222.933 277.333 215.333C283.333 212.267 304 199.733 304 199.067C304 198.4 303.6 198.533 299.333 200.8Z" fill="black"/>
<path d="M300.667 207.067C290.801 217.467 287.734 223.6 284.001 240C275.067 278.8 274.267 326.667 282.134 366.8C284.001 376.533 286.001 387.6 286.667 391.333C290.001 411.067 302.267 432 310.401 432C312.134 432 311.867 431.467 309.601 429.867C302.401 424.933 294.934 403.2 289.734 372.667C286.267 351.733 286.267 271.333 289.734 251.333C293.867 227.333 300.001 211.733 308.401 202.933C310.934 200.267 311.867 198.667 310.667 198.667C309.601 198.667 305.067 202.533 300.667 207.067Z" fill="black"/>
<path d="M318.134 200.8C313.734 214.667 314 417.333 318.4 429.333L319.6 432.533L320.534 428.933C323.6 416.667 324.934 286.933 322.667 232.933C321.334 203.867 320.134 194.667 318.134 200.8Z" fill="black"/>
<path d="M331.867 204.8C344.001 218.667 349.867 244.8 351.201 291.333C352.667 341.733 349.734 376.667 341.734 405.333C338.934 415.333 332.667 427.333 329.067 429.867C326.667 431.6 326.534 432 328.267 432C334.801 432 346.134 415.333 349.334 401.333C350.001 398 351.867 390.267 353.201 384C364.801 334.133 364.801 276.533 353.201 234.667C349.201 220.667 347.067 216.8 338.001 207.067C328.801 197.467 323.601 195.467 331.867 204.8Z" fill="black"/>
<path d="M341.334 203.867C346.134 206.8 353.601 211.067 358.001 213.467C362.401 215.733 368.001 219.2 370.534 221.067C375.734 224.933 381.067 236.133 382.801 246.667C383.467 250.667 384.801 259.6 385.867 266.267C390.534 295.333 390.001 318.533 383.867 347.333C379.067 370.533 364.667 407.6 355.734 419.733C349.334 428.533 348.667 429.067 343.601 430.267C341.601 430.667 339.601 431.6 339.201 432.267C337.867 434.4 346.801 432 351.734 429.067C354.267 427.467 358.801 422.667 362.134 418.267C367.867 410.267 380.801 382.267 382.667 373.333C383.201 370.8 385.867 362.4 388.667 354.667C395.601 334.933 398.667 317.733 398.667 298.933C398.534 262.933 388.667 224.8 377.734 218.4C375.734 217.2 370.401 215.2 366.001 214C357.201 211.467 350.001 208.133 351.067 207.067C351.467 206.8 353.067 207.2 354.667 208C356.401 208.933 357.334 208.933 356.801 208.267C356.401 207.467 356.801 206.533 357.601 206.133C358.534 205.733 358.001 205.733 356.267 206.133C354.267 206.667 353.334 206.267 353.601 205.2C353.867 204.267 351.467 202.8 348.267 201.867C345.201 200.933 342.934 200.667 343.334 201.467C344.401 203.067 342.267 203.067 340.667 201.467C339.867 200.8 337.867 199.867 336.001 199.333C334.134 198.8 336.534 200.933 341.334 203.867ZM351.334 204.267C353.734 204.133 353.867 204.267 351.601 205.467C350.001 206.4 348.534 206.267 346.267 204.533C343.734 202.667 343.734 202.533 346.001 203.333C347.467 203.867 349.867 204.267 351.334 204.267Z" fill="black"/>
<path d="M228 207.067C220.267 210.933 211.334 234.267 207.467 260.4C203.2 288.667 204.934 303.2 215.467 325.733C219.334 334.533 222.667 342.267 222.667 343.067C222.667 344 223.6 346.4 224.8 348.667C226 350.8 229.6 359.2 232.934 367.2C236.267 375.2 239.467 382.667 240 383.867C240.667 385.067 244.8 393.6 249.2 402.933C258.934 423.867 266.134 432 277.2 434.667C282.4 435.867 284.667 435.867 285.734 434.8C286.8 433.733 286 433.333 282.4 433.333C279.734 433.333 275.867 432 273.2 430.267C267.867 426.667 256.267 411.733 255.067 406.8C254.667 404.933 251.6 397.6 248.267 390.667C245.067 383.733 240.667 373.733 238.667 368.667C236.667 363.467 232.8 354.667 230.134 348.933C224 335.867 217.867 317.333 215.867 305.733C213.867 294 215.2 268.533 218.667 252C220.134 245.067 222 236.267 222.667 232.667C224.134 225.333 230.934 214.4 235.467 211.867C237.067 211.067 240 210.267 242 210.267C246.267 210.267 244.934 208.933 238.8 206.8C233.2 204.933 232.134 204.933 228 207.067Z" fill="black"/>
<path d="M398.4 207.066C392.267 208.799 391.867 210.266 397.6 210.266C400.933 210.266 403.067 211.466 407.6 216.532C410.8 220.132 413.733 224.532 414.133 226.532C414.533 228.399 416.4 235.866 418.133 243.199C425.333 272.932 425.867 301.866 419.333 319.999C417.333 325.466 415.333 331.732 414.8 333.999C414.133 336.132 411.467 342.799 408.667 348.666C406 354.532 402 363.466 400 368.666C398 373.732 393.2 384.532 389.467 392.532C385.733 400.532 382.667 407.732 382.667 408.666C382.667 411.466 370.267 427.066 365.467 430.266C362.933 431.999 358.933 433.332 356.133 433.332C352.267 433.466 351.733 433.732 353.6 434.799C355.2 435.599 357.867 435.599 362.267 434.532C372.4 431.866 379.733 423.599 389.333 403.066C393.867 393.732 398 385.066 398.667 383.866C399.2 382.666 402.533 374.932 406 366.532C409.333 358.132 412.8 350.799 413.467 349.999C414.133 349.332 414.667 347.732 414.667 346.532C414.667 345.199 418 337.199 422 328.666C432.8 305.599 435.067 291.599 432 265.199C429.467 242.532 422 219.732 414 209.999C410.8 206.132 405.333 205.066 398.4 207.066Z" fill="black"/>
<path d="M360 207.2C360 207.467 360.933 208.134 362.133 208.534C363.2 208.934 363.733 208.8 363.333 208C362.533 206.667 360 206.134 360 207.2Z" fill="black"/>
<path d="M366.667 211.2C366.667 211.467 367.6 212.134 368.8 212.534C369.867 212.934 370.4 212.8 370 212C369.2 210.667 366.667 210.134 366.667 211.2Z" fill="black"/>
<path d="M139.201 256.666C139.734 258.133 144.268 271.733 149.068 287.066C154.001 302.266 158.268 313.733 158.401 312.533C158.934 310 141.601 257.333 139.601 255.333C138.668 254.4 138.534 254.8 139.201 256.666Z" fill="black"/>
<path d="M498 256.133C487.734 285.199 478.267 315.466 478.934 317.599C479.2 318.399 480.934 314.399 482.534 308.533C484.267 302.799 488.934 288.399 492.8 276.799C496.8 265.066 499.734 255.199 499.334 254.933C499.067 254.533 498.4 255.066 498 256.133Z" fill="black"/>
<path d="M145.334 261.6C145.334 261.866 148.267 269.466 152.001 278.666C155.734 288.266 158.534 293.866 158.667 291.866C158.667 290 158.134 288 157.601 287.2C156.934 286.533 154.401 280.666 152.001 274.266C149.601 267.866 147.067 262.266 146.401 261.866C145.867 261.466 145.334 261.333 145.334 261.6Z" fill="black"/>
<path d="M490.267 264.933C489.334 266.933 487.067 272.533 485.334 277.333C483.601 282.133 481.334 287.467 480.401 289.333C479.467 291.2 478.667 294.133 478.801 296C478.801 298.667 479.201 298.4 480.801 294C481.867 291.067 483.201 287.467 484.001 286C484.667 284.533 487.067 278.533 489.201 272.8C493.201 262.133 493.867 257.733 490.267 264.933Z" fill="black"/>
<path d="M496.134 272.134C495.2 275.067 494.667 277.867 495.067 278.134C495.334 278.4 496.267 276.267 497.2 273.2C498.134 270.267 498.667 267.467 498.267 267.2C498 266.934 497.067 269.067 496.134 272.134Z" fill="black"/>
<path d="M144.533 282C146.667 291.734 158.133 329.334 158.4 327.734C158.8 325.6 149.067 291.734 145.867 284C144.8 281.467 144.133 280.534 144.533 282Z" fill="black"/>
<path d="M469.467 286.267C463.6 292.8 448.267 322.8 446.667 330.667C445.734 334.8 430 376.667 426.667 383.333C423.334 390.267 414.667 410.933 414.667 412C414.667 414.667 400.934 433.333 396.267 436.933C393.6 438.933 388.134 441.333 384 442.267L376.667 444L384.4 443.6C390.267 443.2 393.334 442.267 397.734 439.2C404 434.667 412.934 423.6 414.267 418.667C414.667 416.8 415.6 415.067 416.134 414.667C418.4 413.2 438.934 363.467 444.8 345.333C445.867 342 447.734 336.267 448.8 332.667C450 328.933 452.4 322.933 454 319.333C455.734 315.6 458.534 309.333 460.4 305.333C463.6 298 468 290.8 473.334 283.6C477.867 277.867 475.467 279.467 469.467 286.267Z" fill="black"/>
<path d="M493.334 280.4C493.334 280.933 490 292.266 486 305.733C481.867 319.066 478.8 330.933 479.067 332C479.2 333.066 480.4 330.4 481.6 326C482.8 321.6 486.267 309.733 489.2 299.466C492.267 289.333 494.4 280.666 494 280.266C493.6 279.866 493.334 280 493.334 280.4Z" fill="black"/>
<path d="M166.134 284.4C166.534 285.733 167.334 286.4 167.734 286C168.134 285.6 167.734 284.533 166.8 283.6C165.467 282.4 165.334 282.533 166.134 284.4Z" fill="black"/>
<path d="M169.334 286.8C169.334 287.2 171.601 292 174.401 297.467C182.667 313.733 190.667 332.667 190.667 335.867C190.667 341.333 218.667 409.733 226.001 422.133C234.267 436.133 244.934 444 255.734 444C263.601 444 263.734 442 255.867 441.867C247.201 441.733 240.001 436.533 232.267 425.2C229.201 420.533 225.734 415.467 224.667 414C223.601 412.667 222.667 410.4 222.667 409.2C222.667 408 220.534 402.267 217.867 396.533C211.067 381.467 210.134 379.067 206.001 368C203.867 362.533 199.601 351.467 196.401 343.6C193.334 335.6 190.667 328.133 190.667 326.933C190.667 322.533 169.467 282.667 169.334 286.8Z" fill="black"/>
<path d="M158.8 298.134C158.667 301.2 181.467 371.467 187.2 385.734C189.067 390.534 190.667 395.6 190.667 397.067C190.667 400.934 205.6 429.734 212.134 438.267C215.2 442.4 218.8 446 220.134 446.267C221.6 446.667 222.667 447.467 222.667 448C222.667 449.867 230.8 452 237.2 451.867L243.334 451.734L236.667 450.667C227.734 449.334 222.667 446.667 216.534 439.6C207.867 429.734 193.6 402.134 190.534 389.334C189.6 385.467 161.2 300.934 159.467 296.667C159.067 295.867 158.8 296.534 158.8 298.134Z" fill="black"/>
<path d="M466.134 335.601C459.734 355.201 452.8 375.867 450.8 381.334C448.667 386.801 445.734 395.201 444.134 399.867C440.534 411.067 428.934 432.001 422.267 439.467C416.134 446.401 411.334 449.201 402.8 450.667L396.667 451.734L402.667 451.867C406 451.867 410.134 451.067 412 450.001C413.867 448.934 416.667 447.467 418.267 446.801C420 446.001 424 441.734 427.334 437.201C433.867 428.267 446.667 403.867 446.667 400.134C446.667 398.934 448.534 393.201 450.8 387.334C458.667 366.801 478.8 304.934 478.4 302.267C478.134 300.934 472.667 315.867 466.134 335.601Z" fill="black"/>
<path d="M158.801 318.665C158.668 320.932 165.201 343.065 173.068 367.332C184.801 402.932 198.401 434.265 205.868 442.665C211.334 448.932 223.201 455.999 227.601 455.865C228.934 455.865 226.668 454.265 222.668 452.265C218.668 450.265 214.268 447.999 212.934 447.332C209.734 445.599 200.001 430.932 194.934 419.999C189.734 408.799 178.134 376.799 170.134 351.332C161.201 323.065 158.934 316.399 158.801 318.665Z" fill="black"/>
<path d="M476.267 326.667C470.134 347.6 461.201 374.267 454.401 392.4C450.001 404.134 446.801 413.867 447.201 414.267C447.601 414.667 448.667 413.334 449.467 411.2C457.467 390.934 461.467 379.334 469.467 354.667C474.534 338.934 478.534 324.8 478.401 323.334C478.134 321.6 477.334 322.8 476.267 326.667Z" fill="black"/>
<path d="M158.8 334C158.534 340.134 178.667 399.334 186.4 415.334C192.134 427.067 191.2 423.334 184 406.001C179.2 394.267 166.4 356.801 160.8 338.001C159.734 334.267 158.8 332.534 158.8 334Z" fill="black"/>
<path d="M473.467 352.266C467.6 371.599 454 409.466 449.867 417.599C448.134 421.066 446.667 424.666 446.667 425.599C446.8 428.399 455.734 408.532 461.334 393.332C469.067 372.132 478.8 341.066 478.4 338.932C478.134 337.999 476 343.866 473.467 352.266Z" fill="black"/>
<path d="M441.733 424.266C437.2 433.599 428.667 445.599 425.333 447.466C424.133 448.133 420 450.266 416 452.266C412 454.266 409.333 455.866 410.267 455.866C414.933 456.133 427.467 448.799 432.933 442.666C436.667 438.266 447.067 419.066 446.4 417.199C446.133 416.533 444.133 419.599 441.733 424.266Z" fill="black"/>
<path d="M190.667 426.532C190.667 429.732 199.867 443.599 205.2 448.399C210.4 453.065 217.467 457.332 219.6 457.332C220.134 457.199 218.8 456.132 216.534 454.932C208 450.132 202.267 444.399 196.534 434.665C193.334 429.199 190.667 425.465 190.667 426.532Z" fill="black"/>
<path d="M442.667 434.266C438.267 442.533 427.6 452.8 420.4 455.466C417.2 456.666 414.933 458 415.2 458.266C415.467 458.666 418.667 457.466 422.267 455.866C425.733 454.133 429.467 452.8 430.267 452.666C431.2 452.666 432 452 432 451.333C432.133 450.533 433.867 448.133 435.867 446C440.667 441.066 446.933 430.933 446.4 429.2C446.133 428.533 444.533 430.8 442.667 434.266Z" fill="black"/>
<path d="M242.4 447.599C244 447.865 246.667 447.865 248.4 447.599C250 447.332 248.667 447.065 245.334 447.065C242 447.065 240.667 447.332 242.4 447.599Z" fill="black"/>
<path d="M391.733 447.599C393.333 447.865 395.733 447.865 397.067 447.599C398.267 447.199 396.933 446.932 394 447.065C391.067 447.065 390 447.332 391.733 447.599Z" fill="black"/>
<path d="M231.734 455.6C232.667 456 233.867 455.867 234.267 455.467C234.8 455.067 234 454.667 232.534 454.8C231.067 454.8 230.667 455.2 231.734 455.6Z" fill="black"/>
<path d="M405.067 455.6C406.001 456 407.201 455.867 407.601 455.467C408.134 455.067 407.334 454.667 405.867 454.8C404.401 454.8 404.001 455.2 405.067 455.6Z" fill="black"/>
</svg>
