<svg width="640" height="640" viewBox="0 0 640 640" fill="none" xmlns="http://www.w3.org/2000/svg">
<path d="M230.933 185.601C223.6 189.201 214.8 199.067 206.4 213.201C199.2 225.334 190.267 244.934 190.933 246.934C191.2 247.734 192.8 244.667 194.533 240.401C201.333 223.467 220.133 192.934 222.267 195.201C222.667 195.601 221.2 198.134 219.067 200.934C213.067 208.534 202.8 227.067 196.4 242.001C193.333 249.334 190.667 254.134 190.667 252.667C190.667 248.667 187.333 255.467 182 270.667C179.467 277.601 176.267 286.534 174.8 290.267C173.2 294.134 172.267 297.334 172.667 297.334C173.467 297.334 176.267 290.534 183.733 270.667C187.333 261.067 190.133 255.067 190.4 256.534C190.8 258.134 193.6 252.934 198.133 242.801C209.6 216.534 223.333 195.067 231.6 190.534C234 189.201 238.8 187.201 242.267 186.134C247.333 184.534 247.867 184.134 244.933 184.134C242.933 184.001 238.267 185.601 234.533 187.467C230.8 189.334 227.467 190.534 227.067 190.134C226.667 189.867 228.8 188.267 231.867 186.667C234.933 185.201 237.333 183.601 237.333 183.334C237.333 182.401 237.467 182.401 230.933 185.601ZM225.333 192.667C224.4 193.867 223.333 194.401 223.067 194.134C222.133 193.201 224 190.667 225.6 190.667C226.4 190.667 226.4 191.467 225.333 192.667Z" fill="black"/>
<path d="M386 185.333C383.067 186.533 383.067 186.533 393.067 189.333C396.267 190.133 399.2 190.533 399.467 190.267C400.133 189.6 394.4 187.2 390 186.267C388.4 185.867 388.933 185.6 391.6 185.467C399.467 185.2 409.867 191.2 416.533 199.733C423.867 209.333 435.733 230.533 441.467 244.533C444.8 252.667 446.133 254.4 446.8 252.533C448.133 249.2 448.267 246.933 446.933 248.933C446.267 250 444.533 247.333 442.133 241.6C436.667 228.8 426 209.467 419.733 201.333C416.933 197.467 414.933 194 415.333 193.6C417.2 191.733 428.933 209.6 438.8 229.2C443.067 237.733 446.667 244 446.667 243.333C446.667 241.2 431.2 211.333 426.533 204.267C420.4 195.333 414.8 189.467 409.067 186.533C406.267 185.2 403.6 184 403.067 184C402.533 184.133 404.267 185.333 407.067 186.8C410 188.267 412 189.867 411.6 190.133C411.2 190.533 407.867 189.333 404.133 187.467C397.467 184 390.933 183.2 386 185.333ZM414.667 192C414.667 192.667 414.4 193.333 414.133 193.333C413.733 193.333 413.067 192.667 412.667 192C412.267 191.2 412.533 190.667 413.2 190.667C414 190.667 414.667 191.2 414.667 192Z" fill="black"/>
<path d="M247.333 186.533C243.067 187.6 237.067 190.533 239.333 190.533C241.867 190.533 253.2 187.2 254.133 186.267C255.333 185.2 252.8 185.2 247.333 186.533Z" fill="black"/>
<path d="M377.333 187.735C374.267 188.268 374.133 188.401 376.667 189.468C378.8 190.268 378.133 190.535 374 190.668L368.667 190.935L374.4 192.135C382.933 193.735 391.6 202.001 402.533 218.535C408.8 228.135 414.667 239.068 414.667 241.468C414.667 244.001 436.133 285.468 438.933 288.535C442.267 292.001 443.067 293.735 427.867 262.668C420.8 248.401 414.667 235.068 414.267 233.201C413.2 229.068 400 208.935 394.267 202.801C391.867 200.401 387.6 196.668 384.8 194.535L379.6 190.668L384.133 190.535C386.933 190.401 387.733 190.135 386 189.735C384.533 189.335 382.8 188.668 382 188.135C381.333 187.601 379.2 187.468 377.333 187.735Z" fill="black"/>
<path d="M253.333 189.335C250.267 190.401 250.267 190.401 254.4 190.535L258.933 190.668L252.533 195.601C244.667 201.601 242.933 203.335 234.533 215.868C227.467 226.401 222.667 234.935 222.667 237.201C222.667 239.468 200 285.735 197.733 288.268C196.533 289.601 196.133 290.668 196.933 290.668C197.6 290.668 199.2 289.601 200.267 288.268C202.933 285.335 222.667 246.401 222.667 244.268C222.667 239.201 240.133 210.935 248.533 202.268C255.6 195.201 259.6 192.801 266.533 191.868L272.667 191.068L266 190.801C260.933 190.535 260 190.268 262 189.335C264.267 188.401 264 188.135 260.667 188.268C258.533 188.268 255.2 188.801 253.333 189.335Z" fill="black"/>
<path d="M228.4 196.8C225.2 200.267 222.667 203.467 222.667 204C222.667 205.067 214.267 219.734 212.267 222C211.6 222.8 208.533 229.067 205.333 236C202.267 242.934 197.867 252.4 195.733 257.067C191.867 265.467 188.533 278.134 192.267 270.667C193.067 268.8 198.267 257.467 203.6 245.467C208.933 233.334 214.133 222.534 215.2 221.467C216.267 220.267 218.933 215.6 221.2 211.067C223.6 206.534 228.133 200.134 231.6 196.8C234.933 193.467 236.933 190.667 236 190.667C234.933 190.667 231.6 193.467 228.4 196.8Z" fill="black"/>
<path d="M236 199.734C231.2 204.667 226.133 211.201 224.8 214.001C223.467 216.934 221.733 220.267 221.067 221.334C219.867 223.334 211.333 240.934 204.933 254.667C198.933 267.601 190.667 287.067 190.667 288.534C190.667 291.201 194.667 284.134 199.2 273.734C219.6 226.401 234 201.201 244.667 194.667C249.867 191.467 250.4 190.667 247.067 190.667C245.733 190.667 240.8 194.801 236 199.734Z" fill="black"/>
<path d="M389.333 191.201C389.333 191.467 391.6 193.201 394.4 194.934C404.133 201.467 411.2 212.801 430.267 253.334C433.333 259.601 437.6 269.201 440 274.667C444.267 284.534 446.667 288.534 446.667 285.867C446.667 282.534 425.6 236.534 414.267 215.334C409.6 206.401 395.067 190.667 391.6 190.667C390.4 190.667 389.333 190.934 389.333 191.201Z" fill="black"/>
<path d="M407.067 196.667C410.4 200 414.4 205.333 415.867 208.533C417.467 211.733 420.533 217.067 422.8 220.4C426 225.333 433.467 241.2 445.867 269.333C446.267 270.4 446.4 269.467 446.133 267.2C445.467 263.2 444.133 260.133 433.867 237.6C426.8 222.133 411.067 196.533 406.8 193.467C400.4 188.933 400.533 190.267 407.067 196.667Z" fill="black"/>
<path d="M358 193.467C357.467 194.134 358.667 194.667 360.667 194.667C365.2 194.667 373.2 198.134 377.067 201.734C383.867 208.134 403.2 240.534 415.733 266.667C419.2 273.867 428 285.601 430.4 286.401C431.467 286.667 430 284.134 427.333 280.667C424.8 277.201 416.8 262.934 409.867 248.801C402.8 234.801 396.667 223.067 396.133 222.667C395.733 222.267 393.6 219.334 391.467 216.001C384.8 205.601 378.4 198.534 373.467 196.134C367.6 193.201 359.067 191.734 358 193.467Z" fill="black"/>
<path d="M265.067 196.001C260 198.668 253.733 205.735 247.2 216.001C245.067 219.335 243.067 222.268 242.667 222.668C241.067 224.001 222.667 258.935 222.667 260.401C222.667 262.668 212.4 280.001 209.067 283.601C207.467 285.335 206.933 286.668 207.733 286.668C209.867 286.668 219.867 273.735 222.4 268.001C224.667 262.401 245.333 223.601 246.533 222.668C248 221.468 254.667 210.801 254.667 209.601C254.667 208.135 264.133 199.335 267.733 197.468C269.467 196.535 273.333 195.335 276.4 194.668L282 193.601H276C272.533 193.468 268 194.535 265.067 196.001Z" fill="black"/>
<path d="M284 195.867C278 197.733 272.8 201.067 268.533 205.6C263.6 210.933 254.667 223.6 254.667 225.2C254.667 227.2 241.2 251.333 233.6 262.533C229.6 268.667 222.133 277.733 217.2 282.533C209.6 290.133 208.133 292.4 206.8 298.4C202.8 317.067 208 358.667 218.533 394.267C220.8 401.733 222.667 408.667 222.667 409.6C222.667 411.867 231.333 424.133 235.067 426.933C238.133 429.333 247.733 430 252.667 428.133C254.667 427.333 254.133 426.933 249.733 426.267C241.333 424.933 233.6 415.333 228.133 399.6C221.467 380.133 215.733 343.333 215.467 319.333C215.333 300.133 217.2 286.667 220.133 286.667C220.667 286.667 221.6 285.467 222 283.867C222.533 282.267 224.933 278.8 227.333 276.133C237.333 264.933 251.467 242.533 255.067 232.4C258.133 223.733 272.8 204.4 279.2 200.667C282.267 198.8 285.867 197.333 287.067 197.333C288.267 197.333 289.6 196.667 290 196C290.933 194.533 288.8 194.4 284 195.867Z" fill="black"/>
<path d="M349.333 196C362.267 201.733 364.8 203.733 373.733 216C378.667 222.933 382.667 229.467 382.667 230.4C382.667 235.333 404.8 270.133 411.867 276.533C413.333 278 414.667 279.733 414.667 280.667C414.667 281.467 415.867 283.467 417.333 285.067C418.8 286.667 421.067 291.733 422.133 296.267C425.2 307.733 423.867 334.4 419.2 360C417.333 370.667 415.2 382 414.667 385.333C410.667 406.933 399.6 424.533 388.933 426.267C384.533 426.933 384 427.333 386 428.133C390.4 429.867 398.533 429.467 402.533 427.467C406.533 425.333 413.467 416 414.933 410.667C415.467 408.8 417.733 401.333 420 394C431.2 358.267 436.4 309.2 430.667 294C429.867 291.733 425.467 286.4 420.8 282C411.333 272.8 398.4 253.867 387.6 232.933C373.467 205.733 365.467 197.6 351.333 195.467C346.667 194.667 346.4 194.8 349.333 196Z" fill="black"/>
<path d="M291.333 199.601C286.667 202.134 284.533 204.534 276.8 216.134C269.6 226.801 249.733 266.134 244.533 280.001C240.8 289.734 240.8 290.667 240.8 316.667C240.8 346.401 243.067 363.067 250.8 389.334C258 413.867 261.333 418.134 276.667 421.734C281.067 422.801 287.867 424.934 291.733 426.534C295.6 428.001 299.467 429.334 300.4 429.334C302.4 429.334 282.667 420.001 280.533 420.001C279.733 420.001 276.533 418.134 273.467 415.867C263.2 408.534 256.8 389.601 252.4 354.001C248.267 320.267 249.733 288.934 256.267 268.001C258.667 260.134 274.533 228.001 281.6 216.534C288.933 204.401 292.133 200.934 298 198.934C301.733 197.601 301.867 197.601 298.667 197.467C296.8 197.467 293.6 198.401 291.333 199.601Z" fill="black"/>
<path d="M307.067 199.601C304.8 200.667 301.467 203.734 299.733 206.401C294.267 214.934 288 230.134 286.667 238.134C286 242.267 284.533 248.934 283.333 252.801C279.2 267.201 277.067 288.134 277.067 315.334C277.067 348.934 280.133 373.601 288.133 405.601C289.733 411.734 298.267 422.801 305.6 428.001C312.267 432.934 315.733 433.334 309.6 428.534C293.867 416.134 286.667 380.534 286.667 314.667C286.667 279.334 287.867 265.467 292.667 242.667C296.8 222.534 304.133 204.667 309.6 200.801C313.733 197.867 312.133 197.067 307.067 199.601Z" fill="black"/>
<path d="M326.667 198.401C326.667 198.934 327.867 200.134 329.333 201.067C334.8 204.401 341.867 222.934 346.8 246.001C350.533 263.867 352.267 300.401 351.333 336.667C349.867 388.801 342.8 417.601 329.067 428.534C322.933 433.334 326.4 432.934 333.067 428.001C339.467 423.467 349.067 411.734 350 407.601C350.267 406.001 352 398.001 353.867 390.001C358.4 369.734 359.733 359.467 361.2 335.067C363.2 302.401 360.667 271.734 353.867 247.734C352.133 241.334 350.667 234.667 350.667 232.801C350.667 231.067 347.6 223.601 344 216.267C338.933 206.267 336.133 202.134 332.8 200.134C328 197.067 326.667 196.801 326.667 198.401Z" fill="black"/>
<path d="M340.667 198.801C342.933 199.601 345.733 201.334 347.067 202.401C351.467 206.267 362.8 225.467 372 244.667C389.867 281.734 392.667 308.801 384.667 364.667C382.267 381.467 377.2 399.201 372.4 408.134C368.933 414.668 366 416.534 346.267 424.801C341.333 426.934 337.867 428.801 338.533 429.067C339.2 429.334 343.2 428.001 347.6 426.267C351.867 424.401 358.8 422.267 362.933 421.467C368.533 420.267 371.867 418.534 375.867 414.934C380.667 410.534 381.867 408.134 386.533 393.334C394.933 366.534 397.867 346.667 397.867 316.001C397.867 290.667 397.867 289.734 394.133 280.001C388.533 265.467 368.667 226.267 361.333 215.334C352.8 202.801 348.267 198.667 341.867 198.001C336.667 197.334 336.667 197.334 340.667 198.801Z" fill="black"/>
<path d="M318.133 200.8C313.733 214.667 314 417.333 318.4 429.333L319.6 432.533L320.533 428.933C323.6 416.667 324.933 286.933 322.667 232.933C321.333 203.867 320.133 194.667 318.133 200.8Z" fill="black"/>
<path d="M448.133 252.668C448.133 253.334 448.933 255.468 450 257.334C451.067 259.201 451.867 260.001 451.867 259.334C451.867 258.534 451.067 256.534 450 254.668C448.933 252.801 448.133 251.868 448.133 252.668Z" fill="black"/>
<path d="M446.667 257.601C446.667 259.467 453.2 276.801 460.933 295.734C461.333 296.801 460.933 297.067 459.733 296.667C457.867 295.867 456.533 293.334 449.467 277.334C448 274.001 446.8 272.401 446.8 273.734C446.667 274.934 448.533 280.001 450.667 284.934C452.933 289.734 454.533 294.001 454.267 294.267C453.067 295.334 449.6 292.934 448.267 290.267C447.467 288.534 446.8 288.134 446.8 289.334C446.667 290.401 448.533 293.067 450.8 295.467C454.4 299.201 454.933 300.801 455.6 309.467C456.667 324.667 452.4 358.001 444.533 394.001C442.267 404.801 435.333 422.134 430.133 430.401C425.733 437.467 419.2 441.734 414.667 440.667C411.6 439.867 411.467 440.001 413.467 442.001C414.667 443.201 418 444.534 420.933 444.934C425.6 445.601 426.933 445.067 431.2 441.201C434 438.801 438.133 432.934 440.667 428.134C448.133 413.201 459.467 365.201 462.8 334.401C464.8 315.867 463.333 296.001 459.467 287.734C458.4 285.334 455.067 277.067 452.133 269.334C449.2 261.601 446.8 256.401 446.667 257.601Z" fill="black"/>
<path d="M188 264.666C187.067 267.6 184.133 275.066 181.6 281.333C176 295.066 175.467 298.533 175.6 320.666C175.6 340 179.6 365.6 186.667 392.266C188.8 400.666 190.667 408.666 190.667 410C190.667 411.333 193.2 417.866 196.4 424.533C205.467 443.733 214 449.2 224.267 442.533C228 440.133 228.133 439.866 225.467 440.4C220.8 441.466 214.267 438.266 210.133 432.933C201.733 422 193.333 396.133 188.667 366.666C181.067 319.333 180.933 301.733 188 295.333C189.467 294 190.667 292.4 190.667 291.733C190.667 291.066 189.733 291.466 188.533 292.533C186.667 294.533 184 295.466 184 294.133C184 293.866 185.6 290.266 187.467 286.133C189.333 282 190.667 277.733 190.4 276.533C190.133 275.2 187.867 279.2 185.333 285.2C181.067 295.466 179.2 298.4 178 297.066C177.6 296.8 180.4 289.066 184.133 280C187.733 270.933 190.533 262.666 190.267 261.466C190.133 260.266 189.067 261.733 188 264.666Z" fill="black"/>
<path d="M452 262C452 262.666 452.667 264.266 453.333 265.333C454 266.4 454.667 266.666 454.667 266C454.667 265.2 454 263.733 453.333 262.666C452.667 261.6 452 261.2 452 262Z" fill="black"/>
<path d="M151.733 302.268C150.4 302.534 148.933 304.401 148.533 306.268C146.4 314.401 149.733 345.334 156.533 381.334C157.6 386.801 159.2 395.201 160 400.001C162.667 415.068 172 441.068 177.867 449.868C183.867 458.668 190.4 463.334 195.067 462.134C198.667 461.201 207.2 456.134 206.4 455.334C206.133 454.934 204 455.334 201.867 456.268C199.6 457.068 196.4 457.334 194.533 456.801C190.267 455.734 182.533 445.334 178.267 435.334C170.267 416.134 161.067 379.468 158.667 356.934C154.8 321.201 154.133 310.801 155.6 306.134C157.2 301.068 156.933 300.934 151.733 302.268Z" fill="black"/>
<path d="M482.667 304.801C484.533 309.601 484.267 319.601 482 338.001C480.8 346.801 479.333 359.201 478.667 365.468C477.067 380.268 470.8 406.401 464.667 424.001C458.267 442.001 456.8 444.801 449.733 451.868C444.267 457.335 443.6 457.601 438.267 456.801L432.667 456.001L436.667 458.535C446.4 464.801 452.8 462.401 461.2 449.468C467.333 440.001 476.667 412.668 478.667 398.535C479.467 393.068 480.667 386.535 481.333 384.001C484.267 372.801 489.467 336.668 490.267 322.001C490.933 307.868 490.8 305.601 488.8 303.601C487.467 302.401 485.333 301.335 484 301.335C481.733 301.335 481.6 301.868 482.667 304.801Z" fill="black"/>
<path d="M126.267 309.066C125.2 314.533 127.467 349.466 130 364C138.533 415.333 152.4 462.533 162.8 474.933C165.867 478.666 166.8 479.066 173.867 479.066C180.533 479.066 182 478.533 185.067 475.333C188.533 471.733 188.533 471.733 185.333 473.866C179.6 477.6 174 476.666 168.267 470.8C163.467 465.866 161.6 462.266 157.333 450.666C143.867 413.333 131.733 352.266 131.467 321.066C131.333 307.466 131.067 305.333 129.2 305.333C127.867 305.333 126.667 306.8 126.267 309.066Z" fill="black"/>
<path d="M507.2 321.6C506.933 359.867 490.8 432.667 475.6 463.734C470.667 473.867 462 478.267 454.267 474.534C451.467 473.2 451.467 473.334 454.533 475.867C458.667 479.467 470.533 480.134 474.4 477.067C479.067 473.2 490.4 445.334 495.733 424.667C504.667 390.267 509.067 365.467 511.2 336.134C513.067 312.534 512.667 306.267 509.2 305.6C507.733 305.334 507.333 308.267 507.2 321.6Z" fill="black"/>
<path d="M110.4 307.6C108.4 308.133 108 309.733 108 317.333C108 333.467 116.4 389.6 123.333 420C125.067 427.733 126.8 436.4 127.2 439.467C128.133 446.267 136 469.6 140.133 478.133C144.667 487.333 153.333 496 157.867 496C162.267 496 167.733 493.333 171.333 489.333L174 486.4L169.333 489.2C166.8 490.667 163.2 492 161.467 492C157.467 492 148 482.533 144 474.533C139.867 466.533 131.2 439.6 128.8 427.333C119.067 377.467 113.333 338.933 112.933 320.533C112.8 312.933 112.667 306.8 112.667 306.8C112.667 306.933 111.6 307.2 110.4 307.6Z" fill="black"/>
<path d="M525.733 321.333C525.467 337.2 522.8 356.8 516.4 390.667C513.867 404.267 511.2 418.667 510.667 422.667C509.333 432 507.6 438.667 501.867 456C496 473.2 491.733 481.467 485.067 487.467C479.467 492.533 476.533 493.067 470.667 490C465.067 487.067 465.733 488.533 471.6 492.667C479.067 497.6 483.467 497.067 489.867 490.267C492.933 487.2 496.933 481.333 498.8 477.333C502.8 468.933 509.733 447.2 512 435.333C512.8 430.933 515.6 417.467 518 405.333C527.867 357.867 532.8 309.333 528 308.4C526.4 308 526 310.267 525.733 321.333Z" fill="black"/>
<path d="M89.0666 311.734C88.1333 315.067 89.8666 337.734 92.5333 356.134C95.0666 373.6 95.2 362.4 92.6666 339.867C91.6 330 90.5333 318.934 90.4 315.334C90.1333 310.667 89.7333 309.6 89.0666 311.734Z" fill="black"/>
<path d="M95.0666 311.333C94.1333 313.867 96.6666 341.867 99.4666 360.667C111.467 441.867 125.733 494.133 138.933 506.133C146.133 512.533 153.733 511.733 159.6 504C162 500.933 160.533 500.8 157.467 503.867C153.467 507.867 146.533 507.6 141.467 503.2C137.467 499.867 126.667 479.867 126.667 475.867C126.667 474.8 124.933 468 122.8 460.533C111.867 422.667 98.6666 345.467 98.6666 319.2C98.6666 309.867 97.0666 306.4 95.0666 311.333Z" fill="black"/>
<path d="M540.4 320.134C539.867 339.201 531.2 397.068 523.867 429.868C519.067 451.868 509.2 484.534 504.933 492.401C498.133 505.468 489.333 510.001 481.6 504.534C477.6 501.734 478 504.134 482.133 507.068C493.6 515.468 503.333 508.001 512 484.001C521.867 456.534 530.533 417.068 539.467 358.668C542 342.001 543.6 309.334 541.867 309.334C541.2 309.334 540.533 314.268 540.4 320.134Z" fill="black"/>
<path d="M547.6 324C547.067 331.734 545.733 345.067 544.533 353.734C543.467 362.4 542.667 371.467 542.933 373.734C543.6 380.934 549.6 328 549.067 318.667C548.667 310.667 548.533 310.934 547.6 324Z" fill="black"/>
<path d="M95.3333 381.334C96.5333 401.867 108.933 461.467 116.533 483.601C126.667 513.201 133.6 521.734 144.4 518.001C149.333 516.267 155.2 512.134 154.133 511.067C153.867 510.801 151.333 512.001 148.667 514.001C145.867 515.867 142.533 517.334 141.333 517.334C137.067 517.334 128.8 509.467 126.267 502.934C113.733 470.667 108.267 449.067 98.5333 393.334C95.4666 376.001 94.8 373.467 95.3333 381.334Z" fill="black"/>
<path d="M540 393.6C535.333 426.266 525.067 469.866 517.733 488.666C515.2 495.2 512.4 502.533 511.467 504.933C509.733 509.466 500.933 517.333 497.733 517.333C496.667 517.333 494 516.4 491.6 515.333L487.333 513.2L490.533 516C493.467 518.533 496.667 519.333 501.333 518.666C509.6 517.6 520.533 494 529.067 458.533C536.8 426.933 544.533 382.666 542.4 382.666C542 382.666 540.933 387.6 540 393.6Z" fill="black"/>
<path d="M118.8 502.002C118.8 502.668 119.6 504.802 120.667 506.668C121.733 508.535 122.533 509.335 122.533 508.668C122.533 507.868 121.733 505.868 120.667 504.002C119.6 502.135 118.8 501.202 118.8 502.002Z" fill="black"/>
<path d="M515.333 508.4C510.533 516.667 509.733 518.933 512.667 515.333C515.333 512.133 520.4 502.533 519.733 502C519.467 501.733 517.467 504.667 515.333 508.4Z" fill="black"/>
<path d="M124 511.334C124 512 124.667 513.6 125.333 514.667C126 515.734 126.667 516 126.667 515.334C126.667 514.534 126 513.067 125.333 512C124.667 510.934 124 510.534 124 511.334Z" fill="black"/>
<path d="M129.6 520.667C133.6 524.934 140.533 525.6 143.6 522.134C144.533 520.934 144.667 520.667 143.733 521.334C141.067 523.6 133.867 522.8 129.867 519.734L126 516.934L129.6 520.667Z" fill="black"/>
<path d="M507.467 520.667C506 521.734 502.933 522.667 500.8 522.801C497.333 522.801 497.2 523.067 499.333 523.867C502.8 525.201 506 524.401 508.8 521.201C511.467 518.134 510.933 518.001 507.467 520.667Z" fill="black"/>
</svg>
