<svg width="640" height="640" viewBox="0 0 640 640" fill="none" xmlns="http://www.w3.org/2000/svg">
<path d="M103.733 82.9328C100.667 85.4661 94.6667 95.0661 94.8 97.3328C94.8 99.0661 94.9334 99.0661 95.6 97.3328C97.3334 92.7995 104.133 84.1328 106.667 83.3328C108.4 82.7995 111.333 83.5995 114.4 85.3328L119.333 88.2661L115.6 84.7995C111.6 81.0661 107.067 80.3995 103.733 82.9328Z" fill="black"/>
<path d="M521.067 86.6671C518.134 89.4671 516.134 92.5338 516.667 93.3338C517.067 94.0004 516.934 94.6671 516.134 94.6671C515.467 94.6671 513.067 97.2004 510.801 100.267C506.534 106 505.467 108.934 508.134 107.2C509.067 106.667 509.467 106.934 509.201 107.867C508.801 108.8 508.134 109.334 507.467 109.067C506.934 108.8 505.601 110.134 504.667 112C501.334 117.867 502.534 118 507.467 112.267C515.467 102.934 521.734 105.067 529.201 119.734C535.734 132.8 542.401 166 540.401 176.4C539.867 179.734 540.001 180.4 541.334 179.067C544.401 176.267 542.267 145.6 538.134 131.6C530.401 105.6 521.334 95.8671 512.401 104.267C508.001 108.4 508.667 104.934 513.334 99.6004C522.134 89.6004 531.067 90.1338 536.534 101.2C541.467 110.8 546.134 130.934 548.001 150L549.201 162L548.667 148C548.134 127.734 541.601 101.067 535.601 94.2671C530.667 88.6671 527.334 87.6004 522.667 90.0004C516.134 93.3338 518.267 89.6004 525.467 84.9338C530.134 81.8671 535.201 83.7338 538.801 90.0004C542.134 95.7338 543.467 96.2671 540.667 90.6671C535.201 80.1338 528.934 78.8004 521.067 86.6671Z" fill="black"/>
<path d="M107.334 90.5332C102.267 93.5998 99.6004 97.5998 96.9338 106C91.4671 123.333 87.0671 153.333 89.2004 158.667C90.2671 161.6 90.5338 161.067 90.5338 155.333C90.8004 146.267 95.3338 118 97.7338 111.2C103.867 94.3998 109.467 89.5998 118.267 93.8665C124.4 96.7998 125.067 95.9998 119.6 92.3998C113.2 87.9998 111.734 87.7332 107.334 90.5332Z" fill="black"/>
<path d="M92.1342 107.467C90.1342 115.6 91.0675 116.534 93.3342 108.667C94.2675 105.334 94.6675 102.267 94.4009 101.867C94.0009 101.6 92.9342 104 92.1342 107.467Z" fill="black"/>
<path d="M113.067 104.934C106.934 111.467 100.8 126.801 97.2005 144.667C95.0672 154.934 94.8005 176.667 96.8005 178.667C97.8672 179.734 98.5338 176.267 98.9338 165.734C100.534 135.601 112 106.667 122.534 106.667C124.267 106.667 126.934 107.734 128.4 108.934C130.934 111.201 131.067 111.201 129.467 108.401C127.467 104.534 122.8 101.334 119.334 101.334C117.734 101.334 114.934 102.934 113.067 104.934Z" fill="black"/>
<path d="M132 111.334C132 112 132.667 113.6 133.333 114.667C134 115.734 134.667 116 134.667 115.334C134.667 114.534 134 113.067 133.333 112C132.667 110.934 132 110.534 132 111.334Z" fill="black"/>
<path d="M497.468 120.134C493.601 128.4 493.068 131.467 496.268 128.267C497.201 127.334 500.134 126.667 502.934 126.667C507.468 126.667 508.401 127.334 511.601 132.267C520.668 146.534 528.668 183.467 525.734 197.467C524.401 204.4 524.401 204.4 526.801 201.6C536.268 189.867 526.001 135.334 512.134 123.6C506.934 119.334 507.201 119.334 501.734 122.667C496.534 125.734 496.534 125.6 500.134 118.534C501.601 115.467 502.534 112.8 502.134 112.4C501.734 112 499.734 115.467 497.468 120.134Z" fill="black"/>
<path d="M89.4676 119.466C89.4676 120.933 89.8676 121.333 90.2676 120.266C90.6676 119.333 90.5342 118.133 90.1342 117.733C89.7342 117.2 89.3342 118 89.4676 119.466Z" fill="black"/>
<path d="M139.067 118.934C139.6 120.267 140.4 122.267 140.8 123.467C141.467 125.067 140.8 124.934 137.2 122.8C131.067 119.067 130.267 119.2 124.8 124.934C119.2 130.934 114.4 143.2 110.667 161.334C106.534 180.934 107.467 196.8 112.8 202.534C114.267 204.134 114.4 203.6 113.2 199.334C109.2 184.934 119.067 141.6 129.2 128.934C131.334 126.4 138.667 125.867 142.8 128.134C145.334 129.467 145.334 129.334 142.534 123.734C139.467 117.6 137.6 115.067 139.067 118.934Z" fill="black"/>
<path d="M486.267 134.133C484.134 138.266 482.801 142 483.201 142.266C483.601 142.666 485.734 139.333 487.867 134.8C490.134 130.266 491.601 126.666 490.934 126.666C490.401 126.666 488.267 130 486.267 134.133Z" fill="black"/>
<path d="M150.267 132.933C153.2 140.267 154.8 142.933 155.467 142.267C156.267 141.6 149.733 128 148.667 128C148.4 128 149.067 130.267 150.267 132.933Z" fill="black"/>
<path d="M142.534 146.267C133.601 156.001 128.401 171.467 126.534 193.601C124.934 213.334 125.867 218.934 134.801 240.001C142.534 258.534 154.801 294.001 157.334 305.334C161.201 322.934 174.267 365.201 184.134 392.134C187.734 402.134 190.667 410.934 190.667 411.601C190.667 413.734 198.134 428.401 203.067 436.134C207.467 442.934 214.534 449.734 220.934 453.067C224.267 454.934 235.334 455.067 239.334 453.334C240.934 452.667 238.801 452.534 234.001 452.934C226.934 453.467 225.334 453.201 220.934 450.134C218.134 448.267 215.334 446.667 214.801 446.667C211.601 446.667 190.667 410.001 190.667 404.401C190.667 403.067 188.801 397.201 186.534 391.334C180.001 373.867 164.134 324.134 160.401 308.667C158.134 299.467 144.001 256.001 142.667 254.001C141.201 251.734 135.067 235.867 132.801 228.134C125.201 202.934 140.001 149.334 154.534 149.334C156.534 149.334 158.934 150.134 159.867 150.934C160.934 151.867 160.667 150.934 159.334 148.934C154.667 141.734 147.734 140.667 142.534 146.267Z" fill="black"/>
<path d="M482.934 144.799C481.334 145.866 479.467 146.533 478.801 145.999C477.334 145.199 469.867 157.066 471.067 158.133C471.467 158.533 473.067 156.533 474.667 153.466C477.334 147.999 479.734 145.866 478.001 150.266C477.334 152.266 477.467 152.399 478.801 150.933C482.401 147.466 487.601 149.066 492.534 155.199C504.667 169.866 512.267 213.866 505.467 228.933C504.001 231.999 503.201 234.666 503.467 235.066C504.001 235.466 500.667 243.599 495.867 253.999C492.534 261.199 478.667 304.799 478.801 307.866C478.934 311.866 477.734 315.066 488.267 282.666C496.267 257.866 509.201 225.066 510.667 225.999C511.201 226.399 512.134 225.733 512.534 224.533C512.934 223.466 512.801 222.933 512.001 223.333C511.334 223.733 511.067 221.333 511.734 217.066C512.801 207.999 512.801 205.866 511.601 191.333C508.667 157.733 495.334 135.999 482.934 144.799Z" fill="black"/>
<path d="M161.334 146.934C161.334 148.934 165.867 157.334 166.934 157.334C167.601 157.334 167.201 155.734 166.134 153.601C163.334 148.667 161.334 145.867 161.334 146.934Z" fill="black"/>
<path d="M168.667 166.667C162 169.334 157.867 177.734 151.734 200C149.734 207.467 148.934 214.534 148.8 227.334L148.667 244.667L160.534 268.667C172.534 292.8 181.467 314.4 187.6 334C197.334 364.934 201.067 375.734 208.267 393.067C212.534 403.467 217.467 414.4 219.334 417.334C221.2 420.267 222.667 423.467 222.667 424.534C222.667 427.467 236.134 441.467 240.934 443.6C245.734 445.6 255.334 445.734 259.334 443.867C261.2 443.067 260 442.934 255.734 443.467C243.2 445.067 231.867 435.734 222.534 416.4C213.2 396.667 190.667 337.334 190.667 332.4C190.667 328.267 175.334 292.267 167.334 277.334C158.934 261.6 158.267 259.867 155.734 246.134C154.267 238.267 154.4 235.334 158.534 204.534C159.867 194.667 165.6 181.467 170.667 176.667C174 173.467 175.334 173.067 180 173.734C185.467 174.4 185.467 174.4 183.067 171.734C181.334 169.734 172.534 164.934 171.467 165.467C171.467 165.467 170.134 166 168.667 166.667Z" fill="black"/>
<path d="M464.001 166.533C462.934 167.333 461.734 167.6 461.334 167.333C460.801 167.066 458.801 168.533 456.667 170.666L453.067 174.4L458.534 173.733C463.201 173.066 464.667 173.466 467.467 176.133C472.134 180.4 477.334 190.933 478.667 198.533C483.734 227.733 484.267 232 483.601 241.333C482.801 252.8 479.334 262.133 469.201 281.066C461.867 295.066 448.667 327.466 446.667 336.4C444.401 347.466 425.334 397.6 418.001 412C416.401 415.333 414.401 419.466 413.734 421.333C409.067 432.933 393.734 444.933 385.334 443.733C383.067 443.333 381.334 443.6 381.334 444.266C381.334 446 393.067 445.466 397.734 443.466C406.001 439.866 412.001 432 423.601 408.8C428.001 399.866 440.401 368.133 444.001 356C454.667 320.8 463.201 298.933 478.134 268.666L490.001 244.666V228.666C489.867 211.066 487.201 196.266 481.867 184.133C480.134 180.266 478.667 176.266 478.667 175.333C478.667 173.2 469.867 165.333 467.601 165.333C466.667 165.333 465.067 165.866 464.001 166.533Z" fill="black"/>
<path d="M436.667 190.4C434.534 190.667 431.201 192 429.334 193.333L426.001 195.867L431.067 195.067C435.467 194.4 436.534 194.8 440.667 199.2C443.201 202 445.734 205.733 446.134 207.733C446.534 209.733 448.267 215.867 450.001 221.333C455.601 239.733 457.601 263.333 454.534 277.467C453.734 281.2 451.601 287.6 449.867 291.6C448.134 295.467 446.667 299.6 446.667 300.667C446.667 301.6 444.267 307.6 441.334 313.867C435.334 326.667 421.067 362.667 414.667 381.333C408.667 398.8 403.601 409.733 396.401 420.4C388.667 431.733 381.867 437.2 373.734 438.667L367.334 439.733L374.134 439.867C383.467 440 391.734 434.4 399.734 422.667C405.867 413.733 414.667 396.133 414.667 393.067C414.667 392.133 417.067 385.333 420.001 378C422.801 370.667 428.534 356 432.667 345.333C436.667 334.667 441.467 322.8 443.334 318.933C445.201 315.067 446.667 311.067 446.667 309.867C446.667 308.667 449.734 301.467 453.334 293.733C461.467 276.8 464.001 267.733 464.001 255.2C464.001 227.333 452.801 192 443.601 190.533C442.001 190.267 438.934 190.133 436.667 190.4Z" fill="black"/>
<path d="M188.8 196C181.2 207.6 174.8 233.467 174.667 253.333C174.667 266.8 177.2 277.6 182.934 288.667C185.2 292.933 188.667 301.067 190.8 306.667C192.8 312.133 196.267 320.8 198.4 326C200.534 331.067 205.734 344.667 210 356C214.267 367.333 218.8 379.2 220.134 382.267C221.6 385.333 222.667 388.8 222.667 389.867C222.667 393.333 231.334 411.2 238 421.2C246.667 434.267 254.267 439.867 263.6 440C267.334 440 270.8 439.467 271.2 438.8C271.734 438.133 270.8 437.867 269.334 438.267C264.934 439.467 258 437.467 253.467 433.733C246.534 427.867 237.2 413.6 230.534 398.267C227.067 390.267 223.867 383.467 223.467 383.067C223.067 382.533 222.667 380.8 222.667 379.2C222.667 377.467 222.134 374.8 221.334 373.067C220.667 371.333 216.134 360 211.334 347.733C206.667 335.333 200.667 320.933 198.267 315.733C195.734 310.4 191.334 299.333 188.534 291.333C183.467 277.067 183.334 276.267 183.467 259.333C183.6 243.067 184.267 238.267 189.467 217.333C193.067 202.667 200 194 207.2 195.067L211.2 195.6L208.134 193.2C206.134 191.467 202.934 190.667 198.667 190.667C192.8 190.667 192.134 191.067 188.8 196Z" fill="black"/>
<path d="M298.267 201.333C292.401 204.533 290.267 204.8 294.001 201.733L296.667 199.6L294.001 200.666C292.534 201.2 290.134 201.733 288.667 202C287.201 202.133 285.467 202.4 284.934 202.533C284.401 202.533 284.001 203.6 284.267 204.8C284.534 206.133 283.867 207.333 282.801 207.733C281.734 208.133 281.334 207.733 281.867 206.933C282.267 206.133 282.001 205.066 281.201 204.533C280.134 204 280.001 204.133 280.534 205.2C281.334 206.266 280.667 206.533 278.267 206C275.867 205.333 274.534 205.733 273.734 207.333C272.934 208.533 272.001 209.466 271.601 209.466C268.801 209.066 268.001 209.6 268.001 211.466C268.001 212.533 267.467 213.2 266.801 212.8C266.267 212.4 264.534 212.933 263.201 214C260.801 215.866 260.801 215.866 263.467 216C264.934 216 266.667 215.6 267.201 215.066C267.734 214.533 269.467 214 271.067 214C272.934 214 274.001 213.2 273.867 211.866C273.734 210.666 274.934 209.066 276.267 208.133C278.401 206.8 278.801 206.8 277.867 208.266C275.201 212.533 276.267 213.466 280.934 210.666C283.601 209.2 286.001 208.133 286.267 208.533C287.467 209.6 278.267 214.666 271.334 216.666C258.267 220.533 255.601 222.533 251.601 231.333C243.334 249.466 239.201 275.466 240.401 303.2C241.201 322.266 243.334 333.466 250.001 354.666C252.401 362.4 254.801 370.666 255.201 373.066C255.601 375.6 256.801 379.466 257.867 381.733C259.067 384.133 261.067 389.2 262.534 393.066C269.334 410.533 277.867 423.866 285.067 428.533C290.401 432 298.667 434 298.667 432C298.667 431.2 297.467 430.666 296.134 430.666C291.334 430.666 289.201 429.066 282.667 420.4C271.201 405.333 257.467 365.733 252.534 334C247.867 304.266 250.267 261.066 257.734 238.666C261.201 228.533 266.667 222.533 277.334 216.8C281.334 214.8 285.867 212 287.334 210.666C288.801 209.333 293.601 206 297.867 203.466C306.401 198.4 306.667 196.933 298.267 201.333ZM290.534 203.866C292.001 204.8 291.867 205.333 289.601 206.533C287.601 207.6 286.801 207.466 286.267 206.133C285.067 202.933 287.201 201.866 290.534 203.866ZM280.667 209.333C280.267 210 279.201 210.666 278.534 210.666C277.734 210.666 277.601 210 278.001 209.333C278.401 208.533 279.467 208 280.134 208C280.934 208 281.067 208.533 280.667 209.333ZM272.534 210.533C272.934 211.2 272.401 212 271.334 212.4C270.134 212.933 269.734 212.533 270.267 211.2C271.067 209.066 271.601 208.933 272.534 210.533Z" fill="black"/>
<path d="M304.267 203.333C293.734 212.8 288.4 222.533 284.134 240.4C278.667 262.667 276.934 280.133 276.934 310C277.067 340.8 279.867 362.267 288.8 399.867C290.667 407.867 296.534 420.8 300.267 425.333C302.667 428.267 308.267 432 310.134 432C310.934 432 309.734 430 307.334 427.467C299.6 419.2 292.8 395.467 288.667 362.667C285.867 339.733 285.867 282 288.8 259.867C292.534 231.467 298.8 213.067 308.4 202.933C313.867 197.2 310.667 197.467 304.267 203.333Z" fill="black"/>
<path d="M318.134 200.8C313.734 214.667 314 417.333 318.4 429.333L319.6 432.533L320.534 428.933C323.6 416.667 324.934 286.933 322.667 232.933C321.334 203.867 320.134 194.667 318.134 200.8Z" fill="black"/>
<path d="M330.267 202.932C336.4 209.332 343.734 225.866 346.8 240.132C353.334 271.199 352.934 354.399 346.134 387.332C341.734 408.132 336.8 421.599 331.334 427.466C325.6 433.466 329.067 433.466 335.734 427.332C342.267 421.599 349.2 406.799 350.8 395.466C351.467 390.799 352.534 385.466 353.2 383.732C355.6 377.466 360 347.332 361.334 328.666C363.734 294.132 360.667 261.732 351.6 229.332C349.6 221.866 341.6 209.732 334.534 203.466C328 197.466 324.667 197.199 330.267 202.932Z" fill="black"/>
<path d="M340.667 203.334C345.067 206 349.867 209.334 351.334 210.667C352.8 212 356.4 214.267 359.334 215.734C373.867 223.067 380.134 231.067 382.8 245.867C390.667 289.067 390.934 309.2 383.867 345.467C380.4 363.334 377.2 374 369.067 395.067C363.067 410.534 358.667 418 349.334 428.534C348.667 429.067 346.267 430.134 343.734 430.667L339.334 431.734L343.6 431.867C353.734 432.134 364.934 419.6 373.867 398C376.667 391.334 379.734 384.134 380.8 381.734C381.867 379.467 382.667 376.534 382.667 375.067C382.667 373.734 384.8 366 387.467 358C394.8 335.2 397.334 322.267 398.267 303.2C399.734 268.8 392.134 233.067 381.067 222.667C379.467 221.2 374.267 218.8 369.6 217.334C360.134 214.4 350.667 209.467 350.667 207.6C350.667 206.934 353.467 208 357.067 210C360.534 212 362.134 212.4 360.534 211.067C358.934 209.734 357.867 207.6 358 206.267C358.267 205.067 357.867 204.267 357.2 204.8C356.534 205.2 356.267 206.134 356.667 206.8C357.2 207.467 356.934 208 356.134 208C355.467 208 354.4 207.334 354 206.667C353.467 205.867 352 205.6 350.667 206C349.334 206.4 347.867 206.134 347.334 205.334C346.8 204.534 347.2 203.867 348.134 204.134C351.6 204.534 353.334 204 353.334 202.534C353.334 201.467 352.667 201.467 351.334 202.667C349.6 204.134 348.934 203.734 349.067 201.334C349.067 200.934 347.6 200.534 345.867 200.534C342.8 200.267 342.667 200.4 344.934 202.134C348.134 204.534 345.334 204.534 342 202.134C340.534 201.2 337.867 199.867 336 199.334C334.134 198.8 336.267 200.667 340.667 203.334Z" fill="black"/>
<path d="M226.667 209.6C218.8 212.267 211.333 229.333 207.333 254C203.2 278.933 205.333 296.667 215.867 323.6C219.6 333.333 222.667 341.867 222.667 342.8C222.667 344.4 231.867 368.267 239.6 386.667C247.867 406.4 257.467 423.867 262.8 428.667C267.6 433.067 274.933 436 280.933 436C286.4 436 285.333 433.733 279.6 433.067C276.4 432.667 272.133 431.333 270.133 430C265.333 426.8 256.667 415.067 254.133 408.4C253.067 405.6 248.933 395.467 244.933 386C234 359.733 224.533 334.933 222.133 326C220.933 321.6 219.067 314.667 218 310.667C213.067 293.2 214 265.6 220.667 238.4C224.933 220.8 230.4 213.333 239.2 213.333C244.267 213.333 243.067 212.267 235.733 210.133C232.133 209.067 228.8 208.8 226.667 209.6Z" fill="black"/>
<path d="M402.401 209.734C395.734 211.867 394.667 213.334 400.001 213.334C406.001 213.334 413.334 221.067 415.867 230C422.934 255.6 425.601 281.734 422.801 300C420.134 318.134 406.267 358.134 390.667 393.334C387.601 400.267 384.401 407.734 383.467 410C380.934 416.667 373.467 426.4 368.267 430C365.201 432.134 361.467 433.334 358.267 433.334C354.934 433.334 353.467 433.867 354.134 434.8C355.201 436.534 365.734 435.2 370.801 432.667C374.667 430.667 382.667 422 382.667 419.867C382.667 419.2 383.867 416.934 385.334 414.934C390.267 408.267 414.667 350.534 414.667 345.6C414.667 344.667 417.601 336.667 421.201 327.6C429.467 306.8 432.001 297.2 432.934 282.4C434.934 251.334 422.801 211.334 410.534 208.934C408.801 208.534 405.067 208.934 402.401 209.734Z" fill="black"/>
<path d="M504.401 245.732C494.001 275.732 478.401 329.999 478.934 333.599C479.201 335.066 482.001 326.799 485.201 315.066C492.534 288.799 495.734 278.266 504.268 251.599C507.868 239.999 510.668 230.266 510.401 229.999C510.134 229.732 507.468 236.799 504.401 245.732Z" fill="black"/>
<path d="M128.267 232C129.334 234.8 141.067 272.4 144 282C145.334 286.4 148.934 299.333 152.134 310.666C155.334 322 158.134 330.266 158.4 328.933C158.934 326.666 156.934 319.6 145.2 280C138.267 256.533 129.867 232.133 128.4 230.8C128 230.4 127.867 230.933 128.267 232Z" fill="black"/>
<path d="M494.667 246.267C488.8 255.467 480.4 273.067 478.8 279.333C478.134 282.267 474.267 293.6 470.4 304.667C466.534 315.6 459.467 336.667 454.8 351.333C438.4 402.533 430.934 420.133 417.867 437.067C410.534 446.667 406.534 448.533 395.067 447.733C392 447.467 389.867 447.733 390.534 448.4C392.267 450.133 405.067 449.733 409.6 447.867C416.667 445.067 423.334 436.8 432.267 420C439.867 405.733 442.8 397.733 462.8 336C483.734 270.933 485.734 265.467 493.334 251.6C500.4 238.933 500.934 236.4 494.667 246.267Z" fill="black"/>
<path d="M147.601 256C151.201 262.934 155.067 272 156.401 276C157.601 280 165.867 305.467 174.667 332.667C183.467 359.734 191.867 385.867 193.467 390.667C197.734 404.134 211.467 430.934 218.267 438.8C225.334 447.2 233.467 450.934 242.001 449.734C244.934 449.334 248.001 448.4 248.667 447.734C249.467 446.934 248.667 446.8 246.267 447.334C244.267 447.867 239.334 447.867 235.201 447.334C228.267 446.534 227.601 446 222.134 439.067C218.934 435.067 213.734 426.934 210.401 420.934C204.134 409.467 190.667 376.267 190.667 372.267C190.667 369.867 164.534 292.4 160.801 283.734C159.601 280.934 158.667 277.734 158.667 276.4C158.667 273.467 147.601 251.2 144.001 246.667C142.534 244.8 144.134 249.067 147.601 256Z" fill="black"/>
<path d="M133.467 257.333C133.467 258.399 134 260.533 134.667 261.999C135.333 263.733 135.867 263.866 135.867 262.666C135.867 261.599 135.333 259.466 134.667 257.999C134 256.266 133.467 256.133 133.467 257.333Z" fill="black"/>
<path d="M501.067 268.267C499.2 275.067 493.334 296.133 488.134 315.067C482.934 334 478.667 350.133 478.667 350.933C478.667 354.533 480.134 349.867 486 328.667C489.334 316.133 493.867 299.733 496 292C498.134 284.267 501.067 273.333 502.667 267.6C504.267 261.733 505.334 256.8 504.934 256.533C504.667 256.267 502.934 261.467 501.067 268.267Z" fill="black"/>
<path d="M136.8 268.667C137.867 274.801 157.6 347.201 158.4 348.001C159.6 349.201 157.467 339.734 151.2 317.334C141.067 280.267 135.6 262.134 136.8 268.667Z" fill="black"/>
<path d="M474.133 323.999C465.867 351.332 457.2 377.999 452.133 391.732C449.333 399.599 446.533 407.466 446.133 409.332C444.4 417.199 426.667 446.666 423.6 446.666C423.067 446.666 420.8 447.999 418.533 449.599C416.4 451.199 411.733 452.932 408.267 453.466L402 454.266L408.4 454.532C415.6 454.666 418.133 453.599 426.267 447.066C431.733 442.532 439.733 430.399 444.267 419.332C456.267 390.666 479.467 318.932 478.4 313.732C478.133 312.399 476.267 317.066 474.133 323.999Z" fill="black"/>
<path d="M159.201 337.867C160.534 348.4 179.734 405.6 186.534 419.334C192.001 430.4 191.734 425.334 186.134 413.2C182.134 404.267 173.734 380.134 162.667 345.334C160.267 338 158.934 334.8 159.201 337.867Z" fill="black"/>
<path d="M475.467 346.133C470.801 363.333 457.201 402.799 451.867 414.799C445.467 429.599 445.201 433.333 451.467 420.666C459.601 404.399 479.201 345.199 478.401 339.599C478.134 338.266 476.801 341.199 475.467 346.133Z" fill="black"/>
<path d="M158.801 352.8C158.534 361.067 187.867 440.667 190.267 438.267C190.534 438 187.867 431.467 184.534 423.867C177.601 408.267 169.734 386.4 163.201 364.667C160.801 356.534 158.801 351.334 158.801 352.8Z" fill="black"/>
<path d="M476.667 360.266C475.333 366.399 461.6 407.332 458.267 414.666C456.933 417.999 453.6 425.066 451.067 430.399C448.533 435.866 446.667 440.532 447.067 440.799C449.2 443.066 475.2 376.266 478.133 360.666C479.2 354.799 477.867 354.532 476.667 360.266Z" fill="black"/>
<path d="M190.667 429.066C190.667 432.132 196 441.332 200.934 446.799C209.334 455.999 222.934 461.866 228.267 458.532C229.334 457.732 227.734 457.332 223.867 457.332C219.6 457.332 216.267 456.266 211.867 453.466C204.534 448.799 201.467 445.466 195.467 435.332C192.8 430.932 190.667 428.132 190.667 429.066Z" fill="black"/>
<path d="M442.933 435.866C435.467 449.066 424.8 457.199 414.8 457.466C409.333 457.599 409.067 457.732 412.4 458.666C421.6 461.466 437.733 450.799 444.667 437.332C448 430.932 446.4 429.599 442.933 435.866Z" fill="black"/>
<path d="M190.667 441.333C190.667 444.4 203.867 457.333 210 460.133C212.934 461.467 216.8 462.533 218.667 462.533C220.934 462.4 219.867 461.867 215.734 460.667C206.934 458.267 197.6 450.8 192.4 442C191.2 440.133 190.8 439.867 190.667 441.333Z" fill="black"/>
<path d="M438.534 450.8C433.2 456.266 429.467 458.933 425.467 460C422.267 460.8 420 461.866 420.4 462.266C421.734 463.466 430.667 459.866 434.667 456.4C436.934 454.666 439.334 453.6 440.134 454.133C441.067 454.666 441.334 454.533 440.8 453.6C440.4 452.933 441.6 450.4 443.467 448C449.467 441.066 446.4 442.666 438.534 450.8Z" fill="black"/>
</svg>
