<svg width="640" height="640" viewBox="0 0 640 640" fill="none" xmlns="http://www.w3.org/2000/svg">
<path d="M96.6667 78.6659C95.3334 80.1326 94.5334 81.5993 94.9334 81.9993C95.3334 82.3993 96.4001 81.8659 97.3334 80.6659C99.6001 77.8659 104.267 78.1326 108.8 81.4659C112.267 83.9993 112.133 83.8659 108.267 80.1326C103.2 75.3326 100 74.9326 96.6667 78.6659Z" fill="black"/>
<path d="M532 78.1321C530.134 79.3321 527.467 81.8654 526 83.7321C523.867 86.7988 524.134 86.6654 528.534 82.7988C532.934 79.0654 534.534 78.5321 538.267 79.0654C542.134 79.7321 542.667 79.5988 541.334 77.9988C539.2 75.4654 536.134 75.4654 532 78.1321Z" fill="black"/>
<path d="M542.8 81.9983C542.8 82.6649 543.866 85.4649 545.333 87.9983C546.8 90.5316 547.866 91.9983 547.866 91.3316C547.866 90.5316 546.8 87.8649 545.333 85.3316C543.866 82.7983 542.8 81.1983 542.8 81.9983Z" fill="black"/>
<path d="M90.8 91.3318C89.2 95.4651 88 99.4651 88 100.398C88.1333 101.332 89.6 98.1318 91.4667 93.4651C93.2 88.7984 94.4 84.6651 94.1333 84.3984C93.8667 83.9984 92.4 87.1984 90.8 91.3318Z" fill="black"/>
<path d="M98.8004 87.8652C92.9337 94.1318 86.9337 121.865 89.2004 132.665C90.4004 137.865 90.4004 137.865 90.5337 129.998C90.8004 117.998 95.2004 98.2652 98.5337 93.4652C102.534 87.8652 107.067 86.9318 112.4 90.6652C116.267 93.3318 116.267 93.1985 111.734 88.7985C105.6 83.0652 103.467 82.7985 98.8004 87.8652Z" fill="black"/>
<path d="M528.4 86.5331C526.133 87.9998 524 88.9331 523.6 88.5331C523.333 88.2665 522.266 88.9331 521.2 90.2665C520 91.7331 519.866 92.1331 521.066 91.4665C523.6 89.8665 522.933 92.5331 520 95.0665C518.133 96.5331 517.333 96.7998 517.333 95.5998C517.2 94.7998 516 96.3998 514.4 99.3331C512.933 102.266 511.2 104.933 510.533 105.333C508.933 106.4 498.8 128.533 499.6 129.333C499.866 129.6 500.533 129.2 501.066 128.4C502.533 126 508.4 125.066 512.133 126.533C519.2 129.2 527.6 157.466 526.4 174C525.866 180.133 523.866 186.4 518.133 199.066C513.866 208.4 510.666 216.666 510.933 217.466C511.2 218.266 514 212.533 517.2 204.8C520.4 197.066 523.466 190.666 524 190.666C525.866 190.666 530.666 171.333 530.666 163.6C530.666 155.2 527.466 137.733 524.8 131.333C522.533 126.266 515.6 118.666 512.933 118.666C511.733 118.666 509.066 120.266 506.8 122.133C504.533 124 502.666 125.066 502.8 124.4C502.933 122 510.533 107.466 510.533 109.2C510.666 110.666 511.466 110.4 513.733 108.4C519.333 103.2 522.533 102.266 526.133 104.533C530.4 107.466 532.8 111.2 536 120.8C541.066 135.466 541.866 150.933 538.133 162C537.6 163.466 538.4 162.533 539.866 160C542 156.266 542.533 152.933 542.666 142.266C542.666 122.133 537.6 105.866 529.2 99.5998C525.866 97.1998 525.466 97.1998 521.466 99.1998C519.2 100.4 516.4 102.933 515.2 104.8C511.866 109.733 511.466 107.6 514.533 101.733C516 98.9331 517.2 97.1998 517.333 97.8665C517.333 98.5331 520 96.5331 523.333 93.4665C526.533 90.5331 530.533 87.9998 532.133 87.9998C539.733 87.9998 546 103.2 548.133 127.333C549.066 137.333 549.066 137.2 548.8 123.333C548.533 111.466 547.733 106.666 544.933 98.6665C541.6 89.3331 537.733 83.9998 534.133 83.9998C533.333 83.9998 530.8 85.1998 528.4 86.5331Z" fill="black"/>
<path d="M108.266 100.666C97.5996 109.6 91.0663 145.333 97.5996 157.866C99.0663 160.8 99.3329 159.066 99.3329 145.6C99.3329 132.8 99.8663 128.4 102.4 121.066C107.733 105.733 112.8 101.333 120.4 105.2C126.4 108.266 125.466 105.6 118.666 100.666C113.066 96.5332 113.066 96.5332 108.266 100.666Z" fill="black"/>
<path d="M129.333 108.266C129.333 108.666 130.8 112.399 132.666 116.533C134.533 120.666 136 124.399 136 124.799C136 125.199 134.133 123.999 131.866 122.133C126.4 117.466 124.533 117.733 119.2 123.599C113.066 130.133 109.333 142.666 108.4 158.799C107.6 172.933 109.2 180.133 116 192.666C118 196.266 121.066 202.799 122.8 206.933C124.4 211.199 126.133 214.399 126.4 213.999C126.8 213.599 123.866 206.266 119.866 197.733C112.8 182.133 112.8 181.866 112.8 169.333C112.933 155.466 115.466 143.466 120.666 133.199C124.933 125.066 128.933 123.466 136.266 127.199L139.866 129.066L135.2 118.933C130.8 109.333 129.333 106.666 129.333 108.266Z" fill="black"/>
<path d="M126.667 110.933C126.667 112.133 127.334 113.599 128 113.999C129.734 115.066 129.734 113.333 128 110.666C126.934 108.933 126.667 108.933 126.667 110.933Z" fill="black"/>
<path d="M509.467 114.133C509.467 115.599 509.867 115.999 510.267 114.933C510.667 113.999 510.533 112.799 510.133 112.399C509.733 111.866 509.333 112.666 509.467 114.133Z" fill="black"/>
<path d="M495.6 126.267C493.334 128.8 488 140.533 488 143.067C488 143.867 486.4 146.267 484.4 148.267C482.4 150.267 481.467 152 482.4 152C483.2 152 484.267 151.333 484.667 150.667C487.6 145.867 498 152.8 501.867 162C507.334 175.067 509.867 202.133 506.4 212.133C505.6 214.667 500.534 226.8 495.334 239.333C486.4 260.4 483.067 269.733 476.267 294C471.867 309.467 456.134 360.4 444.534 396.667C440.934 407.733 430.934 428 424.4 437.067C416.934 447.6 409.734 451.467 400.134 450.133C395.867 449.6 394.667 449.733 396 450.667C397.067 451.333 401.2 452 405.067 452C413.6 452 421.734 447.2 427.734 438.267C433.067 430.667 444.934 406.933 446 402C446.534 399.733 449.2 391.067 452 382.667C454.934 374.267 459.6 359.467 462.534 350C465.467 340.4 470 325.733 472.534 317.333C475.2 308.933 477.867 298.933 478.534 295.333C481.2 282.133 495.2 243.467 504.934 222.8C511.467 208.933 513.6 194.4 511.867 176.667C509.6 154.933 502.534 142 493.734 142.933C491.334 143.2 489.334 143.2 489.334 142.667C489.467 142.267 491.467 138 493.867 132.933C496.267 128 498.134 124 498 124C497.867 124 496.8 125.067 495.6 126.267Z" fill="black"/>
<path d="M145.333 133.867C147.6 138.667 149.333 142.8 149.333 143.067C149.333 143.333 147.467 143.333 145.2 142.933C136.267 141.6 128.4 155.467 126.533 176.133C124.933 195.6 126.667 207.733 133.067 221.333C142.533 241.467 158.667 285.067 158.667 290.8C158.667 293.333 174.4 346 184.133 376C187.867 387.333 191.467 398.8 192.267 401.333C197.067 417.067 210.533 440.133 219.067 446.8C224.933 451.467 226.4 452 233.067 452C237.333 452 241.6 451.333 242.667 450.667C244.133 449.733 242.933 449.6 238.933 450.133C229.6 451.6 222.267 447.867 215.2 438.267C208.4 429.067 197.6 407.467 193.467 394.667C189.467 382.4 177.733 344.267 167.333 310C162.533 293.867 157.067 275.867 155.333 270C153.467 264.133 148.133 250.267 143.2 239.333C132.533 214.933 130.667 208.667 130.667 196.267C130.667 186 133.467 169.733 136.667 162.267C140.667 152.8 151.067 145.867 154 150.667C154.4 151.333 155.467 152 156.267 152C157.2 152 156.267 150.267 154.267 148.267C152.267 146.267 150.667 143.867 150.667 142.933C150.667 140.533 144.4 127.067 142.933 126.133C142.133 125.6 143.2 129.2 145.333 133.867Z" fill="black"/>
<path d="M480.533 145.998C479.333 147.731 478.667 149.865 478.933 150.665C479.2 151.598 480.4 149.998 481.733 147.465C484.267 141.998 483.733 141.198 480.533 145.998Z" fill="black"/>
<path d="M156 144.666C156 145.333 156.667 146.933 157.333 147.999C158 149.066 158.667 149.333 158.667 148.666C158.667 147.866 158 146.399 157.333 145.333C156.667 144.266 156 143.866 156 144.666Z" fill="black"/>
<path d="M158.667 152.132C158.667 153.199 159.6 155.332 160.667 156.799C163.067 159.999 163.2 157.732 160.667 153.332C159.467 151.199 158.8 150.799 158.667 152.132Z" fill="black"/>
<path d="M476.133 156.799C474.533 160.399 474.666 160.533 476.666 158.399C478 157.199 478.8 155.599 478.4 154.666C478.133 153.733 477.066 154.799 476.133 156.799Z" fill="black"/>
<path d="M162.8 168.532C161.067 169.465 158.133 173.865 155.733 179.198C146.533 200.132 145.6 223.598 153.2 243.998C155.6 250.265 158 257.065 158.667 259.332C159.333 261.465 162 269.065 164.667 275.998C170.933 292.132 185.867 335.998 188.8 346.932C196.667 376.532 207.333 404.398 218.667 425.332C224.533 436.132 229.333 441.865 234.933 444.798C239.067 446.932 254.133 447.332 255.333 445.332C255.867 444.532 254.667 444.398 252.133 444.798C239.6 447.332 230.133 439.732 219.6 418.398C210.133 399.065 190.667 346.932 190.667 340.665C190.667 337.198 175.333 293.065 166.8 272.132C154.4 241.598 152.533 226.665 157.733 199.332C161.067 181.998 167.067 173.732 175.333 175.065L180.133 175.865L177.2 171.598C173.333 165.998 172.667 165.465 173.733 168.398C174.533 170.532 174.267 170.532 170.667 168.665C166.133 166.265 166.8 166.265 162.8 168.532Z" fill="black"/>
<path d="M461.734 171.199L458.8 175.733L463.867 175.066C468.4 174.399 469.334 174.799 473.067 179.466C479.067 186.666 483.067 204.266 483.2 223.333C483.334 240.266 481.067 249.066 470.4 275.999C462.667 295.199 446.667 341.866 446.667 345.199C446.667 348.133 436.4 378.399 429.6 395.333C422.8 412.266 412.8 431.599 408.267 436.399C402.934 442.133 395.2 445.599 389.2 445.066C386.534 444.799 384.534 445.066 384.8 445.599C385.2 446.266 389.067 446.666 393.334 446.666C400.134 446.666 401.867 446.133 406.934 442.266C410 439.866 413.2 436.666 414 435.199C414.667 433.866 418.134 427.866 421.467 421.999C427.6 411.333 440.4 379.733 444.667 364.666C450 345.466 456.8 324.399 464.667 301.999C469.334 288.799 474.4 274.133 476.134 269.333C477.734 264.533 480.534 257.333 482.134 253.333C493.334 226.399 493.334 202.133 482.4 178.399C477.867 168.266 474.534 165.733 468.8 167.999C466.8 168.666 465.334 168.666 465.067 167.999C464.8 167.333 463.334 168.799 461.734 171.199Z" fill="black"/>
<path d="M187.067 196.665C180 205.198 174.667 225.332 174.667 244.132C174.667 255.732 178.8 276.132 183.2 285.598C187.2 294.532 189.6 300.798 190.667 305.998C191.334 308.932 197.467 327.198 204.4 346.665C211.334 366.132 218.4 385.865 220 390.665C227.2 411.198 230 416.398 239.467 428.398C247.867 439.198 257.867 443.465 266 439.998C268 439.065 267.2 438.798 262.534 438.798C247.6 438.532 233.334 418.265 220.667 379.332C218.267 371.998 212.267 354.932 207.467 341.332C186 281.598 182.667 269.598 182.667 251.332C182.667 232.265 189.734 206.132 196.267 200.665C199.2 198.132 201.334 197.332 203.6 197.998C207.867 199.065 207.467 197.732 202.4 194.665C195.734 190.665 191.467 191.198 187.067 196.665Z" fill="black"/>
<path d="M435.333 195.332C430 198.799 430 198.799 434.133 197.999C437.333 197.332 439.2 197.865 442 200.265C448.133 205.599 454.4 225.865 455.6 244.665C456.933 267.599 454.933 275.199 427.733 351.332C421.2 369.599 415.2 386.799 414.667 389.465C411.067 403.732 396.267 428.532 387.6 434.799C383.733 437.599 380.667 438.665 376.133 438.799L370 438.932L374.4 440.399C383.867 443.332 397.6 434.399 405.6 419.865C412.8 406.665 414.533 403.199 414.533 401.199C414.667 399.999 416.8 393.732 419.333 387.332C424.8 373.999 446 313.332 447.2 307.599C447.733 305.599 450.667 297.199 453.867 288.932C460.933 270.932 464 256.932 464 243.065C464 225.332 458.533 205.065 451.6 196.665C446.933 190.932 442.8 190.665 435.333 195.332Z" fill="black"/>
<path d="M522.667 195.599C519.467 202.665 510.667 228.399 510.8 230.532C510.8 231.732 513.467 225.065 516.534 215.865C519.734 206.665 523.067 197.865 523.867 196.132C524.8 194.532 525.334 192.799 524.934 192.532C524.667 192.265 523.734 193.599 522.667 195.599Z" fill="black"/>
<path d="M295.733 199.465C295.2 199.865 292.667 200.398 289.733 200.665C286.933 200.798 284.267 201.065 283.733 201.198C283.067 201.332 282.8 201.998 283.067 202.798C283.2 203.598 282.533 204.665 281.467 205.065C280.4 205.465 280 205.065 280.533 204.132C281.733 202.132 279.6 202.265 277.6 204.265C276.667 205.198 276 205.465 276 204.932C276 203.465 265.333 209.198 259.467 213.865C254.267 217.865 254.267 217.998 257.467 218.798C259.2 219.198 261.333 219.065 262.133 218.398C262.933 217.865 264 217.732 264.4 218.132C264.8 218.532 266 218.398 266.933 217.865C267.867 217.332 269.6 216.665 270.667 216.665C272.667 216.532 275.2 214.798 289.6 204.265C291.867 202.665 294.4 201.332 295.2 201.465C296 201.465 295.2 202.532 293.333 203.732C291.6 204.932 288.267 207.732 286 209.865C281.333 214.265 268 220.932 261.467 222.132C255.733 223.332 250.4 231.465 246 245.998C237.067 275.598 238.133 314.532 248.8 349.998C250.8 356.532 253.067 365.332 254 369.465C255.867 377.732 263.867 399.998 268.133 408.398C275.867 423.732 285.6 432.132 294.933 431.865C297.6 431.732 298.267 431.465 296.667 431.065C284.667 428.532 276.8 417.332 266.8 389.332C259.2 367.598 256.4 356.665 253.067 335.332C246.4 292.798 251.867 240.265 264.267 227.065C265.733 225.465 270 222.532 273.867 220.665C277.6 218.798 283.333 214.798 286.667 211.865C290 208.798 295.2 204.932 298.4 203.065C304 199.732 305.6 197.065 300.267 199.865C296.8 201.732 295.6 201.732 296.667 199.998C297.6 198.532 296.933 198.132 295.733 199.465ZM281.333 208.665C275.867 212.665 270.667 215.732 269.733 215.332C268.8 215.065 267.733 215.332 267.2 216.132C266.8 216.932 265.6 217.198 264.667 216.798C263.733 216.532 262.267 216.932 261.467 217.732C260.4 218.798 260 218.798 260 217.465C260 216.532 259.333 216.265 258.4 216.798C257.067 217.465 257.067 217.332 258.133 216.132C260 214.132 265.733 212.932 264.533 214.932C264 215.865 264.267 215.998 265.2 215.465C266.4 214.665 266.4 213.865 265.067 212.265C264.133 210.932 264 210.398 264.533 210.932C265.2 211.465 267.467 210.665 269.733 209.065C272 207.465 273.333 206.798 272.8 207.732C271.333 209.998 274 209.732 276 207.332C276.933 206.132 278.667 205.598 279.867 205.865C281.067 206.265 283.467 205.465 285.333 203.998C287.2 202.532 289.2 201.332 290 201.332C290.667 201.332 286.8 204.665 281.333 208.665Z" fill="black"/>
<path d="M275.6 209.332C271.733 212.398 270 212.798 271.467 210.265C272.133 209.198 271.733 209.332 270.133 210.532C268.667 211.732 268.4 212.932 269.2 213.732C270 214.532 272.133 213.598 275.2 211.332C279.6 207.998 280.8 206.665 279.467 206.665C279.2 206.665 277.467 207.865 275.6 209.332Z" fill="black"/>
<path d="M304.8 202.798C302.134 205.065 297.334 211.065 294 215.998C282.934 232.665 276.934 265.198 276.934 308.665C276.934 322.531 277.6 339.065 278.534 345.331C281.067 364.265 286.667 393.465 289.467 403.065C292.934 414.798 300 426.665 305.067 429.598C310.534 432.931 313.2 432.665 308.934 429.331C300.667 422.798 293.067 397.598 288.667 362.665C286 340.798 286 281.065 288.667 261.198C292.4 232.798 298.667 214.131 308 203.465C313.2 197.598 311.2 197.198 304.8 202.798Z" fill="black"/>
<path d="M318.134 200.8C313.734 214.667 314 417.333 318.4 429.333L319.6 432.533L320.534 428.933C323.6 416.667 324.934 286.933 322.667 232.933C321.334 203.867 320.134 194.667 318.134 200.8Z" fill="black"/>
<path d="M330.267 202.932C338.934 211.999 345.6 230.265 349.467 255.332C351.734 269.732 351.734 353.999 349.467 368.665C346.667 387.065 341.2 409.732 337.734 417.199C336 421.199 332.667 426.132 330.4 428.265C325.867 432.399 327.467 433.199 333.6 429.599C338.4 426.799 345.734 414.799 348.534 405.065C356.667 376.799 361.6 340.132 361.734 308.665C361.734 280.932 359.734 260.799 355.067 243.599C353.334 236.799 351.467 229.865 351.067 227.999C350 223.199 339.334 207.599 333.867 202.799C327.734 197.332 325.067 197.465 330.267 202.932Z" fill="black"/>
<path d="M334.667 198.933C334.667 199.2 338.267 201.866 342.667 204.666C347.067 207.466 350.667 210.266 350.667 210.8C350.667 211.866 367.334 222.666 369.067 222.666C370.8 222.666 376.8 229.466 379.067 234.133C382.267 240.4 386.534 262.666 388.267 281.6C391.067 313.333 384.8 353.6 371.2 391.2C362.667 414.666 353.734 428 344.8 430.533L340.667 431.733L344.534 431.866C350.934 432.133 359.2 426.133 365.067 417.333C370.667 408.933 381.067 383.333 384 370.666C384.934 366.666 387.2 358.8 388.934 353.333C397.2 327.066 400.667 293.333 397.467 268.666C395.467 253.066 390.4 236.8 385.467 229.333C382.267 224.4 380.267 222.933 375.067 221.466C371.6 220.4 366.267 218.4 363.334 216.933C357.867 214.266 342.4 202.4 343.334 201.6C343.867 201.066 349.6 203.866 350.667 205.2C351.467 206.133 363.6 214.933 366.534 216.666C367.734 217.333 368.134 217.2 367.467 216.266C366 213.866 368.8 214.4 370.667 216.666C371.6 217.866 373.2 218.533 374 218.133C374.934 217.866 376.534 218.266 377.467 219.066C378.534 220.133 378.534 219.733 377.334 218.133C376.267 216.666 375.6 214.4 375.734 212.8C376.134 210.533 376 210.4 374.134 211.866C372.267 213.466 371.467 213.333 369.067 211.2C367.467 209.733 366.667 209.466 367.334 210.533C368 211.733 367.734 212.133 366.534 211.733C365.467 211.333 364.534 210.4 364.534 209.6C364.4 208.666 364.134 207.733 364 207.333C363.867 206.933 363.6 206.133 363.467 205.466C363.467 204.8 362.934 203.733 362.4 203.2C361.867 202.8 361.6 203.6 362 205.2C362.667 208.533 361.6 208.666 358.134 206C356.267 204.533 356 204 357.467 204C359.067 204 359.067 203.733 357.467 202.8C356.4 202.133 354.667 201.866 353.6 202.4C352.134 202.933 351.867 202.533 352.667 201.2C353.467 199.733 353.334 199.6 351.867 200.933C350 202.8 347.467 203.333 348.534 201.6C348.8 201.066 346.934 200.533 344.267 200.533C341.467 200.4 338.267 200 337.067 199.333C335.734 198.8 334.667 198.666 334.667 198.933ZM355.334 204.133C354.934 204.533 357.467 206.933 360.667 209.2C364 211.6 366.667 213.733 366.667 214.133C366.667 215.2 359.867 210.933 354.934 206.8C351.2 203.866 350.934 203.2 353.2 203.2C354.667 203.2 355.6 203.6 355.334 204.133ZM373.067 214.133C373.734 213.733 374.267 214.266 374.267 215.333C374.267 218.133 372.8 217.866 369.867 214.4C368 212.133 367.867 211.733 369.6 213.2C370.8 214.133 372.4 214.533 373.067 214.133Z" fill="black"/>
<path d="M118 203.865C121.867 215.999 126.534 228.265 126.534 226.399C126.667 223.865 118.8 201.332 117.734 201.332C117.467 201.332 117.467 202.532 118 203.865Z" fill="black"/>
<path d="M366.667 206.533C366.667 207.199 367.6 208.133 368.8 208.533C370.667 209.199 370.8 209.066 369.334 207.333C367.467 205.066 366.667 204.799 366.667 206.533Z" fill="black"/>
<path d="M221.2 214.932C212.4 223.199 207.066 240.399 205.733 264.665C204.8 283.065 207.066 295.732 216.266 323.999C219.866 335.332 225.066 351.199 227.733 359.332C233.466 376.799 245.466 406.665 249.333 412.532C250.8 414.799 252.8 418.532 253.866 420.799C258.8 431.199 275.6 439.199 282.666 434.665C284.133 433.732 283.333 433.332 279.333 433.332C269.333 433.332 260.533 425.599 253.733 410.665C243.2 387.599 224.933 338.532 222.666 326.665C222 323.332 220.266 315.599 218.666 309.332C213.333 286.932 213.866 258.932 220 237.999C221.333 233.599 222.8 228.532 223.2 226.665C224.266 222.532 230.666 217.465 235.2 217.065C240.133 216.665 239.466 215.332 233.466 213.599C226.4 211.332 224.8 211.599 221.2 214.932Z" fill="black"/>
<path d="M404.4 213.732C398.533 215.865 398 216.932 402.533 216.932C411.866 216.932 417.866 228.398 422.266 254.932C424.933 270.932 423.866 295.065 420 309.998C418.4 315.865 416.266 324.265 415.333 328.665C409.733 352.798 385.6 413.065 377.333 423.598C373.2 428.932 365.466 433.332 360.266 433.332C357.6 433.332 356.133 433.865 356.666 434.665C358.8 438.132 371.6 434.798 378 429.065C380.533 426.932 382.666 424.532 382.666 423.732C382.666 423.065 384.4 419.998 386.666 416.932C391.466 410.132 403.6 381.332 410 361.732C412.533 353.732 418 337.198 422 324.932C431.466 296.265 433.866 282.398 432.933 263.998C431.6 240.265 426.133 223.065 417.466 214.932C414 211.732 410.8 211.465 404.4 213.732Z" fill="black"/>
<path d="M126.667 219.332C126.667 220.932 127.2 222.665 127.867 223.332C128.534 224.132 132.4 235.199 136.4 247.999C148.267 285.599 150.534 293.865 161.734 337.999C166.4 356.799 173.734 380.399 180.8 399.199C184.134 408.132 188.267 418.932 189.867 423.332C195.867 439.465 206.134 452.399 216.267 456.665C222.267 459.065 226 459.065 231.334 456.799C235.067 455.199 234.934 455.065 227.867 455.732C219.2 456.399 215.334 454.799 207.2 446.932C201.6 441.465 190.667 422.132 190.667 417.732C190.667 416.399 190.134 414.665 189.467 413.999C186.534 410.665 166.667 349.332 161.334 326.665C150.667 281.999 126.667 207.865 126.667 219.332Z" fill="black"/>
<path d="M505.467 231.598C496.133 257.865 481.067 308.131 478.533 322.265C475.733 337.731 454.133 405.065 448.667 415.465C447.6 417.598 446.667 420.131 446.667 421.198C446.667 424.931 436.533 441.998 431.333 446.931C423.467 454.798 419.467 456.398 410.8 455.731C403.733 455.065 403.6 455.198 407.333 456.798C416.133 460.665 425.333 457.331 434.667 447.198C441.067 440.265 443.6 435.731 451.067 417.331C460.133 395.198 476.533 343.731 478.133 332.665C478.533 329.731 480 323.465 481.333 318.665C482.8 313.865 486.933 299.198 490.667 285.998C494.4 272.798 500.533 252.798 504.267 241.598C511.467 219.598 512.4 212.398 505.467 231.598Z" fill="black"/>
<path d="M124.134 232.799C124.134 234.265 124.534 234.665 124.934 233.599C125.334 232.665 125.2 231.465 124.8 231.065C124.4 230.532 124 231.332 124.134 232.799Z" fill="black"/>
<path d="M126.267 234.532C125.733 237.065 125.6 239.332 126 239.732C126.4 240.132 126.667 239.598 126.8 238.532C127.067 234.132 152.4 327.998 160 361.332C164.667 381.332 182.4 429.865 188.8 439.598C189.867 441.198 190.667 443.198 190.667 443.998C190.667 446.265 202.8 458.665 207.2 460.932C211.2 463.065 222.267 463.598 224.133 461.732C224.667 461.198 222.533 460.932 219.2 461.198C215.867 461.332 211.467 460.932 209.333 459.998C202.267 457.065 193.6 445.998 187.2 431.598C183.867 424.132 180.667 416.798 180 415.332C177.333 409.998 164.267 369.598 161.6 358.665C160 352.398 157.6 342.532 156.267 336.665C153.867 327.198 147.867 304.398 138 267.998C135.6 258.932 131.067 243.332 127.467 231.332C127.333 230.665 126.667 232.132 126.267 234.532Z" fill="black"/>
<path d="M513.467 232.799C513.467 234.265 513.867 234.665 514.267 233.599C514.667 232.665 514.533 231.465 514.133 231.065C513.733 230.532 513.333 231.332 513.467 232.799Z" fill="black"/>
<path d="M504.133 256.266C501.066 267.466 497.333 280.533 496 285.333C494.666 290.133 490.133 306.799 486.133 322.399C479.333 348.266 477.6 356.133 479.333 354.533C479.6 354.133 484.133 337.733 489.466 317.999C508.666 245.333 510.266 239.599 510.666 243.333C510.8 245.066 511.333 244.533 512.133 241.466C512.933 239.066 513.2 236.666 512.8 236.266C512.4 235.866 512 236.666 511.866 238.133C511.866 240.533 511.733 240.533 510.8 238.266C510.133 236.533 508.133 242.266 504.133 256.266Z" fill="black"/>
<path d="M126.8 246.399C126.667 248.132 151.734 347.332 155.867 361.332C157.334 366.132 158.534 368.665 158.534 367.199C158.667 365.599 157.467 360.532 156 355.865C154.667 351.199 148 325.999 141.467 299.999C128.534 249.732 126.934 243.732 126.8 246.399Z" fill="black"/>
<path d="M509.333 251.198C509.333 252.932 486.933 340.798 482.533 356.265C480.267 364.132 478.667 371.332 478.933 372.132C479.2 372.932 481.6 365.598 484.4 355.865C492.933 324.665 510.8 251.732 510.133 250.932C509.733 250.532 509.333 250.665 509.333 251.198Z" fill="black"/>
<path d="M476 362.933C473.2 373.999 462 407.999 458.667 415.333C441.733 453.333 436.933 459.333 421.467 461.333L414 462.266L421.067 462.533C429.333 462.666 433.6 460.799 440.133 453.733C446 447.599 451.2 438.133 458.667 420.799C468.533 397.333 481.2 355.999 478.4 355.999C478.133 355.999 477.067 359.199 476 362.933Z" fill="black"/>
<path d="M158.667 373.731C158.533 380.931 176.4 429.598 183.733 441.998C185.467 444.931 188.133 449.465 189.733 452.131C195.333 461.465 204.133 466.798 213.067 466.531C217.867 466.398 217.867 466.265 211.867 465.331C208.533 464.798 203.867 463.331 201.733 462.131C197.467 459.998 190.667 452.798 190.667 450.531C190.667 449.731 189.2 447.198 187.467 444.931C181.867 437.598 173.333 416.798 164.667 389.865C161.467 379.598 158.8 372.398 158.667 373.731Z" fill="black"/>
<path d="M473.466 391.467C467.6 411.067 456.933 436.4 451.066 445.067C448.4 448.933 446.533 452.4 446.933 452.667C447.6 453.333 451.466 448 456.266 440C462 430.4 479.466 381.733 478.4 378.4C478.133 377.6 475.866 383.467 473.466 391.467Z" fill="black"/>
<path d="M443.2 457.466C439.867 461.199 434.4 463.866 427.6 465.332C422.267 466.266 422.267 466.399 426.4 466.532C428.8 466.666 432.667 465.866 435.067 464.799C440.267 462.532 447.6 456.532 446.533 455.466C446.133 455.066 444.667 455.866 443.2 457.466Z" fill="black"/>
</svg>
