<svg width="640" height="640" viewBox="0 0 640 640" fill="none" xmlns="http://www.w3.org/2000/svg">
<path d="M92.933 74.4003C90.133 77.3336 86.6663 85.8669 86.7996 88.9336C86.7996 90.2669 87.8663 88.5336 89.0663 85.2003C92.6663 75.2003 96.3996 72.2669 99.9996 76.6669C100.933 77.7336 102.4 78.6669 103.2 78.6669C104.8 78.5336 97.8663 72.0003 96.133 72.0003C95.5996 72.0003 94.133 73.0669 92.933 74.4003Z" fill="black"/>
<path d="M538.533 74.5339C534.266 77.8673 526.4 88.9339 527.866 89.6006C528.4 89.7339 527.733 91.2006 526.266 92.6673C523.733 95.3339 523.733 95.3339 524.666 92.0006C525.466 88.9339 525.333 89.0673 522.933 92.6673C520.8 96.1339 518.533 101.601 513.866 114.001C513.333 115.734 513.333 116.267 514.266 115.334C514.933 114.534 516.933 110.134 518.666 105.334C521.733 96.5339 525.066 90.9339 523.466 97.3339C522.666 100.401 522.666 100.401 524.133 98.0006C525.066 96.6673 528 93.2006 530.8 90.4006C537.866 83.2006 540.133 83.6006 544.666 92.5339C546.8 96.6673 547.333 100.401 547.333 110.801C547.333 118.534 547.733 122.934 548.4 121.734C549.066 120.667 549.333 114.001 549.066 106.934C548.8 96.6673 548 92.6673 545.6 87.6006C542.133 80.6673 540.266 80.0006 534.533 84.1339C528.933 88.0006 529.733 85.4673 535.866 79.4673C541.866 73.6006 544 73.7339 548 80.2673C551.066 85.4673 551.6 84.2673 548.666 78.6673C545.733 72.9339 542.266 71.4673 538.533 74.5339Z" fill="black"/>
<path d="M92.3993 88.9333C89.5993 95.3333 88.9326 98.6666 88.9326 108C89.066 114.267 89.5993 120.667 90.1326 122.267C90.9326 124.4 91.3326 121.333 91.3326 112.933C91.3326 98.2666 93.9993 88.2666 98.3993 86.2666C100.799 85.1999 102.266 85.4666 105.733 87.9999C109.199 90.5333 109.599 90.6666 107.999 88.5333C100.933 79.0666 96.7993 79.1999 92.3993 88.9333Z" fill="black"/>
<path d="M102.133 99.334C100.533 101.067 98.3999 105.067 97.4666 108.134C92.7999 123.734 94.5332 137.067 105.467 169.067C109.067 179.867 115.333 200.401 119.333 214.667C123.333 228.934 126.533 239.201 126.533 237.467C126.667 232.801 117.2 199.601 107.733 171.334C100.8 150.534 99.5999 145.601 99.0666 134.401C97.9999 115.467 102.533 102.667 110.4 102.667C112.267 102.667 114.933 103.734 116.4 104.934C118.933 107.201 119.067 107.201 117.6 104.401C115.6 100.934 109.6 96.0006 107.067 96.0006C106 96.0006 103.867 97.4673 102.133 99.334Z" fill="black"/>
<path d="M525.867 98.933C521.6 102.266 520 104 520 105.866C520 106.533 521.067 106.133 522.4 105.066C530.8 97.733 537.467 105.333 540.667 126C541.733 133.6 538.533 148 530 173.866C520.933 201.466 510.667 238 510.8 242.666C510.8 244.533 513.867 234.933 517.467 221.333C521.2 207.733 527.733 185.866 532 172.666C542.533 140.533 542.667 140 542.667 124.666C542.667 113.466 542.133 110.266 539.467 104.533C536.667 98.533 534.133 95.9997 530.8 95.9997C530.133 95.9997 528 97.333 525.867 98.933Z" fill="black"/>
<path d="M117.333 97.9998C117.333 98.6665 118 100.266 118.666 101.333C119.333 102.4 120 102.666 120 102C120 101.2 119.333 99.7332 118.666 98.6665C118 97.5998 117.333 97.1998 117.333 97.9998Z" fill="black"/>
<path d="M512.799 106.533C511.599 108.666 510.666 111.599 510.666 112.933C510.666 114.266 511.866 112.666 513.333 109.466C516.399 102.799 515.866 100.399 512.799 106.533Z" fill="black"/>
<path d="M120.8 106.667C122.267 112.267 124 116.401 124.667 115.734C125.067 115.334 124.133 112.401 122.667 109.201C121.2 106.001 120.4 104.801 120.8 106.667Z" fill="black"/>
<path d="M124 106.266C124 106.8 124.667 108.266 125.333 109.333C126.4 111.066 126.667 111.066 126.667 109.066C126.667 107.866 126.133 106.4 125.333 106C124.667 105.6 124 105.6 124 106.266Z" fill="black"/>
<path d="M126.8 114.4C126.666 115.333 127.6 118.133 128.533 120.666C130.933 126.266 130.266 126.533 126.133 121.733C121.6 116.4 116.666 118.4 112.133 127.333C108.933 133.333 108.666 135.333 108.8 149.333C108.8 164.533 108.933 164.933 117.2 190C121.733 203.866 125.733 215.866 126 216.666C126.266 217.333 126.533 216.533 126.533 214.666C126.666 212.8 124 203.2 120.666 193.333C113.2 171.2 111.2 159.333 113.066 147.066C115.6 129.2 120.8 122.933 129.333 127.066C133.333 129.2 133.466 129.2 132.533 126.266C130.8 120.8 126.8 112.666 126.8 114.4Z" fill="black"/>
<path d="M507.2 123.201L504.267 130.534L508.133 127.734C516.267 121.601 522.933 128.801 525.733 146.668C527.6 159.334 525.733 170.534 517.333 195.334C513.733 206.268 510.667 216.801 510.667 218.668C510.8 222.801 525.733 177.601 528.8 164.134C534.267 139.468 525.867 114.268 514 119.734C512.133 120.534 510.667 122.134 510.667 123.334C510.667 124.401 510 125.334 509.333 125.334C508.4 125.334 508.4 124.401 509.333 122.534C510.133 121.068 510.667 118.934 510.4 117.868C510.133 116.801 508.667 119.201 507.2 123.201Z" fill="black"/>
<path d="M500.8 126.267C498.933 129.067 496.133 134.934 494.533 139.334C492.933 143.734 490.533 148.534 489.2 150.134C485.6 154 486.133 154.934 490.533 152.4C494 150.267 494.533 150.267 497.733 152.4C503.467 156.134 506.933 165.467 507.733 179.467C508.533 195.334 507.2 201.734 496.533 234.267C486 266.534 479.867 287.2 479.067 293.334C477.733 302.4 458.133 369.6 450.667 390.534C448.533 396.667 446.667 402.8 446.667 404.267C446.667 405.734 443.333 413.867 439.2 422.267C428.4 444.667 417.2 454.8 405.467 452.667C402 452.134 401.2 452.267 402.667 453.2C405.333 455.067 415.467 455.067 419.067 453.067C426.133 449.334 432 443.2 437.2 434C443.6 422.934 456.533 386.4 466.8 350.934C470.533 338 474.667 323.467 476.133 318.8C477.467 314.134 478.667 308.8 478.667 307.067C478.667 305.334 479.867 299.867 481.2 294.934C482.667 290 485.733 279.467 488 271.334C490.267 263.334 496.133 245.067 500.8 230.667C511.867 197.734 514.4 181.6 511.333 163.334C509.067 148.8 506.4 144.667 499.467 144.667C496.8 144.667 494.667 144.667 494.667 144.534C494.667 143.467 502.133 126.8 503.6 124.534C504.667 122.8 505.333 121.334 504.8 121.334C504.4 121.334 502.533 123.6 500.8 126.267Z" fill="black"/>
<path d="M136.533 126.134C138 129.201 144 144.134 144 144.801C144 144.801 142.133 144.668 140 144.268C132.267 143.201 127.467 151.601 126.133 168.668C124.8 184.801 127.2 198.534 136 225.334C146.133 255.868 158.667 298.401 158.667 302.001C158.667 307.601 176.4 368.668 185.467 394.268C188.267 402.401 190.667 409.868 190.667 410.934C190.667 412.001 193.733 418.934 197.467 426.534C209.2 450.134 222 458.934 236.8 453.334C242 451.334 240.133 450.534 233.733 452.134C222.267 455.068 210.933 445.468 200.533 424.001C196.8 416.268 193.067 407.868 192.4 405.334C191.6 402.801 189.2 394.934 186.933 388.001C177.733 359.601 160.8 301.068 159.333 292.534C157.867 284.668 151.6 263.201 142.667 236.001C132.8 206.268 130.667 197.068 130.667 184.001C130.667 162.668 139.067 147.201 148 152.001C151.067 153.601 151.467 152.534 148.8 149.468C147.867 148.268 145.467 143.068 143.467 138.001C141.467 132.801 138.667 127.201 137.2 125.334L134.533 122.001L136.533 126.134Z" fill="black"/>
<path d="M484.933 147.6C479.866 155.867 477.066 163.467 479.999 160.533C481.733 158.8 489.466 142.667 488.666 142.667C488.266 142.667 486.666 144.933 484.933 147.6Z" fill="black"/>
<path d="M150.666 144.667C150.666 146.267 159.066 162.667 159.733 162.134C160.399 161.334 152.533 144 151.466 144C150.933 144 150.666 144.267 150.666 144.667Z" fill="black"/>
<path d="M467.067 171.067C465.467 173.467 463.733 176.4 463.333 177.6C462.533 179.6 462.933 179.734 466.4 178.4C472.667 176 476.4 179.334 479.867 190.267C486.667 212 484.533 232.267 470.667 276C466.4 289.6 460.667 307.867 458 316.667C455.333 325.467 451.733 337.334 449.867 342.934C448.133 348.534 446.667 354.267 446.667 355.6C446.667 359.867 440.4 378.534 430.4 404C426.4 414.267 415.067 434.534 410.8 439.067C406.533 443.734 403.467 445.467 397.333 446.934C394 447.6 394.933 447.734 400.533 447.2C404.8 446.934 409.333 445.867 410.8 444.934C414 442.667 420.933 432.267 427.6 419.867C433.733 408.4 446.667 374.8 446.667 370.267C446.667 368.667 447.867 363.467 449.333 358.667C456.133 336.934 473.867 278.4 476.267 270C477.733 264.8 480.667 254.934 482.8 248C493.467 212.934 492.933 187.067 481.6 173.334C477.867 168.934 477.6 168.8 473.867 170.667C471.733 171.734 469.467 172.8 468.933 173.067C468.267 173.467 468.4 172.267 469.333 170.667C471.733 166.134 470.267 166.4 467.067 171.067Z" fill="black"/>
<path d="M169.733 170.934C172.133 174.8 170.933 176.134 168.133 172.8C162.933 166.534 155.066 172 151.066 184.8C149.333 190.534 148.666 196.934 148.666 208C148.666 224.8 149.466 228.134 165.999 282.667C169.866 295.467 175.066 312.267 177.333 320C179.599 327.734 183.599 340.667 186.133 348.667C188.666 356.8 190.666 364.8 190.666 366.4C190.666 368.134 193.999 378.534 198.133 389.734C205.733 410.134 213.466 426.4 219.466 434.267C221.199 436.534 222.666 439.067 222.666 439.867C222.666 442.8 230.533 446.667 238.133 447.2C243.733 447.734 244.666 447.6 241.333 446.934C235.199 445.467 232.133 443.734 227.733 439.067C224.133 435.334 215.733 420.667 210.533 409.334C206.266 399.867 192.266 359.734 191.333 354C190.266 347.6 180.666 315.467 168.133 276C157.999 244.267 155.333 231.467 155.333 214.667C155.333 188.8 163.066 173.2 173.199 178.667C174.799 179.467 175.999 179.734 175.999 179.334C175.999 177.467 171.999 170.934 169.733 169.2C167.466 167.467 167.466 167.467 169.733 170.934Z" fill="black"/>
<path d="M186.933 196.801C179.866 201.734 174.666 219.201 174.666 238.001C174.666 252.001 177.733 266.801 185.333 290.001C188.266 299.067 190.666 307.867 190.666 309.601C190.799 311.334 196.933 330.934 204.533 353.334C222.266 406.267 222.266 406.001 226.933 415.334C236.133 433.601 245.066 441.334 256.799 441.334C260.666 441.334 264.266 440.667 264.666 439.867C265.333 438.934 264.133 438.801 260.933 439.334C255.733 440.401 247.999 437.067 243.066 431.734C238.133 426.534 227.466 407.867 224.933 400.001C223.599 396.001 215.733 372.001 207.333 346.667C199.066 321.201 191.866 298.134 191.333 295.334C190.799 292.401 189.199 285.734 187.866 280.667C181.466 256.001 181.333 234.667 187.599 215.867C191.333 204.401 194.933 200.401 199.999 202.001C203.733 203.201 203.333 202.001 199.066 198.934C193.466 195.067 190.266 194.401 186.933 196.801Z" fill="black"/>
<path d="M440 198.801C435.066 202.134 434.666 202.801 437.6 202.134C443.066 200.934 445.066 202.401 448.8 210.001C457.066 227.734 458 252.667 451.2 278.001C449.333 285.334 447.466 293.067 447.066 295.334C446.266 300.934 425.466 366.001 417.6 388.001C416.133 392.001 414.133 398.001 413.2 401.334C411.066 408.267 400.133 426.934 395.066 432.267C390.533 437.067 381.2 440.534 376.4 439.467C373.6 438.801 373.2 438.934 374.666 440.001C375.733 440.667 379.333 441.334 382.666 441.334C393.066 441.334 402.533 433.201 411.066 416.667C417.6 404.001 446.666 319.334 446.666 312.934C446.666 311.601 449.066 303.201 451.866 294.267C460.133 268.934 462.933 256.401 463.733 242.401C464.666 222.401 459.866 203.201 452.266 197.334C447.866 193.867 447.066 194.001 440 198.801Z" fill="black"/>
<path d="M283.733 199.734C282.8 200 281.066 200.534 280 200.934C277.333 202 277.333 202 273.066 203.2C270.933 203.867 269.333 204.667 269.333 205.2C269.333 205.734 268.533 206.267 267.6 206.267C265.333 206.267 257.333 211.867 254.933 215.067C253.866 216.4 251.866 218.534 250.4 220C247.733 222.4 247.733 222.534 254.133 222.4C259.733 222.267 261.6 221.467 267.333 216.667C271.066 213.6 276.666 209.2 279.866 206.934C283.066 204.534 285.333 202.667 284.8 202.667C284.133 202.667 282 203.867 279.733 205.467C277.6 207.067 275.466 208 275.066 207.6C274.133 206.534 282.933 201.2 284.533 201.734C287.466 202.667 286.133 204.934 279.6 209.734C275.733 212.534 270.933 216.267 268.666 218.134C261.066 224.667 270.133 218.934 280.4 210.8C285.733 206.534 292 202.134 294.133 200.934L297.866 198.934L291.733 199.067C288.266 199.2 284.666 199.467 283.733 199.734ZM290 201.334C289.6 202 288.533 202.667 287.866 202.667C287.066 202.667 286.933 202 287.333 201.334C287.733 200.534 288.8 200 289.466 200C290.266 200 290.4 200.534 290 201.334ZM274.8 205.2C272.933 206.534 272.266 207.867 273.066 208.134C275.866 209.067 261.466 220.267 256.933 220.8C254.533 221.067 253.466 220.934 254.4 220.534C255.2 220.134 255.733 219.334 255.333 218.8C254.4 217.2 264.4 208 267.733 207.334C269.333 207.067 272 205.867 273.6 204.8C277.733 201.867 278.666 202.134 274.8 205.2Z" fill="black"/>
<path d="M261.733 212.934C258.8 215.734 257.733 216.934 259.333 215.601C263.733 212.134 264.8 212.934 261.2 216.934C259.466 218.934 261.2 217.867 265.066 214.667C268.8 211.467 272 208.534 272 208.134C272 207.734 271.333 208.134 270.4 209.067C268.4 211.067 266.133 211.201 267.333 209.334C268.933 206.801 266.933 208.001 261.733 212.934Z" fill="black"/>
<path d="M295.066 202.534C292 204.667 287.2 208.8 284.133 211.734C278.666 217.067 269.866 222 263.866 223.2C250.533 225.867 241.733 248.267 240.4 282.8C239.466 308 242.266 328.4 250.8 358.134C252.933 365.6 254.666 372.8 254.666 374.267C254.666 377.2 264.133 403.067 267.6 409.734C274.8 423.6 285.2 432.134 294.8 431.867L299.333 431.734L294 430.267C286.8 428.134 286.133 427.6 279.866 419.067C269.6 405.2 257.066 365.467 252.533 332C249.733 312 249.333 279.334 251.733 266C252.533 261.6 253.866 254.667 254.533 250.4C256.8 237.334 264.4 226.134 273.866 222.134C276.133 221.2 281.333 217.2 285.333 213.467C289.333 209.6 295.333 204.667 298.533 202.534C301.866 200.4 303.6 198.667 302.533 198.667C301.6 198.667 298.133 200.534 295.066 202.534Z" fill="black"/>
<path d="M304.667 202.801C296 210.535 288.267 224.801 284.133 241.468C274.8 278.001 274.133 322.268 282.133 367.201C284 377.601 286 389.335 286.667 393.468C289.333 410.001 298 426.135 306.133 430.001C311.2 432.401 314.133 431.868 309.467 429.468C301.067 424.935 293.2 399.868 288.667 362.668C286.267 343.068 285.867 285.201 288.133 265.601C291.2 237.601 298.4 214.935 307.467 204.135C313.067 197.735 311.467 196.935 304.667 202.801Z" fill="black"/>
<path d="M318.133 200.8C313.733 214.667 313.999 417.333 318.399 429.333L319.599 432.533L320.533 428.933C323.599 416.667 324.933 286.933 322.666 232.933C321.333 203.867 320.133 194.667 318.133 200.8Z" fill="black"/>
<path d="M331.2 204.135C337.067 211.068 343.333 226.001 346.8 241.068C350.4 257.068 352.267 295.735 351.333 331.335C350.4 362.935 348.667 378.268 343.333 399.735C339.6 415.201 336 422.935 330.4 428.268C325.867 432.535 326.4 432.935 332.667 429.868C335.067 428.801 338.667 425.468 340.667 422.668C345.467 415.868 350.533 402.935 350.667 397.868C350.667 395.601 351.6 390.801 352.667 387.201C355.867 376.135 359.867 348.401 361.333 327.068C362.8 306.401 361.6 276.668 358.667 259.201C354.667 234.535 344.933 212.401 333.867 202.801C327.2 196.935 325.6 197.735 331.2 204.135Z" fill="black"/>
<path d="M340.133 202.533C343.333 204.667 349.466 209.733 353.733 213.867C358.133 217.867 362.933 221.6 364.399 222.133C377.466 226.267 384.533 242.667 388.133 277.333C393.599 329.733 370.666 418.4 349.066 428.267C346.666 429.467 343.733 430.667 342.666 431.2C341.599 431.6 343.199 431.733 346.399 431.467C362.133 429.867 374.799 409.733 384.533 370.667C385.733 365.867 388.533 355.333 390.666 347.2C401.999 303.867 401.066 258.267 388.133 235.467C384.133 228.133 377.466 222.667 372.666 222.667C369.333 222.667 354.266 213.2 351.599 209.467C349.599 206.4 338.133 198.667 335.866 198.667C334.933 198.667 336.799 200.4 340.133 202.533Z" fill="black"/>
<path d="M344.533 200.933C346.666 201.999 352.933 206.533 358.266 210.799C363.733 215.199 369.466 219.333 371.066 220.266C373.733 221.599 373.866 221.599 372.133 219.599C369.733 216.666 371.733 216.666 375.066 219.599C376.666 221.199 379.866 221.999 384.133 221.999L390.666 222.133L383.199 214.933C373.199 205.599 363.066 200.266 370.266 208.266C371.466 209.599 371.866 210.666 371.066 210.666C369.199 210.666 365.199 205.999 366.133 204.933C366.533 204.533 365.733 203.599 364.266 202.799C361.466 201.333 360.933 202.799 363.066 206.266C364.666 208.933 362.399 208.266 358.666 205.199C356.666 203.466 356.266 202.666 357.599 203.199C359.066 203.599 359.599 203.333 359.199 201.999C358.799 201.066 357.066 200.399 355.199 200.666C353.466 200.799 351.599 200.399 351.199 199.866C350.799 199.199 349.866 198.666 349.066 198.666C348.133 198.666 352.399 202.266 358.266 206.533C368.399 213.999 371.999 217.333 369.866 217.333C369.333 217.333 366.533 215.333 363.466 212.933C355.333 206.266 343.866 198.666 342.133 198.666C341.333 198.799 342.399 199.733 344.533 200.933ZM380.399 214.266C383.199 216.933 385.333 219.599 385.333 220.133C385.333 220.666 383.599 220.799 381.466 220.666C377.733 220.399 363.333 209.599 364.666 208.133C365.066 207.866 366.666 208.799 368.399 210.399C370.133 211.999 371.866 213.333 372.266 213.333C373.333 213.333 372.933 210.533 371.466 208.266C369.466 204.933 375.199 208.799 380.399 214.266Z" fill="black"/>
<path d="M373.733 212.668C373.733 213.735 375.333 216.001 377.2 217.601L380.667 220.668L377.467 216.935C373.6 212.535 375.2 212.135 379.867 216.268C382.667 218.801 382.533 218.535 379.467 214.935C375.067 210.268 373.733 209.735 373.733 212.668Z" fill="black"/>
<path d="M114.8 210.134C114.8 211.601 115.2 212.001 115.6 210.934C116 210.001 115.866 208.801 115.466 208.401C115.066 207.868 114.666 208.668 114.8 210.134Z" fill="black"/>
<path d="M522.8 210.134C522.8 211.601 523.2 212.001 523.6 210.934C524 210.001 523.866 208.801 523.466 208.401C523.066 207.868 522.666 208.668 522.8 210.134Z" fill="black"/>
<path d="M116.133 215.466C116.133 216.933 116.533 217.333 116.933 216.266C117.333 215.333 117.199 214.133 116.799 213.733C116.399 213.2 115.999 214 116.133 215.466Z" fill="black"/>
<path d="M520.8 217.467C519.733 223.067 520.8 224.133 522 218.667C522.533 216.4 522.667 214.133 522.267 213.867C522 213.467 521.333 215.2 520.8 217.467Z" fill="black"/>
<path d="M217.467 220.933C206.533 231.866 202.533 261.066 207.867 290.8C210.133 303.333 212.667 312.8 226.8 361.333C231.467 377.066 245.333 412.133 248.133 415.066C249.2 416.133 251.6 419.733 253.6 423.2C255.6 426.533 259.2 430.533 261.6 432C267.067 435.2 275.6 436.666 280 434.8C283.067 433.6 282.8 433.466 277.6 433.466C268.133 433.333 260.933 428 254.667 416.666C246.533 402.133 225.733 343.6 222.8 327.333C222.133 323.6 220.267 314.933 218.8 308C214.533 289.2 213.733 267.333 216.533 251.866C217.867 244.933 220.133 235.733 221.733 231.333C224.533 223.733 224.933 223.333 230.4 222.133C236.933 220.666 237.6 219.333 232.4 218.133C230.267 217.733 227.333 217.066 225.6 216.533C223.333 215.866 221.467 216.8 217.467 220.933Z" fill="black"/>
<path d="M407.066 217.599C401.199 219.466 401.599 220.533 408.266 222.133C413.733 223.333 413.866 223.599 417.466 233.333C424.933 253.866 425.866 281.733 419.866 307.999C418.399 314.933 416.399 323.599 415.733 327.333C411.733 347.066 389.599 409.199 384.666 414.666C383.599 415.866 382.666 417.599 382.666 418.399C382.666 420.666 374.666 429.199 370.533 431.466C368.533 432.399 364.533 433.333 361.733 433.466C356.933 433.466 356.933 433.599 359.999 434.799C363.866 436.399 370.799 435.333 376.399 432.533C380.133 430.533 390.533 415.866 395.066 405.999C399.466 396.533 408.799 371.599 411.733 361.333C413.199 355.866 417.199 341.999 420.533 330.666C433.599 285.599 435.466 271.333 431.466 246.533C429.199 232.399 425.733 224.399 420.133 219.599C415.466 215.733 413.733 215.466 407.066 217.599Z" fill="black"/>
<path d="M117.733 221.601C118.133 223.334 120.133 232.134 122.133 241.201C124.266 250.267 126.133 256.934 126.399 256.134C126.933 254.401 118.799 218.667 117.733 218.667C117.333 218.667 117.333 220.001 117.733 221.601Z" fill="black"/>
<path d="M126.8 220.133C126.667 221.466 128.8 230.133 131.467 239.466C140.933 273.466 157.6 338.133 158.667 344.666C161.067 360.266 175.333 403.866 186.4 429.333C193.2 445.2 200.667 455.6 208.267 459.466C212.533 461.6 221.067 461.866 226.133 460C231.467 457.866 229.467 457.333 223.067 459.066C216.133 460.933 208.933 458 202.267 450.666C196.667 444.8 190.667 435.466 190.667 432.8C190.667 431.866 188.667 426.533 186.267 421.2C178.533 404.4 158.667 340.933 158.667 333.466C158.667 331.866 156.267 321.466 153.2 310.266C150.267 299.066 145.733 282.533 143.333 273.333C133.467 236.133 126.933 215.466 126.8 220.133Z" fill="black"/>
<path d="M508.933 224.666C506.933 231.2 495.6 272.4 489.333 296C485.6 310.266 481.6 325.2 480.533 329.066C479.467 332.933 478.667 337.466 478.667 339.066C478.667 346 462 398.8 452.667 421.333C444.533 441.2 443.2 443.6 436.8 450.266C430.4 457.2 422.133 460.666 415.067 459.466C411.467 458.933 410.8 459.066 412.667 460C416.8 461.866 426.4 461.6 430.4 459.466C435.2 456.933 446.667 444.133 446.667 441.333C446.667 440.133 447.2 438.666 447.867 438C452.4 433.066 471.6 379.733 476.667 357.333C480.667 340.133 499.867 265.6 505.467 245.6C508.4 235.2 510.667 225.6 510.4 224.266C509.867 222.266 509.733 222.266 508.933 224.666Z" fill="black"/>
<path d="M514.8 242.001C512.4 251.867 510.667 260.667 510.933 261.467C511.2 262.267 513.333 254.401 515.733 244.001C518.133 233.601 519.867 224.801 519.6 224.534C519.333 224.134 517.2 232.134 514.8 242.001Z" fill="black"/>
<path d="M126.666 244.801C126.666 247.467 128.933 257.067 143.466 315.334C154.799 361.201 158.399 373.867 158.533 368.534C158.666 366.134 157.466 360.534 156.133 355.867C154.666 351.201 147.733 323.867 140.666 295.334C133.466 266.667 127.466 243.067 127.199 242.801C126.933 242.534 126.666 243.334 126.666 244.801Z" fill="black"/>
<path d="M499.466 290C493.732 313.467 486.666 341.333 483.732 351.867C480.932 362.4 478.666 372.267 478.932 373.867C479.199 375.333 481.066 370 483.199 362C498.266 304.4 510.932 252.133 510.399 249.467C510.132 248.267 505.199 266.533 499.466 290Z" fill="black"/>
<path d="M126.8 263.735C126.533 268.668 152.533 375.201 156.533 386.001C160.133 395.735 158.8 388.535 152.8 366.401C147.333 345.868 140.667 318.935 132.667 284.001C127.467 262.001 126.933 260.001 126.8 263.735Z" fill="black"/>
<path d="M505.6 286.801C497.866 319.867 482.933 379.067 480.8 385.201C479.6 388.401 478.666 392.267 478.8 393.867C478.8 395.467 479.733 394.134 480.8 390.667C487.333 370.667 511.2 273.334 510.4 269.734C510.133 268.667 508 276.267 505.6 286.801Z" fill="black"/>
<path d="M159.067 377.334C159.867 383.734 167.067 406.801 172.533 420.134C180.533 439.868 181.467 441.868 186.133 448.401C188.667 451.868 190.667 455.201 190.667 455.868C190.667 458.134 200 465.201 204.667 466.534C209.333 467.734 218.267 467.201 219.2 465.468C219.467 465.068 216.933 464.934 213.333 465.068C208.933 465.468 205.467 464.801 201.6 462.801C196.4 460.134 190.667 454.268 190.667 451.734C190.667 451.068 189.2 448.534 187.467 446.268C182.8 440.134 175.6 422.801 166.533 396.001C162.133 383.201 158.8 374.801 159.067 377.334Z" fill="black"/>
<path d="M473.466 392.401C467.333 412.268 455.733 440.268 450.666 447.068C448.533 450.001 446.666 453.201 446.666 454.001C446.666 458.401 434.533 465.335 426.399 465.468L420.666 465.601L425.199 466.668C429.999 467.868 435.866 466.535 440.799 463.335C445.466 460.401 457.599 440.801 462.533 428.668C464.933 422.801 467.599 416.135 468.666 414.001C471.599 407.468 478.933 381.601 478.399 379.468C478.133 378.401 475.999 384.268 473.466 392.401Z" fill="black"/>
<path d="M158.799 396.134C158.666 398.934 163.733 414.4 169.866 429.734C174.933 442.8 184.266 458.4 190.666 464.934C195.333 469.734 208.399 474.534 205.999 470.667C205.599 469.867 203.999 469.334 202.533 469.334C197.333 469.334 192.266 465.334 185.733 455.734C175.866 441.467 173.066 435.2 162.533 404.667C160.533 398.8 158.799 394.934 158.799 396.134Z" fill="black"/>
<path d="M476.666 402.934C475.199 409.334 463.066 439.734 459.333 446.001C453.866 455.334 445.466 465.868 441.866 467.734C439.999 468.668 435.999 469.601 432.933 469.601C428.133 469.601 427.733 469.868 430.533 470.801C441.733 475.068 457.333 458.534 467.999 431.334C470.266 425.468 473.333 418.001 474.666 414.668C477.199 408.268 479.466 398.668 478.266 398.668C477.866 398.668 477.066 400.668 476.666 402.934Z" fill="black"/>
<path d="M250.4 446.266C251.333 446.666 252.533 446.533 252.933 446.133C253.466 445.733 252.666 445.333 251.2 445.466C249.733 445.466 249.333 445.866 250.4 446.266Z" fill="black"/>
<path d="M459.467 452.933C458.667 454.8 458.8 454.933 460.133 453.733C461.067 452.8 461.467 451.733 461.067 451.333C460.667 450.933 459.867 451.6 459.467 452.933Z" fill="black"/>
<path d="M449.999 465.601L444.666 471.334L450.399 466.001C455.599 461.201 456.666 460.001 455.599 460.001C455.333 460.001 452.799 462.534 449.999 465.601Z" fill="black"/>
<path d="M209.067 470.266C210 470.666 211.2 470.533 211.6 470.133C212.133 469.733 211.333 469.333 209.867 469.466C208.4 469.466 208 469.866 209.067 470.266Z" fill="black"/>
</svg>
