<svg width="640" height="640" viewBox="0 0 640 640" fill="none" xmlns="http://www.w3.org/2000/svg">
<path d="M88.8003 74.933C87.6003 76.533 86.667 78.7996 86.667 79.9996C86.8003 81.0663 87.6003 80.3996 88.8003 78.2663C90.9337 74.2663 94.0003 73.5996 95.2003 76.7996C95.7337 77.9996 96.4003 78.6663 96.8003 78.2663C97.867 77.1996 94.267 71.9996 92.4003 71.9996C91.6003 71.9996 89.867 73.333 88.8003 74.933Z" fill="black"/>
<path d="M541.334 76.5344C539.734 79.2011 537.867 81.3344 537.201 81.3344C536.534 81.3344 536.001 82.0011 536.001 82.6677C536.001 83.4677 534.534 87.0677 532.667 90.9344C528.667 99.2011 528.667 99.3344 531.734 96.2677C533.067 95.0677 533.867 93.0677 533.601 92.0011C533.201 90.9344 533.467 90.4011 534.001 91.0677C534.667 91.6011 536.534 90.8011 538.134 89.2011C544.934 82.8011 548.534 89.8677 547.601 107.334C547.334 113.868 547.467 117.868 548.001 116.001C549.601 110.801 549.467 89.4677 547.867 86.2677C545.201 81.3344 543.601 81.2011 538.801 85.7344C534.801 89.6011 534.534 89.7344 536.001 86.6677C538.534 81.8677 544.401 74.6677 545.867 74.6677C546.534 74.6677 548.401 75.7344 549.867 76.9344C552.534 79.3344 552.534 79.3344 550.401 76.0011C547.334 71.0677 544.667 71.2011 541.334 76.5344Z" fill="black"/>
<path d="M90.5339 86.9338C88.2672 92.4005 88.6672 108.667 91.3339 118.667C92.4006 122.667 92.9339 123.867 92.5339 121.334C88.6672 94.8005 92.1339 81.4672 100.801 89.3338C104.801 92.9338 103.867 90.5338 99.6006 85.6005C95.7339 81.4672 92.6672 81.8672 90.5339 86.9338Z" fill="black"/>
<path d="M528.667 92.2669C527.467 94.6669 525.067 100.534 523.333 105.334C521.6 110.134 519.867 115.2 519.2 116.534C518.533 118.267 518.667 118.8 519.6 118.267C520.4 117.734 522.667 112.4 524.667 106.4C526.667 100.267 528.8 94.6669 529.333 94.0002C530.533 92.2669 532 88.0002 531.333 88.0002C531.067 88.0002 529.867 90.0002 528.667 92.2669Z" fill="black"/>
<path d="M113.467 104.801C115.733 111.334 118.133 117.201 118.933 118.001C119.6 118.667 118.267 113.867 116 107.334C113.6 100.667 111.2 94.8007 110.533 94.134C109.867 93.334 111.2 98.134 113.467 104.801Z" fill="black"/>
<path d="M99.467 99.3335C96.8003 102 94.667 109.867 94.667 116.8C94.667 124.8 97.867 140.534 106 173.334C113.734 204.267 119.734 229.067 123.467 246C124.8 251.867 126.134 255.6 126.4 254.267C127.067 251.067 124.534 239.734 111.067 186C101.867 149.2 99.6003 138.134 99.067 127.334C98.0003 108.134 101.334 101.067 109.467 105.334C113.467 107.6 112.534 104.667 107.867 100.8C103.067 96.8002 102.267 96.6669 99.467 99.3335Z" fill="black"/>
<path d="M532.267 99.4669C530.667 100.534 529.334 101.067 529.334 100.4C529.2 99.2002 525.334 107.734 525.334 109.067C525.334 109.467 526.534 108.534 528 106.934C536.4 97.8669 542.934 111.867 539.867 132.667C539.067 137.734 535.734 152.8 532.4 166C518.667 220.667 510.667 255.334 510.8 259.734C510.934 263.2 512 259.2 519.467 227.334C521.334 219.2 527.2 195.867 532.267 175.334C540.267 143.734 541.734 135.734 542.267 123.067C543.067 106.934 542.534 102.667 539.2 99.4669C536.667 96.8002 536 96.8002 532.267 99.4669Z" fill="black"/>
<path d="M518.667 106.266C515.067 113.733 510.667 126.399 510.667 128.799C510.667 130.133 511.6 129.999 514.533 128.266C518.267 126.133 518.667 126.266 521.2 128.533C524.933 131.866 527.2 143.999 526.267 155.333C525.733 160.399 522.133 178.133 518 194.666C514 211.199 507.867 236.399 504.533 250.666C501.2 264.933 494 294.666 488.667 316.666C483.333 338.666 478.267 360.133 477.333 364.399C474.8 377.066 463.467 411.733 457.333 425.999C443.333 458.399 435.733 465.466 418.667 462.133L414 461.199L418.533 463.333C423.733 465.733 431.067 465.999 435.067 463.866C438.933 461.866 446.667 454.533 446.667 452.799C446.667 452.133 448.267 449.599 450.133 447.066C457.733 437.066 475.2 388.533 479.733 364.666C480.4 360.933 483.733 347.199 487.067 333.999C490.4 320.799 495.067 302.133 497.333 292.666C499.6 283.066 503.6 266.933 506.133 256.533C508.667 246.266 510.667 236.533 510.667 234.933C510.667 233.333 514 219.599 517.867 204.266C527.333 168.533 530.667 151.733 530.667 140.399C530.667 124.666 524 117.199 516.4 124.266L513.067 127.333L514 123.999C514.533 122.133 516.667 116.133 518.8 110.799C523.2 99.3326 523.067 96.9326 518.667 106.266Z" fill="black"/>
<path d="M117.467 102.667C117.333 103.067 119.2 108.134 121.333 113.734C123.6 119.467 125.333 124.8 125.333 125.467C125.333 126.134 123.6 125.467 121.467 123.867C116.4 120.134 113.2 120.934 110.4 126.667C105.333 136.667 107.6 154.4 120 201.467C123.6 215.467 126.667 228.267 126.667 229.867C126.667 231.467 128.667 241.2 131.2 251.334C133.733 261.6 138 278.934 140.667 290C146 312.534 157.867 362.267 160.667 373.334C167.2 400.267 182.933 441.867 188.8 447.734C189.867 448.667 190.667 450.267 190.667 451.2C190.667 453.867 202 463.734 206 464.8C210.133 465.867 219.867 464.667 221.6 462.934C222.4 462.134 220.267 462 216.133 462.4C207.867 463.2 202.667 461.2 197.333 455.067C187.067 443.467 169.867 400 161.467 364.667C156.4 343.067 126.8 219.867 120.667 194.667C111.067 154.934 110 140.8 116 130.934C119.2 125.734 121.733 125.6 125.867 130L129.067 133.334L126.8 125.067C124.8 117.734 117.733 100.8 117.467 102.667Z" fill="black"/>
<path d="M508.267 122.933C505.867 126.133 502.4 133.867 499.2 143.2C497.467 148.267 495.067 153.467 493.867 154.8C491.733 157.067 491.867 157.2 496 155.6C499.867 154.133 500.4 154.267 503.333 157.6C510.8 166.267 509.6 187.6 499.467 226C490.8 259.333 479.6 304 475.733 320.667C467.6 355.733 447.333 419.467 439.733 433.733C431.867 448.4 419.6 457.2 410.667 454.667C405.2 453.067 403.6 454.133 408.533 456C413.333 457.733 421.333 457.6 424.933 455.6C431.2 452.133 439.467 442.667 442.933 435.2C454.4 410 466.8 371.733 475.6 334.667C481.6 309.333 500.267 235.6 504.933 219.333C515.6 181.333 514.533 144.4 502.933 147.333C499.2 148.267 499.333 147.333 506 131.6C510.4 121.2 510.8 120 508.267 122.933Z" fill="black"/>
<path d="M545.467 123.466C545.467 124.933 545.867 125.333 546.267 124.266C546.667 123.333 546.533 122.133 546.133 121.733C545.733 121.2 545.333 122 545.467 123.466Z" fill="black"/>
<path d="M129.334 123.333C129.334 124.133 129.867 125.333 130.534 126C131.467 127.067 138.667 145.733 138.667 147.333C138.667 147.6 137.067 147.733 135.2 147.6C132.8 147.467 130.8 148.4 128.934 151.067C126.4 154.4 126.134 156.4 126.267 173.067C126.4 193.333 124.534 184.4 147.2 270.267C152.534 290.933 157.734 312 158.667 316.933C160.934 330.133 173.6 375.733 180.8 396.267C184.134 406 188.4 418.133 190.134 423.2C195.467 438.267 203.867 449.867 213.867 455.6C217.334 457.6 225.334 457.733 230.134 456C235.067 454.133 233.467 453.067 228 454.667C222.4 456.267 214.8 453.067 207.867 446.267C203.467 442 190.667 418.533 190.667 414.8C190.667 414 188 405.733 184.8 396.4C179.6 381.067 176.4 370.133 162.534 320.133C160.4 312.4 158.667 304.667 158.667 302.933C158.667 299.6 157.334 294.133 142.667 239.333C132.4 201.2 130.267 189.067 130.934 174.267C131.6 160.267 134.4 155.2 141.2 155.6C144.4 155.733 145.067 155.333 144.134 154.133C143.467 153.333 140.934 147.467 138.8 141.333C134.934 130.8 129.334 120.133 129.334 123.333Z" fill="black"/>
<path d="M487.733 152.933C485.067 157.866 482.533 163.466 482 165.333C481.2 168.266 481.333 168.399 482.933 166.666C485.2 164.399 493.733 145.333 492.933 144.533C492.667 144.133 490.267 147.999 487.733 152.933Z" fill="black"/>
<path d="M149.867 155.334C154.4 165.734 158.667 172 156.667 165.334C155.2 160.534 148.267 147.067 146.8 146.134C146.134 145.6 147.467 149.867 149.867 155.334Z" fill="black"/>
<path d="M469.601 176.4C464.401 185.067 464.267 186 469.201 183.333C474.534 180.667 476.801 181.867 480.267 189.2C482.534 194.267 483.067 198 483.201 210C483.334 229.333 479.601 250.133 469.334 286C467.201 293.333 462.667 309.467 459.334 322C455.867 334.4 452.001 348.267 450.534 352.667C449.201 357.067 447.467 364 446.667 368C445.067 376.934 436.001 402.4 429.601 416C424.134 427.734 413.867 443.6 410.534 445.467C409.201 446.134 404.667 446.667 400.401 446.8C394.801 446.8 393.467 447.2 395.334 448C400.401 450.134 408.534 449.467 413.601 446.267C420.001 442.4 424.134 436.934 432.001 421.334C439.201 406.8 443.601 394 454.134 356.667C474.667 283.067 478.667 268.267 478.667 265.067C478.667 263.333 479.867 258.4 481.201 253.867C485.734 239.6 490.667 212.667 490.667 202.4C490.667 186.933 486.001 174.667 480.001 174.667C478.667 174.667 476.134 175.867 474.134 177.467C470.001 180.667 469.734 179.6 473.334 173.6C474.801 171.333 475.467 169.333 474.934 169.333C474.401 169.333 472.001 172.533 469.601 176.4Z" fill="black"/>
<path d="M165.867 174.4C168.801 180.133 168.534 180.667 164.534 177.467C159.867 173.733 156.801 174 153.601 178C146.267 187.2 146.401 210.8 153.734 240.667C156.267 250.933 159.334 264.133 160.667 270C162.001 275.867 164.134 284.267 165.467 288.667C166.801 293.067 170.267 305.6 173.334 316.667C193.467 390.4 197.467 402.667 206.801 421.2C214.801 437.333 220.801 444.933 227.067 447.733C231.334 449.6 239.334 449.733 243.334 448C245.201 447.2 243.867 446.8 238.267 446.8C228.401 446.667 226.401 445.467 220.801 436.8C207.867 416.533 196.801 389.467 190.667 363.333C189.334 357.467 186.401 346 184.134 338C178.667 319.2 170.934 291.067 164.267 266.667C153.334 226.267 152.267 192.133 161.601 183.733C164.001 181.6 164.667 181.6 168.801 183.333L173.334 185.2L170.001 178.667C168.134 175.067 166.001 171.733 165.201 171.333C164.401 170.8 164.667 172.267 165.867 174.4Z" fill="black"/>
<path d="M102.801 174.134C102.801 175.601 103.201 176.001 103.601 174.934C104.001 174.001 103.867 172.801 103.467 172.401C103.067 171.868 102.667 172.668 102.801 174.134Z" fill="black"/>
<path d="M104.134 179.466C104.134 180.933 104.534 181.333 104.934 180.266C105.334 179.333 105.2 178.133 104.8 177.733C104.4 177.2 104 178 104.134 179.466Z" fill="black"/>
<path d="M533.467 179.466C533.467 180.933 533.867 181.333 534.267 180.266C534.667 179.333 534.533 178.133 534.133 177.733C533.733 177.2 533.333 178 533.467 179.466Z" fill="black"/>
<path d="M105.601 184.666C105.601 186.133 106.001 188.533 106.667 190C108.134 193.333 108.134 189.866 106.667 185.333C105.867 182.666 105.601 182.533 105.601 184.666Z" fill="black"/>
<path d="M531.467 186.8C530.4 192.4 531.467 193.467 532.667 188C533.2 185.734 533.334 183.467 532.934 183.2C532.667 182.8 532 184.534 531.467 186.8Z" fill="black"/>
<path d="M108.134 194.667C108.134 195.733 109.2 201.733 110.534 208C111.867 214.267 114.934 228.267 117.334 239.333C124.667 273.333 126.667 281.333 126 274.533C125.467 269.067 110.134 197.467 108.8 194C108.4 193.2 108.134 193.6 108.134 194.667Z" fill="black"/>
<path d="M450.667 196.266C449.067 199.2 449.067 199.2 451.467 197.066C452.8 195.733 453.467 194.4 453.067 193.866C452.534 193.466 451.467 194.533 450.667 196.266Z" fill="black"/>
<path d="M529.601 196.001C529.601 197.867 529.867 198.534 530.267 197.601C530.534 196.801 530.534 195.201 530.267 194.267C529.867 193.467 529.601 194.134 529.601 196.001Z" fill="black"/>
<path d="M185.334 195.201C185.334 195.468 186.267 196.401 187.334 197.334C189.067 198.801 189.201 198.668 188.534 196.801C187.867 194.934 185.334 193.734 185.334 195.201Z" fill="black"/>
<path d="M274.8 200.801C273.334 201.867 271.467 202.534 270.934 202.134C270.267 201.734 267.734 202.801 265.2 204.401C262.667 205.867 260.4 207.201 260 207.334C258.667 207.467 254 210.534 255.067 210.667C255.6 210.667 252.8 213.467 248.8 216.934C240.934 223.867 240.267 224.934 243.467 224.934C244.667 224.934 246.134 223.334 246.8 221.467C247.734 219.067 248.4 218.534 249.2 219.734C250 221.067 250.534 221.067 251.867 219.467C252.8 218.401 253.067 216.667 252.534 215.867C252 214.934 252.134 214.667 252.934 215.067C253.6 215.467 256.267 213.867 258.667 211.334C261.2 208.801 263.867 206.667 264.534 206.667C265.334 206.667 264.267 208.134 262 210.001C259.867 211.734 258.667 213.201 259.467 213.334C260.134 213.334 261.734 212.534 262.667 211.601C263.734 210.801 262.667 212.267 260.134 214.934C257.6 217.734 255.067 219.601 254.267 219.067C253.6 218.667 253.734 219.734 254.667 221.467C256.134 224.534 256 224.534 254.134 222.134C252.934 220.667 252 219.734 251.867 220.134C251.867 220.401 251.6 222.134 251.2 223.867C250.667 226.667 250.934 226.801 252.8 225.201C254.134 224.134 255.467 223.334 255.867 223.334C256.267 223.334 256.534 222.934 256.4 222.401C256.134 221.867 260 217.867 264.934 213.467C269.734 208.934 273.067 205.334 272.4 205.334C271.734 205.334 270 206.534 268.667 208.001C266 210.934 262.667 211.867 265.067 208.934C265.867 208.134 266.4 206.801 266.4 206.267C266.4 205.601 266.934 204.667 267.467 204.267C268 203.734 268 204.134 267.467 204.934C266.134 207.334 267.467 207.067 271.6 204.267C273.6 203.067 274.8 202.801 274.267 203.601C273.6 204.667 273.867 205.334 274.934 205.334C275.867 205.334 272.667 208.934 267.867 213.201C263.067 217.601 259.067 222.134 259.067 223.334C259.067 224.401 259.734 225.201 260.534 224.934C261.334 224.534 261.867 223.734 261.734 223.067C261.2 220.134 285.334 200.001 289.467 200.001C290.267 200.001 287.734 202.534 283.734 205.601C272.934 214.134 263.467 222.667 264.934 222.667C265.734 222.667 271.334 218.267 277.467 212.934C283.6 207.467 290.4 202.134 292.534 201.067C296.267 199.201 296.134 199.067 287.067 198.934C280.667 198.801 276.8 199.467 274.8 200.801ZM277.867 201.601C277.2 202.667 277.6 202.801 279.067 202.267C284.934 199.867 285.6 200.001 281.6 202.534C276.8 205.601 275.467 206.001 276.667 204.001C277.067 203.201 276.667 202.667 275.734 202.667C274.534 202.667 274.534 202.267 276 201.334C278.667 199.601 279.067 199.734 277.867 201.601Z" fill="black"/>
<path d="M295.467 202C292.801 203.866 287.467 208.533 283.601 212.533C278.801 217.333 273.334 221.066 266.667 224.266C255.067 229.6 250.401 234.8 245.867 247.333C236.534 272.933 238.401 312 251.201 363.333C261.067 402.666 270.534 422.4 282.534 428.533C287.601 431.2 296.667 432.8 295.467 430.8C294.934 430 293.067 429.333 291.334 429.333C287.867 429.333 277.334 418.533 273.334 410.8C269.467 403.2 260.534 375.066 257.601 361.333C254.401 346.933 251.067 322.266 249.867 304.666C248.401 283.066 253.334 248.133 259.334 237.866C262.401 232.8 273.067 222.666 275.601 222.666C276.267 222.666 280.934 218.4 286.001 213.2C291.201 208 297.467 202.666 300.001 201.333C302.534 199.866 303.734 198.8 302.534 198.666C301.334 198.666 298.134 200.133 295.467 202Z" fill="black"/>
<path d="M304.801 202.667C298.934 207.867 287.867 225.601 286.667 231.867C286.134 234.534 284.401 241.201 282.934 246.667C274.267 278.667 274.667 330.401 284.134 380.667C289.734 410.801 295.734 424.401 305.601 429.467C311.734 432.534 313.734 432.134 308.667 428.801C300.667 423.601 293.734 401.067 289.201 366.001C286.667 347.067 286.534 339.867 287.067 303.334C287.734 261.601 288.934 250.401 294.134 232.001C297.201 221.601 304.667 206.401 308.801 202.267C313.734 197.334 310.534 197.734 304.801 202.667Z" fill="black"/>
<path d="M318.134 200.8C313.734 214.667 314 417.333 318.4 429.333L319.6 432.533L320.534 428.933C323.6 416.667 324.934 286.933 322.667 232.933C321.334 203.867 320.134 194.667 318.134 200.8Z" fill="black"/>
<path d="M329.867 202.266C337.467 209.866 344.533 228.399 348.933 252.666C352.133 270.533 352 351.599 348.667 373.333C344.133 403.599 338.4 420.799 330.4 428.266C325.6 432.666 326.267 432.933 333.2 429.333C341.733 425.066 348 412.933 351.867 393.333C360.667 348.266 363.467 317.866 361.333 286.933C360 265.333 357.333 249.733 353.333 237.866C351.867 233.733 350.667 229.333 350.667 228.266C350.667 222.799 332.4 198.666 328.267 198.666C326.933 198.666 327.6 199.866 329.867 202.266Z" fill="black"/>
<path d="M338.667 201.2C341.2 202.667 347.467 208 352.667 213.2C357.733 218.4 362.667 222.667 363.6 222.667C366.267 222.667 379.333 236.267 380.933 240.667C386.533 256.4 390 284.133 388.8 304.667C387.867 320.4 384 347.733 380.533 364C377.867 376.133 369.2 403.2 365.6 410.267C361.067 419.067 352.4 427.733 346.533 429.333C343.733 430.133 341.333 431.067 341.333 431.467C341.333 432.667 352.4 430.533 356.133 428.533C360.533 426.4 368.667 417.067 372 410.667C375.2 404.4 381.333 387.2 382.667 380.667C383.2 377.733 386.133 366 389.067 354.667C400.4 310.8 401.733 274.4 393.2 248.4C388.933 235.333 384.133 229.867 372.267 224.4C365.333 221.2 359.867 217.333 354.8 212.267C346.267 203.733 339.2 198.667 336.133 198.667C334.933 198.8 336.133 199.867 338.667 201.2Z" fill="black"/>
<path d="M345.867 200.801C347.867 202.001 351.2 204.268 353.2 206.001C369.067 219.868 372.533 222.668 373.867 222.668C375.333 222.668 370.667 218.401 358.267 208.401C352.133 203.468 350.933 202.001 352.533 201.068C354.667 199.868 363.6 203.468 362.133 204.934C361.733 205.334 359.867 204.668 357.867 203.468C356 202.134 354.133 201.468 353.733 201.734C353.333 202.134 354.933 203.468 357.067 204.534C362.667 207.468 377.467 221.334 376.533 222.801C376.133 223.468 376.4 224.001 377.2 224.001C381.067 224.001 379.067 220.801 371.067 213.468C366.133 208.934 362.667 205.334 363.467 205.334C366.133 205.334 382.667 221.468 381.733 223.068C381.333 224.001 381.467 224.268 382 223.601C382.667 223.068 384.267 223.734 385.6 224.934C388 227.068 388.133 227.068 387.467 223.468C387.067 221.334 387.2 220.134 387.733 220.668C388.267 221.068 388.667 222.268 388.667 223.068C388.667 224.801 394.4 225.601 395.333 224.001C395.733 223.334 394.933 223.068 393.733 223.201C391.067 223.601 387.467 219.334 388.667 217.334C389.2 216.534 388.8 216.134 387.867 216.268C386.933 216.534 386.133 215.868 386 214.801C386 213.734 384.8 212.268 383.333 211.468C381.867 210.668 378.667 208.401 376.4 206.401C373.6 204.134 371.2 203.068 369.733 203.601C368.133 204.268 367.867 204.001 368.667 202.668C369.333 201.468 369.2 201.201 368.133 201.868C367.333 202.401 367.067 203.468 367.467 204.268C368 205.068 367.6 205.468 366.8 205.201C365.867 204.801 365.333 204.268 365.6 203.868C365.867 203.468 365.2 202.001 364.133 200.801C362.667 199.068 362 198.934 361.067 200.268C360.267 201.734 359.733 201.734 358.933 200.268C357.733 198.534 349.067 198.534 350.133 200.268C350.533 200.801 350.267 201.334 349.467 201.334C348.8 201.334 347.733 200.668 347.333 200.001C346.933 199.201 345.467 198.668 344.267 198.668C342.8 198.801 343.333 199.468 345.867 200.801ZM376.667 208.134C379.2 210.401 381.067 212.801 380.667 213.334C380.267 214.001 380.533 214.934 381.333 215.334C382.133 215.868 382.533 215.734 382.4 215.068C382.133 214.534 382.533 213.734 383.2 213.334C383.867 212.934 384.533 213.601 384.667 214.668C384.933 215.734 385.2 217.201 385.333 218.001C386 220.801 385.333 222.801 384 222.001C383.333 221.601 382.667 220.534 382.667 219.868C382.667 219.068 383.333 218.934 384.267 219.468C385.2 220.001 385.333 219.868 384.8 218.801C384.267 218.001 383.467 217.601 382.933 217.868C382.4 218.134 378.667 215.468 374.667 211.868C370.667 208.268 368.533 205.734 369.867 206.134C371.6 206.801 372.133 206.668 371.467 205.601C369.867 202.934 371.733 203.868 376.667 208.134Z" fill="black"/>
<path d="M374.934 209.999C376.934 212.133 378.934 213.466 379.334 213.066C379.867 212.666 378.134 210.933 375.734 209.333L371.334 206.266L374.934 209.999Z" fill="black"/>
<path d="M182.134 203.999C176.667 210.533 175.334 217.466 175.467 237.333C175.734 255.999 176.4 259.999 186.934 299.999C188.8 306.933 191.067 315.999 192 319.999C197.067 341.999 211.6 386.266 222.267 412.666C231.6 435.333 243.867 445.466 257.334 441.599L262 440.266L256.934 440.133C249.734 439.999 243.334 436.533 238.134 430.133C232.934 423.733 222.667 404.799 222.667 401.599C222.667 400.266 220.8 394.533 218.667 388.666C211.6 369.866 192.534 305.599 190.8 294.666C190.134 290.666 188.134 281.333 186.534 273.999C184.134 263.733 183.467 256.533 183.467 242.666C183.334 225.066 183.467 224.399 187.734 215.466C191.734 206.799 192.267 206.399 196 206.933C198.267 207.333 200 207.466 200 207.333C200 206.399 189.067 199.999 187.467 199.999C186.4 199.999 184 201.866 182.134 203.999Z" fill="black"/>
<path d="M442.8 204C439.2 207.066 438.933 207.733 441.2 207.066C445.067 206.133 448.4 209.333 452.133 217.733C454.933 224 455.333 226.533 455.2 243.333C455.2 258.8 454.533 264.533 451.467 277.333C449.467 285.733 447.333 295.866 446.667 299.733C444.933 309.866 433.067 350.266 424.4 375.333C420.4 387.066 416.267 399.466 415.333 402.8C411.733 415.466 399.2 434.266 392 438C389.867 439.066 385.867 440 383.067 440.133L378 440.266L382.267 441.6C392.933 445.066 405.2 436.4 413.067 419.866C421.867 401.466 438.667 351.866 444.8 326.4C446 321.066 450 305.6 453.467 292C462.667 256.8 464.4 245.733 463.6 230.666C462.8 215.733 461.067 209.466 456.533 204C452.267 199.066 448.667 198.933 442.8 204Z" fill="black"/>
<path d="M520.134 237.467C515.6 258.001 511.6 277.734 511.334 281.067L510.667 287.334L512.134 281.334C518.4 254.134 529.467 201.067 528.934 200.534C528.667 200.267 524.667 216.801 520.134 237.467Z" fill="black"/>
<path d="M255.867 215.601C254.134 217.734 254.267 217.867 256.4 216.134C257.6 215.201 258.667 214.134 258.667 213.867C258.667 212.801 257.6 213.467 255.867 215.601Z" fill="black"/>
<path d="M217.6 222.666C213.6 224.399 208.534 235.599 206.8 246.666C203.467 267.333 205.734 286.799 216 325.599C219.734 339.333 222.667 351.599 222.667 352.799C222.667 355.999 235.334 392.933 240 403.333C245.6 415.733 255.467 430.266 259.867 432.533C265.2 435.333 272.267 436.399 276 434.799C279.2 433.599 279.2 433.466 274.934 433.466C272.534 433.333 268.667 432.533 266.267 431.466C262 429.733 254.667 422.399 254.667 419.866C254.667 419.199 253.467 416.933 252 414.933C245.867 406.533 222.667 338.133 222.667 328.133C222.667 326.266 222 322.533 221.334 319.999C218.4 310.266 214.667 282.799 214.667 271.866C214.667 258.399 216.4 247.866 220.4 236.133C222.934 228.533 223.867 227.333 228.667 225.199C232.4 223.466 233.2 222.666 231.2 222.666C229.6 222.666 226.667 222.399 224.534 221.999C222.4 221.733 219.334 221.999 217.6 222.666Z" fill="black"/>
<path d="M247.466 223.467C246.266 226.534 247.2 227.201 249.2 224.801C250.133 223.734 250.267 222.534 249.6 222.134C248.8 221.734 247.866 222.267 247.466 223.467Z" fill="black"/>
<path d="M409.334 222.533L404.667 223.466L408.934 224.266C412.534 225.066 413.867 226.533 416.667 232.533C426 252.133 426.267 285.866 417.334 320.266C415.867 325.999 414.667 331.999 414.667 333.599C414.667 343.333 392.4 407.333 386 415.999C384.134 418.533 382.667 421.199 382.667 421.999C382.667 423.866 376.4 429.733 372.4 431.866C370.8 432.666 367.2 433.333 364.4 433.466C359.334 433.599 359.334 433.599 363.334 434.799C367.334 435.866 371.2 435.466 377.467 433.199C381.067 431.733 387.867 423.466 393.734 413.333C400 402.399 412.134 369.066 414.667 355.999C415.2 352.666 418.534 340.133 421.867 328.133C434.4 283.066 436.267 256.666 428.534 233.199C425.334 223.333 420.134 220.399 409.334 222.533Z" fill="black"/>
<path d="M126.801 262.4C126.667 264.8 128.534 274.667 130.801 284.4C142.401 334.4 152.401 375.067 155.334 384C160.667 400.133 158.534 387.6 151.067 358.667C147.334 344.4 140.934 318 136.801 300C132.667 282 128.801 265.2 128.134 262.667L126.934 258L126.801 262.4Z" fill="black"/>
<path d="M505.6 284.666C499.2 313.466 484.667 372.533 481.467 382.666C479.867 387.466 478.667 392.799 478.667 394.533C478.667 398.266 472.267 417.333 466 432.666C460.934 444.933 452.4 458.666 445.867 464.933C442 468.666 440.4 469.333 434.267 469.466C428.267 469.466 427.734 469.733 430.667 470.799C447.467 477.599 468.134 445.999 481.067 393.333C482.667 387.066 486.534 371.733 489.734 359.333C501.467 314.266 510.934 272.533 510.4 268.133C510.134 266.266 508 273.599 505.6 284.666Z" fill="black"/>
<path d="M126.8 286.267C126.533 293.6 152 398.933 157.2 412C159.867 418.8 158.533 410.8 154.667 397.333C148.533 376 142.133 350.533 134.667 316.667C127.2 283.2 126.933 282 126.8 286.267Z" fill="black"/>
<path d="M506.134 307.6C500.801 333.066 490.534 374.666 484.001 397.466C481.067 407.866 478.801 417.066 479.067 417.733C480.667 422.8 511.734 297.733 510.401 291.2C510.134 290.133 508.267 297.466 506.134 307.6Z" fill="black"/>
<path d="M158.801 397.467C158.667 401.334 159.601 404.4 166.134 422C172.801 440.267 174.267 443.334 180.667 453.067C191.334 469.334 196.267 472.8 206.134 471.334C214.667 470.134 214.267 468.534 205.467 469.067C196.001 469.6 193.067 467.467 183.734 453.467C176.534 442.667 172.001 432.267 163.867 408.667C161.067 400.534 158.801 395.6 158.801 397.467Z" fill="black"/>
<path d="M158.8 417.467C158.667 420.934 164.8 437.734 170.267 448.8C173.6 455.6 178.133 462.134 183.467 467.6C191.2 475.467 192 476 197.467 475.867L203.333 475.6L198 474.8C195.067 474.267 191.067 472.8 189.067 471.467C181.2 466.267 169.733 446.534 162.667 426.267C160.533 420.267 158.8 416.267 158.8 417.467Z" fill="black"/>
<path d="M475.467 427.466C472.534 437.066 463.867 454.533 458.4 462.266C453.467 469.066 445.867 474.266 439.867 475.066C435.6 475.6 435.734 475.6 440.934 475.733C445.867 476 447.2 475.2 453.6 469.466C457.734 465.733 462.934 458.8 466.267 453.066C472.134 442.4 479.334 423.866 478.4 421.333C478.134 420.4 476.8 423.2 475.467 427.466Z" fill="black"/>
<path d="M455.334 471.6C452.4 474.133 451.2 475.733 452.667 474.933C455.2 473.733 462.534 466.533 461.2 466.667C460.934 466.8 458.267 468.933 455.334 471.6Z" fill="black"/>
</svg>
