<svg width="640" height="640" viewBox="0 0 640 640" fill="none" xmlns="http://www.w3.org/2000/svg">
<path d="M87.6003 78.2667C87.067 78.6667 86.667 80.0001 86.667 81.2001C86.667 83.0667 86.8003 83.0667 88.0003 81.3334C89.067 79.6001 89.6003 79.6001 92.267 81.2001C95.3337 83.0667 95.3337 83.0667 92.8003 80.1334C90.1337 77.2001 89.067 76.8001 87.6003 78.2667Z" fill="black"/>
<path d="M546.667 79.3332C545.2 81.0665 544.667 81.0665 543.733 79.7332C542.933 78.5332 542.8 79.0665 543.333 80.9332C543.733 82.6665 543.6 83.9999 542.933 83.9999C541.467 83.9999 538.267 91.9999 539.333 93.0665C539.6 93.4665 539.2 94.3999 538.133 95.1999C537.067 95.9999 535.067 100.4 533.733 105.067C531.2 113.067 531.2 113.333 533.467 111.2C539.6 105.6 542.133 117.067 539.2 137.6C537.6 148.933 530.533 184.267 519.2 237.333C514.533 258.8 511.2 276.267 509.467 288C506.667 306.267 493.467 362.933 483.467 399.333C475.733 427.467 473.333 434.8 467.733 446C457.067 467.2 448.4 475.467 438.267 474.133C434.267 473.6 433.467 473.733 435.333 474.533C439.333 476.4 445.067 476.267 449.067 474.133C460 468.4 473.733 444.4 479.6 420.667C480.4 417.733 483.467 406.667 486.533 396.133C492.533 375.733 506.8 315.067 509.333 299.333C513.067 277.333 516.4 260.267 535.6 169.333C540.267 146.933 541.733 136.8 542.267 123.067C542.933 107.467 542.8 105.333 540.8 104.533C539.6 104.133 537.6 104.533 536.4 105.467C534.4 107.067 534.267 107.067 535.067 104.933C535.6 103.6 536 101.867 536 101.2C536 99.4665 543.333 91.9999 545.067 91.9999C548.4 91.9999 548.667 102.267 546 124.267C545.333 129.6 545.467 129.733 546.8 126C547.467 123.733 548.533 114.667 548.933 105.733C549.6 90.9332 549.467 89.3332 547.333 88.5332C545.733 87.8665 544.267 88.5332 542.533 90.7999C538.933 95.4665 539.467 92.5332 543.467 85.5999C546.133 81.0665 547.467 79.8665 549.6 80.3999C551.067 80.7999 552 80.5332 551.6 79.5999C550.8 77.1999 548.533 77.0665 546.667 79.3332Z" fill="black"/>
<path d="M91.0674 88.2667C90.2674 89.2 89.3341 91.7334 88.9341 94C88.1341 98.8 90.1341 119.067 92.8007 130C94.4007 136.933 94.5341 137.2 94.0007 132C93.6007 128.667 92.8007 122.133 92.0007 117.333C90.4007 106.533 90.4007 95.8667 91.8674 93.4667C92.9341 91.8667 93.4674 91.8667 95.2007 93.2C98.0007 95.6 97.8674 93.4667 94.9341 89.6C92.9341 87.0667 92.2674 86.8 91.0674 88.2667Z" fill="black"/>
<path d="M533.867 95.3346C529.6 104.535 524 122.668 525.333 122.668C525.867 122.668 527.867 117.335 529.867 110.935C531.867 104.401 534.267 97.7346 535.067 95.868C537.6 91.2013 538.667 88.0013 537.867 88.0013C537.467 88.0013 535.733 91.3346 533.867 95.3346Z" fill="black"/>
<path d="M107.734 107.067C110.134 114.533 112.667 121.2 113.467 122C114.134 122.667 112.534 116.933 110.001 109.333C107.467 101.733 104.801 94.9333 104.267 94.4C103.734 93.8667 105.201 99.4667 107.734 107.067Z" fill="black"/>
<path d="M101.867 99.3342C102.401 101.468 103.467 103.868 104.134 104.668C104.801 105.334 104.667 103.868 103.867 101.334C101.867 95.3342 100.667 94.1342 101.867 99.3342Z" fill="black"/>
<path d="M524.934 106.934C520.801 115.734 513.467 135.867 513.334 138.534C513.334 138.934 514.801 137.734 516.667 136.001C519.334 133.467 520.667 133.067 522.267 134.134C529.601 138.801 528.001 154.534 513.467 223.334C512.001 229.867 510.267 239.201 509.467 244.001C507.734 254.667 497.601 300.267 489.467 334.001C487.334 342.801 484.001 356.934 482.001 365.334C475.467 393.334 470.534 409.867 463.734 427.067C460.001 436.534 456.267 444.934 455.467 445.734C454.667 446.667 451.867 450.534 449.334 454.534C442.401 465.467 434.267 469.067 424.801 465.334C419.601 463.467 420.667 465.201 426.001 467.467C436.001 471.601 442.667 468.934 451.467 457.067C454.801 452.534 459.467 444.667 461.867 439.467C467.734 427.334 476.934 400.534 478.534 391.601C479.201 387.734 482.401 374.134 485.734 361.334C495.334 323.867 507.201 270.534 512.534 241.334C513.601 235.067 516.401 221.601 518.667 211.334C529.467 162.667 532.667 138.534 529.467 130.267C527.734 126.001 524.134 125.601 520.667 129.334C519.334 130.801 518.001 131.867 517.867 131.601C517.601 131.334 519.734 124.934 522.667 117.334C527.867 103.601 528.934 98.4005 524.934 106.934Z" fill="black"/>
<path d="M96.2665 106.268C94.6665 110.135 95.5998 131.868 97.8665 143.335C107.467 192.935 126.133 279.335 126.4 275.735C126.533 273.335 123.067 253.868 118.533 232.668C101.2 150.535 99.8665 143.468 99.1998 128.668C98.5332 116.935 98.7998 113.468 100.4 111.335C102.133 109.201 102.667 109.068 104.533 110.535C107.867 113.335 107.2 109.868 103.733 106.668C100.133 103.335 97.5998 103.201 96.2665 106.268Z" fill="black"/>
<path d="M112.667 107.334C114.133 111.601 119.6 127.067 120.8 130.001C121.733 132.534 121.467 132.401 118.4 129.601C111.333 123.201 108 127.334 108 142.667C108 153.201 112 175.601 120.667 214.401C124 229.334 126.667 243.067 126.667 244.934C126.667 249.334 138.8 304.134 149.867 350.001C154.533 369.067 158.667 386.934 159.2 389.601C162.133 405.601 174.8 437.867 184.133 452.667C194.267 468.801 202.133 472.534 214 466.667C216.933 465.201 218.133 464.401 216.667 464.801C215.2 465.334 211.333 466.001 208 466.267C201.2 466.934 194.533 463.467 190.8 457.201C182.267 443.067 177.867 434.667 174.4 425.601C169.733 413.867 162.4 390.534 160.133 380.667C159.333 376.934 155.733 361.334 152 346.001C148.4 330.534 143.867 311.334 142.133 303.334C140.267 295.201 136.133 276.534 132.8 261.601C129.467 246.667 126.667 233.201 126.667 231.601C126.667 230.001 124.267 217.867 121.467 204.667C113.867 170.401 111.333 151.334 112.8 142.667C114.4 133.601 117.2 131.467 122 136.001C123.867 137.734 125.333 138.801 125.333 138.401C125.333 136.667 115.733 111.467 113.867 108.267C112.8 106.267 112.267 105.867 112.667 107.334Z" fill="black"/>
<path d="M511.333 126.8C510.8 127.6 510.667 128.4 511.067 128.8C511.333 129.2 512 128.533 512.4 127.333C513.333 125.066 512.533 124.666 511.333 126.8Z" fill="black"/>
<path d="M127.2 130.667C127.467 132.534 129.334 138.667 131.067 144.267C133.6 152 134 154.267 132.534 153.734C126.8 151.6 124.667 163.2 126.667 186C127.867 201.334 135.6 237.2 152.534 307.2C155.867 321.067 158.667 333.867 158.667 335.867C158.8 343.734 175.334 400.134 183.334 419.334C186 425.867 189.334 434.267 190.667 437.734C193.334 444.8 199.334 452.267 206.134 457.2C211.467 460.934 219.067 461.334 224.8 458.134C228.267 456.134 228.267 456 225.334 456.8C220.267 458.134 215.334 457.734 211.067 455.467C206.267 453.067 198.267 444.4 195.2 438.4C186.8 422.4 162.267 342.534 159.334 321.734C158.4 315.334 155.734 303.467 148.134 271.334C145.867 261.734 142.267 246.134 140 236.667C130.934 198.534 128.534 174.4 132.667 164.534C134.4 160.267 135.067 159.867 138.267 160.534C141.467 161.2 141.734 161.067 140 159.734C138.934 158.8 136.534 153.6 134.8 148.134C131.2 136.8 126.267 125.467 127.2 130.667Z" fill="black"/>
<path d="M505.467 143.333C502.934 150.667 500 157.733 498.8 159.067C496.8 161.333 496.934 161.467 500.4 160.667C503.6 159.867 504.267 160.267 506 164.533C507.2 167.333 508 173.467 508 179.733C508 195.067 505.2 209.867 491.467 268C488.934 278.667 485.067 295.733 482.8 306C471.6 356.133 459.334 400.933 452.667 415.333C451.067 419.067 448.667 424.933 447.467 428.4C440.8 448 427.067 460.533 415.867 457.333C410 455.6 409.734 455.6 412.8 458C414.267 459.067 418.267 460 422.267 460C427.867 460 430 459.333 433.467 456.267C440.667 450.4 445.2 444.933 446.534 440.667C447.2 438.4 450.134 431.2 453.067 424.667C460.934 406.667 478.667 348.267 478.667 340.133C478.667 338.533 481.6 325.2 485.2 310.4C508.534 214.533 515.067 178.667 511.867 162.267C510.4 154.133 509.6 152.933 506.667 153.733C504.534 154.267 504.534 153.467 507.467 144.8C509.334 139.6 510.534 134.133 510.4 132.667C510.134 131.2 508 136 505.467 143.333Z" fill="black"/>
<path d="M544.267 134C544.267 136.133 544.533 136.933 544.933 135.6C545.2 134.4 545.2 132.533 544.933 131.6C544.533 130.8 544.267 131.733 544.267 134Z" fill="black"/>
<path d="M542.934 141.335C542.934 143.201 543.2 143.868 543.6 142.935C543.867 142.135 543.867 140.535 543.6 139.601C543.2 138.801 542.934 139.468 542.934 141.335Z" fill="black"/>
<path d="M94.8003 146.001C94.6669 147.468 97.6003 163.601 101.334 182.001C120.134 276.668 126.4 306.935 126.534 303.601C126.667 301.601 125.734 295.868 124.667 290.935C123.6 286.001 118.534 260.668 113.334 234.668C99.8669 166.535 94.9336 142.935 94.8003 146.001Z" fill="black"/>
<path d="M496.401 149.601C492.267 155.068 483.467 174.668 485.201 174.668C486.801 174.668 488.801 171.868 490.001 168.001C490.934 164.668 495.201 154.801 497.601 150.268C498.934 147.601 498.267 147.201 496.401 149.601Z" fill="black"/>
<path d="M141.734 150.935C142.134 151.868 144.4 157.201 146.667 162.668C150.667 172.135 153.334 176.801 153.334 173.868C153.334 170.535 143.467 149.335 141.867 149.335C141.467 149.335 141.334 150.135 141.734 150.935Z" fill="black"/>
<path d="M526.133 230.4C517.467 273.6 510.667 309.866 510.933 310.8C511.333 311.866 515.867 290.4 521.2 263.333C526.533 236.133 533.6 200.533 536.8 184.133C540.133 167.733 542.533 153.733 542.267 152.933C542.133 152.266 534.8 187.066 526.133 230.4Z" fill="black"/>
<path d="M160 175.335C160 175.735 161.2 178.402 162.667 181.335C166.267 188.402 166 189.202 161.467 184.802C156.667 180.135 153.334 180.668 150.4 186.668C146 195.602 147.867 220.402 155.467 251.468C157.2 258.935 158.667 266.668 158.667 268.802C158.667 272.802 174.4 334.935 182.934 364.668C185.867 374.935 188.8 385.735 189.6 388.668C192.534 400.535 196.667 412.002 202.267 423.202C208.534 435.868 215.6 446.668 217.734 446.668C218.534 446.668 220.267 447.602 221.467 448.802C224.267 451.335 233.467 451.602 239.067 449.468C241.067 448.668 242.667 447.868 242.667 447.735C242.667 447.468 238.534 447.335 233.467 447.335C224.534 447.335 224.267 447.202 219.467 442.002C216.8 439.068 211.867 431.202 208.534 424.668C202.534 413.068 190.667 381.068 190.667 376.535C190.667 375.335 188.934 368.135 186.667 360.535C180.8 340.402 164.667 276.135 161.467 260.668C158.4 245.602 154.667 217.868 154.667 210.402C154.667 203.068 157.334 192.268 159.467 190.002C161.2 188.268 162.134 188.268 166 190.002L170.667 191.868L166.667 184.002C163.2 177.202 160 172.935 160 175.335Z" fill="black"/>
<path d="M476.401 176.266C475.601 177.2 473.467 181.066 471.467 184.933L468.001 191.866L472.534 190C476.667 188.266 477.201 188.266 479.334 190.666C485.867 198 485.467 215.466 477.334 260.666C474.267 277.733 450.801 368.133 442.534 394.8C438.134 409.066 428.801 429.333 422.534 438C416.801 446 411.467 448.533 402.667 447.733C396.267 447.066 395.867 447.2 398.801 448.8C406.401 452.933 418.934 449.866 425.601 442C429.734 437.333 442.267 411.6 444.667 403.333C445.867 398.933 448.934 388.4 451.334 380C461.867 344.666 475.601 289.866 480.667 264C481.867 257.733 484.267 245.733 486.134 237.333C490.801 216.4 491.734 193.066 488.401 186.666C485.467 181.066 480.667 179.733 477.734 183.866C474.401 188.8 473.201 186.933 476.001 181.2C478.801 175.733 478.934 173.066 476.401 176.266Z" fill="black"/>
<path d="M274.267 198.8C273.067 199.467 271.334 199.734 270.667 199.334C269.867 198.934 269.334 199.2 269.334 200.134C269.334 201.067 268.934 201.334 268.4 200.934C268 200.4 266.134 200.934 264.4 202C262.667 203.2 260.8 203.734 260.134 203.467C259.467 203.067 254 207.867 247.867 214C237.334 224.8 232.267 230.934 235.867 228.8C236.667 228.267 237.334 228.4 237.334 229.067C237.334 231.6 242.534 229.867 245.334 226.267C246.934 224.267 248.8 222.667 249.6 222.667C250.4 222.667 250.267 223.734 249.067 224.934C244.8 230 245.2 231.067 249.734 226.8C252.534 224.267 254.667 222.8 254.667 223.6C254.667 224.4 253.734 225.734 252.667 226.667C250.267 228.667 250 231.2 252.267 229.867C253.2 229.2 255.067 228.667 256.267 228.667C258.8 228.4 264.4 224 263.467 222.934C263.067 222.667 261.2 223.6 259.2 225.2C257.2 226.8 255.334 227.734 254.934 227.334C254 226.4 274.267 207.867 280.8 203.6C284 201.6 286.667 199.334 286.667 198.667C286.667 196.934 277.334 197.067 274.267 198.8ZM278.8 203.067C275.467 205.2 269.067 210.4 264.667 214.534C260.134 218.934 255.334 222.267 253.734 222.4C250.134 222.534 249.734 221.067 252.667 218.667C254.267 217.334 254.667 217.334 254.667 218.667C254.667 219.6 258.267 216.934 262.8 212.8C267.2 208.667 272.667 204.4 274.934 203.2C277.067 202.134 278.534 200.8 278.134 200.4C277.734 200 274.4 201.867 270.667 204.534C263.067 210 261.067 210.667 264.8 206.534C267.334 203.6 267.334 203.6 264.667 205.067C263.2 205.734 260.534 208 258.8 209.734C257.067 211.6 255.067 212.934 254.134 212.667C253.334 212.4 250.934 214.4 248.8 217.067L244.8 222L249.467 217.6C252.134 215.2 254.534 213.6 254.934 214C255.2 214.4 256.667 213.467 258 212C259.334 210.534 261.067 209.334 261.734 209.334C262.534 209.334 261.467 211.067 259.334 213.334C257.334 215.467 255.067 217.067 254.534 216.934C253.867 216.8 250.4 219.6 246.667 223.2C243.067 226.8 240 229.067 240 228.134C240 227.2 239.467 226.934 238.667 227.334C235.334 229.334 238.134 226 248.8 215.067C255.067 208.667 259.867 204.134 259.334 204.934C258.4 206.934 260.8 207.334 262 205.334C262.4 204.667 264 203.334 265.6 202.534C267.6 201.467 268.134 201.467 267.467 202.534C266.134 204.667 267.334 204.4 271.867 201.6C274 200.267 277.867 199.2 280.4 199.2H285.067L278.8 203.067Z" fill="black"/>
<path d="M255.867 208.935C254.134 211.068 254.267 211.201 256.4 209.468C257.6 208.535 258.667 207.468 258.667 207.201C258.667 206.135 257.6 206.801 255.867 208.935Z" fill="black"/>
<path d="M241.867 224.267L239.334 227.334L242.401 224.801C245.201 222.401 246.001 221.334 244.934 221.334C244.667 221.334 243.334 222.667 241.867 224.267Z" fill="black"/>
<path d="M289.067 198.401C289.867 198.668 287.201 201.734 282.934 205.334C274.134 212.668 263.867 223.201 266.267 222.534C267.067 222.268 272.267 217.734 277.601 212.534C282.934 207.334 289.734 201.868 292.667 200.268L298.001 197.601L292.801 197.734C290.001 197.868 288.267 198.134 289.067 198.401Z" fill="black"/>
<path d="M297.734 200.267C294.667 201.867 288.401 207.201 283.867 212.267C279.334 217.467 274.667 222.001 273.467 222.534C268.134 224.801 255.067 234.134 252.134 237.601C234.801 258.934 236.134 311.067 256.134 386.001C258.001 392.801 266.001 412.534 267.734 414.934C277.734 427.467 283.334 430.934 292.801 430.534L296.667 430.401L292.401 429.334C281.467 426.801 273.467 415.601 265.467 391.867C248.001 340.267 244.801 265.334 259.067 240.934C261.067 237.734 267.734 230.667 274.001 225.467C280.267 220.134 286.267 214.134 287.334 212.134C289.334 208.001 299.334 200.001 302.267 200.001C303.201 200.001 304.001 199.334 304.001 198.667C304.001 196.934 304.267 196.934 297.734 200.267Z" fill="black"/>
<path d="M329.067 201.333C335.067 207.2 342.534 224.133 346.267 240C350.4 258.267 352.4 292.667 351.334 330.667C350.267 367.067 346.934 392.933 340.934 410.267C338.267 418.133 332.4 427.733 329.2 429.467C327.734 430.267 326.8 431.2 327.067 431.6C329.067 433.6 339.2 425.467 343.334 418.667C347.867 411.067 348.534 409.2 353.334 386.667C364.8 332 364.8 273.6 353.334 239.067C351.867 234.8 350.667 230.533 350.667 229.6C350.667 226.4 338.934 207.467 334.4 203.2C328.534 197.6 323.734 196 329.067 201.333Z" fill="black"/>
<path d="M334.667 198.667C334.667 199.467 335.467 200.001 336.4 200.001C339.334 200.001 349.2 208.001 350.934 211.734C351.867 213.601 357.867 219.601 364.267 224.934C379.867 238.134 381.467 240.801 386 262.667C392.534 294.001 387.067 350.667 373.334 391.601C365.467 415.201 357.2 426.801 346.267 429.334L342 430.401L346.667 430.534C352.934 430.667 361.334 426.667 365.334 421.601C372.267 413.067 373.2 411.467 377.067 400.934C382.8 385.601 392.934 343.734 396 322.534C400.4 292.667 399.2 264.934 392.8 249.201C388 237.201 383.334 232.667 365.867 222.934C364.267 222.001 359.2 217.334 354.667 212.401C347.067 204.001 342.4 200.267 337.067 198.267C335.734 197.867 334.667 198.001 334.667 198.667Z" fill="black"/>
<path d="M346 200.401C348.667 201.735 355.6 207.335 361.467 212.935C367.334 218.535 372.4 222.801 372.667 222.401C373.6 221.468 353.734 202.668 352 202.668C351.2 202.668 350.667 202.001 350.667 201.335C350.667 198.535 361.467 205.601 371.6 214.935C377.334 220.268 382.267 225.068 382.4 225.601C383.2 227.468 381.067 226.801 378.4 224.401C377.067 223.201 375.6 222.535 375.2 222.935C374.8 223.335 376.4 225.068 378.534 226.668C381.067 228.401 382.667 228.935 382.667 227.868C382.667 226.801 383.6 227.201 385.334 228.668C386.8 230.001 388 230.535 388 229.868C388 227.735 366.267 207.068 359.6 202.935L353.2 198.935L357.867 199.068C360.534 199.201 362 199.601 361.067 200.135C360.134 200.668 361.2 201.868 363.6 203.201C365.867 204.268 371.067 208.268 375.2 212.135C379.334 215.868 382.667 218.135 382.667 217.201C382.667 216.001 383.734 216.535 385.6 218.268C388.934 221.601 388 224.001 384.4 221.201C383.067 220.268 384.4 222.001 387.334 225.068C390.134 228.135 392.8 230.668 393.067 230.668C393.734 230.668 391.867 227.735 389.6 224.935C388.4 223.735 388.267 222.668 389.067 222.668C389.867 222.668 392 224.668 393.867 226.935C395.734 229.335 397.334 230.668 397.334 229.868C397.334 229.068 396.4 227.601 395.334 226.668C394.267 225.735 393.334 224.268 393.334 223.468C393.467 222.668 395.2 224.135 397.334 226.668C399.6 229.201 401.334 230.535 401.334 229.601C401.334 228.535 402 228.268 402.934 228.801C403.867 229.335 403.2 228.001 401.734 225.868C397.867 220.668 383.6 206.801 382 206.668C381.334 206.668 380.667 206.135 380.667 205.468C380.667 204.801 380.134 203.735 379.467 203.068C378.8 202.401 378.667 202.668 379.2 203.601C380.534 206.001 378.667 205.735 375.467 202.935C372.8 200.801 372.8 200.801 374.534 202.935C376.8 205.868 375.6 206.001 371.334 203.201C369.467 202.001 368.4 200.401 368.934 199.601C369.334 198.801 369.067 198.668 368.267 199.201C367.334 199.735 366.667 200.401 366.667 200.535C366.667 201.468 382 212.668 382.8 212.401C383.2 212.268 385.867 214.535 388.667 217.468C391.6 220.268 393.2 222.668 392.534 222.668C391.734 222.668 389.467 220.935 387.334 218.668C385.2 216.535 383.2 214.935 382.934 215.335C382.534 215.601 379.467 213.601 376.134 210.801C372.8 208.001 368.267 204.668 366.267 203.335C363.6 201.601 362.934 200.668 364.134 199.868C366.667 198.401 360.934 197.468 350.267 197.601L341.2 197.868L346 200.401ZM382.8 208.401C383.734 208.135 399.067 223.868 400.667 226.668C401.2 227.735 397.6 224.535 392.4 219.601C387.334 214.668 382.934 210.935 382.534 211.335C382.134 211.735 380.4 210.401 378.534 208.535L375.334 204.935L378.667 206.801C380.534 207.735 382.4 208.535 382.8 208.401Z" fill="black"/>
<path d="M303.734 203.601C295.334 212.535 288.134 226.801 284.001 243.068C272.667 287.201 274.267 339.335 288.667 402.535C291.334 414.135 298.801 426.001 305.334 429.335C312.401 432.935 313.067 432.668 308.267 428.268C302.267 422.668 298.001 412.801 294.134 395.868C287.734 367.468 286.267 347.868 287.067 302.668C287.734 261.868 289.067 248.935 294.801 230.801C298.001 220.135 304.667 206.401 308.667 202.135C310.401 200.135 311.201 198.668 310.267 198.668C309.334 198.668 306.401 200.935 303.734 203.601Z" fill="black"/>
<path d="M318.134 200.8C313.734 214.667 314 417.333 318.4 429.333L319.6 432.533L320.534 428.933C323.6 416.667 324.934 286.933 322.667 232.933C321.334 203.867 320.134 194.667 318.134 200.8Z" fill="black"/>
<path d="M450 206.001C444.267 212.268 443.733 213.335 446 213.601C447.467 213.868 450 216.401 451.733 219.735C457.733 230.535 457.067 255.335 449.867 286.935C448.133 294.801 446.667 302.801 446.667 304.935C446.533 311.068 431.2 366.135 423.333 388.001C413.867 414.801 411.867 419.335 407.467 426.135C400.933 436.001 394.667 440.401 387.333 440.401C384.133 440.401 381.733 440.935 382.133 441.601C382.533 442.135 386.533 442.668 391.067 442.668H399.2L406.933 434.668C411.2 430.401 414.667 425.735 414.667 424.535C414.667 423.201 416.133 419.735 417.867 416.801C423.867 406.401 446.667 336.001 446.667 327.601C446.667 326.135 449.333 314.135 452.667 300.801C455.867 287.601 459.867 269.468 461.467 260.668C466.4 232.935 463.733 211.468 454.933 207.201C452.933 206.268 452.4 205.335 453.2 204.801C454.533 203.868 457.867 198.668 457.067 198.668C456.8 198.668 453.6 202.001 450 206.001Z" fill="black"/>
<path d="M182.667 200.933C182.667 201.733 183.6 203.067 184.667 204C186.534 205.467 186.4 205.867 183.734 207.2C178.534 209.733 175.467 218 174.934 231.6C174.134 249.2 176.8 264.267 193.867 335.333C200.8 364.533 214.534 406.267 220.134 415.467C221.467 417.733 222.667 420.533 222.667 421.6C222.667 424.667 231.867 436.533 236.8 439.867C241.467 443.067 251.2 444 255.6 441.467C257.467 440.4 256.934 440.133 252.4 440.267C249.2 440.267 244.934 439.2 242.4 437.733C237.467 434.8 230 425.6 225.867 417.067C215.867 396.533 195.467 324.667 187.067 280C184.267 265.2 183.334 256.533 183.334 243.333C183.334 227.333 183.6 225.6 186.667 220C188.534 216.8 191.2 213.733 192.667 213.333C195.067 212.8 194.667 212 189.067 206C185.467 202.4 182.667 200 182.667 200.933Z" fill="black"/>
<path d="M216.267 227.468C208.667 232.801 204.534 250.001 205.734 271.201C206.667 288.134 209.467 303.601 216.134 330.268C219.067 341.868 222 354.268 222.667 358.001C223.867 365.334 233.334 394.001 238 404.801C241.6 412.934 249.067 424.534 253.867 429.601C258.134 434.001 265.734 436.268 272 434.801L276.667 433.868L270.4 433.068C264.4 432.401 254.667 426.801 254.667 424.134C254.667 423.468 252.267 418.934 249.467 413.868C246.534 408.801 242.134 398.668 239.467 391.334C232.8 372.268 222.667 336.401 222.667 331.468C222.667 329.201 221.734 323.468 220.534 318.668C214.8 294.268 213.2 267.068 216.667 250.934C219.334 237.734 223.067 231.068 228.4 229.868L232.667 228.934L226.667 227.201C219.2 224.934 219.867 224.934 216.267 227.468Z" fill="black"/>
<path d="M411.467 227.201L407.6 228.935L410.933 229.735C418.133 231.601 424 250.135 424 271.335C424 308.135 404.267 388.535 389.067 414.135C386.667 418.268 383.867 422.935 383.067 424.668C380.667 428.935 375.333 432.135 368.133 433.335L362 434.401L370.533 434.535L379.2 434.668L386 427.601C390.267 423.335 394.8 416.401 398.267 409.335C403.867 397.735 414.667 367.201 414.667 362.935C414.667 361.735 417.867 347.735 421.867 332.001C425.867 316.268 430.133 296.135 431.333 287.335C435.333 259.735 432.133 235.735 423.733 228.535C419.333 224.935 417.2 224.801 411.467 227.201Z" fill="black"/>
<path d="M127.2 288C128 299.467 142.8 364 152.134 396.267C155.067 406.8 158.134 417.733 158.667 420.667C162.134 436.933 174.934 461.6 184.534 470.133C190 475.067 191.867 476 196.534 476C199.6 476 203.334 475.2 204.8 474.133C207.067 472.4 206.534 472.4 201.067 473.6C195.2 474.933 194.4 474.8 189.6 471.467C177.467 463.067 165.067 438.133 156.8 405.333C155.6 400.533 151.867 386.133 148.534 373.333C145.2 360.533 139.6 336.533 135.867 320C132.267 303.467 128.667 287.867 128 285.333C126.8 281.2 126.8 281.467 127.2 288Z" fill="black"/>
<path d="M126.801 312.934C126.534 318.001 135.601 358.134 144.801 393.334C150.267 414.534 158.401 439.201 158.534 435.201C158.667 433.734 156.801 427.201 154.667 420.534C149.734 406.001 140.534 370.934 132.801 336.001C129.467 321.734 126.801 311.334 126.801 312.934Z" fill="black"/>
<path d="M506.134 335.067C500.667 360.934 488.934 406.534 483.334 423.067C480.667 431.067 478.801 438.267 479.067 439.067C479.601 440.801 488.801 412.934 494.001 393.334C501.467 365.334 511.601 319.067 510.401 318.001C510.134 317.601 508.134 325.334 506.134 335.067Z" fill="black"/>
<path d="M158.667 440.535C158.667 444.668 170.8 466.801 176.134 472.668C179.067 475.868 181.467 478.935 181.334 479.601C181.2 480.135 181.867 480.801 182.934 481.068C184.134 481.335 184 481.068 182.667 480.135C180.934 478.935 180.934 478.668 182.934 478.668C184.534 478.668 183.467 476.935 179.2 473.068C175.067 469.201 171.067 463.335 166 453.068C162 445.068 158.667 439.468 158.667 440.535Z" fill="black"/>
<path d="M471.6 455.201C467.467 463.334 463.2 469.601 459.333 473.201C455.2 477.067 454.133 478.667 455.733 478.667C457.733 478.667 457.733 478.934 456 480.001C454.933 480.667 454.667 481.334 455.333 481.334C456.133 481.334 457.6 480.667 458.667 480.001C460.267 478.934 460.267 478.667 458.8 478.667C457.867 478.667 459.333 476.134 462.4 472.801C467.733 467.067 479.2 446.267 478.4 443.867C478.133 443.201 475.067 448.401 471.6 455.201Z" fill="black"/>
<path d="M472.001 464.001C471.201 465.468 470.934 466.668 471.201 466.668C471.601 466.668 472.534 465.468 473.334 464.001C474.134 462.535 474.401 461.335 474.134 461.335C473.734 461.335 472.801 462.535 472.001 464.001Z" fill="black"/>
<path d="M463.867 475.601L460.667 479.334L464.4 476.134C467.734 473.067 468.667 472.001 467.6 472.001C467.334 472.001 465.734 473.601 463.867 475.601Z" fill="black"/>
<path d="M188.401 479.601C189.601 479.867 191.734 479.867 193.067 479.601C194.267 479.201 193.201 478.934 190.667 478.934C188.134 478.934 187.067 479.201 188.401 479.601Z" fill="black"/>
<path d="M445.734 479.601C446.934 479.867 449.067 479.867 450.4 479.601C451.6 479.201 450.534 478.934 448 478.934C445.467 478.934 444.4 479.201 445.734 479.601Z" fill="black"/>
</svg>
