<svg width="640" height="640" viewBox="0 0 640 640" fill="none" xmlns="http://www.w3.org/2000/svg">
<path d="M86.667 92.6656C86.667 93.8656 87.467 94.2656 88.667 93.8656C89.7337 93.3323 90.267 92.5323 89.867 91.8656C88.8003 89.999 86.667 90.5323 86.667 92.6656Z" fill="black"/>
<path d="M544.266 93.3332C543.466 94.7999 542.666 97.0666 542.8 98.2666C542.8 99.8666 543.333 99.4666 544.133 97.0666C544.933 95.0666 546.266 93.7332 547.066 93.9999C549.066 94.7999 552.933 92.3999 551.6 91.1999C551.2 90.6666 549.866 90.9332 548.8 91.8666C547.6 92.9332 546.8 92.9332 546.4 91.9999C546.266 91.3332 545.2 91.8666 544.266 93.3332Z" fill="black"/>
<path d="M89.734 100.267C89.2007 101.2 88.8007 106.133 88.934 111.2C89.2007 121.867 93.6007 154.667 94.4007 152.133C94.6674 151.2 94.0007 142.533 92.6674 132.933C90.134 112.8 90.2674 103.733 93.334 103.333C94.6674 103.067 96.134 105.2 97.6007 109.467C99.334 114.8 99.4674 116 97.8674 116C91.0674 116 95.8674 150.933 119.334 272C121.334 281.867 123.734 295.067 124.801 301.333C125.867 307.6 127.601 318 128.801 324.667C135.867 366 154.267 433.6 164.401 455.067C171.867 470.8 178.667 478.267 186.667 479.333L192.667 480L187.334 478.133C184.401 477.067 179.867 473.733 177.201 470.8C171.334 464.267 160.667 443.2 158.667 434.133C157.867 430.533 156.134 424.267 154.801 420.133C150.534 407.467 142.801 378.133 137.334 353.467C132.134 329.867 130.267 320.133 122.534 277.333C120.267 264.533 116.934 246.533 115.201 237.333C101.734 166.533 98.6674 147.2 98.6674 132.933C98.6674 124.4 99.0674 122.667 100.801 122.667C102.267 122.667 102.667 122 102.001 120.267C101.467 119.067 100.801 116.8 100.534 115.333C99.734 110.8 94.934 97.8666 94.8007 99.8666C94.6674 101.2 94.2674 101.333 92.8007 100.133C91.334 98.9333 90.6674 98.9333 89.734 100.267Z" fill="black"/>
<path d="M102.134 112.8C107.867 131.2 107.867 131.2 108.801 130.267C109.734 129.467 100.401 101.2 98.6672 99.4665C98.0006 98.9332 99.6006 104.933 102.134 112.8Z" fill="black"/>
<path d="M538.933 100.933C536.666 105.2 529.2 129.6 529.866 130.267C530.8 131.2 532 128 537.066 112C540.933 99.7333 541.6 95.7333 538.933 100.933Z" fill="black"/>
<path d="M544.4 101.199C542.8 102.532 540.266 107.599 538.8 112.532C535.466 123.199 535.6 122.799 537.466 122.266C538.4 122.132 539.6 123.732 540.133 125.999C542.266 133.466 538.133 161.199 523.333 238.666C521.466 248.532 519.066 261.466 518 267.199C516.933 273.066 514.8 283.466 513.333 290.266C511.066 300.666 509.733 315.732 511.333 311.332C512.8 307.732 534.266 193.332 539.333 162.666C543.2 139.066 543.866 116.532 540.8 115.732C539.2 115.466 539.466 114.266 541.733 109.466C543.333 106.266 545.333 103.466 546 103.466C548.533 103.199 548.266 116.532 545.333 137.732C543.733 149.332 542.666 159.199 543.066 159.466C543.333 159.866 544.666 153.599 546 145.732C548.666 129.066 550.266 101.599 548.533 99.9989C547.866 99.3322 546.133 99.8655 544.4 101.199Z" fill="black"/>
<path d="M527.068 119.599C523.601 127.599 517.201 147.999 518.268 147.999C518.534 147.999 519.734 147.066 520.934 145.866C524.668 142.132 526.001 145.866 525.868 159.732C525.734 166.799 524.668 178.399 523.468 185.332C508.134 272.799 496.001 332.666 485.201 373.999C482.268 385.732 479.201 398.399 478.534 401.999C476.801 412.266 466.001 440.533 459.868 450.666C456.934 455.733 451.734 462.399 448.401 465.466C442.134 471.199 439.334 471.599 430.001 468.799C428.534 468.266 429.734 469.199 432.668 470.666C441.068 474.799 444.401 474.133 451.868 466.933C455.334 463.466 460.401 456.933 463.068 452.399C468.134 443.733 476.934 421.599 478.134 414.266C478.668 411.866 480.934 402.799 483.334 393.999C487.334 379.599 493.601 353.599 501.068 320.666C504.268 306.399 510.001 276.132 511.868 263.999C512.534 259.199 516.134 239.732 519.868 220.666C530.534 166.266 533.068 142.266 528.534 138.532C526.668 137.066 526.134 137.066 524.668 139.066C523.734 140.266 522.668 141.332 522.268 141.332C521.468 141.332 525.334 128.666 529.201 118.932C532.934 109.599 531.334 110.132 527.068 119.599Z" fill="black"/>
<path d="M108.667 116.934C110.134 120.401 117.334 141.601 117.334 142.401C117.334 142.801 116.134 141.867 114.534 140.134C112.267 137.734 111.467 137.467 109.734 138.934C105.201 142.667 109.067 174.267 122.001 238.267C124.534 250.934 126.667 263.067 126.667 265.067C126.667 268.667 132.267 296.534 140.534 334.667C142.401 343.067 146.934 362.001 150.801 376.667C154.534 391.334 158.134 405.734 158.667 408.667C160.401 418.001 169.201 441.201 175.067 451.601C181.334 462.801 191.601 473.334 196.267 473.334C201.067 473.334 208.934 470.801 210.534 468.801C211.734 467.334 210.934 467.334 206.267 469.067C196.267 472.667 191.467 469.734 180.667 453.334C173.067 441.601 161.067 410.934 159.067 398.001C158.667 395.067 155.734 382.401 152.534 370.001C149.334 357.467 144.001 334.401 140.667 318.667C137.334 302.934 134.134 287.867 133.467 285.334C132.801 282.801 131.067 273.467 129.467 264.667C128.001 255.867 124.934 238.801 122.667 226.667C112.667 171.067 110.667 154.267 113.201 147.467C114.667 143.867 114.801 143.867 117.867 145.867L121.067 147.867L117.867 137.201C114.001 125.067 109.867 114.667 108.534 114.667C108.134 114.667 108.134 115.734 108.667 116.934Z" fill="black"/>
<path d="M514.267 135.599C513.201 137.599 511.201 143.466 510.001 148.666C508.667 153.733 506.401 160.799 504.667 164.266C502.534 168.933 502.134 170.666 503.467 170.666C512.934 170.666 508.001 210.933 487.867 299.999C484.934 312.799 481.601 328.133 480.534 333.999C473.067 372.533 460.001 415.466 448.001 440.266C440.667 455.333 430.667 462.666 421.067 459.866C415.601 458.399 414.401 459.466 419.467 461.466C428.001 464.799 438.667 462.133 443.334 455.599C449.867 446.399 452.801 440.666 458.267 427.466C465.067 411.066 475.067 378.933 477.467 366.133C478.267 361.733 481.067 348.666 483.734 337.333C509.734 221.866 517.734 167.866 509.467 162.799C508.667 162.266 508.534 161.199 509.334 159.999C510.134 158.933 510.667 156.399 510.667 154.399C510.667 152.399 512.134 146.666 514.001 141.733C517.334 132.266 517.601 129.199 514.267 135.599Z" fill="black"/>
<path d="M124.001 139.732C125.467 143.599 126.667 147.999 126.667 149.732C126.801 151.332 127.601 154.799 128.534 157.465C130.001 161.599 130.001 162.532 128.134 163.599C126.267 164.799 126.001 167.732 126.401 183.199C126.667 200.932 127.467 207.465 133.334 237.332C137.334 258.265 141.067 275.732 152.534 326.665C155.734 340.932 159.067 356.532 159.867 361.199C164.267 384.265 181.601 435.332 188.001 444.265C189.467 446.265 190.667 448.265 190.667 448.799C190.667 451.599 198.534 459.332 203.467 461.465C208.401 463.732 210.001 463.865 215.334 462.532C224.134 460.265 223.601 459.332 213.734 459.332H204.934L198.001 451.465C194.134 447.065 190.534 442.265 190.267 440.799C189.867 439.199 187.067 431.999 184.001 424.665C174.534 401.732 163.601 362.799 156.801 327.332C155.601 321.465 153.201 309.732 151.334 301.332C130.267 207.599 125.867 170.665 135.467 170.665C137.201 170.665 137.201 170.265 135.467 167.599C133.201 164.132 126.667 144.399 126.667 141.199C126.667 139.999 125.467 137.599 124.001 135.865C121.467 132.665 121.467 132.665 124.001 139.732Z" fill="black"/>
<path d="M138.267 158.933C139.067 159.867 140.667 164 142 168C145.067 177.6 148 184 149.467 184C150.534 184 147.867 175.6 143.334 164.4C142.134 161.333 140.134 158.533 139.067 158.133C137.467 157.467 137.334 157.733 138.267 158.933Z" fill="black"/>
<path d="M499.201 158.4C497.067 159.733 494.801 164.533 491.334 174.8C489.601 179.867 488.667 184 489.201 184C490.534 184 493.601 177.6 496.001 170C496.934 167.067 498.534 163.067 499.601 160.933C501.467 157.067 501.467 156.8 499.201 158.4Z" fill="black"/>
<path d="M94.8004 162.267C94.6671 164.534 96.1337 174.667 98.0004 184.934C116.8 290 126.267 338.934 126.534 333.467C126.534 331.734 124 316.534 120.8 299.467C115.734 273.334 103.6 207.067 96.8004 168.667C95.8671 162.8 94.9337 159.867 94.8004 162.267Z" fill="black"/>
<path d="M541.468 169.467C541.468 171.334 539.868 181.2 538.001 191.467C536.135 201.6 533.335 216.401 532.001 224.267C530.535 232.267 528.135 245.467 526.668 253.601C525.068 261.867 520.935 284.001 517.335 302.801C513.601 321.601 510.668 338.401 510.801 340.134C510.935 345.467 516.001 319.867 528.535 252.001C538.801 196.134 542.801 171.6 542.268 168.8C541.868 166.534 541.601 166.667 541.468 169.467Z" fill="black"/>
<path d="M475.468 190.533C470.001 201.2 469.601 202.666 473.201 199.466C480.135 193.2 484.668 202.133 483.601 220C482.535 238 478.801 262.8 473.735 286.666C466.935 318.8 455.068 366 449.335 383.866C447.868 388.533 446.668 393.333 446.668 394.666C446.668 401.333 432.135 433.866 425.735 441.333C420.668 447.466 412.401 450.933 406.935 449.333C404.401 448.666 402.668 448.666 402.668 449.333C402.668 450 405.068 451.2 408.135 452C419.468 455.066 430.268 447.2 438.668 429.733C441.735 423.333 444.801 416.933 445.468 415.733C446.135 414.4 446.668 412.266 446.668 411.066C446.668 409.733 449.068 401.2 452.135 392C458.135 373.333 473.068 315.066 476.535 296.666C477.735 290 480.535 275.333 482.668 264C490.535 223.066 492.268 204.8 489.468 194.666C488.268 190.4 481.735 189.2 479.068 192.8C476.668 196 476.935 193.066 479.335 187.066C482.801 178.8 480.535 180.8 475.468 190.533Z" fill="black"/>
<path d="M158.667 186.266C158.667 187.866 159.333 189.6 160 190C160.8 190.4 161.333 191.866 161.333 193.066C161.2 195.2 161.067 195.2 159.467 192.933C156.667 189.333 150.8 190 149.333 194.133C146.133 202.533 148.933 231.733 156 263.333C157.467 269.866 158.667 277.2 158.667 279.466C158.667 288.266 179.733 372.8 187.2 394.533C189.067 400 190.667 405.6 190.667 407.066C190.667 410.666 200.133 431.733 205.467 439.866C213.2 451.6 227.467 456.266 235.6 449.733C238.133 447.733 237.733 447.733 229.333 450.133C225.2 451.2 215.467 444.8 210.533 437.733C205.067 429.866 194.267 405.066 191.867 395.333C191.067 391.6 189.2 384.8 187.867 380C184.933 369.733 169.467 307.333 165.6 290C156.533 249.733 152.8 210.666 157.067 200.4C159.067 196 161.067 195.733 165.733 199.733C169.2 202.8 168.533 200.266 163.333 191.333C160.133 185.733 158.8 184.133 158.667 186.266Z" fill="black"/>
<path d="M266.667 197.466C264.8 198.266 262.267 199.066 261.067 199.333C257.734 199.999 253.6 202.533 255.734 202.666C256.667 202.666 257.067 203.333 256.667 203.999C256.134 204.799 255.2 205.066 254.534 204.533C253.734 204.133 250.534 206.399 247.334 209.733C244 212.933 240.934 215.199 240.534 214.799C240 214.399 240 214.666 240.534 215.599C240.934 216.399 240.134 217.999 238.667 219.066C237.067 220.133 234.134 223.866 231.867 227.333C228 233.466 227.734 233.599 222.534 232.799C217.867 231.999 216.667 232.399 213.334 235.733C208.4 240.666 206.667 247.066 205.734 262.666C204.8 278.266 207.334 296.933 214.934 329.999C217.867 343.199 220.934 356.933 221.6 360.666C223.734 371.733 233.334 399.999 238.4 410.666C241.2 416.399 246.134 423.599 250 427.599C256.667 434.533 257.067 434.666 264.267 434.666C268.4 434.666 272.134 434.133 272.534 433.466C272.934 432.933 270.934 432.399 268 432.399C261.067 432.399 257.734 429.999 251.067 420.266C240 404.266 227.2 364.399 221.334 327.999C220.4 322.533 218.8 313.466 217.867 307.999C211.467 272.266 215.734 238.666 226.934 236.399C230.934 235.599 240.667 224.799 239.2 222.533C238.8 221.866 239.467 221.733 240.534 222.133C242.8 223.066 242.534 223.733 237.6 230.399C235.734 232.799 234.534 235.066 234.934 235.333C235.334 235.733 237.2 233.733 239.067 231.066C243.734 224.266 254.667 213.599 254.667 215.866C254.667 216.799 258 214.533 262.134 210.666C266.267 206.933 272.667 202.399 276.134 200.533C279.734 198.799 282.667 196.933 282.667 196.666C282.667 195.733 274.667 196.799 271.467 198.133C269.6 198.799 269.2 198.666 269.867 197.599C270.934 195.733 271.067 195.733 266.667 197.466ZM277.334 197.999C277.334 198.266 275.067 199.733 272.4 201.199C269.6 202.533 264.534 206.266 261.067 209.333C257.467 212.399 254.667 214.133 254.667 213.066C254.534 212.133 252.134 213.999 249.2 217.199C246.4 220.399 243.6 222.666 243.2 222.266C242.134 221.333 253.334 209.199 254.667 209.999C255.067 210.266 258.667 208.133 262.534 205.333C266.4 202.399 268.934 199.999 268.267 199.999C267.467 199.999 264.134 201.999 260.934 204.533C257.6 207.066 254.534 208.666 254 208.266C253.467 207.733 250.134 210.666 246.534 214.666C242.934 218.666 240 221.333 240 220.666C240 219.866 243.334 215.999 247.334 211.999C251.334 207.999 254.667 205.199 254.667 205.733C254.667 206.266 256 206.133 257.467 205.199C259.734 203.999 260 203.466 258.534 202.533C256.934 201.599 257.067 201.333 258.667 201.199C259.734 201.066 261.2 201.066 261.867 201.199C262.4 201.333 263.734 200.799 264.8 199.999C265.734 199.066 267.6 198.799 268.934 199.199C270.267 199.599 272.267 199.333 273.334 198.666C275.467 197.199 277.334 196.933 277.334 197.999ZM234.4 228.799C232.134 231.999 230 234.399 229.6 233.999C229.2 233.733 230.534 231.333 232.534 228.799C234.4 226.266 236 223.466 236 222.666C236 221.866 236.667 221.599 237.334 221.999C238.134 222.533 236.934 225.199 234.4 228.799Z" fill="black"/>
<path d="M284.801 197.333C285.201 197.6 283.067 199.066 280.267 200.666C277.334 202.133 272.934 205.2 270.534 207.333C263.467 213.733 244.934 234.666 245.601 235.333C246.001 235.733 248.534 233.466 251.201 230.4C258.534 221.866 273.467 206.933 277.334 204.133C279.201 202.8 282.134 201.2 283.867 200.666C285.734 200.133 281.334 205.066 272.667 213.466C264.667 221.066 256.534 228.933 254.401 230.933C252.267 233.066 250.934 234.666 251.467 234.666C252.934 234.666 265.201 223.866 276.134 212.8C281.734 207.2 288.934 201.466 292.134 199.866C297.601 197.333 295.334 196.933 288.667 199.333C286.134 200.133 286.134 200.133 288.401 198.266C290.667 196.4 290.667 196.266 287.467 196.533C285.734 196.533 284.534 196.933 284.801 197.333Z" fill="black"/>
<path d="M349.601 197.599C350.534 198.266 354.001 200.266 357.334 201.999C360.667 203.733 367.201 209.066 372.001 213.866C376.667 218.666 381.201 222.666 381.867 222.666C384.534 222.666 363.467 202.799 358.401 200.533C355.601 199.199 353.867 197.866 354.667 197.333C355.467 196.799 354.267 196.399 352.001 196.399C349.201 196.399 348.401 196.799 349.601 197.599Z" fill="black"/>
<path d="M357.334 197.333C357.334 197.866 359.867 199.333 362.934 200.799C369.467 203.733 381.467 215.466 393.334 230.266C395.734 233.466 398.267 235.999 399.067 235.999C400.267 235.999 398.401 233.466 388.267 221.599C378.534 210.133 371.867 203.999 365.734 200.799C362.134 198.933 360.134 197.466 361.201 197.333C367.601 197.199 387.867 214.933 400.001 231.599C401.734 233.999 403.467 235.733 403.734 235.333C404.001 235.066 402.401 232.266 400.134 229.199C397.867 225.999 396.401 223.199 396.801 222.799C397.201 222.399 398.667 223.599 400.134 225.599C401.601 227.466 403.867 230.533 405.334 232.266C407.467 234.799 407.867 234.799 407.067 232.799C406.534 231.066 406.667 230.533 407.734 231.199C408.667 231.733 409.334 233.066 409.334 234.133C409.334 235.199 410.401 235.999 411.734 235.999C420.667 236.266 426.401 265.733 422.801 293.999C419.201 322.133 411.734 358.399 405.067 379.999C397.734 403.199 393.067 413.199 383.467 425.599C379.734 430.666 372.401 433.866 368.534 432.399C367.467 431.999 366.667 432.399 366.667 433.199C366.667 434.133 369.467 434.666 373.734 434.666C380.001 434.666 381.601 434.133 386.401 429.999C389.334 427.333 394.001 421.733 396.667 417.333C402.001 408.533 412.934 379.733 414.134 371.333C414.534 368.399 416.934 358.133 419.334 348.666C429.467 309.599 434.134 278.666 432.934 259.866C431.734 240.399 425.601 230.799 415.601 232.666C411.201 233.599 410.667 233.199 407.201 228.133C405.334 225.066 403.334 222.666 403.067 222.666C402.667 222.666 403.334 224.266 404.667 226.133C405.867 227.999 406.534 229.866 406.267 230.266C405.467 231.066 400.934 224.266 400.534 221.733C399.867 217.333 383.067 201.333 380.134 202.399C378.934 202.799 378.667 202.399 379.334 201.199C380.001 200.133 379.867 199.733 379.334 200.399C378.667 200.933 376.667 200.399 374.934 199.199C371.467 196.933 357.334 195.466 357.334 197.333ZM376.267 201.599C378.401 203.066 380.534 203.866 381.201 203.466C382.401 202.666 400.001 220.266 400.001 222.266C400.001 222.799 396.801 219.866 392.934 215.599C389.201 211.333 385.067 207.733 383.867 207.466C382.534 207.333 380.801 206.533 379.734 205.733C378.801 204.933 375.334 202.666 372.001 200.666C368.534 198.666 367.467 197.599 369.334 198.133C371.201 198.533 374.267 200.133 376.267 201.599ZM395.601 222.133C394.667 223.066 382.801 210.799 382.667 208.666C382.667 207.999 385.734 210.533 389.601 214.266C393.467 218.133 396.134 221.599 395.601 222.133Z" fill="black"/>
<path d="M297.333 199.867C292.4 202.534 291.067 203.867 279.867 216.267C276.133 220.534 269.6 226.4 265.467 229.467C245.2 244.667 240 257.6 240 292.267C240 306.134 243.733 338.267 246.667 349.334C247.333 351.867 249.467 360.534 251.333 368.667C256.4 390.267 257.2 393.067 261.333 403.6C267.2 418.134 274.933 426.8 284.533 429.2C292.667 431.2 298.533 430.934 291.6 428.8C279.6 425.067 272.533 415.734 265.333 394C248.4 343.6 244.933 270.134 258.267 245.2C260.133 241.867 267.2 233.467 274.133 226.667C281.067 219.734 286.667 213.467 286.667 212.667C286.667 210.534 294.533 203.334 299.733 200.8C303.733 198.667 305.2 197.2 303.067 197.334C302.4 197.467 299.867 198.534 297.333 199.867Z" fill="black"/>
<path d="M307.867 199.6C295.067 208.534 283.334 236.8 278.534 270.667C274.934 296.667 277.334 348.8 283.467 378C284.534 383.067 286 391.2 286.8 396C289.067 410.8 296 423.467 305.067 428.934C311.867 433.067 313.067 432.8 308.134 428.134C298.934 419.467 292.8 398.934 288.534 361.734C285.334 333.867 286.534 269.067 290.667 248.667C294.934 227.067 304.667 203.334 310.4 200.134C311.6 199.467 312.267 198.534 311.867 198.134C311.467 197.734 309.734 198.4 307.867 199.6Z" fill="black"/>
<path d="M326.667 197.867C326.667 198.133 328.4 200.267 330.534 202.533C336 208.267 344.534 230.8 348.134 248.667C350.8 262.133 351.067 267.2 351.067 311.333C351.067 349.467 350.534 362.267 348.8 374C344 404.933 338.8 420.4 330.4 428.267C328.134 430.267 326.934 432 327.467 432C329.467 432 337.6 426.533 340.134 423.6C344.4 418.533 350.667 405.067 350.667 401.067C350.667 398.8 351.867 392.533 353.2 386.933C362 352 364.534 292.933 358.667 261.333C354.134 236.533 345.2 214.533 335.467 204.267C331.6 200.133 326.667 196.533 326.667 197.867Z" fill="black"/>
<path d="M338.001 200.265C344.534 203.599 349.067 207.599 351.334 211.999C352.267 213.865 358.534 220.665 365.201 227.199C371.734 233.732 378.401 241.599 379.867 244.532C389.334 263.999 391.467 295.999 385.867 334.665C384.667 342.399 383.334 352.799 382.667 357.999C381.334 368.132 375.467 389.599 370.134 403.732C365.734 415.332 357.601 424.532 348.667 428.132L342.001 430.799L348.401 430.132C357.867 429.065 363.601 425.732 369.201 418.132C374.001 411.732 380.267 398.132 381.867 390.665C382.267 388.799 385.067 377.465 388.001 365.332C394.801 336.932 397.334 320.932 398.267 298.665C399.201 277.332 397.334 261.865 392.801 251.599C389.201 243.465 384.267 237.999 373.201 229.599C366.667 224.665 360.134 218.265 348.934 205.599C346.001 202.265 337.201 197.332 334.401 197.332C333.467 197.465 335.067 198.665 338.001 200.265Z" fill="black"/>
<path d="M347.2 200.266C350.134 201.733 358.267 208.533 365.2 215.333C380.667 230.399 385.467 234.666 386.534 234.666C386.934 234.666 380.667 227.999 372.667 219.999C358.4 205.599 347.734 197.333 343.867 197.333C342.8 197.466 344.4 198.666 347.2 200.266Z" fill="black"/>
<path d="M318.134 200.8C313.734 214.667 314 417.333 318.4 429.333L319.6 432.533L320.534 428.933C323.6 416.667 324.934 286.933 322.667 232.933C321.334 203.867 320.134 194.667 318.134 200.8Z" fill="black"/>
<path d="M181.2 210.4C183.867 214.134 183.867 214.134 181.2 215.867C171.467 221.867 172.8 252.267 184.667 304C187.333 315.334 190 328 190.667 332C193.867 353.2 208.8 400.267 219.2 421.6C228.267 440.134 235.333 445.467 248 443.334C254.933 442.134 256.267 440 249.6 440.934C240.133 442.267 230.667 434.267 224 419.334C212 392.934 194.667 331.867 189.333 298C188.533 292.8 186.933 283.2 185.733 276.667C183.2 262.534 182.667 231.734 185.067 226.4C185.867 224.4 188 222.4 189.733 221.867C192.933 221.2 192.933 221.067 187.2 214.934C184 211.6 181.333 208.267 181.333 207.734C181.333 207.2 180.667 206.667 179.867 206.667C179.067 206.667 179.733 208.4 181.2 210.4Z" fill="black"/>
<path d="M457.334 207.734C457.334 208.401 454.667 211.601 451.467 214.801L445.601 220.801L449.334 222.267C452.534 223.467 453.334 224.801 454.667 231.467C456.534 240.401 455.601 262.934 452.801 278.001C451.734 283.067 450.001 293.601 448.667 301.334C442.801 336.001 428.267 388.001 417.734 412.001C416.001 416.001 413.734 421.201 412.667 423.467C410.267 429.201 403.201 437.067 398.267 439.601C395.734 440.934 392.267 441.334 388.801 440.934L383.334 440.267L387.334 442.134C395.067 445.601 404.401 443.601 410.267 437.201C421.201 425.334 440.001 372.134 448.534 328.667C449.734 322.801 452.401 309.867 454.667 300.001C466.001 249.467 466.934 221.734 457.467 215.867C454.801 214.134 454.801 214.134 457.467 210.401C458.934 208.401 459.601 206.667 458.801 206.667C458.001 206.667 457.334 207.201 457.334 207.734Z" fill="black"/>
<path d="M251.333 221.067C247.067 224.667 238.133 236 239.733 236C240.4 236 242.667 233.733 244.8 230.933C246.933 228.267 250.133 224.667 251.867 222.933C255.6 219.467 255.2 217.867 251.333 221.067Z" fill="black"/>
<path d="M382.667 224.8C382.667 225.467 385.067 228.534 388 231.334C390.934 234.134 393.334 236 393.334 235.2C393.334 234.534 390.934 231.467 388 228.667C385.067 225.867 382.667 224 382.667 224.8Z" fill="black"/>
<path d="M504.8 338C498 369.6 489.2 403.867 483.333 422C480.8 430 478.667 437.6 478.667 438.667C478.667 442.533 466.8 464.933 461.733 470.533C458.933 473.6 454.267 477.067 451.333 478.133L446 480L452 479.333C463.467 477.733 472.533 464 483.067 431.333C494.533 395.867 511.2 326.667 510.4 318.133C510.133 315.6 508 323.467 504.8 338Z" fill="black"/>
<path d="M126.801 342.666C126.401 352.533 147.067 431.866 154.001 447.333C155.601 450.933 157.334 454.933 157.867 456C160.267 461.6 156.667 449.333 151.467 433.866C145.067 415.2 138.134 389.6 131.201 358.666C128.934 348 126.801 340.8 126.801 342.666Z" fill="black"/>
<path d="M506.801 360.799C499.601 394.665 486.801 439.999 481.201 450.799C479.868 453.599 478.668 456.932 478.801 458.265C478.801 460.799 478.935 460.799 484.801 447.332C492.135 430.799 512.135 352.932 510.401 347.732C510.135 346.932 508.535 352.799 506.801 360.799Z" fill="black"/>
<path d="M158.667 459.999C158.667 462.533 165.734 474.933 168.534 477.199C171.2 479.466 171.334 477.599 168.667 474.666C167.6 473.466 164.934 469.199 162.667 465.199C160.534 461.199 158.667 458.933 158.667 459.999Z" fill="black"/>
<path d="M474.001 468.533C471.468 472.8 467.601 476.933 463.334 479.733C457.601 483.6 455.867 484.133 451.334 483.466C447.601 482.8 446.534 483.066 448.001 484C451.467 486.266 458.134 485.466 463.201 482C465.867 480.133 468.801 478.666 469.601 478.666C471.601 478.666 468.001 482.666 463.334 485.6C458.534 488.533 459.867 488.8 465.201 486C469.334 483.866 478.668 473.733 478.668 471.466C478.668 470.666 477.334 472 475.868 474.266C474.268 476.666 472.534 478.666 471.868 478.666C470.134 478.666 470.267 478.133 474.801 470.8C477.068 467.2 478.801 463.6 478.534 462.933C478.268 462.266 476.268 464.666 474.001 468.533Z" fill="black"/>
<path d="M480 464.134C479.067 465.6 478.667 467.2 479.067 467.467C479.333 467.734 480.267 466.534 481.067 464.667C482.933 460.667 482 460.267 480 464.134Z" fill="black"/>
<path d="M198 476.666C195.867 477.733 194.934 478.533 196.134 478.666C197.2 478.666 199.334 477.733 200.8 476.666C203.867 474.266 203.2 474.266 198 476.666Z" fill="black"/>
<path d="M441.067 478.266C442.001 478.666 443.201 478.533 443.601 478.133C444.134 477.733 443.334 477.333 441.867 477.466C440.401 477.466 440.001 477.866 441.067 478.266Z" fill="black"/>
<path d="M172 479.332C172 479.732 174 481.199 176.4 482.666C181.6 485.866 187.733 485.999 191.333 483.066L194 480.932L191.333 481.999C185.333 484.266 182.533 484.132 178 481.466C172.933 478.532 172 478.132 172 479.332Z" fill="black"/>
</svg>
