<svg width="640" height="640" viewBox="0 0 640 640" fill="none" xmlns="http://www.w3.org/2000/svg">
<path d="M86.666 112.001C86.666 112.667 87.3327 113.334 88.1327 113.334C88.7993 113.334 89.066 112.667 88.666 112.001C88.266 111.201 87.5993 110.667 87.1993 110.667C86.9327 110.667 86.666 111.201 86.666 112.001Z" fill="black"/>
<path d="M545.467 115.067C544.533 117.867 544.133 120.534 544.533 120.934C544.933 121.467 545.733 119.867 546.133 117.601C546.667 115.334 547.333 113.467 547.867 113.601C550.267 113.867 552 113.201 552 111.867C552 110.801 551.467 110.801 550.133 111.867C548.667 113.067 548.133 113.067 547.733 111.734C547.333 110.801 546.4 112.267 545.467 115.067Z" fill="black"/>
<path d="M92.1328 115.335C92.2661 117.868 94.5328 122.135 94.5328 120.001C94.5328 118.935 93.9995 117.068 93.3328 116.001C92.6661 114.935 92.1328 114.535 92.1328 115.335Z" fill="black"/>
<path d="M96 119.2C96 119.867 97.6 125.2 99.4667 131.2C101.333 137.2 103.2 142.8 103.467 143.867C103.867 144.934 104.4 145.334 104.8 144.934C105.6 144.134 99.3333 123.067 97.3333 120C96.6667 118.934 96 118.534 96 119.2Z" fill="black"/>
<path d="M540.132 122.268C538.265 126.002 533.332 142.402 533.332 144.402C533.332 146.802 535.732 143.735 536.532 140.402C537.065 138.268 538.399 133.468 539.599 129.468C541.332 123.868 541.999 122.802 542.799 124.802C543.732 127.202 543.865 127.202 543.865 124.668C543.999 119.602 541.865 118.268 540.132 122.268Z" fill="black"/>
<path d="M89.0668 123.334C88.2668 127.334 90.1335 149.601 92.5335 165.334C95.0668 180.934 95.0668 170.801 92.6668 152.667C90.4002 135.734 90.1335 124.001 92.0002 124.001C92.6668 124.001 92.9335 123.067 92.5335 122.001C91.3335 118.934 89.7335 119.601 89.0668 123.334Z" fill="black"/>
<path d="M545.866 121.467C545.466 122.267 545.733 123.467 546.666 124C548.666 125.334 547.733 143.067 544.533 164.934C543.466 172.534 542.666 180 542.933 181.734C543.599 186.8 548.266 152.134 548.933 135.6C549.466 124.934 549.199 120 548.266 120C547.466 120 546.399 120.667 545.866 121.467Z" fill="black"/>
<path d="M94.666 127.334C94.666 128 95.3327 129.6 95.9993 130.667C96.666 131.734 97.3327 132 97.3327 131.334C97.3327 130.534 96.666 129.067 95.9993 128C95.3327 126.934 94.666 126.534 94.666 127.334Z" fill="black"/>
<path d="M530.934 131.601C530.134 132.934 528 139.334 526 146.001C524 152.534 522 158.801 521.6 159.868C521.067 161.201 521.467 161.468 522.534 160.668C529.067 156.668 527.6 180.268 517.867 235.334C515.2 250.001 512.534 266.534 511.734 272.001C509.067 292.934 495.467 358.934 487.867 388.001C477.6 426.935 473.6 439.468 467.467 451.335C458.4 468.935 448.4 476.801 439.467 473.335C437.467 472.668 436.134 472.535 436.667 473.201C437.067 473.868 439.467 475.201 442 476.001C448.534 478.135 454.8 475.735 460.8 468.935C466.134 462.668 478.667 438.268 478.667 434.001C478.667 432.535 480.534 425.601 482.8 418.668C491.734 390.668 508.134 318.401 510.667 296.001C511.334 290.534 514.134 273.068 517.067 257.334C530.267 186.668 533.734 153.068 527.334 155.468C525.867 156.134 526 154.401 528.267 146.401C529.734 141.068 531.6 135.201 532.267 133.468C533.734 129.601 532.667 128.134 530.934 131.601Z" fill="black"/>
<path d="M108.666 140.268C113.466 155.602 113.866 158.135 111.599 156.135C105.332 151.068 107.066 176.402 117.066 234.002C119.332 246.402 122.399 264.402 123.866 274.002C132.666 327.335 147.866 396.135 155.466 417.602C156.532 420.802 157.999 426.268 158.799 429.868C160.399 438.535 170.932 460.402 176.932 467.735C185.066 477.602 194.532 479.468 203.332 472.668C205.466 471.068 204.799 471.068 199.599 472.935C193.599 475.202 193.066 475.202 188.532 472.668C170.266 462.802 155.999 420.802 133.866 311.468C129.866 291.735 126.666 273.735 126.666 271.468C126.666 269.202 124.266 253.868 121.332 237.335C115.066 202.268 111.066 168.935 112.532 163.602C113.199 160.802 113.999 160.002 115.599 160.535C117.066 161.202 117.466 160.802 116.666 159.068C116.132 157.735 114.532 152.535 113.199 147.468C110.799 139.068 107.199 130.668 106.132 130.668C105.866 130.668 106.932 135.068 108.666 140.268Z" fill="black"/>
<path d="M95.0658 136.801C92.6658 143.068 104.799 225.068 119.866 304.001C121.466 311.735 123.599 323.735 124.666 330.668C132.133 376.135 143.599 422.001 154.133 448.135C156.666 454.535 158.666 460.535 158.666 461.468C158.666 465.335 168.266 478.135 173.333 481.068C179.733 484.668 187.466 484.801 191.999 481.335L195.333 478.801L189.333 480.935C183.466 483.068 182.933 483.068 177.199 480.135C166.933 474.935 161.733 465.068 149.866 427.335C141.466 400.668 128.666 346.535 126.666 329.335C125.999 323.868 122.533 302.801 118.666 282.668C104.799 208.135 98.2658 163.201 98.9325 146.801C99.1992 138.668 98.9325 135.468 97.7325 135.068C96.7992 134.668 95.5992 135.468 95.0658 136.801Z" fill="black"/>
<path d="M539.199 136.4C538.799 137.467 539.199 139.867 539.866 141.867C542.799 149.333 536.666 191.2 515.332 310C506.932 357.467 504.932 366.933 499.199 390C492.532 417.467 486.266 438.267 481.866 447.733C480.132 451.6 478.666 455.733 478.666 456.933C478.666 459.2 472.132 470.933 468.399 475.467C464.266 480.267 456.266 483.2 451.066 481.6C446.666 480.267 444.666 481.6 448.799 483.2C453.066 484.8 460.266 483.867 465.332 481.067C469.999 478.267 478.666 467.333 478.666 464.133C478.666 463.333 480.666 457.733 483.199 451.733C491.066 432.533 504.666 382.933 509.199 356.667C512.666 336.4 516.666 314.667 520.799 292C538.532 197.333 546.666 134.667 541.332 134.667C540.532 134.667 539.599 135.467 539.199 136.4Z" fill="black"/>
<path d="M517.066 150.934C513.733 156.4 511.733 161.867 510.533 169.334C509.866 173.334 508.133 178.267 506.666 180.4C504.133 183.734 504.133 184.267 505.999 186.134C508.666 188.934 508.666 204.534 505.866 223.6C502.666 245.867 492.533 299.2 485.733 329.334C482.399 344.4 479.066 360.267 478.399 364.667C477.866 369.067 476.133 376.534 474.799 381.334C473.333 386.134 470.533 395.334 468.666 401.867C460.133 430.8 448.799 453.734 439.999 460.267C436.266 462.934 430.799 463.6 424.666 462.134L420.666 461.2L423.999 463.2C429.333 466.4 436.533 467.067 440.933 464.934C446.266 462.134 455.733 449.2 460.666 438C465.199 427.734 475.599 396.267 477.333 387.334C478.133 382.934 480.666 371.867 482.666 362.667C491.599 324.134 502.399 271.467 507.999 238.934C510.799 222.8 513.199 187.067 511.866 182.134C510.399 176.934 512.533 166.4 517.333 155.2C520.266 148.4 520.133 146.134 517.066 150.934Z" fill="black"/>
<path d="M120 149.601C120 150.135 121.467 155.068 123.333 160.535C125.2 166.001 126.667 172.401 126.667 174.935C126.533 209.068 126.933 217.601 130 235.201C137.067 276.935 148.533 333.335 155.333 360.268C157.2 367.335 158.667 374.668 158.667 376.668C158.667 387.868 177.2 439.468 185.333 451.201C188.267 455.335 190.667 459.201 190.667 459.868C190.667 461.601 200.8 466.668 204.133 466.668C207.867 466.668 219.467 461.601 218.267 460.535C217.867 460.135 216.4 460.401 214.933 461.201C213.333 462.001 209.733 462.668 206.8 462.668C202.4 462.668 200.267 461.735 196 457.868C193.067 455.201 190.667 452.268 190.667 451.335C190.667 450.268 189.867 448.668 188.8 447.735C181.867 440.801 162.133 381.335 158.667 357.335C158 352.535 156.267 343.201 154.667 336.668C143.333 287.201 132.133 224.668 131.067 204.001C130.4 190.535 130.533 188.268 132.533 186.268C134.667 184.268 134.667 183.868 132 180.401C130.533 178.268 128.533 172.801 127.467 168.001C126 160.668 120.267 146.535 120 149.601Z" fill="black"/>
<path d="M500.8 172.4C498.4 175.867 492 191.733 492 193.733C492 196.667 497.2 190.133 498.133 186.267C498.533 184 500.133 179.467 501.6 176.133C504.4 169.6 504 167.467 500.8 172.4Z" fill="black"/>
<path d="M136 171.333C136.267 174.666 142.667 191.2 144.533 193.066C147.467 196 147.2 193.866 143.467 184.266C140.4 176.4 136 168.666 136 171.333Z" fill="black"/>
<path d="M95.3317 190.668C97.0651 213.868 126.265 376.801 126.532 364.801C126.665 362.801 124.665 350.801 122.132 338.134C117.865 316.801 109.998 272.534 99.3317 209.334C96.7984 194.268 95.0651 185.868 95.3317 190.668Z" fill="black"/>
<path d="M541.333 193.6C541.333 196.533 532.266 251.6 524.666 295.333C522.799 306.267 518.799 327.2 515.866 341.867C510.666 368.533 508.799 383.733 513.466 362.667C518.533 339.067 525.599 300.933 535.333 242.933C541.599 205.867 543.599 190.667 542.133 190.667C541.733 190.667 541.333 192 541.333 193.6Z" fill="black"/>
<path d="M481.065 194.268C479.999 195.601 478.665 197.868 478.265 199.334C477.999 200.801 476.665 204.268 475.465 206.934C474.265 209.734 473.865 212.001 474.532 212.001C475.332 212.001 476.265 211.334 476.665 210.668C478.399 207.868 481.199 209.468 482.799 214.268C487.199 227.734 477.065 293.601 460.265 360.001C442.399 430.534 431.732 451.068 413.332 451.068H407.332L411.332 452.801C422.932 457.868 434.532 450.534 442.532 432.801C454.399 406.934 472.932 337.468 479.999 292.668C480.799 287.468 483.332 273.068 485.599 260.668C490.399 233.734 491.465 206.934 487.865 203.334C485.999 201.468 485.465 201.468 482.265 204.001C477.999 207.334 477.732 206.268 481.332 198.134C484.132 191.468 484.132 190.801 481.065 194.268Z" fill="black"/>
<path d="M156.666 195.334C157.2 196.801 158.133 200.001 158.666 202.401C159.733 206.534 159.6 206.801 157.466 204.801C154.266 201.868 151.066 202.134 149.333 205.201C146.266 211.068 148.266 236.001 154.666 270.001C156.133 278.001 158 289.201 158.666 294.668C161.333 317.601 185.2 410.934 189.466 415.201C190.133 416.001 190.666 417.868 190.666 419.468C190.666 421.068 193.066 427.201 196 433.068C201.6 444.134 209.466 452.668 215.6 454.134C219.733 455.201 226.933 453.734 230.133 451.201C232.533 449.334 232.533 449.201 229.333 450.268C220.666 452.801 211.733 448.534 205.466 438.801C200.8 431.601 190.666 408.134 190.666 404.534C190.666 403.334 188.933 396.534 186.8 389.468C176.666 356.401 160.933 286.534 158.666 264.668C158 258.001 156.8 246.268 155.866 238.401C154.4 224.268 154.933 214.534 157.333 210.668C158.4 208.934 159.066 208.934 161.466 210.401C162.933 211.334 164.4 212.001 164.666 211.734C165.333 211.201 158.133 194.934 156.666 193.734C156.133 193.068 156 193.868 156.666 195.334Z" fill="black"/>
<path d="M264.799 195.6C264.132 196.4 262.132 196.8 256.665 197.2C255.999 197.333 253.199 199.467 250.532 202C247.865 204.533 245.199 206.133 244.665 205.6C244.132 205.067 243.999 205.6 244.265 206.667C244.532 207.733 243.865 208.533 242.932 208.267C242.132 208.133 241.465 208.8 241.599 209.6C241.865 210.533 241.332 211.2 240.532 211.067C239.732 210.933 237.332 212.667 235.199 215.067C233.065 217.333 232.399 218.4 233.732 217.467C236.532 215.333 236.799 217.6 233.999 220C232.932 220.933 231.999 221.2 231.999 220.667C231.999 219.2 226.665 224.133 225.065 227.2C223.999 229.067 224.132 229.467 225.332 228.667C226.399 228 226.799 228.267 226.399 229.467C225.999 230.533 225.065 231.2 224.265 231.067C223.465 230.8 223.065 231.6 223.465 232.667C223.999 233.733 223.599 234.667 222.665 234.667C221.865 234.667 221.599 235.333 221.999 236.133C222.532 236.8 225.065 234.133 227.599 230.133C230.132 226 232.799 222.667 233.332 222.667C233.999 222.667 232.132 226.533 229.065 231.333C224.399 238.667 223.199 239.733 221.465 238.267C219.865 237.067 219.732 237.067 220.532 238.267C221.199 239.467 220.532 240 218.665 240C213.999 240 208.532 246.667 206.799 254.4C203.599 269.333 206.399 300.533 213.865 333.333C215.599 341.067 218.399 353.333 219.999 360.667C229.732 406.4 245.465 434.8 260.532 434.533C263.599 434.533 267.199 434 268.665 433.333C270.799 432.4 270.265 432.133 266.265 432.133C263.465 432 259.865 431.333 258.265 430.4C241.865 421.733 223.332 363.467 215.865 297.333C214.132 282.4 214.932 259.733 217.465 254C220.399 247.333 223.999 242.667 226.399 242.667C227.732 242.667 230.932 239.2 233.732 234.8C236.532 230.4 240.132 225.467 241.732 223.733C243.465 222 248.265 216.667 252.532 211.733C257.865 205.467 262.665 201.6 267.999 198.8L275.865 194.933H270.665C267.865 194.933 265.199 195.2 264.799 195.6ZM263.732 199.733C256.799 203.733 241.465 220.267 232.932 232.933C228.132 240.4 225.332 243.067 225.332 240.533C225.332 240 227.732 236.133 230.665 231.733C233.465 227.467 235.599 223.067 235.199 222.133C234.799 221.2 235.465 219.6 236.665 218.667C239.065 216.667 239.332 214.133 237.065 215.467C235.865 216.133 235.865 215.867 237.199 214.267C238.132 213.067 239.465 212.267 239.999 212.667C240.532 212.933 242.399 211.733 244.132 209.867C248.399 205.333 258.265 197.467 256.799 199.867C255.999 201.067 256.132 201.467 257.465 201.067C258.532 200.667 259.199 199.6 258.932 198.8C258.799 197.867 259.199 197.467 259.999 198C260.665 198.4 262.399 198.133 263.599 197.467C264.932 196.667 266.932 196.133 267.999 196C269.065 196 267.199 197.733 263.732 199.733ZM229.865 224.667C228.665 226.533 227.332 227.733 226.932 227.333C226.265 226.8 230.399 221.333 231.599 221.333C231.865 221.333 231.065 222.8 229.865 224.667Z" fill="black"/>
<path d="M245.333 211.467C240.133 217.067 236.133 221.867 236.533 222.267C236.933 222.8 238.667 221.334 240.267 219.2C241.867 217.067 246.133 212.4 249.6 208.8C253.067 205.2 256 202 256 201.734C256 200.534 254.267 202.134 245.333 211.467Z" fill="black"/>
<path d="M272.532 198.667C267.865 200.934 262.132 205.2 259.198 208.4C245.465 223.867 232.532 240.934 233.732 242.134C233.998 242.534 237.332 238.667 241.065 233.467C244.798 228.4 249.065 222.8 250.665 221.067C252.132 219.467 256.132 214.8 259.598 210.934C263.598 206.4 268.665 202.534 274.132 199.867C278.798 197.467 282.665 195.467 282.665 195.2C282.665 194.134 280.265 194.934 272.532 198.667Z" fill="black"/>
<path d="M356 195.2C356 195.467 359.867 197.467 364.533 199.867C374.267 204.667 382.933 213.467 397.733 233.734C401.333 238.667 404.667 242.534 404.933 242.134C405.867 241.334 395.333 226.934 384.267 214C377.2 205.6 373.333 202.4 366.667 199.067C358.533 194.934 356 194 356 195.2Z" fill="black"/>
<path d="M370.799 198.934C376.532 201.867 381.065 205.601 386.932 212.401C391.465 217.734 396.265 223.201 397.599 224.667C398.932 226.134 402.265 230.801 405.065 234.934C407.999 239.467 410.932 242.667 412.265 242.667C415.332 242.667 420.932 251.201 422.532 258.667C429.332 288.134 409.732 389.734 391.999 417.334C385.599 427.334 379.599 432.001 372.932 432.134L367.332 432.267L372.932 433.601C379.999 435.334 384.132 434.267 389.999 429.201C401.065 419.467 409.865 397.867 419.199 357.334C432.265 301.334 435.732 272.667 431.865 254.401C430.132 246.801 424.665 240.001 420.132 240.001C418.665 240.001 416.799 238.934 416.132 237.601C415.199 236.001 414.799 235.867 414.665 237.201C414.665 238.267 412.399 235.601 409.599 231.201C406.799 226.934 403.465 222.534 402.265 221.467C401.065 220.534 399.999 219.067 399.999 218.267C399.999 216.001 405.332 221.467 410.132 228.667C412.665 232.267 414.665 234.801 414.665 234.267C414.665 233.601 413.199 231.067 411.332 228.401C409.599 225.734 408.399 223.067 408.799 222.401C409.199 221.734 409.065 221.467 408.399 221.601C407.865 221.734 401.865 216.401 395.199 209.601C385.865 200.134 382.532 197.467 380.665 198.134C378.799 198.934 378.532 198.667 379.332 197.334C379.999 196.134 379.865 195.867 378.799 196.534C377.999 197.067 376.532 196.934 375.599 196.134C374.665 195.467 371.465 194.801 368.399 194.934H362.799L370.799 198.934ZM377.065 198.667C382.132 201.734 383.199 202.001 381.865 199.601C380.665 197.601 385.599 201.601 393.732 209.201C397.199 212.534 399.999 215.867 399.999 216.534C399.999 217.334 396.532 214.534 392.265 210.267C387.999 206.134 384.132 202.667 383.599 202.667C383.065 202.667 385.465 205.467 389.065 209.067C398.932 219.067 403.332 224.134 408.532 232.267C413.599 240.267 413.999 241.334 412.132 241.334C411.599 241.334 408.399 237.334 405.065 232.267C397.332 220.934 382.265 204.134 376.399 200.534C371.199 197.201 369.732 196.001 371.465 196.001C372.132 196.001 374.665 197.201 377.065 198.667Z" fill="black"/>
<path d="M279.467 199.334C275.867 201.067 270.267 205.067 267.067 208.267C260.267 214.8 239.467 241.2 240.267 242.134C240.933 242.667 254.667 226.267 254.667 224.934C254.667 224.534 258.933 219.6 264.133 214.134C270.533 207.334 276.267 202.8 281.733 200C286.133 197.867 288.933 196 287.867 196C286.8 196 283.067 197.467 279.467 199.334Z" fill="black"/>
<path d="M357.332 200.134C366.532 205.201 372.132 210.534 385.732 227.601C391.732 235.201 397.066 241.334 397.732 241.334C398.399 241.334 395.732 237.334 391.732 232.267C387.866 227.334 384.132 222.534 383.332 221.467C377.199 213.201 365.199 202.134 359.199 199.334C349.466 194.801 348.399 195.201 357.332 200.134Z" fill="black"/>
<path d="M288.133 198.8C283.466 200.667 245.333 240 248.133 240C248.8 240 254.266 234.8 260.266 228.267C279.066 208.267 287.466 200.533 292.133 199.067C294.933 198.133 295.6 197.6 294 197.6C292.533 197.467 289.866 198.133 288.133 198.8Z" fill="black"/>
<path d="M295.2 200.667C292.266 202.4 286.933 207.6 283.2 212.267C279.6 216.933 270.933 226.4 263.866 233.333C243.6 253.333 241.6 257.867 240.4 287.333C239.466 309.733 241.866 330.267 248.933 361.333C251.466 372.667 254.133 384.533 254.8 387.733C256.533 396.4 263.2 411.467 268.266 418C274 425.467 278.266 428 286.933 428.8L294 429.467L289.2 427.6C275.6 422.4 269.333 412.4 260.933 382.667C251.2 348.4 247.2 292.667 252.533 266C255.733 250.133 258.133 246 278.266 223.333C280.933 220.4 284.4 216 286 213.333C289.6 207.733 295.333 202.4 300.666 199.6C302.933 198.4 303.733 197.467 302.666 197.333C301.6 197.333 298.266 198.8 295.2 200.667Z" fill="black"/>
<path d="M307.866 199.468C299.333 203.868 288.399 225.868 282.799 250.001C273.066 291.201 274.933 344.934 288.133 402.668C290.666 414.268 298.666 425.734 306.933 430.134C312.533 433.068 312.933 432.401 308.266 428.001C301.733 422.134 296.533 409.468 292.799 390.668C287.599 364.134 286.266 344.534 287.066 301.868C287.599 266.801 287.999 261.868 291.199 246.934C295.333 227.734 302.666 208.268 308.133 202.534C312.799 197.601 312.666 196.934 307.866 199.468Z" fill="black"/>
<path d="M326.666 197.734C326.666 198.134 328.399 200.268 330.533 202.534C337.199 209.734 345.599 233.868 349.199 256.668C351.333 270.268 352.133 316.668 350.799 345.334C348.666 389.201 341.599 417.734 330.399 428.001C325.733 432.401 326.133 433.068 331.733 430.134C339.733 425.868 348.533 413.468 350.133 404.001C350.533 401.468 352.266 392.668 353.999 384.668C361.733 348.668 364.133 297.868 359.599 268.668C354.266 235.201 342.266 206.401 330.799 199.601C328.533 198.268 326.666 197.468 326.666 197.734Z" fill="black"/>
<path d="M337.332 199.467C343.332 202 345.865 204.4 352.399 213.333C355.332 217.333 358.399 221.2 359.199 222C361.599 224.267 377.332 242.8 379.465 246C382.932 251.2 386.665 266.8 388.265 282.533C389.732 297.867 388.399 325.733 385.199 342C384.399 345.6 383.332 353.467 382.665 359.334C381.332 371.067 374.799 395.334 369.865 406.4C364.532 418.4 356.932 425.867 347.599 428C343.332 429.067 343.332 429.067 347.065 429.2C355.732 429.467 362.532 426.534 368.532 419.867C373.865 414 382.665 396.4 382.665 391.733C382.665 390.8 384.799 381.6 387.332 371.333C397.599 330.933 401.332 290.4 396.799 268.133C393.865 254.133 390.665 249.067 374.799 233.333C367.732 226.267 358.665 216.533 354.665 211.467C347.599 202.667 339.999 197.333 335.065 197.333C333.732 197.467 334.665 198.267 337.332 199.467Z" fill="black"/>
<path d="M347.733 199.467C352.266 201.467 359.199 207.867 378.399 228.267C384.399 234.8 389.999 240 390.666 240C391.466 240 389.866 237.733 387.066 234.933C384.266 232.133 376.933 224.267 370.666 217.333C359.599 205.2 349.466 197.2 345.466 197.467C344.266 197.467 345.333 198.4 347.733 199.467Z" fill="black"/>
<path d="M318.133 200.8C313.733 214.667 313.999 417.333 318.399 429.333L319.599 432.533L320.533 428.933C323.599 416.667 324.933 286.933 322.666 232.933C321.333 203.867 320.133 194.667 318.133 200.8Z" fill="black"/>
<path d="M456.666 221.334C453.866 224.267 450.266 227.067 448.932 227.467C446.532 228.267 446.532 228.401 449.466 229.867C451.466 230.801 453.199 233.601 454.399 237.334C456.799 245.201 455.732 268.801 451.999 289.334C450.532 297.734 448.399 310.667 447.199 318.001C446.132 325.334 442.799 340.934 439.866 352.534C429.066 395.734 416.932 426.667 407.332 436.001C403.199 440.001 401.599 440.667 395.999 440.667C388.932 440.667 387.332 441.867 392.399 443.201C401.466 445.601 412.132 442.267 415.466 435.867C416.132 434.667 419.199 428.801 422.399 423.067C428.799 411.601 439.599 380.801 443.866 362.001C458.399 297.734 463.066 269.867 463.199 247.734C463.332 230.267 463.199 229.467 460.132 226.134C458.266 224.267 457.466 222.667 458.266 222.667C458.932 222.667 460.266 221.201 461.066 219.334C461.866 217.467 462.399 216.001 462.266 216.001C461.999 216.001 459.599 218.401 456.666 221.334Z" fill="black"/>
<path d="M177.332 218.401C177.332 219.068 178.265 220.401 179.332 221.334C181.198 222.934 181.065 223.468 178.398 226.268C175.465 229.468 175.332 230.401 175.465 249.068C175.732 265.601 176.398 272.534 180.532 293.334C183.065 306.934 186.398 323.068 187.865 329.334C189.332 335.601 190.665 342.268 190.665 344.401C190.665 348.534 196.798 371.334 203.598 392.668C207.598 405.068 212.932 417.334 222.132 434.668C224.798 439.734 232.265 444.134 238.265 444.268C242.532 444.268 250.665 442.134 250.665 441.068C250.665 440.801 247.332 440.668 243.198 440.668C235.865 440.668 235.598 440.534 229.198 433.601C225.598 429.734 222.665 425.601 222.665 424.668C222.665 423.601 220.932 419.334 218.798 415.068C211.598 400.801 197.732 353.068 192.798 326.001C183.465 274.268 181.332 254.934 183.732 241.601C184.665 235.868 186.132 232.001 187.732 230.668C190.132 228.668 189.865 228.401 183.732 222.801C180.265 219.734 177.332 217.734 177.332 218.401Z" fill="black"/>
<path d="M126.8 374.001C126.667 379.068 138.533 426.668 144 443.068C146.4 449.868 151.2 461.468 154.8 469.068C160 479.868 162.533 483.468 166.933 486.668C173.067 491.201 180.4 492.001 184.8 488.668C187.867 486.401 186.8 486.134 181.867 488.001C176.533 490.134 171.333 488.401 165.467 482.934C154.933 472.934 141.067 432.668 127.6 372.668C127.2 370.934 126.933 371.334 126.8 374.001Z" fill="black"/>
<path d="M505.865 394.667C489.465 464.8 473.865 494.533 456.799 488C451.865 486.133 451.065 486.267 454.132 488.667C459.999 493.067 470.532 490.133 476.532 482.267C481.465 475.867 489.732 457.6 495.065 441.333C501.065 423.2 510.932 383.467 510.399 379.6C510.132 378 508.132 384.8 505.865 394.667Z" fill="black"/>
<path d="M154.666 477.867C154.666 478.134 155.733 479.201 157.066 480.134C159.066 481.867 159.199 481.734 157.466 479.601C155.733 477.467 154.666 476.801 154.666 477.867Z" fill="black"/>
<path d="M480.666 480.001C479.332 481.468 478.532 482.935 478.799 483.201C479.066 483.468 480.399 482.268 481.732 480.535C484.666 476.668 483.999 476.268 480.666 480.001Z" fill="black"/>
<path d="M158.666 484.401C158.666 484.668 160.666 486.535 163.066 488.801L167.333 492.668L163.466 488.268C159.733 484.268 158.666 483.335 158.666 484.401Z" fill="black"/>
<path d="M475.867 487.601C474.8 488.801 472.267 490.534 470 491.467C467.6 492.534 466.933 493.201 468.267 493.334C470.4 493.334 480.533 485.467 478.533 485.334C478 485.334 476.8 486.267 475.867 487.601Z" fill="black"/>
</svg>
