<svg width="640" height="640" viewBox="0 0 640 640" fill="none" xmlns="http://www.w3.org/2000/svg">
<path d="M546.132 144.267C542.799 153.867 542.266 156.4 543.866 155.467C544.666 154.933 545.332 153.6 545.332 152.533C545.332 151.467 545.999 150.667 546.932 150.667C548.666 150.667 547.732 167.733 544.666 192.533C543.466 201.6 542.666 210.8 542.932 212.933C543.199 214.933 544.666 205.6 546.399 192C549.732 165.067 550.266 145.867 547.866 147.467C546.532 148.267 546.799 146.133 548.932 140.267C549.332 139.467 549.332 138.667 548.932 138.667C548.532 138.667 547.332 141.2 546.132 144.267Z" fill="black"/>
<path d="M91.4663 145.2C91.9996 148 91.8663 149.333 90.9329 148.8C90.2663 148.4 89.1996 148.933 88.7996 150C87.9996 152.133 91.1996 187.733 93.1996 199.333C95.1996 210.8 94.7996 198.8 92.6663 180.666C90.3996 162.133 90.1329 150.666 91.8663 150.666C92.5329 150.666 93.4663 151.733 93.8663 152.933C94.2663 154.266 94.2663 152.933 93.8663 150C93.4663 147.066 92.5329 143.733 91.8663 142.666C90.9329 141.333 90.7996 142.133 91.4663 145.2Z" fill="black"/>
<path d="M94.666 145.334C94.666 145.734 95.5993 149.334 96.666 153.334C97.7327 157.334 98.666 160.801 98.666 160.934C98.666 161.201 97.866 161.201 97.066 160.934C94.3993 160.534 95.3327 182.134 99.3327 210.534C103.866 243.334 115.999 316.267 121.999 346.267C124.533 359.334 126.666 371.734 126.666 373.601C126.666 381.334 139.733 431.467 146.666 450.401C156.666 477.867 165.199 489.334 175.733 489.334C180.133 489.334 188.799 485.734 187.599 484.401C187.199 484.134 185.733 484.401 184.266 485.201C182.666 486.001 179.466 486.667 176.933 486.667C171.066 486.667 162.399 480.001 159.466 473.334C150.533 452.267 145.866 439.734 141.866 426.001C135.999 405.734 126.666 364.801 126.666 359.867C126.666 357.734 125.199 348.534 123.333 339.467C111.599 280.534 98.666 193.734 98.666 174.134C98.666 164.534 98.7993 163.867 100.799 165.467C103.333 167.467 103.466 168.267 99.066 154.001C97.3327 148.534 94.666 143.201 94.666 145.334Z" fill="black"/>
<path d="M539.467 154.267C535.334 168.134 535.334 167.467 537.601 165.601C539.334 164.267 539.734 164.401 540.401 166.934C542.667 175.467 532.267 248.668 517.334 329.334C515.201 340.668 512.934 352.668 512.134 356.001C511.334 359.334 510.667 364.001 510.667 366.401C510.667 375.201 497.601 426.668 490.534 445.734C482.534 467.468 477.201 477.868 471.601 482.401C466.001 486.934 459.601 488.001 454.401 485.201C452.934 484.401 451.467 484.134 451.067 484.401C450.667 484.801 452.267 486.134 454.534 487.201C462.534 491.468 470.934 489.201 477.334 481.068C481.201 476.001 489.601 457.601 494.534 443.334C500.001 427.201 508.801 391.868 510.667 379.068C511.467 373.334 513.467 361.468 515.334 352.668C528.801 284.934 541.067 205.601 542.267 178.134C542.934 163.067 542.667 159.867 541.334 160.667C540.001 161.467 539.734 161.201 540.401 159.467C541.734 156.267 543.201 146.667 542.401 146.667C542.134 146.667 540.801 150.134 539.467 154.267Z" fill="black"/>
<path d="M531.6 158.933C528.266 163.999 524.133 181.999 525.733 184.666C528.133 189.066 525.6 211.733 515.333 277.333C505.466 339.333 493.6 395.199 483.333 426.533C480.8 434.399 478.666 441.466 478.666 442.399C478.666 443.199 476.133 449.066 473.2 455.199C467.6 466.666 458.666 477.333 454.8 477.333C453.6 477.333 451.733 477.999 450.666 478.799C449.2 479.866 450.533 479.999 455.333 479.333C459.866 478.666 463.2 477.333 465.6 475.066C469.733 471.066 478.666 454.799 478.666 451.066C478.666 449.733 479.2 447.999 479.866 447.199C484.4 442.666 504.666 363.599 509.333 332.666C510.266 326.799 513.6 306.399 516.8 287.333C528.533 217.733 532.933 180.266 529.6 178.133C528.266 177.333 530.933 164.533 533.6 159.599C535.6 155.866 533.866 155.333 531.6 158.933Z" fill="black"/>
<path d="M105.2 159.599C107.866 164.399 110.533 176.666 109.333 177.866C105.866 181.333 109.466 214.533 119.466 272.933C122.8 292.666 126.133 313.333 126.8 318.933C128.133 330.533 137.866 376.666 143.733 399.999C149.866 423.733 159.6 452.799 164.8 462.666C171.066 474.666 175.066 478.266 183.333 479.333C188.133 479.999 189.466 479.866 188 478.799C186.933 477.999 185.066 477.333 183.866 477.333C180 477.333 170.666 465.599 164.666 453.066C161.333 446.399 158.666 439.999 158.666 439.066C158.666 437.999 156.266 429.199 153.333 419.599C150.533 409.866 146.266 394.533 144.133 385.333C138.266 360.799 126.666 302.666 126.666 297.866C126.666 295.599 124.933 283.333 122.8 270.533C114.266 220.666 110.666 188.799 113.066 184.533C114 182.933 113.466 179.066 111.333 171.199C108.133 159.333 107.2 157.333 105.2 157.333C104.4 157.333 104.4 158.266 105.2 159.599Z" fill="black"/>
<path d="M517.999 173.734C515.999 176.934 510.666 191.334 510.666 193.867C510.666 194.667 511.466 194.4 512.533 193.334C514.399 191.467 521.733 170.667 520.533 170.667C520.266 170.667 519.199 172 517.999 173.734Z" fill="black"/>
<path d="M119.466 174.666C120 176.532 121.2 180.932 122.133 184.532C123.866 191.199 126.666 195.732 126.666 191.866C126.666 188.132 122.8 176.666 120.666 173.999C118.533 171.466 118.533 171.466 119.466 174.666Z" fill="black"/>
<path d="M134.933 192.134C135.466 193.467 136.533 197.067 137.466 200.134C139.066 205.734 144 212.934 144 209.734C144 206.401 138.533 193.467 136.4 191.734C134.533 190.267 134.266 190.267 134.933 192.134Z" fill="black"/>
<path d="M500.8 193.467C498.266 197.201 494.133 209.201 495.066 210.267C496.8 211.867 498.666 208.667 501.2 200.401C504.133 190.667 504 188.934 500.8 193.467Z" fill="black"/>
<path d="M257.866 193.2C256.533 193.467 253.866 194.8 252.133 196.134C250.4 197.467 248.4 198.267 247.466 197.734C246.666 197.334 246.4 197.334 246.933 198C248.133 199.2 245.733 202.667 243.733 202.667C243.066 202.667 242.933 201.867 243.466 200.934C244 200.134 242.133 201.467 239.466 204C234 209.067 221.066 225.2 223.733 223.467C224.666 222.934 225.333 223.067 225.333 223.867C225.333 224.534 224.4 225.734 223.2 226.4C222 227.067 221.6 228 222.266 228.4C222.933 228.8 225.866 226.134 228.8 222.267C235.6 213.067 248 200 249.866 200C250.666 200 248.133 203.2 244.533 206.934C240.8 210.8 234.533 218.134 230.666 223.334C224.133 232 218.666 236.134 220.666 230.934C222.133 226.8 219.066 231.067 214.533 239.2C212.133 243.6 210.8 246.8 211.6 246.267C212.4 245.734 213.333 246.134 213.733 246.934C214 247.867 215.866 245.467 217.866 241.467C220.133 237.067 222 234.8 222.533 235.867C223.2 236.8 224.533 235.467 226.4 232.267C230.8 224.4 244.666 207.867 252.4 201.467C256.133 198.134 258.266 195.867 257.066 196.4C255.733 196.8 254.666 196.667 254.666 196.134C254.666 195.467 256.8 194.934 259.333 195.067C261.866 195.2 264.533 194.667 265.333 193.867C266.533 192.667 262.8 192.267 257.866 193.2ZM254 198.667C253.6 199.334 252.533 200 251.866 200C251.066 200 250.933 199.334 251.333 198.667C251.733 197.867 252.8 197.334 253.466 197.334C254.266 197.334 254.4 197.867 254 198.667ZM236 210.934C232.133 215.6 228.666 220 228.4 220.934C228 221.867 227.066 222.667 226.4 222.667C224.8 222.667 230.533 214.667 237.2 207.6C244.266 200.134 243.733 201.6 236 210.934ZM217.2 239.867C215.6 242.934 214 245.067 213.6 244.8C213.333 244.4 214.4 241.734 216.133 238.8C217.733 235.734 219.333 233.6 219.733 233.867C220 234.267 218.933 236.934 217.2 239.867Z" fill="black"/>
<path d="M269.333 193.333C269.333 194 267.2 195.2 264.533 196C258.533 198 252.533 203.333 242.8 215.2C233.6 226.533 222.4 243.733 222.933 245.6C223.2 246.4 226.266 242.266 229.866 236.533C241.333 218 254.933 202.666 264.266 197.866C273.733 193.066 276.533 194.133 267.466 199.066C261.866 202 257.6 205.733 253.466 211.2C250 215.6 246.266 220.266 244.933 221.6C243.6 223.066 238.933 229.6 234.533 236.4C227.466 247.2 226 248.666 222.533 248.666C218.133 248.8 217.866 248.266 220.666 244.533C221.733 243.2 222.533 241.066 222.533 240C222.533 238.933 221.2 240.133 219.6 242.8C218 245.466 214.8 249.2 212.4 251.2C209.2 253.866 207.733 256.533 206.533 262.4C203.333 278.133 207.866 316.8 218.133 360.666C227.066 398.933 233.066 414.8 242.933 426C249.066 432.933 254.533 435.066 261.733 433.466C268.8 431.733 269.333 430.8 262.933 430.933C256.133 430.933 251.733 427.733 245.066 417.6C235.333 402.933 225.6 369.2 219.333 328.4C211.733 278.8 213.866 254.133 226.133 250.133C227.466 249.733 232.133 244 236.4 237.466C240.666 231.066 245.866 223.6 248.133 221.2C250.4 218.666 253.066 215.066 254.133 213.2C257.066 207.6 266.4 200.266 273.866 197.866C277.6 196.666 281.333 195.066 282 194.4C282.8 193.6 282.533 193.466 281.066 194C279.866 194.533 276.8 194.266 274.133 193.6C271.466 192.8 269.333 192.666 269.333 193.333Z" fill="black"/>
<path d="M364.666 193.467C362.533 194.134 359.466 194.267 358 193.867C352.666 192.134 357.466 195.201 363.866 197.467C372.266 200.401 379.066 205.601 384.133 212.934C386.4 216.134 389.6 220.134 391.2 222.001C392.933 223.867 397.866 230.667 402 237.067C406.8 244.401 411.6 249.867 414.8 252.001C422.266 256.667 423.333 260.934 423.2 286.001C423.066 302.934 422.266 311.467 419.466 327.334C417.466 338.267 415.2 351.467 414.533 356.534C411.733 375.334 401.2 406.267 393.6 417.601C387.466 427.067 382.533 430.934 376.666 431.067C371.2 431.201 372.266 432.934 378 433.334C385.866 433.867 388 433.334 392.533 429.201C403.466 419.601 410.533 402.534 419.866 362.667C427.6 329.601 430.533 312.667 432.266 291.601C434.4 267.467 432.8 257.201 426.4 251.467C424 249.334 420.4 244.801 418.4 241.467C416.4 238.134 414.666 236.134 414.666 236.934C414.666 237.867 415.866 240.534 417.333 242.934C420.4 247.867 420.666 249.334 418.533 249.334C417.866 249.334 416.266 247.067 415.2 244.401C410.8 234.134 390 206.001 384.266 202.801C383.066 202.134 382.4 201.201 382.933 200.667C385.2 198.401 403.733 217.867 410.933 230.134C413.6 234.801 414.666 235.601 414.666 233.467C414.666 231.467 401.733 214.801 394.133 206.934C390.533 203.201 388 200.001 388.8 200.001C390.4 200.001 401.733 211.601 408.8 220.667C413.866 227.201 418 230.001 416.533 226.001C416 224.934 415.066 224.401 414.266 224.934C413.466 225.467 413.2 224.934 413.6 223.734C414.133 222.667 413.066 220.267 411.6 218.534C410 216.667 409.2 216.001 409.866 216.934C410.533 218.001 410.8 219.067 410.4 219.334C409.733 220.134 401.333 210.001 401.333 208.534C401.333 208.001 402.933 208.934 405.066 210.801L408.666 214.001L405.466 210.401C403.733 208.401 401.6 206.934 400.8 207.067C400 207.201 399.466 206.667 399.6 205.867C399.733 204.934 398.666 203.201 397.066 201.867C395.466 200.401 394.666 200.134 395.2 200.934C396.533 203.334 394 203.067 392 200.667C388.666 196.667 381.466 193.067 379.2 194.401C377.2 195.467 377.2 195.734 379.333 196.534C380.533 196.934 382.133 197.067 382.8 196.667C383.466 196.134 383.6 196.801 383.2 197.867C382.533 199.467 381.466 199.334 376.266 197.067C372.8 195.467 369.733 193.867 369.333 193.334C368.933 192.801 366.933 192.934 364.666 193.467ZM374.4 197.867C381.066 201.334 387.466 207.601 397.866 220.534C408.8 234.267 418.266 252.134 412.533 248.267C411.866 247.734 407.733 242.001 403.466 235.334C399.2 228.801 394.933 222.801 394 222.001C393.2 221.334 389.333 216.667 385.6 211.867C380.8 205.734 376.533 201.867 371.066 198.934C362.133 194.001 365.066 193.067 374.4 197.867ZM387.333 198.667C387.733 199.334 387.6 200.001 386.8 200.001C386.133 200.001 385.066 199.334 384.666 198.667C384.266 197.867 384.4 197.334 385.2 197.334C385.866 197.334 386.933 197.867 387.333 198.667ZM412.666 221.334C413.066 222.001 412.8 222.667 412.133 222.667C411.333 222.667 410.666 222.001 410.666 221.334C410.666 220.534 410.933 220.001 411.2 220.001C411.6 220.001 412.266 220.534 412.666 221.334Z" fill="black"/>
<path d="M372.933 193.467C373.866 194.4 374.933 194.8 375.333 194.4C375.733 194 375.066 193.2 373.733 192.8C371.866 192 371.733 192.134 372.933 193.467Z" fill="black"/>
<path d="M350.666 195.334C350.666 195.734 353.866 197.467 357.866 199.201C367.866 203.601 374.533 210.134 386.799 227.467C392.666 235.601 399.066 243.734 400.933 245.467C405.599 249.734 403.866 246.934 391.999 230.667C377.066 210.001 369.999 202.934 360.399 198.401C351.733 194.534 350.666 194.134 350.666 195.334Z" fill="black"/>
<path d="M276.665 199.201C270.399 202.134 258.932 213.068 252.665 222.134C243.865 234.934 235.465 246.001 234.532 246.401C233.865 246.668 233.332 247.601 233.332 248.401C233.332 251.068 241.199 242.268 250.132 229.734C263.332 211.201 269.732 204.668 279.065 200.001C283.599 197.868 286.399 196.001 285.332 196.001C284.265 196.001 280.399 197.468 276.665 199.201Z" fill="black"/>
<path d="M287.334 198.799C284.401 200.399 280.401 202.933 278.401 204.533C273.734 208.133 256.401 228.799 253.867 233.466C252.934 235.466 249.601 239.199 246.401 241.866C243.334 244.533 241.334 246.666 241.867 246.666C244.401 246.666 251.067 240.533 256.934 232.933C270.934 214.666 282.134 203.066 289.867 199.466C293.601 197.599 295.734 196.133 294.667 195.999C293.601 195.999 290.267 197.333 287.334 198.799Z" fill="black"/>
<path d="M343.201 197.199C343.734 197.999 345.067 198.666 346.134 198.666C349.201 198.666 357.601 204.533 362.667 210.133C374.001 222.933 380.534 230.799 382.667 234.399C385.201 238.533 394.401 246.666 396.667 246.666C397.334 246.666 395.601 244.799 392.801 242.399C390.001 240.133 386.001 235.733 384.134 232.666C377.467 222.266 363.334 206.533 356.534 201.999C349.467 197.199 341.467 194.399 343.201 197.199Z" fill="black"/>
<path d="M126.133 200.933C122.533 217.733 138.133 314 155.466 382.933C157.2 390 158.666 397.067 158.666 398.533C158.666 401.333 167.2 428.133 171.333 438.667C174.933 447.6 183.466 460.667 188.8 465.2C194.133 469.867 199.2 470.533 206.133 467.2C211.6 464.533 213.6 462.133 208.666 464C203.6 465.867 197.066 465.6 193.866 463.333C188.4 459.6 178.666 443.2 173.2 428.667C167.466 413.6 158.666 383.333 158.666 378.667C158.666 377.333 157.466 370.8 155.866 364.4C147.6 328.8 136.266 268 132.533 238.667C130.266 220.667 130.133 204.533 132.133 203.333C133.066 202.667 132.666 201.467 131.2 199.867C128.133 196.4 127.066 196.667 126.133 200.933Z" fill="black"/>
<path d="M294.133 200.534C291.199 202.267 286.666 206.667 284.133 210.4C278.266 218.4 270.799 227.6 262.533 236.667C242.399 258.4 240.666 263.467 240.799 298.667C240.933 326 243.733 347.867 250.799 374C252.399 379.867 254.133 387.467 254.666 390.8C256.399 400.534 263.199 414 269.733 420.4C274.933 425.6 276.666 426.534 284.666 427.867C295.199 429.734 297.866 428.8 288.666 426.534C276.399 423.467 268.133 411.467 260.933 386C251.066 351.867 247.066 295.067 252.533 268.8C255.333 255.2 256.933 252.267 269.999 234.8C275.066 228 280.933 220.134 282.933 217.467C284.933 214.8 286.533 212 286.666 211.2C286.666 209.067 293.599 202.934 299.333 200.134C303.066 198.267 303.866 197.467 301.999 197.334C300.533 197.334 296.933 198.8 294.133 200.534Z" fill="black"/>
<path d="M307.2 199.866C301.333 203.466 286.667 228.799 286.667 235.333C286.667 236.533 285.2 242.666 283.467 249.066C278.4 267.199 276.8 282.399 276.933 310.666C277.067 341.866 280.533 371.199 288.133 403.866C290.667 414.933 301.733 429.066 309.6 431.066C311.867 431.733 311.467 431.066 308 427.599C299.467 419.333 294.4 404.799 289.867 375.999C286.933 357.333 285.733 286.666 288 268.266C291.6 238.933 300.133 211.066 308.133 202.533C312.933 197.466 312.533 196.666 307.2 199.866Z" fill="black"/>
<path d="M326.667 197.868C326.667 198.134 328.4 200.268 330.533 202.534C337.067 209.468 344.667 231.201 348.8 254.668C352.133 272.934 352 354.001 348.8 375.334C344.267 404.801 339.333 419.068 330.4 427.868L326 432.268L331.333 429.601C334.267 428.134 338.267 425.201 340.267 423.068C344.533 418.668 350.667 406.668 350.667 402.934C350.667 401.601 352.133 393.868 353.867 385.868C359.2 362.134 361.6 338.001 361.6 308.668C361.6 279.734 359.867 265.068 354 244.934C352.133 238.534 350.667 232.668 350.667 231.734C350.667 229.468 344.133 216.134 339.2 208.401C336.8 204.534 332.933 200.534 330.667 199.334C328.533 198.268 326.667 197.468 326.667 197.868Z" fill="black"/>
<path d="M339.199 199.999C344.932 202.799 350.666 207.733 350.666 209.599C350.666 210.799 353.332 214.533 368.799 234.666C379.599 248.799 381.866 252.933 384.399 261.999C389.866 281.733 390.399 308.933 385.866 339.999C384.666 347.733 383.199 358.399 382.666 363.866C381.999 369.333 379.866 379.199 377.866 385.866C370.266 411.999 362.666 422.933 349.199 427.066L341.999 429.199L349.332 428.399C353.332 427.999 359.066 426.666 362.132 425.333C370.932 421.599 379.732 408.266 382.532 394.399C383.199 391.199 385.599 381.733 387.732 373.333C395.199 344.799 397.732 325.733 397.866 299.333C397.999 264.266 396.532 259.599 378.399 239.199C366.132 225.333 362.932 221.599 355.599 211.999C348.799 203.066 341.332 197.333 336.666 197.333C334.799 197.466 335.599 198.266 339.199 199.999Z" fill="black"/>
<path d="M507.466 199.867C505.733 201.734 505.599 202.667 506.799 203.334C511.599 206.401 502.666 272.934 488.666 337.867C486.933 346.001 483.999 360.134 481.999 369.334C471.599 418.134 461.866 444.001 447.999 460.267C443.599 465.334 442.533 465.867 437.599 465.734C434.533 465.601 430.933 464.801 429.333 464.001C427.866 463.201 426.666 462.934 426.666 463.201C426.666 464.801 437.599 469.334 441.333 469.334C446.933 469.334 456.533 459.601 462.933 447.334C468.266 436.934 478.666 407.201 478.666 402.401C478.666 400.667 479.866 394.801 481.466 389.334C486.133 372.267 495.466 329.334 501.866 294.667C511.066 244.401 515.466 197.334 510.666 197.334C510.133 197.334 508.666 198.534 507.466 199.867Z" fill="black"/>
<path d="M318.133 200.8C313.733 214.667 313.999 417.333 318.399 429.333L319.599 432.533L320.533 428.933C323.599 416.667 324.933 286.933 322.666 232.933C321.333 203.867 320.133 194.667 318.133 200.8Z" fill="black"/>
<path d="M481.733 212.4C480.267 214 478.667 216.534 478.4 218C478 219.467 477.2 221.867 476.533 223.334C475.6 225.734 475.733 225.867 477.867 224.134C482 220.667 483.333 224.267 483.333 239.067C483.333 281.334 461.6 384.934 443.2 430.267C437.067 445.067 426.133 454.534 416.933 452.667C412.933 451.867 412.8 452 415.2 454C418.533 456.534 426.933 456.534 431.867 454C437.333 451.2 445.2 441.6 446.667 435.867C447.467 433.2 449.733 426.667 452 421.334C459.333 403.467 471.867 356.934 476.533 330C489.733 254.267 492.533 231.734 489.867 221.6C488.933 218.4 485.467 217.734 482.933 220.267C480.267 222.934 480.133 220.8 482.8 215.467C485.733 209.2 485.467 208.267 481.733 212.4Z" fill="black"/>
<path d="M154.667 211.199C154.667 211.733 155.601 214.133 156.534 216.666C158.401 220.799 157.334 223.333 155.334 219.999C153.867 217.599 149.601 218.666 148.801 221.599C146.134 231.866 150.001 264.399 161.601 327.999C165.601 350.399 176.401 392.666 182.534 409.733C185.334 417.999 188.534 426.799 189.334 429.333C194.001 442.533 199.467 450.266 206.801 454.133C212.001 456.799 220.001 456.399 224.001 453.333L227.334 450.799L222.401 452.266C218.134 453.599 216.934 453.333 211.601 450.133C200.534 443.733 195.601 434.533 185.601 400.666C167.867 341.466 155.334 273.599 155.334 237.066C155.334 224.533 156.801 220.799 160.667 223.999C161.867 225.066 162.667 225.066 162.667 224.266C162.667 223.466 162.134 222.533 161.467 221.999C160.801 221.599 159.867 219.599 159.334 217.466C158.667 213.999 154.667 208.799 154.667 211.199Z" fill="black"/>
<path d="M94.7988 215.867C94.3988 230 125.065 407.2 126.399 397.867C126.665 396.4 124.399 382.933 121.332 367.867C114.532 333.467 105.599 281.333 96.7988 223.333C95.7321 216.667 94.9321 213.333 94.7988 215.867Z" fill="black"/>
<path d="M537.6 251.333C531.6 291.199 522.4 343.333 516 374.666C513.067 388.933 510.667 401.866 510.8 403.333C510.934 406.933 512.267 401.466 518.534 370.666C528.134 323.999 543.334 231.333 542.4 225.066C542.134 223.333 540 235.199 537.6 251.333Z" fill="black"/>
<path d="M176 230.266C176 231.066 176.933 232.8 178.133 233.866C180 235.733 180 236.266 178.133 238C171.6 244.533 174.266 277.466 185.6 330.666C187.866 341.333 190.133 353.333 190.666 357.333C192.933 373.466 204.133 408.533 211.866 423.2C221.866 442.4 228.266 447.2 239.6 444.133C247.333 442 247.866 440.133 240.666 440.933C230.8 442.133 226.933 438.666 218.266 420.933C208.266 400.666 193.733 351.866 191.2 330.133C190.8 326.4 188.933 314.266 187.2 303.066C181.466 267.6 181.6 244 187.466 241.733C189.866 240.8 189.866 238.666 187.466 238.666C186.4 238.666 183.333 236.4 180.8 233.6C178.133 230.933 176 229.333 176 230.266Z" fill="black"/>
<path d="M414.666 229.867C414.666 231.334 424.533 248.001 425.066 247.334C425.333 247.067 423.333 243.067 420.666 238.401C415.333 229.334 414.666 228.401 414.666 229.867Z" fill="black"/>
<path d="M458.266 233.333C456.399 235.6 453.199 238 451.066 238.8C447.466 240.267 447.466 240.267 450.266 241.333C453.999 242.8 455.999 249.867 455.999 261.6C455.999 272.267 452.666 298.8 449.199 315.867C447.866 322.667 446.666 330.267 446.666 332.533C446.666 337.867 437.466 375.6 431.866 393.067C429.599 400.133 424.533 412.667 420.533 420.667C412.133 437.467 408.133 441.333 398.533 441.467H392.666L397.999 443.467C405.466 446.267 411.066 444.933 416.666 438.933C427.733 427.2 441.466 390.667 447.866 356C448.666 352 450.799 341.467 452.666 332.667C461.066 294.4 465.599 256.533 463.466 244.933C462.933 242.267 461.599 239.067 460.399 237.867C459.199 236.667 458.799 235.333 459.466 234.933C460.133 234.4 461.466 232.933 462.533 231.6C465.733 227.6 461.733 229.2 458.266 233.333Z" fill="black"/>
<path d="M126.799 405.6C126.532 412.933 139.466 456.667 146.266 471.333C149.599 478.533 154.799 486.4 159.732 491.6C163.066 495.333 164.666 496 169.599 496C173.332 496 176.532 495.067 178.666 493.333L181.999 490.667L176.799 492.8C169.599 495.733 163.599 494.4 159.466 488.933C148.799 475.067 140.266 453.733 131.199 418.8C128.799 409.6 126.799 403.6 126.799 405.6Z" fill="black"/>
<path d="M506.799 421.333C503.199 435.733 495.066 460.4 490.933 469.733C486.533 479.6 477.599 491.6 473.199 493.467C470.133 494.667 467.999 494.667 464.533 493.6C460.533 492.4 460.133 492.533 461.466 494.133C462.399 495.2 465.466 496 468.933 496C473.999 496 475.599 495.333 478.933 491.6C483.866 486.4 489.066 478.533 492.399 471.333C499.066 456.667 511.333 415.733 510.399 410.933C510.133 409.733 508.533 414.4 506.799 421.333Z" fill="black"/>
<path d="M194.666 476C192.132 477.467 190.932 478.533 191.999 478.533C193.066 478.533 195.466 477.467 197.332 476C201.466 472.667 200.666 472.667 194.666 476Z" fill="black"/>
<path d="M443.333 477.333C443.733 477.999 445.199 478.666 446.399 478.666C448.399 478.666 448.399 478.399 446.666 477.333C443.999 475.599 442.266 475.599 443.333 477.333Z" fill="black"/>
<path d="M489.466 482.267C486.666 488.4 479.733 496.267 475.466 498.133C473.066 499.2 472.266 499.867 473.599 500C476.933 500 484.799 492.667 488.933 485.733C490.799 482.533 491.999 479.6 491.733 479.333C491.333 478.933 490.399 480.267 489.466 482.267Z" fill="black"/>
<path d="M149.332 485.2C149.999 486.666 151.332 488.266 152.132 488.8C152.932 489.2 152.532 488.133 151.332 486.133C148.665 482.133 147.332 481.466 149.332 485.2Z" fill="black"/>
<path d="M155.999 494C157.866 496.133 159.333 498.133 159.333 498.267C159.333 498.4 161.199 498.8 163.333 499.2C167.199 500 167.199 500 163.999 498.667C162.133 497.867 158.933 495.6 156.666 493.6L152.666 490L155.999 494Z" fill="black"/>
</svg>
