<svg width="640" height="640" viewBox="0 0 640 640" fill="none" xmlns="http://www.w3.org/2000/svg">
<path d="M89.4674 179.601C88.9341 190.267 89.8674 206.667 92.0007 224.001C94.8007 245.734 94.8007 236.267 91.8674 205.467C90.5341 190.534 90.5341 186.001 91.7341 185.601C92.8007 185.334 93.0674 183.734 92.5341 181.601C91.2007 176.267 89.7341 175.334 89.4674 179.601Z" fill="black"/>
<path d="M547.602 176.935C546.002 179.735 545.468 185.335 546.668 185.335C548.668 185.335 548.268 195.468 545.335 220.668C542.002 249.201 542.135 258.535 545.602 234.668C547.868 218.668 550.135 176.001 548.668 176.001C548.402 176.001 547.868 176.401 547.602 176.935Z" fill="black"/>
<path d="M94.668 181.867C94.668 182.933 95.2013 185.333 96.0013 187.2C96.8013 189.467 96.8013 190.8 95.7346 191.467C93.3346 192.933 96.1346 224.133 102.801 268C108.135 303.067 109.335 310.533 112.668 329.467C124.268 396.267 132.401 433.067 140.668 456C146.668 472.667 147.601 474.533 154.668 484.933C161.468 495.067 168.401 497.2 176.935 492C182.401 488.667 182.668 487.2 177.335 490C164.135 496.8 153.868 485.2 141.335 448.667C136.401 434.8 126.668 396.667 126.668 391.733C126.668 389.733 124.935 379.2 122.801 368.4C109.868 303.333 98.1346 222 98.8013 202C98.9346 196.133 98.4013 188.8 97.468 185.6C95.868 180 94.668 178.4 94.668 181.867Z" fill="black"/>
<path d="M540.268 187.6C539.201 191.2 539.068 194.133 539.868 196.4C543.068 204.667 529.201 304.133 516.001 368.667C513.735 379.6 511.335 392.8 510.668 398C508.668 413.467 497.601 451.067 489.601 469.467C486.801 475.867 478.668 487.333 474.801 490.267C471.868 492.533 466.001 492.4 460.935 489.867L456.668 487.867L460.001 490.533C464.268 494 471.335 495.467 475.335 493.6C479.201 491.867 488.668 479.2 492.268 470.933C501.868 449.333 508.801 422 520.001 362C534.535 285.067 542.935 222.533 542.401 198C542.001 182.8 541.868 182.267 540.268 187.6Z" fill="black"/>
<path d="M533.067 189.734C529.6 192.4 526.667 206 526.134 222C525.467 237.067 522.4 261.867 516.534 296.667C514.667 307.6 512.534 321.2 511.867 326.667C506.934 363.867 491.334 428.667 482.267 449.334C480.534 453.334 478.667 458.534 478.134 460.667C477.6 462.934 475.067 467.6 472.267 471.2C466.4 478.934 459.2 482.267 452.8 480C447.2 478.134 447.067 479.2 452.534 481.867C458.667 484.667 462 484.534 468.134 481.067C474.8 477.334 475.867 475.6 484 455.867C493.2 433.6 505.467 388 509.467 361.334C510.267 355.867 512.134 344.4 513.467 336C514.934 327.6 517.6 312.134 519.334 301.734C525.467 266 529.6 234 530.134 218.667C530.534 203.734 532.4 193.067 535.067 189.6C536.667 187.6 536 187.6 533.067 189.734Z" fill="black"/>
<path d="M106.134 195.467C107.334 199.333 108.134 206.4 108.001 212.667C107.867 229.733 112.667 264.267 128.801 360.667C135.067 398.133 149.467 447.6 161.201 471.867C163.601 476.933 173.601 484 178.267 484C181.867 484 191.467 480.267 190.401 479.333C190.001 478.933 188.001 479.2 186.001 480C181.734 481.6 174.401 479.867 170.134 476.133C159.467 466.8 145.734 423.733 131.867 356.667C129.067 342.667 126.667 329.2 126.667 326.667C126.667 324.133 125.467 315.333 124.134 307.333C117.334 268.8 111.201 219.733 112.401 213.6C113.201 209.6 108.667 193.733 105.867 190.8C104.534 189.333 104.534 190.4 106.134 195.467Z" fill="black"/>
<path d="M249.6 193.334C244.667 196.401 243.467 196.667 244.8 194.401C245.733 192.934 240.933 196.134 236 200.267C232.4 203.334 222.667 215.067 222.667 216.401C222.667 217.067 223.867 216.267 225.333 214.534C228.667 210.401 228.8 212.934 225.333 217.334C223.867 219.201 222.667 220.134 222.667 219.467C222.667 216.801 215.6 227.867 209.2 240.401C203.333 252.001 201.867 257.467 205.333 255.334C206.267 254.667 218.133 233.734 223.733 222.534C226.933 216.134 237.867 203.467 244.533 198.401C251.2 193.467 256.8 190.934 255.067 193.734C254.533 194.667 255.067 194.801 256.533 194.267C257.867 193.734 259.2 193.334 259.467 193.334C259.733 193.334 260 192.801 260 192.267C260 190.134 253.733 190.801 249.6 193.334ZM236.4 203.867C232.133 208.134 228.4 211.467 228 211.067C227.333 210.401 241.867 196.001 243.333 196.001C243.733 196.001 240.667 199.467 236.4 203.867ZM218.267 229.601C215.733 234.267 211.733 241.867 209.467 246.534C207.067 251.067 204.8 254.667 204.4 254.267C203.733 253.467 217.467 226.401 220.267 222.934C223.467 219.201 222.667 221.867 218.267 229.601Z" fill="black"/>
<path d="M262.401 191.6C263.335 192 264.535 191.867 264.935 191.467C265.468 191.067 264.668 190.667 263.201 190.8C261.735 190.8 261.335 191.2 262.401 191.6Z" fill="black"/>
<path d="M376.933 192.135C379.333 192.801 381.6 194.001 382 194.668C383.067 196.401 382.667 196.401 376 194.001C372.933 192.935 369.333 192.001 368.133 192.135C366.933 192.135 369.333 193.335 373.333 194.801C385.733 199.201 404.4 220.401 414.133 241.068C416.8 246.668 420 252.401 421.2 253.868C423.2 256.135 423.2 256.268 420 255.868C417.867 255.468 416 253.868 414.8 251.335C410.533 241.868 398.933 224.001 390.4 213.468C381.067 202.135 375.467 197.201 369.333 195.335C367.467 194.801 365.467 193.868 364.667 193.468C364 192.935 360.4 193.201 356.667 194.001L350 195.468L356.133 197.068C365.6 199.468 375.867 208.268 383.333 220.135C385.467 223.601 403.733 249.735 405.6 252.135C406.533 253.335 409.6 255.335 412.267 256.535C415.733 258.268 418.133 260.668 420.267 265.068C423.067 270.935 423.333 272.935 423.2 293.335C423.067 311.201 422.4 319.068 419.333 335.335C417.333 346.268 415.2 358.668 414.667 362.801C413.2 373.735 405.733 397.868 400.533 408.935C393.333 424.001 386.667 430.401 377.733 430.801C374.667 430.935 374.933 431.201 379.6 432.268C386.133 433.868 390.267 433.068 395.333 429.201C402.8 423.201 412.267 405.068 414.667 392.001C415.333 388.668 417.867 377.601 420.533 367.335C430.267 329.601 435.333 286.135 432.133 270.401C431.067 265.735 429.2 261.468 427.067 259.068C425.067 257.068 420.133 248.668 415.867 240.401C408 224.935 397.867 211.068 388.133 202.268C381.6 196.401 381.733 194.401 388.533 198.535C393.867 201.868 399.6 208.135 408 219.601C411.2 224.135 414.267 227.601 414.533 227.201C415.2 226.535 408.4 216.801 401.333 208.268C398.8 205.068 393.467 200.401 389.733 197.735C382.267 192.535 381.2 191.601 385.067 192.935C392.267 195.601 402.8 205.068 410.4 215.735C413.6 220.268 414.533 220.935 415.2 219.068C415.733 217.735 415.733 217.201 415.2 217.735C414.667 218.268 413.467 217.601 412.533 216.268C410 213.068 410.267 211.335 412.933 213.468C417.2 216.935 409.867 207.601 403.867 202.001C400.667 199.068 398.933 197.735 399.867 198.935C400.8 200.268 401.067 201.335 400.4 201.335C398.267 201.335 394.533 196.535 395.6 195.335C396.267 194.801 396 194.668 395.067 195.201C394.133 195.735 392 195.201 390.267 194.001C388.533 192.935 383.867 191.735 379.867 191.335C373.6 190.801 373.2 190.935 376.933 192.135ZM365.867 196.135C373.867 198.401 380.133 203.201 386.667 212.135C390 216.668 393.333 221.201 394.267 222.001C396 223.868 406 239.201 411.2 248.268C414.8 254.401 414.8 254.668 412.133 254.668C410.133 254.668 406.8 250.535 399.2 239.068C393.467 230.401 387.467 221.868 385.733 220.001C384 218.268 382.667 216.001 382.667 215.201C382.667 212.401 369.867 200.801 363.333 197.868C356.267 194.535 357.333 193.735 365.867 196.135ZM410.4 211.335C410 211.735 407.733 209.601 405.333 206.401L400.933 200.668L406 205.601C408.933 208.401 410.8 210.935 410.4 211.335Z" fill="black"/>
<path d="M261.6 194.401C252.133 198.268 232.933 219.468 225.733 234.001C218.133 249.601 214 256.935 211.2 259.735C201.866 269.335 204.4 310.135 218 368.535C224.266 395.201 228.533 408.401 234.133 417.601C242.133 430.801 248.933 434.801 259.066 432.268L264.666 430.935L260.133 430.801C251.6 430.535 242.933 421.201 236.266 405.335C232.266 395.601 224.533 369.068 223.333 360.668C222.8 356.935 220.933 345.335 219.2 334.668C215.2 310.668 213.733 283.468 215.866 273.335C217.733 264.401 222 257.868 227.066 256.001C231.6 254.401 233.2 252.535 248.4 230.001C254.933 220.535 262.133 210.668 264.4 208.268C269.333 203.201 277.466 198.135 283.333 196.668L287.333 195.601L283.733 194.668C275.066 192.135 267.333 192.135 261.6 194.401ZM270 195.068C261.733 198.268 257.2 202.135 248 213.601C237.733 226.535 222.133 251.201 222.933 253.468C223.2 254.268 227.466 248.268 232.4 240.135C237.466 232.001 242.266 224.668 243.066 223.735C244 222.801 246.8 219.068 249.333 215.601C251.866 212.135 254.933 207.868 256.266 206.268C259.2 202.268 270 196.401 276.666 195.335L282 194.401L275.333 197.735C268.8 200.935 254.666 213.868 254.666 216.668C254.666 217.468 253.6 219.335 252.266 220.801C250.933 222.268 245.466 230.001 240 238.001C234.666 246.135 230 253.068 229.466 253.601C229.066 254.135 225.733 254.935 222 255.335C218.4 255.735 216 255.601 216.8 255.068C217.6 254.535 220.8 248.935 223.733 242.668C229.6 230.268 239.066 216.801 249.466 205.735C257.733 196.935 263.866 193.601 271.333 193.601C273.2 193.601 272.8 194.001 270 195.068Z" fill="black"/>
<path d="M246.667 199.2C239.2 204.534 225.6 222.134 221.067 232.267C219.067 236.4 215.333 243.6 212.8 248C210.133 252.534 208.667 256 209.6 255.734C210.533 255.467 214.667 248.534 218.667 240.534C229.333 219.6 240.267 205.2 252 197.067C253.867 195.867 254.8 194.8 254 194.8C253.333 194.8 250 196.667 246.667 199.2Z" fill="black"/>
<path d="M284.668 198.935C281.734 200.402 277.868 202.935 276.134 204.535C270.668 209.468 256.801 227.202 254.268 232.668C252.801 235.602 247.868 241.735 243.334 246.268C234.134 255.335 233.734 257.202 242.401 250.268C248.134 245.735 252.668 240.402 256.001 234.402C259.468 228.002 273.734 210.535 280.268 204.668C283.601 201.602 288.401 198.535 290.934 197.735C293.734 196.802 294.401 196.268 292.668 196.135C291.201 196.135 287.601 197.335 284.668 198.935Z" fill="black"/>
<path d="M348.534 198.667C352.134 200.134 356.801 202.934 359.067 204.934C364.534 210.134 378.534 227.601 381.867 233.334C386.667 241.467 390.801 246.401 396.801 250.667C400.001 252.934 402.667 254.667 402.667 254.401C402.667 254.134 398.934 250.001 394.267 245.201C389.601 240.267 384.667 234.134 383.467 231.334C380.267 224.801 366.401 207.601 360.934 203.467C354.801 198.934 348.534 196.001 345.067 196.001C342.934 196.134 344.134 196.934 348.534 198.667Z" fill="black"/>
<path d="M294.667 199.333C289.867 201.867 284.534 208.4 260.534 241.333C255.467 248.267 250.267 255.2 248.934 256.667C237.734 268.933 237.334 319.2 248.001 366C256.401 402.8 258.801 409.333 266.401 417.6C272.534 424.267 276.534 426 287.334 427.333L294.001 428L286.667 425.333C277.867 422.133 269.867 414 266.267 404.4C260.934 390.8 255.867 370.8 254.667 359.333C254.001 352.667 252.667 342.533 251.867 336.667C249.201 319.067 249.734 285.467 252.934 270.667C255.467 258.267 255.867 257.467 272.267 232.667C290.267 205.6 292.801 202.667 300.001 199.467C304.134 197.6 304.267 197.467 301.334 197.467C299.467 197.467 296.534 198.267 294.667 199.333Z" fill="black"/>
<path d="M306.934 200C295.868 206.8 283.068 240.267 278.534 274.534C274.001 308.534 278.934 371.734 288.801 406C291.201 414.8 299.334 425.2 306.668 429.2L312.668 432.4L307.734 427.2C298.001 416.934 292.668 399.334 288.668 364.667C286.401 344.267 286.001 284.934 288.001 268C291.468 240 300.534 210.667 308.268 202.4C312.934 197.334 312.534 196.667 306.934 200Z" fill="black"/>
<path d="M326.667 198.268C326.667 198.935 327.867 200.135 329.201 200.935C332.267 202.935 338.667 216.002 342.534 228.002C350.401 253.335 353.467 296.268 350.801 348.002C348.534 391.602 342.001 416.935 330.534 427.335C324.534 432.668 325.201 433.202 332.667 428.935C338.934 425.468 347.467 414.535 349.334 408.002C358.801 373.468 363.734 325.602 361.334 291.602C359.734 268.668 358.667 261.468 354.134 246.002C352.267 239.468 350.667 233.068 350.667 231.868C350.667 229.202 339.601 207.202 336.401 203.602C333.601 200.668 326.667 196.802 326.667 198.268Z" fill="black"/>
<path d="M339.333 199.867C346.267 202.933 348.267 205.333 366.8 233.467C381.2 255.067 382.4 257.467 385.067 268.667C386.667 275.2 388.267 286.133 388.8 292.667C389.6 304.667 387.6 335.867 385.2 348.667C384.4 352.267 383.333 360.133 382.667 366C382 372 379.067 384.133 376 393.6C369.067 414.933 364.133 421.2 351.6 425.333L343.333 428L351.333 427.2C362.133 426 365.067 424.8 371.6 418.4C379.2 410.933 382.533 401.867 390.667 365.333C396.533 338.933 398 326.267 398 301.333C398 280.933 397.6 276.8 395.067 268.667C393.467 263.467 390.933 258 389.467 256.4C387.867 254.8 385.067 251.2 383.067 248.267C353.6 206.667 345.2 197.333 337.067 197.333C334.667 197.333 335.2 198 339.333 199.867Z" fill="black"/>
<path d="M318.135 200.8C313.735 214.667 314.001 417.333 318.401 429.333L319.601 432.533L320.535 428.933C323.601 416.667 324.935 286.933 322.668 232.933C321.335 203.867 320.135 194.667 318.135 200.8Z" fill="black"/>
<path d="M117.602 201.468C118.135 202.801 119.202 206.401 120.135 209.468C121.868 215.735 123.602 218.668 125.468 218.668C127.068 218.668 121.468 203.068 118.935 201.068C117.202 199.601 116.935 199.601 117.602 201.468Z" fill="black"/>
<path d="M518.801 201.735C516.668 204.401 511.868 218.668 513.201 218.668C515.201 218.668 516.934 215.468 519.068 208.001C521.334 200.268 521.334 198.801 518.801 201.735Z" fill="black"/>
<path d="M133.334 216.401C133.334 219.334 138.934 229.334 140.667 229.334C142.401 229.334 142.401 228.667 140.134 224.267C137.867 219.734 133.334 214.534 133.334 216.401Z" fill="black"/>
<path d="M503.2 217.067C501.2 218.267 495.6 229.334 496.933 229.334C499.333 229.334 501.333 226.934 503.333 222.134C505.6 216.801 505.6 215.601 503.2 217.067Z" fill="black"/>
<path d="M416.534 221.2C417.068 221.866 416.801 222.666 416.268 222.933C415.201 223.333 430.401 252.266 432.668 254.4C433.334 254.933 430.134 248.266 425.601 239.6C421.068 230.933 417.334 223.466 417.334 223.2C417.334 222.8 418.134 222.933 419.068 223.466C420.134 224.133 420.134 223.733 418.801 222.266C416.934 219.866 415.334 219.2 416.534 221.2Z" fill="black"/>
<path d="M126.135 223.468C125.068 226.135 126.268 251.468 128.135 266.668C133.335 308.001 150.401 391.201 161.468 428.668C164.535 438.935 173.068 456.935 178.268 463.735C184.401 472.001 193.201 474.135 201.068 469.335C206.668 465.868 206.535 465.201 200.535 467.335C197.868 468.268 194.401 468.668 192.935 468.268C188.135 467.068 179.468 456.935 174.401 446.668C168.935 435.601 158.668 405.335 158.668 400.401C158.668 398.668 156.668 388.801 154.135 378.268C141.601 326.801 130.001 253.735 130.935 233.201C131.201 225.335 130.935 222.535 129.601 222.001C127.068 221.068 127.068 221.068 126.135 223.468Z" fill="black"/>
<path d="M508.667 222.134C507.867 222.4 507.467 227.067 507.867 233.467C508.401 245.734 506.934 259.334 501.201 294.534C496.134 325.734 489.201 360.934 483.334 384.267C480.801 394.4 478.667 404.134 478.667 405.867C478.667 411.734 467.067 442.4 461.067 452.267C457.601 458.134 453.201 463.334 450.001 465.6C445.334 468.934 444.134 469.2 440.134 468C434.134 466.267 433.334 467.2 438.534 469.867C446.267 474 454.534 471.6 460.401 463.734C467.467 454.267 476.267 434.534 478.534 423.334C479.201 420.4 482.134 408.4 485.067 396.667C498.667 343.867 508.401 289.867 511.201 251.067C513.334 223.2 513.067 220.267 508.667 222.134Z" fill="black"/>
<path d="M414.668 230.001C414.668 232.535 427.601 255.201 429.335 255.735C430.401 256.135 430.135 254.935 428.401 252.535C426.935 250.401 423.868 245.068 421.601 240.668C416.801 231.335 414.668 228.135 414.668 230.001Z" fill="black"/>
<path d="M153.867 232.535C156.667 239.601 156.667 239.468 154.267 237.468C152.401 236.001 151.601 236.001 149.867 237.468C146.534 240.135 148.134 266.268 153.467 298.001C155.734 311.868 158.134 327.468 158.801 332.668C161.201 353.335 174.667 405.335 182.801 424.935C185.734 432.135 188.934 439.735 189.734 442.001C191.867 447.601 201.734 456.935 206.534 458.001C209.201 458.535 212.534 458.001 216.801 456.135C223.467 453.201 224.401 450.935 217.867 453.335C212.934 455.201 209.601 454.268 203.201 449.335C197.867 444.935 190.667 434.268 190.667 430.401C190.667 429.068 188.934 423.601 186.667 418.001C177.734 395.468 161.201 323.735 158.667 296.001C158.001 289.068 156.801 276.535 155.867 268.268C154.134 251.335 155.067 241.335 158.267 241.335C159.601 241.335 160.001 240.535 159.467 239.201C159.067 238.001 158.667 236.401 158.667 235.601C158.667 234.668 157.334 233.201 155.867 232.135C153.334 230.668 153.067 230.668 153.867 232.535Z" fill="black"/>
<path d="M481.601 233.335C478.267 236.401 477.734 241.335 480.534 241.335C483.201 241.335 484.534 251.335 483.467 262.401C477.601 324.401 465.201 384.668 451.334 419.735C448.801 426.268 446.667 432.401 446.667 433.468C446.667 436.801 440.801 445.068 435.467 449.201C429.067 454.268 424.801 455.468 420.401 453.468C415.334 451.068 415.067 452.801 420.134 455.468C434.801 462.935 444.934 454.001 456.801 423.068C463.601 404.935 472.401 372.535 476.401 350.001C485.067 302.001 489.201 274.001 490.267 256.668C491.201 240.135 489.867 235.201 485.201 236.668C482.667 237.468 482.534 237.335 484.001 234.668C486.134 230.668 485.067 230.135 481.601 233.335Z" fill="black"/>
<path d="M428.135 240.001C430.001 244.135 430.668 244.801 430.668 243.201C430.668 242.401 429.735 240.668 428.535 239.201C426.668 236.801 426.668 236.801 428.135 240.001Z" fill="black"/>
<path d="M175.601 248.135C176.534 249.068 177.601 249.468 178.001 249.068C178.401 248.668 177.734 247.868 176.401 247.468C174.534 246.668 174.401 246.802 175.601 248.135Z" fill="black"/>
<path d="M458.667 249.467C456.133 250.8 452.933 252 451.733 252C448.533 252 448.667 254.134 451.733 255.067C458.133 256.667 457.333 280.934 449.333 329.334C440.133 384.134 427.733 422.267 414.267 436.534C410.4 440.534 408.8 441.334 403.867 441.467L398 441.6L402 443.334C404.267 444.4 407.867 445.2 410.133 445.334C423.333 445.467 439.867 411.067 449.467 363.334C463.467 293.067 467.2 261.067 461.867 253.6C459.867 250.667 459.867 250.4 462.133 248.667C465.6 246 464.133 246.4 458.667 249.467Z" fill="black"/>
<path d="M94.7999 252.402C94.3999 267.602 118.133 404.268 125.2 427.335C126.4 431.202 126.4 431.202 126.533 428.002C126.667 426.135 125.867 421.335 124.8 417.335C118.8 393.868 109.067 340.402 99.9999 280.668C97.1999 262.268 94.9333 249.602 94.7999 252.402Z" fill="black"/>
<path d="M176.801 253.601C172.268 260.001 175.335 295.867 184.001 337.334C186.268 348.001 188.801 360.534 189.468 365.334C191.868 380.001 201.201 409.334 207.335 422.134C214.535 436.934 222.268 445.334 228.668 445.334C232.535 445.334 242.668 442.001 242.668 440.801C242.668 440.534 240.135 440.534 237.201 440.934C233.335 441.467 230.268 441.067 227.468 439.467C222.668 436.934 223.201 437.601 213.735 418.667C204.135 399.201 193.468 360.667 189.468 330.001C188.668 324.134 187.068 313.601 186.001 306.667C181.468 277.734 181.735 256.267 186.801 255.067C190.535 254.001 189.868 252.401 185.201 251.467C179.201 250.267 179.068 250.401 176.801 253.601Z" fill="black"/>
<path d="M540.267 269.867C535.6 306.4 521.6 385.067 514.534 414.534C512.4 423.6 510.667 432.267 510.8 433.867C510.934 437.334 514.667 422.934 520 398.667C528.534 359.067 543.2 269.067 542.4 261.067C542.134 258.534 541.334 262.134 540.267 269.867Z" fill="black"/>
<path d="M126.802 436.4C126.535 441.867 137.602 474 143.202 484C145.868 488.8 150.535 494.933 153.602 497.733C158.535 502.267 159.735 502.8 163.868 502C166.402 501.467 170.002 500 171.735 498.533C175.602 495.6 174.002 495.067 170.135 498C168.668 499.067 165.468 500 163.068 500C153.602 500 142.802 483.6 133.602 454.667C130.668 445.467 128.002 436.8 127.602 435.333C127.202 433.333 126.935 433.6 126.802 436.4Z" fill="black"/>
<path d="M505.335 453.601C499.602 472.535 491.868 488.135 485.068 494.935C480.135 499.868 479.202 500.268 473.868 499.601C467.335 498.935 467.068 500.535 473.335 501.868C481.068 503.335 487.335 498.268 495.335 484.001C500.802 474.401 511.068 445.201 510.402 441.068C510.135 439.735 507.868 445.335 505.335 453.601Z" fill="black"/>
<path d="M498.667 484.001C495.467 491.601 489.334 500.001 485.067 502.667C482.667 504.134 481.601 505.334 482.667 505.334C485.867 505.334 494.001 496.267 498.001 488.267C499.867 484.267 501.201 480.801 500.934 480.534C500.667 480.134 499.601 481.734 498.667 484.001Z" fill="black"/>
<path d="M142.668 492.001C143.468 493.468 144.401 494.668 144.801 494.668C145.068 494.668 144.801 493.468 144.001 492.001C143.201 490.535 142.268 489.335 141.868 489.335C141.601 489.335 141.868 490.535 142.668 492.001Z" fill="black"/>
<path d="M148 499.201C151.467 503.067 158.4 507.334 159.6 506.267C159.867 505.867 158.934 505.201 157.334 504.667C155.734 504.134 152.267 501.867 149.6 499.601C144.934 495.734 144.934 495.601 148 499.201Z" fill="black"/>
</svg>
