<svg width="640" height="640" viewBox="0 0 640 640" fill="none" xmlns="http://www.w3.org/2000/svg">
<path d="M250.533 190.533C251.999 191.466 251.599 191.866 249.333 192.666C245.333 194 234.399 204.133 228.666 212C223.733 218.8 199.466 265.2 200.399 266.266C201.066 266.933 210.666 249.733 218.266 234C221.199 228.133 225.199 220.666 227.333 217.333C233.066 208.4 244.666 196.666 250.666 194C256.133 191.466 256.666 189.333 251.599 189.333C249.333 189.333 249.066 189.733 250.533 190.533Z" fill="black"/>
<path d="M258.4 190.266C259.333 190.666 260.533 190.533 260.933 190.133C261.466 189.733 260.666 189.333 259.2 189.466C257.733 189.466 257.333 189.866 258.4 190.266Z" fill="black"/>
<path d="M367.332 191.333L359.332 192.8L366.532 194.4C373.999 196.133 380.266 199.867 384.666 205.2C397.466 220.8 414.666 247.867 414.666 252.533C414.666 253.6 415.199 254.667 415.732 254.933C417.332 255.6 422.666 265.333 421.466 265.333C418.932 265.333 409.599 260.8 404.132 256.8C398.799 252.933 382.666 231.467 382.666 228C382.666 226.667 377.199 219.2 368.532 208.533C363.466 202.4 352.266 196 346.799 196.133C343.999 196.133 344.399 196.533 348.799 197.867C351.732 198.8 356.132 201.067 358.532 202.8C363.999 206.8 379.866 227.867 383.999 236.667C387.732 244.533 401.466 258.4 408.799 261.867C419.466 266.8 423.999 277.333 423.999 297.333C423.999 310.933 421.066 335.867 417.332 354C415.866 361.067 414.666 368.667 414.666 370.8C414.666 374.8 406.932 400.133 402.666 409.867C401.332 412.8 397.866 418.133 394.666 421.733C390.266 426.667 387.999 428.133 383.599 428.933C379.199 429.6 378.666 430 380.666 430.8C385.066 432.533 391.866 432.133 395.999 430C402.399 426.667 414.666 406.267 414.666 398.933C414.666 397.733 416.132 392.133 417.866 386.667C422.132 373.067 428.799 340.133 431.332 320C434.666 293.067 433.599 277.733 428.132 270.8C426.666 268.933 424.532 265.467 423.599 263.333C422.532 261.067 420.132 256.933 418.132 254.133C416.266 251.333 414.666 248.133 414.666 247.2C414.666 246.4 412.132 241.2 409.199 235.867C397.199 214.8 382.132 197.467 372.932 194.267C369.732 193.067 368.532 192.133 369.999 192.133C375.999 191.867 382.932 195.2 389.866 201.467C397.732 208.667 411.599 227.467 413.999 234C415.999 239.733 430.799 266.933 431.466 266.267C431.866 265.867 428.266 258.133 423.466 249.067C418.532 239.867 414.666 231.733 414.666 230.8C414.666 228.133 400.532 209.067 393.732 202.533C390.266 199.067 384.666 194.933 381.332 193.067C375.866 190.133 374.666 190 367.332 191.333Z" fill="black"/>
<path d="M383.466 190.533C383.066 191.066 385.2 192.666 388.133 193.999C393.866 196.666 408 210.799 411.466 217.466C412.533 219.733 413.866 221.333 414.133 220.933C416.666 218.399 397.733 196.266 390.533 193.333C387.6 191.999 386.933 191.333 388.266 190.533C389.466 189.733 389.2 189.333 387.066 189.333C385.466 189.333 383.866 189.866 383.466 190.533Z" fill="black"/>
<path d="M236.933 193.067C232.267 196.133 225.2 203.067 223.733 206C222.933 207.467 225.733 205.2 230 200.933C234.267 196.8 238.4 193.333 239.2 193.333C240 193.333 238.133 195.6 234.933 198.4C231.867 201.067 227.867 205.333 226 207.867C224.133 210.4 222.667 211.6 222.667 210.533C222.667 209.467 220.667 211.6 218.4 215.333C216 218.933 213.6 222.267 213.067 222.667C212.267 223.333 192 264.667 192 265.733C192 265.867 193.067 266.133 194.4 266.267C196.133 266.4 198.933 261.867 205.733 248.133C210.667 238 216.533 226.933 218.8 223.467C221.067 220 222.667 216.8 222.267 216.4C221.733 216 220.667 217.2 219.867 219.2C218.933 221.067 217.733 222.667 217.067 222.667C216.4 222.667 217.2 220.267 218.933 217.2C220.533 214.267 222.133 212.4 222.4 213.2C222.667 214 224.133 213.067 225.733 211.067C231.067 203.867 236.667 198.267 242.267 194.667L247.867 191.067H243.867C241.733 191.067 238.667 192 236.933 193.067ZM205.467 244.8C199.6 256.533 194.8 265.2 194.8 264.267C194.667 262 214.667 222.267 215.467 223.067C215.867 223.467 211.333 233.2 205.467 244.8Z" fill="black"/>
<path d="M259.067 192.133C256.667 192.8 251.2 196.8 246.667 200.8C238.667 208.267 222.667 229.733 222.667 232.933C222.667 234.933 214 252.4 208.667 260.933C206.8 264.133 205.734 266.667 206.534 266.667C208 266.667 221.067 243.2 223.6 236.133C226.134 228.667 240.267 209.333 248.534 201.867C256 195.067 262.534 191.867 268.667 192.133C270.134 192.133 268.8 193.067 265.6 194.267C259.334 196.4 252.267 202.933 243.467 214.667C240.534 218.667 237.734 222.267 237.2 222.667C235.6 224.133 222.667 247.733 222.667 249.333C222.667 250.267 220.667 254.133 218.4 257.867C206.4 276.667 206.267 276.8 205.6 290C204.4 313.733 213.734 367.6 225.467 403.867C228.8 414.267 237.334 427.2 242.667 430C246.8 432.133 254.934 432.533 259.334 430.8C261.334 430 260.667 429.6 256.134 428.933C250 428.133 245.2 424.533 239.467 416.133C234.667 409.333 224.4 377.333 222.8 364.667C222.134 358.8 220.934 351.333 220.134 348C216.934 333.333 214.4 305.467 215.067 292.667C215.734 279.067 217.734 271.867 222.134 267.6C224.4 265.467 234.8 258.4 239.867 255.467C243.2 253.6 250.8 243.6 256 234.267C266.534 215.2 280.267 200.4 290.134 197.333C293.467 196.4 293.6 196.267 290.934 196.133C286.667 196 278.267 200.533 272.934 205.733C266.8 211.867 256.134 226.133 254.534 230.267C251.6 238.133 239.6 253.333 232.534 258.133C228.534 260.933 225.067 262.8 224.8 262.533C224.534 262.267 226.4 259.467 229.2 256.4C231.867 253.2 238 244.4 242.667 236.667C247.334 228.933 251.6 222.267 252.134 221.867C252.8 221.467 254.134 219.2 255.334 216.8C258.8 209.467 269.6 200 277.6 197.2C282.267 195.6 283.6 194.8 281.334 194.8C273.2 194.667 258 205.333 253.867 214C252.8 216.4 250.8 219.467 249.6 220.8C248.267 222.267 243.067 230.267 238 238.667C232.934 247.067 227.467 255.467 225.734 257.333C224 259.2 222.667 261.333 222.667 262.133C222.667 263.6 219.734 265.333 217.2 265.333C216.534 265.333 217.467 262.933 219.334 260C221.2 257.067 222.667 254.4 222.667 253.867C222.667 251.467 238.4 225.6 246.267 214.933C256.534 201.333 261.867 196.933 271.467 194.4C277.867 192.8 277.867 192.8 274 191.867C268.4 190.667 264 190.667 259.067 192.133Z" fill="black"/>
<path d="M395.999 194.267C399.332 196.4 404.666 201.2 407.866 204.8C411.066 208.4 414.132 211.2 414.799 210.933C415.466 210.8 417.332 212.8 418.799 215.333C420.399 217.867 421.866 220 422.266 220C422.666 220 421.466 217.467 419.599 214.267C417.732 211.2 415.599 208.667 414.932 208.667C414.132 208.667 411.066 205.867 407.999 202.267C401.066 194.533 402.399 194 409.599 201.6C412.532 204.8 414.266 206.133 413.599 204.667C411.999 201.467 406.132 195.867 400.666 192.533C398.132 190.8 397.199 190.667 397.999 191.867C398.799 193.333 398.532 193.6 396.932 192.933C390.666 190.4 390.532 190.667 395.999 194.267ZM401.999 194.667C402.399 195.333 402.266 196 401.466 196C400.799 196 399.732 195.333 399.332 194.667C398.932 193.867 399.066 193.333 399.866 193.333C400.532 193.333 401.599 193.867 401.999 194.667Z" fill="black"/>
<path d="M354.133 194.533C354.8 195.066 358 196.266 361.333 197.2C367.6 199.066 379.067 209.466 384.933 218.8C386.4 221.333 391.733 229.733 396.533 237.6C405.2 251.466 414.533 263.466 414.667 260.533C414.667 259.866 413.6 258 412.133 256.533C410.8 255.066 406 247.733 401.467 240.133C396.933 232.666 390.933 223.333 388 219.466C385.067 215.6 382.667 211.733 382.667 211.066C382.667 208.666 371.867 199.866 365.467 196.933C359.333 194.266 352 192.666 354.133 194.533Z" fill="black"/>
<path d="M293.599 199.601C291.199 200.667 286.533 205.334 283.199 209.867C274.799 220.934 254.666 251.734 254.666 253.334C254.666 254.001 254.133 254.667 253.599 254.667C251.333 254.667 245.199 267.867 242.666 278.134C237.866 296.667 239.466 329.334 246.799 364.001C255.333 404.534 260.399 416.667 270.799 422.134C273.999 423.734 292.266 428.134 295.333 427.867C296.133 427.867 292.533 426.401 287.466 424.667C276.399 420.801 270.799 415.734 266.133 405.467C261.866 395.734 256.266 376.534 255.333 367.734C254.933 363.867 253.599 353.734 252.399 345.334C249.199 322.934 249.466 290.801 252.933 274.401C255.333 262.934 256.933 259.467 266.799 242.401C272.933 231.867 278.266 223.067 278.666 222.667C280.133 221.201 286.666 210.667 286.666 209.601C286.666 207.601 293.866 201.601 298.666 199.467C301.866 198.134 302.533 197.467 300.666 197.467C299.199 197.467 295.999 198.401 293.599 199.601Z" fill="black"/>
<path d="M308.534 198.667C301.734 201.334 289.334 223.334 286.667 237.334C285.867 241.334 284.4 247.734 283.334 251.334C274.534 282 274.8 345.467 284.134 385.067C285.467 391.2 286.667 397.734 286.667 399.467C286.667 403.867 292.267 415.467 297.067 421.334C299.2 423.867 303.6 427.467 306.8 429.2L312.667 432.4L307.867 427.2C298.934 417.734 294.134 404.4 289.867 377.334C286.934 358.534 285.734 290.8 288 270.267C291.2 241.2 300.534 210 308.267 202.134C312.534 197.867 312.667 197.2 308.534 198.667Z" fill="black"/>
<path d="M326.667 198C326.667 198.267 328.4 200.133 330.4 202.267C335.2 206.933 342 224.4 346.267 242.667C350.934 262.667 352.667 302.4 350.934 343.867C348.667 393.2 342.534 417.333 329.2 428.533C323.734 433.2 326 432.933 333.734 428C341.467 423.067 348.8 412.267 350.667 402.933C351.334 399.067 352.8 392.533 353.867 388.267C364.667 346.933 364.4 280.133 353.334 244C351.867 239.2 350.667 234.267 350.667 232.933C350.667 229.067 340.667 208.8 336.134 203.733C332.8 199.867 326.667 196.133 326.667 198Z" fill="black"/>
<path d="M341.334 200.267C345.734 202.534 348.8 205.6 352.934 212C356 216.8 359.067 221.334 359.6 222C360.267 222.8 365.467 231.334 371.2 241.2C382.667 260.934 385.6 269.734 388.134 291.734C389.734 305.6 388.134 338.534 385.334 351.467C384.667 354.534 383.467 362.134 382.8 368.4C382 374.667 379.334 386.4 376.534 394.534C370.134 414 365.2 420 352 424.134C346.934 425.867 342.934 427.334 343.2 427.6C344.134 428.534 364.934 423.6 368 421.734C373.067 418.534 378 412.534 380.4 406.934C386.534 391.867 394.4 356.4 397.467 329.467C399.334 312.267 398.267 283.067 395.467 274.267C393.2 267.067 386.8 254.667 385.334 254.667C384.8 254.667 383.734 253.067 382.934 251.2C380.534 246.134 358 212.667 352.4 206C347.867 200.534 342.4 197.334 337.467 197.334C336.4 197.334 338.134 198.667 341.334 200.267Z" fill="black"/>
<path d="M318.133 200.8C313.733 214.667 313.999 417.333 318.399 429.333L319.599 432.533L320.533 428.933C323.599 416.667 324.933 286.933 322.666 232.933C321.333 203.867 320.133 194.667 318.133 200.8Z" fill="black"/>
<path d="M414.666 214C414.666 214.8 416.799 218.667 419.466 222.667C422.133 226.667 428.399 238.4 433.466 248.667C438.533 258.934 442.666 266.534 442.666 265.6C442.666 264.667 438.133 254.934 432.666 244C427.199 233.067 422.666 223.6 422.666 223.2C422.666 222.667 423.733 223.2 425.066 224.134C427.066 225.867 427.199 225.734 425.599 223.734C424.533 222.534 423.066 221.734 422.266 222.134C421.333 222.4 419.333 220.4 417.733 217.6C416.133 214.934 414.799 213.334 414.666 214Z" fill="black"/>
<path d="M548.134 218.667C547.867 219.734 547.734 224.267 547.867 228.667C548 233.067 546.934 247.334 545.467 260.267C542.667 283.467 542.134 291.734 543.2 290.534C544.667 289.067 549.467 237.867 549.067 228C548.8 221.734 548.4 217.6 548.134 218.667Z" fill="black"/>
<path d="M88.933 221.468C87.9997 224.668 89.8663 248.801 92.533 269.335C95.0663 289.068 95.1997 276.535 92.6663 253.735C91.4663 243.601 90.6663 231.868 90.7997 227.601C91.0663 219.601 90.133 216.535 88.933 221.468Z" fill="black"/>
<path d="M541.332 224.8C540.399 227.333 540.132 230.933 540.532 232.666C542.399 240 532.799 313.066 523.332 364.666C519.599 385.066 513.332 414.933 512.532 416.133C512.265 416.666 511.465 421.466 510.665 426.8C508.665 440.4 498.265 470.8 491.865 481.6C486.399 490.933 479.599 497.333 475.199 497.333C473.865 497.333 470.532 496.133 467.999 494.666L463.332 491.866L467.065 495.333C477.332 504.533 486.932 499.333 497.065 479.333C501.732 470.133 510.665 443.6 510.665 438.933C510.665 437.2 512.132 430 513.865 422.933C523.199 386 537.065 304.266 541.199 262C542.399 249.333 543.732 220 543.065 220C542.932 220 542.132 222.133 541.332 224.8Z" fill="black"/>
<path d="M94.9325 230.267C94.1325 256 110.532 363.6 123.866 420.4C125.466 426.8 126.666 433.467 126.666 435.333C126.666 441.6 138.799 475.333 144.399 484.667C150.132 494.133 156.799 500 161.866 500C163.466 500 167.332 498.4 170.399 496.4C176.932 492.133 177.066 490.667 170.532 494.533C164.666 498.133 161.866 498 156.532 494C145.866 485.867 130.399 448.267 126.666 421.333C126.132 417.333 123.999 406.533 122.132 397.333C113.732 357.867 107.999 323.467 100.532 266.667C100.132 263.333 99.3325 252.4 98.7991 242.267C97.7325 222.4 95.3325 215.067 94.9325 230.267Z" fill="black"/>
<path d="M420.133 233.599C428.8 251.066 437.6 266.799 438.133 266.266C438.933 265.466 416.933 222.666 415.6 222.666C415.066 222.666 417.066 227.599 420.133 233.599Z" fill="black"/>
<path d="M104.667 230.268C105.601 233.068 107.067 235.468 107.867 235.734C109.734 236.401 109.734 235.468 107.467 230.001C104.801 223.734 102.534 224.001 104.667 230.268Z" fill="black"/>
<path d="M531.199 229.999C530.266 232.533 529.333 235.199 529.333 235.866C529.333 236.533 528.666 237.333 527.999 237.599C527.066 237.866 526.266 244.133 525.999 252.666C525.333 269.066 522.133 293.999 515.466 334.666C512.933 349.733 510.533 365.066 510.133 368.799C508.266 384.266 496.266 431.866 489.999 448.533C479.199 476.933 473.199 484.933 463.066 483.733C460.266 483.333 456.799 482.666 455.333 482.133C453.199 481.333 453.333 481.599 455.999 483.866C463.466 489.866 472.666 488.933 478.399 481.599C488.799 468.399 502.533 429.466 508.533 395.999C522.266 319.733 528.933 275.199 530.133 252.266C530.533 244.399 531.333 236.799 531.999 235.333C532.533 233.866 533.599 231.066 534.533 228.933C535.466 226.533 535.466 225.333 534.533 225.333C533.866 225.333 532.266 227.466 531.199 229.999Z" fill="black"/>
<path d="M430.134 233.734C430.534 235.067 431.334 235.734 431.734 235.334C432.134 234.934 431.734 233.867 430.8 232.934C429.467 231.734 429.334 231.867 430.134 233.734Z" fill="black"/>
<path d="M117.332 235.2C117.332 237.466 120.665 244 122.132 244.533C124.399 245.333 124.399 245.466 122.532 240.266C121.732 238 120.265 235.866 119.199 235.466C118.132 235.066 117.332 234.933 117.332 235.2Z" fill="black"/>
<path d="M516.532 239.334C514.265 245.068 514.265 245.468 516.532 244.534C517.599 244.134 519.065 242.001 519.865 239.734C521.599 234.668 521.599 234.668 519.865 234.668C519.199 234.668 517.599 236.801 516.532 239.334Z" fill="black"/>
<path d="M108 246.267C108 261.734 113.733 303.867 122.533 354.001C124.667 365.734 127.067 380.001 127.867 385.734C130.4 401.467 139.333 435.601 145.467 452.401C150.933 467.334 157.733 480.267 162.267 484.267C168 489.334 176.667 488.934 183.333 483.201L187.333 479.867L183.067 482.001C180.667 483.067 176.8 484.001 174.533 484.001C169.6 484.001 162.133 479.467 160.133 475.334C143.6 440.801 133.467 402.401 124 339.334C122.4 329.067 119.733 311.334 118 300.001C114.267 274.934 111.6 248.801 112.267 242.667C112.533 239.201 112.133 238.001 110.4 237.601C108.267 237.201 108 238.267 108 246.267Z" fill="black"/>
<path d="M134.132 248.267C134.932 251.201 136.932 253.334 138.932 253.334C140.132 253.334 138.799 249.467 136.932 246.934C134.799 244.267 133.066 245.067 134.132 248.267Z" fill="black"/>
<path d="M500.799 248.267C498.532 251.467 498.132 253.334 499.732 253.334C501.732 253.334 503.599 251.201 504.532 248.267C505.732 244.401 503.466 244.401 500.799 248.267Z" fill="black"/>
<path d="M126.267 250.934C125.2 255.334 127.6 291.867 129.867 306C137.334 352.8 147.2 400.667 152.8 417.067C153.867 420.267 156 427.734 157.467 433.734C160.667 446 168.534 462.667 173.867 468.4C175.734 470.4 179.467 473.067 182 474.134C186.267 475.867 187.067 475.867 191.867 473.334C194.8 471.867 197.6 470 198.134 469.2C198.8 468.134 198.267 468.134 196.267 469.2C191.067 472 185.6 470.934 180.667 466.267C172.267 458.4 161.734 436.134 158.667 420C158 416.667 155.6 406.8 153.467 398C141.2 349.334 129.734 278.667 130.934 258.4C131.334 251.6 130.934 249.2 129.6 248.667C127.067 247.734 127.067 247.734 126.267 250.934Z" fill="black"/>
<path d="M508.665 248.801C507.865 249.068 507.465 253.601 507.732 259.868C508.799 281.734 497.065 353.068 484.665 400.668C481.999 410.934 479.332 422.001 478.665 425.334C476.532 437.334 466.799 457.468 459.599 465.068C454.265 470.668 448.665 472.268 443.332 469.734L439.332 467.868L443.332 471.201C450.132 477.068 459.599 475.201 466.265 466.668C470.265 461.734 477.599 446.001 479.865 437.734C481.199 432.801 484.399 420.934 487.065 411.601C497.865 373.334 508.799 312.668 511.199 277.468C513.199 249.334 513.065 246.934 508.665 248.801Z" fill="black"/>
<path d="M153.333 256C153.333 256.666 152.533 257.333 151.466 257.333C145.599 257.333 146.933 279.866 155.999 336C168.266 413.066 186.399 460.133 203.599 460C206.666 460 217.999 454.8 217.066 454C216.666 453.6 214.666 453.866 212.666 454.666C207.599 456.533 201.599 454.4 196.399 448.933C192.533 444.933 186.933 432.933 180.266 414C172.933 393.333 161.066 339.2 158.799 316.4C158.133 309.2 156.799 296.4 155.866 287.866C154.266 272.533 154.933 260 157.466 260C159.599 260 158.799 257.466 155.999 256C154.133 255.066 153.333 255.066 153.333 256Z" fill="black"/>
<path d="M481.866 256.668C479.732 258.401 479.599 258.801 481.332 259.868C487.732 264.135 479.466 334.001 466.532 386.001C459.199 415.068 448.932 441.868 442.266 448.935C437.066 454.401 431.066 456.535 425.999 454.668C419.599 452.268 420.666 454.535 427.332 457.468C432.799 459.868 434.399 460.135 438.799 458.801C444.532 457.068 451.599 448.268 456.932 436.135C464.932 418.001 476.266 377.335 478.666 358.401C479.332 353.068 481.332 340.268 483.199 330.001C490.532 289.201 492.532 263.068 488.666 257.868C487.599 256.535 486.666 255.868 486.666 256.668C486.666 257.335 486.132 257.201 485.599 256.401C484.799 255.068 483.999 255.068 481.866 256.668Z" fill="black"/>
<path d="M177.999 266.267C171.599 272.667 174.932 310.134 186.799 366.667C192.666 394.267 196.799 408.401 202.799 421.334C211.199 439.067 217.199 445.334 225.999 445.334C228.799 445.334 237.332 442.001 237.332 440.934C237.332 440.801 234.666 440.801 231.466 441.067C226.132 441.601 225.066 441.067 220.666 436.401C213.866 429.201 206.132 412.801 200.132 392.667C187.466 349.601 179.066 279.067 185.599 269.067C187.866 265.601 187.866 265.601 183.866 265.067C181.466 264.667 179.066 265.201 177.999 266.267Z" fill="black"/>
<path d="M454.532 265.067L451.066 265.467L453.599 270.4C455.999 274.8 456.132 277.2 455.466 292C455.066 301.2 453.199 317.6 451.332 328.667C449.466 339.6 447.332 353.2 446.666 358.8C444.932 372.8 435.466 405.2 429.332 418.133C426.532 424.133 421.732 431.867 418.532 435.333C413.199 441.2 412.399 441.467 407.066 441.067C402.132 440.667 401.599 440.933 403.466 442.267C410.266 447.2 420.132 445.333 426.132 438.133C433.599 429.333 444.399 403.333 446.666 388.933C447.199 385.2 449.599 373.867 451.866 364C461.332 323.733 466.532 278.533 462.799 269.467C460.932 265.067 459.599 264.4 454.532 265.067Z" fill="black"/>
<path d="M94.8004 291.601C94.4004 310.401 115.867 427.868 124.534 454.668C128.134 465.601 126.8 455.201 122.667 439.601C115.334 411.601 107.334 369.201 99.2004 315.335C96.8004 299.201 94.8004 288.535 94.8004 291.601Z" fill="black"/>
<path d="M541.6 300.667C541.2 307.067 530.933 369.6 526.667 391.334C522.267 414.134 515.6 442.934 512.667 452.534C511.6 456.134 510.667 460.4 510.8 461.867C511.2 470 523.733 418.267 530.533 381.334C537.067 344.8 542.933 305.6 542.267 301.067L541.733 296.667L541.6 300.667Z" fill="black"/>
<path d="M127.2 465.601C128.266 474.268 138.666 495.868 144.8 502.401C150.266 508.001 150.933 508.268 156.133 507.601C159.733 507.068 162.933 505.601 165.2 503.334L168.666 499.734L163.466 503.201C157.066 507.468 155.2 507.468 149.2 503.468C143.866 499.868 135.466 485.068 129.866 469.601C127.333 462.534 126.8 461.734 127.2 465.601Z" fill="black"/>
<path d="M508.267 470.667C507.2 474 503.733 482 500.4 488.4C495.867 497.2 492.933 501.067 489.2 503.6C484.267 506.8 482.8 506.933 476.667 504.667L474 503.6L476.667 505.733C478.133 506.933 481.333 508 483.867 508C490.8 508 498.133 499.6 505.2 483.6C508.267 476.4 510.667 469.333 510.4 467.6C510.133 465.467 509.6 466.267 508.267 470.667Z" fill="black"/>
<path d="M129.332 484.668C129.332 485.334 129.999 486.934 130.665 488.001C131.332 489.068 131.999 489.334 131.999 488.668C131.999 487.868 131.332 486.401 130.665 485.334C129.999 484.268 129.332 483.868 129.332 484.668Z" fill="black"/>
<path d="M506.932 487.334C504.666 492.268 505.066 493.334 507.466 488.934C508.666 486.801 509.332 484.801 508.932 484.534C508.666 484.268 507.732 485.468 506.932 487.334Z" fill="black"/>
<path d="M132.8 492.4C133.2 493.733 134 494.4 134.4 494C134.8 493.6 134.4 492.533 133.466 491.6C132.133 490.4 132 490.533 132.8 492.4Z" fill="black"/>
<path d="M500.8 499.2C498.934 502.533 495.734 506.533 493.734 508.133C491.467 509.866 490.934 510.8 492.4 510.266C493.734 509.733 495.067 509.333 495.334 509.333C496.134 509.333 503.467 498.266 504.4 495.6C505.867 491.6 504.4 493.066 500.8 499.2Z" fill="black"/>
<path d="M137.067 500.8C138.667 503.734 146.4 511.467 146.934 510.534C147.2 510.267 144.667 507.334 141.467 504.134C138.267 500.8 136.267 499.334 137.067 500.8Z" fill="black"/>
</svg>
