<svg width="640" height="640" viewBox="0 0 640 640" fill="none" xmlns="http://www.w3.org/2000/svg">
<path d="M226.133 181.466C224.8 182.266 222.667 184 221.467 185.2C220.133 186.533 218 188.4 216.533 189.466C210.667 193.6 190.667 227.2 190.667 232.8C190.667 234.133 193.467 229.466 196.8 222.533C208 199.333 218 187.066 229.6 182C232.8 180.666 233.2 180.133 231.333 180.133C229.867 180.133 227.6 180.666 226.133 181.466Z" fill="black"/>
<path d="M233.6 182.533C221.067 186.8 212.533 197.066 199.067 224C194.4 233.2 190.667 239.466 190.667 238C190.533 233.066 177.067 268.266 165.867 302.666C158.533 325.6 160.8 321.066 170 294.8C183.2 257.066 189.867 240.266 190.4 244C190.8 246.4 191.733 244.933 194.667 237.866C199.733 225.333 210.933 205.066 217.467 196.533C222.8 189.6 233.467 182.666 238.8 182.666C240.133 182.666 241.6 182 242 181.333C243.067 179.466 241.867 179.733 233.6 182.533Z" fill="black"/>
<path d="M389.333 182.667L383.333 185.067H389.6C399.6 185.067 410.8 191.067 415.333 198.667C416 200 420.133 206.8 424.4 213.733C428.667 220.8 435.2 233.867 438.933 242.933C446.4 260.533 449.333 262.933 442.667 245.867C432 218.8 416.667 194.267 407.2 188.667C404.133 186.8 399.6 184.933 397.333 184.4C394.667 183.867 393.733 183.2 394.8 182.667C396.933 181.2 407.2 184.4 412.8 188.267C420.933 193.867 432.933 212.4 442.8 234.667C444.8 239.467 446.533 242.133 446.667 240.533C446.667 237.467 432.8 209.467 426.8 200.933C420.533 191.867 411.333 184.267 403.733 182C395.733 179.733 396.933 179.6 389.333 182.667Z" fill="black"/>
<path d="M410.133 182.4C422.133 189.066 429.6 198.4 441.2 220.533C444.133 226.4 446.667 230.533 446.667 229.733C446.667 227.733 435.067 206 430.4 198.933C425.867 192.266 411.467 180 408.267 180C406.8 180.133 407.467 180.933 410.133 182.4Z" fill="black"/>
<path d="M245.333 182.533C246.933 183.733 246.667 184 243.867 184C238 184 226.667 190.666 222.4 196.533C220.267 199.466 215.2 207.333 211.333 214C205.2 224.4 202.133 231.066 192.8 254C191.867 256.133 189.467 263.066 187.467 269.333C185.467 275.6 182.933 282.4 182 284.666C177.867 293.466 170.4 314.933 171.2 315.6C171.6 316 172.533 314.933 173.2 313.2C187.333 276.8 190.667 267.733 190.667 266C190.667 262 207.733 224.4 215.2 212C219.333 205.2 222.667 199.2 222.667 198.666C222.667 195.2 239.333 185.333 245.2 185.333C248.4 185.333 248.533 182.533 245.2 181.6C243.733 181.2 243.733 181.333 245.333 182.533Z" fill="black"/>
<path d="M250.4 184.934C251.333 185.334 252.533 185.201 252.933 184.801C253.467 184.401 252.667 184.001 251.2 184.134C249.733 184.134 249.333 184.534 250.4 184.934Z" fill="black"/>
<path d="M243.067 189.068C235.867 192.001 227.467 200.268 223.733 208.001C222.133 211.334 219.067 216.801 217.067 220.268C214.933 223.734 210.8 232.134 207.867 238.934C204.933 245.734 201.733 253.068 200.667 255.334C196.4 264.668 190.667 280.268 190.667 282.401C190.667 283.734 190.133 285.334 189.6 286.001C188.933 286.801 186.133 293.068 183.333 300.001C180.667 306.934 177.467 314.534 176.533 316.934C172.533 326.001 175.467 359.601 183.2 392.268C185.067 400.134 187.467 408.801 188.667 411.468C189.733 414.134 190.667 417.468 190.667 418.934C190.667 422.534 196.667 433.734 201.333 439.201C206.267 444.801 211.467 446.134 217.733 443.601C224.133 440.934 224.8 439.068 219.2 439.734C215.067 440.268 213.867 439.601 208.933 434.401C202.667 428.001 195.733 413.068 192.667 399.468C187.2 376.134 182.667 343.468 182.667 328.668C182.667 319.468 185.733 309.601 189.2 307.468C190 306.934 190.667 305.734 190.667 304.934C190.533 304.001 190 304.134 188.933 305.468C188 306.668 185.867 308.268 184.133 309.334C181.467 310.668 181.067 310.668 181.733 309.201C182.133 308.134 184.267 303.068 186.533 298.001C188.667 292.801 192.4 283.601 194.8 277.334C208 242.668 224.8 208.934 233.867 199.068C240.133 192.134 245.333 189.601 257.333 187.601C259.2 187.334 258 186.934 254.667 186.934C251.333 186.801 246.133 187.868 243.067 189.068Z" fill="black"/>
<path d="M379.333 187.467C380.8 187.867 385.333 188.667 389.467 189.467C400.133 191.601 408 199.867 418 219.334C428.533 239.734 446.667 280.934 446.667 284.534C446.667 285.334 449.067 291.334 452 298.001C454.933 304.534 457.333 310.001 457.333 310.267C457.333 310.401 455.867 310.001 454.133 309.201C452.4 308.401 450 305.867 448.933 303.467C447.867 301.201 444.8 294.801 442.133 289.201C439.6 283.601 435.333 274.267 432.8 268.534C430.4 262.667 425.2 251.467 421.467 243.467C417.733 235.467 414.667 227.867 414.667 226.534C414.667 225.201 414.133 223.867 413.467 223.467C412.8 223.067 410.4 219.334 408 215.201C400.8 202.401 386.933 189.467 382.267 191.067C381.333 191.334 382.533 192.534 384.667 193.734C386.933 194.801 390.933 198.134 393.6 200.934C399.333 206.934 413.067 228.401 414.267 233.334C416.133 241.067 446.133 303.601 450 308.001C453.867 312.267 456 320.001 456 329.734C456 339.601 453.333 363.067 450.667 375.334C449.867 378.934 448.667 385.601 447.867 390.001C444.4 410.267 436.4 429.067 428.533 436.001C424.667 439.334 422.667 440.134 419.067 439.734C415.6 439.334 415.067 439.601 416.267 440.801C419.067 443.201 425.867 445.067 429.733 444.401C434.133 443.601 440.667 436.401 444 428.801C457.333 398.801 468.4 330.934 462.133 316.934C454.8 300.134 446.667 279.734 446.667 278.267C446.667 276.534 442.133 264.801 437.333 254.001C436 251.067 432.8 243.601 430 237.334C427.333 231.067 423.067 222.667 420.667 218.667C418.133 214.534 415.6 209.734 414.933 207.867C414.267 206.134 410.933 201.601 407.6 198.001C400.8 190.534 392.133 186.534 382.533 186.801C379.333 186.934 377.867 187.201 379.333 187.467Z" fill="black"/>
<path d="M263.733 190.266C264.667 190.666 265.867 190.533 266.267 190.133C266.8 189.733 266 189.333 264.533 189.466C263.067 189.466 262.667 189.866 263.733 190.266Z" fill="black"/>
<path d="M373.067 190.266C374 190.666 375.2 190.533 375.6 190.133C376.133 189.733 375.333 189.333 373.867 189.466C372.4 189.466 372 189.866 373.067 190.266Z" fill="black"/>
<path d="M250 193.2C241.2 198.667 225.2 220.267 222.4 230.4C221.733 232.8 218.267 240.933 214.8 248.4C211.2 255.867 206.667 265.867 204.667 270.667C202.667 275.467 198.667 284 195.867 289.733C192.933 295.6 190.8 300.933 191.067 301.733C191.6 303.467 203.6 281.467 208.667 269.333C210.667 264.533 213.867 257.6 215.733 254C217.467 250.267 220.4 243.467 222.133 238.8C228.133 222.267 241.867 202.133 252.4 194.533C258.267 190.267 256.4 189.2 250 193.2Z" fill="black"/>
<path d="M263.2 194.8C257.6 197.467 249.733 206.534 241.733 219.334C237.867 225.6 231.6 238.267 216.533 270.534C212.933 278.134 209.467 285.067 208.667 285.867C205.867 289.067 199.067 298.134 198.133 300C197.6 301.067 200.667 298.267 205.067 293.6C213.067 285.067 214.4 282.8 232.533 245.067C238 233.6 245.2 220.4 248.4 215.734C251.6 211.067 254.533 206.267 255.067 205.067C256.4 201.467 266 195.734 273.733 193.867L280.667 192.267L274.667 192.134C271.067 192 266.4 193.067 263.2 194.8Z" fill="black"/>
<path d="M364.667 193.867C368.4 194.8 373.333 196.667 375.867 198.133C382 201.733 395.2 222 406 244.667C422.933 280.133 424.667 283.2 431.867 291.733C435.733 296.4 439.2 299.867 439.6 299.467C440.133 298.933 434.667 291.067 430 285.867C429.333 285.067 425.6 277.867 421.733 269.867C418 261.867 411.6 248.267 407.6 239.733C400 223.867 390.267 208.267 382.8 200.267C377.733 194.8 371.067 192 363.733 192.133L358 192.267L364.667 193.867Z" fill="black"/>
<path d="M279.333 196.267C268.667 200 261.2 209.334 248.8 234.134C241.6 248.667 236.133 258.8 223.867 280C222.8 281.867 220 285.6 217.467 288.534C215.067 291.334 211.467 297.067 209.467 301.2C206.267 308.267 206 309.867 206.133 327.334C206.267 353.467 211.733 383.6 220.667 407.2C226.933 423.734 232.8 428.934 243.6 427.467C252.4 426.267 255.467 424.134 248.4 424C235.467 424 226.533 408.8 220.8 376.667C212.667 331.067 212.667 309.2 221.067 292.667C223.067 288.8 227.6 280.8 231.2 275.067C239.467 261.734 254.133 233.734 255.2 229.067C255.6 227.067 256.8 224.667 257.733 223.734C258.667 222.8 261.333 218.934 263.733 215.067C269.6 205.867 277.333 199.2 283.867 197.334C286.933 196.534 289.333 195.6 289.333 195.334C289.333 194.267 283.467 194.8 279.333 196.267Z" fill="black"/>
<path d="M350 195.999C350.4 196.666 352 197.332 353.467 197.332C359.733 197.332 369.067 205.332 376 216.666C377.733 219.599 380 222.799 380.933 223.732C381.867 224.666 382.667 226.532 382.667 227.599C382.667 230.399 399.867 263.332 407.6 275.199C416.8 289.332 421.2 298.532 422.667 306.532C425.467 321.332 423.467 350.132 418 374.666C416.8 380.132 415.2 387.332 414.667 390.666C412.667 401.732 407.867 412.132 402 418.132C397.333 423.066 395.467 423.999 391.2 424.132L386 424.266L390 425.999C398.133 429.732 406.8 427.466 411.733 420.399C422.133 405.199 432.267 360.399 432.533 327.999C432.667 309.732 432.533 308.266 429.2 301.199C427.2 297.066 423.467 291.199 420.667 288.266C418 285.199 414.667 280.799 413.467 278.399C412.133 275.999 408.133 268.532 404.4 261.999C400.8 255.332 393.333 241.332 388 230.799C376.267 207.866 368.4 198.799 358.4 196.266C350.8 194.266 348.933 194.266 350 195.999Z" fill="black"/>
<path d="M289.733 200.001C282.933 204.001 273.867 217.601 264.133 238.001C259.2 248.267 254.4 258.801 253.467 261.334C252.4 263.867 249.733 271.201 247.2 277.467C244.8 283.734 242.133 292.667 241.467 297.467C238.533 314.801 240.267 347.601 245.333 372.001C247.867 383.867 256 408.401 258.533 411.334C261.867 415.334 268.133 418.401 276.133 420.134C280.133 420.934 287.067 423.467 291.733 425.734C296.267 427.867 300.4 429.467 300.667 429.067C301.067 428.667 294.133 425.067 285.333 420.934C271.067 414.267 268.933 412.801 265.6 407.467C252.8 387.334 245.867 319.601 253.067 284.667C256.133 270.267 258 264.401 263.067 253.201C264.8 249.201 268.267 241.467 270.667 236.001C275.2 225.467 287.2 204.934 290.267 202.534C291.2 201.734 294.267 200.267 296.933 199.201C302 197.467 302 197.467 298 197.334C295.867 197.334 292 198.534 289.733 200.001Z" fill="black"/>
<path d="M307.067 199.334C304.8 200.267 301.333 203.467 299.467 206.267C295.067 212.934 286.667 233.067 286.667 237.067C286.667 238.801 285.467 244.934 284 250.801C278.933 270.401 277.067 288.667 277.067 316.667C277.067 349.601 280.4 376.934 288.133 405.601C289.733 411.601 300.667 425.201 307.067 429.201C313.333 433.068 314.933 432.668 309.733 428.668C301.867 422.401 295.467 408.001 291.467 387.334C287.333 366.001 286.4 347.601 287.067 307.067C287.733 271.734 288.133 265.467 291.2 250.134C295.6 227.067 302 208.934 307.6 202.934C310 200.401 311.867 198.134 311.733 197.867C311.467 197.734 309.467 198.401 307.067 199.334Z" fill="black"/>
<path d="M326.667 197.867C326.667 198.134 328.667 200.4 331.067 202.934C336.267 208.667 341.733 222.934 346.133 243.067C350.8 264.4 352.667 306.134 350.8 347.2C349.333 377.6 347.067 394 342.133 407.6C339.467 415.2 331.467 427.467 328 429.334C326.4 430.134 325.467 431.2 325.867 431.6C327.333 433.067 336.4 426 342.533 418.667C348.4 411.6 349.2 409.867 353.067 393.734C359.067 368.667 361.6 347.2 361.6 318.667C361.733 290.134 360 273.734 354.667 251.334C352.667 242.534 350.533 233.2 350.133 230.667C348.667 222.267 338.4 203.6 333.467 200.4C329.333 197.6 326.667 196.534 326.667 197.867Z" fill="black"/>
<path d="M342 199.334C344.933 200.401 347.467 201.334 347.733 201.334C349.2 201.334 364 226.534 368.267 236.267C371.067 243.067 374.933 251.601 376.667 255.201C379.867 262.267 380.667 264.801 385.6 284.667C393.333 316.134 385.6 389.334 372.533 408.534C369.867 412.534 365.867 414.934 351.867 421.601C342.4 426.134 334.933 430.001 335.2 430.267C335.467 430.534 338 429.867 340.667 428.801C343.333 427.601 346.267 427.067 347.067 427.601C347.867 428.134 348 427.734 347.467 426.801C346.8 425.734 347.067 425.201 348.133 425.467C349.2 425.601 350.933 425.601 352 425.467C353.733 425.334 353.733 425.201 352 423.867C350.4 422.667 350.533 422.534 353.067 423.067C354.667 423.467 355.733 423.334 355.333 422.801C355.067 422.134 358.133 420.934 362.267 420.001C378.267 416.534 380.933 413.334 388.533 389.601C395.2 368.934 398 348.667 398 321.334C398 293.867 397.467 290.801 387.733 268.001C364.8 213.734 353.733 197.201 340.4 197.334C337.067 197.467 337.2 197.601 342 199.334Z" fill="black"/>
<path d="M318.133 200.8C313.733 214.667 314 417.333 318.4 429.333L319.6 432.533L320.533 428.933C323.6 416.667 324.933 286.933 322.667 232.933C321.333 203.867 320.133 194.667 318.133 200.8Z" fill="black"/>
<path d="M446.8 234.666C446.8 235.733 448 239.066 449.467 241.999C450.8 244.933 451.6 245.866 451.2 244.133C449.867 239.199 446.8 232.399 446.8 234.666Z" fill="black"/>
<path d="M446.8 245.733C446.667 247.067 447.867 250.667 449.2 253.733C450.533 256.8 453.6 264.667 455.867 271.333C458.133 277.867 460.667 284.533 461.333 286C462 287.467 464.8 294.933 467.467 302.667C470.133 310.4 472.8 317.2 473.467 317.867C474.8 319.333 467.6 297.867 458.267 272.667C450.133 250.533 446.8 242.933 446.8 245.733Z" fill="black"/>
<path d="M187.067 254.932C183.6 263.199 176.267 283.332 170 301.332C167.6 308.266 165.2 315.199 164.667 316.666C163.867 318.666 164 318.932 165.2 317.999C166 317.199 168.667 310.532 171.2 303.332C178.267 282.932 187.867 256.932 189.467 253.732C190.267 252.266 190.8 250.266 190.4 249.332C190.133 248.532 188.667 250.932 187.067 254.932Z" fill="black"/>
<path d="M453.333 253.201C453.333 254.001 453.867 254.934 454.667 255.334C455.467 255.734 455.6 255.201 455.2 254.134C454.267 251.734 453.333 251.334 453.333 253.201Z" fill="black"/>
<path d="M446.8 262.132C446.667 263.599 450.267 273.999 454.667 285.066C459.067 296.266 462.667 305.599 462.667 305.866C462.667 307.599 466.933 316.132 467.6 315.599C468 315.199 464.267 304.399 459.333 291.732C446.4 258.132 446.8 258.932 446.8 262.132Z" fill="black"/>
<path d="M154 322.933C148.933 325.6 148 328.267 148 339.2C148 355.467 153.867 392.8 160.933 421.333C165.733 440.933 175.067 458 183.2 461.867C187.733 464 188.133 464 193.067 461.467C195.867 460 198.933 457.867 199.867 456.8C201.467 454.8 201.2 454.8 197.067 456.533C192.933 458.4 192.133 458.267 188.4 456C174.533 447.6 162.4 412 157.067 364.667C154.8 343.467 154.8 326.4 157.2 323.6C159.2 321.067 157.867 320.8 154 322.933Z" fill="black"/>
<path d="M482.267 324.266C485.067 331.999 482.533 364.133 476.533 397.333C474.4 409.066 467.067 432.799 463.2 440.399C457.067 452.399 448.667 459.333 442.933 457.199C437.867 455.333 438 456.666 443.067 459.866C448.533 463.199 453.6 463.466 458.133 460.533C463.067 457.199 471.333 442.133 475.2 429.333C484.667 397.866 493.2 340.799 490.133 328.933C489.6 326.799 487.6 324.533 485.2 323.199C481.067 321.199 481.067 321.199 482.267 324.266Z" fill="black"/>
<path d="M128.533 333.867C126.267 335.6 126 337.334 126.4 354.267C127.2 397.067 144.133 462.8 158.267 477.6C163.067 482.534 166.933 483.2 173.867 480C177.2 478.534 180.267 476.667 180.667 476C181.2 475.2 179.467 475.6 176.8 476.8C172.933 478.667 171.6 478.8 168.133 477.467C162.4 475.067 160.933 472.934 154.133 456.934C141.6 427.6 129.467 366.934 130.933 341.334C131.2 336.134 131.333 332 131.333 332C131.2 332 130 332.8 128.533 333.867Z" fill="black"/>
<path d="M507.2 349.733C506.933 393.599 486.267 468.266 472.133 476.533C468.4 478.666 467.067 478.933 463.6 477.599C457.733 475.333 457.467 476.799 463.333 479.199C470.933 482.399 476.267 481.999 480.267 477.599C488.267 469.199 497.333 445.066 503.867 414.666C509.6 388.399 514.267 347.999 512.533 340.399C511.6 336.533 509.6 333.333 508.133 333.333C507.733 333.333 507.333 340.666 507.2 349.733Z" fill="black"/>
<path d="M110 343.199C107.867 344.799 107.6 346.399 108.4 359.466C109.6 380.799 116.267 420.266 123.733 449.466C125.2 454.932 127.067 462.266 127.867 465.999C130 474.932 137.867 490.266 143.067 495.732C146.8 499.599 148 500.132 153.6 499.866C158.133 499.599 160.133 498.932 160.667 497.332C161.067 496.132 163.2 493.866 165.333 492.266C167.6 490.532 169.333 488.532 169.333 487.732C169.333 486.799 168.667 487.066 167.733 488.266C164.8 491.732 157.733 495.999 154.533 495.999C147.2 495.999 136.133 478.132 130.133 456.666C121.067 423.732 110.267 356.132 112.533 345.066C113.333 340.799 113.333 340.666 110 343.199Z" fill="black"/>
<path d="M525.867 355.201C525.467 376.801 515.467 434.001 507.067 461.334C503.067 474.801 496 488.001 490.533 492.668C486.667 495.868 478.667 497.334 478.667 494.801C478.667 494.134 477.6 493.201 476.4 492.668C474.933 492.134 475.467 493.334 477.867 495.868C483.467 501.734 490 501.601 495.6 495.601C501.2 489.734 509.067 474.134 510.667 465.468C511.333 461.468 513.2 454.268 514.533 449.468C520.133 430.401 528.533 383.601 530.133 361.868C531.067 348.801 530.4 343.334 527.733 342.268C526.4 341.868 526 344.934 525.867 355.201Z" fill="black"/>
<path d="M96.1333 350.533C93.0666 352.533 95.8666 381.333 103.6 423.333C110.133 459.999 117.067 483.733 127.467 506.133C129.467 510.133 136.533 514.666 141.067 514.666C142.4 514.666 144.667 513.733 146.133 512.666C148.533 510.933 148.267 510.799 142.533 510.666C133.6 510.666 130.533 506.666 122.8 485.333C112.133 455.466 100.933 399.066 98.9333 364.399C98.1333 351.999 97.7333 349.599 96.1333 350.533Z" fill="black"/>
<path d="M540.4 359.866C539.467 391.599 526.133 458.666 515.333 485.999C512.8 492.533 510.667 498.533 510.667 499.333C510.667 500.133 508.8 502.933 506.533 505.733C502.933 510.133 501.867 510.666 496.267 510.666C489.6 510.666 489.867 512.666 496.667 513.999C505.333 515.599 510.533 509.199 519.6 485.333C529.333 459.866 542.533 389.199 542.667 362.399C542.667 347.999 540.8 345.866 540.4 359.866Z" fill="black"/>
<path d="M89.2 356.267C88.2667 360.4 90 381.734 92.5333 399.334C95.0667 416.667 95.2 404.534 92.6667 382.934C91.6 373.6 90.5333 362.934 90.4 359.334C90.1333 354.267 89.8667 353.467 89.2 356.267Z" fill="black"/>
<path d="M548.267 361.333C548.133 366.133 546.8 378.933 545.333 390C542.667 410.667 541.867 423.333 544 412.667C546.8 398.933 549.467 372.933 548.933 363.333C548.533 352.8 548.533 352.8 548.267 361.333Z" fill="black"/>
<path d="M95.3333 422.667C96.1333 434.801 104.933 474.667 110.533 491.867C117.467 512.667 126 525.334 133.333 525.334C136.133 525.334 139.067 523.467 144.267 518.534C148.8 514.134 149.333 513.467 145.733 516.534C135.2 525.334 130.8 524.934 123.2 513.867C114.4 500.934 106.4 474.401 97.8667 429.334C94.9333 413.601 94.6667 413.201 95.3333 422.667Z" fill="black"/>
<path d="M540.8 428.267C539.067 441.334 530.8 476.667 526.133 490.134C520.933 505.867 519.867 507.867 513.6 516.267C508.267 523.334 504 524.534 498 520.534C496.133 519.334 494.667 518.801 494.667 519.201C494.667 520.667 503.2 525.334 506.133 525.334C509.333 525.334 515.733 518.801 520.4 510.667C527.333 498.534 540.133 451.067 542.267 429.601C543.2 419.601 542 418.534 540.8 428.267Z" fill="black"/>
<path d="M153.333 506.666C150.8 508.799 149.333 510.533 150.133 510.666C150.8 510.666 153.2 508.799 155.333 506.666C160.267 501.599 159.2 501.466 153.333 506.666Z" fill="black"/>
<path d="M523.333 513.333C518.133 524.266 512.133 529.866 506.533 529.066C502.667 528.399 502.533 528.533 504.667 530.266C507.867 532.533 508.133 532.533 513.333 528.933C517.467 526.266 529.2 507.466 527.733 505.999C527.467 505.599 525.467 508.933 523.333 513.333Z" fill="black"/>
<path d="M486 509.333C486.4 509.999 487.467 510.666 488.133 510.666C488.933 510.666 489.067 509.999 488.667 509.333C488.267 508.533 487.2 507.999 486.533 507.999C485.733 507.999 485.6 508.533 486 509.333Z" fill="black"/>
<path d="M116.267 517.6C120.267 524.8 127.467 532 130.667 532C131.2 532 133.067 530.8 134.8 529.2C137.867 526.667 137.867 526.533 135.067 527.867C128.267 531.2 122.4 527.467 116.533 515.733C114.8 512.133 112.933 509.333 112.533 509.333C112.133 509.333 113.867 513.067 116.267 517.6Z" fill="black"/>
</svg>
