<svg width="640" height="640" viewBox="0 0 640 640" fill="none" xmlns="http://www.w3.org/2000/svg">
<path d="M241.6 188.134C242.4 188.667 242.267 189.334 241.2 189.734C240 190.134 239.867 190.534 240.934 190.534C241.734 190.667 239.2 193.734 235.2 197.6C228.134 204.267 221.734 212.8 222.934 214.134C223.334 214.4 225.2 212.267 227.334 209.334C231.734 202.934 243.2 192 245.6 192C246.8 192 246.8 191.6 245.334 190.534C243.734 189.467 244 189.334 246.667 189.867C248.534 190.267 250.8 190.667 251.867 190.667C252.934 190.667 250.934 192.534 247.467 194.8C241.067 199.067 235.067 205.734 228.534 216C226.4 219.334 224.267 222.134 223.734 222.4C223.067 222.667 222.667 223.734 222.667 224.667C222.667 225.6 216.934 238.134 209.867 252.534C202.8 266.934 197.334 279.067 197.734 279.467C198.534 280.4 222.667 232.934 222.667 230.534C222.667 229.6 226.134 223.867 230.4 217.6C238.8 205.2 250.267 193.867 255.734 192.4C258.934 191.6 259.067 191.467 256.667 190.534C254.267 189.6 254.4 189.467 257.334 189.334L260.667 189.067L257.334 188.134C255.467 187.467 253.467 187.6 252.8 188.267C252 188.8 250.534 189.334 249.467 189.2C248 189.2 248.134 188.8 250 188C251.867 187.334 250.8 187.067 246.4 187.2C243.067 187.2 240.8 187.734 241.6 188.134Z" fill="black"/>
<path d="M381.333 188L378 189.067L381.333 189.334C384.267 189.467 384.4 189.6 382 190.534C379.733 191.467 379.867 191.6 383.2 192.534C388.533 193.867 400 205.2 408 216.8C411.6 222.267 414.667 227.334 414.667 228C414.667 230.4 440.133 280.267 440.933 279.467C442.4 278 409.733 214.134 403.6 206.534C400.4 202.534 394.8 197.2 391.333 194.934C386.933 192 385.733 190.667 387.467 190.667C389.6 190.667 389.733 190.4 388 189.2C386.4 188.134 386.933 187.867 390 188.4C392.267 188.8 395.2 189.6 396.667 190C398.667 190.667 398.8 190.534 397.467 189.6C396.267 188.8 396.133 188.134 397.2 187.867C400.133 186.8 384.533 187.067 381.333 188Z" fill="black"/>
<path d="M234.932 188.933C234.132 189.2 233.599 190 233.999 190.533C234.266 191.066 231.866 194.133 228.666 197.333C221.466 204.4 220.532 202.933 227.599 195.733C230.266 192.933 231.866 190.666 231.199 190.666C229.066 190.666 223.732 197.066 216.666 208C213.066 213.466 209.066 219.6 207.866 221.6C206.532 223.466 202.666 231.333 199.332 238.933C195.999 246.4 192.532 254 191.732 255.6C190.932 257.333 190.532 258.933 190.932 259.333C191.332 259.733 194.799 252.8 198.666 243.866C207.466 224.133 221.199 201.6 222.799 204.266C223.332 205.066 224.666 204.133 226.132 202C227.466 200 230.932 196.533 233.866 194.533C236.666 192.4 238.266 190.666 237.199 190.666C235.732 190.666 235.732 190.4 237.332 189.333C239.466 188 237.866 187.733 234.932 188.933Z" fill="black"/>
<path d="M401.333 189.333C402.933 190.399 402.933 190.666 401.466 190.666C400.533 190.666 402.133 192.666 405.333 194.933C411.466 199.733 423.599 218.133 431.466 234.666C437.999 248.133 444.799 262.933 445.733 265.333C446.399 267.066 446.533 267.066 446.533 265.333C446.799 261.866 429.733 226.666 421.866 214.266C413.733 201.466 412.799 196.533 420.799 208.533C423.466 212.666 425.999 215.999 426.266 215.999C427.066 215.999 425.999 214.266 419.466 204.666C412.933 194.933 409.333 190.666 407.466 190.666C406.799 190.666 408.133 192.799 410.666 195.333C413.066 197.866 414.799 200.266 414.399 200.666C413.999 201.066 410.933 198.399 407.599 194.666C404.266 191.066 401.066 187.999 400.399 187.999C399.866 187.999 400.266 188.666 401.333 189.333Z" fill="black"/>
<path d="M373.066 190.266C373.999 190.666 375.199 190.533 375.599 190.133C376.132 189.733 375.332 189.333 373.866 189.466C372.399 189.466 371.999 189.866 373.066 190.266Z" fill="black"/>
<path d="M265.999 191.865C256.532 194.132 250.532 199.465 239.732 214.532C231.065 226.665 222.665 241.199 222.665 243.865C222.665 244.799 218.799 252.799 213.999 261.599C209.199 270.399 205.465 277.999 205.865 278.399C206.265 278.665 208.132 276.399 209.999 273.199C219.065 257.999 222.665 251.599 222.665 250.399C222.665 247.732 234.799 225.599 241.199 216.799C251.465 202.665 258.132 196.265 264.399 194.532C267.465 193.732 271.465 192.532 273.332 191.999L276.665 190.932H273.332C271.465 190.932 268.265 191.332 265.999 191.865Z" fill="black"/>
<path d="M364.665 191.865C366.132 192.532 369.599 193.599 372.532 193.999C382.399 195.599 400.265 216.932 410.665 239.332C415.599 249.866 415.599 249.866 423.999 265.199C427.332 271.466 430.799 276.666 431.599 276.932C432.532 277.332 428.932 269.732 423.865 260.266C418.799 250.666 414.665 242.132 414.665 241.332C414.665 236.266 393.199 204.799 385.732 198.932C378.532 193.465 376.265 192.399 368.665 191.465C363.999 190.932 362.799 191.065 364.665 191.865Z" fill="black"/>
<path d="M395.332 193.066C400.799 196.399 411.465 208.533 415.065 215.333C417.599 220.266 437.999 261.333 444.532 274.666C446.665 279.199 446.665 279.199 445.865 275.333C445.465 273.199 441.599 263.999 437.199 254.933C432.932 245.866 429.332 237.999 429.332 237.466C429.332 236.933 426.399 231.599 422.799 225.599C419.199 219.599 415.199 212.666 413.999 210.133C411.199 204.399 397.065 190.666 393.732 190.666C391.999 190.666 392.399 191.333 395.332 193.066Z" fill="black"/>
<path d="M273.865 194.666C266.932 196.266 257.865 203.866 252.665 212.133C249.999 216.4 247.065 220.666 246.132 221.6C244.532 223.2 231.865 245.333 222.665 262.4C220.799 265.866 216.799 272 213.732 276C207.065 284.8 205.332 290.8 205.332 304.266C205.332 333.066 219.332 400.666 228.532 416.266C235.199 427.6 241.199 431.466 250.665 430.666C256.399 430.266 258.665 428.133 253.332 428C249.599 428 247.599 426.8 241.865 420.666C231.732 410 226.399 394.133 219.999 356.666C213.732 319.066 213.065 294.266 218.265 282.533C219.999 278.666 225.332 272.133 232.265 265.2C244.399 253.333 250.399 245.2 254.665 235.466C258.265 226.933 271.199 208.933 277.599 203.466C280.532 200.933 285.065 198.266 287.732 197.6C292.265 196.4 292.399 196.266 288.932 196.133C283.865 196 276.265 200.133 270.532 206.266C264.532 212.533 254.665 226.133 254.665 227.866C254.665 230.133 241.999 250.933 237.065 256.666C231.732 262.933 225.999 268.533 221.065 272.133L217.332 274.8L220.399 270.133C221.999 267.466 225.732 261.6 228.799 256.933C231.732 252.4 237.065 243.466 240.532 236.933C243.999 230.533 247.732 224.533 248.665 223.466C249.599 222.533 251.599 219.733 252.932 217.2C259.465 204.933 267.065 198.4 278.265 195.333C285.065 193.466 281.199 192.8 273.865 194.666Z" fill="black"/>
<path d="M359.733 195.199C367.733 197.333 376.266 202.666 380.133 208.133C381.466 210.133 382.666 212.133 382.666 212.533C382.666 213.066 384.933 216.533 387.866 220.399C390.666 224.266 395.2 231.466 398 236.666C400.8 241.733 405.733 249.999 408.933 254.933C412.133 259.866 414.666 264.266 414.666 264.666C414.666 265.199 416 267.466 417.6 269.599C420.133 273.333 420.133 273.466 417.866 272.266C414.533 270.399 405.6 261.866 400.933 255.999C396.933 251.066 382.666 227.599 382.666 225.999C382.666 224.266 371.066 208.799 366.4 204.399C361.466 199.599 353.733 195.999 349.066 196.133C346.133 196.266 346.133 196.266 349.333 197.199C355.733 199.199 360.933 202.533 365.466 207.733C372.8 216.133 380.133 226.799 382.8 232.933C387.2 243.333 394.933 253.866 406.4 265.333C422.533 281.466 423.333 283.599 423.2 309.999C423.066 326.933 422.266 335.466 419.333 351.333C417.333 362.266 415.2 374.266 414.666 377.999C413.2 387.866 405.733 409.333 401.733 415.066C396.133 423.066 389.866 427.999 384.933 427.999C381.733 427.999 381.2 428.399 382.666 429.333C383.733 429.999 387.466 430.666 390.933 430.666C396.133 430.666 398.133 429.866 401.866 426.666C407.466 421.733 413.466 411.866 414.8 405.333C415.333 402.799 417.6 394.399 419.866 386.933C424.8 369.999 428.666 351.066 431.333 330.266C434.933 302.133 433.466 286.133 426.8 278.266C421.466 271.999 414.666 261.733 414.666 259.866C414.666 258.933 413.866 257.199 412.8 256.133C411.733 254.933 407.6 247.999 403.6 240.666C395.466 225.466 383.6 207.866 377.866 202.266C372.266 196.799 368 194.933 359.866 194.133L352.666 193.466L359.733 195.199Z" fill="black"/>
<path d="M292.399 199.599C287.999 201.999 282.133 208.799 277.066 217.199C275.466 219.866 273.733 222.266 273.333 222.666C271.599 224.132 247.866 266.932 245.466 272.932C240.799 284.932 239.599 296.399 240.399 318.532C241.466 347.466 247.599 380.132 256.799 406.266C259.333 413.066 267.466 420.666 274.266 422.532C277.066 423.199 283.866 425.066 289.333 426.532C294.799 427.999 299.466 428.932 299.733 428.666C299.999 428.532 295.333 426.532 289.333 424.399C276.533 419.999 270.399 415.332 266.133 406.799C261.333 397.332 255.999 378.532 254.666 366.266C253.999 360.266 252.799 350.532 251.866 344.666C250.933 338.799 250.266 324.399 250.133 312.666C250.133 282.532 252.933 269.866 264.933 246.932C269.866 237.599 276.666 225.332 280.266 219.732C283.733 213.999 286.666 208.799 286.666 208.132C286.666 206.266 295.199 199.999 299.599 198.666C303.333 197.599 303.333 197.599 299.999 197.466C298.133 197.332 294.666 198.399 292.399 199.599Z" fill="black"/>
<path d="M309.332 198.399C302.799 200.532 289.199 222.666 287.199 234.532C286.799 237.199 285.066 245.332 283.332 252.666C278.266 273.466 276.932 286.666 277.066 313.999C277.066 340.799 279.599 367.066 284.132 386.399C285.466 392.399 286.666 398.799 286.666 400.399C286.666 407.999 297.866 423.732 307.332 429.599C313.332 433.199 313.999 432.532 308.932 427.999C299.866 420.132 294.399 405.466 289.732 377.466C286.932 360.132 285.732 289.599 287.999 270.399C291.599 238.132 301.466 206.399 309.599 200.799C312.666 198.532 312.532 197.332 309.332 198.399Z" fill="black"/>
<path d="M326.665 198.4C326.665 198.933 327.865 200.133 329.332 201.066C334.665 204.266 341.599 222.133 346.665 245.333C350.532 262.666 352.399 298.133 351.332 334.666C349.732 388.8 343.199 416.8 329.465 428.133C324.665 432 325.065 433.2 330.132 430.266C338.665 425.333 348.532 413.333 349.999 406.4C350.399 404 352.265 396 353.999 388.666C358.799 368.266 361.599 342.133 361.599 314.666C361.732 286.266 360.132 270.8 354.532 249.733C352.399 241.466 350.665 233.733 350.665 232.533C350.665 228.533 339.065 206.133 335.199 202.533C331.199 198.933 326.665 196.666 326.665 198.4Z" fill="black"/>
<path d="M342.799 200.4C345.999 202.133 349.332 204.667 349.999 206.133C350.799 207.467 353.999 212.8 357.465 218C360.799 223.067 367.732 235.467 372.799 245.333C385.732 270.267 388.665 282.933 388.399 313.333C388.399 326.4 387.332 341.067 386.132 349.333C384.932 357.067 383.332 367.467 382.665 372.667C379.599 397.867 368.399 418.933 356.399 422C350.932 423.333 338.399 428.267 339.065 428.8C339.332 429.067 343.065 428.133 347.465 426.8C351.732 425.333 357.732 423.867 360.799 423.333C363.732 422.933 368.132 421.333 370.399 420C374.932 417.2 382.665 407.333 382.665 404.4C382.665 403.333 384.399 396.667 386.665 389.6C393.199 368.133 397.465 342 398.265 317.333C399.199 288 396.799 277.067 385.065 256.667C383.332 253.733 378.399 245.067 374.132 237.333C369.732 229.6 365.865 223.067 365.332 222.667C364.932 222.267 362.665 218.933 360.265 215.333C352.665 203.333 345.599 197.333 339.065 197.333C337.865 197.333 339.599 198.667 342.799 200.4Z" fill="black"/>
<path d="M318.133 200.8C313.733 214.667 313.999 417.333 318.399 429.333L319.599 432.533L320.533 428.933C323.599 416.667 324.933 286.933 322.666 232.933C321.333 203.867 320.133 194.667 318.133 200.8Z" fill="black"/>
<path d="M215.199 216.933C211.599 222.666 204.666 235.866 199.866 246.4C194.933 256.933 190.666 264.8 190.399 263.733C189.999 262.8 188.399 266.133 186.533 271.2C184.266 277.6 182.399 280.666 180.399 281.466C175.866 283.2 174.666 286.933 174.666 299.2C174.666 317.066 179.599 349.466 187.333 382C189.066 389.333 191.066 398.666 191.866 402.666C192.666 406.666 196.266 416 199.866 423.333C209.733 444 217.466 449.066 229.333 442.666L233.999 440.266L228.533 440.933C223.599 441.6 222.399 441.066 217.733 436.933C207.599 427.733 193.599 390.266 190.533 364.133C189.866 358 188.666 350.4 187.999 347.333C185.866 337.733 182.666 309.066 182.666 299.2C182.666 291.2 183.333 288.533 186.666 282.266C188.933 278.133 190.666 274 190.533 273.066C190.533 272.133 189.466 273.466 188.399 276C187.199 278.533 186.133 280 185.733 279.2C185.466 278.4 186.399 275.2 187.866 272.133C189.199 268.933 190.533 267.066 190.799 267.866C191.066 268.666 193.466 264.666 195.999 258.933C204.533 239.733 212.133 224.666 217.466 216.133C220.399 211.466 222.533 207.333 222.133 207.066C221.866 206.8 218.666 211.2 215.199 216.933Z" fill="black"/>
<path d="M220 218.667C219.067 220.534 217.733 222.267 217.2 222.667C214.8 224.267 190.133 278.534 191.333 279.734C191.6 280.134 193.2 277.467 194.8 273.867C200.667 260.134 218.933 223.2 220.933 221.067C222 219.867 222.667 218 222.4 217.067C222 216 221.2 216.534 220 218.667Z" fill="black"/>
<path d="M432.399 227.599C435.465 233.599 438.132 238.266 438.399 237.999C439.065 237.466 431.332 222.532 428.799 219.332C427.599 217.866 429.199 221.599 432.399 227.599Z" fill="black"/>
<path d="M440 243.332C440 243.999 440.667 245.599 441.333 246.665C442 247.732 442.667 247.999 442.667 247.332C442.667 246.532 442 245.065 441.333 243.999C440.667 242.932 440 242.532 440 243.332Z" fill="black"/>
<path d="M89.1995 265.865C88.2661 269.999 89.3328 285.999 92.2661 310.399C94.7995 331.999 95.1995 321.199 92.7995 296.799C91.5995 284.932 90.5328 272.265 90.2661 268.665C89.9995 263.065 89.8661 262.665 89.1995 265.865Z" fill="black"/>
<path d="M547.999 271.6C547.999 276.667 546.799 290.533 545.333 302.667C542.133 330 542.133 341.6 545.466 318C547.999 299.333 550.266 262.667 548.933 262.667C548.399 262.667 547.999 266.667 547.999 271.6Z" fill="black"/>
<path d="M541.466 267.2C540.399 268.934 539.999 271.067 540.533 271.734C541.599 273.467 538.133 309.067 534.666 332.134C528.666 372.4 522.399 406.267 515.999 432C513.733 441.2 511.333 451.867 510.533 455.6C507.066 474.4 494.666 497.2 485.866 500.8C481.866 502.534 480.799 502.4 476.933 500.667L472.666 498.534L476.666 501.867C485.466 509.467 493.999 504 503.333 484.8C506.666 478.134 509.733 470.534 510.133 468C510.533 465.467 512.399 457.867 514.266 451.334C526.933 405.467 541.866 314.267 542.933 276.934C543.199 269.867 543.333 264 543.199 264C543.199 264 542.399 265.467 541.466 267.2Z" fill="black"/>
<path d="M94.7989 271.865C93.9989 294.265 108.666 387.865 120.666 436.665C123.866 449.865 126.932 462.799 127.332 465.332C127.866 467.865 131.066 475.999 134.666 483.465C141.599 497.732 148.266 505.332 153.999 505.332C157.466 505.332 166.666 500.399 166.666 498.532C166.666 497.999 164.666 498.665 162.132 500.132C157.999 502.532 157.199 502.665 152.932 500.932C144.932 497.599 136.399 483.199 130.266 462.665C117.599 420.665 98.6656 310.799 98.6656 278.532C98.6656 271.599 98.1323 267.865 96.9323 266.799C95.4656 265.599 95.0656 266.532 94.7989 271.865Z" fill="black"/>
<path d="M533.333 267.999C532.266 268.666 531.866 269.599 532.399 270.133C532.933 270.666 534.133 270.399 534.933 269.599C536.933 267.599 535.866 266.399 533.333 267.999Z" fill="black"/>
<path d="M104 269.333C104 269.999 104.667 270.666 105.333 270.666C106.133 270.666 106.667 269.999 106.667 269.333C106.667 268.533 106.133 267.999 105.333 267.999C104.667 267.999 104 268.533 104 269.333Z" fill="black"/>
<path d="M446.799 269.333C446.666 270.399 448.799 275.733 451.466 281.199L456.399 290.933L455.599 307.199C455.199 315.999 453.199 332.266 451.332 343.333C449.332 354.266 447.199 367.199 446.666 371.999C444.932 384.399 436.799 410.399 430.666 422.533C424.266 435.466 417.599 441.866 411.199 441.066C405.599 440.399 405.599 440.666 410.666 443.333C421.066 448.666 429.066 443.333 438.266 424.666C441.599 418.133 445.066 408.399 446.132 403.333C447.199 398.133 449.199 389.733 450.666 384.666C457.199 360.799 463.999 316.266 463.999 297.999C463.999 285.733 462.666 282.933 455.999 280.666C452.666 279.466 451.066 277.866 449.199 273.199C447.866 269.999 446.799 268.266 446.799 269.333Z" fill="black"/>
<path d="M108.399 287.6C109.466 304.667 113.999 337.867 119.199 366.667C121.066 376.533 123.466 390.4 124.666 397.333C128.132 418.4 132.132 434.533 137.732 451.333C144.132 470.933 147.466 477.467 154.666 485.6C159.332 491.067 160.932 492 165.066 492C169.599 492 178.666 487.333 178.666 484.933C178.666 484.267 177.332 484.8 175.732 485.867C171.732 488.667 163.732 488.533 160.932 485.6C157.199 481.867 152.532 475.6 150.799 472.133C143.999 459.333 129.332 409.467 127.332 391.867C126.799 387.867 124.399 372.667 121.999 358C115.999 322 113.199 299.067 112.932 284.4C112.666 273.2 112.399 272 110.132 272C107.732 272 107.599 272.8 108.399 287.6Z" fill="black"/>
<path d="M118 273.333C118.4 273.999 119.466 274.666 120.133 274.666C120.933 274.666 121.066 273.999 120.666 273.333C120.266 272.533 119.2 271.999 118.533 271.999C117.733 271.999 117.6 272.533 118 273.333Z" fill="black"/>
<path d="M518 273.333C517.6 273.999 518.133 274.666 519.2 274.666C520.4 274.666 521.333 273.999 521.333 273.333C521.333 272.533 520.8 271.999 520.133 271.999C519.333 271.999 518.4 272.533 518 273.333Z" fill="black"/>
<path d="M525.867 285.734C525.6 300.8 522 328.667 515.867 363.334C513.6 375.734 511.2 390.134 510.534 395.334C508 414.4 495.6 457.2 488.534 470.8C485.334 477.334 476.4 487.6 473.467 488.4C472.134 488.667 468.8 488.267 466.134 487.334C460.134 485.2 460 485.867 465.734 489.334C473.067 493.867 477.6 492.934 484 485.6C496.4 471.6 504.134 448.134 514.667 392.667C523.334 347.067 529.067 308.134 530.267 286.267C531.067 272.8 530.934 272 528.534 272C526.267 272 526 273.2 525.867 285.734Z" fill="black"/>
<path d="M126.266 278.932C124.666 285.199 127.866 323.865 131.999 347.199C139.332 389.865 149.466 431.599 155.999 446.399C157.466 449.732 158.666 453.199 158.666 454.265C158.666 456.932 163.332 465.732 167.466 470.532C174.799 479.332 183.066 480.532 190.266 473.865C192.132 472.132 193.066 470.665 192.266 470.665C191.466 470.665 190.399 471.199 189.999 471.999C189.599 472.665 187.199 473.332 184.932 473.332C180.399 473.332 175.732 470.665 171.599 465.999C168.399 462.132 158.666 442.399 158.666 439.465C158.666 438.132 156.932 431.199 154.666 424.132C143.866 389.065 132.132 323.865 131.199 293.332C130.799 280.665 130.266 276.532 128.799 276.265C127.866 275.999 126.666 277.332 126.266 278.932Z" fill="black"/>
<path d="M507.199 293.199C507.066 330.399 487.066 426.666 473.866 453.999C466.666 469.199 459.866 474.666 450.266 472.799C446.266 472.133 446.133 472.133 448.666 473.999C453.599 477.866 460.133 478.799 464.399 476.266C473.599 470.933 477.599 462.933 487.999 429.466C498.533 395.866 509.333 338.133 511.599 303.066C513.066 281.199 512.666 276.133 509.466 276.399C507.599 276.533 507.333 278.666 507.199 293.199Z" fill="black"/>
<path d="M148.532 283.467C147.199 288.667 148.932 312.933 151.866 331.333C153.332 340.133 155.466 353.6 156.666 361.333C161.332 390.267 169.332 420.667 177.466 439.733C180.266 446.133 181.199 447.467 188.932 455.733C194.132 461.2 195.066 461.6 199.466 460.933C201.999 460.533 206.132 458.933 208.399 457.467L212.666 454.8L205.866 455.6C199.999 456.267 198.399 455.867 194.799 453.2C192.532 451.6 190.666 449.733 190.666 449.2C190.666 448.533 189.199 446 187.466 443.467C179.866 432.267 167.199 388.8 161.466 354.667C156.132 322 153.866 290.133 156.399 282.933C157.466 280.267 157.066 280 153.466 280C150.132 280 149.199 280.667 148.532 283.467Z" fill="black"/>
<path d="M482.266 282.932C482.799 284.665 483.199 291.865 483.199 299.065C482.932 310.665 481.866 321.732 477.199 354.665C473.332 382.532 458.399 433.332 451.199 443.065C449.466 445.465 447.599 448.399 447.199 449.599C445.866 453.332 436.266 457.332 432.266 455.865C430.532 455.199 428.666 454.932 428.399 455.199C427.332 456.265 438.266 461.332 441.466 461.332C443.999 461.332 451.866 454.265 456.666 447.865C461.599 441.332 472.932 407.865 476.532 389.999C487.066 335.732 492.532 293.065 490.132 283.465C489.466 280.665 488.532 279.999 485.199 279.999C481.599 279.999 481.199 280.265 482.266 282.932Z" fill="black"/>
<path d="M94.7993 334.133C94.5327 346.4 106.399 414.933 114.799 448.666C118.399 462.666 124.133 482.133 128.266 493.6C133.066 506.8 142.933 514.933 151.066 512.266C155.333 510.933 155.199 510.933 148.933 510.8C143.733 510.666 141.866 510 139.066 506.933C135.066 502.533 128.533 490.133 126.799 483.066C125.999 480.266 123.333 470.533 120.666 461.333C112.133 431.733 104.666 393.733 96.1327 336.666C95.066 329.466 94.9327 329.2 94.7993 334.133Z" fill="black"/>
<path d="M541.599 342.666C541.065 348.799 532.265 400.399 528.132 419.999C523.732 441.866 517.332 466.266 513.199 477.599C511.599 481.733 510.665 485.999 510.932 486.933C511.732 489.199 517.865 471.599 522.132 455.333C530.532 422.133 543.332 351.866 542.265 343.733C541.865 340.399 541.732 340.133 541.599 342.666Z" fill="black"/>
<path d="M506.8 495.733C505.067 499.466 502 504.266 499.867 506.533C496.8 510 495.067 510.666 489.733 510.8C483.733 510.933 483.6 510.933 487.067 512.266C494.4 514.933 501.333 510.8 507.2 500.133C509.2 496.4 510.667 492.266 510.4 491.066C510.133 489.733 508.667 491.6 506.8 495.733Z" fill="black"/>
<path d="M124 491.332C124 491.999 124.667 493.599 125.333 494.665C126 495.732 126.667 495.999 126.667 495.332C126.667 494.532 126 493.065 125.333 491.999C124.667 490.932 124 490.532 124 491.332Z" fill="black"/>
<path d="M512.8 492.666C511.6 496.133 511.867 496.933 513.467 494.266C514.267 492.933 514.667 491.466 514.267 491.2C514 490.8 513.334 491.466 512.8 492.666Z" fill="black"/>
<path d="M126.666 500.399C126.666 502.533 130.533 508.799 134.266 512.266C138.799 516.666 144.133 518.799 147.866 517.733C152.399 516.533 151.066 515.199 145.999 515.733C140.266 516.399 133.333 511.599 129.333 504.266C127.999 501.599 126.799 499.866 126.666 500.399Z" fill="black"/>
<path d="M509.332 503.999C509.332 506.265 498.532 515.999 495.865 515.999C494.532 515.999 493.332 516.532 493.332 517.199C493.332 517.999 494.932 517.999 497.332 517.199C502.799 515.199 513.865 502.665 509.999 502.665C509.599 502.665 509.332 503.199 509.332 503.999Z" fill="black"/>
<path d="M157.333 508.666C156.4 509.866 156.266 510.666 157.066 510.666C157.733 510.666 158.666 509.733 159.2 508.666C159.6 507.599 159.733 506.666 159.466 506.666C159.2 506.666 158.266 507.599 157.333 508.666Z" fill="black"/>
<path d="M479.334 509.333C479.734 509.999 480.8 510.666 481.467 510.666C482.267 510.666 482.4 509.999 482 509.333C481.6 508.533 480.534 507.999 479.867 507.999C479.067 507.999 478.934 508.533 479.334 509.333Z" fill="black"/>
</svg>
