<svg width="640" height="640" viewBox="0 0 640 640" fill="none" xmlns="http://www.w3.org/2000/svg">
<path d="M219.2 179.465C216.4 181.332 212.8 184.132 211.2 185.465C209.733 186.932 208 187.598 207.467 187.065C206.933 186.532 206.933 187.198 207.467 188.532C208.267 190.532 208.933 190.398 213.2 186.398C219.2 180.798 223.867 177.732 228.133 176.932C231.333 176.398 231.333 176.398 227.867 176.132C226 176.132 222 177.598 219.2 179.465Z" fill="black"/>
<path d="M410.8 177.199C416.4 178.932 420.4 181.466 425.867 186.532C429.867 190.132 430.667 190.532 429.067 187.999C426.133 183.332 414.933 175.999 410.8 176.132L407.333 176.266L410.8 177.199Z" fill="black"/>
<path d="M228.667 178.8C223.867 180.133 211.2 190.667 207.2 196.533C201.867 204.533 191.067 227.467 187.333 238.667C185.333 244.933 182.667 252.4 181.333 255.333C180 258.267 174.667 274 169.333 290.4C163.867 306.8 159.2 319.467 158.667 318.667C158.267 318 156.8 320.667 155.467 324.8C154.133 328.933 153.333 332.533 153.733 332.8C154 333.2 155.067 330.533 156 327.2C157.333 322.533 158 321.467 158.667 323.333C159.2 324.8 163.467 313.867 170.667 292.533C176.667 274.267 183.733 254.267 186.133 248.133C188.667 242 190.667 236 190.667 234.667C190.667 231.867 203.867 205.2 208.933 197.867C213.733 190.8 224.533 181.6 229.067 180.533C231.067 180.133 234.133 179.2 236 178.667L239.333 177.6H236C234.133 177.6 230.8 178.133 228.667 178.8Z" fill="black"/>
<path d="M402.667 178.533C404.533 179.2 407.467 180.133 409.333 180.533C413.733 181.467 426.133 191.867 429.733 197.467C431.333 200 435.733 208 439.6 215.333C443.467 222.667 446.533 227.733 446.667 226.667C446.667 225.6 443.2 218.133 439.067 210.133C428.667 190.133 417.467 179.467 405.333 178C400.8 177.467 400.133 177.6 402.667 178.533Z" fill="black"/>
<path d="M230 183.599C224.4 186.532 219.333 191.466 213.467 199.999C205.067 212.132 192.933 237.332 190.533 247.999C190 250.532 186.8 260.132 183.333 269.332C179.867 278.532 174.8 292.932 171.867 301.332C169.067 309.732 166.133 317.866 165.333 319.332C162.533 325.066 158.533 337.466 158.933 338.799C159.6 340.666 168.533 317.599 181.2 281.332C186.533 266.266 192.667 248.932 194.933 242.666C199.867 228.666 211.467 206.266 218.533 196.932C225.733 187.732 231.6 183.866 241.067 182.666L248.667 181.732L241.333 181.599C236.933 181.466 232.4 182.266 230 183.599Z" fill="black"/>
<path d="M396.933 182.666C411.067 184.266 418.533 191.333 431.067 214.666C437.867 227.066 444.8 243.333 446.667 250.666C447.867 255.599 468.533 313.466 470.667 317.999C471.333 319.466 473.467 324.533 475.2 329.333C477.067 334.133 478.533 336.933 478.533 335.733C478.667 334.399 477.467 330.266 475.867 326.399C474.4 322.533 470.8 312.666 468 304.666C465.067 296.533 459.733 281.599 456 271.333C452.267 261.066 448.133 249.066 446.8 244.666C442 228.133 426.933 200.266 418.133 191.199C410.4 183.466 405.6 181.333 396.4 181.466L388.667 181.733L396.933 182.666Z" fill="black"/>
<path d="M244 185.199C235.6 187.732 222.667 196.932 222.667 200.399C222.667 200.932 219.733 206.399 216.267 212.399C209.067 224.532 190.667 267.332 190.667 271.865C190.667 273.465 189.067 278.399 187.2 283.065C185.333 287.599 182.267 295.465 180.4 300.665C178.533 305.732 174.667 315.065 171.867 321.065C166.133 333.332 166.133 333.332 167.733 333.332C170 333.332 185.333 296.665 193.2 272.665C201.2 248.265 220.267 208.132 228.8 197.732C234.4 190.932 243.333 186.665 252.533 186.532C257.6 186.532 258.667 186.132 256.667 185.332C253.333 183.865 248.4 183.865 244 185.199Z" fill="black"/>
<path d="M382 185.199C380 186.132 380.933 186.532 386.133 186.532C389.867 186.666 395.733 187.866 398.933 189.332C404.533 191.732 414.667 201.199 414.667 203.866C414.667 204.532 417.467 209.999 420.8 215.999C424.267 221.999 429.333 232.399 432.267 239.199C435.067 245.866 438.267 253.066 439.333 255.332C440.267 257.466 442.4 263.466 444.133 268.666C451.733 292.532 467.6 330.799 470.667 332.666C472.667 333.999 472.267 332.666 467.333 322.399C461.067 309.066 448.4 276.132 446.667 268.666C445.867 265.332 442.667 256.266 439.333 248.532C436 240.799 433.333 234.266 433.333 233.866C433.333 233.199 421.867 211.732 415.733 201.066C412.267 194.932 409.2 191.999 402.267 188.532C395.2 184.932 386 183.466 382 185.199Z" fill="black"/>
<path d="M251.067 189.866C247.467 190.799 243.067 193.599 239.2 197.332C228.933 207.466 226.267 212.932 196.133 284.266C193.067 291.466 190.667 297.866 190.667 298.666C190.667 300.799 182.4 318.666 181.333 318.666C180.8 318.666 179.733 320.266 178.8 322.266C177.467 325.466 178 325.199 181.867 320.666C184.4 317.732 187.333 313.199 188.4 310.666C189.467 308.132 192.533 300.932 195.333 294.666C198 288.399 202.4 278.266 204.933 271.999C207.467 265.732 211.067 257.466 212.8 253.599C218.4 241.199 222.667 230.799 222.667 229.199C222.667 226.799 236.133 205.199 241.2 199.599C247.333 192.799 251.733 190.666 260.267 190.532C265.467 190.532 266.667 190.132 264.667 189.332C261.2 187.866 258 187.999 251.067 189.866Z" fill="black"/>
<path d="M374 189.332C372 190.132 373.2 190.532 378.4 190.532C386.533 190.666 389.467 191.999 395.733 197.866C400 201.732 414.667 223.999 414.667 226.399C414.667 227.466 422.933 247.066 427.467 257.066C428.667 259.466 431.467 266.399 434 272.399C436.4 278.399 440.267 287.199 442.533 291.999C444.8 296.799 446.667 301.466 446.667 302.399C446.667 305.199 452.933 316.266 457.333 321.332C461.067 325.599 461.333 325.732 459.867 322.266C458.933 320.266 457.867 318.666 457.333 318.666C456.133 318.666 448 300.932 446.667 295.466C446 293.199 443.733 287.066 441.467 281.999C439.333 276.799 434 264.532 429.867 254.666C425.733 244.799 420.667 233.066 418.533 228.532C416.4 223.999 414.667 219.999 414.667 219.466C414.667 217.332 402.8 200.399 398.4 196.266C395.467 193.466 391.067 191.199 386.533 189.999C378.4 187.732 377.733 187.732 374 189.332Z" fill="black"/>
<path d="M202.4 195.732C197.733 202.665 190.667 216.799 190.667 218.932C190.667 219.865 193.6 215.199 197.067 208.399C200.667 201.732 204.267 195.199 205.333 194.132C206.267 192.932 206.8 191.599 206.4 191.332C206 190.932 204.133 192.932 202.4 195.732Z" fill="black"/>
<path d="M264.4 192.266C251.333 195.066 235.2 219.999 219.2 261.333C210.133 284.933 195.067 310.533 183.867 321.466C179.6 325.599 177.067 329.466 176 333.466C172.267 346.799 178 391.199 186.133 413.999C188 419.066 189.867 424.799 190.267 426.666C191.6 432.133 198.267 440.799 202.667 442.666C207.333 444.533 215.733 442.933 218.667 439.333C220 437.733 219.467 437.599 215.6 438.266C211.867 438.799 210.267 438.266 206.4 434.799C201.333 430.399 194 416.533 192 407.466C186.667 384.399 182.667 356.799 182.667 343.999C182.667 331.333 185.333 324.266 195.067 311.599C208 294.666 222.667 268.133 222.667 261.733C222.667 260.666 223.467 258.133 224.533 256.266C225.6 254.266 230.4 244.533 235.2 234.666C244.933 214.533 255.733 199.199 262.667 195.733C265.2 194.399 270 193.333 273.333 193.199C278.267 193.066 278.8 192.933 276 191.999C271.867 190.666 271.2 190.666 264.4 192.266Z" fill="black"/>
<path d="M362 191.999C360 192.933 360.8 193.199 365.333 193.199C374.133 193.333 379.733 196.933 387.733 207.333C394.133 215.733 414.667 254.799 414.667 258.666C414.667 266.266 440 310.399 448.667 317.999C449.6 318.666 451.333 321.466 452.8 323.999C456.933 331.599 456.133 360.666 451.333 383.333C449.333 392.799 447.2 403.466 446.667 406.799C445.2 415.333 437.067 430.933 431.867 435.333C428.533 437.999 426.4 438.799 422.933 438.399L418.533 437.866L421.6 440.266C428.667 445.599 438.267 444.133 443.067 436.933C452.8 421.999 464 374.266 464 347.333C464 333.599 462.133 328.666 454.4 321.066C450.667 317.466 446.133 312.266 444.267 309.599C438.267 300.666 427.067 279.599 422 267.333C419.2 260.666 416.4 254.799 415.733 254.133C415.2 253.333 414.667 251.733 414.667 250.533C414.667 246.666 404.8 226.399 397.067 214.666C387.467 199.999 381.067 193.866 373.333 192.133C366.267 190.533 365.467 190.533 362 191.999Z" fill="black"/>
<path d="M432 191.198C432 191.732 433.067 193.865 434.533 195.732C435.867 197.732 439.2 203.465 441.867 208.665C444.533 213.732 446.667 217.065 446.667 215.998C446.667 214.798 444 209.198 440.667 203.332C434.667 192.798 432 189.065 432 191.198Z" fill="black"/>
<path d="M276.133 196.133C266.933 198.933 259.867 208.4 246 236.8C226.533 276.667 219.6 290.4 214.267 300C206.8 313.467 204.8 322.933 205.733 342C207.6 379.867 219.333 418.4 230.8 424.267C235.067 426.4 236.533 426.533 241.867 425.2C245.333 424.4 248.4 423.067 248.8 422.4C249.333 421.6 248.667 421.333 247.067 421.867C238.133 424.667 225.867 409.867 222.667 392.4C222 388.933 220.267 379.333 218.667 371.333C215.067 352.133 213.733 326.933 215.867 315.733C218 304.8 220 300.267 238.933 262C247.6 244.267 254.667 229.067 254.667 228C254.667 225.333 266.8 206.933 271.2 202.8C273.067 201.067 277.733 198.533 281.6 197.2C287.333 195.333 288 194.8 284.667 194.933C282.533 194.933 278.667 195.467 276.133 196.133Z" fill="black"/>
<path d="M357.067 197.199C360.933 198.532 365.6 201.065 367.467 202.799C371.6 206.665 382.667 223.065 382.667 225.199C382.667 226.132 390.4 242.665 400 261.999C409.467 281.332 418.533 301.065 420.133 305.599C425.867 321.999 424.533 356.932 417.333 384.132C415.867 389.599 414.667 395.199 414.667 396.665C414.667 400.932 408.4 413.065 404.4 416.799C400.133 420.799 394.933 423.065 392.4 422.132C391.467 421.732 390.667 421.865 390.667 422.532C390.667 424.132 395.6 425.332 402.133 425.332C408 425.332 414.667 420.799 414.667 416.665C414.667 415.599 415.2 414.665 415.867 414.665C419.2 414.665 428.133 383.065 431.2 360.265C435.333 330.799 433.333 315.465 423.067 297.865C415.2 284.265 411.867 277.465 392 235.199C388.533 227.732 385.067 221.332 384.133 220.799C383.333 220.265 382.667 218.799 382.667 217.599C382.533 214.132 373.867 203.065 368.267 199.332C365.333 197.465 360.533 195.732 356.667 195.332L350 194.665L357.067 197.199Z" fill="black"/>
<path d="M287.867 200.399C285.333 201.999 280.8 207.333 277.6 211.999C274.533 216.799 271.467 221.199 270.933 221.999C270.4 222.666 269.467 224.266 269.067 225.333C268.533 226.399 265.2 234.266 261.467 242.666C257.733 250.933 254.667 258.533 254.667 259.333C254.667 259.999 252.267 266.933 249.333 274.666C241.6 294.666 239.6 308.133 240.4 332.666C241.333 360.266 244.667 377.066 254 402.666C257.333 411.733 260.267 414.133 272.4 417.333C278.4 418.933 286.667 422.266 290.8 424.666C294.933 427.066 299.733 429.466 301.467 429.999C306.4 431.333 282.933 418.133 275.733 415.333C263.867 410.933 256.8 394.399 252.4 361.333C248.133 328.266 249.733 295.866 256.933 270.666C260.667 257.599 274.4 225.866 281.333 214.266C288 203.199 291.333 200.266 299.333 198.266C300.933 197.866 300 197.599 297.2 197.466C294.267 197.333 290.667 198.533 287.867 200.399Z" fill="black"/>
<path d="M307.333 199.199C301.733 201.599 299.467 204.665 294.133 216.265C289.2 226.932 288.533 229.065 283.467 253.332C278.267 277.999 276.933 292.399 277.067 319.999C277.2 355.332 282.4 391.732 289.6 407.999C292.933 415.465 301.333 425.599 307.2 429.332C313.733 433.199 314 432.665 308.4 426.932C299.333 417.999 294.8 406.132 289.867 379.332C286.933 363.465 285.6 293.065 287.867 273.065C291.733 239.332 300.267 209.332 308.133 202.265C313.067 197.732 312.8 196.932 307.333 199.199Z" fill="black"/>
<path d="M326.667 197.999C326.667 198.399 328.533 200.399 330.667 202.399C335.867 207.066 341.6 222.266 346.133 243.332C355.067 285.332 352.8 377.732 342.133 407.599C339.467 415.199 331.467 427.466 328 429.332C326.4 430.132 325.467 431.199 325.867 431.599C328 433.866 343.333 419.466 347.867 410.932C350.933 405.199 357.2 378.266 359.467 361.332C362.267 339.732 362.4 296.666 359.467 277.332C353.467 235.866 343.867 207.332 333.467 200.399C329.067 197.466 326.667 196.532 326.667 197.999Z" fill="black"/>
<path d="M342.4 199.066C348.533 201.466 351.733 204.8 358.4 216C364.667 226.4 379.333 260.8 381.333 269.733C382 272.8 383.6 279.466 384.667 284.533C390.267 308.933 390.267 335.866 384.533 370.666C379.6 401.2 374.533 410.533 359.867 416.666C351.6 420.133 332.4 431.333 337.2 430C339.067 429.466 342.267 427.866 344.533 426.533C349.467 423.466 352.4 423.2 348.667 426.133C346.133 428.266 346.133 428.266 349.333 427.333C353.067 426.266 357.467 422.666 355.067 422.666C354.267 422.666 353.333 423.333 353.067 424.266C352.667 425.466 352.267 425.466 351.6 424.4C350.267 422.266 353.6 420.666 366.133 417.333C380.8 413.466 380.8 413.333 389.333 388.666C397.333 365.333 400.933 324 396.933 300.933C393.6 281.733 376.4 237.333 364.8 218C356.667 204.4 350.8 198.8 343.2 198L338 197.333L342.4 199.066Z" fill="black"/>
<path d="M318.133 200.8C313.733 214.667 314 417.333 318.4 429.333L319.6 432.533L320.533 428.933C323.6 416.667 324.933 286.933 322.667 232.933C321.333 203.867 320.133 194.667 318.133 200.8Z" fill="black"/>
<path d="M447.067 221.333C447.467 222.4 449.467 227.2 451.467 232C453.467 236.8 458.533 250.533 462.8 262.666C467.067 274.8 470.533 284 470.533 283.2C470.8 279.6 451.2 225.866 448.267 222C447.2 220.533 446.667 220.266 447.067 221.333Z" fill="black"/>
<path d="M188.933 223.6C184.933 230 160.8 301.333 159.333 310.666C158.4 316.933 158.667 316.4 168.133 286.666C172.667 272.4 179.6 252.266 183.467 242C187.333 231.866 190.4 223.2 190.133 222.933C189.867 222.666 189.333 222.933 188.933 223.6Z" fill="black"/>
<path d="M446.667 231.066C446.667 232.266 449.333 239.999 452.533 248.266C455.733 256.533 462.8 276.533 468.133 292.533C473.467 308.666 478 321.199 478.267 320.399C479.067 318.133 449.6 231.999 447.2 229.466C446.933 229.199 446.667 229.866 446.667 231.066Z" fill="black"/>
<path d="M478.8 325.599C478.667 326.932 479.867 331.066 481.333 334.932C482.8 338.799 484 342.132 484 342.266C484 342.399 482.933 342.132 481.733 341.732C479.6 340.932 479.467 341.066 481.333 343.332C483.867 346.399 483.867 370.932 481.467 383.599C480.533 388.266 479.333 396.666 478.667 402.266C476.933 417.866 468.8 441.466 462.4 449.466C456.4 457.066 451.333 459.732 447.6 457.332C443.733 454.932 443.6 456.532 447.467 460.132C451.733 464.132 459.867 464.399 464 460.666C468.133 456.932 475.467 444.132 477.2 437.999C489.333 392.132 493.867 355.866 488.533 348.266C487.467 346.532 484.8 340.266 482.667 334.266C480.533 328.266 478.8 324.399 478.8 325.599Z" fill="black"/>
<path d="M155.333 335.867C152.8 344.133 149.733 348.8 151.467 341.733C152 339.733 152 338.4 151.467 338.8C149.6 340.533 148.667 350.533 148.8 366C148.933 381.6 151.067 395.067 158.4 427.6C162.933 447.6 173.867 464 182.667 464C186.267 464 195.6 457.733 194.133 456.267C193.733 455.867 192.533 456.267 191.467 457.2C186.667 461.2 176 452.533 170.533 440.133C166 429.733 159.867 407.2 158.667 395.733C154.267 357.067 154.133 354 156.267 347.467C157.867 342.533 158 341.333 156.667 341.867C155.2 342.4 155.333 341.2 156.933 336.667C158 333.333 158.667 330 158.4 329.2C158.133 328.267 156.8 331.333 155.333 335.867Z" fill="black"/>
<path d="M129.2 360.4C126 362.8 125.333 370.933 126.667 390.667C128.533 418.133 138.4 457.2 147.467 472.933C150.667 478.533 157.867 484 161.867 484C164.533 484 175.467 477.867 176.933 475.6C177.333 474.8 176.4 475.2 174.533 476.4C172.8 477.6 168.933 478.667 165.867 478.667C160.667 478.667 160 478.267 155.6 471.6C148.133 460.8 142.4 444.533 136.8 418.667C132.4 398 130.267 379.467 130.933 368.133C131.2 362.933 131.467 358.667 131.333 358.667C131.333 358.667 130.4 359.467 129.2 360.4Z" fill="black"/>
<path d="M507.867 369.467C508.933 394.933 496.8 449.333 486 467.333C480.267 476.8 478 478.667 472.4 478.667L467.333 478.8L470.533 481.333C472.267 482.8 474.933 484 476.4 484C480.533 484 488.533 477.867 491.6 472.267C500.267 456.8 509.467 419.6 511.867 390C513.2 372.267 512.4 363.867 509.067 360.533C507.6 359.067 507.333 360.533 507.867 369.467Z" fill="black"/>
<path d="M110 377.333C107.867 379.733 107.733 381.599 108.4 394.266C110.133 423.333 120.933 471.066 130.267 490.399C136.133 502.399 144.533 506.933 151.733 501.866C155.2 499.466 155.467 500.266 152.533 504.799C151.333 506.533 150.533 508.399 150.933 508.666C151.467 509.333 158.667 496.666 158.667 495.199C158.667 494.799 157.333 495.466 155.733 496.533C150.8 499.999 145.067 499.199 140.4 494.266C134.933 488.533 128.4 475.466 126.8 467.199C126 463.466 124 454.399 122.133 447.199C116.933 426.133 113.2 402.266 112.933 387.866C112.8 380.666 112.667 374.666 112.533 374.666C112.533 374.666 111.333 375.866 110 377.333Z" fill="black"/>
<path d="M525.867 387.733C525.6 402.666 521.733 427.199 515.733 449.999C513.467 458.799 511.2 468.399 510.533 471.333C509.2 477.999 503.467 488.666 498.267 494.266C493.6 499.199 487.867 499.999 482.933 496.533C480 494.533 480 494.533 481.6 498.266C483.867 503.333 486.667 507.599 486.667 505.733C486.667 504.799 486.133 503.733 485.333 503.333C484.667 502.933 484 501.866 484 501.199C484 500.399 485.333 500.799 486.933 501.866C493.867 506.799 502.533 502.533 507.6 491.733C518 469.866 530.667 412.399 530.667 386.533C530.667 381.066 530 378.533 528.4 376.933C526.133 374.933 526 375.599 525.867 387.733Z" fill="black"/>
<path d="M96.1333 389.199C93.0666 394.666 96.5333 425.066 104.133 459.333C114 503.999 126.533 525.599 138.133 517.999C143.867 514.266 143.333 516.799 137.2 522.533C126.8 532.133 121.6 530.133 112.8 513.466C108 504.266 101.6 483.066 97.3333 461.999C95.2 451.733 94.9333 450.799 94.8 455.999C94.5333 467.599 103.733 500.799 111.333 515.999C118.667 530.666 124.8 533.999 133.067 528.133C138.267 524.399 144.267 517.466 143.333 515.999C142.933 515.333 144.267 513.599 146.133 512.133C148.133 510.533 149.067 509.333 148.4 509.333C147.6 509.333 145.6 510.399 143.867 511.866C135.467 518.399 129.2 516.133 122.8 503.999C111.867 483.466 100.667 435.599 98.8 400.666C98.1333 387.333 97.8666 386.266 96.1333 389.199Z" fill="black"/>
<path d="M540.4 398.4C540 412.4 535.733 439.333 530.667 460.666C520.267 504 509.067 522.133 497.6 513.733C491.2 509.2 489.867 508.933 494.667 513.333C500.133 518.4 504.667 520.4 508.133 519.333C511.067 518.4 517.333 510.533 520.933 503.333C530.667 484.133 542.667 426.8 542.667 400.133C542.667 384.8 540.8 383.333 540.4 398.4Z" fill="black"/>
<path d="M89.0667 399.066C88 401.599 89.8667 423.599 92.6667 439.732C95.0667 454.399 95.0667 444.399 92.6667 424.666C91.6 415.866 90.5333 405.999 90.4 402.666C90.1333 398.666 89.7333 397.466 89.0667 399.066Z" fill="black"/>
<path d="M548.267 403.999C548.133 407.999 547.067 417.866 546 425.999C544.8 433.999 543.733 444.266 543.333 448.666L542.667 456.666L544.533 447.866C547.6 433.733 549.6 414.666 549.067 405.333L548.533 396.666L548.267 403.999Z" fill="black"/>
<path d="M360.667 421.332C360.267 422.132 360.8 422.266 361.867 421.866C364.267 420.932 364.667 419.999 362.8 419.999C362 419.999 361.067 420.532 360.667 421.332Z" fill="black"/>
<path d="M284 423.867C284 424.667 284.533 425.6 285.333 426C286.133 426.4 286.267 425.867 285.867 424.8C284.933 422.4 284 422 284 423.867Z" fill="black"/>
<path d="M288.933 426.799C289.867 427.732 290.933 428.132 291.333 427.732C291.733 427.332 291.067 426.532 289.733 426.132C287.867 425.332 287.733 425.466 288.933 426.799Z" fill="black"/>
<path d="M540.133 467.6C537.467 482.133 530.8 503.867 526 513.2C519.467 526.267 513.867 530.533 507.467 527.333C502.667 524.8 503.067 526.8 507.867 529.733C515.067 534 521.067 529.333 528.533 513.333C533.733 502.267 541.067 476.667 542.267 465.6C543.333 455.867 542.133 456.933 540.133 467.6Z" fill="black"/>
<path d="M462.933 476.8C464.267 478.133 465.6 478.933 465.867 478.533C466.267 478.133 465.2 477.067 463.6 476.133C460.8 474.4 460.8 474.533 462.933 476.8Z" fill="black"/>
<path d="M162 490.932L159.867 495.332L162.533 491.999C165.2 488.799 166 486.665 164.667 486.665C164.4 486.665 163.067 488.665 162 490.932Z" fill="black"/>
<path d="M473.333 487.599C473.333 488.265 474.667 490.132 476.133 491.999L478.8 495.332L476.667 490.932C474.667 486.932 473.333 485.465 473.333 487.599Z" fill="black"/>
<path d="M102.667 508.666C102.667 509.333 103.333 510.933 104 511.999C104.667 513.066 105.333 513.333 105.333 512.666C105.333 511.866 104.667 510.399 104 509.333C103.333 508.266 102.667 507.866 102.667 508.666Z" fill="black"/>
<path d="M534.133 509.998C532.933 513.465 533.2 514.265 534.8 511.598C535.6 510.265 536 508.798 535.6 508.532C535.333 508.132 534.667 508.798 534.133 509.998Z" fill="black"/>
<path d="M105.333 515.199C105.333 515.733 106.933 519.333 108.8 523.199C116.667 538.799 124.267 541.599 132.667 531.866C135.067 529.066 134.8 529.199 130.4 532.399C121.733 538.799 117.6 536.799 110 522.666C107.467 517.866 105.333 514.533 105.333 515.199Z" fill="black"/>
<path d="M529.2 521.599C524.667 531.333 519.867 535.999 514.4 536.133C510.933 536.133 510.533 536.399 512.667 537.199C516.667 538.799 519.6 537.466 524.133 532.266C528 527.866 534 516.266 532.933 515.199C532.667 514.933 531.067 517.733 529.2 521.599Z" fill="black"/>
</svg>
