<svg width="640" height="640" viewBox="0 0 640 640" fill="none" xmlns="http://www.w3.org/2000/svg">
<path d="M214.533 174.666C209.333 177.466 200.533 186.666 194.8 195.332C192.933 198.266 190.933 200.932 190.4 201.332C189.867 201.732 190 202.932 190.667 203.999C191.6 205.466 192 205.466 192 204.266C192 201.332 200.533 189.066 206.8 182.932C210 179.866 215.6 176.132 219.333 174.666C224.133 172.799 225.067 172.132 222.667 172.132C220.8 172.132 217.2 173.332 214.533 174.666Z" fill="black"/>
<path d="M419.6 174.8C427.467 177.866 438.667 188.266 442.933 196.4C444.267 199.333 445.867 201.2 446.267 200.8C447.333 199.866 441.733 191.6 434.667 183.6C428.667 176.8 420.667 172 415.733 172.133C413.733 172.133 415.067 173.066 419.6 174.8Z" fill="black"/>
<path d="M225.2 174.666C219.2 176.4 214 179.733 207.733 186.4C201.067 193.466 190.667 210.933 190.667 215.333C190.667 216.8 193.733 212.4 197.333 205.6C207.467 186.266 217.467 177.333 230 176C235.733 175.333 236.133 175.2 232.533 174.533C230.267 174.133 227.067 174.266 225.2 174.666Z" fill="black"/>
<path d="M408.667 175.866C421.067 177.333 431.6 186.8 440.933 204.533C444 210.4 446.667 214.266 446.667 212.8C446.667 208.8 438.8 195.2 431.6 187.333C423.333 178 416.933 174.666 408.4 174.8L402 175.066L408.667 175.866Z" fill="black"/>
<path d="M229.6 178.665C225.2 179.732 221.467 182.532 212.4 191.865C207.467 196.932 192.8 224.798 190.8 232.798C190.134 235.598 185.334 249.998 180.267 264.665C166 305.732 158.4 329.198 158.934 331.465C159.2 332.665 162.267 324.932 165.867 314.398C186.8 252.798 190.534 241.598 191.334 237.998C193.2 229.198 209.467 198.665 216.4 191.198C224.267 182.532 229.2 179.998 238.267 179.865C243.067 179.865 244 179.465 242 178.665C238.8 177.332 235.467 177.332 229.6 178.665Z" fill="black"/>
<path d="M396 178.533C394.533 179.6 395.6 180 400.267 180C409.333 180 413.067 181.867 421.6 190.667C427.467 196.8 431.2 202.533 438 216.267C442.8 226.133 446.667 235.2 446.667 236.533C446.667 237.733 449.333 246.133 452.533 255.067C455.733 264 462.8 284.533 468.133 300.667C473.6 316.667 478.133 328.933 478.4 327.733C478.667 326.533 472.8 307.6 465.467 285.733C458.133 263.867 450.8 242.133 449.2 237.333C447.6 232.533 442.8 221.333 438.4 212.267C430.667 196.4 423.2 186.667 414 180.533C410.4 178.267 398.533 176.933 396 178.533Z" fill="black"/>
<path d="M236 183.6C224 187.866 209.6 209.333 197.867 240.666C195.333 247.2 192.667 253.733 192 254.933C191.2 256.266 190.667 258.533 190.667 260C190.667 263.066 174.133 310.266 164.8 333.733C161.333 342.533 158.8 349.866 159.067 350.266C160 351.2 161.6 348 167.333 334C170 327.333 172.667 320.8 173.333 319.333C176.133 313.6 189.6 275.066 190.8 269.333C192.933 259.733 206.267 227.466 213.6 214.266C217.333 207.466 221.2 200.4 222.267 198.266C225.867 191.466 235.733 185.466 245.867 184L252.667 182.933H245.333C241.333 182.933 237.067 183.2 236 183.6Z" fill="black"/>
<path d="M384.933 183.599C384.4 184.399 386.533 184.666 390.4 184.399C399.467 183.466 409.867 189.199 415.733 197.999C426.267 213.999 446.667 258.533 446.667 265.599C446.667 271.333 477.334 351.199 478.4 348.133C478.667 347.333 475.334 337.466 470.934 326.266C466.534 315.199 457.733 290.399 451.333 271.333C434.8 221.999 421.867 196.266 408.667 186.933C404.8 184.133 401.867 183.333 394.667 182.933C389.733 182.666 385.333 182.933 384.933 183.599Z" fill="black"/>
<path d="M244.133 189.599C236.533 192.665 228.4 201.332 224.267 210.665C223.2 213.199 220.533 218.665 218.533 222.665C215.467 228.799 208.667 245.465 193.333 284.665C191.867 288.399 190.667 292.265 190.667 293.465C190.667 298.665 175.067 332.265 167.333 344.132L162.533 351.332L167.6 345.732C173.733 338.932 185.6 317.732 188.8 307.865C195.733 286.532 222.133 221.599 228.133 211.199C237.2 195.332 245.067 189.465 258 189.199C262.267 189.199 262.8 188.932 260.667 187.999C256.4 186.132 251.867 186.665 244.133 189.599Z" fill="black"/>
<path d="M377.333 188C374.533 188.933 375.067 189.066 380 189.2C396.533 189.6 403.067 195.733 416.667 224C423.333 237.6 442.933 286.933 446 297.466C449.867 311.066 463.333 336.933 470.933 345.733C474.267 349.466 474.133 348.933 469.867 342.133C463.6 332 453.2 309.866 449.333 298C436.4 259.466 426.933 236.266 412.267 207.333C407.867 198.533 401.6 192.533 394 189.6C386.133 186.533 382.8 186.266 377.333 188Z" fill="black"/>
<path d="M258 191.999C248.133 196.133 227.2 228.399 222.667 246.533C219.333 260.133 193.867 315.733 184.133 330.666C175.867 343.333 174.133 350.799 175.067 369.333C176.667 399.599 187.867 435.733 197.2 440.666C202.667 443.333 205.067 443.199 211.2 439.466L216.4 436.266L210.667 436.533C205.733 436.666 204.533 435.999 200.8 431.733C195.467 425.599 191.733 416.133 188.267 399.999C181.467 369.333 181.2 346.933 187.333 333.733C189.2 329.599 190.667 325.733 190.667 324.933C190.667 324.266 192.133 321.733 193.867 319.333C198.533 313.199 212 285.599 217.867 269.999C232.667 231.066 239.067 218.133 250.4 203.999C256.933 195.866 260.133 193.733 268.4 191.999L274 190.933H267.333C263.733 190.799 259.467 191.333 258 191.999Z" fill="black"/>
<path d="M363.6 191.6C363.2 192.266 364.533 192.666 366.667 192.266C376.667 190.8 386.133 198.4 397.2 216.666C402.933 226.133 414.667 251.333 414.667 254.266C414.667 259.066 432.667 298.133 446.8 323.866C449.733 329.333 453.067 337.066 454.133 341.2C457.733 355.066 456.133 376.533 449.467 403.2C443.333 427.866 437.867 436.533 428.533 436.533H423.733L426.667 438.933C434.933 445.6 443.333 442.666 448.667 431.066C457.467 412.133 462.533 391.066 463.6 368.666C464.533 350.4 462.667 343.2 453.6 329.2C443.6 313.733 420.533 263.066 415.333 245.333C410.667 229.6 398 207.6 387.867 198C381.333 191.866 380.4 191.466 372.667 190.933C368.133 190.666 364 190.933 363.6 191.6Z" fill="black"/>
<path d="M270.933 197.466C267.867 199.066 263.2 202.799 260.8 205.866C256.8 210.933 242.667 238.533 238.667 249.333C237.733 251.866 236.4 254.533 236 255.333C235.467 255.999 232.133 263.599 228.667 271.999C225.2 280.399 219.867 293.066 216.667 299.999C213.467 306.933 209.867 315.599 208.667 319.333C203.733 334.133 204.8 362.133 211.2 388.133C214.533 401.333 219.6 414.666 221.333 414.666C221.867 414.666 222.667 415.866 223.067 417.333C223.467 418.666 225.867 420.933 228.4 422.133C232.533 424.133 234 424.133 239.2 422.666C242.533 421.733 245.333 420.533 245.333 419.999C245.333 419.333 244.133 419.199 242.667 419.599C238.667 420.666 229.867 414.266 226.667 408.133C225.2 405.199 223.2 398.799 222 393.733C216.267 368.133 215.6 362.666 215.467 342.666C215.333 322.666 215.467 321.466 219.867 307.333C222.4 299.199 226.133 289.333 228.133 285.333C230.133 281.333 232.933 274.933 234.4 271.333C235.867 267.599 238.533 261.333 240.4 257.333C242.267 253.333 246.667 243.066 250.4 234.533C262.267 207.333 268.8 199.333 282.133 196.133L287.333 194.933L282 194.799C279.067 194.666 274.133 195.866 270.933 197.466Z" fill="black"/>
<path d="M355.733 196.132C369.6 198.799 375.867 206.266 388.667 235.599C392.667 244.932 396.667 253.732 397.333 255.066C398.133 256.399 400 260.532 401.467 264.399C402.933 268.132 406.533 276.399 409.333 282.666C412.133 288.932 416.4 299.999 418.8 307.332C423.2 320.266 423.333 321.199 423.2 341.999C423.067 363.066 421.867 371.866 416.667 392.666C415.333 397.732 413.333 404.266 412.267 407.066C409.733 413.332 402.667 419.066 397.333 419.199C391.6 419.332 392.4 420.532 399.333 422.399C406.533 424.266 413.867 421.999 415.333 417.466C415.733 415.866 416.667 414.666 417.2 414.666C419.067 414.666 423.733 402.399 427.333 388.399C433.867 362.666 434.933 333.999 429.867 319.332C428.667 315.599 424.8 306.399 421.333 298.666C417.867 290.932 413.333 280.399 411.2 275.332C409.2 270.132 405.867 262.399 403.867 257.999C401.867 253.599 398.133 244.932 395.333 238.666C392.667 232.399 388.667 224.532 386.533 220.932C384.4 217.466 382.667 213.999 382.667 213.066C382.667 209.999 373.2 200.132 367.6 197.466C364.133 195.732 359.467 194.666 355.867 194.799L350 194.932L355.733 196.132Z" fill="black"/>
<path d="M289.867 198.666C281.2 202.133 270.267 218.799 260.933 242.666C253.067 263.199 242.933 295.999 241.333 306.666C238.133 327.999 240.8 363.333 247.333 384.799C254.133 407.199 258.267 412.799 268.933 414.799C278.667 416.666 286.933 420.133 286.133 422.133C285.733 423.066 286.533 424.533 287.733 425.599C289.733 427.199 289.867 427.066 288.133 424.933C285.467 421.599 287.867 422.133 294.667 426.666C298 428.799 301.6 430.666 302.667 430.666C303.733 430.666 302.267 429.199 299.333 427.599C296.4 425.866 290.8 422.266 286.8 419.599C282.933 416.933 278.533 414.666 277.067 414.666C273.333 414.666 266.8 409.333 263.2 403.333C258.133 394.666 256.133 387.333 253.067 367.333C249.2 341.333 249.2 311.866 253.333 289.333C257.2 267.199 269.333 233.066 279.2 216.533C286 204.933 289.333 201.466 295.333 199.333C300.4 197.599 300.533 197.466 296.667 197.466C294.533 197.466 291.333 197.999 289.867 198.666Z" fill="black"/>
<path d="M307.067 199.333C303.2 200.933 294.667 210.8 294.667 213.6C294.667 214.267 293.467 217.2 292.133 220C289.467 225.467 288.667 228.667 284 250.667C274.4 296 274.4 346.4 284.133 389.333C287.867 405.733 290.133 411.2 296.267 417.867C299.067 420.933 301.333 423.733 301.333 424.267C301.333 425.467 310.8 432 312.533 432C313.2 432 312.133 430.8 310.267 429.333C301.6 422.533 294.4 404.933 289.733 379.467C287.067 364.533 285.867 291.733 288 273.067C290.133 253.867 294.267 233.333 298.267 221.333C302.533 208.4 304.533 204.8 308.8 201.467C313.333 197.867 312.533 197.067 307.067 199.333Z" fill="black"/>
<path d="M326.667 198.267C326.667 198.667 328.133 200.133 330 201.6C341.067 210.267 349.867 249.6 351.333 296.667C353.467 367.867 346.8 409.733 330.533 426.933C327.867 429.733 326.133 432 326.533 432C328 432 337.333 425.333 337.333 424.267C337.333 423.733 339.333 421.2 341.733 418.667C348 412.133 349.067 409.733 353.333 392.933C363.733 352.667 364.667 291.6 355.333 254.667C354.4 250.667 352.533 242.533 351.333 236.667C350.267 230.8 348.4 224.133 347.467 222C346.4 219.733 344.667 215.867 343.6 213.333C340.933 206.8 335.333 200.533 330.667 198.8C328.4 198.133 326.667 197.867 326.667 198.267Z" fill="black"/>
<path d="M343.2 199.333C352.4 202.533 362.133 217.733 372 243.866C379.867 264.799 381.867 271.733 385.333 289.466C390.533 317.066 390.133 339.733 384 375.466C379.867 399.199 372.8 411.599 361.467 414.666C358.667 415.333 354.8 417.199 352.8 418.799C350.933 420.266 345.867 423.599 341.733 426.133C337.6 428.666 334.933 430.666 335.867 430.666C336.8 430.666 341.733 427.999 346.667 424.666C356.4 418.133 364.8 414.666 370.667 414.666C378.533 414.666 385.067 405.333 391.2 385.199C398.267 362.266 400.667 325.866 396.8 303.999C394.933 293.333 383.067 255.599 376 238.133C368.133 217.999 356.667 201.733 348.4 198.533C346.667 197.866 343.6 197.333 341.6 197.333C338.4 197.466 338.667 197.733 343.2 199.333Z" fill="black"/>
<path d="M318.133 200.8C313.733 214.667 314 417.333 318.4 429.333L319.6 432.533L320.533 428.933C323.6 416.667 324.933 286.933 322.667 232.933C321.333 203.867 320.133 194.667 318.133 200.8Z" fill="black"/>
<path d="M446.8 204.799C446.667 205.599 448.8 211.066 451.467 216.799C454.133 222.666 459.867 237.199 464.133 249.332C468.4 261.466 471.867 270.666 471.867 269.866C472 267.732 459.067 230.266 455.2 221.466C449.6 208.799 446.8 203.332 446.8 204.799Z" fill="black"/>
<path d="M184.934 217.865C177.2 235.732 158.534 290.799 158.8 295.465C158.8 296.932 160.267 293.465 162.134 287.999C164 282.532 169.067 266.932 173.467 253.599C178 240.132 183.6 224.532 186.134 219.065C188.667 213.465 190.534 208.399 190.4 207.732C190.134 206.932 187.6 211.599 184.934 217.865Z" fill="black"/>
<path d="M446.667 218C446.667 219.6 447.2 221.333 448 222.133C449.733 223.867 462 258.4 470.533 285.333C474.4 297.467 477.733 307.867 478 308.667C478.267 309.333 478.533 308.8 478.533 307.2C478.667 304.133 465.733 262.933 457.733 240.667C451.467 223.6 446.8 213.867 446.667 218Z" fill="black"/>
<path d="M186.8 225.2C179.6 242.133 158.533 306.4 158.8 311.2C158.933 314.4 159.867 311.6 168.8 283.333C172.267 272.267 178.533 253.467 182.933 241.467C190.533 220.4 192.667 211.6 186.8 225.2Z" fill="black"/>
<path d="M472.267 273.332C472.267 274.398 473.067 277.465 474 279.998C474.934 282.532 475.734 283.732 475.734 282.665C475.734 281.598 474.934 278.532 474 275.998C473.067 273.465 472.267 272.265 472.267 273.332Z" fill="black"/>
<path d="M478.8 299.466C478.8 300.933 479.2 301.333 479.6 300.266C480 299.333 479.867 298.133 479.467 297.733C479.067 297.2 478.667 298 478.8 299.466Z" fill="black"/>
<path d="M153.467 316.265C151.067 324.532 146.667 339.332 143.733 349.065C140.8 358.932 138.667 367.198 139.067 367.465C139.333 367.732 140.8 363.998 142.267 359.065C143.867 353.998 147.333 342.798 150 333.998C156.8 311.998 158.933 303.998 158.4 302.532C158.133 301.732 156 307.998 153.467 316.265Z" fill="black"/>
<path d="M478.8 313.598C478.667 316.398 497.067 372.265 498.667 373.865C499.733 374.932 495.2 360.532 482.267 321.332C480.4 315.865 478.8 312.398 478.8 313.598Z" fill="black"/>
<path d="M156 321.333C155.2 324.666 150.934 338 146.667 351.2C138.4 376.4 137.867 381.733 145.734 359.333C153.067 338.533 158.934 318.8 158.267 316.933C158 316.133 156.934 318 156 321.333Z" fill="black"/>
<path d="M478.8 333.333C478.667 336.933 489.733 364.933 492.133 367.333C492.933 368 492.133 365.333 490.533 361.333C488.933 357.333 485.6 348.533 483.2 342C480.667 335.2 478.8 331.467 478.8 333.333Z" fill="black"/>
<path d="M157.333 336.266C157.333 337.2 154.667 344.533 151.333 352.666C148.133 360.666 145.733 367.466 146 367.866C146.4 368.133 147.867 365.466 149.467 361.866C151.067 358.266 153.467 352.666 154.933 349.466C157.733 343.333 159.6 334.666 158.133 334.666C157.733 334.666 157.333 335.466 157.333 336.266Z" fill="black"/>
<path d="M479.2 353.867C479.467 355.6 480.533 358.533 481.6 360.267C485.867 367.733 481.467 414.133 474.667 434C471.333 443.733 465.067 453.733 460.8 456C458.667 457.067 455.6 457.333 452.4 456.933L447.333 456L451.333 459.333C456.267 463.333 462.8 464.8 466.533 462.667C471.067 460.4 477.067 451.2 479.333 443.2C488 413.467 491.333 393.467 490.4 378C489.867 370.267 488.933 366.933 484.8 359.6C482 354.667 479.467 350.667 479.2 350.667C478.933 350.667 478.933 352.133 479.2 353.867Z" fill="black"/>
<path d="M152.933 361.732C148.4 370.399 148 372.266 148 381.999C148 395.199 150.4 410.399 155.867 431.332C163.6 460.932 174 470.266 187.2 459.332L191.2 456.132L185.6 456.932C178.533 457.866 175.2 455.732 169.733 446.532C162.533 434.399 157.067 409.732 155.067 380.666C154.533 372.266 154.933 368.266 157.067 361.599C158.533 357.066 159.333 353.066 158.8 352.666C158.267 352.399 155.6 356.399 152.933 361.732Z" fill="black"/>
<path d="M136.8 371.333C136.4 372.533 136 374.267 136.133 375.067C136.133 376 136.8 375.2 137.467 373.467C138.133 371.733 138.533 370 138.133 369.733C137.867 369.467 137.333 370.133 136.8 371.333Z" fill="black"/>
<path d="M129.2 383.865C126.133 386.399 126 386.932 126.267 404.932C126.8 442.932 139.2 479.999 153.2 485.465C155.733 486.532 157.467 485.999 161.6 483.332C164.4 481.465 166.667 480.665 166.667 481.465C166.667 482.265 168.267 480.932 170.133 478.665C172.133 476.399 173.333 474.265 172.933 473.865C172.667 473.465 171.2 474.532 169.867 476.265C167.067 479.599 160.8 480.799 155.467 478.665C145.6 474.932 132.8 434.399 131.067 401.865C130.533 391.865 130.8 386.265 131.867 384.265C133.733 380.665 133.2 380.532 129.2 383.865Z" fill="black"/>
<path d="M507.734 395.199C508.8 424.266 494 474.666 483.067 478.799C477.734 480.799 471.067 479.466 468 475.866C465.6 473.199 465.334 473.066 466.534 475.466C467.867 478.399 472 482.266 472 480.799C472 480.266 473.867 481.199 476.134 482.799C481.867 486.799 486 486.399 491.334 481.333C497.067 475.733 500.134 469.199 505.334 451.733C510.8 433.599 513.867 403.066 511.6 391.466C509.067 379.066 507.334 380.933 507.734 395.199Z" fill="black"/>
<path d="M110 407.199C103.867 418.532 113.067 468.799 126.667 497.599C130.4 505.599 136.8 509.332 142.267 506.665C144.267 505.599 146.533 504.532 147.067 504.265C147.733 503.999 147.2 505.599 146 507.999C144.8 510.399 144.533 511.865 145.333 511.332C146.667 510.532 152 499.599 152 497.732C152 497.199 150.933 497.865 149.733 499.065C144.933 503.199 140.667 503.199 135.867 498.932C133.333 496.665 130.4 492.932 129.2 490.399C120.4 472.265 110.267 421.999 112.533 407.865C112.933 405.065 113.2 402.665 112.933 402.665C112.667 402.665 111.333 404.665 110 407.199Z" fill="black"/>
<path d="M525.733 417.598C525.6 433.065 520.8 457.998 515.333 473.598C513.333 478.932 511.467 485.065 511.067 487.198C510.133 491.998 500 502.665 496.533 502.665C495.067 502.665 492.667 501.732 491.2 500.665C489.867 499.598 488.267 498.665 487.733 498.665C486.533 498.665 489.333 505.332 492.4 509.465C494.667 512.665 494.667 512.665 492.667 508.398C490 502.798 490.133 501.732 493.067 504.265C496.933 507.865 501.067 508.398 505.067 505.865C514.8 500.132 528.4 455.598 530.267 423.332C530.933 411.598 530.667 409.598 528.533 406.932C526 403.865 526 403.998 525.733 417.598Z" fill="black"/>
<path d="M368 417.199C365.6 417.866 365.2 418.399 366.534 419.199C367.6 419.866 369.067 419.466 370.4 418.132C371.6 416.932 372.267 415.999 372 416.132C371.6 416.266 369.867 416.666 368 417.199Z" fill="black"/>
<path d="M96.4001 423.065C94.0001 428.265 94.2667 436.798 97.3334 455.732C102.933 490.132 110.667 512.398 120.267 521.198C124 524.798 127.2 524.665 133.2 521.065L138 518.132L134.933 522.265C130.8 528.132 122.933 534.665 120.133 534.665C113.733 534.665 104.133 518.532 98.8001 498.532C96.0001 488.265 90.8001 451.865 90.5334 441.332C90.5334 436.265 90.2667 435.865 89.2001 438.398C87.8667 441.865 89.4667 460.132 92.6667 476.665C93.7334 482.532 94.6667 488.932 94.6667 490.932C94.6667 495.998 102.933 519.998 107.2 527.332C111.733 534.932 116.133 537.998 121.067 536.798C123.067 536.265 125.333 535.865 126.267 535.732C127.2 535.598 127.6 535.065 127.2 534.398C126.8 533.732 129.2 530.532 132.533 527.065C136.933 522.665 138.4 520.132 137.867 518.398C137.467 517.065 137.733 515.998 138.533 515.998C139.333 515.998 140.667 514.665 141.467 512.932C142.667 510.798 141.6 511.332 137.6 515.065C131.067 520.798 128.267 521.198 123.067 516.798C117.467 511.998 112.667 502.398 108.133 486.665C102.4 466.665 99.8667 452.265 98.8001 434.665C98.1334 421.065 97.8667 419.865 96.4001 423.065Z" fill="black"/>
<path d="M350.133 424.665C346.533 427.199 344.133 429.332 344.933 429.332C345.733 429.332 347.867 428.132 349.867 426.532C351.733 425.065 353.867 424.265 354.667 424.665C355.467 425.199 355.867 424.799 355.733 423.732C355.467 422.799 356.4 422.132 357.6 422.132C358.933 422.265 359.6 421.865 359.2 421.199C358.133 419.332 357.067 419.732 350.133 424.665Z" fill="black"/>
<path d="M540.4 431.998C539.867 457.865 528.267 501.865 519.2 512.798C513.6 519.732 509.467 521.198 504.267 517.998C501.067 515.998 501.067 516.265 505.067 519.865C510.534 525.198 514.4 525.065 519.6 519.598C525.734 513.332 529.867 503.998 534.534 486.665C540.267 465.198 542.667 449.732 542.667 435.198C542.667 420.132 540.8 417.332 540.4 431.998Z" fill="black"/>
<path d="M548.267 442.667C548.133 446.667 547.067 455.733 546 462.667C544.8 469.6 543.733 478.667 543.333 482.667L542.667 490L544.533 482.667C547.6 471.2 549.6 453.467 549.067 444L548.533 435.333L548.267 442.667Z" fill="black"/>
<path d="M158.667 488.666C158.667 489.733 158.933 490.666 159.2 490.666C159.467 490.666 160 489.733 160.533 488.666C160.933 487.599 160.667 486.666 160 486.666C159.2 486.666 158.667 487.599 158.667 488.666Z" fill="black"/>
<path d="M478.667 489.866C478.667 491.333 482.667 498.666 483.467 498.666C483.733 498.666 483.067 496.666 481.867 494.266C479.333 489.466 478.667 488.399 478.667 489.866Z" fill="black"/>
<path d="M539.467 500.133C538.134 505.466 536.534 510.533 536 511.333C535.6 512 534.267 514.8 533.334 517.333C528.534 529.733 520.667 536.533 514.934 533.466C510.667 531.2 509.734 531.866 513.2 534.666C519.334 539.866 525.6 537.333 531.334 527.333C536.267 518.933 542.934 499.2 542.4 494.266C542.134 490.933 541.467 492.133 539.467 500.133Z" fill="black"/>
<path d="M155.6 496.665C154.4 499.199 153.6 501.332 154 501.332C154.933 501.332 158.933 493.199 158.4 492.532C158 492.265 156.8 494.132 155.6 496.665Z" fill="black"/>
<path d="M98.1335 519.333C99.8668 528.533 108.533 542.666 112.4 542.666C113.2 542.666 112.533 541.733 110.933 540.533C108 538.533 102.933 529.599 99.2001 519.999C97.4668 515.866 97.3335 515.733 98.1335 519.333Z" fill="black"/>
<path d="M536.133 527.466C533.6 532.933 530.133 538.666 528.267 539.999C526.533 541.466 525.6 542.666 526.4 542.666C529.2 542.666 534.667 535.333 538 526.933C539.867 522.133 541.2 518.133 541.067 517.866C540.8 517.733 538.533 521.999 536.133 527.466Z" fill="black"/>
<path d="M122 539.999C119.467 541.599 118.8 542.666 120.133 542.666C121.333 542.666 123.333 541.466 124.667 539.999C127.733 536.666 127.067 536.666 122 539.999Z" fill="black"/>
<path d="M515.2 540.533C516.667 541.733 518.4 542.666 519.2 542.666C520.8 542.666 520.133 541.999 516 540.133C512.8 538.666 512.8 538.666 515.2 540.533Z" fill="black"/>
</svg>
