<svg width="640" height="640" viewBox="0 0 640 640" fill="none" xmlns="http://www.w3.org/2000/svg">
<path d="M208 170.533C205.467 171.867 202.533 172.667 201.467 172.267C200.133 171.733 199.733 172.133 200.4 173.6C201.2 175.733 197.067 180.667 195.733 179.333C195.333 178.933 194.267 179.733 193.2 180.933C191.467 183.067 191.6 183.2 193.733 181.467C197.067 178.8 196.533 181.733 192.8 185.733C190.933 187.733 189.867 189.6 190.4 189.867C190.933 190.133 194 187.067 197.333 182.933C204.133 174.4 209.2 171.067 217.6 169.467L223.333 168.267H218C215.067 168.133 210.533 169.2 208 170.533Z" fill="black"/>
<path d="M421.067 169.467C429.333 171.067 434.4 174.401 440.933 182.401C447.467 190.534 448.667 189.867 442.667 181.467C436.933 173.601 427.6 168.001 420.8 168.134L415.333 168.267L421.067 169.467Z" fill="black"/>
<path d="M214 173.202C208.133 175.868 196.4 188.135 192.933 195.068C182.4 216.535 158.533 286.135 158.8 294.802C158.8 296.535 161.733 288.668 165.2 277.335C174.267 248.535 181.067 228.535 184.667 220.668C186.267 216.935 188.667 210.935 189.867 207.335C193.2 197.735 197.6 190.668 205.6 182.268C212.933 174.535 220.133 171.335 226.267 172.802C228.133 173.335 229.333 173.068 229.333 172.135C229.333 169.868 219.867 170.402 214 173.202Z" fill="black"/>
<path d="M408.8 171.867C408.267 172.533 409.6 172.933 411.6 172.667C419.467 171.733 425.733 174.533 433.467 182.8C441.067 190.8 444 195.733 449.333 209.333C450.933 213.333 453.333 219.067 454.8 222.133C458.133 229.733 468.133 259.2 473.333 277.2C475.867 285.6 478 291.867 478.4 290.933C480 286 454.933 212.933 444.8 193.733C441.6 187.467 430 175.6 424.8 173.2C419.067 170.533 410 169.867 408.8 171.867Z" fill="black"/>
<path d="M218.667 178.4C215.333 180.533 210.4 184.933 207.6 188.133C202.267 194.267 192.4 212.4 190.533 219.333C190 221.467 186.8 230.8 183.333 240C175.6 260.8 160.267 310.267 158.4 319.867C155.067 338.133 128.667 409.867 126.533 406.533C126.133 405.733 125.467 406.267 124.933 407.867C124.533 409.467 124.667 410.4 125.067 410.133C125.6 409.867 126.133 417.2 126.267 426.533C126.533 451.467 132 471.6 141.067 481.6C145.333 486.267 146.4 486.8 150.8 486.4L155.733 486L152.533 492.667C150.667 496.267 148.667 500.4 147.867 501.733C147.067 503.2 146.8 504.533 147.2 504.933C147.6 505.333 150.933 499.6 154.533 492.133C159.2 482.533 160.4 478.8 158.933 479.333C157.6 479.867 156.133 480.533 155.333 480.8C152.533 482 145.333 475.867 142.267 469.733C132.4 450.133 127.6 415.733 132.8 402C133.867 399.067 135.067 395.2 135.467 393.467C135.867 391.733 137.333 387.867 138.8 384.933C142 378.8 143.333 375.2 151.6 351.333C154.8 341.733 158 331.333 158.533 328C159.6 322.267 164.267 306.667 175.733 270.667C194.667 211.067 205.467 189.467 220.8 179.867C224.4 177.733 227.067 177.2 232.667 177.6C241.6 178.133 240.133 175.867 231.067 175.067C225.733 174.533 223.733 175.067 218.667 178.4Z" fill="black"/>
<path d="M400.4 176.001C395.733 177.868 396.667 178.268 405.2 177.601C414.667 176.935 419.467 179.335 428.267 189.201C435.867 197.735 442.533 211.201 450.8 234.668C462.667 268.268 478.667 319.201 478.667 323.468C478.667 327.201 494 372.401 499.2 384.001C507.6 402.935 508.4 406.801 507.6 423.201C505.867 456.935 492.8 484.668 480.933 480.135C478.133 479.068 477.6 479.201 478.267 480.801C479.2 483.335 485.6 486.668 489.733 486.668C493.2 486.668 499.867 480.268 503.067 474.001C506.933 466.401 509.467 455.201 511.333 438.801C513.867 416.801 513.067 411.868 503.867 390.668C494.8 369.735 482.667 332.401 477.333 309.335C474.8 298.668 466.267 271.868 457.333 246.668C453.067 234.535 448.933 222.535 448 220.001C447.067 217.468 444.133 210.535 441.2 204.668C430.133 181.735 414.133 170.535 400.4 176.001Z" fill="black"/>
<path d="M229.6 182C221.333 185.6 213.6 195.6 204.267 214.667C199.333 224.533 194.267 236 193.067 240C191.867 244 183.6 269.333 174.8 296.267C165.867 323.2 158.667 346 158.667 347.067C158.667 349.467 148.933 372 144 381.2C141.2 386.133 140.8 387.6 142.667 385.333C146.933 380.267 155.867 362 159.333 351.467C161.067 346.267 164.267 336.933 166.533 330.667C173.2 312.667 190.667 259.467 190.667 257.6C190.667 254.267 202.667 224.533 208.8 212.667C220.667 189.467 228.8 182.133 242.533 182.267C247.733 182.4 249.2 182.133 247.333 181.333C243.2 179.6 234.4 179.867 229.6 182Z" fill="black"/>
<path d="M390.667 181.333C389.333 182.133 390.933 182.533 396.133 182.4C405.333 182.133 411.867 185.6 418.933 194.4C425.2 202.133 438.533 229.067 443.2 243.333C458.667 290.667 468.933 321.2 475.333 339.867C482.933 362 491.333 380.667 495.2 383.867C496.267 384.8 495.467 382.267 493.333 378.4C488.667 369.867 478.667 346 478.667 343.6C478.667 342.667 471.6 320.4 462.933 294C454.267 267.6 446.133 242.533 444.8 238.267C443.467 233.867 438.667 222.8 434 213.467C425.2 196.133 417.6 186.267 409.333 182C405.067 179.733 393.733 179.333 390.667 181.333Z" fill="black"/>
<path d="M239.2 188.535C232.8 191.468 222.667 201.601 222.667 205.068C222.667 205.868 220.267 210.801 217.467 216.268C214.533 221.601 210 231.735 207.333 238.668C204.667 245.601 201.733 253.068 200.8 255.335C198.933 259.335 193.067 277.735 188.667 292.668C184.133 308.135 171.733 338.268 160.267 361.335C148.8 384.535 148.667 384.668 148.267 396.401C147.6 412.268 150.667 428.801 158 449.335C161.867 459.868 168.8 465.201 175.467 462.668C178.4 461.468 178.8 461.601 178.133 463.335C176.933 466.668 178.133 465.601 181.733 460.135L185.2 454.801L181.333 456.268C176.4 457.868 172.4 455.735 166.933 448.135C158 435.868 152.133 396.268 156.667 378.001C158.667 369.201 164.933 355.201 168.667 350.668C172.267 346.401 190.667 301.601 190.667 297.068C190.667 293.335 209.6 242.801 218.267 223.335C225.733 206.535 226.933 204.401 232.4 198.001C238.4 190.935 244.4 188.001 253.2 187.868C257.867 187.868 258.667 187.601 256.667 186.668C252 184.668 246.133 185.335 239.2 188.535Z" fill="black"/>
<path d="M380.667 186.668C378.667 187.468 379.733 187.868 384.8 187.868C399.867 188.135 407.333 195.335 419.067 220.668C426.8 237.468 438.533 267.601 443.867 284.668C445.6 289.735 448.133 297.868 449.733 302.668C454 316.268 464.4 340.135 471.6 352.935C481.2 370.268 484.533 382.801 483.6 397.868C482.8 410.268 480.133 425.601 476.533 438.401C475.067 443.201 472.667 447.335 468.8 451.468C462.933 457.601 460.4 458.401 455.733 455.868L452.933 454.401L455.733 458.268C459.733 463.868 469.333 464.668 474.4 459.601C477.6 456.268 478.8 453.735 484 439.335C488 427.735 491.067 407.468 490.4 395.601C489.867 384.935 489.467 383.868 477.733 360.001C462.933 330.135 450.533 298.535 445.6 278.268C440.8 258.801 416.267 202.935 408.8 194.801C402.533 187.735 387.867 183.601 380.667 186.668Z" fill="black"/>
<path d="M250.4 194.401C243.867 199.201 240.133 204.001 233.067 216.668C227.067 227.468 225.333 231.468 220.267 246.001C216.133 258.001 206.8 282.935 205.333 286.001C204.667 287.468 201.6 294.935 198.667 302.668C195.6 310.401 192.533 317.201 191.867 318.001C191.2 318.668 190.667 320.268 190.667 321.468C190.667 322.668 187.867 329.601 184.533 336.801C176.533 353.735 174.667 360.935 174.667 374.001C174.667 402.535 186 437.468 196.133 440.135C199.733 441.068 205.333 439.201 210 435.601C212.533 433.601 212.4 433.468 208 434.135C198.933 435.601 193.2 427.868 188.267 408.001C180.933 378.001 181.067 360.935 188.667 338.001C191.333 329.868 194.4 322.001 195.467 320.268C198.133 316.268 209.333 288.535 216.8 268.001C220.133 258.801 224.4 247.068 226.267 242.001C231.467 227.735 242.533 208.268 250.133 200.135C256.667 193.201 257.467 192.668 264.8 191.868L272.667 191.068L264 190.935C256.533 190.801 254.667 191.335 250.4 194.401Z" fill="black"/>
<path d="M373.6 191.867C382.533 192.8 387.733 196.933 396.133 209.733C402.667 219.733 412.8 240.533 414.533 247.333C416.8 256.667 440.133 316.133 442.8 319.467C444.133 321.067 449.867 337.333 453.467 349.333C455.067 354.667 456 362 456 368.667C456 382.933 452.133 405.733 448 415.333C447.333 416.8 446.533 419.733 446 421.867C445.6 424 443.067 427.867 440.533 430.4C436.933 434 435.2 434.8 432 434.4C429.733 434 428 434 428 434.267C428 435.867 437.333 440 440.933 440C444.4 440 445.733 439.067 449.2 433.867C457.333 421.467 462.133 404 463.6 381.733C464.533 365.867 462.933 355.733 457.467 344.533C451.867 332.8 447.467 322.4 440.667 304.667C437.333 295.867 434 287.467 433.333 286C432.533 284.533 430 277.6 427.467 270.667C424.933 263.733 421.067 253.6 418.8 248.133C416.533 242.667 414.667 237.333 414.667 236.133C414.667 233.467 405.2 214.933 399.067 205.733C396.533 201.867 392 196.933 388.933 194.667C384.133 191.067 382.533 190.667 374.8 190.8L366 191.067L373.6 191.867Z" fill="black"/>
<path d="M449.733 196.8C451.6 200.4 454.667 207.2 456.533 212C458.533 216.8 460.933 222.4 462 224.667C462.933 226.8 466.8 238.534 470.667 250.667C474.533 262.8 477.733 273.2 478 274C478.267 274.667 478.533 274.4 478.533 273.067C478.933 265.067 452.4 194.134 448 191.334C447.2 190.8 448 193.334 449.733 196.8Z" fill="black"/>
<path d="M187.6 195.601C179.333 211.468 160.667 264.268 159.333 275.334C158.667 280.534 158.667 280.534 160.667 274.001C171.6 239.334 176.4 224.401 177.2 223.334C177.733 222.534 179.6 218.401 181.333 214.001C183.067 209.601 185.867 203.068 187.6 199.601C189.467 196.001 190.533 192.801 190.133 192.401C189.867 192.001 188.667 193.468 187.6 195.601Z" fill="black"/>
<path d="M268 197.202C265.467 198.668 262 201.202 260.533 202.935C254 210.002 239.2 241.468 227.867 272.668C224.933 280.668 219.467 295.201 215.867 304.801C207.067 328.268 204.8 340.535 205.867 359.335C206.267 367.335 207.867 379.068 209.2 385.335C215.333 412.668 223.467 423.468 234.933 419.868C243.2 417.202 243.333 416.935 237.467 415.868C227.867 414.002 225.733 410.935 220.667 391.602C213.467 363.602 212.933 336.002 219.333 314.802C221.2 308.535 222.667 302.668 222.667 301.735C222.667 296.801 254.933 218.802 260 211.335C265.6 203.202 272.533 197.602 278.267 196.668C287.2 195.202 287.467 194.935 280 194.935C275.2 194.802 271.067 195.602 268 197.202Z" fill="black"/>
<path d="M354.667 195.467C364 196.933 368 199.067 373.6 205.2C376.8 208.667 380.133 213.333 381.2 215.467C382.133 217.6 383.733 220.8 384.667 222.667C385.6 224.533 388.667 231.333 391.333 238C394 244.533 397.333 252.4 398.667 255.333C399.867 258.267 402.933 266 405.333 272.667C407.867 279.2 410.267 285.333 410.8 286.133C411.467 286.8 412.8 290.8 413.867 294.8C414.8 298.8 417.467 307.733 419.467 314.667C423.067 326.4 423.333 328.933 423.2 348.667C423.2 370.667 422 378.667 416 398.4C412.133 410.933 409.067 414.533 401.333 415.6L395.333 416.4L399.333 418.133C401.6 419.067 405.467 419.867 408.133 420C412.133 420 413.867 419.067 417.733 414.8C428.4 402.933 436 361.333 432.133 336.133C431.333 330.667 427.2 317.467 423.2 306.8C419.067 296.133 415.333 285.467 414.667 283.333C412.667 274.8 394.267 230.8 388.533 220.8C385.333 215.067 382.667 209.867 382.667 209.2C382.667 208.667 381.067 206.267 379.2 204C374 197.867 366.667 194.667 358.4 194.8C354.533 194.933 352.8 195.2 354.667 195.467Z" fill="black"/>
<path d="M288.533 198.668C283.733 200.535 276.4 208.801 271.2 218.135C266 227.335 254.666 255.068 254.666 258.268C254.666 259.335 252.266 267.868 249.466 277.068C242.133 300.668 241.2 306.135 240.4 327.335C239.6 349.068 242 369.601 247.2 386.001C253.333 405.068 259.333 412.135 271.066 414.001C277.466 415.068 283.066 418.001 293.2 425.335C297.2 428.268 301.466 430.668 302.533 430.668C303.733 430.535 302.933 429.601 300.666 428.401C296.4 426.135 288.933 420.801 284.8 416.935C283.333 415.735 281.2 414.668 280 414.668C276.933 414.668 267.6 408.135 264.133 403.868C251.733 387.868 246.266 333.201 253.066 292.535C258.666 259.335 270.666 226.535 284.533 206.935C287.466 202.668 290 200.801 294.533 199.335C300.666 197.468 300.666 197.468 296 197.468C293.466 197.468 290 198.001 288.533 198.668Z" fill="black"/>
<path d="M307.333 199.333C305.067 200.266 301.6 202.8 299.733 205.066C295.067 210.533 288 228.133 286.667 237.2C286.133 241.333 284.667 248.533 283.6 253.333C277.2 280.4 274.933 327.866 278.533 358C280 370.266 284.667 392.4 288.267 404.266C290 410 302.267 426 307.733 429.6C312.133 432.533 315.067 432.8 310.933 429.866C306.533 426.8 299.2 414.533 296.133 405.466C289.067 384 286.667 362.133 286.667 320C286.667 282.8 288.533 260.8 293.867 237.333C298.267 218.4 302.267 208.266 307.6 202.8C310 200.4 311.867 198.133 311.733 198C311.467 197.733 309.467 198.266 307.333 199.333Z" fill="black"/>
<path d="M326.667 198.267C326.667 198.667 328.133 200.133 330 201.6C336.933 207.067 343.067 224.933 347.733 253.333C353.6 288.667 352.667 364.133 346.133 392.4C342.533 407.733 336.8 420.267 329.867 427.6C327.6 430 326 432 326.533 432C330.533 432 346.133 414.8 348.933 407.2C351.867 399.733 357.333 377.867 358.667 368.667C364.267 330.933 362.533 286.533 354 248.667C352.133 240.667 350.667 232.933 350.667 231.6C350.667 227.333 342.4 209.2 338.4 204.667C335.067 200.8 326.667 196.267 326.667 198.267Z" fill="black"/>
<path d="M344 199.468C350.667 201.601 353.467 204.668 361.333 218.534C380.133 251.734 391.867 308.401 388.133 347.734C385.2 377.468 380.8 395.734 374.533 403.734C371.2 408.134 361.733 414.668 358.933 414.668C357.733 414.668 353.467 417.334 349.467 420.534C345.333 423.734 340 427.334 337.6 428.534C335.067 429.868 333.467 431.201 333.867 431.601C334.267 432.001 338.133 430.268 342.267 427.601C346.933 424.801 350.267 423.468 350.8 424.268C351.333 425.201 352 425.068 352.533 424.134C353.067 423.334 354.133 422.668 354.933 422.668C355.733 422.668 355.733 423.468 354.667 424.668C353.733 425.868 352 426.401 350.8 426.134C349.6 425.734 347.2 426.534 345.333 428.001C343.467 429.468 342.667 430.668 343.6 430.668C344.4 430.668 345.467 430.134 346 429.468C346.4 428.668 347.733 428.134 349.067 428.134C354 428.001 355.867 427.468 355.333 426.534C354.933 426.001 356.267 424.668 358.133 423.334C360.8 421.601 361.867 421.468 363.467 422.801C364.8 423.868 365.333 423.868 365.333 422.801C365.333 422.001 364.667 421.334 363.867 421.334C362.8 421.334 362.667 420.801 363.867 419.601C366.667 416.134 363.467 416.001 357.867 419.334C351.733 422.934 350 423.468 351.333 421.334C353.2 418.268 363.067 414.401 367.2 415.068C369.467 415.468 370.533 415.468 369.467 415.068C368.267 414.534 369.733 413.468 373.467 412.134C377.867 410.534 380.4 408.268 383.6 403.601C396 385.068 402 340.401 396.667 306.668C393.733 288.668 380.667 245.868 372.667 228.401C363.067 207.601 353.067 197.201 342.533 197.468H338L344 199.468ZM361.333 420.001C358.133 422.534 356 423.334 356 422.001C356 421.334 362.8 417.468 364 417.468C364.4 417.468 363.2 418.534 361.333 420.001Z" fill="black"/>
<path d="M318.133 200.8C313.733 214.667 314 417.333 318.4 429.333L319.6 432.533L320.533 428.933C323.6 416.667 324.933 286.933 322.667 232.933C321.333 203.867 320.133 194.667 318.133 200.8Z" fill="black"/>
<path d="M478.667 280.8C478.667 282.133 479.333 284.266 480 285.333C481.067 286.8 481.2 286.266 480.533 283.333C479.467 278.4 478.667 277.333 478.667 280.8Z" fill="black"/>
<path d="M157.467 283.068C157.333 284.135 151.733 304.668 138.533 353.068C134.8 366.535 132.133 377.868 132.4 378.135C132.933 378.668 137.467 363.601 144.667 337.335C146.267 331.068 150.267 316.801 153.333 305.601C156.267 294.401 158.533 284.401 158.133 283.601C157.867 282.668 157.467 282.535 157.467 283.068Z" fill="black"/>
<path d="M481.467 290.134C481.467 291.601 481.867 292.001 482.267 290.934C482.667 290.001 482.533 288.801 482.133 288.401C481.733 287.868 481.333 288.668 481.467 290.134Z" fill="black"/>
<path d="M482.8 294.667C482.8 295.733 483.333 297.867 484 299.333C484.667 301.067 485.2 301.2 485.2 300C485.2 298.933 484.667 296.8 484 295.333C483.333 293.6 482.8 293.467 482.8 294.667Z" fill="black"/>
<path d="M478.8 296.668C478.533 303.068 507.2 397.201 508.933 395.601C509.2 395.334 507.867 390.668 506.133 385.201C501.6 371.734 494.933 349.468 486.8 320.668C479.067 293.334 478.933 293.068 478.8 296.668Z" fill="black"/>
<path d="M155.067 308.667C145.867 342.667 136.933 372.4 130.667 390.4C128.4 396.667 126.8 402.267 126.933 402.933C127.6 404.667 138.8 372.267 145.2 350.667C148 340.8 152.267 326.267 154.667 318.4C156.933 310.533 158.667 302.8 158.4 301.067C158.133 299.2 156.933 302.133 155.067 308.667Z" fill="black"/>
<path d="M485.467 304.8C485.467 306.267 485.867 306.667 486.267 305.6C486.667 304.667 486.533 303.467 486.133 303.067C485.733 302.534 485.333 303.334 485.467 304.8Z" fill="black"/>
<path d="M486.8 310.134C486.8 311.601 487.2 312.001 487.6 310.934C488 310.001 487.867 308.801 487.467 308.401C487.067 307.868 486.667 308.668 486.8 310.134Z" fill="black"/>
<path d="M489.467 319.335C489.6 321.868 491.867 326.135 491.867 324.001C491.867 322.935 491.333 321.068 490.667 320.001C490 318.935 489.467 318.535 489.467 319.335Z" fill="black"/>
<path d="M130.133 382.001C129.733 383.201 129.333 384.935 129.467 385.735C129.467 386.668 130.133 385.868 130.8 384.135C131.467 382.401 131.867 380.668 131.467 380.401C131.2 380.135 130.667 380.801 130.133 382.001Z" fill="black"/>
<path d="M374 416.001C373.6 416.667 373.867 417.334 374.533 417.334C375.333 417.334 376 416.667 376 416.001C376 415.201 375.733 414.667 375.467 414.667C375.067 414.667 374.4 415.201 374 416.001Z" fill="black"/>
<path d="M277.333 417.6C278.533 418.933 290 427.467 292 428.533C295.467 430.4 284.8 421.6 280.667 419.2C278.533 418 276.933 417.2 277.333 417.6Z" fill="black"/>
<path d="M368.666 420C368.266 420.8 368.8 420.934 369.866 420.534C372.266 419.6 372.666 418.667 370.8 418.667C370 418.667 369.066 419.2 368.666 420Z" fill="black"/>
<path d="M110.666 430.801C104.266 445.068 111.066 484.935 123.066 503.068C128.266 510.668 132 512.135 137.333 508.135C142.933 504.135 143.2 504.535 139.2 511.335C137.333 514.668 136 517.735 136.4 518.135C137.2 518.935 142.933 508.401 145.466 501.868L146.666 498.401L143.2 501.201C138.8 504.668 133.2 504.801 129.6 501.601C126 498.668 118 478.001 115.466 465.335C112.4 450.001 111.466 435.601 113.2 430.535C115.466 424.001 113.733 424.135 110.666 430.801Z" fill="black"/>
<path d="M525.6 430.267C529.2 443.334 522.533 476.8 512.667 495.867C508.133 504.534 502.8 506.4 496.133 501.867C493.067 499.734 493.067 499.734 494 502.8C495.067 506.534 500 514.534 500 512.667C499.867 511.867 499.067 510.134 498 508.8C494.933 504.8 495.6 503.2 499.067 506.267C508.133 514.667 515.467 508.8 523.067 486.667C530.4 465.467 532.667 441.067 528 430.934C524.8 424 523.733 423.734 525.6 430.267Z" fill="black"/>
<path d="M96.5333 452.667C94 458.934 94.1333 468.001 97.4666 484.934C101.333 504.801 107.867 520.934 114.4 526.267C117.2 528.667 123.333 528.401 125.867 526.001C128.667 523.201 129.6 523.467 128.533 526.934C127.467 530.534 128.267 530.001 130.667 525.467C131.733 523.467 131.733 522.667 130.8 523.201C128.933 524.401 128.933 522.667 130.667 520.001C131.867 518.267 132 518.267 132 520.001C132.133 521.734 132.267 521.734 133.2 520.001C133.867 518.934 134.8 516.667 135.333 514.934C136 512.534 134.8 513.334 130.667 517.867C124.4 524.667 122 525.334 116.933 521.334C107.733 514.134 98.1333 481.334 98.9333 459.734C99.2 453.334 99.2 448.001 98.9333 448.001C98.6666 448.001 97.6 450.134 96.5333 452.667Z" fill="black"/>
<path d="M540.4 460.4C540 496.134 522.533 533.067 511.333 521.867C507.866 518.267 507.733 520.667 511.2 524.4C515.2 528.8 520.933 529.067 525.066 525.334C534 516.934 542.666 487.6 542.666 465.334C542.666 458.4 542.133 451.867 541.6 451.067C540.933 450.134 540.533 454.4 540.4 460.4Z" fill="black"/>
<path d="M89.0666 472.134C88.1333 477.334 89.5999 492.534 92.1333 504.001C94.3999 514.267 95.3333 509.734 93.3333 498.134C92.3999 492.934 91.3333 483.867 90.7999 478.001C90.1333 469.201 89.7333 468.134 89.0666 472.134Z" fill="black"/>
<path d="M547.6 480.267C545.467 508.667 537.467 533.867 529.2 538.134C525.467 540.001 524.8 540.001 520.267 537.334L515.333 534.534L519.733 538.667C525.333 543.867 528.667 543.734 534 538.001C538.933 532.801 541.067 527.601 545.333 509.334C548 498.001 550.667 469.334 549.067 469.334C548.667 469.334 548 474.267 547.6 480.267Z" fill="black"/>
<path d="M165.6 475.6C164.267 477.733 162.267 480.8 161.467 482.667L159.867 486L162.667 482.667C165.733 478.933 169.733 472 168.8 472C168.4 472 167.067 473.6 165.6 475.6Z" fill="black"/>
<path d="M470.8 474.933C473.067 479.2 477.333 484.533 477.333 483.2C477.333 481.733 470.8 472 469.867 472C469.6 472 470 473.333 470.8 474.933Z" fill="black"/>
<path d="M481.333 485.735C481.333 487.201 489.2 502.668 490 502.668C490.933 502.668 484.133 487.601 482.533 486.001C481.867 485.335 481.333 485.201 481.333 485.735Z" fill="black"/>
<path d="M94.8 514.935C94.5333 524.935 105.467 542.668 111.733 542.668C113.333 542.668 116.667 540.801 119.067 538.668C121.6 536.401 124.267 534.668 124.933 534.668C125.6 534.668 126.133 533.468 126.267 531.868C126.533 529.468 126.267 529.468 123.867 532.668C122.267 534.535 119.333 536.935 117.333 538.001C110 541.868 104 536.135 97.8666 519.468C95.6 513.335 94.8 512.268 94.8 514.935Z" fill="black"/>
<path d="M502.667 512.134C502.667 512.668 503.6 515.068 504.667 517.468C505.733 520.001 506.533 521.068 506.533 520.001C506.533 518.134 502.8 510.401 502.667 512.134Z" fill="black"/>
<path d="M93.4666 527.466C93.4666 528.933 93.8666 529.333 94.2666 528.266C94.6666 527.333 94.5333 526.133 94.1333 525.733C93.7332 525.2 93.3333 526 93.4666 527.466Z" fill="black"/>
<path d="M94.6665 533.067C94.6665 537.867 104.267 549.334 108.533 549.334C111.067 549.334 120.667 542.667 122.533 539.601C123.6 538.001 122 538.801 118.267 541.734C109.2 549.334 102.133 547.734 97.1998 536.801C95.8665 533.867 94.6665 532.134 94.6665 533.067Z" fill="black"/>
<path d="M541.333 537.201C541.333 538.001 539.467 540.534 537.333 542.667C533.333 546.534 527.467 547.867 524.533 545.601C523.867 545.067 524.4 545.734 525.733 546.934C527.2 548.267 529.067 549.334 530 549.334C533.867 549.334 544.133 538.401 542.133 536.267C541.733 535.867 541.333 536.267 541.333 537.201Z" fill="black"/>
</svg>
