<svg width="640" height="640" viewBox="0 0 640 640" fill="none" xmlns="http://www.w3.org/2000/svg">
<path d="M208.133 163.599C204.4 164.399 196.133 169.332 193.467 172.532C192.533 173.599 191.333 174.399 190.8 174.132C190.267 173.732 189.067 174.799 188 176.399C186.4 179.066 186.4 179.199 188.4 177.466C189.733 176.532 190.667 176.132 190.667 176.799C190.667 177.332 192.933 175.732 195.733 173.066C201.467 167.599 205.333 165.332 209.2 165.332C210.8 165.332 212 164.666 212 163.999C212 163.199 211.867 162.799 211.733 162.799C211.467 162.932 209.867 163.332 208.133 163.599Z" fill="black"/>
<path d="M424 164.133C421.333 164.933 421.867 165.066 426.4 165.199C433.2 165.333 436.4 166.799 442.4 172.399C444.667 174.666 446.667 175.866 446.667 175.199C446.667 174.399 445.333 172.666 443.733 171.199C436.4 164.799 430 162.399 424 164.133Z" fill="black"/>
<path d="M214.4 164.932C215.333 165.332 216.533 165.199 216.933 164.799C217.467 164.399 216.667 163.999 215.2 164.132C213.733 164.132 213.333 164.532 214.4 164.932Z" fill="black"/>
<path d="M192.533 169.599L190 172.666L193.067 170.133C195.867 167.733 196.667 166.666 195.6 166.666C195.333 166.666 194 167.999 192.533 169.599Z" fill="black"/>
<path d="M207.2 169.199C194.4 175.065 181.333 200.399 165.467 249.999C162.4 259.465 159.6 269.999 159.2 273.332L158.667 279.332L160.667 272.665C161.867 268.932 165.6 257.332 168.933 246.665C172.267 235.999 175.733 225.465 176.8 223.332C177.733 221.065 179.733 216.265 181.2 212.665C189.6 190.799 199.6 175.732 208.533 171.065C210.8 169.865 215.2 168.932 218.4 169.065C221.467 169.065 223.733 168.532 223.2 167.865C222 165.865 212.933 166.532 207.2 169.199Z" fill="black"/>
<path d="M414.667 167.866C414.667 168.532 417.2 169.066 420.4 169.066C427.733 168.932 433.067 171.732 439.733 179.332C448.267 189.066 459.867 215.066 470 247.332C478.267 273.732 478.8 275.466 478 268.666C476.533 255.866 460.133 210.266 450.533 191.999C443.467 178.666 438.667 172.799 431.6 169.466C425.867 166.666 414.667 165.599 414.667 167.866Z" fill="black"/>
<path d="M212.4 175.332C206.267 179.065 192.4 196.798 191.2 202.532C190.8 204.398 188.4 210.798 186 216.665C178 235.998 158.667 297.732 158.667 303.998C158.667 307.865 140.267 371.065 132.667 393.598C126.933 410.265 125.333 416.398 127.867 411.998C132.533 403.865 158.667 320.532 158.667 313.865C158.667 307.465 182.8 230.398 188.133 219.732C189.6 216.932 190.667 213.865 190.667 212.665C190.667 209.465 199.6 192.398 203.733 187.732C214.533 175.332 221.2 172.132 230.4 174.532C234.8 175.732 235.067 175.732 232.8 173.998C228.667 170.798 218.8 171.465 212.4 175.332Z" fill="black"/>
<path d="M405.466 173.466C400.666 175.333 402.8 176.133 408.4 174.533C417.466 172.133 425.466 176.133 435.866 188.666C439.6 193.199 446.666 206.133 446.666 208.666C446.666 209.599 448.666 215.199 451.066 220.933C455.866 231.866 464.133 256.399 470 276.666C477.466 302.266 478.666 306.666 478.666 309.466C478.666 311.066 480.133 317.199 481.866 323.199C483.733 329.066 488 343.333 491.333 354.666C498.8 379.733 509.866 411.199 510.4 409.333C510.666 408.533 508.266 399.999 504.933 390.266C497.6 368.799 478.666 303.466 478.666 299.466C478.666 294.266 460.266 234.933 454.666 221.999C453.333 219.066 451.066 213.733 449.466 210.133C448 206.533 446.666 202.666 446.666 201.333C446.666 197.199 432.266 178.933 426.133 175.333C420.133 171.866 411.466 171.066 405.466 173.466Z" fill="black"/>
<path d="M224.4 179.466C216 183.733 208.133 194 199.2 212.533C194.533 222.266 190.667 231.6 190.667 233.066C190.667 234.533 188.533 241.733 186 248.933C178.533 270.4 158.667 335.733 158.667 339.2C158.667 341.733 146.533 377.733 143.467 384.666C142.4 386.8 140 392.533 138 397.333C136 402 132.533 409.733 130.267 414.533C126.4 422.933 126.267 423.6 126.4 441.866C126.4 464.666 129.2 475.333 136.533 482.533C140.533 486.4 141.867 486.933 145.867 486.266C150 485.6 150.4 485.866 149.333 487.733C146 494.133 140 508.533 140.533 508.933C140.933 509.333 143.6 504.266 146.667 497.733C149.6 491.333 152.933 484.4 154 482.4C155.733 478.933 155.733 478.933 151.333 479.6C142.533 481.066 137.867 474.933 133.2 455.066C130.933 445.866 130.533 440.666 131.067 430.666C131.733 417.733 133.467 412.133 145.733 385.333C149.2 377.866 156.267 357.2 161.067 340.666C164.533 328.533 172.933 301.466 182.667 270.666C186.933 257.066 191.333 242.4 192.667 238C193.867 233.6 198.667 222.133 203.333 212.666C209.733 199.466 213.333 193.6 218.667 188.266C226.4 180.666 229.067 179.466 237.867 180.266C241.467 180.533 243.333 180.133 242.667 179.466C240.4 177.2 228.8 177.2 224.4 179.466Z" fill="black"/>
<path d="M396.666 179.198C392.933 180.798 393.2 180.798 400.8 180.265C410.266 179.598 410.933 179.865 420 188.532C425.466 193.732 428.666 198.932 435.333 212.532C440 222.132 445.066 234.532 446.533 240.265C448 245.865 449.866 251.865 450.533 253.598C451.333 255.198 454.933 266.532 458.666 278.665C462.4 290.798 468.133 309.065 471.466 319.332C474.666 329.732 477.733 340.265 478.133 342.665C479.6 350.398 487.333 371.865 495.733 391.465C506.8 417.332 508 421.198 508 433.332C508 452.265 501.2 475.198 494.666 478.665C492.933 479.598 489.6 479.998 486.933 479.598C482.666 478.798 482.533 478.932 484.533 481.198C485.733 482.532 486.666 484.265 486.666 485.065C486.666 487.332 496 507.198 496.666 506.398C497.066 505.998 495.333 501.198 492.8 495.598L488.133 485.465L492.8 486.265C496.666 486.932 498.133 486.398 501.466 483.198C507.2 477.732 509.333 471.998 511.333 455.998C513.6 437.732 512 422.932 506.4 410.665C494.4 384.665 478.666 341.732 478.666 335.065C478.666 333.465 476.933 326.532 474.8 319.732C472.666 312.932 467.733 297.065 464 284.665C460.266 272.132 454.8 255.198 451.866 246.932C449.066 238.665 446.666 230.798 446.666 229.598C446.666 228.398 443.066 219.865 438.666 210.798C425.066 183.065 411.6 172.798 396.666 179.198Z" fill="black"/>
<path d="M446.934 177.999C447.2 178.799 449.867 183.599 452.934 188.666C458.934 198.532 469.734 225.466 474.8 243.199C476.534 249.066 478 253.199 478.267 252.399C479.6 248.399 461.867 199.599 454.934 188.399C451.067 181.999 446.267 175.866 446.934 177.999Z" fill="black"/>
<path d="M186.133 184.667C184.133 188 182 190.4 181.333 190C180.667 189.6 179.733 190 179.2 190.8C178.533 191.867 178.8 192 180 191.334C181.2 190.534 181.6 190.8 181.067 192.134C169.2 220.934 158.667 251.334 158.667 256.4C158.667 259.6 160.133 255.734 164 242.8C169.6 224.134 180.4 197.334 186.133 187.734C188.8 183.334 190.667 179.6 190.267 179.2C190 178.8 188 181.334 186.133 184.667Z" fill="black"/>
<path d="M184 182.665C183.2 184.132 182.933 185.332 183.2 185.332C183.6 185.332 184.533 184.132 185.333 182.665C186.133 181.199 186.4 179.999 186.133 179.999C185.733 179.999 184.8 181.199 184 182.665Z" fill="black"/>
<path d="M233.2 187.866C225.6 191.866 224.4 193.466 213.2 215.332C205.867 229.732 190.667 270.666 190.667 276.132C190.667 278.799 169.733 341.466 163.733 356.799C161.2 363.332 158 371.599 156.667 375.332C155.467 378.932 153.2 385.332 151.733 389.332C145.6 405.732 147.6 432.932 156 451.066C161.467 462.532 166.667 464.932 173.733 458.932C176.533 456.399 176.667 457.732 173.867 461.999C170 467.866 173.067 465.599 177.333 459.466C182 452.532 182.267 451.332 178.8 453.332C174.133 455.732 170 454.799 165.867 450.266C160.667 444.799 159.333 441.199 156.667 423.466C152.933 399.999 155.067 386.666 166.933 357.332C174.667 338.399 189.333 295.866 191.867 284.932C192.667 281.466 196.933 268.266 201.467 255.599C208.267 236.266 212.4 226.799 224.267 201.999C228.4 193.199 238.933 186.666 248.933 186.666C253.6 186.666 254.8 186.266 253.333 185.332C249.467 182.799 240.533 183.866 233.2 187.866Z" fill="black"/>
<path d="M384.4 185.332C380 187.199 380.533 187.332 388.133 186.799C396 186.266 404.267 189.466 409.067 194.666C417.333 203.866 440.667 260.132 447.333 287.332C450 298.132 465.467 342.799 470 352.666C473.067 359.599 476.8 369.866 480.933 383.332C484.267 394.399 484 416.399 480.267 433.199C478 443.466 476.667 446.532 473.2 450.132C468.667 454.799 464.533 455.732 459.867 453.199C457.333 451.866 457.2 451.999 459.2 455.599C462 460.932 465.2 464.932 465.333 463.066C465.333 462.266 464.8 461.066 464 460.666C463.333 460.266 462.667 459.332 462.667 458.666C462.667 458.132 464.8 458.666 467.467 459.999C474.133 463.466 477.333 461.599 482.4 451.332C491.467 432.932 493.067 405.732 486.267 387.999C484.533 383.199 482 376.266 480.667 372.666C479.333 368.932 476 359.999 473.333 352.666C465.6 332.132 446.667 274.799 446.667 271.999C446.667 268.132 433.6 232.666 427.333 219.332C417.867 199.466 412.8 191.999 405.733 187.732C399.067 183.866 390.4 182.932 384.4 185.332Z" fill="black"/>
<path d="M242.267 197.733C234.667 205.6 225.333 222.933 219.333 240.667C217.2 246.533 210.933 264.533 205.2 280.667C199.6 296.8 194 312.667 192.933 316C187.867 331.2 184.667 340.267 180.4 352.533C171.867 376.667 173.067 406.4 183.467 427.067C188.933 437.867 194.267 439.733 203.333 434C208.667 430.533 208.667 430.533 204.533 431.333C195.467 433.067 187.867 419.467 184 394.667C180.267 370.4 183.2 355.733 202.667 302C206.4 291.733 212.533 274.267 216.267 263.333C226.4 233.6 228.8 227.467 235.467 215.6C242.133 203.867 247.6 197.2 254 193.2L258 190.667H253.6C249.867 190.667 247.867 192 242.267 197.733Z" fill="black"/>
<path d="M384.667 193.199C386.933 194.532 391.2 198.265 394 201.599C399.867 208.132 414.667 236.532 414.667 240.932C414.667 242.399 415.6 245.999 416.8 248.799C418.8 253.465 439.2 309.865 444.4 325.332C451.333 345.599 454.933 360.265 455.6 371.465C457.467 401.332 446.267 434.132 435.2 431.465C433.467 430.932 432 430.932 432 431.332C432 432.799 440.8 437.332 443.733 437.332C448.533 437.332 453.867 430.932 457.733 420.665C465.6 399.732 466 374.932 458.933 354.665C456.8 348.399 448 323.199 439.6 298.665C431.2 274.132 422.133 248.665 419.467 241.999C416.8 235.465 414.667 229.465 414.667 228.665C414.8 224.932 402.533 204.132 396.4 197.865C390.8 191.999 388.8 190.665 385.067 190.665H380.667L384.667 193.199Z" fill="black"/>
<path d="M266 196.799C261.467 199.066 254.667 205.199 254.667 207.066C254.667 207.732 252.4 212.266 249.467 217.066C244.133 226.266 232.4 255.066 226.133 273.999C217.2 301.599 209.333 326.666 207.867 333.332C205.067 344.666 205.467 374.532 208.533 387.332C213.6 409.199 220.533 418.532 230 416.799C234.4 415.866 236.667 413.332 232.933 413.332C230.133 413.332 223.867 405.999 222.667 401.199C222 398.666 220.133 391.866 218.533 385.999C216.267 377.466 215.6 371.199 215.467 354.666C215.333 336.399 215.733 332.132 219.067 317.999C224.667 293.999 241.867 243.999 250.8 226.132C252.933 221.732 254.667 217.732 254.667 217.066C254.667 214.666 262.8 203.999 267.2 200.666C269.733 198.799 274.267 196.666 277.467 196.132L283.333 194.932L276.667 194.799C272.933 194.799 268.267 195.599 266 196.799Z" fill="black"/>
<path d="M360.4 195.998C367.333 197.198 374.267 201.732 378.4 207.598C382 213.065 392.533 235.332 396 245.332C397.733 250.132 399.467 254.532 400 255.332C401.6 257.732 414.4 297.598 418 311.332C422.4 328.265 424 339.065 424 353.465C424 380.532 414 413.332 405.733 413.332C402.4 413.332 404 415.732 408 416.665C413.067 417.732 419.6 414.265 422.933 408.665C427.467 400.665 432 381.465 432.8 366.132C433.867 346.798 431.467 333.332 421.867 303.598C417.733 290.932 412.933 275.865 411.067 269.998C405.467 252.532 393.867 224.932 388.4 215.732C385.467 211.065 382.8 206.265 382.4 205.065C381.867 203.865 379.333 201.198 376.667 199.198C372.533 196.132 370.133 195.332 362.8 195.065C354.133 194.798 354.133 194.798 360.4 195.998Z" fill="black"/>
<path d="M288.533 198.8C278.933 201.6 265.733 222 258.267 246C245.733 285.6 241.467 305.734 240.533 329.334C239.2 359.2 243.467 383.334 253.067 399.734C256.533 405.867 258.933 407.467 272.667 412.534C277.467 414.4 284.133 418.267 287.2 420.934C290.4 423.734 295.6 427.334 298.8 429.067C302.8 431.2 303.733 431.334 301.6 429.734C288 418.934 284.133 416.267 279.067 413.334C262.133 403.734 257.333 395.867 253.067 371.067C247.867 339.6 250 296.534 258.533 266C268.933 228.8 283.867 200 292.8 200C294.133 200 296.267 199.334 297.333 198.667C298.933 197.6 298.667 197.334 296 197.467C294.133 197.467 290.8 198.134 288.533 198.8Z" fill="black"/>
<path d="M307.333 199.333C305.2 200.267 302 202.4 300.4 204.133C295.6 209.467 288.267 226.8 286.667 236.667C285.867 241.867 284.4 249.733 283.333 254.4C277.333 280.4 275.067 329.067 278.533 358C280.4 373.067 285.867 398.133 289.067 405.867C293.067 415.333 307.867 432 312.4 432C313.067 432 311.867 430.533 309.733 428.8C304.533 424.4 296.533 408.133 293.333 395.333C288.4 376 286.667 356.533 286.667 320.267C286.667 260.4 294.533 215.867 307.6 202.8C310.133 200.4 311.867 198.133 311.733 198C311.467 197.733 309.6 198.267 307.333 199.333Z" fill="black"/>
<path d="M326.667 198.133C326.667 198.666 328.133 200.133 330 201.6C337.067 207.066 342.533 222.666 347.467 250.8C350.933 270.4 351.067 273.333 351.067 318.666C351.067 368.933 350 380.8 343.733 401.333C340.533 411.466 331.867 426.933 327.733 430C323.6 432.8 326.533 432.533 330.933 429.6C335.333 426.666 347.2 412 349.067 407.066C363.867 367.866 366 300 354.133 248.666C352.4 241.333 350.667 232.933 350.133 230C349.2 223.2 341.333 206.933 337.2 203.066C334 200.133 326.667 196.666 326.667 198.133Z" fill="black"/>
<path d="M341.333 198.666C342.4 199.332 344.533 199.999 345.867 199.999C349.867 199.999 357.6 209.199 363.6 220.799C369.867 233.066 380.667 265.332 382.667 277.599C383.333 282.132 384.8 291.332 385.867 297.866C389.067 316.399 389.867 335.066 388.133 351.199C386 370.532 382 389.332 378.8 395.866C375.467 402.132 368 408.666 358.267 413.866C354.133 415.999 350.533 418.399 350.133 419.332C349.867 420.132 346.267 423.199 342.133 425.866C338 428.532 334.667 431.066 334.667 431.466C334.667 432.932 345.733 425.866 351.067 421.066C354.133 418.399 359.333 415.066 362.667 413.866C379.067 407.866 381.2 406.399 385.067 400.132C394.933 384.266 399.333 360.666 398.133 329.999C397.467 308.532 395.6 298.399 387.467 269.999C374 223.332 364.4 204.666 351.067 199.199C345.867 196.932 338.133 196.666 341.333 198.666Z" fill="black"/>
<path d="M318.133 200.8C313.733 214.667 314 417.333 318.4 429.333L319.6 432.533L320.533 428.933C323.6 416.667 324.933 286.933 322.667 232.933C321.333 203.867 320.133 194.667 318.133 200.8Z" fill="black"/>
<path d="M478.8 257.999C478.667 260.665 483.733 277.865 483.867 275.332C483.867 274.532 482.8 269.732 481.467 264.665C480 259.465 478.8 256.532 478.8 257.999Z" fill="black"/>
<path d="M154.133 274.666C145.733 306.666 126.8 382.133 126.667 383.866C126.667 384.933 126.933 385.466 127.2 385.2C127.6 384.933 133.333 363.066 140 336.666C146.667 310.266 153.733 283.333 155.467 276.8C157.333 270.266 158.533 264 158.4 262.8C158.133 261.6 156.267 266.933 154.133 274.666Z" fill="black"/>
<path d="M478.667 279.066C478.667 280.932 479.2 283.866 480 285.599C480.667 287.332 484.267 300.399 488 314.666C497.2 349.732 509.6 393.866 510.4 394.666C511.733 395.999 509.6 386.799 502.933 362.666C499.2 349.066 492.533 324.132 488 307.332C483.467 290.399 479.467 276.399 479.2 276.132C478.933 275.866 478.667 277.066 478.667 279.066Z" fill="black"/>
<path d="M484.8 281.332C485.333 283.866 486.267 287.199 486.8 288.666C487.6 290.532 487.733 289.866 487.2 286.666C486.667 284.132 485.733 280.799 485.2 279.332C484.4 277.466 484.267 278.132 484.8 281.332Z" fill="black"/>
<path d="M157.067 282.666C155.867 287.599 137.6 356.133 134 369.333C128.4 389.599 126.933 393.999 126.667 391.333C126.533 389.866 125.6 391.599 124.533 395.333C122.267 403.733 122.4 406.533 124.667 399.333C125.867 395.999 126.533 394.933 126.667 396.666C127.067 400.399 131.867 384.799 141.467 349.333C155.867 296.133 158.8 284.666 158.267 281.999C158 279.733 157.867 279.866 157.067 282.666Z" fill="black"/>
<path d="M488.267 293.333C488.267 294.4 488.8 296.8 489.333 298.667C490.133 301.333 490.4 301.467 490.4 299.333C490.4 297.867 490 295.467 489.333 294C488.667 292.4 488.267 292.133 488.267 293.333Z" fill="black"/>
<path d="M490.8 304.799C490.8 306.265 491.2 306.665 491.6 305.599C492 304.665 491.867 303.465 491.467 303.065C491.067 302.532 490.667 303.332 490.8 304.799Z" fill="black"/>
<path d="M492.134 310.133C492.134 311.599 492.534 311.999 492.934 310.933C493.334 309.999 493.2 308.799 492.8 308.399C492.4 307.866 492 308.666 492.134 310.133Z" fill="black"/>
<path d="M493.467 315.466C493.467 316.933 493.867 317.333 494.267 316.266C494.667 315.333 494.533 314.133 494.133 313.733C493.733 313.2 493.333 314 493.467 315.466Z" fill="black"/>
<path d="M496.134 324.799C496.134 326.265 496.534 326.665 496.934 325.599C497.334 324.665 497.2 323.465 496.8 323.065C496.4 322.532 496 323.332 496.134 324.799Z" fill="black"/>
<path d="M497.467 330.133C497.467 331.599 497.867 331.999 498.267 330.933C498.667 329.999 498.533 328.799 498.133 328.399C497.733 327.866 497.333 328.666 497.467 330.133Z" fill="black"/>
<path d="M498.8 335.466C498.8 336.933 499.2 337.333 499.6 336.266C500 335.333 499.867 334.133 499.467 333.733C499.067 333.2 498.667 334 498.8 335.466Z" fill="black"/>
<path d="M500.134 340.799C500.134 342.265 500.534 342.665 500.934 341.599C501.334 340.665 501.2 339.465 500.8 339.065C500.4 338.532 500 339.332 500.134 340.799Z" fill="black"/>
<path d="M501.467 347.466C501.467 348.933 501.867 349.333 502.267 348.266C502.667 347.333 502.533 346.133 502.133 345.733C501.733 345.2 501.333 346 501.467 347.466Z" fill="black"/>
<path d="M511.466 401.733C512.266 407.2 517.333 421.733 518.266 420.933C518.533 420.533 518 418.666 517.2 416.533C516.4 414.4 514.533 409.066 513.2 404.666C511.333 398.933 510.8 398.133 511.466 401.733Z" fill="black"/>
<path d="M122.8 411.867C120.933 417.467 118.4 424.667 117.067 427.867C115.733 431.067 114.8 434 115.2 434.267C116.133 435.2 126.8 406.4 126.4 403.867C126.133 402.667 124.533 406.267 122.8 411.867Z" fill="black"/>
<path d="M121.467 407.466C121.467 408.933 121.867 409.333 122.267 408.266C122.667 407.333 122.533 406.133 122.133 405.733C121.733 405.2 121.333 406 121.467 407.466Z" fill="black"/>
<path d="M376 414.666C374.267 417.066 373.733 418.8 374.667 419.333C375.467 419.866 375.867 419.733 375.733 419.066C375.2 417.2 378.8 411.866 380.133 412.666C380.8 413.2 380.933 414.266 380.4 415.066C379.867 416 380.4 415.866 381.733 414.8C384.533 412.533 384.533 412.4 381.333 411.6C379.467 411.066 377.867 412 376 414.666Z" fill="black"/>
<path d="M265.2 413.999C265.867 415.465 267.6 416.665 268.933 416.665C270.267 416.665 271.2 417.465 270.933 418.399C270.8 419.465 271.2 419.865 271.867 419.465C272.4 419.065 275.6 420.532 278.8 422.932C281.867 425.199 285.733 427.199 287.2 427.199C288.8 427.332 289.867 427.999 289.733 428.665C289.6 429.465 290.933 430.132 292.8 430.132C295.2 430.265 293.333 428.399 285.333 422.532C274.933 414.799 268.933 411.599 276.667 417.999C278.933 419.732 280 421.199 279.2 421.332C278.267 421.332 275.733 419.599 273.467 417.465C271.2 415.332 268.933 414.132 268.533 414.932C268.133 415.599 266.933 415.065 265.733 413.732C264 411.465 263.867 411.465 265.2 413.999ZM284.533 423.332C286 424.399 286.8 425.599 286.4 425.999C286 426.399 284.267 425.599 282.533 424.132C278.933 421.065 280.667 420.399 284.533 423.332Z" fill="black"/>
<path d="M372.533 413.999C371.867 415.465 371.2 415.732 370 414.665C368.8 413.599 368.133 413.865 367.467 415.332C367.067 416.399 366.133 417.332 365.333 417.332C364.533 417.332 364.267 416.665 364.667 415.999C366.4 413.332 363.6 414.799 353.333 422.532C345.333 428.399 343.467 430.265 345.867 430.132C347.733 430.132 348.8 429.732 348.533 429.465C347.733 428.665 352.133 423.999 353.733 423.999C354.533 423.999 354 425.332 352.533 426.932C350.267 429.465 350.667 429.332 355.2 426.265C358 424.399 361.2 423.199 362.267 423.599C363.867 424.265 363.867 424.532 362.4 425.599C360.933 426.665 360.933 426.799 362.4 426.399C363.467 426.132 364.267 425.332 364.267 424.665C364.267 423.865 364.8 422.532 365.6 421.599C366.4 420.799 366.533 419.999 366 419.999C365.467 419.999 365.733 419.065 366.667 417.999C367.6 416.932 368.933 415.999 369.6 415.999C370.4 415.999 370.4 416.799 369.467 417.865C368.267 419.332 368.267 419.999 369.467 420.799C370.4 421.332 370.667 421.199 370.133 420.265C369.733 419.465 369.867 418.532 370.667 417.999C372.267 417.065 375.067 411.999 374 411.999C373.6 411.999 372.933 412.932 372.533 413.999ZM362.667 419.332C361.2 421.065 361.333 421.199 363.333 420.532C365.067 419.865 365.467 419.999 364.8 421.199C364.267 421.999 362.667 422.399 361.333 421.999C360 421.599 358.533 421.865 358 422.665C357.6 423.332 356.4 423.999 355.6 423.999C354.667 423.999 355.867 422.532 358 420.665C362.533 417.065 365.2 416.265 362.667 419.332Z" fill="black"/>
<path d="M511.467 414.666C512.4 418.533 517.2 427.999 517.2 425.999C517.2 425.199 515.733 421.599 513.867 417.999C512.133 414.266 511.067 412.799 511.467 414.666Z" fill="black"/>
<path d="M121.2 425.6C118.533 431.733 115.867 436.533 115.2 436.4C114.533 436.267 113.867 437.467 113.733 439.067C113.733 440.667 112.267 445.6 110.667 450C108.133 456.8 107.867 459.867 108.4 470.667C109.067 484.4 112.8 498.133 117.733 505.467C121.6 511.2 128.933 512.4 133.2 508.133C136.933 504.4 136.667 505.467 131.867 515.733C129.733 520.4 128.133 524.533 128.4 524.8C129.067 525.467 137.733 507.867 139.333 502.8L140.267 499.6L136.667 502.4C131.6 506.4 127.6 506.133 123.467 501.333C115.867 492.133 109.867 461.867 113.333 449.467C114.133 446.133 117.6 437.467 120.8 430.267C124.133 422.933 126.667 416.533 126.4 415.733C126.133 415.067 123.867 419.467 121.2 425.6Z" fill="black"/>
<path d="M519.467 432.665C520 434.132 521.867 439.465 523.733 444.665C526.533 452.799 526.933 455.465 526.133 465.332C525.2 480.532 520.267 495.865 514.267 502.265C510.8 506.132 506.8 506.132 502.133 502.532C500.267 501.065 498.667 500.265 498.667 500.799C498.667 502.665 508.4 522.665 508.933 522.132C509.333 521.865 507.867 518.132 506 513.999C502.133 505.865 502.133 503.732 506 507.999C509.067 511.332 516.133 511.465 519.067 508.265C525.467 501.199 531.333 477.999 530.4 462.665C529.867 453.865 528.933 450.665 524.267 441.199C521.067 435.065 519.067 431.199 519.467 432.665Z" fill="black"/>
<path d="M97.6001 471.6C94.0001 479.733 94.6668 500.667 99.0668 513.067C105.333 530.667 110.8 534.933 119.333 529.2C121.867 527.467 124.4 524.933 124.8 523.6C125.2 522.4 126 521.333 126.667 521.333C127.2 521.333 128.4 519.333 129.2 516.933C130.267 513.467 130.267 513.2 128.933 515.333C126 520.133 118.933 526.667 116.667 526.667C112.133 526.667 108.933 523.467 105.333 515.6C103.333 511.067 100.933 504.133 100.133 500.267C98.4001 491.733 98.2668 476.933 99.8668 470.933C101.6 465.2 100.4 465.467 97.6001 471.6Z" fill="black"/>
<path d="M161.6 473.332C160.4 475.466 158.8 477.332 158.267 477.332C157.6 477.332 157.6 477.866 158 478.666C158.4 479.332 157.867 481.866 156.667 484.132C155.467 486.399 155.067 487.866 155.733 487.466C156.533 487.066 158.4 483.866 160.133 480.266C161.733 476.799 163.6 472.932 164.267 471.599C166.267 467.732 164 469.066 161.6 473.332Z" fill="black"/>
<path d="M473.6 470C474 470.667 476 474.8 477.867 479.2C479.867 483.467 481.867 486.667 482.267 486.133C482.667 485.733 482.4 484.667 481.734 483.733C480.934 482.8 479.6 479.733 478.8 477.067C477.867 474.4 476.267 471.467 475.067 470.4C473.867 469.467 473.2 469.2 473.6 470Z" fill="black"/>
<path d="M539.6 472C542.4 482.533 539.333 504.133 533.2 516.267C527.733 526.933 522.4 529.333 516.4 523.733C514.667 522.133 513.333 521.467 513.333 522.267C513.333 524.533 522.533 532 525.333 532C530.533 532 536.4 523.2 540.533 509.467C543.333 500.133 543.333 478.267 540.667 472.667C539.067 469.467 538.933 469.333 539.6 472Z" fill="black"/>
<path d="M88.7999 498.399C87.3332 509.866 93.9999 539.066 99.0666 542.933C102.267 545.466 108.667 546.133 110 543.999C110.4 543.199 111.467 542.666 112.4 542.666C113.2 542.666 111.867 544.799 109.333 547.333C104.4 552.399 100.8 553.199 97.0666 549.733C95.7332 548.533 94.6666 548.266 94.6666 549.066C94.6666 550.799 99.8666 554.666 102.267 554.666C104.933 554.666 114.8 545.199 114.4 542.933C114.133 541.866 115.067 540.799 116.4 540.533C119.333 540.133 121.2 538.666 118.8 538.666C117.6 538.666 117.6 537.999 118.8 535.866C119.733 533.999 120.667 533.466 121.2 534.533C121.733 535.466 123.067 534.133 124.533 531.199C125.733 528.533 126.533 525.999 126.133 525.733C125.867 525.466 125.2 526.399 124.667 527.866C124.267 529.466 123.2 530.399 122.533 529.999C121.867 529.599 121.733 530.266 122.267 531.466C122.8 532.799 122.533 533.466 121.733 532.933C121.067 532.533 118.133 534.533 115.333 537.333C107.6 545.199 101.6 544.399 96.7999 534.933C94.1332 529.466 90.2666 506.533 90.7999 498.799C91.4666 490.133 89.9999 489.866 88.7999 498.399Z" fill="black"/>
<path d="M547.6 504.932C547.2 511.465 546 519.599 544.933 523.332C543.867 526.932 542.667 531.465 542.133 533.332C540.4 541.332 531.733 545.199 526.4 540.399C525.067 539.199 523.6 538.665 523.2 539.065C522 540.265 530.8 545.332 534 545.332C538.8 545.199 541.733 541.599 545.067 531.732C547.2 524.932 548.4 517.732 548.933 507.599C549.333 499.732 549.333 493.332 549.067 493.332C548.667 493.332 548 498.532 547.6 504.932Z" fill="black"/>
<path d="M508.933 516.133C509.466 517.867 510 518.533 510.4 517.467C510.666 516.533 510.266 515.067 509.6 514.4C508.533 513.333 508.4 513.867 508.933 516.133Z" fill="black"/>
<path d="M88.1333 531.466C88.1333 532.933 88.5333 533.333 88.9333 532.266C89.3333 531.333 89.2 530.133 88.8 529.733C88.4 529.2 88 530 88.1333 531.466Z" fill="black"/>
<path d="M548.134 535.466C548.134 536.933 548.534 537.333 548.934 536.266C549.334 535.333 549.2 534.133 548.8 533.733C548.4 533.2 548 534 548.134 535.466Z" fill="black"/>
<path d="M89.9999 537.866C90.7999 541.866 94.6666 548.399 94.6666 545.866C94.6666 545.199 93.4666 542.133 91.8666 539.333C89.4666 534.666 89.1999 534.533 89.9999 537.866Z" fill="black"/>
<path d="M543.867 545.067C540.133 552.267 536.8 553.467 531.067 549.733C527.467 547.467 527.467 547.467 529.2 549.733C534.8 556.8 540.133 555.6 544.8 546.4C549.067 537.867 548.267 536.667 543.867 545.067Z" fill="black"/>
</svg>
