<svg width="640" height="640" viewBox="0 0 640 640" fill="none" xmlns="http://www.w3.org/2000/svg">
<path d="M191.6 160.401C190.667 161.068 191.467 161.201 193.334 160.668C196.534 159.868 196.534 160.001 194.134 161.868C192.8 163.068 191.067 163.601 190.4 163.201C189.2 162.401 183.2 168.934 179.6 175.201C177.2 179.201 177.2 179.201 179.6 176.001C184.267 169.601 189.734 163.868 190.4 164.668C190.8 165.068 189.6 167.068 187.6 169.068C181.734 175.334 171.867 194.534 165.067 213.334C161.6 223.201 158.667 232.534 158.8 234.001C158.8 235.468 160 233.334 161.2 229.334C169.734 202.801 181.067 179.201 190.4 168.268C195.6 162.268 203.734 159.068 209.867 160.668C212.134 161.334 212.267 161.201 210.534 160.134C208 158.534 193.867 158.801 191.6 160.401Z" fill="black"/>
<path d="M428 160.133C426.4 161.2 426.533 161.333 428.8 160.667C434.8 159.067 442.8 162.267 448.133 168.267C455.733 176.933 465.733 196.133 472.133 214.4C475.333 223.333 478.133 230.133 478.4 229.467C479.2 227.2 469.2 200.667 463.2 188.667C459.867 182 454.8 173.867 451.867 170.4C446.533 164 445.333 161.733 448.4 163.467C449.2 164 448.8 163.2 447.467 161.6C444.667 158.267 442.667 157.467 445.333 160.667C447.467 163.2 445.733 163.2 441.333 160.667C437.333 158.4 430.8 158.133 428 160.133Z" fill="black"/>
<path d="M198.267 166.668C194.8 168.801 191.467 171.735 191.067 172.935C190.534 174.135 187.867 179.068 184.934 183.868C182 188.668 178 196.535 175.867 201.468C169.467 216.668 158.534 250.801 158.934 254.535C159.2 256.801 160.8 252.801 163.867 242.668C172.267 213.735 184.667 185.735 194.667 172.935C198.8 167.601 204.667 165.068 212.534 165.068C217.2 165.201 218.667 164.801 217.334 164.001C213.2 161.335 204.667 162.535 198.267 166.668Z" fill="black"/>
<path d="M420 164.667L416.667 166.667L420.667 165.867C422.934 165.467 425.334 164.933 426.267 164.667C430.8 163.2 446.667 172 446.667 176C446.667 176.534 449.334 181.467 452.667 186.8C459.067 197.467 469.867 224.534 474.934 242.667C476.667 249.067 478.134 252.667 478.4 251.067C479.334 244.134 463.334 199.867 454.534 185.334C451.334 180 448 174.534 447.067 172.934C446.267 171.467 443.067 168.533 439.867 166.4C433.467 162.133 425.467 161.467 420 164.667Z" fill="black"/>
<path d="M208.267 170.8C201.334 174.267 194 183.6 188 196.667C178.534 217.467 166.934 251.334 161.334 274.667C159.6 281.6 152.667 308.934 145.867 335.334C139.067 361.734 131.867 389.6 129.867 397.334C127.867 405.067 122.8 422.4 118.534 436C114.267 449.6 110.134 463.067 109.467 466C106.267 478 108.667 499.067 114.134 507.6C116.8 511.734 125.2 511.867 127.734 507.867C130.4 503.734 131.2 505.734 128.8 510.534C127.6 512.667 126.667 515.6 126.8 516.934C126.8 518.8 127.067 518.934 127.6 517.334C128 516.267 129.334 512.934 130.667 510C132 507.067 133.467 503.2 134 501.334L134.934 498L130.934 501.867C122.667 509.6 116 502.4 113.067 482.667C111.334 470.934 112.934 460.934 120.4 436.934C130.267 405.6 141.867 363.734 152.134 322.667C167.734 260.267 174.267 238.134 184.667 212.667C188 204.667 190.667 197.334 190.667 196.667C190.667 194.4 201.867 179.6 206.534 175.6C211.867 171.2 215.734 170.134 223.067 171.067C228.4 171.734 228.534 171.734 225.334 170C220.534 167.334 214.8 167.6 208.267 170.8Z" fill="black"/>
<path d="M414 169.867L410 171.734L415.6 171.067C418.667 170.667 422.667 170.667 424.533 171.201C431.333 172.934 443.733 186.667 447.467 196.667C448.4 198.801 452 208.134 455.733 217.334C462.4 233.734 474.133 271.067 477.333 285.334C479.733 296.801 490.533 339.734 493.333 349.334C494.667 354.134 498.933 369.334 502.933 383.334C506.8 397.201 510.133 407.334 510.4 405.734C510.667 404.001 509.333 397.734 507.467 391.734C505.733 385.601 502.267 373.467 500 364.667C485.333 309.201 479.467 286.534 478.533 280.667C476.667 268.801 466.267 235.334 458.667 216.001C447.2 187.067 439.867 175.467 430.267 170.801C423.6 167.601 419.6 167.334 414 169.867Z" fill="black"/>
<path d="M218.4 177.335C211.333 181.201 200.933 194.668 195.467 207.201C187.467 225.868 165.333 297.335 160.133 321.335C156.667 336.935 146 373.868 137.067 400.668C126.667 432.268 124.667 444.001 126.533 463.601C127.467 473.868 128.133 476.401 131.333 480.668C134.667 484.935 135.733 485.468 139.6 485.068C142 484.801 144 484.801 144 485.335C144 486.668 138.533 500.401 135.867 505.468C134.4 508.401 133.867 510.668 134.4 510.668C135.733 510.668 143.867 493.335 146.533 485.068C147.467 482.268 149.067 479.468 150.133 478.935C151.333 478.268 149.867 477.868 145.867 477.868C140.8 478.001 139.2 477.468 137.2 474.668C131.067 466.268 128.933 443.201 132.8 426.668C133.867 421.868 138.667 406.268 143.333 392.001C155.2 355.735 158.667 344.001 158.667 340.801C158.667 336.935 171.333 292.268 184 252.001C187.467 240.668 190.8 229.601 191.333 227.468C193.067 219.735 206.533 193.868 211.6 188.535C220.4 179.068 224.533 176.935 232.4 177.601C239.067 178.268 239.2 178.268 235.333 176.535C229.733 174.135 224.133 174.401 218.4 177.335Z" fill="black"/>
<path d="M404.667 175.6C399.067 176.933 400.134 178.266 406.4 177.6C414.134 176.933 417.867 178.8 426.534 187.866C431.867 193.466 446.667 221.2 446.667 225.6C446.667 226.533 449.867 237.067 453.867 249.2C462.667 276 478.667 331.867 478.667 335.6C478.667 338.533 488.134 369.867 499.334 404C506 424.4 507.067 429.067 507.734 440.667C508.134 450.4 507.734 456.267 506.134 462.667C503.067 474.667 500.4 478 493.734 478C488.534 478 488.534 478 490.267 481.333C491.2 483.2 493.734 489.2 496 494.8C499.867 504.4 505.867 514.933 502.8 506.667C502.134 504.8 500 499.467 498.134 494.8C496.267 490 494.667 485.733 494.667 485.333C494.667 484.933 496.667 484.8 499.067 485.067C502.8 485.467 504 484.933 506.934 481.067C509.6 477.6 510.534 474.133 511.734 463.867C513.734 445.467 511.467 431.6 501.467 401.333C493.2 376.267 481.334 334.667 476 312.267C471.467 292.667 459.467 253.6 447.867 220C443.067 206 437.734 195.466 431.867 188.133C422.667 176.8 414.8 173.2 404.667 175.6Z" fill="black"/>
<path d="M175.467 182.267C174.667 184.134 174.8 184.267 176.133 183.067C177.067 182.134 177.467 181.067 177.067 180.667C176.667 180.267 175.867 180.934 175.467 182.267Z" fill="black"/>
<path d="M393.467 182.934C390.134 183.468 386.934 184.534 386.267 185.201C385.6 185.868 387.867 185.734 391.2 184.934C396.8 183.734 398 183.868 404.934 187.468C413.067 191.601 415.734 195.334 426.267 217.334C432 229.334 444.934 264.801 446 271.734C447.2 278.401 458.134 314.801 472 358.001C480.8 385.601 483.334 397.868 483.2 414.668C483.067 442.401 475.067 457.468 464.267 449.868C462.667 448.801 461.334 448.268 461.334 448.934C461.334 450.801 469.467 464.268 470.134 463.601C470.534 463.334 469.467 460.801 467.867 458.001L464.934 452.934L467.867 454.801C476.4 459.868 476.534 460.001 479.2 458.268C485.734 453.868 490.667 438.668 490.667 422.801C490.667 411.201 489.2 403.068 483.467 384.001C480.934 375.601 477.6 364.401 476.267 359.334C474.8 354.134 471.334 342.801 468.667 334.001C460.8 308.401 455.2 289.734 450.8 274.001C443.2 246.934 435.734 226.134 428.4 211.601C416.4 187.601 407.6 180.401 393.467 182.934Z" fill="black"/>
<path d="M228.533 186.134C222.267 190.267 216.8 197.734 209.2 213.334C202.933 226.134 190.667 259.201 190.667 263.201C190.667 264.667 187.867 274.934 184.533 286.001C181.2 296.934 176.4 312.934 173.867 321.334C171.2 329.734 166.8 344.134 164 353.334C161.2 362.534 158.267 372.667 157.333 376.001C156.533 379.334 154.133 388.267 152 396.001C146 417.734 146.8 438.801 154.133 451.601C158.8 459.601 161.6 460.801 167.467 457.467C172.533 454.401 172.933 454.667 169.867 459.467C168.667 461.201 168 463.067 168.4 463.467C169.2 464.267 177.333 450.934 177.333 448.934C177.333 448.267 176 448.801 174.4 449.867C167.067 455.067 160.133 449.601 157.6 436.667C152.533 410.534 154.4 397.867 171.6 342.667C178.533 320.267 185.733 297.334 187.467 291.734C189.2 286.134 190.667 280.267 190.667 278.801C190.667 276.267 200.667 246.001 206.667 230.267C208.267 226.001 213.067 215.867 217.2 207.601C224 194.401 225.6 192.267 231.333 188.667C236.667 185.334 239.067 184.667 245.2 184.934C250.267 185.067 251.867 184.667 250 184.001C244.133 181.467 234.133 182.534 228.533 186.134Z" fill="black"/>
<path d="M247.734 190.267C242.534 191.067 232.8 202.267 227.467 213.6C218.4 232.4 199.067 288.667 191.2 318.667C189.334 325.6 185.867 337.733 183.334 345.733C176.534 367.067 174.267 380.933 175.067 396.667C175.734 410.667 179.867 425.333 184.8 430.8C188 434.267 193.867 434 199.734 429.867L204.667 426.4L200.534 427.333C195.2 428.4 191.867 425.467 188.267 416.667C181.867 400.933 181.334 375.2 186.8 354C188.4 348.133 190.134 340.667 190.667 337.333C191.867 330.8 199.067 308 213.467 265.2C218.534 250.133 222.667 236.933 222.667 235.867C222.667 232.133 236.4 206.533 241.6 200.667C247.6 193.867 250.667 191.867 257.334 190.533L262 189.6L256.667 189.733C253.734 189.733 249.734 190 247.734 190.267Z" fill="black"/>
<path d="M381.334 190.4C388.134 192 391.067 193.867 396.8 200.4C402.667 207.067 412.667 225.467 414.534 232.933C415.334 235.733 420.534 251.733 426.267 268.667C437.867 302.667 445.867 328.133 447.734 337.333C448.4 340.667 450.267 348.133 451.867 354C457.867 376.533 456.8 402.133 449.2 418.267C445.2 426.667 441.2 429.733 437.067 427.2C435.6 426.4 435.6 426.533 437.067 428.267C439.6 431.467 446.134 433.733 449.867 432.8C460.534 430.133 467.067 397.733 462.134 371.867C460.934 365.6 457.867 353.867 455.334 345.867C452.667 337.867 449.067 325.333 447.2 318C443.334 302.8 426.934 253.067 418.667 231.333C411.334 212 406.4 202.933 399.6 196.267C394.4 191.067 393.2 190.667 385.334 190C379.334 189.6 378.134 189.733 381.334 190.4Z" fill="black"/>
<path d="M170 192.134C169.467 192.934 169.334 193.734 169.734 194.134C170 194.534 170.667 193.867 171.067 192.667C172 190.4 171.2 190 170 192.134Z" fill="black"/>
<path d="M261.734 197.333C256.667 200.4 251.467 208.133 243.467 224.667C236.534 238.667 225.867 267.733 223.334 279.333C222.267 283.733 219.334 294.533 216.667 303.333C209.334 327.733 206.667 340.533 205.867 357.333C204.534 382 210.534 405.2 220.134 412.267C223.067 414.533 224.267 414.667 229.734 413.2C236.4 411.6 238.134 409.333 232.8 409.333C227.467 409.333 223.867 405.067 220.534 394.667C214.134 374.267 213.067 347.067 217.867 325.333C218.934 320.533 220.534 313.067 221.467 308.667C225.334 288.933 241.467 241.333 251.067 221.333C260 202.667 264.134 198.533 276.4 196C282 194.933 282 194.933 274 194.8C268.134 194.667 264.8 195.333 261.734 197.333Z" fill="black"/>
<path d="M363.067 196.133C375.2 198.933 378 201.866 387.6 221.6C398.4 243.466 410.933 280.933 417.867 312C423.333 336.133 424.4 346 423.6 363.333C423.067 376.266 422.133 381.733 418.8 392C414.4 405.2 411.333 409.333 405.867 409.333C400.933 409.333 402.133 411.6 407.733 412.8C414.4 414.266 417.333 413.733 420.8 410.533C428.533 403.2 434.133 378.4 432.933 356.666C432 340.266 429.6 329.2 421.867 303.333C418.4 292.4 414.933 279.733 414 275.333C412.133 266.533 399.467 232.133 394.667 222.666C388.667 210.8 380.133 198.8 376.133 196.8C373.867 195.6 369.067 194.666 365.067 194.8L358 194.933L363.067 196.133Z" fill="black"/>
<path d="M292.667 198.001C292 198.267 289.734 198.801 287.734 199.201C278.134 201.334 267.2 217.334 259.6 240.001C242.4 291.467 236.667 333.067 242 366.267C245.734 389.467 252.267 401.067 264.667 406.934C276.934 412.667 285.067 417.734 287.467 421.067C289.467 424.001 302.134 432.001 304.667 431.867C305.467 431.867 303.734 430.667 300.8 429.201C298 427.734 293.067 423.867 289.867 420.534C286.534 417.334 283.6 414.667 283.2 414.667C282.8 414.667 278.267 411.467 272.934 407.601C260.4 398.267 256.8 391.734 253.067 371.601C247.734 342.534 250.134 297.467 258.534 265.334C263.2 247.734 271.734 224.534 276.534 216.534C283.334 205.201 287.334 201.334 292.667 200.401C295.2 200.001 296.934 199.201 296.534 198.534C295.867 197.334 295.067 197.201 292.667 198.001Z" fill="black"/>
<path d="M341.334 198.666C341.334 199.333 342.934 200 344.934 200C349.867 200 359.467 210.4 365.067 221.733C370.134 232 379.467 260 381.334 270.666C382 274.666 383.6 282.933 384.667 289.066C390.4 320.266 390.134 351.333 384.134 378.133C380.8 393.066 377.2 398.8 365.734 407.333C360.4 411.333 355.734 414.666 355.2 414.666C354.8 414.666 351.867 417.333 348.667 420.533C345.6 423.733 340.667 427.6 337.867 429.2C334.934 430.666 333.2 431.866 333.734 432C336.267 432.133 345.867 426.133 350.8 421.333C356.4 415.866 361.467 412.8 373.467 407.2C386.134 401.466 393.067 388.8 396.667 365.333C400.934 337.733 398.267 309.333 387.867 270.4C376 225.6 366.8 206.666 354 200.4C349.6 198.133 341.334 197.066 341.334 198.666Z" fill="black"/>
<path d="M300.667 204.267C296.667 208.4 293.867 213.2 290.934 220.933C288.534 226.933 286.667 233.333 286.667 235.067C286.667 236.667 285.467 243.467 284 250.133C277.2 281.333 274.8 327.733 278.534 358C281.334 380.933 289.867 411.067 294.534 414.667C295.067 415.067 297.334 418 299.734 421.2C303.734 426.933 309.867 432 312.667 432C313.334 432 312.667 431.067 310.934 430C305.867 426.4 297.467 410.267 294 397.067C288.4 376.4 286.667 358 286.667 320.267C286.667 260.933 294.267 216.933 306.667 203.733C310.8 199.467 311.2 198.667 308.934 198.667C307.467 198.667 303.734 201.2 300.667 204.267Z" fill="black"/>
<path d="M318.134 200.8C313.734 214.667 314 417.333 318.4 429.333L319.6 432.533L320.534 428.933C323.6 416.667 324.934 286.933 322.667 232.933C321.334 203.867 320.134 194.667 318.134 200.8Z" fill="black"/>
<path d="M332 203.867C345.733 218.267 353.333 272.267 351.333 340.667C350.4 369.6 348.133 387.2 343.333 402C339.733 413.067 331.867 426.933 327.733 430C325.733 431.333 325.467 432 326.667 432C329.333 431.867 334.667 427.067 339.467 420.667C341.6 417.733 343.733 415.067 344.133 414.667C345.6 413.467 349.733 404.8 350.8 400.667C351.333 398.4 353.067 392.133 354.667 386.667C364.133 353.733 364.133 294.267 354.533 250.4C353.067 243.6 351.333 234.933 350.667 231.2C348.133 216.267 336.667 198.667 329.467 198.667C327.6 198.667 328.133 199.733 332 203.867Z" fill="black"/>
<path d="M478.667 236.133C478.667 237.2 481.334 247.6 484.667 259.2C488 270.8 490.667 281.333 490.667 282.4C490.667 283.6 491.067 284.133 491.467 283.6C492.4 282.667 491.2 277.2 484.4 252.667C479.734 235.467 478.667 232.4 478.667 236.133Z" fill="black"/>
<path d="M152.4 258.8C147.2 277.867 138.4 313.467 130.134 348.934C128.267 357.067 126.8 365.2 126.8 366.934C126.934 369.6 127.067 369.734 127.6 367.334C128 365.867 130 357.2 132.134 348C134.4 338.8 137.334 326.267 138.8 320C144.267 296.8 153.6 260.4 156.134 251.734C157.734 246.8 158.667 241.867 158.4 240.534C158.134 239.334 155.467 247.6 152.4 258.8Z" fill="black"/>
<path d="M478.8 256.534C478.667 257.868 482.534 274.134 487.334 292.534C492 310.934 499.2 338.934 503.334 354.668C507.334 370.401 510.267 380.668 509.867 377.334C509.067 370.668 485.334 274.268 481.467 262.001C480 257.601 478.8 255.068 478.8 256.534Z" fill="black"/>
<path d="M150.267 287.467C136.934 339.201 126.534 383.067 126.934 385.867C127.2 387.334 134.4 360.001 143.2 325.067C151.867 290.267 158.8 260.934 158.4 260.001C158.134 259.067 154.4 271.334 150.267 287.467Z" fill="black"/>
<path d="M493.467 290.667C493.467 291.733 494.267 295.6 495.2 299.333C496.267 302.933 497.2 305.067 497.2 304C497.2 302.933 496.4 298.933 495.467 295.333C494.4 291.6 493.467 289.6 493.467 290.667Z" fill="black"/>
<path d="M497.6 308.668C497.6 311.468 500.933 322.935 501.2 320.668C501.2 319.868 500.4 316.268 499.467 312.668C498.4 308.935 497.6 307.202 497.6 308.668Z" fill="black"/>
<path d="M501.6 324.667C501.6 326.133 502.133 328.8 502.667 330.667C503.467 333.333 503.733 333.467 503.733 331.333C503.733 329.867 503.2 327.2 502.667 325.333C501.867 322.667 501.6 322.533 501.6 324.667Z" fill="black"/>
<path d="M504.134 336.8C504.134 338.267 504.534 338.667 504.934 337.6C505.334 336.667 505.2 335.467 504.8 335.067C504.4 334.534 504 335.334 504.134 336.8Z" fill="black"/>
<path d="M505.467 341.335C505.467 342.401 506.267 346.268 507.2 350.001C508.267 353.601 509.2 355.735 509.2 354.668C509.2 353.601 508.4 349.601 507.467 346.001C506.4 342.268 505.467 340.268 505.467 341.335Z" fill="black"/>
<path d="M509.467 359.466C509.467 360.933 509.867 361.333 510.267 360.266C510.667 359.333 510.533 358.133 510.133 357.733C509.733 357.2 509.333 358 509.467 359.466Z" fill="black"/>
<path d="M510.8 371.466C510.8 372.933 511.2 373.333 511.6 372.266C512 371.333 511.867 370.133 511.467 369.733C511.067 369.2 510.667 370 510.8 371.466Z" fill="black"/>
<path d="M124.4 379.333C115.2 416.933 112 431.067 112.667 431.733C113.067 432.133 113.334 432.133 113.334 431.733C113.334 431.467 116.4 418.933 120.134 404.133C123.734 389.2 126.667 376.133 126.4 374.933C126.134 373.733 125.2 375.733 124.4 379.333Z" fill="black"/>
<path d="M512.134 376.8C512.134 378.267 512.534 378.667 512.934 377.6C513.334 376.667 513.2 375.467 512.8 375.067C512.4 374.534 512 375.334 512.134 376.8Z" fill="black"/>
<path d="M510.8 387.068C510.533 391.734 525.067 443.868 529.333 453.334C531.467 458.401 530.4 453.868 522.8 428.001C519.2 415.201 514.933 400.134 513.467 394.668C512.133 389.201 510.8 385.734 510.8 387.068Z" fill="black"/>
<path d="M120.134 412C116.934 424 110.534 445.466 105.734 459.6C95.8669 489.733 93.6003 501.866 95.6003 513.066C97.7336 524 100.667 530.4 104.534 532.133C107.467 533.466 108.667 533.2 112.534 530.533C115.067 528.8 117.867 525.866 118.667 524C120.267 520.666 120.134 520.666 116.134 524.533C107.2 533.066 99.7336 523.2 98.9336 501.333C98.4003 489.066 98.6669 487.866 105.334 467.333C116.934 431.466 126.8 396.8 126.4 393.333C126.134 391.466 123.334 399.866 120.134 412Z" fill="black"/>
<path d="M253.333 409.468C253.333 410.134 252.667 410.401 251.733 409.868C250.8 409.334 250.667 409.468 251.2 410.534C252 411.734 252.667 411.734 254 410.668C255.2 409.734 256.133 409.868 257.467 411.601C259.067 413.601 259.067 413.734 257.067 412.934C255.467 412.401 255.067 412.668 255.6 414.134C256.133 415.468 256.8 415.734 257.733 414.801C258.533 414.001 260.133 414.801 262.267 417.068C264.133 419.068 265.2 419.868 264.667 418.934C263.333 416.268 265.2 417.068 270.667 421.468C273.467 423.734 276.4 425.201 277.2 424.801C278 424.268 280.267 424.934 282.267 426.268C287.6 429.468 285.867 427.868 276.8 420.801C272.4 417.468 269.733 414.668 270.8 414.668C272 414.668 271.333 413.601 269.333 412.001C267.467 410.534 265.2 409.734 264.133 410.001C263.2 410.401 261.333 410.001 260.133 409.068C258.8 408.001 258.933 408.534 260.533 410.401C263.333 413.601 264.667 417.868 262.4 416.534C261.733 416.134 261.467 415.468 261.867 415.068C262.533 414.401 255.6 408.001 254.133 408.001C253.733 408.001 253.333 408.668 253.333 409.468ZM267.867 412.401C268.667 413.468 268.933 414.534 268.533 414.934C268.133 415.334 270 417.334 272.667 419.334C275.2 421.334 277.067 423.334 276.8 423.734C276.4 424.001 273.733 422.401 270.667 420.001C267.6 417.601 265.467 415.334 265.867 414.934C266.267 414.534 266 413.468 265.2 412.401C264.267 411.334 264.133 410.668 265.067 410.668C265.733 410.668 267.067 411.468 267.867 412.401Z" fill="black"/>
<path d="M378 409.334C377.467 410.134 376 410.401 374.8 410.001C373.333 409.601 371.067 410.401 369.2 411.867C367.067 413.601 366.667 414.534 367.867 414.667C368.933 414.667 366.267 417.467 361.867 420.801C352.267 428.267 352.133 428.401 355.2 427.201C357.067 426.534 357.467 426.667 356.8 427.734C356.267 428.667 356.4 429.334 357.2 429.334C357.867 429.334 358.933 428.667 359.333 428.001C359.733 427.201 359.467 426.667 358.667 426.667C357.867 426.667 357.6 426.001 358 425.334C358.533 424.534 360 424.267 361.333 424.667C362.667 425.067 364.133 424.801 364.533 424.134C365.067 423.334 367.2 423.067 369.333 423.334C371.467 423.601 373.2 423.334 373.2 422.934C372.8 420.267 373.6 419.601 374.8 421.334C376.133 423.067 376.133 423.067 375.6 421.334C374.933 419.067 379.2 412.934 380.533 414.267C380.933 414.801 380.4 416.267 379.067 417.601C377.867 418.934 377.333 420.001 377.733 420.001C378.667 420.001 383.867 415.067 387.333 410.667L390 407.334L387.067 409.734C385.2 411.334 384 411.734 383.333 410.801C382.8 409.867 381.467 410.134 379.333 411.601C377.733 412.934 376.533 414.401 376.8 414.934C377.067 415.467 376.8 416.134 376.133 416.534C374 417.867 375.333 413.601 378 410.667C379.333 409.201 380 408.001 379.6 408.001C379.2 408.001 378.4 408.667 378 409.334ZM373.333 412.667C372.4 413.734 372.133 414.667 372.667 414.667C373.333 414.667 372.667 416.001 371.2 417.601C369.867 419.334 369.6 419.867 370.667 418.934C371.733 418.134 373.067 417.334 373.733 417.334C375.467 417.334 373.467 419.867 370.4 421.467C368.4 422.534 367.867 422.534 368.533 421.467C370 419.201 367.2 419.734 365.333 422.001C364.4 423.067 363.067 424.001 362.133 424.001C361.333 424.001 362.933 422.134 365.733 419.867C368.533 417.601 370.533 415.334 370.133 414.934C369.2 414.001 371.867 410.667 373.6 410.667C374.4 410.667 374.267 411.601 373.333 412.667ZM383.2 411.734C383.6 412.401 383.067 412.934 382 412.934C380.933 412.934 380.4 412.401 380.8 411.734C381.2 411.201 381.733 410.667 382 410.667C382.267 410.667 382.8 411.201 383.2 411.734Z" fill="black"/>
<path d="M510.667 411.201C510.667 412.667 514 423.867 518 436.267C526.267 461.601 528 473.201 525.333 486.001C521.733 503.467 515.467 509.067 507.733 501.867L503.733 498.001L504.667 501.334C506 505.867 510.933 516.001 510.267 512.667C509.867 511.201 509.2 508.801 508.8 507.334C508 504.934 508.133 505.067 510.133 507.601C513.333 512.001 521.6 511.867 524.533 507.334C530.267 498.534 532.133 480.801 528.8 465.334C526.533 454.667 510.8 407.601 510.667 411.201Z" fill="black"/>
<path d="M273.333 415.201C273.333 416.001 288.667 427.601 292 429.201C294.8 430.534 294.933 430.401 292.8 429.068C291.467 428.134 286.933 424.534 282.8 421.068C276.133 415.468 273.333 413.601 273.333 415.201Z" fill="black"/>
<path d="M360 417.467C358.133 418.933 355.2 421.6 353.333 423.067C351.467 424.667 347.867 427.333 345.333 428.933C342.8 430.667 341.333 432 342 432C342.8 431.867 344.533 431.067 345.867 430C348.667 427.867 351.2 427.333 350.133 429.067C349.867 429.6 350.8 430.267 352.267 430.267C354.8 430.533 354.8 430.4 352.667 428.8C350.667 427.333 351.2 426.533 357.867 421.467C362 418.267 365.333 415.467 365.333 415.2C365.333 414 363.067 414.933 360 417.467Z" fill="black"/>
<path d="M110.8 435.466C110.8 436.933 111.2 437.333 111.6 436.266C112 435.333 111.867 434.133 111.467 433.733C111.067 433.2 110.667 434 110.8 435.466Z" fill="black"/>
<path d="M532.267 462C532.267 462.667 533.067 465.467 534 468C534.933 470.534 535.867 471.734 535.867 470.667C535.867 469.6 535.067 466.8 534 464.667C533.067 462.4 532.267 461.2 532.267 462Z" fill="black"/>
<path d="M159.067 467.735C158.667 469.468 156.267 474.802 153.867 479.602C151.334 484.402 149.6 488.668 149.867 488.935C150.667 489.735 158.667 476.135 158.667 473.868C158.667 472.802 159.334 470.668 160.134 469.068C160.934 467.602 161.2 466.002 160.667 465.602C160.267 465.202 159.6 466.135 159.067 467.735Z" fill="black"/>
<path d="M478.133 468.667C479.2 473.867 482 479.867 485.333 484.001L488.133 487.334L486.4 483.334C481.733 472.667 477.333 464.801 478.133 468.667Z" fill="black"/>
<path d="M536 473.601C536 474.134 536.533 476.001 537.2 477.734C537.867 479.601 539.067 485.601 539.867 491.067C543.067 514.401 533.2 534.667 523.2 525.201C521.467 523.601 520 522.801 520 523.601C520 525.734 529.067 533.334 531.467 533.334C534.533 533.334 539.333 527.467 541.067 521.601C544.4 510.801 542.267 483.334 537.6 475.334C536.8 473.867 536 473.067 536 473.601Z" fill="black"/>
<path d="M90.6669 504.933C90.6669 505.6 90.0003 509.6 89.3336 514C86.9336 528.933 92.2669 548 99.0669 548C100.534 548 103.067 546.8 104.534 545.467C106.134 544 108.267 542.667 109.334 542.4C111.2 542 115.2 534.8 114.134 533.733C113.867 533.467 112.267 535.067 110.667 537.333C106.667 543.067 100.8 545.867 97.4669 543.733C93.6003 541.333 91.3336 531.467 91.4669 516.933C91.4669 509.867 91.3336 504 91.0669 504C90.8003 504 90.6669 504.4 90.6669 504.933Z" fill="black"/>
<path d="M548.133 518.8C548 529.733 544.8 540.667 541.067 543.2C538.4 545.067 537.733 545.067 533.733 542.667C528.4 539.467 528.133 540.4 533.067 544.667C538.133 549.2 541.467 548.8 545.2 543.2C548 539.2 548.667 536.4 549.067 526.8C549.333 520.4 549.333 514 548.933 512.667C548.667 511.2 548.267 514 548.133 518.8Z" fill="black"/>
<path d="M119.2 527.201C116.133 534.934 114.133 540.934 114.667 540.667C116.133 539.734 125.6 516.001 125.067 514.401C124.8 513.734 122.133 519.467 119.2 527.201Z" fill="black"/>
<path d="M514 516.002C516.133 523.335 520.267 533.468 520.8 532.935C521.067 532.668 519.867 528.268 517.867 523.202C514.4 514.002 512.133 509.735 514 516.002Z" fill="black"/>
<path d="M510.667 518.134C510.667 519.6 511.6 522 512.667 523.467C515.2 526.8 515.2 525.467 512.667 519.867C511.334 516.534 510.8 516 510.667 518.134Z" fill="black"/>
<path d="M124.267 523.334C123.334 525.334 122.8 527.334 123.2 527.601C124.134 528.534 126.934 522.801 126.4 521.068C126.134 520.268 125.2 521.334 124.267 523.334Z" fill="black"/>
<path d="M521.333 535.867C521.333 536.667 521.867 537.6 522.667 538C523.467 538.4 523.6 537.867 523.2 536.8C522.267 534.4 521.333 534 521.333 535.867Z" fill="black"/>
<path d="M87.8668 546.267C90.1335 554.001 92.9335 557.334 97.3335 557.334C98.6668 557.334 106.533 549.334 108.267 546.001C109.067 544.534 106.933 546.267 103.6 549.867C100.267 553.334 96.6668 556.001 95.7335 555.734C94.8001 555.467 92.6668 552.667 91.0668 549.467C87.3335 542.134 86.4001 541.201 87.8668 546.267Z" fill="black"/>
<path d="M548 549.334C545.467 555.467 542.4 556.534 537.867 553.067L534 550.134L537.333 553.867C541.733 558.667 545.333 558 548.533 551.6C549.867 548.8 550.667 546.267 550.267 545.867C550 545.467 548.933 547.067 548 549.334Z" fill="black"/>
</svg>
