<svg width="640" height="640" viewBox="0 0 640 640" fill="none" xmlns="http://www.w3.org/2000/svg">
<path d="M173.867 143.999C171.467 144.932 168.267 148.265 161.067 157.199C159.733 158.799 158.667 160.799 158.667 161.732C158.667 162.532 160.8 160.265 163.333 156.665C166 153.065 170.533 148.399 173.6 146.399C179.067 142.665 179.2 141.865 173.867 143.999Z" fill="black"/>
<path d="M463.333 144.933C465.6 145.999 468.8 148.266 470.666 149.866L474 152.666L471.333 149.466C468.8 146.533 462.533 142.666 460.4 142.666C459.866 142.799 461.2 143.733 463.333 144.933Z" fill="black"/>
<path d="M175.066 148C172.666 149.466 168 154.266 164.666 158.8C161.333 163.333 158.666 166.4 158.666 165.866C158.533 164.266 154.8 170.933 154.8 172.666C154.8 173.333 155.6 172.533 156.666 170.666C158.4 167.733 158.533 167.6 158.666 170C158.8 171.866 159.6 171.2 161.6 167.333C165.733 159.333 174.133 149.866 178.666 148C180.933 147.066 184.8 146.666 187.733 147.066C191.066 147.733 192 147.466 190.666 146.666C187.333 144.533 179.6 145.2 175.066 148Z" fill="black"/>
<path d="M446.533 147.599C444.8 149.599 444.933 149.599 447.6 148.266C451.467 146.133 456.667 146.266 461.067 148.533C466 151.066 473.2 159.466 476 165.999C487.333 191.466 494.267 215.199 509.2 278.666L510.667 284.666L510 278.533C509.733 275.066 507.333 263.466 504.667 252.533C488.8 186.533 475.867 154.133 462.533 147.199C457.467 144.666 448.8 144.799 446.533 147.599Z" fill="black"/>
<path d="M177.6 155.867C172 160.4 169.6 163.6 164.8 173.733C161.6 180.4 158.667 187.467 158.267 189.333C157.867 191.2 155.067 200.4 152.133 210C140.667 246.267 122.8 326.667 127.067 322.667C127.333 322.267 128.667 316.933 130 310.667C135.733 281.6 147.333 234.133 154.133 212.533C156.533 204.267 158.667 196.4 158.667 195.067C158.667 193.6 159.067 192.133 159.467 191.6C159.867 191.2 162.267 186.267 164.8 180.533C170.4 167.6 174.933 161.2 181.467 156.533C186 153.333 187.467 153.067 193.6 153.733C198.667 154.4 200.133 154.267 198.933 153.067C198.133 152.267 194.533 151.333 191.067 151.067C185.067 150.4 184.133 150.8 177.6 155.867Z" fill="black"/>
<path d="M441.866 151.867C437.466 153.733 436.4 156.267 440.666 154.667C447.333 152.133 452.666 153.067 459.2 158.133C464.266 162 466.533 165.333 472 176.533C475.733 184.133 478.666 191.067 478.666 192C478.666 192.933 481.066 201.2 484 210.533C491.733 234.4 497.066 255.867 509.066 312L510.4 318L510.533 312.933C510.8 300.8 488.933 212.267 480.8 192.8C479.6 190 478.666 186.8 478.666 185.6C478.666 184.4 476.266 178.667 473.333 172.667C466.933 159.333 458.933 151.867 450.266 151.2C447.2 150.933 443.333 151.2 441.866 151.867Z" fill="black"/>
<path d="M435.333 158.399C433.2 158.665 430.267 159.865 428.667 160.932C426.133 162.932 426.133 162.932 428.667 161.865C430.133 161.332 434.133 160.665 437.6 160.265C443.733 159.732 444.267 159.999 450.267 166.399C458.133 174.532 467.2 192.665 473.733 212.665C482.533 240.265 510.667 362.665 510.667 373.599C510.667 375.599 513.067 389.465 516 404.265C523.467 442.532 525.733 457.599 525.867 470.932C526 484.265 524.533 487.465 519.867 483.199C517.067 480.665 516.933 480.665 517.733 483.332C522 498.265 525.867 509.465 528.133 513.332C531.2 518.799 530.8 516.932 525.333 500.665C520.667 486.932 520.4 484.799 523.867 489.332C526.133 492.132 526.667 492.265 528.667 490.665C530.8 488.932 530.933 486.932 530.267 474.665C529.467 460.932 526.933 445.732 516.133 387.999C513.2 372.265 509.2 351.199 507.467 341.332C502.133 312.399 496.4 286.799 487.867 253.999C483.467 237.065 479.333 220.665 478.667 217.332C476 203.199 463.067 174.932 454.933 165.599C449.733 159.465 444 157.465 435.333 158.399Z" fill="black"/>
<path d="M184.667 164.399C178 171.466 166.933 193.466 162.133 209.333C152 243.333 126.667 353.466 126.667 363.866C126.667 365.733 124.8 376.399 122.667 387.599C110.267 450.799 106.267 479.333 108.533 488.533C109.467 492.399 112.133 493.066 114.667 489.999C115.6 488.799 116.533 488.133 116.8 488.399C117.333 488.933 111.467 507.333 108.8 513.599C107.6 516.399 106.933 518.666 107.2 518.666C108.8 518.666 113.867 507.599 116.8 497.466C118.533 491.199 120.4 484.799 120.933 483.333C121.733 480.666 121.6 480.666 118.8 483.199C114 487.466 112.667 484.399 112.933 470.266C113.2 459.199 114.8 448.666 123.867 396.666C132.267 348.799 141.2 306.399 150.933 267.333C154.667 252.666 158.133 237.599 158.667 233.999C160.4 223.599 171.2 193.866 177.6 181.999C180.8 176.266 185.867 168.799 188.933 165.599C194.267 159.999 194.8 159.733 200.933 160.266C204.4 160.666 208.533 161.333 210 161.866C211.6 162.533 211.333 162.133 209.333 160.799C207.333 159.599 202.8 158.799 198.133 158.666C190.533 158.666 190 158.933 184.667 164.399Z" fill="black"/>
<path d="M199.2 170.399C192.933 175.066 183.6 192.132 175.866 213.332C170.266 228.799 158.666 269.599 158.666 273.999C158.666 275.466 156.533 285.732 154 296.666C147.066 326.132 136.133 377.199 130 409.332C125.733 432.266 124.666 463.199 128.133 465.866C130.266 467.332 130.133 468.399 127.2 479.866C125.333 486.666 123.333 493.466 122.533 494.932C121.733 496.399 121.466 497.866 121.866 498.266C122.8 499.332 125.733 491.999 130.666 475.999C133.066 468.266 135.6 461.199 136.4 460.266C137.333 459.199 137.066 458.666 135.6 458.666C126.266 458.666 130.533 421.199 149.466 336.932C151.6 327.199 154.666 313.066 156.133 305.332C168.133 243.866 186.533 189.732 200 176.399C206.133 170.132 212.266 168.266 218.666 170.399C220.8 171.199 222.666 171.332 222.666 170.666C222.666 169.066 214.933 166.666 209.333 166.666C206 166.666 202.666 167.866 199.2 170.399Z" fill="black"/>
<path d="M418.8 168.799C412.8 171.332 414 172.132 421.066 170.266C426.266 168.932 427.466 169.066 432.666 171.866C439.866 175.732 443.466 180.266 449.6 193.332C458.933 213.466 473.333 258.666 477.333 280.666C478.266 285.732 481.066 298.932 483.466 309.999C502.266 395.066 506.533 417.999 507.6 437.466C508.4 453.466 507.333 458.666 503.066 458.666C501.6 458.666 501.333 459.199 502.266 460.266C503.866 462.266 510.666 483.332 510.666 486.132C510.666 488.399 516 499.199 516.666 498.399C516.933 498.132 515.733 493.732 514.133 488.666C509.333 474.399 508 467.466 509.6 466.532C512.266 464.932 513.066 452.799 511.733 436.666C510.266 418.799 500.933 369.599 489.733 319.999C485.6 301.999 481.466 282.799 480.4 277.332C471.333 230.666 451.066 178.266 438.933 169.999C433.333 166.132 425.733 165.732 418.8 168.799Z" fill="black"/>
<path d="M152.933 186.133C150.266 193.333 146.133 205.599 143.866 213.199C138.533 231.599 128.133 276.266 127.333 284.666C126.666 292.266 126.4 293.466 136.133 251.466C142.933 222.133 149.066 200.533 154 188.666C158.133 178.666 158.933 175.999 158.4 174.533C158.133 173.599 155.6 178.799 152.933 186.133Z" fill="black"/>
<path d="M152.8 176.666C151.6 180.133 151.867 180.933 153.467 178.266C154.267 176.933 154.667 175.466 154.267 175.2C154 174.8 153.333 175.466 152.8 176.666Z" fill="black"/>
<path d="M219.333 177.866C215.467 179.466 212.533 182.133 205.2 190.666C201.467 194.933 193.733 211.866 191.333 220.533C190.4 224.266 187.067 235.466 184 245.333C177.733 265.866 162.267 327.999 160 341.999C159.067 347.066 156.667 360.666 154.533 371.999C147.467 410.133 146.267 426.533 149.867 435.333C152.267 440.933 154.8 441.199 159.333 436.399C163.2 432.133 163.333 432.399 160.667 439.999C158.267 446.666 158.267 446.666 159.867 446.666C160.933 446.666 168 431.599 168 429.199C168 428.399 166.4 429.066 164.533 430.533C160 434.133 159.467 433.999 157.467 429.866C154.933 424.133 154.267 412.133 155.867 399.333C156.8 392.666 158 382.399 158.667 376.266C160.933 357.199 182.133 266.533 187.867 251.733C188.533 249.866 189.867 244.533 190.667 239.866C193.6 223.599 206.4 196.266 215.333 187.333C221.867 180.933 225.867 179.199 232 180.533C239.867 181.999 235.067 178.933 226.667 176.933C224.8 176.533 221.467 176.933 219.333 177.866Z" fill="black"/>
<path d="M407.334 178.265C400.267 180.665 398.534 182.665 404.934 180.932C412.134 179.065 416.134 180.399 423.2 186.932C427.6 191.065 430.934 196.265 435.467 205.999C445.2 227.199 445.467 227.732 446.667 235.065C447.334 238.799 449.334 246.799 451.2 252.799C453.067 258.665 458.267 277.865 462.534 295.465C476.534 351.599 483.2 389.599 483.334 412.932C483.334 424.932 482.934 426.932 480.267 430.532L477.334 434.665L480 437.332C483.867 441.199 486.534 440.665 488.8 435.332C492.534 426.265 490.8 405.999 482.934 366.532C480.8 355.999 478.267 342.799 477.467 337.332C475.467 324.665 459.2 260.399 452.667 239.332C449.867 230.532 447.2 221.465 446.667 219.332C444 207.999 436.8 194.399 429.6 186.665C420.8 177.199 415.734 175.332 407.334 178.265Z" fill="black"/>
<path d="M234 189.333C226.533 192.8 225.467 194.4 216.933 212.933C207.6 233.333 190.667 287.467 190.667 296.8C190.667 298.533 188.933 307.333 186.8 316.4C179.333 347.6 175.733 368.4 175.067 385.333C174.4 403.6 176 411.467 180.933 414C183.733 415.467 183.733 415.467 181.067 420.667L178.533 426L182.533 421.333C184.8 418.8 188 415.067 189.733 413.2L192.933 409.867L190.133 408.533C184.667 406.133 183.333 400.667 183.467 381.333C183.6 371.067 184.667 358.533 185.867 352C187.067 345.733 188.667 336.4 189.467 331.333C193.333 305.6 211.467 239.333 219.467 221.6C221.2 217.733 222.667 213.733 222.667 212.8C222.667 210.133 232.667 195.333 236.133 192.8C238.133 191.467 242.267 190.667 247.333 190.533L255.333 190.4L250 188.667C242.8 186.267 240.267 186.4 234 189.333Z" fill="black"/>
<path d="M389.6 188C382.533 189.6 383.067 190.533 391.2 190.533C396 190.4 399.867 191.2 402 192.533C405.467 194.8 414.667 207.6 414.667 210.267C414.667 211.067 416.4 215.6 418.533 220.267C428 240.933 442.267 293.867 450.8 340C456.133 368.8 457.067 396.133 452.933 403.867C451.6 406.267 449.333 408.667 447.867 408.933C445.467 409.6 445.6 409.867 448.8 413.2C450.667 415.067 454 418.8 456.133 421.333L460.133 426L457.6 420.667L454.933 415.467L457.733 414C466.4 409.733 465.867 380.533 456.267 336C454 326.133 451.067 312 449.467 304.667C440.133 262.133 432 235.333 421.467 212.533C412.533 193.333 412 192.667 404.533 189.333C398.4 186.533 396.533 186.4 389.6 188Z" fill="black"/>
<path d="M251.6 199.866C248.4 202.799 243.333 209.733 240.267 215.333C234.8 225.466 222.667 259.066 222.667 264.133C222.667 265.599 220.667 274.933 218.133 285.066C208.4 323.866 204.533 350.399 205.733 369.333C206.533 380.933 209.733 391.199 213.867 394.533C216.133 396.399 229.6 397.466 228.4 395.599C227.2 393.599 229.733 394.799 231.467 396.933C234 400.266 233.733 401.999 231.067 399.866C229.6 398.666 229.867 399.733 232 402.666C237.067 410.133 241.333 414.933 241.333 413.333C241.333 412.533 242 412.266 242.667 412.666C243.467 413.199 243.733 413.999 243.467 414.533C243.067 415.066 244.933 417.599 247.733 420.133L252.667 424.666L248.667 420.266C246.533 417.866 244.667 415.199 244.667 414.266C244.667 413.333 241.467 408.399 237.6 403.199C232.667 396.399 229.467 393.466 226.933 392.933C219.6 391.466 214.667 376.266 214.667 355.466C214.8 321.066 230.8 248.933 244.267 221.999C254 202.399 258.933 197.466 268.933 197.199C272.933 197.199 273.467 196.933 271.333 195.999C269.867 195.333 266.133 194.799 262.933 194.799C258.133 194.666 256.4 195.466 251.6 199.866ZM241.2 411.333C241.2 411.999 239.467 410.533 237.333 407.999C235.067 405.466 233.333 402.799 233.333 401.999C233.333 401.333 235.2 402.799 237.333 405.333C239.467 407.866 241.2 410.533 241.2 411.333Z" fill="black"/>
<path d="M367.333 196C365.2 196.933 365.6 197.2 369.6 197.2C379.467 197.467 384.4 202.267 393.733 220.667C399.067 231.333 409.333 262.4 412.533 277.333C416.8 297.733 421.333 323.733 422.8 336C424.667 351.733 423.6 375.067 420.667 382.133C418 388.533 413.6 393.333 410.533 393.333C409.2 393.333 405.6 396.933 402.267 401.6C396.267 410 382.667 424.133 382.667 422.133C382.667 421.467 386 417.467 390 413.2C397.867 404.667 406.133 393.333 404.4 393.333C403.867 393.333 400.933 396.8 398 400.8C389.067 413.333 372.933 429.333 369.2 429.333C368.8 429.333 373.6 424 379.867 417.6C391.067 406 401.2 393.333 399.067 393.333C398.533 393.467 394.667 397.733 390.667 402.933C381.2 415.2 371.333 424.8 364.667 428.267C361.733 429.867 360.133 431.333 361.067 431.6C361.867 432 362.4 432.8 362 433.467C361.467 434.133 362.133 434.267 363.333 433.733C364.933 433.2 365.067 432.667 364 432C362.933 431.333 363.067 430.8 364.667 430.133C367.733 429.067 368.267 429.067 367.333 430.667C366.133 432.667 368.267 432.267 371.2 430C374.8 427.333 376.667 427.467 374.533 430.267C372.8 432.4 372.933 432.533 375.067 430.8C376.267 429.733 377.067 428.667 376.667 428.267C375.733 427.333 378.667 424 380.267 424C381.067 424 380.933 424.933 380 426C378.533 427.733 378.667 427.867 380.533 427.2C381.867 426.667 382.533 425.467 382.133 424.4C381.733 423.333 381.867 422.8 382.533 423.2C383.067 423.6 385.6 421.867 388 419.333C390.533 416.8 393.067 414.667 393.867 414.667C394.667 414.667 392.533 417.467 389.333 420.933L383.333 427.333L389.6 421.467C393.067 418.267 395.867 415.2 395.733 414.8C395.467 412.533 396.133 411.467 397.067 412.933C397.6 413.867 400.267 411.333 404.4 406C410.533 397.6 412 395.067 409.333 396.667C408.667 397.067 408 396.933 408 396.267C408 395.6 411.333 395.333 415.333 395.733C424 396.4 426 395.2 429.6 386.667C436.533 370.533 433.333 335.467 420.4 284.667C417.733 274.4 415.2 263.333 414.667 260C413.067 250.4 405.6 229.6 399.067 216.933C391.333 202 383.6 194.667 375.467 194.8C372.4 194.8 368.8 195.333 367.333 196ZM403.333 405.333C400.533 409.067 398.133 411.867 397.733 411.467C397.333 411.2 399.333 407.867 402.133 404.133C404.933 400.4 407.467 397.6 407.733 398C408 398.267 406.133 401.6 403.333 405.333Z" fill="black"/>
<path d="M304.533 201.199C302.133 202.666 298.8 205.732 296.933 208.266C292.8 213.732 286.667 228.132 286.667 232.532C286.667 234.399 285.733 239.599 284.667 244.266C272.533 296.666 274.667 364.399 289.467 403.199C292.667 411.332 302.933 427.066 306.933 429.866C311.6 433.199 312.8 432.399 309.067 428.266C299.867 418.532 290.8 390.399 287.867 362.666C285.733 341.999 287.067 274.399 290 255.999C294.8 225.332 300.133 209.199 307.467 202.666C312.667 198.132 310.933 197.332 304.533 201.199Z" fill="black"/>
<path d="M318.133 200.8C313.733 214.667 314 417.333 318.4 429.333L319.6 432.533L320.533 428.933C323.6 416.667 324.933 286.933 322.666 232.933C321.333 203.867 320.133 194.667 318.133 200.8Z" fill="black"/>
<path d="M331.2 202.667C342.533 212.667 349.866 247.6 351.333 298C352.4 338.933 350.533 372.667 346 390.667C341.733 407.467 333.866 425.067 328.666 429.067C324.4 432.4 327.2 433.067 331.733 429.867C336 426.933 347.733 408.4 349.6 402C350.266 399.067 352.133 393.067 353.466 388.667C364.4 354 364.666 296.267 354.4 247.333C352.8 240 351.2 231.6 350.666 228.667C348.666 217.333 341.866 205.867 334.133 201.2C327.733 197.333 326 198.133 331.2 202.667Z" fill="black"/>
<path d="M279.067 202.667C271.733 205.867 263.067 219.067 258.267 234C251.6 254.8 243.733 291.6 241.2 313.333C239.333 330.133 240.4 360.4 243.2 370.533C246.4 382.267 249.733 386.267 271.067 405.333C277.2 410.8 283.6 417.333 285.467 419.867C288.933 424.8 299.2 432 302.533 432C303.733 432 302.667 430.933 300.267 429.733C297.867 428.533 289.6 420.667 282.133 412.133C274.533 403.6 267.333 395.733 266.133 394.667C264.8 393.733 262 390.133 259.733 386.933C245.467 366.133 247.333 294.267 263.6 241.333C270.933 217.6 279.6 204.533 290.4 201.333C293.867 200.267 293.867 200.267 289.333 200.133C286.8 200.133 282.133 201.2 279.067 202.667Z" fill="black"/>
<path d="M347.867 201.333C354.4 202.933 358.667 206.533 364.267 215.467C370 224.533 379.467 252.4 381.467 266C382.267 271.067 383.733 280.4 384.8 286.667C388.667 310.4 389.867 333.867 388.267 349.733C386.533 365.2 383.333 379.6 380.133 385.333C379.067 387.067 374 393.067 368.8 398.667C363.6 404.133 355.733 412.8 351.467 417.733C347.067 422.8 341.333 428 338.8 429.333C336.133 430.8 334.8 431.867 335.867 432C339.333 432 348.667 425.6 352.533 420.4C354.8 417.6 361.867 410.533 368.267 404.667C385.067 389.467 387.733 386.667 391.333 380.667C398.133 369.2 400.533 337.467 396.8 308.533C394.533 291.467 388.933 264.533 385.333 252.933C383.867 248.4 382.667 243.2 382.667 241.333C382.667 236.8 374.933 219.467 369.467 211.467C364.4 204.133 356.8 200 348.667 200.133L343.333 200.267L347.867 201.333Z" fill="black"/>
<path d="M510.8 290.665C510.666 291.732 513.6 307.599 517.2 325.999C520.8 344.265 525.333 368.799 527.466 380.532C529.6 392.132 531.466 400.932 531.733 400.265C532.4 398.265 513.333 294.799 511.333 289.999C511.066 289.199 510.8 289.599 510.8 290.665Z" fill="black"/>
<path d="M123.6 305.999C112.267 363.599 94.5332 463.332 94.7998 468.932C94.9332 472.932 95.0665 472.799 100.8 439.999C107.2 403.732 114.8 361.999 120.8 330.799C124.133 313.732 126.667 298.399 126.4 296.799C126.133 295.332 124.933 299.332 123.6 305.999Z" fill="black"/>
<path d="M510.667 322C510.667 324.133 513.6 341.2 517.2 360C535.2 452.8 540 480.4 540.4 495.733C540.667 504.533 540.267 507.2 538.533 508.4C536.667 509.866 536.667 510.666 538.8 517.333C540 521.333 541.067 523.6 541.2 522.4C541.333 521.2 540.8 518.666 540 516.8C539.067 514 539.2 513.333 540.667 513.333C544.533 513.333 543.2 490.933 537.333 456.933C530.133 414.266 512.267 319.866 511.2 318.8C510.933 318.533 510.667 320 510.667 322Z" fill="black"/>
<path d="M124.4 331.332C116.133 374.532 104.4 437.465 100.667 459.198C93.8666 499.732 93.0666 513.332 97.8666 513.332C99.3332 513.332 99.4666 514.265 98.2666 517.998C97.4666 520.532 96.3999 522.665 95.8666 522.665C95.3332 522.665 95.1999 523.998 95.5999 525.465C96.2666 527.998 96.1332 528.132 93.4666 526.798C89.9999 524.932 89.8666 519.198 92.6666 497.998C95.0666 479.998 95.0666 472.798 92.5332 487.332C87.5999 516.665 87.4666 531.465 92.1332 530.265C93.4666 529.865 94.7999 530.265 95.0666 531.065C95.3332 531.865 96.9332 527.732 98.5332 521.865C100.267 516.132 102.267 510.532 103.067 509.598C104.267 508.132 104 507.865 101.867 508.265C99.5999 508.665 99.3332 507.732 98.9332 497.732C98.3999 483.465 104.933 444.398 122 357.332C124.667 343.998 126.667 330.932 126.4 328.265C126 323.732 125.867 323.998 124.4 331.332Z" fill="black"/>
<path d="M237.6 399.6C240 402.933 244.8 408.933 248.4 412.667C255.6 420.667 256.8 423.733 250.4 417.867L246 414L249.867 418.267C252 420.667 254.134 422.533 254.534 422.4C257.067 422.133 257.6 422.933 255.867 424.267C254.8 425.2 254.267 425.867 254.534 425.733C254.8 425.6 256.267 426.133 257.867 426.933C260.4 428.267 260.534 428.267 258.8 426.267C257.867 424.933 257.6 424 258.4 424C260 424 262.934 427.333 262 428.267C261.6 428.667 262.4 429.733 263.6 430.8C265.734 432.533 265.867 432.4 264.134 430.267C261.867 427.467 263.734 427.333 267.734 430.133C269.334 431.2 270.667 431.6 270.667 430.8C270.667 430.133 269.334 429.067 267.734 428.533C263.867 427.333 247.467 410.667 240.667 400.933C237.734 396.8 234.8 393.333 234.267 393.333C233.6 393.333 235.2 396.133 237.6 399.6Z" fill="black"/>
<path d="M240.133 395.6C255.067 415.2 264.4 424.8 272.4 428.8C275.867 430.533 278.667 431.733 278.667 431.333C278.667 431.066 276.4 429.6 273.733 428.133C267.2 424.8 255.733 413.6 247.333 402.4C243.733 397.466 240.133 393.466 239.467 393.333C238.8 393.333 239.2 394.4 240.133 395.6Z" fill="black"/>
<path d="M249.2 399.333C252.133 402.533 254.667 405.733 254.667 406.399C254.667 409.733 279.333 430.666 283.2 430.666C284 430.666 281.6 428.666 278 426.133C270.933 421.333 254.667 405.866 254.667 403.866C254.667 402.133 246.667 393.333 245.067 393.333C244.267 393.333 246.133 395.999 249.2 399.333Z" fill="black"/>
<path d="M389.733 396.265C388.133 397.999 384.667 402.399 381.733 406.132C375.467 414.665 362.667 425.865 354.667 430.132C351.333 431.732 349.2 433.199 349.733 433.332C350.267 433.332 353.733 431.865 357.467 429.999C365.2 425.999 378 414.932 382.533 408.132C384.267 405.465 387.867 401.065 390.4 398.265C393.067 395.599 394.533 393.332 393.867 393.332C393.067 393.332 391.2 394.665 389.733 396.265Z" fill="black"/>
<path d="M265.467 409.866C281.2 425.333 288.667 431.066 294.667 432.533C296.667 433.066 295.733 432.266 292.4 430.4C289.333 428.666 279.067 420 269.467 410.933C260 402 251.733 394.666 251.067 394.666C250.533 394.666 256.933 401.466 265.467 409.866Z" fill="black"/>
<path d="M370 410.132C361.2 418.665 351.067 427.332 347.333 429.465C343.733 431.599 341.6 433.332 342.8 433.332C346.933 433.332 358.267 424.665 373.2 409.865C381.6 401.465 387.867 394.665 387.2 394.799C386.533 394.799 378.8 401.732 370 410.132Z" fill="black"/>
<path d="M532.266 404.667C532.133 406.133 532.933 411.2 534 416C534.933 420.8 535.733 423.2 535.866 421.333C535.866 419.467 535.066 414.4 534.133 410C533.066 405.6 532.266 403.2 532.266 404.667Z" fill="black"/>
<path d="M536.267 427.332C536.133 428.799 537.2 435.332 538.533 441.999C539.867 448.532 541.067 452.799 541.067 451.332C541.2 449.865 540.133 443.199 538.8 436.665C537.333 429.999 536.267 425.865 536.267 427.332Z" fill="black"/>
<path d="M472.8 435.598C476.534 444.132 478.667 447.065 478.667 443.732C478.667 440.532 475.867 432.932 473.6 430.265C469.733 425.865 469.467 427.998 472.8 435.598Z" fill="black"/>
<path d="M285.733 432.666C285.733 433.599 286.533 434.133 287.6 433.733C288.533 433.333 289.333 432.933 289.333 432.666C289.333 432.399 288.533 431.999 287.6 431.599C286.533 431.199 285.733 431.733 285.733 432.666Z" fill="black"/>
<path d="M273.333 432.532C273.333 432.799 274.267 433.466 275.467 433.866C276.533 434.266 277.067 434.132 276.667 433.332C275.867 431.999 273.333 431.466 273.333 432.532Z" fill="black"/>
<path d="M488 445.467C488 449.467 497.6 472.533 499.733 473.867C501.467 474.933 492.133 448.933 490 446.667C488.933 445.6 488 445.067 488 445.467Z" fill="black"/>
<path d="M147.467 447.866C146 450.132 137.467 475.332 138 475.732C138.8 476.666 144.267 465.066 147.467 455.732C149.067 450.666 150 446.666 149.333 446.666C148.667 446.666 147.867 447.199 147.467 447.866Z" fill="black"/>
<path d="M541.6 458C541.6 460.133 541.867 460.933 542.267 459.6C542.533 458.4 542.533 456.533 542.267 455.6C541.867 454.8 541.6 455.733 541.6 458Z" fill="black"/>
<path d="M542.933 473.999C542.933 476.132 543.466 479.732 544 481.999C545.466 487.599 545.466 482.132 544.133 475.332C543.2 470.799 542.933 470.666 542.933 473.999Z" fill="black"/>
<path d="M546.4 495.999C546.933 501.466 547.333 510.533 547.333 515.999C547.333 525.599 547.2 525.999 544.4 525.733C542.667 525.466 541.333 525.999 541.333 526.799C541.333 527.466 541.867 527.866 542.533 527.466C543.2 527.066 544.4 527.599 545.333 528.666C546.267 529.733 547.467 530.666 548.133 530.666C549.867 530.666 549.333 508.799 547.333 496.666L545.467 485.999L546.4 495.999Z" fill="black"/>
<path d="M103.2 514C97.0665 533.066 96.6665 534.8 98.5332 532C100.8 528.8 109.6 501.466 109.067 499.733C108.667 498.8 106.133 505.2 103.2 514Z" fill="black"/>
<path d="M529.333 500.532C529.333 503.466 538.667 529.866 540.267 531.332C541.2 532.266 541.467 531.999 540.933 530.666C540.533 529.599 538 521.866 535.333 513.599C530.667 499.332 529.333 496.399 529.333 500.532Z" fill="black"/>
<path d="M90 537.333C89.4666 538.133 88.5333 538.266 87.7333 537.866C86.9333 537.333 86.5333 537.733 86.9333 538.799C88 542.133 94.6666 540.533 94.6666 536.933C94.6666 536.133 93.7333 536.666 92.5333 538.133C90.8 540.266 90.5333 540.266 91.2 538.266C92 535.733 91.3333 535.199 90 537.333Z" fill="black"/>
<path d="M548.267 538.933C548.533 539.599 549.333 540.133 550 540.133C550.667 540.133 551.467 539.599 551.733 538.933C551.867 538.266 551.2 537.733 550 537.733C548.8 537.733 548.133 538.266 548.267 538.933Z" fill="black"/>
</svg>
